<svg width="114" height="60" viewBox="0 0 114 60" fill="none" xmlns="http://www.w3.org/2000/svg">
<g clip-path="url(#clip0_11105_18979)">
<path d="M89.6275 1.34322L81.4025 34.9006L73.1629 1.34322H48.9847V13.7318C46.092 2.87719 35.851 0.159876 26.355 -0.000825419C14.7991 -0.146917 2.67348 4.87865 2.2206 20.2183H18.2177C18.2177 15.5872 21.7531 12.9283 25.7414 13.0014C30.6355 12.9721 32.8999 15.0613 33.0168 18.3337C32.8415 21.1679 31.176 23.1402 25.7852 23.1402H20.4091V34.2724H25.2885C28.0643 34.2724 31.9211 35.7771 32.0672 39.7508C32.2571 44.4696 28.97 46.5587 24.9525 46.5879C17.7502 46.325 16.5961 40.7735 16.5961 36.0109H0C0.073046 39.2249 -0.715852 60.1453 25.3031 59.9992C37.7648 60.1161 46.4719 54.8567 49.0285 47.6106V58.7136H65.4054V22.5266L74.2586 58.7282H88.5756L97.458 22.5704V58.772H113.806V1.34322H89.6275ZM49.0285 34.8129C46.9978 30.5762 44.1198 28.7209 42.4982 28.1365C45.8875 26.6318 47.6698 24.5719 49.0285 20.4813V34.8129Z" fill="#EE1B2D" fill-opacity="0.933333"/>
</g>
<defs>
<clipPath id="clip0_11105_18979">
<rect width="113.806" height="60" fill="white"/>
</clipPath>
</defs>
</svg>
