<svg width="64" height="64" viewBox="0 0 64 64" fill="none" xmlns="http://www.w3.org/2000/svg">
<g clip-path="url(#clip0_11097_17142)">
<mask id="mask0_11097_17142" style="mask-type:luminance" maskUnits="userSpaceOnUse" x="-60" y="-1042" width="981" height="1273">
<path d="M-59.1797 230.609H920.113V-1041.01H-59.1797V230.609Z" fill="white"/>
</mask>
<g mask="url(#mask0_11097_17142)">
<path d="M50.4899 16.0207L45.8939 34.7182L41.2849 16.0223H27.9727V22.9244C26.3551 16.883 20.4209 15.3678 15.1184 15.2817C8.65479 15.1973 1.48955 17.9987 1.24107 26.5477H10.1651C10.1651 23.9492 12.5281 22.4876 14.7612 22.5265C17.5009 22.5038 18.7612 23.6731 18.8245 25.4937C18.7303 27.0738 17.7981 28.1733 14.7839 28.1733H11.7892V34.3771H14.5176C16.0685 34.3771 18.2269 35.2216 18.3113 37.4303C18.4152 40.0613 16.5849 41.2192 14.3324 41.2419C10.3113 41.0925 9.27355 38.0036 9.27355 35.3467H-0.0078125C0.0311643 37.1364 -0.0273011 48.8018 14.5192 48.7157C21.5025 48.7807 26.5598 45.8493 27.9905 41.8103V48.0012H36.9617V27.8306L41.9118 48.0012H49.9101L54.8797 27.8534V48.019H64.0133V16.0207H50.4899ZM28.0019 34.6727C26.8618 32.3146 25.2411 31.2833 24.3543 30.9569C26.2496 30.1124 27.2419 28.9707 28.0019 26.6922V34.6727Z" fill="#EE1B2D"/>
</g>
</g>
<defs>
<clipPath id="clip0_11097_17142">
<rect width="64" height="64" fill="white"/>
</clipPath>
</defs>
</svg>
