<svg width="180" height="120" viewBox="0 0 180 120" fill="none" xmlns="http://www.w3.org/2000/svg">
<g clip-path="url(#clip0_11105_18975)">
<g clip-path="url(#clip1_11105_18975)">
<path d="M122.725 31.3432L114.5 64.9006L106.261 31.3432H82.0823V43.7318C79.1897 32.8772 68.9486 30.1599 59.4527 29.9992C47.8968 29.8531 35.7711 34.8786 35.3183 50.2183H51.3153C51.3153 45.5872 54.8508 42.9283 58.8391 43.0014C63.7332 42.9721 65.9976 45.0613 66.1145 48.3337C65.9391 51.1679 64.2737 53.1402 58.8829 53.1402H53.5067V64.2724H58.3862C61.1619 64.2724 65.0188 65.7771 65.1649 69.7508C65.3548 74.4696 62.0677 76.5587 58.0502 76.5879C50.8478 76.325 49.6937 70.7735 49.6937 66.0109H33.0977C33.1707 69.2249 32.3818 90.1453 58.4008 89.9992C70.8624 90.1161 79.5695 84.8567 82.1261 77.6106V88.7136H98.5031V52.5266L107.356 88.7282H121.673L130.556 52.5704V88.772H146.903V31.3432H122.725ZM82.1261 64.8129C80.0955 60.5762 77.2174 58.7209 75.5958 58.1365C78.9852 56.6318 80.7675 54.5719 82.1261 50.4813V64.8129Z" fill="#EE1B2D" fill-opacity="0.933333"/>
</g>
</g>
<defs>
<clipPath id="clip0_11105_18975">
<rect width="140" height="60" fill="white" transform="translate(20 30)"/>
</clipPath>
<clipPath id="clip1_11105_18975">
<rect width="113.806" height="60" fill="white" transform="translate(33.0977 30)"/>
</clipPath>
</defs>
</svg>
