<svg width="70" height="30" viewBox="0 0 70 30" fill="none" xmlns="http://www.w3.org/2000/svg">
<g clip-path="url(#clip0_10196_1052)">
<g clip-path="url(#clip1_10196_1052)">
<g clip-path="url(#clip2_10196_1052)">
<path d="M51.3626 0.671611L47.2501 17.4503L43.1303 0.671611H31.0412V6.86591C29.5948 1.43859 24.4743 0.0799379 19.7263 -0.000412709C13.9484 -0.0734587 7.88557 2.43932 7.65913 10.1092H15.6577C15.6577 7.7936 17.4254 6.46416 19.4195 6.50068C21.8666 6.48607 22.9988 7.53063 23.0572 9.16686C22.9696 10.584 22.1368 11.5701 19.4414 11.5701H16.7534V17.1362H19.1931C20.581 17.1362 22.5094 17.8886 22.5824 19.8754C22.6774 22.2348 21.0339 23.2794 19.0251 23.294C15.4239 23.1625 14.8469 20.3867 14.8469 18.0054H6.54883C6.58535 19.6124 6.1909 30.0726 19.2004 29.9996C25.4312 30.058 29.7848 27.4284 31.0631 23.8053V29.3568H39.2515V11.2633L43.6781 29.3641H50.8366L55.2778 11.2852V29.386H63.4517V0.671611H51.3626ZM31.0631 17.4065C30.0477 15.2881 28.6087 14.3604 27.7979 14.0683C29.4926 13.3159 30.3837 12.2859 31.0631 10.2406V17.4065Z" fill="#E6E7F5"/>
</g>
</g>
</g>
<defs>
<clipPath id="clip0_10196_1052">
<rect width="70" height="30" fill="white"/>
</clipPath>
<clipPath id="clip1_10196_1052">
<rect width="70" height="30" fill="white"/>
</clipPath>
<clipPath id="clip2_10196_1052">
<rect width="56.9028" height="30" fill="white" transform="translate(6.54883)"/>
</clipPath>
</defs>
</svg>
