<svg width="70" height="30" viewBox="0 0 70 30" fill="none" xmlns="http://www.w3.org/2000/svg">
<g clip-path="url(#clip0_10196_1108)">
<g clip-path="url(#clip1_10196_1108)">
<g clip-path="url(#clip2_10196_1108)">
<path d="M19.1268 15.5592H18.2308L18.6592 13.616H18.6732M17.7884 17.2476L18.0432 16.2508H19.3256L19.5748 17.2476H20.566L19.3452 12.7536H18.1048L16.8588 17.2476H17.7884ZM21.7476 15.772C21.7476 14.8144 21.8036 14.582 22.134 14.582C22.4588 14.582 22.4896 14.974 22.4896 15.6656C22.4896 16.332 22.4476 16.6624 22.1284 16.6624C21.7056 16.6624 21.7476 16.066 21.7476 15.772ZM22.5344 14.1032V14.47H22.5204C22.3972 14.176 22.1284 14.0416 21.8176 14.0416C20.902 14.0416 20.8908 14.9208 20.8908 15.6096C20.8908 16.318 20.846 17.2028 21.812 17.2028C22.0976 17.2028 22.3468 17.0796 22.4784 16.836H22.4896V17.4408C22.4896 17.76 22.3832 17.9644 22.1648 17.9644C22.0276 17.9644 21.9268 17.9224 21.8708 17.8384C21.8148 17.7656 21.798 17.6536 21.798 17.522H20.9384C20.958 18.2892 21.518 18.4572 22.1704 18.4572C23.3772 18.4572 23.366 17.5976 23.366 17.3792V14.1032H22.5344ZM25.0292 17.2476H24.1528V14.1032H25.0292V17.2476ZM25.0292 13.4424H24.1528V12.7508H25.0292V13.4424ZM25.8832 12.7536H26.7624V17.2476H25.8832V12.7536ZM28.3192 15.324C28.3192 15.0552 28.3136 14.582 28.7196 14.582C29.1368 14.582 29.1228 15.0188 29.1228 15.324M29.9992 15.8168C30.03 14.8088 29.8984 14.0416 28.7168 14.0416C27.5576 14.0416 27.4344 14.7752 27.4344 15.6348C27.4344 16.6176 27.5856 17.3092 28.7168 17.3092C29.1284 17.3092 29.4392 17.1972 29.6436 17.0068C29.8564 16.8136 29.9684 16.5336 29.9796 16.192H29.0892C29.0892 16.4524 29.0276 16.752 28.7168 16.752C28.3304 16.752 28.3164 16.192 28.3164 15.8168H29.9992ZM31.5 14.4224H31.5112C31.598 14.2796 31.7044 14.1844 31.822 14.1284C31.9452 14.0668 32.088 14.0416 32.2532 14.0416C32.6704 14.0416 33.0372 14.2908 33.0372 14.7276V17.2476H32.158V15.0804C32.158 14.8004 32.1076 14.582 31.8276 14.582C31.5476 14.582 31.4972 14.7976 31.4972 15.0804V17.2476H30.618V14.1032H31.4972M33.5048 14.1032H33.8604V13.6048L34.7396 13.2128V14.1032H35.1932V14.6464H34.7396V16.3264C34.7396 16.5616 34.734 16.7184 35.0196 16.7184C35.0756 16.7184 35.1316 16.7184 35.1736 16.7072V17.2476C35.056 17.2588 34.93 17.2784 34.72 17.2784C33.9612 17.2784 33.8604 16.7744 33.8604 16.5812V14.6464H33.5048M39.6928 12.7536V13.5012H38.6456V17.2504H37.7048V13.5012H36.6604V12.7536M40.348 15.324C40.348 15.0552 40.3424 14.582 40.7456 14.582C41.1628 14.582 41.1488 15.0188 41.1488 15.324M42.028 15.8168C42.0588 14.8088 41.9272 14.0416 40.7456 14.0416C39.5864 14.0416 39.4632 14.7752 39.4632 15.6348C39.4632 16.6176 39.6116 17.3092 40.7456 17.3092C41.1572 17.3092 41.468 17.1972 41.6752 17.0068C41.8852 16.8136 41.9972 16.5336 42.0112 16.192H41.1208C41.1208 16.4524 41.0592 16.752 40.7456 16.752C40.3592 16.752 40.348 16.192 40.348 15.8168H42.028ZM44.2316 15.226C44.2316 14.7584 44.114 14.6044 43.8396 14.6044C43.4644 14.6044 43.4336 14.9348 43.4336 15.5872C43.4336 16.5448 43.5148 16.752 43.8368 16.752C44.1112 16.752 44.2428 16.5028 44.2428 16.0912H45.1192C45.1192 16.9452 44.6572 17.312 43.8368 17.312C42.7028 17.312 42.5544 16.6204 42.5544 15.6376C42.5544 14.778 42.6804 14.0444 43.8368 14.0444C44.646 14.0444 45.108 14.4056 45.108 15.2288M47.2836 17.2476V15.0804C47.2836 14.8004 47.2332 14.582 46.9532 14.582C46.6732 14.582 46.6228 14.8004 46.6228 15.0804V17.2476H45.7436V12.7536H46.6228V14.4224H46.634C46.7208 14.2796 46.8272 14.1844 46.9448 14.1284C47.068 14.0668 47.2108 14.0416 47.3732 14.0416C47.7904 14.0416 48.1572 14.2908 48.1572 14.7276V17.2476M49.7364 14.4224H49.7504C49.8372 14.2796 49.9436 14.1844 50.0612 14.1284C50.1872 14.0668 50.33 14.0416 50.4896 14.0416C50.9068 14.0416 51.2736 14.2908 51.2736 14.7276V17.2476H50.3944V15.0804C50.3944 14.8004 50.344 14.582 50.064 14.582C49.784 14.582 49.7336 14.7976 49.7336 15.0804V17.2476H48.86V14.1032H49.7392M53.1804 16.7492C52.8584 16.7492 52.7744 16.5448 52.7744 15.5872C52.7744 14.932 52.8052 14.6044 53.1804 14.6044C53.5528 14.6044 53.5836 14.9348 53.5836 15.5872C53.5864 16.5448 53.5052 16.7492 53.1804 16.7492ZM53.1804 17.3092C54.3144 17.3092 54.4628 16.6176 54.4628 15.6348C54.4628 14.7752 54.3396 14.0416 53.1804 14.0416C52.0212 14.0416 51.898 14.7752 51.898 15.6348C51.898 16.6204 52.0492 17.3092 53.1804 17.3092ZM55.132 12.7536H56.0084V17.2476H55.132V12.7536ZM57.9628 16.7492C57.6408 16.7492 57.5596 16.5448 57.5596 15.5872C57.5596 14.932 57.5904 14.6044 57.9628 14.6044C58.338 14.6044 58.3688 14.9348 58.3688 15.5872C58.3688 16.5448 58.2876 16.7492 57.9628 16.7492ZM57.9628 17.3092C59.0968 17.3092 59.2452 16.6176 59.2452 15.6348C59.2452 14.7752 59.1192 14.0416 57.9628 14.0416C56.8064 14.0416 56.6804 14.7752 56.6804 15.6348C56.6804 16.6204 56.8288 17.3092 57.9628 17.3092ZM60.6228 15.772C60.6228 14.8144 60.6788 14.582 61.0092 14.582C61.334 14.582 61.3648 14.974 61.3648 15.6656C61.3648 16.332 61.32 16.6624 61.0036 16.6624C60.578 16.6624 60.6228 16.066 60.6228 15.772ZM61.4068 14.1032V14.47H61.3928C61.2696 14.176 61.0008 14.0416 60.69 14.0416C59.7744 14.0416 59.7632 14.9208 59.7632 15.6096C59.7632 16.318 59.7184 17.2028 60.6844 17.2028C60.97 17.2028 61.2192 17.0796 61.3508 16.836H61.3648V17.4408C61.3648 17.76 61.2584 17.9644 61.04 17.9644C60.9028 17.9644 60.8048 17.9224 60.7488 17.8384C60.6928 17.7656 60.6732 17.6536 60.6732 17.522H59.8136C59.8332 18.2892 60.3932 18.4572 61.0456 18.4572C62.2552 18.4572 62.2412 17.5976 62.2412 17.3792V14.1032H61.4068ZM63.9044 17.2476H63.0252V14.1032H63.9044V17.2476ZM63.9044 13.4424H63.0252V12.7508H63.9044V13.4424ZM66.262 15.324C66.262 15.0188 66.2732 14.582 65.8588 14.582C65.4556 14.582 65.4612 15.0552 65.4612 15.324M65.4612 15.8168C65.4612 16.1892 65.4724 16.752 65.8588 16.752C66.1696 16.752 66.234 16.4524 66.234 16.192H67.1244C67.1132 16.5336 66.9984 16.8136 66.7884 17.0068C66.584 17.2 66.2732 17.3092 65.8616 17.3092C64.7276 17.3092 64.5792 16.6176 64.5792 15.6348C64.5792 14.7752 64.7024 14.0416 65.8616 14.0416C67.0432 14.0416 67.1748 14.8088 67.144 15.8168H65.4612ZM68.4544 16.2396C68.4488 16.3824 68.4544 16.5196 68.4992 16.6204C68.5496 16.7212 68.642 16.7716 68.8184 16.7716C68.9948 16.7716 69.1404 16.6596 69.1404 16.4468C69.1404 15.7804 67.5948 15.9316 67.5948 14.9292C67.5948 14.2516 68.2668 14.0444 68.8352 14.0444C69.4316 14.0444 69.9748 14.33 69.9244 15.0104H69.0648C69.0648 14.7948 69.0396 14.6604 68.978 14.6072C68.922 14.5512 68.8464 14.5372 68.754 14.5372C68.5608 14.5372 68.4544 14.6632 68.4544 14.8732C68.4544 15.3716 69.9972 15.3464 69.9972 16.3544C69.9972 16.9032 69.5492 17.312 68.8212 17.312C68.054 17.312 67.5444 17.1188 67.5948 16.2424M7.3472 12.8208C7.3612 13.1568 7.098 13.4396 6.762 13.4536C6.426 13.4676 6.1432 13.2044 6.1292 12.8684C6.1292 12.8516 6.1292 12.8348 6.1292 12.818C6.1292 12.482 6.4008 12.2104 6.7368 12.2104C7.0756 12.2104 7.35 12.482 7.3472 12.8208ZM7.1596 11.082C7.1708 11.3144 6.9916 11.5104 6.7592 11.5244C6.5268 11.5384 6.3308 11.3564 6.3168 11.124C6.3168 11.11 6.3168 11.096 6.3168 11.082C6.328 10.8496 6.5268 10.6704 6.7592 10.6816C6.9776 10.6928 7.1512 10.8664 7.1596 11.082ZM7.0196 9.67084C7.0196 9.82484 6.8936 9.95084 6.7396 9.95084C6.5856 9.95084 6.4596 9.82484 6.4596 9.67084C6.4596 9.51684 6.5856 9.39084 6.7396 9.39084C6.8964 9.39084 7.0196 9.51684 7.0196 9.67084ZM6.9132 8.43044C6.9132 8.52564 6.8348 8.60404 6.7396 8.60404C6.6444 8.60404 6.566 8.52564 6.566 8.43044C6.566 8.33524 6.6444 8.25684 6.7396 8.25684C6.8348 8.25684 6.9132 8.33244 6.9132 8.43044ZM8.9208 15.6068C8.5848 15.6068 8.3104 15.3324 8.3104 14.9992C8.3104 14.6632 8.5848 14.3916 8.9208 14.3916C9.2568 14.3916 9.5284 14.6632 9.5284 14.9992C9.5312 15.3352 9.2568 15.6068 8.9208 15.6068ZM10.6596 15.4164C10.4272 15.4164 10.2396 15.2288 10.2396 14.9964C10.2396 14.7668 10.43 14.5764 10.6596 14.5764C10.8892 14.5764 11.0796 14.7668 11.0796 14.9964C11.0796 15.2288 10.892 15.4164 10.6596 15.4164ZM12.0708 15.2764C11.9168 15.2764 11.7936 15.1532 11.7908 14.9992V14.9964C11.7908 14.8424 11.914 14.7164 12.0708 14.7164C12.2248 14.7164 12.3508 14.8424 12.3508 14.9964C12.3508 15.1532 12.2248 15.2764 12.0708 15.2764ZM13.314 15.17C13.2188 15.17 13.1404 15.0916 13.1404 14.9964C13.1404 14.9012 13.2188 14.8228 13.314 14.8228C13.4092 14.8228 13.4876 14.9012 13.4876 14.9964C13.4876 15.0944 13.4092 15.17 13.314 15.17ZM6.132 17.1748C6.132 16.8388 6.4064 16.5672 6.7424 16.5672C7.0784 16.5672 7.35 16.8388 7.35 17.1776C7.35 17.5136 7.0784 17.7852 6.7396 17.7852C6.4036 17.7852 6.132 17.5136 6.132 17.1748C6.132 17.1776 6.132 17.1776 6.132 17.1748ZM6.3196 18.9136C6.3196 18.6812 6.5072 18.4936 6.7396 18.4936C6.972 18.4936 7.1596 18.6812 7.1596 18.9136C7.1596 19.146 6.972 19.3336 6.7396 19.3336C6.5072 19.3364 6.3196 19.146 6.3196 18.9136ZM6.4596 20.3248C6.4596 20.1708 6.5856 20.0448 6.7396 20.0476C6.8936 20.0476 7.0196 20.1736 7.0168 20.3276C7.0168 20.4816 6.8908 20.6048 6.7368 20.6048C6.5828 20.6048 6.4568 20.4816 6.4568 20.3276C6.4596 20.3276 6.4596 20.3276 6.4596 20.3248ZM6.566 21.568C6.566 21.4728 6.6444 21.3944 6.7396 21.3944C6.8348 21.4028 6.9076 21.4868 6.902 21.582C6.8964 21.6688 6.8264 21.736 6.7396 21.7444C6.6444 21.7416 6.566 21.6632 6.566 21.568ZM4.564 14.3916C4.9 14.3916 5.1716 14.6632 5.1716 14.9992C5.1716 15.3352 4.9 15.6068 4.564 15.6068C4.228 15.5928 3.9676 15.31 3.9816 14.974C3.9928 14.6576 4.2476 14.4028 4.564 14.3916ZM1.4168 14.7164C1.5708 14.7164 1.6968 14.8424 1.6968 14.9964C1.6968 15.1504 1.5708 15.2764 1.4168 15.2764C1.2628 15.2764 1.1368 15.1504 1.1368 14.9964C1.1368 14.8424 1.26 14.7164 1.4168 14.7164ZM0.1736 14.8228C0.2688 14.8228 0.3472 14.9012 0.3472 14.9964C0.3472 15.0916 0.2688 15.17 0.1736 15.17C0.0784 15.17 0 15.0944 0 14.9964C0 14.9012 0.0784 14.8228 0.1736 14.8228ZM8.7108 13.8904C8.4728 14.1284 8.0892 14.1284 7.8512 13.8904C7.6132 13.6524 7.6132 13.2688 7.8512 13.0308C8.0892 12.7928 8.4728 12.7928 8.7108 13.0308C8.9488 13.266 8.946 13.6524 8.7108 13.8904ZM9.8056 12.5268C9.6404 12.692 9.3744 12.692 9.212 12.5268C9.0468 12.3616 9.0468 12.0956 9.212 11.9332C9.3772 11.768 9.6432 11.768 9.8056 11.9332C9.968 12.0984 9.968 12.3644 9.8056 12.5268ZM10.7044 11.4292C10.5952 11.5384 10.4188 11.5384 10.3096 11.4292C10.2004 11.3228 10.1976 11.1464 10.3068 11.04L10.3096 11.0372C10.416 10.928 10.5924 10.9252 10.6988 11.0344L10.7016 11.0372C10.8108 11.1436 10.8108 11.32 10.7044 11.4292ZM11.508 10.4772C11.4408 10.5444 11.3288 10.5444 11.2616 10.4772C11.1944 10.41 11.1944 10.298 11.2616 10.2308C11.3288 10.1636 11.4408 10.1636 11.508 10.2308C11.5752 10.298 11.5752 10.41 11.508 10.4772ZM7.8512 16.9732C7.6132 16.7352 7.6132 16.3488 7.8512 16.1108C8.0892 15.8728 8.4756 15.8728 8.7136 16.1108C8.9516 16.3488 8.9516 16.7352 8.7136 16.9732C8.4728 17.2084 8.0892 17.2084 7.8512 16.9732ZM9.2148 18.068C9.0496 17.9056 9.0496 17.6424 9.2092 17.48C9.212 17.4772 9.212 17.4772 9.2148 17.4744C9.3772 17.312 9.6432 17.312 9.8084 17.4744C9.968 17.6424 9.9624 17.9084 9.7916 18.068C9.6292 18.2192 9.3744 18.2192 9.2148 18.068ZM10.3124 18.9668C10.2032 18.8576 10.2032 18.684 10.3096 18.5748L10.3124 18.572C10.4216 18.4628 10.5952 18.4628 10.7044 18.5692C10.7044 18.5692 10.7044 18.5692 10.7072 18.572C10.8192 18.6812 10.8192 18.8576 10.7072 18.9668C10.598 19.076 10.4216 19.076 10.3124 18.9668ZM11.2644 19.7704C11.1972 19.7032 11.1972 19.594 11.2644 19.524C11.3316 19.4568 11.4408 19.454 11.508 19.5212L11.5108 19.524C11.578 19.5912 11.578 19.7004 11.5108 19.7704C11.4436 19.8376 11.3316 19.8376 11.2644 19.7704ZM4.7684 16.1108C5.0036 15.8728 5.3872 15.8728 5.6224 16.108L5.6252 16.1108C5.8632 16.3488 5.8632 16.7324 5.6252 16.9732C5.3872 17.2112 5.0008 17.2112 4.7656 16.9732C4.5304 16.7324 4.5304 16.346 4.7684 16.1108ZM3.6708 17.4716C3.836 17.3064 4.102 17.3064 4.2672 17.4716C4.4324 17.634 4.4324 17.9 4.2672 18.0652C4.102 18.2276 3.836 18.2276 3.6708 18.0652C3.5084 17.9 3.5084 17.6368 3.6708 17.4716ZM2.772 18.5692C2.8812 18.46 3.0548 18.46 3.164 18.5664C3.164 18.5664 3.164 18.5664 3.1668 18.5692C3.276 18.6756 3.2788 18.8492 3.1724 18.9584C3.1696 18.9612 3.1696 18.9612 3.1668 18.964C3.0576 19.0732 2.8812 19.0732 2.772 18.964C2.6628 18.8548 2.6628 18.6784 2.772 18.5692ZM1.9684 19.5212C2.0328 19.454 2.142 19.4512 2.2092 19.5156C2.212 19.5184 2.212 19.5184 2.2148 19.5212C2.2848 19.5884 2.2848 19.7004 2.2148 19.7676C2.1476 19.8348 2.0384 19.8348 1.9712 19.7704C1.9712 19.7704 1.9712 19.7704 1.9684 19.7676C1.9012 19.7004 1.9012 19.5912 1.9684 19.5212ZM5.6308 13.0308C5.8688 13.2688 5.8688 13.6552 5.6308 13.8932C5.3956 14.1312 5.0092 14.1312 4.774 13.896C4.774 13.896 4.774 13.896 4.7712 13.8932C4.5332 13.6552 4.5332 13.2716 4.7712 13.0336C5.0092 12.7956 5.3928 12.7928 5.6308 13.0308ZM4.27 11.936C4.4352 12.1012 4.4324 12.3672 4.27 12.5296C4.1048 12.6948 3.8388 12.692 3.6764 12.5296C3.514 12.3644 3.514 12.0984 3.6764 11.936C3.8388 11.7736 4.1048 11.7736 4.27 11.936ZM3.1724 11.0372C3.2844 11.1464 3.2844 11.3228 3.1724 11.4348C3.0632 11.544 2.8868 11.544 2.7776 11.4348C2.6684 11.3256 2.6684 11.1492 2.7776 11.04C2.884 10.928 3.0604 10.928 3.1724 11.0372C3.1696 11.0372 3.1696 11.0344 3.1724 11.0372ZM2.2204 10.2336C2.2876 10.3008 2.2876 10.41 2.2204 10.48C2.1532 10.5472 2.044 10.5472 1.974 10.48C1.9068 10.4128 1.9068 10.3036 1.974 10.2336C2.0384 10.1664 2.1504 10.1664 2.2204 10.2336C2.2176 10.2336 2.2176 10.2336 2.2204 10.2336Z" fill="#E6E7F5"/>
</g>
</g>
</g>
<defs>
<clipPath id="clip0_10196_1108">
<rect width="70" height="30" fill="white"/>
</clipPath>
<clipPath id="clip1_10196_1108">
<rect width="70" height="30" fill="white"/>
</clipPath>
<clipPath id="clip2_10196_1108">
<rect width="70" height="13.804" fill="white" transform="translate(0 8.09766)"/>
</clipPath>
</defs>
</svg>
