<svg width="70" height="30" viewBox="0 0 70 30" fill="none" xmlns="http://www.w3.org/2000/svg">
<g clip-path="url(#clip0_10196_969)">
<g clip-path="url(#clip1_10196_969)">
<g clip-path="url(#clip2_10196_969)">
<path d="M40.5888 18.6707H36.162V16.1871H40.5916C41.3196 16.1983 41.9076 16.7443 41.9076 17.4247C41.9076 18.1051 41.3168 18.6707 40.5888 18.6707ZM36.162 11.3879H40.5132C41.1068 11.3963 41.6136 11.8555 41.6136 12.4575C41.6136 13.0567 41.0844 13.5355 40.488 13.5271H36.1648L36.162 11.3879ZM43.0892 14.8627C43.9068 14.2859 44.2176 13.3339 44.2176 12.2839C44.2176 10.3099 42.5544 8.72514 40.516 8.72514H33.1296V21.3335H40.8072V21.3391C42.9632 21.3391 44.758 19.6759 44.758 17.6375C44.7552 16.3103 43.9544 15.3275 43.0892 14.8627ZM54.4796 8.69714V15.7839C54.4796 17.9511 53.214 18.8611 51.6572 18.8611C50.0976 18.8611 48.8432 17.9539 48.8432 15.7867V8.69714H45.6988V15.8063C45.6988 20.3423 48.3644 21.6611 51.6572 21.6611C54.9528 21.6611 57.6212 20.3395 57.6212 15.8063V8.69714H54.4796ZM65.5088 13.6111C62.9636 13.0595 62.1068 12.8131 62.1068 12.0067C62.1068 11.2955 63.028 10.9371 64.4812 10.9371C65.8532 10.9371 67.5136 11.5223 68.4852 12.1047L69.4764 9.53994C68.0036 8.92394 66.2284 8.33594 63.882 8.33594C60.8048 8.33594 58.884 10.1363 58.884 12.3343C58.884 14.5351 60.466 15.5039 63.602 16.1675C66.0352 16.6827 66.6932 16.9907 66.6932 17.7467C66.6932 18.5027 65.7188 18.7827 64.4 18.7827C62.6948 18.7827 61.0512 18.2143 59.5056 17.5507L58.5704 20.0511C60.4184 20.9079 62.3392 21.5967 64.6296 21.5967C68.4432 21.5967 70 19.7739 70 17.6487C70 15.7587 68.6924 14.3027 65.5088 13.6111ZM6.37 8.72514L0 21.3307L3.7828 21.3335L4.7348 19.3063H9.0804L7.728 16.5455H6.0116L7.63 13.0959L11.6984 21.3335H15.4924L8.8732 8.72514H6.37ZM31.9648 12.9167C31.9648 10.6207 30.3884 8.75594 27.1516 8.75594H20.6108V21.3643L23.6432 21.3615V11.4215H27.3616C28.462 11.4215 28.9184 12.1019 28.9184 12.9111C28.9184 13.7231 28.4368 14.3727 27.3392 14.3727H24.738L28.672 21.3643H31.7856C31.7856 21.3643 29.092 16.7919 29.106 16.7919C31.0492 16.1871 31.9648 14.7143 31.9648 12.9167ZM16.142 21.3391H19.278V8.73074H16.142V21.3391Z" fill="#E6E7F5"/>
</g>
</g>
</g>
<defs>
<clipPath id="clip0_10196_969">
<rect width="70" height="30" fill="white"/>
</clipPath>
<clipPath id="clip1_10196_969">
<rect width="70" height="30" fill="white"/>
</clipPath>
<clipPath id="clip2_10196_969">
<rect width="70" height="13.328" fill="white" transform="translate(0 8.33594)"/>
</clipPath>
</defs>
</svg>
