<svg width="70" height="30" viewBox="0 0 70 30" fill="none" xmlns="http://www.w3.org/2000/svg">
<g clip-path="url(#clip0_10196_1114)">
<g clip-path="url(#clip1_10196_1114)">
<g clip-path="url(#clip2_10196_1114)">
<path d="M30.5938 7.89941L34.7811 13.6507L38.9941 7.89941H30.5938Z" fill="#E6E7F5"/>
<path d="M42.1505 0H27.5082C25.5815 0 24.0176 1.56218 24.0176 3.49063V17.9387C24.0176 19.8671 25.5798 21.4293 27.5082 21.4293H42.1505C44.0789 21.4293 45.6411 19.8671 45.6411 17.9387V3.49063C45.6428 1.56218 44.0789 0 42.1505 0ZM38.7569 18.8842L34.7808 13.4055L30.854 18.8109L26.8063 13.2606L34.8302 2.25383L42.854 13.2845L38.7569 18.8842Z" fill="#E6E7F5"/>
<path fill-rule="evenodd" clip-rule="evenodd" d="M37.3987 29.9884H31.8434C31.15 29.9884 30.5861 29.4263 30.5861 28.7329V24.9918C30.5861 24.2985 31.1483 23.7346 31.8434 23.7346H37.4039V24.8249H31.7275V28.8981H37.4004V29.9884H37.3987ZM24.1875 23.7295V28.7312C24.1875 29.4246 24.7497 29.9884 25.443 29.9884H30.0325V28.8981H25.3272V23.7346L24.1875 23.7295Z" fill="#E6E7F5"/>
<path fill-rule="evenodd" clip-rule="evenodd" d="M44.6036 23.7324H39.5781C38.8847 23.7324 38.3209 24.2946 38.3209 24.988V28.729C38.3209 29.4224 38.883 29.9863 39.5764 29.9863C39.5764 29.9863 39.5764 29.9863 39.5781 29.9863H44.6036C45.297 29.9863 45.8609 29.4241 45.8609 28.7307V24.9897C45.8592 24.2963 45.297 23.7324 44.6036 23.7324ZM44.7212 28.896H39.4605V24.8244H44.7212V28.896ZM18.8064 23.7324L14.6445 29.9999L15.7876 29.988L16.5151 28.8977H21.7757L22.5031 29.988H23.6462L19.4844 23.7341L18.8064 23.7324ZM17.1931 27.8789L19.1454 24.9334L21.1011 27.8789H17.1931ZM55.3549 29.988L51.1931 23.7341H50.5151L46.3532 29.9999L47.4963 29.988L48.2237 28.8977H53.4844L54.2118 29.988H55.3549ZM48.9018 27.8789L50.8524 24.9334L52.8081 27.8789H48.9018Z" fill="#E6E7F5"/>
</g>
</g>
</g>
<defs>
<clipPath id="clip0_10196_1114">
<rect width="70" height="30" fill="white"/>
</clipPath>
<clipPath id="clip1_10196_1114">
<rect width="70" height="30" fill="white"/>
</clipPath>
<clipPath id="clip2_10196_1114">
<rect width="40.7104" height="30" fill="white" transform="translate(14.6445)"/>
</clipPath>
</defs>
</svg>
