<svg width="82" height="60" viewBox="0 0 82 60" fill="none" xmlns="http://www.w3.org/2000/svg">
<g clip-path="url(#clip0_11105_19041)">
<path d="M31.8984 15.7988L40.2732 27.3014L48.6991 15.7988H31.8984Z" fill="#1450A1"/>
<path d="M55.0158 0H25.7313C21.8778 0 18.75 3.12436 18.75 6.98126V35.8773C18.75 39.7342 21.8744 42.8586 25.7313 42.8586H55.0158C58.8727 42.8586 61.997 39.7342 61.997 35.8773V6.98126C62.0004 3.12436 58.8727 0 55.0158 0ZM48.2287 37.7683L40.2764 26.8109L32.4229 37.6218L24.3275 26.5213L40.3752 4.50767L56.4229 26.569L48.2287 37.7683Z" fill="#1450A1"/>
<path fill-rule="evenodd" clip-rule="evenodd" d="M45.5084 59.9749H34.3977C33.011 59.9749 31.8832 58.8506 31.8832 57.4638V49.9817C31.8832 48.595 33.0076 47.4673 34.3977 47.4673H45.5186V49.6478H34.166V57.7943H45.5118V59.9749H45.5084ZM19.0859 47.457V57.4604C19.0859 58.8472 20.2103 59.9749 21.597 59.9749H30.7759V57.7943H21.3653V47.4673L19.0859 47.457Z" fill="#1450A1"/>
<path fill-rule="evenodd" clip-rule="evenodd" d="M59.9182 47.4648H49.8671C48.4804 47.4648 47.3526 48.5892 47.3526 49.9759V57.458C47.3526 58.8447 48.477 59.9725 49.8637 59.9725C49.8637 59.9725 49.8637 59.9725 49.8671 59.9725H59.9182C61.3049 59.9725 62.4327 58.8481 62.4327 57.4614V49.9793C62.4293 48.5926 61.3049 47.4648 59.9182 47.4648ZM60.1533 57.7919H49.632V49.6488H60.1533V57.7919ZM8.32368 47.4648L0 59.9998L2.2862 59.9759L3.74106 57.7953H14.2624L15.7172 59.9759H18.0034L9.67973 47.4683L8.32368 47.4648ZM5.0971 55.7579L9.0017 49.8669L12.9131 55.7579H5.0971ZM81.4208 59.9759L73.0971 47.4683H71.7411L63.4174 59.9998L65.7036 59.9759L67.1584 57.7953H77.6797L79.1346 59.9759H81.4208ZM68.5145 55.7579L72.4157 49.8669L76.3271 55.7579H68.5145Z" fill="#1450A1"/>
</g>
<defs>
<clipPath id="clip0_11105_19041">
<rect width="81.4208" height="60" fill="white"/>
</clipPath>
</defs>
</svg>
