<svg width="180" height="120" viewBox="0 0 180 120" fill="none" xmlns="http://www.w3.org/2000/svg">
<g clip-path="url(#clip0_11105_19037)">
<g clip-path="url(#clip1_11105_19037)">
<path d="M81.1875 45.7988L89.5623 57.3014L97.9882 45.7988H81.1875Z" fill="#1450A1"/>
<path d="M104.305 30H75.0203C71.1668 30 68.0391 33.1244 68.0391 36.9813V65.8773C68.0391 69.7342 71.1634 72.8586 75.0203 72.8586H104.305C108.162 72.8586 111.286 69.7342 111.286 65.8773V36.9813C111.289 33.1244 108.162 30 104.305 30ZM97.5178 67.7683L89.5655 56.8109L81.712 67.6218L73.6166 56.5213L89.6643 34.5077L105.712 56.569L97.5178 67.7683Z" fill="#1450A1"/>
<path fill-rule="evenodd" clip-rule="evenodd" d="M94.7975 89.9749H83.6868C82.3 89.9749 81.1723 88.8506 81.1723 87.4638V79.9817C81.1723 78.595 82.2966 77.4673 83.6868 77.4673H94.8077V79.6478H83.4551V87.7943H94.8009V89.9749H94.7975ZM68.375 77.457V87.4604C68.375 88.8472 69.4994 89.9749 70.8861 89.9749H80.0649V87.7943H70.6544V77.4673L68.375 77.457Z" fill="#1450A1"/>
<path fill-rule="evenodd" clip-rule="evenodd" d="M109.207 77.4648H99.1562C97.7695 77.4648 96.6417 78.5892 96.6417 79.9759V87.458C96.6417 88.8447 97.7661 89.9725 99.1528 89.9725C99.1528 89.9725 99.1528 89.9725 99.1562 89.9725H109.207C110.594 89.9725 111.722 88.8481 111.722 87.4614V79.9793C111.718 78.5926 110.594 77.4648 109.207 77.4648ZM109.442 87.7919H98.9211V79.6488H109.442V87.7919ZM57.6127 77.4648L49.2891 89.9998L51.5753 89.9759L53.0301 87.7953H63.5514L65.0063 89.9759H67.2925L58.9688 77.4683L57.6127 77.4648ZM54.3862 85.7579L58.2908 79.8669L62.2022 85.7579H54.3862ZM130.71 89.9759L122.386 77.4683H121.03L112.706 89.9998L114.993 89.9759L116.447 87.7953H126.969L128.424 89.9759H130.71ZM117.804 85.7579L121.705 79.8669L125.616 85.7579H117.804Z" fill="#1450A1"/>
</g>
</g>
<defs>
<clipPath id="clip0_11105_19037">
<rect width="140" height="60" fill="white" transform="translate(20 30)"/>
</clipPath>
<clipPath id="clip1_11105_19037">
<rect width="81.4208" height="60" fill="white" transform="translate(49.2891 30)"/>
</clipPath>
</defs>
</svg>
