<svg width="420" height="320" viewBox="0 0 420 320" fill="none" xmlns="http://www.w3.org/2000/svg">
<g clip-path="url(#clip0_11102_17208)">
<mask id="mask0_11102_17208" style="mask-type:luminance" maskUnits="userSpaceOnUse" x="-18" y="-7" width="453" height="338">
<path d="M-17.9844 330.109H434.322V-6.43084H-17.9844V330.109Z" fill="white"/>
</mask>
<g mask="url(#mask0_11102_17208)">
<path fill-rule="evenodd" clip-rule="evenodd" d="M144.383 11.7585H278.597C278.597 11.7585 317.02 12.5513 317.02 50.3351V188.075C317.02 188.075 317.482 220.155 278.597 220.155H144.383C144.383 220.155 105.227 220.771 105.227 188.075V50.3351C105.227 50.3351 104.742 11.7585 144.383 11.7585ZM120.172 142.245L210.094 37.212L301.376 141.192L257.605 194.394L211.644 142.552L254.067 93.8108H167.363L210.094 142.552L165.813 193.459L120.172 142.245Z" fill="#1450A1"/>
<mask id="mask1_11102_17208" style="mask-type:luminance" maskUnits="userSpaceOnUse" x="10" y="10" width="403" height="296">
<path d="M10.9609 305.047H412.94V10.4795H10.9609V305.047Z" fill="white"/>
</mask>
<g mask="url(#mask1_11102_17208)">
<path d="M144.383 11.7585H278.597C278.597 11.7585 317.02 12.5513 317.02 50.3351V188.075C317.02 188.075 317.482 220.155 278.597 220.155H144.383C144.383 220.155 105.227 220.771 105.227 188.075V50.3351C105.227 50.3351 104.742 11.7585 144.383 11.7585ZM120.172 142.245L210.094 37.212L301.376 141.192L257.605 194.394L211.644 142.552L254.067 93.8108H167.363L210.094 142.552L165.813 193.459L120.172 142.245Z" stroke="#1450A1" stroke-width="2.556" stroke-miterlimit="3.864"/>
</g>
<path fill-rule="evenodd" clip-rule="evenodd" d="M29.6114 303.77H13.2578L49.3851 245.561C49.3851 245.561 58.2361 230.131 67.5963 246.094L104.374 303.77H88.4112L78.4004 289.522H38.581L29.6114 303.77ZM45.0422 278.221H72.0695L58.2363 256.14L45.0422 278.221Z" fill="#1450A1"/>
<mask id="mask2_11102_17208" style="mask-type:luminance" maskUnits="userSpaceOnUse" x="10" y="10" width="403" height="296">
<path d="M10.9609 305.047H412.94V10.4795H10.9609V305.047Z" fill="white"/>
</mask>
<g mask="url(#mask2_11102_17208)">
<path d="M29.6114 303.77H13.2578L49.3851 245.561C49.3851 245.561 58.2361 230.131 67.5963 246.094L104.374 303.77H88.4112L78.4004 289.522H38.581L29.6114 303.77ZM45.0422 278.221H72.0695L58.2363 256.14L45.0422 278.221Z" stroke="#1450A1" stroke-width="2.556" stroke-miterlimit="3.864"/>
</g>
<path fill-rule="evenodd" clip-rule="evenodd" d="M303.089 303.77H257.601C257.601 303.77 243.094 303.628 243.094 289.522V254.46C243.094 254.46 243.614 239.372 257.601 239.372H303.349C303.349 239.372 317.016 239.846 317.016 254.46V289.522C317.016 289.522 317.703 303.77 303.089 303.77ZM257.601 254.46H301.373V289.522H257.601V254.46Z" fill="#1450A1"/>
<mask id="mask3_11102_17208" style="mask-type:luminance" maskUnits="userSpaceOnUse" x="10" y="10" width="403" height="296">
<path d="M10.9609 305.047H412.94V10.4795H10.9609V305.047Z" fill="white"/>
</mask>
<g mask="url(#mask3_11102_17208)">
<path d="M303.089 303.77H257.601C257.601 303.77 243.094 303.628 243.094 289.522V254.46C243.094 254.46 243.614 239.372 257.601 239.372H303.349C303.349 239.372 317.016 239.846 317.016 254.46V289.522C317.016 289.522 317.703 303.77 303.089 303.77ZM257.601 254.46H301.373V289.522H257.601V254.46Z" stroke="#1450A1" stroke-width="2.556" stroke-miterlimit="3.864"/>
</g>
<path fill-rule="evenodd" clip-rule="evenodd" d="M335.846 303.77H319.492L355.619 245.561C355.619 245.561 364.471 230.131 373.831 246.094L410.609 303.77H394.646L384.635 289.522H344.804L335.846 303.77ZM351.277 278.221H378.304L364.471 256.14L351.277 278.221Z" fill="#1450A1"/>
<mask id="mask4_11102_17208" style="mask-type:luminance" maskUnits="userSpaceOnUse" x="10" y="10" width="403" height="296">
<path d="M10.9609 305.047H412.94V10.4795H10.9609V305.047Z" fill="white"/>
</mask>
<g mask="url(#mask4_11102_17208)">
<path d="M335.846 303.77H319.492L355.619 245.561C355.619 245.561 364.471 230.131 373.831 246.094L410.609 303.77H394.646L384.635 289.522H344.804L335.846 303.77ZM351.277 278.221H378.304L364.471 256.14L351.277 278.221Z" stroke="#1450A1" stroke-width="2.556" stroke-miterlimit="3.864"/>
</g>
<path d="M105.227 239.372H121.58V289.522H165.577V303.77H121.58C121.58 303.77 107.144 302.953 105.227 285.949V239.372Z" fill="#1450A1"/>
<mask id="mask5_11102_17208" style="mask-type:luminance" maskUnits="userSpaceOnUse" x="10" y="10" width="403" height="296">
<path d="M10.9609 305.047H412.94V10.4795H10.9609V305.047Z" fill="white"/>
</mask>
<g mask="url(#mask5_11102_17208)">
<path d="M105.227 239.372H121.58V289.522H165.577V303.77H121.58C121.58 303.77 107.144 302.953 105.227 285.949V239.372Z" stroke="#1450A1" stroke-width="2.556" stroke-miterlimit="3.864"/>
</g>
<path d="M236.532 239.372V254.46H186.134V289.522H237.29V303.77H184.691C184.691 303.77 169.875 299.273 169.875 285.688V254.46C169.875 254.46 173.473 239.372 185.353 239.372H236.532Z" fill="#1450A1"/>
<mask id="mask6_11102_17208" style="mask-type:luminance" maskUnits="userSpaceOnUse" x="10" y="10" width="403" height="296">
<path d="M10.9609 305.047H412.94V10.4795H10.9609V305.047Z" fill="white"/>
</mask>
<g mask="url(#mask6_11102_17208)">
<path d="M236.532 239.372V254.46H186.134V289.522H237.29V303.77H184.691C184.691 303.77 169.875 299.273 169.875 285.688V254.46C169.875 254.46 173.473 239.372 185.353 239.372H236.532Z" stroke="#1450A1" stroke-width="2.556" stroke-miterlimit="3.864"/>
</g>
</g>
</g>
<defs>
<clipPath id="clip0_11102_17208">
<rect width="420" height="320" fill="white"/>
</clipPath>
</defs>
</svg>
