<svg width="70" height="30" viewBox="0 0 70 30" fill="none" xmlns="http://www.w3.org/2000/svg">
<g clip-path="url(#clip0_10196_1058)">
<g clip-path="url(#clip1_10196_1058)">
<g clip-path="url(#clip2_10196_1058)">
<path d="M16.4469 22.2354H12.5661L11.3789 19.371H4.91087L3.83007 22.2354H0.0136719L5.84607 7.77345H10.0237L16.4469 22.2354ZM7.98807 11.2287L5.86567 16.8482H10.3177L7.98807 11.2287ZM30.5449 7.77345H33.6837V22.2354H30.0773V13.2027L26.1769 17.7386H25.6253L21.7249 13.2027V22.2354H18.1185V7.77345H21.2573L25.8997 13.1382L30.5449 7.77345ZM42.8173 7.77345C48.0981 7.77345 50.8113 11.0606 50.8113 15.0254C50.8113 19.1806 48.1821 22.2354 42.4141 22.2354H36.4333V7.77345H42.8173ZM40.0397 19.5838H42.3917C46.0177 19.5838 47.0985 17.1227 47.0985 15.003C47.0985 12.5223 45.7629 10.4222 42.3497 10.4222H40.0397V19.5838ZM57.9821 11.2034L53.4377 6.65625H69.9857V23.2043L65.4413 18.6571V11.2034H57.9821ZM57.9765 12.1134L53.2977 16.7922V23.3442H59.8469L64.5257 18.6654H57.9765V12.1134Z" fill="#E6E7F5"/>
</g>
</g>
</g>
<defs>
<clipPath id="clip0_10196_1058">
<rect width="70" height="30" fill="white"/>
</clipPath>
<clipPath id="clip1_10196_1058">
<rect width="70" height="30" fill="white"/>
</clipPath>
<clipPath id="clip2_10196_1058">
<rect width="70" height="16.688" fill="white" transform="translate(0 6.65625)"/>
</clipPath>
</defs>
</svg>
