<svg width="180" height="120" viewBox="0 0 180 120" fill="none" xmlns="http://www.w3.org/2000/svg">
<g clip-path="url(#clip0_11105_18987)">
<g clip-path="url(#clip1_11105_18987)">
<path d="M108.104 54.22C106.378 51.8053 104.01 50.353 100.802 50.353C95.4418 50.353 91.1024 54.7391 91.1024 60.1459C91.1024 65.5528 95.4418 69.9389 100.802 69.9389C104.552 69.933 107.964 67.7575 109.557 64.3629C109.557 64.3629 99.583 64.3687 99.583 64.3629V56.3431H117.851V43.908H134.141V51.922H125.608C125.608 51.922 125.579 56.3431 125.608 56.3431H134.141V64.3629H125.608V68.504H134.141V76.3197C134.415 76.3372 117.845 76.3081 117.845 76.3197V64.4271C115.92 73.2868 108.798 77.8479 100.802 77.8479C92.8755 77.8479 86.2963 73.1643 84.3774 64.8762V76.3197H76.3575V57.3813C76.3575 57.3813 71.7264 61.4641 71.7264 76.3197H63.4966C63.4966 61.4641 58.8656 57.3813 58.8656 57.3813V76.3197H50.8516V43.4122C60.0846 43.4122 66.1796 53.7826 67.6086 59.901H67.6145C69.0435 53.7826 75.1385 43.4122 84.3715 43.4122V54.36V54.3425C85.9288 47.0809 93.2429 42.1523 100.802 42.1523C108.559 42.1523 115.395 48.0141 116.836 54.22H108.104Z" fill="#2162A5"/>
<path d="M151.71 76.32C150.537 67.3786 144.629 61.0094 144.629 61.0094V76.32H136.125V43.914C138.015 43.914 144.775 47.5652 151.71 57.539V43.9082H160.004V76.32H151.71Z" fill="#2162A5"/>
<path d="M35.1123 47.3773C30.522 50.836 27.7224 55.9629 25.506 60.6232C23.2838 65.2951 21.0965 72.3 20 76.3945H28.2998C28.8656 74.1081 30.2945 69.1271 30.5162 68.1939H40.9099V76.3537H48.9589V43.347C41.3473 42.6296 37.2353 45.7733 35.1123 47.3773ZM40.9157 60.6523H33.9049C35.5731 58.121 38.3377 54.7789 40.9157 52.9824V60.6523Z" fill="#2162A5"/>
</g>
</g>
<defs>
<clipPath id="clip0_11105_18987">
<rect width="140" height="60" fill="white" transform="translate(20 30)"/>
</clipPath>
<clipPath id="clip1_11105_18987">
<rect width="140" height="35.6955" fill="white" transform="translate(20 42.1523)"/>
</clipPath>
</defs>
</svg>
