<svg width="70" height="30" viewBox="0 0 70 30" fill="none" xmlns="http://www.w3.org/2000/svg">
<g clip-path="url(#clip0_10196_1064)">
<g clip-path="url(#clip1_10196_1064)">
<g clip-path="url(#clip2_10196_1064)">
<path d="M44.0502 12.11C43.187 10.9027 42.003 10.1765 40.399 10.1765C37.719 10.1765 35.5492 12.3696 35.5492 15.073C35.5492 17.7764 37.719 19.9694 40.399 19.9694C42.2742 19.9665 43.9803 18.8787 44.7764 17.1814C44.7764 17.1814 39.7895 17.1844 39.7895 17.1814V13.1715H48.9234V6.95398H57.0686V10.961H52.8021C52.8021 10.961 52.7875 13.1715 52.8021 13.1715H57.0686V17.1814H52.8021V19.252H57.0686V23.1599C57.2057 23.1686 48.9205 23.154 48.9205 23.1599V17.2135C47.9581 21.6434 44.3973 23.9239 40.399 23.9239C36.4358 23.9239 33.1462 21.5822 32.1867 17.4381V23.1599H28.1768V13.6906C28.1768 13.6906 25.8613 15.732 25.8613 23.1599H21.7464C21.7464 15.732 19.4308 13.6906 19.4308 13.6906V23.1599H15.4238V6.70609C20.0403 6.70609 23.0879 11.8913 23.8024 14.9505H23.8053C24.5198 11.8913 27.5673 6.70609 32.1838 6.70609V12.18V12.1712C32.9625 8.54045 36.6195 6.07617 40.399 6.07617C44.2777 6.07617 47.6956 9.00706 48.416 12.11H44.0502Z" fill="#E6E7F5"/>
<path d="M65.8529 23.16C65.2667 18.6893 62.3125 15.5047 62.3125 15.5047V23.16H58.0605V6.95702C59.0054 6.95702 62.3854 8.78262 65.8529 13.7695V6.9541H69.9999V23.16H65.8529Z" fill="#E6E7F5"/>
<path d="M7.55614 8.68963C5.26101 10.419 3.86118 12.9824 2.75299 15.3126C1.64188 17.6485 0.548265 21.151 0 23.1982H4.1499C4.43278 22.055 5.14727 19.5645 5.25809 19.0979H10.4549V23.1778H14.4794V6.67446C10.6737 6.31576 8.61767 7.88765 7.55614 8.68963ZM10.4579 15.3271H6.95246C7.78653 14.0615 9.16885 12.3904 10.4579 11.4922V15.3271Z" fill="#E6E7F5"/>
</g>
</g>
</g>
<defs>
<clipPath id="clip0_10196_1064">
<rect width="70" height="30" fill="white"/>
</clipPath>
<clipPath id="clip1_10196_1064">
<rect width="70" height="30" fill="white"/>
</clipPath>
<clipPath id="clip2_10196_1064">
<rect width="70" height="17.8478" fill="white" transform="translate(0 6.07617)"/>
</clipPath>
</defs>
</svg>
