<svg width="186" height="47" viewBox="0 0 186 47" fill="none" xmlns="http://www.w3.org/2000/svg">
<g clip-path="url(#clip0_11102_17151)">
<path d="M100.704 0H106.357C114.864 1.41333 121.464 7.78667 124.677 15.5733C120.904 15.6533 117.131 15.68 113.371 15.6533C110.677 13.3867 107.851 10.56 104.024 10.84C98.3441 10.4 93.0374 14.5867 91.6241 20C89.1841 27.6267 95.8907 36.6133 104.037 35.84C108.917 36.1333 112.291 32.2267 115.251 28.9467C110.811 28.8 106.371 28.7467 101.917 28.76C101.944 25.2667 101.957 21.76 101.971 18.2667C109.811 18.2667 117.664 18.3067 125.504 18.2C125.517 12.8933 125.531 7.57333 125.571 2.26667C132.411 2.26667 139.264 2.26667 146.117 2.29333C146.117 5.78667 146.117 9.28 146.117 12.7867C142.517 12.8 138.917 12.7733 135.331 12.7867C135.317 14.16 135.304 16.8933 135.304 18.2667C138.904 18.28 142.517 18.2667 146.131 18.28C146.117 21.7733 146.117 25.2667 146.144 28.76C142.531 28.7867 138.917 28.7733 135.317 28.8C135.317 30.12 135.317 32.76 135.317 34.08C138.917 34.08 142.517 34.0667 146.131 34.08C146.117 37.4933 146.117 40.92 146.117 44.3333C139.264 44.36 132.411 44.3467 125.557 44.3733C125.531 39.7067 125.504 35.0533 125.571 30.4C123.597 34.2133 121.811 38.32 118.451 41.1333C114.851 44.2667 110.144 45.6 105.597 46.6667H101.144C96.9574 45.52 92.6507 44.16 89.3307 41.24C86.1174 38.4933 84.3707 34.5333 82.3974 30.8933C82.4907 35.3867 82.4641 39.88 82.4374 44.3733C79.0907 44.36 75.7441 44.36 72.4107 44.3733C72.3174 36.08 72.5574 27.8 72.1707 19.52C67.4107 26.92 66.7574 35.8533 66.1174 44.3733C62.7041 44.36 59.3041 44.3467 55.8907 44.3333C55.7841 35.7867 54.9041 26.9333 50.2641 19.52C49.9574 27.8 50.1707 36.08 50.1174 44.36C46.6241 44.3467 43.1441 44.3467 39.6641 44.3333C39.6907 30 39.6507 15.6667 39.6907 1.33333C50.8907 2.29333 58.0641 12.4133 61.2374 22.3067C64.2507 12.3733 71.4107 2.56 82.4107 1.21333C82.4907 5.61333 82.4774 10 82.3707 14.4C85.6774 6.88 92.4774 1.17333 100.704 0Z" fill="#2162A5"/>
<path d="M19.2267 7.06705C24.0933 2.56038 30.7867 1.28038 37.2133 1.30705C37.2267 15.6937 37.2 30.0671 37.2133 44.4404C33.8667 44.4537 30.5067 44.4537 27.16 44.467C27.1333 40.9337 27.16 37.4137 27.1467 33.8804C22.7333 33.8804 18.32 33.8804 13.8933 33.867C12.8933 37.387 11.8933 40.8937 10.9333 44.427C7.28 44.4537 3.64 44.4404 0 44.467V43.427C4.76 30.6404 8.37333 16.2404 19.2267 7.06705ZM18.0933 23.707C21.12 23.7737 24.1467 23.787 27.1733 23.8004C27.1467 20.547 27.1333 17.2804 27.04 14.027C23.7733 16.987 20.8267 20.267 18.0933 23.707Z" fill="#2162A5"/>
<path d="M148.77 1.73242C157.157 5.41242 163.33 12.3858 168.57 19.6524C168.557 13.8658 168.544 8.07909 168.504 2.27909C172.104 2.26576 175.69 2.26576 179.29 2.27909C179.317 16.3058 179.25 30.3191 179.33 44.3458C175.824 44.3458 172.317 44.3458 168.81 44.3458C167.384 37.1324 164.344 30.3058 159.69 24.5858C159.584 31.1724 159.69 37.7591 159.61 44.3591C155.957 44.3458 152.317 44.3458 148.664 44.3591C148.73 30.1591 148.53 15.9458 148.77 1.73242Z" fill="#2162A5"/>
</g>
<defs>
<clipPath id="clip0_11102_17151">
<rect width="185.333" height="46.6667" fill="white"/>
</clipPath>
</defs>
</svg>
