<svg width="140" height="60" viewBox="0 0 140 60" fill="none" xmlns="http://www.w3.org/2000/svg">
<g clip-path="url(#clip0_11105_18989)">
<g clip-path="url(#clip1_11105_18989)">
<path d="M88.1044 24.22C86.378 21.8053 84.0099 20.353 80.802 20.353C75.4418 20.353 71.1024 24.7391 71.1024 30.1459C71.1024 35.5528 75.4418 39.9389 80.802 39.9389C84.5523 39.933 87.9644 37.7575 89.5567 34.3629C89.5567 34.3629 79.583 34.3687 79.583 34.3629V26.3431H97.8507V13.908H114.141V21.922H105.608C105.608 21.922 105.579 26.3431 105.608 26.3431H114.141V34.3629H105.608V38.504H114.141V46.3197C114.415 46.3372 97.8449 46.3081 97.8449 46.3197V34.4271C95.9201 43.2868 88.7985 47.8479 80.802 47.8479C72.8755 47.8479 66.2963 43.1643 64.3774 34.8762V46.3197H56.3575V27.3813C56.3575 27.3813 51.7264 31.4641 51.7264 46.3197H43.4966C43.4966 31.4641 38.8656 27.3813 38.8656 27.3813V46.3197H30.8516V13.4122C40.0846 13.4122 46.1796 23.7826 47.6086 29.901H47.6145C49.0435 23.7826 55.1385 13.4122 64.3715 13.4122V24.36V24.3425C65.9288 17.0809 73.2429 12.1523 80.802 12.1523C88.5593 12.1523 95.3952 18.0141 96.8358 24.22H88.1044Z" fill="#2162A5"/>
<path d="M131.71 46.32C130.537 37.3786 124.629 31.0094 124.629 31.0094V46.32H116.125V13.914C118.015 13.914 124.775 17.5652 131.71 27.539V13.9082H140.004V46.32H131.71Z" fill="#2162A5"/>
<path d="M15.1123 17.3773C10.522 20.836 7.72237 25.9629 5.50598 30.6232C3.28376 35.2951 1.09653 42.3 0 46.3945H8.2998C8.86556 44.1081 10.2945 39.1271 10.5162 38.1939H20.9099V46.3537H28.9589V13.347C21.3473 12.6296 17.2353 15.7733 15.1123 17.3773ZM20.9157 30.6523H13.9049C15.5731 28.121 18.3377 24.7789 20.9157 22.9824V30.6523Z" fill="#2162A5"/>
</g>
</g>
<defs>
<clipPath id="clip0_11105_18989">
<rect width="140" height="60" fill="white"/>
</clipPath>
<clipPath id="clip1_11105_18989">
<rect width="140" height="35.6955" fill="white" transform="translate(0 12.1523)"/>
</clipPath>
</defs>
</svg>
