<svg width="408" height="464" viewBox="0 0 408 464" fill="none" xmlns="http://www.w3.org/2000/svg">
<rect x="2.52998" y="13.53" width="402.94" height="435.94" rx="28.7287" fill="#6BA0D6" fill-opacity="0.27"/>
<rect x="2.52998" y="13.53" width="402.94" height="435.94" rx="28.7287" stroke="#3D95BA" stroke-width="5.05997" stroke-miterlimit="10" stroke-linecap="square"/>
<path d="M315.275 109.521C315.275 108.441 315.59 107.541 316.243 106.821C316.873 106.101 317.841 105.74 319.123 105.74C320.406 105.74 321.374 106.101 322.049 106.821C322.701 107.541 323.039 108.441 323.039 109.521C323.039 110.556 322.701 111.434 322.049 112.131C321.374 112.829 320.406 113.166 319.123 113.166C317.841 113.166 316.873 112.829 316.243 112.131C315.59 111.434 315.275 110.556 315.275 109.521ZM315.298 79.7277C315.298 78.6476 315.635 77.7475 316.265 77.0274C316.918 76.3073 317.863 75.9473 319.168 75.9473C320.451 75.9473 321.419 76.3073 322.071 77.0274C322.746 77.7475 323.084 78.6476 323.084 79.7277C323.084 80.7628 322.746 81.6179 322.071 82.338C321.419 83.0355 320.428 83.3731 319.168 83.3731C317.886 83.3731 316.918 83.013 316.265 82.338C315.635 81.6404 315.298 80.7628 315.298 79.7277Z" fill="#EBEBEB"/>
<path d="M112.824 101.427H92.2122L87.5992 114.254H80.916L99.683 65.1084H105.354L124.166 114.254H117.505L112.824 101.427ZM94.1925 96.0942H110.889L102.518 73.1193L94.1925 96.0942Z" fill="#EBEBEB"/>
<path d="M135.685 77.7327L135.91 82.3232C138.7 78.8128 142.345 77.0576 146.846 77.0576C154.564 77.0576 158.457 81.4006 158.502 90.1315V114.254H152.269V90.0865C152.246 87.4537 151.639 85.496 150.469 84.2359C149.276 82.9758 147.431 82.3457 144.956 82.3457C142.93 82.3457 141.13 82.8857 139.6 83.9659C138.07 85.046 136.9 86.4861 136.045 88.2413V114.254H129.789V77.7327H135.685Z" fill="#EBEBEB"/>
<path d="M189.186 104.578C189.186 102.89 188.556 101.563 187.273 100.64C186.013 99.6951 183.785 98.9075 180.635 98.2324C177.462 97.5573 174.964 96.7472 173.096 95.8021C171.251 94.857 169.878 93.7319 168.978 92.4268C168.101 91.1216 167.651 89.5465 167.651 87.7463C167.651 84.7534 168.911 82.2332 171.454 80.1629C173.974 78.0927 177.214 77.0576 181.152 77.0576C185.293 77.0576 188.646 78.1152 191.233 80.2755C193.799 82.4132 195.104 85.136 195.104 88.4664H188.803C188.803 86.7562 188.083 85.271 186.643 84.0559C185.18 82.8182 183.357 82.1882 181.152 82.1882C178.879 82.1882 177.102 82.6832 175.819 83.6733C174.537 84.6634 173.906 85.9461 173.906 87.5663C173.906 89.0739 174.492 90.199 175.684 90.9641C176.877 91.7292 179.037 92.4718 182.142 93.1469C185.27 93.8444 187.79 94.677 189.726 95.6671C191.661 96.6347 193.101 97.7824 194.024 99.155C194.969 100.505 195.419 102.17 195.419 104.128C195.419 107.391 194.114 110.001 191.503 111.981C188.893 113.939 185.518 114.929 181.355 114.929C178.429 114.929 175.842 114.412 173.591 113.377C171.341 112.341 169.586 110.901 168.303 109.034C167.043 107.188 166.391 105.163 166.391 103.003H172.646C172.759 105.096 173.591 106.761 175.167 107.998C176.719 109.214 178.789 109.844 181.355 109.844C183.717 109.844 185.608 109.349 187.048 108.404C188.466 107.436 189.186 106.153 189.186 104.578Z" fill="#EBEBEB"/>
<path d="M235.907 105.659L242.927 77.7334H249.16L238.539 114.255H233.476L224.588 86.5769L215.947 114.255H210.906L200.285 77.7334H206.496L213.697 105.074L222.203 77.7334H227.243L235.907 105.659Z" fill="#EBEBEB"/>
<path d="M270.689 114.929C265.739 114.929 261.688 113.309 258.583 110.046C255.477 106.806 253.947 102.463 253.947 97.0173V95.8471C253.947 92.2243 254.622 89.0064 256.017 86.1486C257.39 83.3133 259.325 81.0856 261.823 79.4654C264.298 77.8677 266.999 77.0576 269.901 77.0576C274.65 77.0576 278.34 78.6103 280.973 81.7606C283.605 84.8885 284.911 89.3664 284.911 95.1721V97.7824H260.18C260.27 101.383 261.328 104.286 263.331 106.513C265.356 108.719 267.899 109.844 271.004 109.844C273.209 109.844 275.1 109.394 276.63 108.494C278.16 107.593 279.488 106.378 280.635 104.893L284.461 107.863C281.4 112.566 276.81 114.929 270.689 114.929ZM269.901 82.1882C267.381 82.1882 265.266 83.1108 263.556 84.9335C261.846 86.7787 260.788 89.3439 260.383 92.6518H278.677V92.1792C278.497 89.0064 277.642 86.5536 276.112 84.7985C274.582 83.0658 272.512 82.1882 269.901 82.1882Z" fill="#EBEBEB"/>
<path d="M309.788 83.3358C308.843 83.1783 307.831 83.1108 306.728 83.1108C302.633 83.1108 299.842 84.8435 298.402 88.3313V114.254H292.146V77.7327H298.222L298.312 81.9406C300.36 78.6778 303.263 77.0576 307.043 77.0576C308.258 77.0576 309.158 77.2151 309.788 77.5302V83.3358Z" fill="#EBEBEB"/>
<path d="M177.869 309.982H139.502V305.774H177.869V309.982Z" fill="#EBEBEB"/>
<path d="M200.037 304.985H236.154" stroke="#EBEBEB" stroke-width="4.20514" stroke-miterlimit="10" stroke-linecap="square"/>
<path d="M224.679 209.666C224.791 209.801 224.859 209.891 224.859 209.959C224.881 210.026 224.881 210.161 224.881 210.409V257.821C224.881 259.846 225.421 261.129 226.502 261.669C227.582 262.232 229.584 262.547 232.532 262.659V263.762H210.322V262.592C213.495 262.434 215.565 261.984 216.533 261.287C217.501 260.567 217.996 259.036 217.996 256.674V220.197C217.996 218.937 217.838 217.992 217.523 217.339C217.208 216.687 216.533 216.349 215.475 216.349C214.8 216.349 213.9 216.529 212.82 216.912C211.717 217.294 210.705 217.699 209.76 218.127V217.024L224.229 209.666H224.679Z" fill="#EBEBEB"/>
<path d="M238.537 378.343C238.537 383.136 237.007 387.479 233.924 391.327C230.841 395.197 226.836 397.11 221.885 397.11C217.272 397.11 213.064 394.95 209.261 390.629C205.481 386.286 203.568 380.526 203.568 373.348C203.568 364.076 207.259 356.111 214.595 349.472C221.165 343.914 228.546 341.124 236.737 341.124L236.939 342.429C233.654 343.037 230.819 343.847 228.456 344.882C226.071 345.917 223.956 347.38 222.088 349.225C220.175 351.115 218.375 353.523 216.687 356.448C215 359.351 213.852 362.254 213.222 365.112C214.865 364.122 216.26 363.379 217.43 362.906C219.545 362.051 221.66 361.646 223.776 361.646C227.961 361.646 231.471 363.086 234.307 365.967C237.142 368.847 238.537 372.987 238.537 378.343ZM231.336 381.358C231.336 377.87 230.796 374.788 229.694 372.087C227.848 367.564 224.721 365.292 220.31 365.292C216.237 365.292 213.537 366.507 212.209 368.937C211.422 370.355 211.017 372.717 211.017 376.003C211.017 380.278 211.939 384.486 213.762 388.582C215.585 392.677 218.465 394.725 222.403 394.725C225.531 394.725 227.803 393.397 229.221 390.719C230.639 388.064 231.336 384.936 231.336 381.358Z" fill="#EBEBEB"/>
</svg>
