<svg width="70" height="30" viewBox="0 0 70 30" fill="none" xmlns="http://www.w3.org/2000/svg">
<g clip-path="url(#clip0_10196_718)">
<g clip-path="url(#clip1_10196_718)">
<g clip-path="url(#clip2_10196_718)">
<path d="M36.2655 2.61098C38.2359 0.0129766 40.9767 0.000976562 40.9767 0.000976562C40.9767 0.000976562 41.3847 2.44298 39.4263 4.79618C37.3359 7.30898 34.9587 6.89738 34.9587 6.89738C34.9587 6.89738 34.5123 4.92098 36.2655 2.61098ZM35.2095 8.60738C36.2235 8.60738 38.1051 7.21298 40.5555 7.21298C44.7723 7.21298 46.4307 10.213 46.4307 10.213C46.4307 10.213 43.1859 11.8714 43.1859 15.8962C43.1859 20.437 47.2275 22.0018 47.2275 22.0018C47.2275 22.0018 44.4027 29.9542 40.5867 29.9542C38.8335 29.9542 37.4715 28.7734 35.6247 28.7734C33.7431 28.7734 31.8747 29.9986 30.6591 29.9986C27.1743 29.9998 22.7715 22.4566 22.7715 16.393C22.7715 10.4278 26.4975 7.29818 29.9931 7.29818C32.2647 7.29818 34.0275 8.60738 35.2095 8.60738Z" fill="#E6E7F5"/>
</g>
</g>
</g>
<defs>
<clipPath id="clip0_10196_718">
<rect width="70" height="30" fill="white"/>
</clipPath>
<clipPath id="clip1_10196_718">
<rect width="70" height="30" fill="white"/>
</clipPath>
<clipPath id="clip2_10196_718">
<rect width="24.456" height="30" fill="white" transform="translate(22.7715)"/>
</clipPath>
</defs>
</svg>
