<svg width="70" height="30" viewBox="0 0 70 30" fill="none" xmlns="http://www.w3.org/2000/svg">
<g clip-path="url(#clip0_10196_1035)">
<g clip-path="url(#clip1_10196_1035)">
<g clip-path="url(#clip2_10196_1035)">
<path d="M35.0007 0C26.7541 0 20 6.75408 20 14.9993C20 23.2344 26.7541 29.9986 35.0007 29.9986C43.2358 29.9986 50 23.2329 50 14.9993C50 6.75408 43.2344 0 35.0007 0ZM45.4227 24.3863C42.7898 27.3137 38.9429 29.0271 34.9993 29.0271C31.5537 29.0271 28.1701 27.7265 25.6123 25.4227C22.6733 22.7797 20.9715 18.9429 20.9715 14.9993C20.9715 11.5537 22.2605 8.17014 24.5658 5.60217C27.2088 2.67478 31.0571 0.961363 35.0007 0.961363C38.4463 0.961363 41.8299 2.26194 44.3877 4.56575C47.3267 7.20878 49.0285 11.0456 49.0285 14.9993C49.0271 18.4463 47.7381 21.8284 45.4227 24.3863Z" fill="#E6E7F5"/>
<path fill-rule="evenodd" clip-rule="evenodd" d="M34.6257 14.5343L35.9883 12.6953H37.416L35.206 15.5592V17.3361H34.044V15.5592L31.834 12.6953H33.2616L34.6257 14.5343Z" fill="#E6E7F5"/>
<path fill-rule="evenodd" clip-rule="evenodd" d="M42.1521 16.5003V17.3361H37.6484V12.6953H42.0251V13.5296H38.822V14.5459H41.9197V15.3802H38.822V16.5003H42.1521Z" fill="#E6E7F5"/>
<path fill-rule="evenodd" clip-rule="evenodd" d="M37.2783 21.638V22.4738H32.457V17.833H37.1614V18.6688H33.6306V19.6821H37.056V20.5179H33.6306V21.638H37.2783Z" fill="#E6E7F5"/>
<path d="M30.5444 12.6953H29.2973L27.0137 17.3361H28.3244L28.7473 16.4166H31.0944L31.5174 17.3361H32.828L30.5444 12.6953ZM29.1385 15.5808L29.9108 13.8891L29.9209 13.8992L29.931 13.8891L30.7133 15.5808H29.1385Z" fill="#E6E7F5"/>
<path d="M25.925 14.7667C26.3581 14.5877 26.654 14.3221 26.654 13.8155C26.654 12.8223 25.7128 12.6953 24.9102 12.6953H22.0449V17.3361H25.2798C26.1574 17.3361 26.908 16.9767 26.908 15.9836C26.908 15.3585 26.527 14.9038 25.925 14.7667ZM23.2084 13.5311H24.9102C25.2379 13.5311 25.5555 13.6264 25.5237 14.0175C25.5021 14.377 25.2278 14.4823 24.9102 14.4823H23.2084V13.5311ZM24.9102 16.5003H23.2084V15.2849H24.9102C25.3548 15.2849 25.7143 15.3369 25.7143 15.8768C25.7128 16.3733 25.3433 16.5003 24.9102 16.5003Z" fill="#E6E7F5"/>
<path d="M46.5695 15.4856C47.31 15.3268 47.7748 14.8937 47.7748 14.0796C47.7748 13.0114 46.8769 12.6953 45.9675 12.6953H42.8496V17.3361H44.0116V15.4856H45.3541L46.5695 17.3361H47.9538L46.5695 15.4856ZM45.8391 14.6512H44.0102V13.5311H45.8391C46.2202 13.5311 46.5897 13.6365 46.5897 14.0912C46.5897 14.5459 46.21 14.6512 45.8391 14.6512Z" fill="#E6E7F5"/>
<path d="M36.115 4.42866C36.548 4.23811 36.8439 3.97396 36.8439 3.4774C36.8439 2.47273 35.9028 2.3457 35.1002 2.3457H32.2363V6.99662H35.4712C36.3488 6.99662 37.0994 6.63719 37.0994 5.64407C37.098 5.01038 36.7169 4.56723 36.115 4.42866ZM33.3983 3.19303H35.1002C35.4279 3.19303 35.7454 3.2782 35.7238 3.67949C35.692 4.02881 35.4178 4.13418 35.1002 4.13418H33.3983V3.19303ZM35.1002 6.15218H33.3983V4.94687H35.1002C35.5448 4.94687 35.9143 5.00028 35.9143 5.52859C35.9143 6.02515 35.5448 6.15218 35.1002 6.15218Z" fill="#E6E7F5"/>
<path d="M35.3003 7.5166H34.0531L31.7695 12.156H33.0701L33.5032 11.2365H35.8503L36.2732 12.156H37.5738L35.3003 7.5166ZM33.8842 10.392L34.6666 8.70026L34.6767 8.72191V8.70026L35.4591 10.392H33.8842Z" fill="#E6E7F5"/>
<path d="M36.1884 25.8023C36.929 25.6435 37.3837 25.2004 37.3837 24.3863C37.3837 23.3195 36.4959 23.002 35.5865 23.002H32.457V27.6529H33.6306V25.8023H34.9629L36.1884 27.6529H37.5728L36.1884 25.8023ZM35.4494 24.9579H33.6306V23.8478H35.4479C35.829 23.8478 36.1985 23.9532 36.1985 24.4079C36.2 24.8511 35.829 24.9579 35.4494 24.9579Z" fill="#E6E7F5"/>
</g>
</g>
</g>
<defs>
<clipPath id="clip0_10196_1035">
<rect width="70" height="30" fill="white"/>
</clipPath>
<clipPath id="clip1_10196_1035">
<rect width="70" height="30" fill="white"/>
</clipPath>
<clipPath id="clip2_10196_1035">
<rect width="30" height="30" fill="white" transform="translate(20)"/>
</clipPath>
</defs>
</svg>
