<svg width="70" height="30" viewBox="0 0 70 30" fill="none" xmlns="http://www.w3.org/2000/svg">
<g clip-path="url(#clip0_10196_682)">
<g clip-path="url(#clip1_10196_682)">
<g clip-path="url(#clip2_10196_682)">
<path d="M10.988 16.7091C12.1276 14.2266 11.3136 11.2964 9.03453 9.79054C9.92988 8.89519 10.8659 7.99984 11.8834 7.10449C10.7031 7.79635 9.6043 8.61031 8.54616 9.50566C5.86011 8.08124 2.5229 9.13938 1.09848 11.8254C0.040342 13.8196 0.325226 16.2615 1.79034 17.9708C0.732202 20.2498 0.569412 22.0812 1.46476 22.6917C2.4822 23.3429 4.63918 22.1626 5.9415 20.2091C5.9415 20.2091 3.94732 22.0405 2.80778 21.5929C2.11592 21.3487 2.11592 20.2905 2.68569 18.7847C4.88337 20.3719 7.89499 20.1684 9.80779 18.2557L10.0113 18.6219C12.4124 18.4184 19.5752 18.215 19.5752 18.215C19.6159 17.9301 14.895 18.2557 10.988 16.7091ZM1.13918 14.3894C1.13918 11.7033 3.29616 9.54635 5.9822 9.54635C6.67406 9.54635 7.36592 9.70914 7.97639 9.99403C5.61592 12.0289 3.62174 14.5115 2.15662 17.3196C1.50546 16.465 1.13918 15.4475 1.13918 14.3894ZM5.9822 19.2324C4.88337 19.2324 3.82523 18.8661 2.97057 18.215C3.94732 16.058 5.90081 13.1277 8.54616 10.3196C10.6217 11.6219 11.395 14.2673 10.3369 16.465C9.4822 16.0987 8.70895 15.5696 8.01709 14.9591L9.4822 17.6859C8.62755 18.6626 7.32523 19.2324 5.9822 19.2324Z" fill="#E6E7F5"/>
<path d="M43.8713 13.86L44.7666 12.6798H41.6329L42.4062 11.6623H45.5399L46.4352 10.4414H40.1678L35.8945 16.1391H42.1213L43.0166 14.9588H39.8829L40.7376 13.86H43.8713Z" fill="#E6E7F5"/>
<path d="M48.1854 10.4414L43.9121 16.1391H47.0051L51.3191 10.4414H48.1854Z" fill="#E6E7F5"/>
<path d="M58.5639 10.4414L56.407 13.3309L55.7151 10.4414H53.2733L49 16.1391H51.0349L53.2326 13.2902L53.8837 16.1391H56.3256L60.6395 10.4414H58.5639Z" fill="#E6E7F5"/>
<path d="M68.7375 10.4414H63.7317C62.9177 10.4414 62.1445 10.8077 61.6561 11.4995L59.0515 14.9181C58.9701 15.0402 58.8887 15.203 58.8887 15.3658C58.8887 15.7728 59.2143 16.1391 59.6619 16.1391H64.6677C65.4817 16.1391 66.255 15.7728 66.784 15.0809L67.3945 14.267H68.127L69.0224 13.0461H65.1968L63.9759 14.674C63.8538 14.8368 63.6503 14.9588 63.4468 14.9588H62.5515C62.4294 14.9588 62.348 14.8775 62.348 14.7554C62.348 14.7147 62.348 14.674 62.3887 14.6333L64.4236 11.9065C64.5457 11.7437 64.7491 11.6216 64.9526 11.6216H65.848C65.9701 11.6216 66.0515 11.703 66.0515 11.8251C66.0515 11.8658 66.0515 11.9065 66.0108 11.9472L65.6852 12.3949H68.7782L69.348 11.6623C69.5922 11.3368 69.5515 10.8484 69.1852 10.6042C69.0631 10.5228 68.9003 10.4414 68.7375 10.4414Z" fill="#E6E7F5"/>
<path d="M37.6055 11.2147C37.6055 10.8077 37.2799 10.4414 36.8323 10.4414H31.8671C31.0532 10.4414 30.2799 10.8077 29.7509 11.4995L27.1869 14.9181C26.9427 15.2437 27.0241 15.7321 27.3497 15.9763C27.4718 16.0577 27.6346 16.1391 27.7974 16.1391H32.8032C33.6171 16.1391 34.3904 15.7728 34.9195 15.0809L37.4834 11.6623C37.5648 11.5402 37.6462 11.3775 37.6055 11.2147ZM34.1462 11.9879L32.1113 14.7147C31.9892 14.8775 31.7857 14.9995 31.5823 14.9995H30.6869C30.5648 14.9995 30.4834 14.9182 30.4834 14.7961C30.4834 14.7554 30.4834 14.7147 30.5241 14.674L32.559 11.9472C32.6811 11.7844 32.8846 11.6623 33.0881 11.6623H33.9834C34.1055 11.6623 34.1869 11.7437 34.1869 11.8658C34.1869 11.9065 34.1462 11.9472 34.1462 11.9879Z" fill="#E6E7F5"/>
<path d="M25.8432 13.453C26.4536 13.3309 26.9827 12.9647 27.349 12.4763L27.9594 11.703C28.2036 11.3775 28.1629 10.8891 27.7966 10.6449C27.6746 10.5228 27.5118 10.4414 27.349 10.4414H21.0408L16.7676 16.1391H23.3199C24.1339 16.1391 24.9071 15.7728 25.4362 15.0809L26.0466 14.267C26.128 14.1449 26.1687 14.0228 26.1687 13.9007C26.0873 13.7379 26.0059 13.5344 25.8432 13.453ZM22.9536 14.1856L22.5466 14.7147C22.4246 14.8775 22.2211 14.9995 22.0176 14.9995H20.7559L21.5699 13.9007H22.7908C22.9129 13.9007 22.9943 13.9821 22.9943 14.1042C22.9943 14.1042 22.9943 14.1449 22.9536 14.1856ZM24.6222 11.9879L24.2966 12.4356C24.1746 12.5984 23.9711 12.7205 23.7676 12.7205H22.5059L23.2792 11.703H24.5001C24.6222 11.703 24.7036 11.7844 24.7036 11.9065C24.6629 11.9065 24.6629 11.9472 24.6222 11.9879Z" fill="#E6E7F5"/>
</g>
</g>
</g>
<defs>
<clipPath id="clip0_10196_682">
<rect width="70" height="30" fill="white"/>
</clipPath>
<clipPath id="clip1_10196_682">
<rect width="70" height="30" fill="white"/>
</clipPath>
<clipPath id="clip2_10196_682">
<rect width="70" height="16.2791" fill="white" transform="translate(0 6.86035)"/>
</clipPath>
</defs>
</svg>
