<svg width="70" height="30" viewBox="0 0 70 30" fill="none" xmlns="http://www.w3.org/2000/svg">
<g clip-path="url(#clip0_10196_945)">
<g clip-path="url(#clip1_10196_945)">
<g clip-path="url(#clip2_10196_945)">
<path fill-rule="evenodd" clip-rule="evenodd" d="M25.6981 14.7125C26.1879 14.2593 26.7415 13.511 26.7415 12.5589C26.7415 10.9071 25.762 9.15195 23.1947 9.15195H17.701V20.9727H23.9065C25.8259 20.9727 27.1948 19.2176 27.1948 17.6571C27.1948 16.3278 26.5103 15.2844 25.6981 14.7125ZM20.4326 11.7193H22.7414C23.2585 11.7193 23.6479 12.2729 23.6479 12.8265C23.6479 13.4076 23.222 13.9247 22.5133 13.9247H20.4357V11.7193H20.4326ZM22.6137 18.5727H20.4357V16.1635H22.708C23.5201 16.1635 23.9734 16.8175 23.9734 17.3651C23.9703 17.9156 23.584 18.5727 22.6137 18.5727ZM33.3363 8.92076C30.6777 8.92076 27.8792 11.0744 27.8792 14.9985C27.8792 18.6001 30.2792 21.1674 33.3363 21.1674C36.3934 21.1674 38.8026 18.6001 38.8026 14.9985C38.8026 11.0744 36.0041 8.92076 33.3363 8.92076ZM33.3363 18.4723C31.7758 18.4723 30.6108 16.8479 30.6108 14.9072C30.6108 13.0243 32.1348 11.6554 33.3363 11.6554C34.547 11.6554 36.071 13.0212 36.071 14.9072C36.071 16.8449 34.8968 18.4723 33.3363 18.4723ZM45.8233 13.8365C43.8826 13.5414 42.7388 13.2828 42.7388 12.4037C42.7388 11.7467 43.0886 11.333 43.9677 11.333C44.8164 11.333 45.8872 11.7862 46.5716 12.276L48.1686 10.393C47.1252 9.47743 44.9807 8.76562 44.1959 8.76562C41.4338 8.76562 39.7091 10.4174 39.7091 12.5619C39.7091 14.7794 41.224 15.8046 42.7388 16.0357C44.4301 16.2943 45.6286 16.6532 45.6286 17.505C45.6286 18.1803 44.9168 18.5392 44.132 18.5392C42.8666 18.5392 41.954 17.9217 41.1753 17.1065C40.3631 17.9187 39.3562 18.9894 39.3562 18.9894C40.3266 20.1362 41.592 21.1431 43.9008 21.1431C47.0218 21.1431 48.6857 18.9255 48.6857 17.3377C48.6857 15.3513 47.3199 14.0585 45.8233 13.8365ZM55.0767 11.6554C55.9802 11.6554 56.4152 12.1452 57.1908 13.0212L59.4358 11.4881C58.3285 9.83637 56.9688 8.8295 54.9185 8.8295C52.0014 8.8295 49.5618 11.5277 49.5618 15.0258C49.5618 18.5362 52.0014 21.2313 54.9185 21.2313C56.9688 21.2313 58.3255 20.2244 59.4358 18.5727L57.1908 17.0396C56.4152 17.9156 55.9802 18.4054 55.0767 18.4054C53.5801 18.4054 52.3907 17.14 52.3907 15.0258C52.3877 12.9208 53.5801 11.6554 55.0767 11.6554ZM67.1104 13.2798H63.5362V9.15195H60.6373V20.9727H63.5362V16.2639H67.1104V20.9727H70.0002V9.15195H67.1104V13.2798ZM9.29931 12.1543C8.97687 11.7923 8.59663 11.4912 8.17381 11.2569V13.3437H3.85128V11.2569C3.4315 11.4851 3.05431 11.7862 2.73491 12.1452C2.00485 12.9574 1.58203 14.019 1.58203 15.1293C1.58203 16.2365 2.0079 17.3073 2.73491 18.1225C3.05126 18.4845 3.42846 18.7887 3.85128 19.0198V16.8692H8.17381V19.0168C8.59663 18.7856 8.97991 18.4814 9.29931 18.1194C10.0294 17.3073 10.4522 16.2365 10.4522 15.1262C10.4552 14.019 10.0294 12.9574 9.29931 12.1543ZM2.73491 17.1582C2.35771 16.5468 2.15391 15.8441 2.15391 15.1262C2.15391 14.4053 2.35467 13.6996 2.73491 13.0851C2.89309 12.8265 3.08168 12.5893 3.29766 12.3733L3.31591 17.8974C3.09385 17.6753 2.89917 17.4289 2.73491 17.1582ZM8.17381 16.2821H3.85128V13.946H8.17381V16.2821ZM8.71831 17.8974L8.72743 12.3733C8.94949 12.5832 9.14113 12.8235 9.29931 13.0851C9.67955 13.6996 9.88031 14.4053 9.88031 15.1262C9.88031 15.838 9.66738 16.5468 9.29931 17.1582C9.13505 17.4289 8.94037 17.6753 8.71831 17.8974Z" fill="#E6E7F5"/>
<path fill-rule="evenodd" clip-rule="evenodd" d="M9.29906 10.0677C8.32566 9.43801 7.18799 9.10645 6.02903 9.10645C4.80923 9.10645 3.68373 9.46539 2.73162 10.0859C1.089 11.1658 0 13.0214 0 15.1294C0 17.2344 1.089 19.093 2.73466 20.1728C3.68677 20.7903 4.81227 21.1615 6.03207 21.1615C7.23362 21.1615 8.35912 20.8025 9.3021 20.1911C10.963 19.1112 12.0641 17.2435 12.0641 15.1294C12.0611 13.0122 10.963 11.1476 9.29906 10.0677ZM9.29906 19.4489C8.35912 20.1637 7.20928 20.55 6.02903 20.547C4.83661 20.55 3.67765 20.1546 2.73162 19.4306C1.43881 18.4329 0.599253 16.8724 0.599253 15.1263C0.599253 13.3803 1.44186 11.8229 2.73466 10.8342C3.67765 10.1011 4.83661 9.7057 6.03207 9.70874C7.26099 9.70874 8.38649 10.1255 9.3021 10.8069C10.6132 11.8046 11.4558 13.3742 11.4558 15.1294C11.4527 16.8815 10.6132 18.4542 9.29906 19.4489Z" fill="#E6E7F5"/>
</g>
</g>
</g>
<defs>
<clipPath id="clip0_10196_945">
<rect width="70" height="30" fill="white"/>
</clipPath>
<clipPath id="clip1_10196_945">
<rect width="70" height="30" fill="white"/>
</clipPath>
<clipPath id="clip2_10196_945">
<rect width="70" height="12.4687" fill="white" transform="translate(0 8.76562)"/>
</clipPath>
</defs>
</svg>
