<svg width="464" height="432" viewBox="0 0 464 432" fill="none" xmlns="http://www.w3.org/2000/svg">
<path d="M441.11 225.935H433.538V60.5249C433.538 29.915 408.558 5 378.013 5H60.5896C29.9797 5 5 29.915 5 60.5249V300.421C5 331.031 29.9797 355.946 60.5249 355.946H256.868V409.853C256.868 419.236 264.44 426.808 273.823 426.808H441.045C450.428 426.808 458 419.236 458 409.853V242.825C458 233.506 450.428 225.87 441.045 225.87L441.11 225.935ZM256.933 349.215H60.5896C33.6684 349.215 11.795 327.342 11.795 300.421V60.5249C11.795 33.6037 33.6684 11.7303 60.5896 11.7303H378.013C404.934 11.7303 426.808 33.6037 426.808 60.5249V225.935H360.217C360.217 225.935 359.634 225.87 359.375 225.87H79.2273C69.7143 225.87 62.078 233.506 62.078 242.89V268.452C62.078 277.835 69.7143 285.472 79.2273 285.472H256.933V349.215ZM256.933 242.825V278.418H79.2273C73.5971 278.418 69.1319 273.888 69.1319 268.322V242.76C69.1319 237.26 73.5971 232.794 79.2273 232.794H260.168C258.033 235.577 256.868 239.072 256.868 242.76L256.933 242.825ZM451.27 409.853C451.27 415.483 446.74 420.013 441.11 420.013H273.888C268.258 420.013 263.598 415.483 263.598 409.853V242.825C263.598 237.907 267.158 233.83 271.817 232.859C272.464 232.794 273.176 232.665 273.823 232.665H441.045C446.675 232.665 451.205 237.195 451.205 242.825V409.853H451.27Z" fill="#5E81B5"/>
<path d="M256.933 349.215H60.5896C33.6684 349.215 11.795 327.342 11.795 300.421V60.5249C11.795 33.6037 33.6684 11.7303 60.5896 11.7303H378.013C404.934 11.7303 426.808 33.6037 426.808 60.5249V225.935H360.217C360.217 225.935 359.634 225.87 359.375 225.87H79.2273C69.7143 225.87 62.078 233.506 62.078 242.89V268.452C62.078 277.835 69.7143 285.472 79.2273 285.472H256.933V349.215Z" fill="url(#paint0_linear_11284_205110)" fill-opacity="0.27"/>
<path d="M378.013 3.52246C409.372 3.52246 435.015 29.0978 435.016 60.5244V224.457H437.543L437.479 224.393H441.045C451.248 224.393 459.478 232.694 459.478 242.825V409.853C459.478 420.052 451.244 428.285 441.045 428.285H273.823C263.624 428.285 255.391 420.052 255.391 409.853V357.423H60.5244C29.1648 357.423 3.52256 331.847 3.52246 300.421V60.5244C3.5227 29.0967 29.1665 3.52246 60.5898 3.52246H378.013ZM273.823 234.142C273.291 234.142 272.83 234.236 272.066 234.316C268.08 235.172 265.075 238.663 265.075 242.825V409.853C265.075 414.643 269.049 418.535 273.888 418.535H441.109C445.567 418.535 449.211 415.219 449.728 410.906V242.825C449.728 238.011 445.859 234.142 441.045 234.142H273.823ZM79.2275 234.271C74.4008 234.271 70.6094 238.088 70.6094 242.761V268.322C70.6094 273.078 74.4194 276.94 79.2275 276.94H255.455V243.437L255.391 243.372V242.761C255.391 239.743 256.11 236.83 257.47 234.271H79.2275Z" stroke="#5E81B5" stroke-width="2.95435"/>
<path d="M426.747 60.5265V89.0655H11.7988V60.5265C11.7988 33.6054 33.6723 11.7319 60.5934 11.7319H378.017C404.938 11.7319 426.812 33.6054 426.812 60.5265H426.747ZM113.336 170.541C112.365 169.7 110.747 168.988 108.223 168.405C105.829 167.952 104.34 167.435 103.952 167.176C103.693 166.982 103.499 166.723 103.499 166.334C103.499 165.946 103.693 165.687 103.952 165.493C104.534 165.105 105.376 164.911 106.541 164.911C107.511 164.911 108.288 165.105 108.741 165.493C109.323 165.881 109.582 166.334 109.776 167.046L114.112 166.27C113.815 164.848 112.981 163.596 111.782 162.775C110.618 161.999 108.806 161.61 106.476 161.61C103.952 161.61 102.14 162.063 100.846 163.163C99.6808 164.199 99.0984 165.493 99.0984 166.917C99.0984 168.664 99.7455 169.894 101.105 170.864C102.075 171.512 104.47 172.288 108.158 173.065C109 173.259 109.517 173.453 109.712 173.712C109.906 173.906 110.1 174.165 110.1 174.553C110.1 175.006 109.841 175.394 109.453 175.718C108.87 176.171 108.029 176.365 106.735 176.365C105.699 176.365 104.923 176.171 104.211 175.718C103.605 175.201 103.194 174.494 103.046 173.712L98.3865 174.359C98.8395 175.977 99.7455 177.336 101.105 178.307C102.528 179.148 104.405 179.666 106.735 179.666C109.453 179.666 111.394 179.213 112.753 178.048C114.112 176.883 114.695 175.524 114.695 173.906C114.695 172.482 114.242 171.317 113.271 170.541H113.336ZM133.268 164.134C131.65 162.387 129.385 161.546 126.796 161.546C125.049 161.546 123.496 161.934 122.137 162.71C120.778 163.487 119.742 164.522 118.966 166.011C118.189 167.435 117.801 168.923 117.801 170.476C117.801 172.418 118.189 174.165 118.966 175.524C119.742 176.948 120.778 178.048 122.266 178.695C123.69 179.471 125.243 179.73 126.796 179.73C129.385 179.73 131.52 178.954 133.268 177.206C134.885 175.459 135.791 173.259 135.791 170.606C135.791 167.952 134.95 165.752 133.268 164.134ZM129.773 174.618C128.996 175.589 128.026 176.042 126.796 176.042C125.631 176.042 124.596 175.589 123.819 174.618C122.978 173.777 122.59 172.418 122.59 170.67C122.59 168.923 122.978 167.693 123.819 166.723C124.596 165.881 125.631 165.364 126.796 165.364C128.026 165.364 128.996 165.817 129.773 166.723C130.614 167.693 131.003 168.923 131.003 170.67C131.003 172.418 130.614 173.777 129.773 174.618ZM139.351 155.333V179.342H144.01V155.333H139.351ZM159.865 161.934L156.565 170.864C156.371 171.317 156.176 171.835 156.112 172.288C156.047 172.547 155.853 173.065 155.659 173.841L154.688 170.864L151.388 161.934H146.534L153.588 179.342H157.73L164.589 161.934H159.865ZM176.432 175.783C175.924 176.2 175.276 176.408 174.62 176.365C173.585 176.365 172.679 175.977 172.031 175.2C171.255 174.424 170.996 173.388 170.867 172.029H182.45C182.515 168.535 181.803 165.817 180.315 164.199C178.762 162.452 176.756 161.61 174.102 161.61C171.773 161.61 169.961 162.452 168.407 164.005C166.854 165.623 166.078 167.952 166.078 170.864C166.078 173.259 166.66 175.2 167.825 176.883C169.249 178.824 171.578 179.795 174.62 179.795C176.561 179.795 178.115 179.407 179.344 178.565C180.574 177.724 181.544 176.365 182.127 174.683L177.597 173.906C177.41 174.654 177.004 175.33 176.432 175.847V175.783ZM171.902 166.205C172.549 165.428 173.455 165.17 174.426 165.17C175.397 165.17 176.173 165.428 176.82 166.14C177.467 166.917 177.791 167.888 177.791 169.247H170.931C170.931 168.017 171.19 167.046 171.902 166.27V166.205ZM207.56 175.265C208.013 174.683 209.307 173.453 211.248 171.706C213.19 169.958 214.549 168.599 215.325 167.629C216.361 166.205 217.267 164.846 217.72 163.487C218.173 162.257 218.496 160.898 218.496 159.41C218.496 156.886 217.655 154.751 215.778 153.003C213.902 151.256 211.507 150.479 208.336 150.479C205.424 150.479 203.03 151.127 201.088 152.615C199.147 154.168 198.111 156.563 197.723 159.992L203.806 160.575C203.871 158.763 204.389 157.469 205.165 156.692C205.942 155.915 206.912 155.527 208.142 155.527C209.501 155.527 210.472 155.915 211.248 156.692C212.025 157.339 212.284 158.439 212.284 159.798C212.284 161.028 211.895 162.322 211.054 163.552C210.472 164.522 208.724 166.27 206.006 168.794C202.512 171.965 200.182 174.618 199.017 176.559C197.852 178.501 197.205 180.507 196.882 182.642H218.432V176.948H206.265C206.524 176.495 207.042 175.912 207.495 175.33L207.56 175.265ZM236.681 170.476L244.511 159.475H237.263L232.992 165.881L228.851 159.475H221.408L229.433 170.8L221.02 182.707H228.203L233.057 175.524L237.781 182.707H245.223L236.681 170.541V170.476ZM248.2 167.952V174.165H260.302V167.952H248.2ZM281.334 164.134C279.392 162.193 277.192 161.222 274.345 161.222C272.986 161.222 271.562 161.481 270.203 162.193L271.174 156.757H282.758V150.932H266.514L263.343 167.693L268.391 168.341C269.75 166.787 271.368 166.011 273.115 166.011C274.474 166.011 275.639 166.464 276.48 167.435C277.322 168.47 277.839 169.958 277.839 171.9C277.839 174.035 277.386 175.589 276.48 176.624C275.639 177.659 274.539 178.177 273.309 178.177C272.202 178.196 271.133 177.777 270.332 177.012C269.463 176.115 268.916 174.954 268.779 173.712L262.696 174.294C262.955 177.012 264.12 179.148 265.997 180.701C267.809 182.319 270.268 183.095 273.245 183.095C276.933 183.095 279.845 181.672 281.981 178.824C283.534 176.818 284.181 174.359 284.181 171.77C284.181 168.599 283.34 166.076 281.399 164.005L281.334 164.134ZM287.417 159.216V164.846H309.743V159.216H287.417ZM287.417 168.923V174.553H309.743V168.923H287.417ZM331.358 154.298C329.352 151.774 326.634 150.544 323.398 150.544C320.421 150.544 317.897 151.515 315.956 153.456C314.015 155.462 313.044 158.116 313.044 161.416C313.044 164.522 314.015 167.046 315.827 168.988C317.639 170.929 319.774 171.9 322.298 171.9C324.628 171.9 326.569 171.059 328.122 169.311C327.928 173 327.346 175.394 326.504 176.559C325.534 177.724 324.498 178.307 323.204 178.307C322.233 178.307 321.392 178.048 320.81 177.465C320.227 176.883 319.839 175.912 319.645 174.747L313.756 175.394C314.144 177.983 315.115 180.054 316.668 181.283C318.221 182.642 320.227 183.29 322.751 183.29C326.246 183.29 329.158 182.06 331.293 179.407C333.429 176.818 334.594 172.547 334.594 166.723C334.594 160.898 333.558 156.821 331.423 154.362L331.358 154.298ZM326.44 165.881C325.663 166.852 324.628 167.305 323.463 167.305C322.872 167.311 322.287 167.187 321.751 166.94C321.214 166.694 320.738 166.333 320.357 165.881C319.58 164.911 319.192 163.358 319.192 161.351C319.192 159.345 319.58 157.792 320.227 156.886C321.004 156.045 321.974 155.527 323.139 155.527C324.304 155.527 325.34 156.11 326.246 157.145C327.216 158.18 327.605 159.734 327.605 161.804C327.605 163.616 327.216 164.975 326.44 165.881ZM433.542 292.268L430.177 295.634L426.812 298.999L376.787 349.152L373.422 352.517L370.057 355.883L341.13 384.81C339.318 386.557 336.406 386.557 334.658 384.81L305.731 355.883L302.366 352.517L299.001 349.152L287.288 337.439C286.857 337.017 286.515 336.514 286.282 335.958C286.048 335.403 285.928 334.806 285.928 334.203C285.928 333.601 286.048 333.004 286.282 332.448C286.515 331.893 286.857 331.389 287.288 330.968L302.948 315.307C303.37 314.876 303.874 314.534 304.429 314.301C304.985 314.067 305.581 313.947 306.184 313.947C306.787 313.947 307.383 314.067 307.939 314.301C308.495 314.534 308.998 314.876 309.42 315.307L337.894 343.781L411.539 270.136C413.351 268.389 416.198 268.389 418.01 270.136L426.941 279.131L433.736 285.926C435.548 287.674 435.548 290.586 433.736 292.333L433.542 292.268Z" fill="#5E81B5"/>
<defs>
<linearGradient id="paint0_linear_11284_205110" x1="231.5" y1="5" x2="231.5" y2="426.808" gradientUnits="userSpaceOnUse">
<stop stop-color="#5E81B5"/>
<stop offset="1" stop-color="#5E81B5" stop-opacity="0.12"/>
</linearGradient>
</defs>
</svg>
