<svg width="70" height="30" viewBox="0 0 70 30" fill="none" xmlns="http://www.w3.org/2000/svg">
<g clip-path="url(#clip0_10196_1124)">
<g clip-path="url(#clip1_10196_1124)">
<g clip-path="url(#clip2_10196_1124)">
<path d="M31.0059 10.5153L33.9075 12.1005H34.1499L33.8739 10.9005L34.4343 11.7621L34.6431 7.29688C32.6895 8.58928 31.0059 10.5153 31.0059 10.5153Z" fill="#E6E7F5"/>
<path d="M31.5684 22.5448H32.0496L31.9656 21.6592L31.5684 22.5448Z" fill="#E6E7F5"/>
<path d="M35.0024 0C26.7224 0 20 6.7176 20 14.9976C20 23.2776 26.7224 30 35.0024 30C43.2824 30 50 23.2776 50 14.9976C50 6.7176 43.2824 0 35.0024 0ZM30.8876 2.1372C30.8876 2.0424 31.0664 1.8864 31.1672 1.8864C31.1672 1.8864 31.2008 1.4808 31.2968 1.4808C31.394 1.4808 31.4264 1.9032 31.4264 1.9032C31.5008 1.9032 31.6736 2.0724 31.6736 2.1456C31.6736 2.1456 32.0288 2.1816 32.0288 2.2668C32.0288 2.3568 31.6484 2.388 31.6484 2.388C31.6484 2.4396 31.4732 2.5716 31.4228 2.5716C31.4228 2.5716 31.3964 3.0108 31.2968 3.0108C31.1948 3.0108 31.1672 2.58 31.1672 2.58C31.1192 2.58 30.9044 2.4504 30.9044 2.3964C30.9044 2.3964 30.494 2.3592 30.494 2.2668C30.4952 2.172 30.8876 2.1372 30.8876 2.1372ZM26.3012 23.6112C26.3012 23.6112 26.1236 23.712 25.2428 23.724C24.362 23.736 23.7548 23.148 23.7632 22.3824C23.7752 21.2448 25.136 20.5752 25.9412 20.5968C26.3432 20.6076 26.828 20.718 26.828 20.718L26.6528 21.8724C26.6528 21.8724 26.336 21.5796 25.8956 21.5796C25.4744 21.5796 25.1048 21.942 25.1096 22.2528C25.1132 22.4952 25.3784 22.7592 25.7408 22.7592C26.078 22.7592 26.5436 22.4832 26.5436 22.4832L26.3012 23.6112ZM27.986 23.724C27.32 23.724 26.6312 23.4528 26.6312 23.4528L27.2084 22.596C27.2084 22.596 27.6212 22.8804 27.8276 22.8972C28.0508 22.9152 28.3376 22.8732 28.3712 22.7472C28.4252 22.5468 28.0484 22.5552 27.836 22.5216C26.9144 22.374 27.0032 21.726 27.1796 21.4308C27.5396 20.8284 28.2764 20.5764 28.9268 20.5992C29.5028 20.6196 29.9516 20.8584 29.9516 20.8584L29.4452 21.6276C29.4452 21.6276 29.1236 21.4536 28.9724 21.4392C28.8068 21.4236 28.4444 21.378 28.4288 21.5436C28.4048 21.7908 28.9136 21.7404 29.1944 21.8316C29.516 21.9372 29.9048 22.2036 29.6588 22.8816C29.4656 23.4108 28.6472 23.724 27.986 23.724ZM32.2088 23.6652L32.1716 23.2932H31.1804L30.9884 23.6652H29.6372L31.4396 20.6256H32.8652L33.614 23.6652H32.2088ZM35.1164 19.0224L35.1404 20.322H34.8428L34.8992 19.02C34.8992 18.9768 34.8824 18.9444 34.8452 18.9444L33.614 19.086L33.722 18.7308C33.7388 18.6684 33.7148 18.6 33.6656 18.5628L32.4308 17.5572L32.6864 17.4372C32.7992 17.3964 32.7668 17.334 32.7272 17.1804L32.5388 16.494L33.2564 16.6452C33.326 16.656 33.3728 16.6116 33.3836 16.5684L33.476 16.2456L34.0436 16.8816C34.124 16.9836 34.2872 16.9836 34.2368 16.7484L33.9944 15.4596L34.3196 15.6276C34.4108 15.678 34.502 15.6876 34.5536 15.5952L35.0024 14.7564L35.4512 15.5952C35.5016 15.6864 35.594 15.678 35.6852 15.6264L36.0104 15.4584L35.768 16.7472C35.7176 16.9824 35.8808 16.9824 35.9612 16.8804L36.5288 16.2444L36.6212 16.5672C36.632 16.6092 36.6788 16.6548 36.7484 16.644L37.466 16.4928L37.2776 17.1792C37.2368 17.3316 37.2056 17.3952 37.3184 17.436L37.574 17.556L36.3392 18.5616C36.29 18.6 36.266 18.6684 36.2828 18.7296L36.3908 19.0848L35.1596 18.9432C35.1188 18.9432 35.1164 18.978 35.1164 19.0224ZM38.2052 23.6532L38.168 23.2812H37.1768L36.9848 23.6532H35.6348L37.4372 20.6136H38.8628L39.6116 23.6532H38.2052ZM42.2936 21.822C42.6152 21.9276 43.0004 22.1892 42.7532 22.8672C42.56 23.3988 41.7416 23.7156 41.0804 23.7156C40.4144 23.7156 39.7304 23.4396 39.7304 23.4396L40.3076 22.5828C40.3076 22.5828 40.7204 22.872 40.9268 22.8876C41.15 22.9056 41.4368 22.86 41.4704 22.7328C41.5244 22.5324 41.1476 22.5408 40.9352 22.5072C40.0136 22.3596 40.1024 21.7116 40.2788 21.4164C40.6388 20.814 41.3756 20.5656 42.026 20.5884C42.602 20.6088 43.0508 20.844 43.0508 20.844L42.5444 21.6132C42.5444 21.6132 42.2228 21.444 42.0716 21.4296C41.906 21.414 41.5436 21.3648 41.528 21.5304C41.5052 21.7764 42.014 21.7296 42.2936 21.822ZM46.0616 21.8712C46.0616 21.8712 45.7436 21.5784 45.3044 21.5784C44.8832 21.5784 44.5136 21.9408 44.5184 22.2516C44.522 22.494 44.7824 22.758 45.146 22.758C45.4832 22.758 45.9524 22.482 45.9524 22.482L45.71 23.6112C45.71 23.6112 45.5324 23.712 44.6516 23.724C43.7708 23.736 43.1636 23.148 43.172 22.3824C43.184 21.2448 44.5448 20.5752 45.35 20.5968C45.752 20.6076 46.2368 20.718 46.2368 20.718L46.0616 21.8712ZM34.8848 13.3344C27.2624 13.3344 22.4084 19.0452 22.4084 19.0452C22.4084 19.0452 23.4296 17.2836 25.46 15.6588C26.2844 14.3724 27.9692 12.5568 27.9692 12.5568L25.5104 12.3564L28.2368 12.2724L30.0848 10.3032L28.7636 9.3324L30.236 10.122C30.236 10.122 33.0308 7.3512 34.6844 6.396L34.9268 1.5672L35.1776 6.1044C35.1776 6.1044 36.7724 5.1288 38.138 5.1132C39.8648 5.0928 40.4204 6.9444 40.4204 6.9444C40.4204 6.9444 40.4264 6.618 40.5212 6.618C40.6184 6.618 40.6304 7.266 40.6304 7.266C40.7312 7.266 40.8476 7.3908 40.8476 7.4712C40.8476 7.4712 41.4836 7.482 41.4836 7.5924C41.4836 7.6992 40.8476 7.7016 40.8476 7.7016C40.8476 7.7904 40.7048 7.9104 40.6304 7.9104C40.6304 7.9104 40.6352 8.5548 40.5212 8.5548C40.4036 8.5548 40.3952 7.9152 40.3952 7.9152C40.3112 7.9152 40.1864 7.776 40.1864 7.7016C40.1864 7.7016 39.5504 7.7064 39.5504 7.5888C39.5504 7.4652 40.1612 7.4712 40.1612 7.4712C40.1612 7.4712 40.22 7.4292 40.22 7.3956C40.22 7.362 39.7748 5.8236 38.2052 5.8236C37.184 5.8236 35.2112 6.9108 35.2112 6.9108L35.4452 11.7612L35.9888 10.8996L35.7296 12.0996H35.9888L41.0732 9.3444L37.268 12.126L44.2004 12.3852L38.7152 12.786C44.4716 13.9968 47.5964 18.9192 47.5964 18.9192C47.5964 18.9192 42.5264 13.3344 34.8848 13.3344Z" fill="#E6E7F5"/>
<path d="M27.6504 14.2029C27.6504 14.2029 28.9044 13.4277 31.3212 12.8109L29.1384 12.6309L27.6504 14.2029Z" fill="#E6E7F5"/>
<path d="M37.5664 22.5323H38.0464L37.9636 21.6455L37.5664 22.5323Z" fill="#E6E7F5"/>
<path d="M29.5 12.2379L32.6536 12.1467L30.772 10.7715L29.5 12.2379Z" fill="#E6E7F5"/>
</g>
</g>
</g>
<defs>
<clipPath id="clip0_10196_1124">
<rect width="70" height="30" fill="white"/>
</clipPath>
<clipPath id="clip1_10196_1124">
<rect width="70" height="30" fill="white"/>
</clipPath>
<clipPath id="clip2_10196_1124">
<rect width="30" height="30" fill="white" transform="translate(20)"/>
</clipPath>
</defs>
</svg>
