<svg width="70" height="30" viewBox="0 0 70 30" fill="none" xmlns="http://www.w3.org/2000/svg">
<g clip-path="url(#clip0_10196_1086)">
<g clip-path="url(#clip1_10196_1086)">
<g clip-path="url(#clip2_10196_1086)">
<path d="M11.4292 20.8922C10.5164 20.8925 9.616 20.6808 8.79897 20.2738C7.98193 19.8667 7.27064 19.2754 6.72116 18.5465C6.17168 17.8175 5.79904 16.9709 5.63263 16.0734C5.46622 15.1759 5.51058 14.252 5.76222 13.3745C6.01386 12.4971 6.46589 11.69 7.08268 11.0171C7.69947 10.3442 8.46415 9.82377 9.31642 9.49685C10.1687 9.16993 11.0853 9.04546 11.9939 9.13326C12.9024 9.22107 13.7782 9.51874 14.5521 10.0028L11.4292 15.0008L17.3084 11.6058C16.6338 10.5555 15.7217 9.67847 14.6458 9.04556C13.2361 8.20469 11.2753 7.67969 9.107 7.67969C6.01388 7.67969 3.3005 8.80406 1.78762 10.4867C0.66675 11.7309 0 13.2972 0 15.0008C0 16.7044 0.66675 18.2724 1.78762 19.5176C3.30487 21.2028 5.978 22.3176 9.0195 22.3176C12.061 22.3176 14.7332 21.1993 16.2514 19.5176C16.3389 19.4248 16.415 19.3312 16.4911 19.2341L16.2619 18.3748C15.7186 19.1525 14.9955 19.7875 14.1541 20.2258C13.3127 20.6641 12.3779 20.8927 11.4292 20.8922Z" fill="#E6E7F5"/>
<path d="M30.9217 21.9653L28.4542 12.7603C28.3289 12.2942 28.1081 11.8591 27.8058 11.4828C27.5034 11.1066 27.1261 10.7972 26.6979 10.5745C26.2696 10.3518 25.7997 10.2205 25.3181 10.189C24.8364 10.1576 24.3534 10.2266 23.8998 10.3917L18.5877 12.3211H24.0512L24.9848 15.808C24.0463 14.9982 22.8478 14.5531 21.6082 14.5541C19.0436 14.5541 16.9707 16.2726 16.9707 18.3927C16.9707 20.5128 19.0471 22.234 21.6082 22.234C22.4841 22.2344 23.3475 22.0268 24.1275 21.6282C24.9074 21.2297 25.5815 20.6515 26.0943 19.9415L26.636 21.9653H30.9235M23.3985 20.5356C22.9746 20.5356 22.5603 20.4099 22.2079 20.1744C21.8555 19.939 21.5809 19.6043 21.4187 19.2127C21.2565 18.8212 21.2141 18.3903 21.2968 17.9746C21.3794 17.559 21.5835 17.1771 21.8832 16.8775C22.1829 16.5778 22.5647 16.3737 22.9804 16.291C23.3961 16.2083 23.8269 16.2508 24.2185 16.4129C24.6101 16.5751 24.9447 16.8498 25.1802 17.2022C25.4157 17.5546 25.5413 17.9689 25.5413 18.3927C25.5414 18.6744 25.486 18.9534 25.3781 19.2137C25.2702 19.474 25.1121 19.7104 24.9127 19.9094C24.7133 20.1085 24.4766 20.2663 24.2162 20.3737C23.9558 20.4811 23.6767 20.5362 23.395 20.5356H23.3985Z" fill="#E6E7F5"/>
<path d="M40.9823 10.1814C40.669 10.1802 40.3594 10.2486 40.0758 10.3818L36.6685 11.9673C36.6138 11.6415 36.4846 11.3327 36.2909 11.0651C36.0973 10.7974 35.8444 10.5782 35.552 10.4244C35.2596 10.2705 34.9357 10.1864 34.6054 10.1784C34.2751 10.1704 33.9475 10.2388 33.648 10.3783L29.4883 12.3216H32.416V21.9659H36.7035V13.3909C36.7035 13.1066 36.8165 12.834 37.0175 12.633C37.2185 12.4319 37.4911 12.319 37.7754 12.319C38.0597 12.319 38.3323 12.4319 38.5333 12.633C38.7344 12.834 38.8473 13.1066 38.8473 13.3909V21.9659H43.1348V12.3216C43.1347 12.0404 43.0791 11.7619 42.9714 11.5021C42.8636 11.2423 42.7057 11.0063 42.5067 10.8076C42.3077 10.6088 42.0715 10.4512 41.8116 10.3438C41.5517 10.2363 41.2732 10.1812 40.9919 10.1814" fill="#E6E7F5"/>
<path d="M57.0497 16.2544C57.0499 17.4553 56.6939 18.6292 56.0268 19.6277C55.3598 20.6262 54.4116 21.4044 53.3021 21.864C52.1927 22.3235 50.9719 22.4437 49.7942 22.2093C48.6164 21.975 47.5347 21.3966 46.6857 20.5474C45.8367 19.6981 45.2586 18.6162 45.0246 17.4384C44.7906 16.2606 44.9111 15.0398 45.371 13.9305C45.8308 12.8212 46.6094 11.8732 47.608 11.2065C48.6067 10.5397 49.7808 10.1841 50.9816 10.1846C51.7786 10.1846 52.5678 10.3416 53.3042 10.6466C54.0405 10.9517 54.7095 11.3988 55.273 11.9625C55.8365 12.5262 56.2835 13.1953 56.5883 13.9317C56.8932 14.6682 57.0499 15.4574 57.0497 16.2544ZM51.2336 12.0238C51.1303 11.6942 50.9036 11.4172 50.6009 11.2508C50.2982 11.0844 49.9429 11.0414 49.6092 11.1309C49.2756 11.2204 48.9894 11.4354 48.8106 11.731C48.6318 12.0265 48.5741 12.3797 48.6497 12.7168L50.7313 20.4781C50.7732 20.6517 50.8494 20.8153 50.9554 20.959C51.0614 21.1028 51.1951 21.2239 51.3487 21.3152C51.5022 21.4065 51.6725 21.4661 51.8494 21.4906C52.0264 21.5151 52.2064 21.5039 52.379 21.4577C52.5516 21.4115 52.7131 21.3312 52.8542 21.2216C52.9953 21.112 53.113 20.9753 53.2004 20.8195C53.2878 20.6637 53.3431 20.492 53.3631 20.3145C53.3832 20.137 53.3675 19.9573 53.317 19.7859L51.2336 12.0238Z" fill="#E6E7F5"/>
<path d="M67.8575 10.1814C67.5432 10.1811 67.2327 10.2495 66.9475 10.3818L63.5403 11.9673C63.4856 11.6415 63.3564 11.3327 63.1627 11.0651C62.969 10.7974 62.7161 10.5782 62.4238 10.4244C62.1314 10.2705 61.8074 10.1864 61.4772 10.1784C61.1469 10.1704 60.8193 10.2388 60.5198 10.3783L56.3574 12.3216H59.2843V21.9659H63.5718V13.3909C63.5677 13.2476 63.5924 13.105 63.6444 12.9714C63.6964 12.8378 63.7747 12.716 63.8746 12.6132C63.9744 12.5104 64.0939 12.4287 64.226 12.3729C64.358 12.3171 64.4999 12.2884 64.6432 12.2884C64.7866 12.2884 64.9285 12.3171 65.0605 12.3729C65.1925 12.4287 65.312 12.5104 65.4119 12.6132C65.5118 12.716 65.5901 12.8378 65.6421 12.9714C65.6941 13.105 65.7188 13.2476 65.7147 13.3909V21.9659H70.0022V12.3216C70.0017 11.7538 69.7758 11.2095 69.3742 10.8081C68.9725 10.4068 68.428 10.1814 67.8602 10.1814" fill="#E6E7F5"/>
</g>
</g>
</g>
<defs>
<clipPath id="clip0_10196_1086">
<rect width="70" height="30" fill="white"/>
</clipPath>
<clipPath id="clip1_10196_1086">
<rect width="70" height="30" fill="white"/>
</clipPath>
<clipPath id="clip2_10196_1086">
<rect width="70" height="14.6405" fill="white" transform="translate(0 7.67969)"/>
</clipPath>
</defs>
</svg>
