<svg width="140" height="60" viewBox="0 0 140 60" fill="none" xmlns="http://www.w3.org/2000/svg">
<g clip-path="url(#clip0_11105_18206)">
<g clip-path="url(#clip1_11105_18206)">
<path d="M22.8585 41.7844C21.0328 41.7851 19.232 41.3617 17.5979 40.5475C15.9639 39.7334 14.5413 38.5507 13.4423 37.0929C12.3434 35.6351 11.5981 33.9419 11.2653 32.1468C10.9324 30.3518 11.0212 28.5039 11.5244 26.749C12.0277 24.9941 12.9318 23.3801 14.1654 22.0343C15.3989 20.6884 16.9283 19.6475 18.6328 18.9937C20.3374 18.3399 22.1705 18.0909 23.9877 18.2665C25.8049 18.4421 27.5564 19.0375 29.1042 20.0056L22.8585 30.0016L34.6167 23.2116C33.2676 21.111 31.4434 19.3569 29.2915 18.0911C26.4723 16.4094 22.5505 15.3594 18.214 15.3594C12.0278 15.3594 6.601 17.6081 3.57525 20.9734C1.3335 23.4619 0 26.5944 0 30.0016C0 33.4089 1.3335 36.5449 3.57525 39.0351C6.60975 42.4056 11.956 44.6351 18.039 44.6351C24.122 44.6351 29.4665 42.3986 32.5027 39.0351C32.6777 38.8496 32.83 38.6624 32.9822 38.4681L32.5238 36.7496C31.4371 38.305 29.9909 39.575 28.3082 40.4516C26.6254 41.3281 24.7559 41.7854 22.8585 41.7844Z" fill="#CC0000"/>
<path d="M61.8395 43.9307L56.9045 25.5207C56.6539 24.5883 56.2123 23.7183 55.6076 22.9657C55.0029 22.2131 54.2484 21.5945 53.3919 21.149C52.5353 20.7036 51.5956 20.441 50.6322 20.3781C49.6689 20.3152 48.7029 20.4532 47.7958 20.7834L37.1715 24.6422H48.0985L49.9657 31.6159C48.0887 29.9963 45.6916 29.1062 43.2125 29.1082C38.0833 29.1082 33.9375 32.5452 33.9375 36.7854C33.9375 41.0257 38.0902 44.4679 43.2125 44.4679C44.9643 44.4688 46.6912 44.0536 48.2511 43.2565C49.811 42.4593 51.1592 41.3031 52.1847 39.8829L53.268 43.9307H61.843M46.793 41.0712C45.9454 41.0712 45.1168 40.8198 44.412 40.3489C43.7072 39.878 43.1579 39.2086 42.8335 38.4255C42.5091 37.6424 42.4242 36.7807 42.5896 35.9493C42.755 35.1179 43.1631 34.3543 43.7625 33.7549C44.3619 33.1556 45.1255 32.7474 45.9569 32.582C46.7882 32.4166 47.65 32.5015 48.4331 32.8259C49.2162 33.1503 49.8855 33.6996 50.3565 34.4044C50.8274 35.1092 51.0788 35.9378 51.0788 36.7854C51.079 37.3489 50.9681 37.9069 50.7523 38.4274C50.5366 38.9479 50.2203 39.4208 49.8215 39.8189C49.4228 40.217 48.9494 40.5325 48.4285 40.7474C47.9076 40.9623 47.3495 41.0723 46.786 41.0712H46.793Z" fill="#CC0000"/>
<path d="M81.9646 20.3628C81.338 20.3603 80.7187 20.4972 80.1516 20.7635L73.3371 23.9345C73.2277 23.2829 72.9692 22.6654 72.5819 22.1301C72.1945 21.5949 71.6887 21.1563 71.104 20.8487C70.5193 20.5411 69.8713 20.3727 69.2108 20.3567C68.5503 20.3407 67.895 20.4776 67.2961 20.7565L58.9766 24.6433H64.8321V43.9318H73.4071V26.7818C73.4071 26.2132 73.6329 25.6679 74.035 25.2659C74.437 24.8639 74.9823 24.638 75.5508 24.638C76.1194 24.638 76.6646 24.8639 77.0667 25.2659C77.4687 25.6679 77.6946 26.2132 77.6946 26.7818V43.9318H86.2696V24.6433C86.2693 24.0808 86.1583 23.5238 85.9428 23.0043C85.7272 22.4847 85.4115 22.0127 85.0135 21.6152C84.6155 21.2176 84.1431 20.9025 83.6232 20.6876C83.1034 20.4727 82.5463 20.3623 81.9838 20.3628" fill="#CC0000"/>
<path d="M114.103 32.5089C114.104 34.9106 113.392 37.2584 112.058 39.2554C110.723 41.2524 108.827 42.8089 106.608 43.7279C104.389 44.647 101.948 44.8874 99.5923 44.4187C97.2368 43.95 95.0732 42.7932 93.3752 41.0947C91.6773 39.3963 90.5211 37.2324 90.0531 34.8768C89.5851 32.5211 89.8262 30.0796 90.7459 27.8611C91.6656 25.6425 93.2226 23.7465 95.22 22.4129C97.2174 21.0794 99.5654 20.3681 101.967 20.3691C103.561 20.3691 105.14 20.6832 106.612 21.2933C108.085 21.9034 109.423 22.7977 110.55 23.925C111.677 25.0523 112.571 26.3906 113.181 27.8635C113.79 29.3363 114.104 30.9148 114.103 32.5089ZM102.471 24.0476C102.265 23.3883 101.811 22.8344 101.206 22.5016C100.6 22.1688 99.8897 22.0829 99.2224 22.2619C98.5551 22.4408 97.9828 22.8708 97.6252 23.4619C97.2675 24.053 97.1522 24.7595 97.3033 25.4336L101.467 40.9561C101.55 41.3035 101.703 41.6305 101.915 41.9181C102.127 42.2056 102.394 42.4478 102.701 42.6304C103.008 42.813 103.349 42.9322 103.703 42.9812C104.057 43.0301 104.417 43.0077 104.762 42.9153C105.107 42.823 105.43 42.6624 105.712 42.4433C105.994 42.2241 106.23 41.9506 106.405 41.639C106.579 41.3275 106.69 40.9841 106.73 40.629C106.77 40.274 106.739 39.9146 106.638 39.5719L102.471 24.0476Z" fill="#CC0000"/>
<path d="M135.719 20.3628C135.09 20.3621 134.469 20.4989 133.899 20.7635L127.084 23.9345C126.975 23.2829 126.717 22.6654 126.329 22.1301C125.942 21.5949 125.436 21.1563 124.851 20.8487C124.267 20.5411 123.619 20.3727 122.958 20.3567C122.298 20.3407 121.642 20.4776 121.043 20.7565L112.719 24.6433H118.572V43.9318H127.147V26.7818C127.139 26.4952 127.189 26.2099 127.293 25.9428C127.397 25.6756 127.553 25.4321 127.753 25.2265C127.953 25.0209 128.192 24.8575 128.456 24.7459C128.72 24.6343 129.004 24.5768 129.29 24.5768C129.577 24.5768 129.861 24.6343 130.125 24.7459C130.389 24.8575 130.628 25.0209 130.828 25.2265C131.028 25.4321 131.184 25.6756 131.288 25.9428C131.392 26.2099 131.441 26.4952 131.433 26.7818V43.9318H140.008V24.6433C140.007 23.5077 139.556 22.4189 138.752 21.6163C137.949 20.8136 136.86 20.3628 135.724 20.3628" fill="#CC0000"/>
</g>
</g>
<defs>
<clipPath id="clip0_11105_18206">
<rect width="140" height="60" fill="white"/>
</clipPath>
<clipPath id="clip1_11105_18206">
<rect width="140" height="29.281" fill="white" transform="translate(0 15.3594)"/>
</clipPath>
</defs>
</svg>
