<svg width="576" height="480" viewBox="0 0 576 480" fill="none" xmlns="http://www.w3.org/2000/svg">
<path d="M331.111 319.974C331.111 282.304 315.438 246.183 287.537 219.547C259.637 192.911 221.801 177.948 182.344 177.948C142.892 177.948 105.05 192.911 77.1558 219.547C49.2554 246.183 33.582 282.304 33.582 319.974C33.582 357.638 49.2554 393.764 77.1558 420.395C105.05 447.031 142.892 461.994 182.344 461.994C221.801 461.994 259.637 447.031 287.537 420.395C315.438 393.764 331.111 357.638 331.111 319.974Z" fill="#6F5CC6" fill-opacity="0.11" stroke="#6F5CC6" stroke-width="5" stroke-miterlimit="3.25" stroke-linecap="square"/>
<path d="M541.504 319.974C541.504 282.304 525.83 246.183 497.93 219.547C470.035 192.911 432.194 177.948 392.742 177.948C353.284 177.948 315.449 192.911 287.548 219.547C259.648 246.183 243.975 282.304 243.975 319.974C243.975 357.638 259.648 393.764 287.548 420.395C315.449 447.031 353.284 461.994 392.742 461.994C432.194 461.994 470.035 447.031 497.93 420.395C525.83 393.764 541.504 357.638 541.504 319.974Z" fill="#6F5CC6" fill-opacity="0.11" stroke="#6F5CC6" stroke-width="5" stroke-miterlimit="3.25" stroke-linecap="square"/>
<path d="M392.733 119.121C392.733 92.4906 381.649 66.9459 361.923 48.1138C342.191 29.2763 315.44 18.7002 287.539 18.7002C259.639 18.7002 232.887 29.2763 213.156 48.1138C193.43 66.9459 182.346 92.4906 182.346 119.121C182.346 145.757 193.43 171.302 213.156 190.134C232.887 208.966 259.639 219.547 287.539 219.547C315.44 219.547 342.191 208.966 361.923 190.134C381.649 171.302 392.733 145.757 392.733 119.121Z" fill="#6F5CC6" fill-opacity="0.11" stroke="#6F5CC6" stroke-width="5" stroke-miterlimit="3.25" stroke-linecap="square"/>
<path fill-rule="evenodd" clip-rule="evenodd" d="M293.46 219.928C293.46 218.617 292.918 217.36 291.948 216.434C290.978 215.508 289.662 214.99 288.288 214.99C286.914 214.99 285.598 215.508 284.628 216.434C283.658 217.36 283.115 218.617 283.115 219.928C283.115 221.24 283.658 222.497 284.628 223.422C285.598 224.348 286.914 224.866 288.288 224.866C289.662 224.866 290.978 224.348 291.948 223.422C292.918 222.497 293.46 221.24 293.46 219.928Z" fill="#3AA1D4"/>
<path d="M35.0859 319.973V316.584" stroke="#EBEBEB" stroke-width="5" stroke-miterlimit="3.25"/>
<path d="M56.1172 319.973V316.584" stroke="#EBEBEB" stroke-width="5" stroke-miterlimit="3.25"/>
<path d="M77.1562 319.974V314.33" stroke="#EBEBEB" stroke-width="5" stroke-miterlimit="3.25"/>
<path d="M76.108 333.812H69.1055V332.654H76.108V333.812Z" fill="#6F5CC6"/>
<path d="M82.6711 336.902H81.3719V328.999C81.0601 329.286 80.6501 329.572 80.1419 329.854C79.6338 330.14 79.1776 330.355 78.7734 330.498V329.297C79.501 328.972 80.1362 328.575 80.679 328.112C81.2217 327.649 81.6086 327.197 81.8338 326.762H82.6711V336.902Z" fill="#6F5CC6"/>
<path d="M98.1914 319.973V316.584" stroke="#EBEBEB" stroke-width="5" stroke-miterlimit="3.25"/>
<path d="M119.23 319.973V316.584" stroke="#EBEBEB" stroke-width="5" stroke-miterlimit="3.25"/>
<path d="M140.271 319.973V316.584" stroke="#EBEBEB" stroke-width="5" stroke-miterlimit="3.25"/>
<path d="M161.318 319.973V316.584" stroke="#EBEBEB" stroke-width="5" stroke-miterlimit="3.25"/>
<path d="M182.346 319.974V314.33" stroke="#EBEBEB" stroke-width="5" stroke-miterlimit="3.25"/>
<path d="M203.389 319.973V316.584" stroke="#EBEBEB" stroke-width="5" stroke-miterlimit="3.25"/>
<path d="M224.432 319.973V316.584" stroke="#EBEBEB" stroke-width="5" stroke-miterlimit="3.25"/>
<path d="M245.455 319.973V316.584" stroke="#EBEBEB" stroke-width="5" stroke-miterlimit="3.25"/>
<path d="M266.506 319.973V316.584" stroke="#EBEBEB" stroke-width="5" stroke-miterlimit="3.25"/>
<path d="M287.549 319.974V314.33" stroke="#EBEBEB" stroke-width="5" stroke-miterlimit="3.25"/>
<path d="M288.62 336.902H287.321V328.999C287.009 329.286 286.599 329.572 286.091 329.854C285.583 330.14 285.127 330.355 284.723 330.498V329.297C285.45 328.972 286.085 328.575 286.628 328.112C287.171 327.649 287.558 327.197 287.783 326.762H288.62V336.902Z" fill="#6F5CC6"/>
<path d="M308.572 319.973V316.584" stroke="#EBEBEB" stroke-width="5" stroke-miterlimit="3.25"/>
<path d="M329.615 319.973V316.584" stroke="#EBEBEB" stroke-width="5" stroke-miterlimit="3.25"/>
<path d="M350.664 319.973V316.584" stroke="#EBEBEB" stroke-width="5" stroke-miterlimit="3.25"/>
<path d="M371.699 319.973V316.584" stroke="#EBEBEB" stroke-width="5" stroke-miterlimit="3.25"/>
<path d="M392.738 319.974V314.33" stroke="#EBEBEB" stroke-width="5" stroke-miterlimit="3.25"/>
<path d="M395.733 335.712V336.902H388.742C388.73 336.605 388.782 336.318 388.892 336.043C389.071 335.585 389.354 335.139 389.746 334.698C390.139 334.257 390.705 333.75 391.444 333.166C392.592 332.267 393.372 331.557 393.776 331.027C394.18 330.504 394.382 330.008 394.382 329.539C394.382 329.049 394.197 328.63 393.828 328.294C393.464 327.958 392.979 327.787 392.39 327.787C391.767 327.787 391.265 327.969 390.889 328.327C390.514 328.685 390.324 329.181 390.318 329.815L388.984 329.683C389.077 328.735 389.417 328.007 390.018 327.511C390.612 327.01 391.415 326.762 392.419 326.762C393.435 326.762 394.238 327.032 394.826 327.566C395.421 328.106 395.715 328.773 395.715 329.567C395.715 329.969 395.629 330.366 395.456 330.757C395.282 331.149 394.994 331.557 394.596 331.992C394.191 332.422 393.528 333.017 392.592 333.767C391.813 334.389 391.311 334.814 391.091 335.04C390.872 335.26 390.687 335.486 390.543 335.712H395.733Z" fill="#6F5CC6"/>
<path d="M413.766 319.973V316.584" stroke="#EBEBEB" stroke-width="5" stroke-miterlimit="3.25"/>
<path d="M434.805 319.973V316.584" stroke="#EBEBEB" stroke-width="5" stroke-miterlimit="3.25"/>
<path d="M455.848 319.973V316.584" stroke="#EBEBEB" stroke-width="5" stroke-miterlimit="3.25"/>
<path d="M476.887 319.973V316.584" stroke="#EBEBEB" stroke-width="5" stroke-miterlimit="3.25"/>
<path d="M497.922 319.974V314.33" stroke="#EBEBEB" stroke-width="5" stroke-miterlimit="3.25"/>
<path d="M494.119 334.235L495.412 334.07C495.562 334.775 495.816 335.282 496.174 335.591C496.532 335.899 496.971 336.054 497.485 336.054C498.097 336.054 498.61 335.855 499.032 335.447C499.453 335.045 499.667 334.544 499.667 333.948C499.667 333.375 499.471 332.907 499.084 332.538C498.691 332.168 498.195 331.986 497.594 331.986C497.352 331.986 497.046 332.03 496.677 332.119L496.821 331.033C496.907 331.044 496.977 331.049 497.029 331.049C497.583 331.049 498.085 330.906 498.524 330.631C498.968 330.355 499.188 329.931 499.188 329.358C499.188 328.906 499.026 328.525 498.703 328.228C498.38 327.93 497.97 327.781 497.456 327.781C496.954 327.781 496.532 327.93 496.197 328.239C495.857 328.542 495.643 328.994 495.545 329.6L494.246 329.38C494.408 328.547 494.766 327.903 495.331 327.445C495.891 326.988 496.59 326.762 497.427 326.762C498.004 326.762 498.535 326.877 499.026 327.114C499.511 327.351 499.88 327.677 500.14 328.084C500.394 328.492 500.527 328.928 500.527 329.385C500.527 329.82 500.4 330.223 500.158 330.576C499.909 330.934 499.546 331.22 499.067 331.435C499.69 331.573 500.181 331.854 500.527 332.29C500.873 332.725 501.047 333.265 501.047 333.921C501.047 334.803 500.706 335.547 500.031 336.164C499.361 336.776 498.507 337.079 497.479 337.079C496.55 337.079 495.782 336.82 495.164 336.291C494.552 335.762 494.2 335.078 494.119 334.235Z" fill="#6F5CC6"/>
<path d="M518.973 319.973V316.584" stroke="#EBEBEB" stroke-width="5" stroke-miterlimit="3.25"/>
<path d="M540.004 319.973V316.584" stroke="#EBEBEB" stroke-width="5" stroke-miterlimit="3.25"/>
<path d="M23 319.974H552.074" stroke="#EBEBEB" stroke-width="3" stroke-miterlimit="3.25"/>
<path d="M182.346 460.566H185.897" stroke="#EBEBEB" stroke-width="5" stroke-miterlimit="3.25"/>
<path d="M182.346 440.483H185.897" stroke="#EBEBEB" stroke-width="5" stroke-miterlimit="3.25"/>
<path d="M182.346 420.395H188.257" stroke="#EBEBEB" stroke-width="5" stroke-miterlimit="3.25"/>
<path d="M167.995 420.832H160.992V419.675H167.995V420.832Z" fill="#6F5CC6"/>
<path d="M174.54 423.924H173.241V416.021C172.929 416.307 172.519 416.594 172.011 416.875C171.503 417.162 171.047 417.377 170.643 417.52V416.318C171.37 415.993 172.005 415.596 172.548 415.133C173.091 414.671 173.478 414.219 173.703 413.783H174.54V423.924Z" fill="#6F5CC6"/>
<path d="M182.346 400.312H185.897" stroke="#EBEBEB" stroke-width="5" stroke-miterlimit="3.25"/>
<path d="M182.346 380.229H185.897" stroke="#EBEBEB" stroke-width="5" stroke-miterlimit="3.25"/>
<path d="M182.346 360.141H185.897" stroke="#EBEBEB" stroke-width="5" stroke-miterlimit="3.25"/>
<path d="M182.346 340.057H185.897" stroke="#EBEBEB" stroke-width="5" stroke-miterlimit="3.25"/>
<path d="M182.346 319.974H188.257" stroke="#EBEBEB" stroke-width="5" stroke-miterlimit="3.25"/>
<path d="M182.346 299.885H185.897" stroke="#EBEBEB" stroke-width="5" stroke-miterlimit="3.25"/>
<path d="M182.346 279.803H185.897" stroke="#EBEBEB" stroke-width="5" stroke-miterlimit="3.25"/>
<path d="M182.346 259.719H185.897" stroke="#EBEBEB" stroke-width="5" stroke-miterlimit="3.25"/>
<path d="M182.346 239.631H185.897" stroke="#EBEBEB" stroke-width="5" stroke-miterlimit="3.25"/>
<path d="M182.346 219.547H188.257" stroke="#EBEBEB" stroke-width="5" stroke-miterlimit="3.25"/>
<path d="M174.54 223.074H173.241V215.171C172.929 215.458 172.519 215.744 172.011 216.025C171.503 216.312 171.047 216.527 170.643 216.67V215.469C171.37 215.144 172.005 214.747 172.548 214.284C173.091 213.821 173.478 213.369 173.703 212.934H174.54V223.074Z" fill="#6F5CC6"/>
<path d="M182.346 199.465H185.897" stroke="#EBEBEB" stroke-width="5" stroke-miterlimit="3.25"/>
<path d="M182.346 179.376H185.897" stroke="#EBEBEB" stroke-width="5" stroke-miterlimit="3.25"/>
<path d="M182.346 159.293H185.897" stroke="#EBEBEB" stroke-width="5" stroke-miterlimit="3.25"/>
<path d="M182.346 139.209H185.897" stroke="#EBEBEB" stroke-width="5" stroke-miterlimit="3.25"/>
<path d="M182.346 119.121H188.257" stroke="#EBEBEB" stroke-width="5" stroke-miterlimit="3.25"/>
<path d="M176.487 121.46V122.651H169.496C169.484 122.353 169.536 122.066 169.646 121.791C169.825 121.333 170.108 120.887 170.5 120.446C170.893 120.005 171.459 119.498 172.197 118.914C173.346 118.016 174.126 117.305 174.53 116.775C174.934 116.252 175.136 115.756 175.136 115.287C175.136 114.797 174.951 114.378 174.582 114.042C174.218 113.706 173.733 113.535 173.144 113.535C172.521 113.535 172.018 113.717 171.643 114.075C171.268 114.433 171.077 114.929 171.072 115.563L169.738 115.431C169.831 114.483 170.171 113.755 170.772 113.259C171.366 112.758 172.169 112.51 173.173 112.51C174.189 112.51 174.992 112.78 175.58 113.314C176.175 113.855 176.469 114.521 176.469 115.315C176.469 115.717 176.383 116.114 176.21 116.505C176.036 116.897 175.748 117.305 175.349 117.74C174.945 118.17 174.281 118.765 173.346 119.515C172.567 120.137 172.065 120.562 171.845 120.788C171.626 121.008 171.441 121.234 171.297 121.46H176.487Z" fill="#6F5CC6"/>
<path d="M182.346 99.0381H185.897" stroke="#EBEBEB" stroke-width="5" stroke-miterlimit="3.25"/>
<path d="M182.346 78.9551H185.897" stroke="#EBEBEB" stroke-width="5" stroke-miterlimit="3.25"/>
<path d="M182.346 58.8662H185.897" stroke="#EBEBEB" stroke-width="5" stroke-miterlimit="3.25"/>
<path d="M182.346 38.7832H185.897" stroke="#EBEBEB" stroke-width="5" stroke-miterlimit="3.25"/>
<path d="M182.346 18.7002H188.257" stroke="#EBEBEB" stroke-width="5" stroke-miterlimit="3.25"/>
<path d="M169.672 19.5582L170.965 19.3929C171.115 20.0983 171.369 20.6054 171.727 20.914C172.085 21.2226 172.524 21.377 173.037 21.377C173.649 21.377 174.163 21.1786 174.585 20.7707C175.006 20.3684 175.22 19.8669 175.22 19.2717C175.22 18.6985 175.023 18.23 174.637 17.8608C174.244 17.4915 173.748 17.3096 173.147 17.3096C172.905 17.3096 172.599 17.3537 172.229 17.4419L172.374 16.3562C172.46 16.3672 172.529 16.3727 172.581 16.3727C173.136 16.3727 173.638 16.2294 174.077 15.9539C174.521 15.6783 174.74 15.2539 174.74 14.6808C174.74 14.2288 174.579 13.8486 174.256 13.551C173.932 13.2534 173.522 13.1045 173.009 13.1045C172.506 13.1045 172.085 13.2534 171.75 13.562C171.41 13.8651 171.196 14.317 171.098 14.9233L169.799 14.7028C169.961 13.8706 170.318 13.2258 170.884 12.7684C171.444 12.3109 172.143 12.085 172.98 12.085C173.557 12.085 174.088 12.2007 174.579 12.4377C175.064 12.6747 175.433 12.9998 175.693 13.4077C175.947 13.8155 176.08 14.2509 176.08 14.7083C176.08 15.1437 175.953 15.546 175.71 15.8988C175.462 16.257 175.098 16.5436 174.619 16.7585C175.243 16.8963 175.733 17.1774 176.08 17.6128C176.426 18.0482 176.599 18.5883 176.599 19.2441C176.599 20.1259 176.259 20.8699 175.583 21.4872C174.914 22.0989 174.059 22.4021 173.032 22.4021C172.102 22.4021 171.334 22.143 170.717 21.6139C170.105 21.0849 169.753 20.4015 169.672 19.5582Z" fill="#6F5CC6"/>
<path d="M182.346 471.693V9" stroke="#EBEBEB" stroke-width="3" stroke-miterlimit="3.25"/>
</svg>
