<svg width="70" height="30" viewBox="0 0 70 30" fill="none" xmlns="http://www.w3.org/2000/svg">
<g clip-path="url(#clip0_10196_1097)">
<g clip-path="url(#clip1_10196_1097)">
<path d="M44.976 0.0129766L35.6868 0.00457656C14.8284 0.00457656 14.8284 29.9986 35.6868 29.9986L49.9584 29.9638V19.0678H36.1632C30.786 19.0678 30.786 10.9342 36.1632 10.9342L49.9584 10.9114V0.00457656L46.83 0.000976562L45.8412 0.623777C45.6696 0.458177 45.4596 0.581777 45.4116 0.611777C45.2244 0.728177 45.1404 0.862577 45.2292 1.00658C45.4764 1.40618 47.04 0.0657766 47.7084 1.14698C48.0792 1.74698 47.862 2.44418 46.8576 3.06578C46.23 3.45338 45.414 3.67658 44.9664 3.04898L46.002 2.40818C46.1844 2.51978 46.374 2.50298 46.5108 2.41178C46.6752 2.30378 46.8216 2.14298 46.6968 1.94018C46.4112 1.47818 44.9616 2.88458 44.2692 1.76738C43.812 1.03058 44.4072 0.365777 44.976 0.0129766ZM29.3232 13.801L28.314 14.425L28.0572 14.2222C27.9744 14.6218 27.8268 14.8402 27.3768 15.1186C26.7816 15.487 26.1564 15.3418 25.6452 14.5162L24.5592 12.7606L25.6464 12.0886L26.61 13.645C26.856 14.0422 27.0648 14.0866 27.3252 13.9246C27.6384 13.7302 27.5856 13.4218 27.3084 12.9754L26.4504 11.5918L27.5376 10.9198L29.3232 13.801ZM28.0296 10.615L29.0268 9.99698L29.2884 10.2046C29.2872 9.72818 29.7876 9.37178 30.09 9.24578C30.4092 9.09698 30.786 9.13778 31.0656 9.35258C31.1028 8.45018 31.7436 8.19218 31.926 8.11058C32.6436 7.79378 33.084 8.15138 33.516 8.84858L34.572 10.5538L33.4848 11.227L32.5776 9.75698C32.3304 9.35858 32.1408 9.20498 31.8444 9.38978C31.5252 9.58778 31.6428 9.91898 31.8576 10.2646L32.7396 11.6902L31.6524 12.3634L30.7428 10.8946C30.4812 10.4698 30.318 10.3366 30.0096 10.5274C29.6904 10.7242 29.808 11.0542 30.0228 11.401L30.9048 12.8266L29.8176 13.4986L28.0296 10.615ZM40.3572 6.97298L38.5728 4.08938L39.66 3.41738L41.4444 6.30098L40.3572 6.97298ZM37.8408 2.90618L38.928 2.23418L39.432 3.04898L38.3448 3.72218L37.8408 2.90618ZM40.2396 3.05858L41.2332 2.44418L41.5524 2.66018C41.5956 2.13098 41.9352 1.84058 42.342 1.66538C42.9792 1.39298 43.4964 1.66058 43.9356 2.36978L45.0048 4.09778L43.9176 4.76978L42.9744 3.24578C42.7932 2.95418 42.5712 2.74898 42.2592 2.94218C41.9244 3.14978 41.976 3.42938 42.204 3.79898L43.1124 5.26778L42.0252 5.94098L40.2396 3.05858ZM24.6096 16.7146C21.6804 18.5278 19.0296 14.2966 21.96 12.4834L23.2908 11.6686L23.976 12.7762L22.8072 13.4938C21.3492 14.3926 22.6944 16.3786 24.06 15.5206L25.23 14.803L25.9152 15.9106L24.6096 16.7146ZM33.2568 7.38098L34.254 6.76298L34.5156 6.97058C34.5156 6.49418 35.016 6.13778 35.3172 6.01178C35.6376 5.86418 36.012 5.90498 36.2928 6.11858C36.33 5.21618 36.9708 4.95818 37.152 4.87658C37.8696 4.55978 38.3112 4.91618 38.742 5.61458L39.798 7.31978L38.7108 7.99178L37.8036 6.52298C37.5564 6.12458 37.368 5.97098 37.0692 6.15578C36.75 6.35378 36.8676 6.68378 37.0824 7.03058L37.9644 8.45618L36.8772 9.12818L35.9688 7.65938C35.7072 7.23578 35.544 7.10258 35.2344 7.29218C34.9152 7.49018 35.0328 7.82018 35.2476 8.16698L36.1296 9.59258L35.0436 10.2646L33.2568 7.38098Z" fill="#E6E7F5"/>
</g>
</g>
<defs>
<clipPath id="clip0_10196_1097">
<rect width="70" height="30" fill="white"/>
</clipPath>
<clipPath id="clip1_10196_1097">
<rect width="29.916" height="30" fill="white" transform="translate(20.043)"/>
</clipPath>
</defs>
</svg>
