<svg width="70" height="30" viewBox="0 0 70 30" fill="none" xmlns="http://www.w3.org/2000/svg">
<g clip-path="url(#clip0_10196_988)">
<g clip-path="url(#clip1_10196_988)">
<g clip-path="url(#clip2_10196_988)">
<path d="M37.4438 4.78906V8.39734H26.5938V12.7228H37.4438V16.261H26.5938V21.4998H37.4438V25.1613H22.4336V4.78906H37.4438Z" fill="#E6E7F5"/>
<path d="M52.2214 6.36628C51.0056 5.31574 49.3752 4.78906 47.3273 4.78906H38.4551V25.1613H42.6853V17.8354H47.0079C49.2659 17.8354 51.0028 17.3368 52.2186 16.3423C53.4345 15.3478 54.0424 13.6473 54.0424 11.2408C54.0452 9.04167 53.4373 7.41403 52.2214 6.36628ZM48.9942 13.594C48.4367 14.0815 47.6551 14.3252 46.6521 14.3252H42.6853V8.3273H46.6521C47.6551 8.3273 48.4367 8.55422 48.9942 9.00526C49.5517 9.45629 49.829 10.2127 49.829 11.2716C49.829 12.3306 49.5488 13.1066 48.9942 13.594Z" fill="#E6E7F5"/>
<path d="M62.7869 4.78906H57.9768L50.707 25.1613H55.1585L56.5677 20.9731H64.07L65.3839 25.1613H70.0007L62.7869 4.78906ZM57.7135 17.4629L60.3384 9.44789L62.8822 17.4629H57.7135Z" fill="#E6E7F5"/>
<path d="M9.99545 7.67739C8.95611 7.67739 8.11287 8.52063 8.11287 9.55997C8.11287 10.308 8.5471 10.9355 9.18023 11.2408L3.43164 11.2465C3.46806 7.65218 6.39278 4.74707 9.99545 4.74707C13.5981 4.74707 16.5256 7.65218 16.5593 11.2465L10.8135 11.238C11.4438 10.9355 11.8808 10.3052 11.8808 9.55717C11.878 8.52063 11.0376 7.67739 9.99545 7.67739C9.99825 7.67739 9.99825 7.67739 9.99545 7.67739ZM9.99545 17.9139C13.1023 17.9139 15.6936 15.7484 16.3744 12.8517C16.3744 13.1991 15.7048 13.482 14.8168 13.482C13.9287 13.482 13.2087 13.1991 13.2087 12.8517C13.2087 13.1991 12.4888 13.482 11.6007 13.482C10.7126 13.482 9.99265 13.1991 9.99265 12.8517C9.99265 13.1991 9.27268 13.482 8.38462 13.482C7.49655 13.482 6.77658 13.1991 6.77658 12.8517C6.77658 13.1991 6.05661 13.482 5.16854 13.482C4.28048 13.482 3.61093 13.1991 3.61093 12.8517C4.30009 15.7484 6.89144 17.9139 9.99545 17.9139Z" fill="#E6E7F5"/>
<path d="M9.9956 24.8113C9.49134 16.2584 0 15.2051 0 15.2051C1.23544 25.7526 9.58378 25.2735 9.9956 25.2427C10.4074 25.2735 18.7558 25.7526 19.9912 15.2051C19.994 15.2051 10.5027 16.2584 9.9956 24.8113Z" fill="#E6E7F5"/>
</g>
</g>
</g>
<defs>
<clipPath id="clip0_10196_988">
<rect width="70" height="30" fill="white"/>
</clipPath>
<clipPath id="clip1_10196_988">
<rect width="70" height="30" fill="white"/>
</clipPath>
<clipPath id="clip2_10196_988">
<rect width="70" height="20.5067" fill="white" transform="translate(0 4.74707)"/>
</clipPath>
</defs>
</svg>
