<svg width="140" height="60" viewBox="0 0 140 60" fill="none" xmlns="http://www.w3.org/2000/svg">
<g clip-path="url(#clip0_11105_18914)">
<path d="M74.8876 9.57617V16.7927H53.1875V25.4436H74.8876V32.5201H53.1875V42.9976H74.8876V50.3206H44.8672V9.57617H74.8876Z" fill="#0071BC"/>
<path d="M104.447 12.7306C102.015 10.6295 98.7542 9.57617 94.6585 9.57617H76.9141V50.3206H85.3745V35.6689H94.0198C98.5357 35.6689 102.01 34.6716 104.441 32.6826C106.873 30.6936 108.089 27.2926 108.089 22.4797C108.094 18.0814 106.878 14.8261 104.447 12.7306ZM97.9922 27.1861C96.8772 28.161 95.314 28.6485 93.3082 28.6485H85.3745V16.6527H93.3082C95.314 16.6527 96.8772 17.1065 97.9922 18.0086C99.1072 18.9106 99.6619 20.4234 99.6619 22.5413C99.6619 24.6592 99.1016 26.2112 97.9922 27.1861Z" fill="#0071BC"/>
<path d="M125.574 9.57617H115.954L101.414 50.3206H110.317L113.135 41.9442H128.14L130.768 50.3206H140.001L125.574 9.57617ZM115.427 34.9238L120.677 18.8938L125.764 34.9238H115.427Z" fill="#0071BC"/>
<path d="M19.9948 15.3528C17.9161 15.3528 16.2297 17.0393 16.2297 19.118C16.2297 20.614 17.0981 21.869 18.3644 22.4797L6.86719 22.4909C6.94003 15.3024 12.7895 9.49219 19.9948 9.49219C27.2002 9.49219 33.0552 15.3024 33.1224 22.4909L21.6309 22.4741C22.8915 21.869 23.7656 20.6084 23.7656 19.1124C23.76 17.0393 22.0791 15.3528 19.9948 15.3528C20.0004 15.3528 20.0004 15.3528 19.9948 15.3528ZM19.9948 35.8259C26.2084 35.8259 31.3911 31.4948 32.7526 25.7014C32.7526 26.3962 31.4136 26.9621 29.6374 26.9621C27.8613 26.9621 26.4214 26.3962 26.4214 25.7014C26.4214 26.3962 24.9814 26.9621 23.2053 26.9621C21.4292 26.9621 19.9892 26.3962 19.9892 25.7014C19.9892 26.3962 18.5493 26.9621 16.7731 26.9621C14.997 26.9621 13.5571 26.3962 13.5571 25.7014C13.5571 26.3962 12.1171 26.9621 10.341 26.9621C8.56487 26.9621 7.22577 26.3962 7.22577 25.7014C8.60409 31.4948 13.7868 35.8259 19.9948 35.8259Z" fill="#0071BC"/>
<path d="M19.9912 49.6206C18.9827 32.5149 0 30.4082 0 30.4082C2.47088 51.5032 19.1676 50.5451 19.9912 50.4834C20.8148 50.5451 37.5115 51.5032 39.9824 30.4082C39.988 30.4082 21.0053 32.5149 19.9912 49.6206Z" fill="#0071BC"/>
</g>
<defs>
<clipPath id="clip0_11105_18914">
<rect width="140" height="41.0133" fill="white" transform="translate(0 9.49219)"/>
</clipPath>
</defs>
</svg>
