<svg width="140" height="42" viewBox="0 0 140 42" fill="none" xmlns="http://www.w3.org/2000/svg">
<g clip-path="url(#clip0_11105_18915)">
<path d="M74.8876 0.0839844V7.30054H53.1875V15.9514H74.8876V23.0279H53.1875V33.5054H74.8876V40.8284H44.8672V0.0839844H74.8876Z" fill="#0071BC"/>
<path d="M104.447 3.23842C102.015 1.13733 98.7542 0.0839844 94.6585 0.0839844H76.9141V40.8284H85.3745V26.1768H94.0198C98.5357 26.1768 102.01 25.1794 104.441 23.1904C106.873 21.2014 108.089 17.8004 108.089 12.9875C108.094 8.58921 106.878 5.33391 104.447 3.23842ZM97.9922 17.6939C96.8772 18.6688 95.314 19.1563 93.3082 19.1563H85.3745V7.16046H93.3082C95.314 7.16046 96.8772 7.6143 97.9922 8.51637C99.1072 9.41844 99.6619 10.9312 99.6619 13.0491C99.6619 15.167 99.1016 16.719 97.9922 17.6939Z" fill="#0071BC"/>
<path d="M125.574 0.0839844H115.954L101.414 40.8284H110.317L113.135 32.452H128.14L130.768 40.8284H140.001L125.574 0.0839844ZM115.427 25.4316L120.677 9.40163L125.764 25.4316H115.427Z" fill="#0071BC"/>
<path d="M19.9948 5.86065C17.9161 5.86065 16.2297 7.54713 16.2297 9.62581C16.2297 11.1218 17.0981 12.3768 18.3644 12.9876L6.86719 12.9988C6.94003 5.81022 12.7895 0 19.9948 0C27.2002 0 33.0552 5.81022 33.1224 12.9988L21.6309 12.982C22.8915 12.3768 23.7656 11.1162 23.7656 9.6202C23.76 7.54712 22.0791 5.86065 19.9948 5.86065C20.0004 5.86065 20.0004 5.86065 19.9948 5.86065ZM19.9948 26.3337C26.2084 26.3337 31.3911 22.0026 32.7526 16.2092C32.7526 16.904 31.4136 17.4699 29.6374 17.4699C27.8613 17.4699 26.4214 16.904 26.4214 16.2092C26.4214 16.904 24.9814 17.4699 23.2053 17.4699C21.4292 17.4699 19.9892 16.904 19.9892 16.2092C19.9892 16.904 18.5493 17.4699 16.7731 17.4699C14.997 17.4699 13.5571 16.904 13.5571 16.2092C13.5571 16.904 12.1171 17.4699 10.341 17.4699C8.56487 17.4699 7.22577 16.904 7.22577 16.2092C8.60409 22.0026 13.7868 26.3337 19.9948 26.3337Z" fill="#0071BC"/>
<path d="M19.9912 40.1284C18.9827 23.0227 0 20.916 0 20.916C2.47088 42.011 19.1676 41.0529 19.9912 40.9913C20.8148 41.0529 37.5115 42.011 39.9824 20.916C39.988 20.916 21.0053 23.0227 19.9912 40.1284Z" fill="#0071BC"/>
</g>
<defs>
<clipPath id="clip0_11105_18915">
<rect width="140" height="41.0133" fill="white"/>
</clipPath>
</defs>
</svg>
