<svg width="48" height="15" viewBox="0 0 48 15" fill="none" xmlns="http://www.w3.org/2000/svg">
<g clip-path="url(#clip0_11091_17619)">
<path d="M11.9284 5.63023C11.3559 7.68192 9.54274 9.11333 7.39563 9.16104C5.24851 9.11333 3.43539 7.68192 2.86282 5.63023C3.14911 5.96422 3.57853 6.10736 4.00795 6.10736C4.43737 6.10736 4.8668 5.96422 5.15308 5.63023C5.43937 5.96422 5.86879 6.10736 6.29821 6.10736C6.72763 6.10736 7.15706 5.96422 7.44334 5.63023C7.72963 5.96422 8.15905 6.10736 8.58847 6.10736C9.01789 6.10736 9.44731 5.96422 9.7336 5.63023C10.0199 5.96422 10.4493 6.10736 10.8787 6.10736C11.3082 6.10736 11.6421 5.96422 11.9284 5.63023ZM11.9761 4.58052C11.9761 2.05169 9.92445 0 7.39563 0C4.8668 0 2.81511 2.05169 2.81511 4.58052H6.91849C6.39364 4.38967 6.05964 3.91252 6.05964 3.33996C6.05964 2.62425 6.67992 2.00398 7.39563 2.00398C8.11133 2.00398 8.73161 2.62425 8.73161 3.33996C8.73161 3.86481 8.39762 4.38967 7.92048 4.58052H11.9761ZM7.68191 14.7436C7.77734 10.831 10.831 7.44335 14.7435 7.30021C14.7435 11.2604 11.6421 14.505 7.68191 14.7436ZM7.10934 14.7436C7.01391 10.831 3.96024 7.44335 0 7.30021C0.0477137 11.2604 3.1491 14.505 7.10934 14.7436ZM25.3837 0.334002H16.0795V14.4095H25.3837V12.2147H18.9901V8.44533H25.3837V6.20278H18.9901V2.48112H25.3837V0.334002ZM28.8668 6.20278H31.7296C32.6839 6.20278 33.3519 5.29623 33.3519 4.34195C33.3996 3.38768 32.6839 2.62426 31.7773 2.52884H29.1054V14.4095H26.0994V0.334002H32.6839C34.831 0.334002 36.4056 2.19483 36.4056 4.34195C36.4056 6.48907 34.831 8.44533 32.6839 8.44533H28.8668V6.20278ZM33.3996 14.4095H36.5487L37.9324 10.6879H43.6581L42.7992 8.3499H38.7435L40.7475 3.00597L44.8986 14.4095H48L42.4175 0.334002H38.839L33.3996 14.4095Z" fill="#0071BC"/>
</g>
<defs>
<clipPath id="clip0_11091_17619">
<rect width="48" height="14.7435" fill="white"/>
</clipPath>
</defs>
</svg>
