<svg width="70" height="30" viewBox="0 0 70 30" fill="none" xmlns="http://www.w3.org/2000/svg">
<g clip-path="url(#clip0_11110_19714)">
<mask id="mask0_11110_19714" style="mask-type:luminance" maskUnits="userSpaceOnUse" x="0" y="0" width="70" height="30">
<path d="M70 0H0V30H70V0Z" fill="white"/>
</mask>
<g mask="url(#mask0_11110_19714)">
<mask id="mask1_11110_19714" style="mask-type:luminance" maskUnits="userSpaceOnUse" x="0" y="0" width="70" height="30">
<path d="M70 0H0V30H70V0Z" fill="white"/>
</mask>
<g mask="url(#mask1_11110_19714)">
<mask id="mask2_11110_19714" style="mask-type:luminance" maskUnits="userSpaceOnUse" x="0" y="4" width="70" height="22">
<path d="M70 4.74609H0V25.2528H70V4.74609Z" fill="white"/>
</mask>
<g mask="url(#mask2_11110_19714)">
<path d="M37.4438 4.78711V8.39539H26.5938V12.7208H37.4438V16.259H26.5938V21.4978H37.4438V25.1593H22.4336V4.78711H37.4438Z" fill="#0071BC"/>
<path d="M52.2214 6.36433C51.0056 5.31379 49.3752 4.78711 47.3273 4.78711H38.4551V25.1593H42.6853V17.8334H47.0079C49.2659 17.8334 51.0028 17.3348 52.2186 16.3403C53.4345 15.3458 54.0424 13.6453 54.0424 11.2388C54.0452 9.03972 53.4373 7.41208 52.2214 6.36433ZM48.9942 13.592C48.4367 14.0795 47.6551 14.3232 46.6521 14.3232H42.6853V8.32535H46.6521C47.6551 8.32535 48.4367 8.55227 48.9942 9.00331C49.5517 9.45434 49.829 10.2107 49.829 11.2696C49.829 12.3286 49.5488 13.1046 48.9942 13.592Z" fill="#0071BC"/>
<path d="M62.7869 4.78711H57.9768L50.707 25.1593H55.1585L56.5677 20.9711H64.07L65.3839 25.1593H70.0007L62.7869 4.78711ZM57.7135 17.4609L60.3384 9.44594L62.8822 17.4609H57.7135Z" fill="#0071BC"/>
<path d="M9.99545 7.67641C8.95611 7.67641 8.11287 8.51965 8.11287 9.55899C8.11287 10.307 8.5471 10.9345 9.18023 11.2398L3.43164 11.2455C3.46806 7.6512 6.39278 4.74609 9.99545 4.74609C13.5981 4.74609 16.5256 7.6512 16.5593 11.2455L10.8135 11.237C11.4438 10.9345 11.8808 10.3042 11.8808 9.55619C11.878 8.51965 11.0376 7.67641 9.99545 7.67641C9.99825 7.67641 9.99825 7.67641 9.99545 7.67641ZM9.99545 17.9129C13.1023 17.9129 15.6936 15.7474 16.3744 12.8507C16.3744 13.1981 15.7048 13.481 14.8168 13.481C13.9287 13.481 13.2087 13.1981 13.2087 12.8507C13.2087 13.1981 12.4888 13.481 11.6007 13.481C10.7126 13.481 9.99265 13.1981 9.99265 12.8507C9.99265 13.1981 9.27268 13.481 8.38462 13.481C7.49655 13.481 6.77658 13.1981 6.77658 12.8507C6.77658 13.1981 6.05661 13.481 5.16854 13.481C4.28048 13.481 3.61093 13.1981 3.61093 12.8507C4.30009 15.7474 6.89144 17.9129 9.99545 17.9129Z" fill="#0071BC"/>
<path d="M9.9956 24.8113C9.49134 16.2584 0 15.2051 0 15.2051C1.23544 25.7526 9.58378 25.2735 9.9956 25.2427C10.4074 25.2735 18.7558 25.7526 19.9912 15.2051C19.994 15.2051 10.5027 16.2584 9.9956 24.8113Z" fill="#0071BC"/>
</g>
</g>
</g>
</g>
<defs>
<clipPath id="clip0_11110_19714">
<rect width="70" height="30" fill="white"/>
</clipPath>
</defs>
</svg>
