<svg width="180" height="120" viewBox="0 0 180 120" fill="none" xmlns="http://www.w3.org/2000/svg">
<g clip-path="url(#clip0_11105_18911)">
<g clip-path="url(#clip1_11105_18911)">
<path d="M94.8876 39.5762V46.7927H73.1875V55.4436H94.8876V62.5201H73.1875V72.9976H94.8876V80.3206H64.8672V39.5762H94.8876Z" fill="#0071BC"/>
<path d="M124.447 42.7306C122.015 40.6295 118.754 39.5762 114.658 39.5762H96.9141V80.3206H105.374V65.6689H114.02C118.536 65.6689 122.01 64.6716 124.441 62.6826C126.873 60.6936 128.089 57.2926 128.089 52.4797C128.094 48.0814 126.878 44.8261 124.447 42.7306ZM117.992 57.1861C116.877 58.161 115.314 58.6485 113.308 58.6485H105.374V46.6527H113.308C115.314 46.6527 116.877 47.1065 117.992 48.0086C119.107 48.9106 119.662 50.4234 119.662 52.5413C119.662 54.6592 119.102 56.2112 117.992 57.1861Z" fill="#0071BC"/>
<path d="M145.574 39.5762H135.954L121.414 80.3206H130.317L133.135 71.9442H148.14L150.768 80.3206H160.001L145.574 39.5762ZM135.427 64.9238L140.677 48.8938L145.764 64.9238H135.427Z" fill="#0071BC"/>
<path d="M39.9948 45.3528C37.9161 45.3528 36.2297 47.0393 36.2297 49.118C36.2297 50.614 37.0981 51.869 38.3644 52.4797L26.8672 52.4909C26.94 45.3024 32.7895 39.4922 39.9948 39.4922C47.2002 39.4922 53.0552 45.3024 53.1224 52.4909L41.6309 52.4741C42.8915 51.869 43.7656 50.6084 43.7656 49.1124C43.76 47.0393 42.0791 45.3528 39.9948 45.3528C40.0004 45.3528 40.0004 45.3528 39.9948 45.3528ZM39.9948 65.8259C46.2084 65.8259 51.3911 61.4948 52.7526 55.7014C52.7526 56.3962 51.4136 56.9621 49.6374 56.9621C47.8613 56.9621 46.4214 56.3962 46.4214 55.7014C46.4214 56.3962 44.9814 56.9621 43.2053 56.9621C41.4292 56.9621 39.9892 56.3962 39.9892 55.7014C39.9892 56.3962 38.5493 56.9621 36.7731 56.9621C34.997 56.9621 33.5571 56.3962 33.5571 55.7014C33.5571 56.3962 32.1171 56.9621 30.341 56.9621C28.5649 56.9621 27.2258 56.3962 27.2258 55.7014C28.6041 61.4948 33.7868 65.8259 39.9948 65.8259Z" fill="#0071BC"/>
<path d="M39.9912 79.6206C38.9827 62.5149 20 60.4082 20 60.4082C22.4709 81.5032 39.1676 80.5451 39.9912 80.4834C40.8148 80.5451 57.5115 81.5032 59.9824 60.4082C59.988 60.4082 41.0053 62.5149 39.9912 79.6206Z" fill="#0071BC"/>
</g>
</g>
<defs>
<clipPath id="clip0_11105_18911">
<rect width="140" height="60" fill="white" transform="translate(20 30)"/>
</clipPath>
<clipPath id="clip1_11105_18911">
<rect width="140" height="41.0133" fill="white" transform="translate(20 39.4922)"/>
</clipPath>
</defs>
</svg>
