<svg width="70" height="30" viewBox="0 0 70 30" fill="none" xmlns="http://www.w3.org/2000/svg">
<g clip-path="url(#clip0_10196_1144)">
<g clip-path="url(#clip1_10196_1144)">
<g clip-path="url(#clip2_10196_1144)">
<path d="M58.7431 11.5046L58.7655 12.4314L58.8663 12.5098C59.4599 12.549 59.9947 12.4454 60.5435 12.549C60.5855 12.7282 60.6051 12.997 60.5155 13.1762L58.8271 13.193L58.7599 13.3162L58.7991 15.9538C58.8299 16.1554 59.0175 16.301 59.1967 16.3934C59.6055 16.7322 60.9215 15.9986 60.5967 17.057C60.5743 17.1242 60.5071 17.1326 60.4511 17.155C59.6475 17.1466 58.6843 17.3146 58.1999 16.5838C58.0795 16.3598 58.0375 16.1022 58.0067 15.8446L57.9787 13.263C57.8471 13.0838 57.5083 13.291 57.4215 13.0782C57.4579 12.8878 57.3263 12.5966 57.5391 12.521C57.6959 12.4902 57.9171 12.6022 57.9871 12.4258C58.0011 12.1122 57.9591 11.779 58.0403 11.499C58.2083 11.443 58.5331 11.4038 58.7431 11.5046ZM69.9963 12.5546C69.9487 12.7338 70.0915 13.0474 69.8675 13.0894C69.1619 13.1258 68.3359 13.0614 67.9831 13.739C67.6919 14.8534 67.9271 15.839 67.8151 17.0346C67.6471 17.1438 67.3447 17.0738 67.1431 17.0822L67.0871 17.0486C67.0563 15.559 67.0535 14.0694 67.0787 12.5798C67.2467 12.4482 67.5603 12.5182 67.7843 12.5322C67.8403 12.6778 67.8151 12.7898 67.8571 12.9578C67.9915 12.9158 68.1287 12.7366 68.2855 12.661C68.7587 12.3866 69.3943 12.451 69.9543 12.4566L69.9963 12.5546Z" fill="#E6E7F5"/>
<path d="M44.2398 13.3054C44.3602 13.5518 44.4358 13.8542 44.4106 14.1454L44.3434 14.2126C44.0998 14.1874 43.8954 14.2406 43.663 14.1594C43.5874 13.9018 43.5566 13.5434 43.2458 13.395C42.389 13.0954 41.1598 13.1262 40.2302 13.3194C39.883 13.4146 39.6002 13.7814 39.561 14.1398C39.519 14.8762 39.3398 15.8814 40.0622 16.335C40.8182 16.601 41.759 16.531 42.5962 16.5086C42.9658 16.4806 43.3466 16.3826 43.5622 16.0494C43.6882 15.873 43.6462 15.6042 43.7694 15.4474C44.0158 15.4838 44.2622 15.3858 44.4498 15.5202C44.4666 16.069 44.2818 16.671 43.7302 16.9314C42.7642 17.3234 41.5042 17.175 40.3758 17.1638C39.8522 17.0686 39.3062 16.9286 39.0094 16.4218C38.5502 15.523 38.5418 14.1258 39.043 13.2494C39.925 12.219 41.4202 12.5606 42.739 12.541C43.3102 12.6362 43.9458 12.709 44.2398 13.3054Z" fill="#E6E7F5"/>
<path d="M32.2805 12.5264C32.3897 12.6944 32.3085 12.9296 32.3309 13.1312L32.2301 13.1844C31.5581 13.2656 30.7573 13.0892 30.3569 13.7332C30.1973 13.9768 30.1945 14.3016 30.1469 14.59L30.1189 17.1268L30.0517 17.1828L29.4161 17.1772L29.3489 17.0988C29.3405 15.6148 29.3489 14.1336 29.3741 12.6496C29.5869 12.5852 29.8333 12.6328 30.0685 12.6244C30.1805 12.6916 30.0629 13.162 30.2981 12.9856C30.7937 12.4424 31.5637 12.5628 32.2805 12.5264Z" fill="#E6E7F5"/>
<path d="M28.6125 12.644C28.6405 14.1756 28.6685 15.6624 28.6069 17.1688C28.3717 17.1772 28.0917 17.2528 27.9013 17.1604C27.8817 16.9812 27.8369 16.8916 27.8621 16.7012L27.8061 16.6564C26.9577 17.5188 25.5773 17.2472 24.4153 17.222C23.9925 17.1184 23.5221 17.0344 23.2813 16.5948C22.8697 15.4384 23.0965 14.1 23.0545 12.8036C23.0237 12.6356 23.1665 12.6496 23.2813 12.6272C23.4605 12.6524 23.6957 12.5656 23.8049 12.7112L23.8497 15.7968C23.9029 16.032 24.0569 16.2448 24.2669 16.4044C25.0901 16.7152 26.2101 16.6256 27.0613 16.4352C27.3749 16.3372 27.7585 16.0404 27.8173 15.696C27.8957 14.7356 27.8621 13.5624 27.8817 12.6804C28.0889 12.5824 28.3885 12.63 28.6125 12.644Z" fill="#E6E7F5"/>
<path d="M61.6007 15.0021L66.4615 14.9657L66.5511 14.8873C66.5903 14.4393 66.5035 14.0165 66.3971 13.5769C66.1815 12.8937 65.4255 12.4933 64.6975 12.4961C63.3675 12.5381 61.6847 12.1069 60.9343 13.3389C60.6011 14.2853 60.5311 15.5257 61.0127 16.4133C61.4103 16.9425 62.0459 17.0937 62.6815 17.1357C63.8099 17.0909 65.1707 17.3737 66.1059 16.7129C66.4111 16.4469 66.5147 16.1025 66.5203 15.7105C66.3523 15.5957 66.1059 15.6629 65.8959 15.6489C65.6831 15.6797 65.7587 15.9373 65.6467 16.0605C65.3863 16.4273 64.9383 16.4105 64.5351 16.4721C63.7175 16.4749 62.8243 16.5533 62.0655 16.2901C61.6875 16.1165 61.5587 15.7245 61.5167 15.3549C61.5447 15.2121 61.4551 15.0777 61.6007 15.0021ZM62.0767 13.3305C62.9951 13.0393 64.0563 13.1513 65.0167 13.2829C65.2379 13.3445 65.4283 13.4817 65.5599 13.6693C65.6579 13.8373 65.6887 14.0613 65.6635 14.2517C64.3111 14.3273 62.9699 14.3217 61.5839 14.2741C61.5699 13.9045 61.6959 13.5041 62.0767 13.3305Z" fill="#E6E7F5"/>
<path d="M57.1932 13.4447C56.9104 12.7699 56.2076 12.5739 55.5272 12.4983C54.5668 12.4871 53.5952 12.3555 52.6992 12.6467C52.5424 12.7363 52.394 12.8567 52.226 12.9435L52.1896 12.5011C51.9208 12.4983 51.7388 12.4983 51.4336 12.4983L51.4392 18.5575H52.1896L52.184 16.7879L52.2848 16.7095C52.7048 17.1603 53.3404 17.1239 53.934 17.1631C55.0512 17.0847 56.356 17.4123 57.0616 16.3931C57.5264 15.5363 57.5068 14.3519 57.1932 13.4447ZM56.3168 16.0263C56.034 16.4043 55.586 16.3987 55.1716 16.4491C54.368 16.4631 53.4832 16.5191 52.7608 16.2895C52.016 15.8247 52.184 14.7971 52.2596 14.0495C52.3184 13.7023 52.5788 13.3719 52.926 13.2739C53.8892 13.1619 54.9392 13.0835 55.8884 13.3047C56.076 13.3747 56.2776 13.5091 56.3868 13.7107C56.636 14.3995 56.6696 15.3711 56.3168 16.0263Z" fill="#E6E7F5"/>
<path d="M50.611 13.2854C49.9754 12.2046 48.553 12.5602 47.4022 12.4678C46.5762 12.5266 45.613 12.5266 45.1454 13.3498C44.7562 14.229 44.787 15.4582 45.1482 16.3346C45.5878 17.1886 46.6266 17.1662 47.419 17.197C48.4466 17.141 49.6198 17.3118 50.4206 16.6034C51.1122 15.713 51.0366 14.271 50.611 13.2854ZM49.7206 16.1582C49.1578 16.5334 48.399 16.4466 47.727 16.4718C47.0802 16.4662 46.2178 16.5782 45.8566 15.8922C45.641 15.1754 45.5962 14.2122 46.005 13.557C46.6014 13.0614 47.4498 13.2042 48.2226 13.1566C48.8582 13.1874 49.5862 13.1258 49.925 13.7446C50.1294 14.4642 50.2414 15.5478 49.7206 16.1582Z" fill="#E6E7F5"/>
<path d="M38.06 13.4394C37.4804 12.2382 36.0132 12.6022 34.8512 12.5098C34.0896 12.6246 33.188 12.5126 32.6532 13.1902C32.0736 14.089 32.1352 15.475 32.5496 16.4074C32.8016 16.8358 33.2468 17.0514 33.692 17.1466C35.022 17.1942 36.5956 17.4574 37.696 16.7546C38.5136 15.9034 38.4268 14.4698 38.06 13.4394ZM37.2256 16.077C36.7384 16.6202 35.96 16.4326 35.288 16.525C34.574 16.4718 33.7116 16.665 33.2832 16.0098C33.0228 15.3042 32.9332 14.2402 33.3868 13.585C33.8712 13.1538 34.6076 13.263 35.246 13.2042C35.9936 13.235 36.856 13.0754 37.2956 13.739C37.5448 14.4614 37.5784 15.3882 37.2256 16.077Z" fill="#E6E7F5"/>
<path d="M17.5223 15.1049L22.3495 15.0909L22.5063 15.0601C22.6127 14.5029 22.4755 13.9317 22.2655 13.4473C21.5963 12.3105 20.1179 12.6409 18.9111 12.5625C18.2167 12.6325 17.4915 12.6465 16.9931 13.2233C16.4471 14.1445 16.4555 15.4409 16.8587 16.4293C17.1975 17.0593 17.9227 17.2133 18.6031 17.2525C19.7091 17.2777 20.8823 17.3785 21.8483 16.9865C22.2767 16.7569 22.5371 16.2781 22.4867 15.7965L21.7839 15.7769C21.6915 15.9981 21.6439 16.2445 21.4087 16.3873C20.4119 16.7569 19.1939 16.5973 18.1551 16.4741C17.7855 16.4041 17.5335 16.0205 17.4607 15.6845C17.4187 15.5165 17.3543 15.2141 17.5223 15.1049ZM17.5923 13.8533C17.9339 13.2541 18.6591 13.2849 19.2975 13.2457C20.0899 13.3549 21.0979 13.0749 21.5599 13.8393C21.6019 14.0073 21.7111 14.2425 21.6103 14.3993L17.5531 14.4217C17.4075 14.2873 17.5559 14.0325 17.5923 13.8533Z" fill="#E6E7F5"/>
<path d="M14.5489 11.2051C12.7597 8.03552 9.07773 6.57672 5.58053 7.56792C3.09133 8.19792 0.764527 10.6339 0.221327 13.1287C0.198927 13.2071 0.145727 13.3191 0.198927 13.3863L11.2561 13.3975L11.3597 13.4507C11.3709 13.5291 11.3149 13.6075 11.2561 13.6607L7.85973 13.6747L0.193327 13.6803L0.114927 13.7111C-0.134273 15.1251 0.0281268 16.6371 0.540527 17.8719C1.50653 20.5319 4.25613 22.4835 7.00293 22.7131C10.0633 22.9595 12.8381 21.5483 14.4425 18.9275C15.8285 16.7407 15.8537 13.4451 14.5489 11.2051ZM4.83293 13.8539H6.80133C6.79013 13.8931 6.61653 14.1059 6.54373 14.2431H4.56413C4.63413 14.1059 4.76013 13.9463 4.83293 13.8539ZM3.54493 16.8863L0.985727 16.8919L0.929727 16.8583L2.05533 15.1951C2.53133 14.6295 3.16973 14.4671 3.88653 14.4783L11.5305 14.4755C11.6733 14.4195 11.8189 14.2851 11.9001 14.1423L12.6365 13.1007C13.0285 13.0979 13.1545 13.1035 13.6641 13.0895V13.1903C13.1657 13.7447 12.9809 14.7051 12.1521 14.8283H5.57773C4.43813 14.9263 4.25613 16.2255 3.54493 16.8863ZM13.8265 14.9655C13.4989 15.3435 13.0733 15.4387 12.6057 15.4471L8.03613 15.4387C7.51813 15.5535 7.45653 16.1247 7.09533 16.4355C6.40653 17.1019 5.24453 16.8247 3.88373 16.8975V16.8023C4.42693 16.2255 4.63973 15.1643 5.55533 15.0775H12.1381C13.1797 14.9067 13.3701 13.7335 14.0253 13.0923C14.3921 13.0531 14.7085 13.0755 15.0529 13.0699L15.0865 13.1035L13.8265 14.9655Z" fill="#E6E7F5"/>
</g>
</g>
</g>
<defs>
<clipPath id="clip0_10196_1144">
<rect width="70" height="30" fill="white"/>
</clipPath>
<clipPath id="clip1_10196_1144">
<rect width="70" height="30" fill="white"/>
</clipPath>
<clipPath id="clip2_10196_1144">
<rect width="70" height="15.4812" fill="white" transform="translate(0 7.25977)"/>
</clipPath>
</defs>
</svg>
