<svg width="70" height="30" viewBox="0 0 70 30" fill="none" xmlns="http://www.w3.org/2000/svg">
<g clip-path="url(#clip0_10196_1006)">
<g clip-path="url(#clip1_10196_1006)">
<g clip-path="url(#clip2_10196_1006)">
<path fill-rule="evenodd" clip-rule="evenodd" d="M27.4133 10.9502H29.3499V11.6115C29.5577 11.432 30.2284 10.7896 31.466 10.7896C32.9239 10.7896 34.0827 11.8666 34.0827 13.5575V17.9439H32.0359V14.0991C32.0359 13.1576 31.5762 12.5971 30.7449 12.5971C29.9388 12.5971 29.4538 13.123 29.4538 14.0991V17.9439H27.4102V10.9502H27.4133ZM48.9014 14.4455C48.9014 13.4788 49.6257 12.6853 50.627 12.6853C51.6315 12.6853 52.3526 13.4788 52.3526 14.4455C52.3526 15.4122 51.6315 16.2058 50.627 16.2058C49.6225 16.2058 48.9014 15.4122 48.9014 14.4455ZM46.883 14.4455C46.883 16.4608 48.4984 18.1014 50.6144 18.1014C52.7305 18.1014 54.3459 16.464 54.3459 14.4455C54.3459 12.4271 52.7273 10.7896 50.6144 10.7896C48.4984 10.7896 46.883 12.4302 46.883 14.4455ZM20.829 14.4455C20.829 13.4788 21.5501 12.6853 22.5546 12.6853C23.5591 12.6853 24.2802 13.4788 24.2802 14.4455C24.2802 15.4122 23.5591 16.2058 22.5546 16.2058C21.5501 16.2089 20.829 15.4122 20.829 14.4455ZM18.8105 14.4455C18.8105 16.4608 20.4259 18.1014 22.542 18.1014C24.6581 18.1014 26.2734 16.464 26.2734 14.4455C26.2734 12.4271 24.6549 10.7896 22.542 10.7896C20.4259 10.7896 18.8105 12.4302 18.8105 14.4455ZM64.2554 10.9502H66.3274V17.9408H64.2554V10.9502ZM64.2554 8.39648H66.3274V10.1756H64.2554V8.39648ZM67.9271 8.39648H69.999V17.9408H67.9271V8.39648ZM60.9522 14.4424C60.9522 15.428 60.1965 16.1932 59.2078 16.1932C58.2064 16.1932 57.4538 15.4311 57.4538 14.4455C57.4538 13.4505 58.2159 12.6947 59.2078 12.6947C60.206 12.6979 60.9522 13.4599 60.9522 14.4424ZM57.5074 17.9408L57.5294 17.4023C57.6742 17.5125 58.3135 18.1014 59.6549 18.1014C61.4183 18.1014 63.0526 16.5238 63.0526 14.4455C63.0526 12.3672 61.5191 10.7865 59.6769 10.7865C58.2725 10.7865 57.627 11.432 57.5294 11.5013V8.39648H55.5424V17.9408H57.5074Z" fill="#E6E7F5"/>
<path fill-rule="evenodd" clip-rule="evenodd" d="M6.76068 17.9408L10.0198 13.8598L7.1354 10.9471H9.99775L11.2762 12.2665L13.6284 9.23724H16.0279L12.5861 13.5827L13.9276 14.9304L17.0261 10.9534H19.4318L15.2407 16.2498L20.5655 21.603H17.6622L13.9559 17.8306L11.9879 20.3812H9.5821L12.6554 16.5332L11.3108 15.1729L9.15699 17.9408H6.76068ZM0 8.39648H6.2852V10.1756H2.1381V12.1531H6.09941V13.8787H2.1381V16.1585H6.2852V17.9408H0V8.39648ZM35.7211 8.39648H39.103L40.6964 15.365H40.7688L42.4031 8.39648H45.6874V17.9408H43.6752V10.7361H43.5839L41.8111 17.9439H39.5533L37.8214 10.7361H37.7301V17.9439H35.7179V8.39648H35.7211Z" fill="#E6E7F5"/>
</g>
</g>
</g>
<defs>
<clipPath id="clip0_10196_1006">
<rect width="70" height="30" fill="white"/>
</clipPath>
<clipPath id="clip1_10196_1006">
<rect width="70" height="30" fill="white"/>
</clipPath>
<clipPath id="clip2_10196_1006">
<rect width="70" height="13.2065" fill="white" transform="translate(0 8.39648)"/>
</clipPath>
</defs>
</svg>
