<svg width="180" height="120" viewBox="0 0 180 120" fill="none" xmlns="http://www.w3.org/2000/svg">
<g clip-path="url(#clip0_11105_18929)">
<g clip-path="url(#clip1_11105_18929)">
<path fill-rule="evenodd" clip-rule="evenodd" d="M74.8306 51.9005H78.7037V53.223C79.1194 52.864 80.4608 51.5793 82.9358 51.5793C85.8517 51.5793 88.1693 53.7331 88.1693 57.1151V65.8879H84.0757V58.1983C84.0757 56.3152 83.1563 55.1942 81.4936 55.1942C79.8814 55.1942 78.9116 56.246 78.9116 58.1983V65.8879H74.8243V51.9005H74.8306ZM117.807 58.891C117.807 56.9576 119.255 55.3706 121.258 55.3706C123.267 55.3706 124.709 56.9576 124.709 58.891C124.709 60.8245 123.267 62.4115 121.258 62.4115C119.249 62.4115 117.807 60.8245 117.807 58.891ZM113.77 58.891C113.77 62.9216 117.001 66.2028 121.233 66.2028C125.465 66.2028 128.696 62.9279 128.696 58.891C128.696 54.8541 125.459 51.5793 121.233 51.5793C117.001 51.5793 113.77 54.8604 113.77 58.891ZM61.6619 58.891C61.6619 56.9576 63.1041 55.3706 65.1131 55.3706C67.1221 55.3706 68.5643 56.9576 68.5643 58.891C68.5643 60.8245 67.1221 62.4115 65.1131 62.4115C63.1041 62.4178 61.6619 60.8245 61.6619 58.891ZM57.625 58.891C57.625 62.9216 60.8558 66.2028 65.0879 66.2028C69.32 66.2028 72.5508 62.9279 72.5508 58.891C72.5508 54.8541 69.3137 51.5793 65.0879 51.5793C60.8558 51.5793 57.625 54.8604 57.625 58.891ZM148.515 51.9005H152.659V65.8816H148.515V51.9005ZM148.515 46.793H152.659V50.3512H148.515V46.793ZM155.858 46.793H160.002V65.8816H155.858V46.793ZM141.908 58.8847C141.908 60.8559 140.397 62.3863 138.419 62.3863C136.417 62.3863 134.912 60.8622 134.912 58.891C134.912 56.9009 136.436 55.3895 138.419 55.3895C140.416 55.3958 141.908 56.9198 141.908 58.8847ZM135.019 65.8816L135.063 64.8047C135.352 65.0251 136.631 66.2028 139.314 66.2028C142.84 66.2028 146.109 63.0476 146.109 58.891C146.109 54.7345 143.042 51.573 139.358 51.573C136.549 51.573 135.258 52.864 135.063 53.0026V46.793H131.089V65.8816H135.019Z" fill="#ED1B2F"/>
<path fill-rule="evenodd" clip-rule="evenodd" d="M33.5214 65.8816L40.0396 57.7196L34.2708 51.8942H39.9955L42.5524 54.533L47.2569 48.4745H52.0558L45.1723 57.1654L47.8551 59.8609L54.0522 51.9068H58.8637L50.4813 62.4997L61.1309 73.2059H55.3243L47.9118 65.6612L43.9757 70.7624H39.1642L45.3108 63.0665L42.6217 60.3458L38.314 65.8816H33.5214ZM20 46.793H32.5704V50.3512H24.2762V54.3062H32.1988V57.7574H24.2762V62.317H32.5704V65.8816H20V46.793ZM91.4422 46.793H98.206L101.393 60.73H101.538L104.806 46.793H111.375V65.8816H107.35V51.4722H107.168L103.622 65.8879H99.1066L95.6428 51.4722H95.4602V65.8879H91.4359V46.793H91.4422Z" fill="#ED1B2F"/>
</g>
</g>
<defs>
<clipPath id="clip0_11105_18929">
<rect width="140" height="60" fill="white" transform="translate(20 30)"/>
</clipPath>
<clipPath id="clip1_11105_18929">
<rect width="140" height="26.413" fill="white" transform="translate(20 46.793)"/>
</clipPath>
</defs>
</svg>
