<svg width="140" height="60" viewBox="0 0 140 60" fill="none" xmlns="http://www.w3.org/2000/svg">
<g clip-path="url(#clip0_11105_18931)">
<g clip-path="url(#clip1_11105_18931)">
<path fill-rule="evenodd" clip-rule="evenodd" d="M54.8306 21.9005H58.7037V23.223C59.1194 22.864 60.4608 21.5793 62.9358 21.5793C65.8517 21.5793 68.1693 23.7331 68.1693 27.1151V35.8879H64.0757V28.1983C64.0757 26.3152 63.1563 25.1942 61.4936 25.1942C59.8814 25.1942 58.9116 26.246 58.9116 28.1983V35.8879H54.8243V21.9005H54.8306ZM97.8067 28.891C97.8067 26.9576 99.2552 25.3706 101.258 25.3706C103.267 25.3706 104.709 26.9576 104.709 28.891C104.709 30.8245 103.267 32.4115 101.258 32.4115C99.2489 32.4115 97.8067 30.8245 97.8067 28.891ZM93.7699 28.891C93.7699 32.9216 97.0006 36.2028 101.233 36.2028C105.465 36.2028 108.696 32.9279 108.696 28.891C108.696 24.8541 105.459 21.5793 101.233 21.5793C97.0006 21.5793 93.7699 24.8604 93.7699 28.891ZM41.6619 28.891C41.6619 26.9576 43.1041 25.3706 45.1131 25.3706C47.1221 25.3706 48.5643 26.9576 48.5643 28.891C48.5643 30.8245 47.1221 32.4115 45.1131 32.4115C43.1041 32.4178 41.6619 30.8245 41.6619 28.891ZM37.625 28.891C37.625 32.9216 40.8558 36.2028 45.0879 36.2028C49.32 36.2028 52.5508 32.9279 52.5508 28.891C52.5508 24.8541 49.3137 21.5793 45.0879 21.5793C40.8558 21.5793 37.625 24.8604 37.625 28.891ZM128.515 21.9005H132.659V35.8816H128.515V21.9005ZM128.515 16.793H132.659V20.3512H128.515V16.793ZM135.858 16.793H140.002V35.8816H135.858V16.793ZM121.908 28.8847C121.908 30.8559 120.397 32.3863 118.419 32.3863C116.417 32.3863 114.912 30.8622 114.912 28.891C114.912 26.9009 116.436 25.3895 118.419 25.3895C120.416 25.3958 121.908 26.9198 121.908 28.8847ZM115.019 35.8816L115.063 34.8047C115.352 35.0251 116.631 36.2028 119.314 36.2028C122.84 36.2028 126.109 33.0476 126.109 28.891C126.109 24.7345 123.042 21.573 119.358 21.573C116.549 21.573 115.258 22.864 115.063 23.0026V16.793H111.089V35.8816H115.019Z" fill="#ED1B2F"/>
<path fill-rule="evenodd" clip-rule="evenodd" d="M13.5214 35.8816L20.0396 27.7196L14.2708 21.8942H19.9955L22.5524 24.533L27.2569 18.4745H32.0558L25.1723 27.1654L27.8551 29.8609L34.0522 21.9068H38.8637L30.4813 32.4997L41.1309 43.2059H35.3243L27.9118 35.6612L23.9757 40.7624H19.1642L25.3108 33.0665L22.6217 30.3458L18.314 35.8816H13.5214ZM0 16.793H12.5704V20.3512H4.2762V24.3062H12.1988V27.7574H4.2762V32.317H12.5704V35.8816H0V16.793ZM71.4422 16.793H78.206L81.3927 30.73H81.5376L84.8061 16.793H91.3747V35.8816H87.3504V21.4722H87.1678L83.6221 35.8879H79.1066L75.6428 21.4722H75.4602V35.8879H71.4359V16.793H71.4422Z" fill="#ED1B2F"/>
</g>
</g>
<defs>
<clipPath id="clip0_11105_18931">
<rect width="140" height="60" fill="white"/>
</clipPath>
<clipPath id="clip1_11105_18931">
<rect width="140" height="26.413" fill="white" transform="translate(0 16.793)"/>
</clipPath>
</defs>
</svg>
