<svg width="48" height="9" viewBox="0 0 48 9" fill="none" xmlns="http://www.w3.org/2000/svg">
<g clip-path="url(#clip0_11094_17127)">
<path fill-rule="evenodd" clip-rule="evenodd" d="M47.8122 6.27721L47.9084 6.02539H48.0015V6.36788H47.9409V6.08944H47.9391L47.8319 6.36788H47.7905L47.6833 6.08944H47.6815V6.36788H47.6209V6.02539H47.714L47.8122 6.27721ZM47.5609 6.0753H47.4555V6.36788H47.3947V6.0753H47.2891V6.02546H47.5608L47.5609 6.0753Z" fill="black"/>
<path fill-rule="evenodd" clip-rule="evenodd" d="M18.336 1.70811H19.6305V2.15022C19.7696 2.02888 20.2179 1.59961 21.0468 1.59961C22.022 1.59961 22.7969 2.31962 22.7969 3.45013V6.38377H21.4289V3.81317C21.4289 3.18356 21.1223 2.80953 20.566 2.80953C20.0267 2.80953 19.7026 3.16185 19.7026 3.81317V6.38363H18.3359L18.336 1.70811Z" fill="#ED1B2F"/>
<path fill-rule="evenodd" clip-rule="evenodd" d="M32.7082 4.0458C32.7082 3.39926 33.1915 2.86852 33.8628 2.86852C34.5344 2.86852 35.0168 3.39926 35.0168 4.0458C35.0168 4.6922 34.5344 5.22294 33.8628 5.22294C33.1915 5.22294 32.7082 4.6922 32.7082 4.0458ZM31.3594 4.0458C31.3594 5.39446 32.4401 6.48987 33.8537 6.48987C35.2684 6.48987 36.3483 5.39446 36.3483 4.0458C36.3483 2.69741 35.2684 1.59961 33.8537 1.59961C32.4402 1.59961 31.3594 2.69741 31.3594 4.0458Z" fill="#ED1B2F"/>
<path fill-rule="evenodd" clip-rule="evenodd" d="M13.9356 4.04594C13.9356 3.39953 14.4186 2.86866 15.0895 2.86866C15.7609 2.86866 16.2438 3.39953 16.2438 4.04594C16.2438 4.69234 15.7609 5.22363 15.0895 5.22363C14.4186 5.22363 13.9356 4.69234 13.9356 4.04594ZM12.5859 4.04621C12.5859 5.39487 13.6667 6.49029 15.0807 6.49029C16.495 6.49029 17.5754 5.39487 17.5754 4.04621C17.5754 2.69782 16.495 1.59961 15.0807 1.59961C13.6667 1.59961 12.5859 2.69782 12.5859 4.04621Z" fill="#ED1B2F"/>
<path fill-rule="evenodd" clip-rule="evenodd" d="M42.9766 1.70809H44.3624V6.38368H42.9766V1.70809ZM42.9766 0H44.3624V1.18971H42.9766V0Z" fill="#ED1B2F"/>
<path fill-rule="evenodd" clip-rule="evenodd" d="M45.4297 0H46.8156V6.38361H45.4297V0Z" fill="#ED1B2F"/>
<path fill-rule="evenodd" clip-rule="evenodd" d="M40.7679 4.04305C40.7679 4.7025 40.2619 5.2146 39.6002 5.2146C38.9309 5.2146 38.4279 4.70386 38.4279 4.04626C38.4279 3.38053 38.9374 2.87574 39.6015 2.87574C40.2692 2.87574 40.7679 3.38531 40.7679 4.04305ZM38.4632 6.38361L38.4773 6.02378C38.5738 6.09684 39.002 6.49054 39.8986 6.49054C41.0775 6.49054 42.171 5.43432 42.171 4.04619C42.171 2.65567 41.1447 1.59959 39.914 1.59959C38.9738 1.59959 38.5431 2.03064 38.4772 2.07891V0H37.1484V6.38361H38.4632Z" fill="#ED1B2F"/>
<path fill-rule="evenodd" clip-rule="evenodd" d="M4.52344 6.38421L6.70327 3.65596L4.7745 1.70869H6.68927L7.54414 2.59031L9.11792 0.564453H10.7231L8.41778 3.46791L9.31511 4.36907L11.3873 1.70869H12.9966L10.1924 5.25145L13.7529 8.83163H11.8116L9.33423 6.31061L8.01766 8.0163H6.40912L8.46509 5.44216L7.56653 4.53294L6.12637 6.38421H4.52344Z" fill="#ED1B2F"/>
<path fill-rule="evenodd" clip-rule="evenodd" d="M0 0H4.20412V1.18971H1.42998V2.5129H4.07917V3.66724H1.42998V5.1922H4.20412V6.38361H0V0Z" fill="#ED1B2F"/>
<path fill-rule="evenodd" clip-rule="evenodd" d="M23.8906 0H26.1512L27.2175 4.65982H27.2658L28.3599 0H30.556V6.38361H29.2112V1.56361H29.1499L27.9651 6.38361H26.4544L25.2971 1.56361H25.2364V6.38361H23.8906V0Z" fill="#ED1B2F"/>
</g>
<defs>
<clipPath id="clip0_11094_17127">
<rect width="48" height="8.83103" fill="white"/>
</clipPath>
</defs>
</svg>
