<svg width="70" height="30" viewBox="0 0 70 30" fill="none" xmlns="http://www.w3.org/2000/svg">
<g clip-path="url(#clip0_10196_1161)">
<g clip-path="url(#clip1_10196_1161)">
<g clip-path="url(#clip2_10196_1161)">
<path d="M35.0006 0C26.7297 0 20 6.72974 20 15.0006C20 23.2715 26.7297 30 35.0006 30C43.2715 30 50 23.2715 50 15.0006C50 6.72974 43.2715 0 35.0006 0ZM35.0006 29.6763C26.8954 29.6763 20.3249 23.1059 20.3249 15.0006C20.3249 6.89536 26.8954 0.324919 35.0006 0.324919C43.1059 0.324919 49.6763 6.89536 49.6763 15.0006C49.6763 23.1059 43.1059 29.6763 35.0006 29.6763Z" fill="#E6E7F5"/>
<path d="M24.6084 9.47696L24.3998 9.38087L24.0458 10.1496L23.3252 9.81578L23.6792 9.04837L23.4719 8.95228L23.1166 9.7197L22.578 9.47063L22.932 8.70322L22.7272 8.6084L22.2695 9.59959L24.1508 10.4681L24.6084 9.47696Z" fill="#E6E7F5"/>
<path d="M30.4535 4.09272L30.6924 3.97514L28.8984 2.45801L29.0046 4.8045L29.2436 4.68693L29.2057 3.9979L29.9314 3.64137L30.4535 4.09272ZM29.1778 3.76653L29.1386 2.93717L29.7708 3.47575L29.1778 3.76653Z" fill="#E6E7F5"/>
<path d="M23.712 11.7767L22.7309 11.4834L22.9749 10.673L22.7549 10.6072L22.5122 11.4176L21.9432 11.2469L22.186 10.4365L21.9698 10.3721L21.6562 11.4176L23.6399 12.0131L23.712 11.7767Z" fill="#E6E7F5"/>
<path d="M24.9277 8.88277L25.2058 8.48326C25.398 8.20765 25.5472 7.98008 25.532 7.67539C25.5181 7.37575 25.3538 7.11026 25.0491 6.89786C24.7444 6.68546 24.4359 6.62225 24.1502 6.71327C23.8467 6.80936 23.6761 7.05463 23.4548 7.37196L23.2285 7.69814L24.9277 8.88277ZM24.8784 8.54015L23.556 7.61976L23.647 7.48954C23.8505 7.19749 23.9959 6.99774 24.2134 6.94084C24.4283 6.88142 24.6597 6.93326 24.8999 7.10141C25.1401 7.26829 25.2728 7.47437 25.2905 7.69056C25.3108 7.9156 25.1717 8.11915 24.9694 8.40993L24.8784 8.54015Z" fill="#E6E7F5"/>
<path d="M26.0412 24.9344L26.6443 23.1758L24.8945 24.4995L25.0741 24.66L26.2081 23.7852L25.6936 25.3238L27.1639 24.6411L26.4205 25.8662L26.6 26.0267L27.7227 24.143L26.0412 24.9344Z" fill="#E6E7F5"/>
<path d="M23.0989 16.8022L22.5704 16.213L22.9674 15.5278L22.243 15.8489L21.7145 15.2598L21.7967 16.0474L21.0723 16.3685L21.846 16.5342L21.9282 17.3218L22.3252 16.6366L23.0989 16.8022Z" fill="#E6E7F5"/>
<path d="M25.7742 22.6105C25.7755 22.2919 25.5947 22.0542 25.3595 21.7458L25.1193 21.4297L23.4707 22.6851L23.7653 23.072C23.9688 23.3387 24.1408 23.5511 24.4341 23.6295C24.7236 23.7079 25.027 23.6333 25.3216 23.4083C25.6174 23.1845 25.7729 22.9089 25.7742 22.6105ZM25.1686 23.1934C24.936 23.3704 24.6996 23.4336 24.4872 23.3843C24.2672 23.3337 24.1155 23.139 23.9006 22.8583L23.8032 22.7319L25.0852 21.7559L25.1825 21.8823C25.3987 22.1655 25.5429 22.3653 25.5315 22.589C25.5226 22.8115 25.4013 23.0164 25.1686 23.1934Z" fill="#E6E7F5"/>
<path d="M22.2031 20.3737L22.3245 20.6114L23.0123 20.5634L23.3789 21.284L22.9364 21.8125L23.0578 22.0502L24.5484 20.2334L22.2031 20.3737ZM23.2335 20.5229L24.0616 20.4711L23.5319 21.1108L23.2335 20.5229Z" fill="#E6E7F5"/>
<path d="M27.2949 26.4642L27.501 26.5995L28.6401 24.8699L28.4353 24.7334L27.2949 26.4642Z" fill="#E6E7F5"/>
<path d="M45.1871 8.53553C45.1075 8.8162 45.1403 9.11837 45.2794 9.37501C45.4185 9.63293 45.6536 9.82636 45.933 9.91359C46.2086 10.0008 46.5083 9.97175 46.7611 9.83142C47.0178 9.69614 47.2074 9.46098 47.2858 9.18158C47.3642 8.89965 47.3301 8.59748 47.1897 8.34084C47.0519 8.08419 46.818 7.89075 46.5399 7.80225C46.2579 7.71376 45.9672 7.74283 45.708 7.88317C45.4475 8.02603 45.2668 8.25107 45.1871 8.53553ZM46.4842 8.03362C46.703 8.09683 46.88 8.24096 46.9887 8.44198C47.0974 8.643 47.1202 8.86804 47.0544 9.08802C46.9887 9.30801 46.842 9.48627 46.6372 9.59626C46.4337 9.70625 46.2086 9.72901 45.9887 9.66453C45.7712 9.60258 45.5879 9.45593 45.4817 9.25617C45.373 9.05768 45.3502 8.82379 45.4185 8.60886C45.4867 8.38761 45.6258 8.21314 45.8306 8.10315C46.0304 7.99316 46.2668 7.96788 46.4842 8.03362Z" fill="#E6E7F5"/>
<path d="M36.5171 2.6448L37.3162 2.7687L37.4856 3.4375L37.7498 3.47796L37.1493 1.20605L35.8926 3.1897L36.1555 3.23016L36.5171 2.6448ZM37.0633 1.73579L37.2732 2.53987L36.6195 2.43872L37.0633 1.73579Z" fill="#E6E7F5"/>
<path d="M46.0078 10.7585L46.0786 10.9962L47.5705 10.555L46.425 12.4602L48.4908 11.8521L48.42 11.6157L46.9118 12.0607L48.0736 10.1504L46.0078 10.7585Z" fill="#E6E7F5"/>
<path d="M43.3496 6.67681L44.6429 5.37334L45.0576 5.78549L45.2232 5.61861L44.2169 4.62109L44.0512 4.78671L44.4672 5.19887L43.1738 6.5036L43.3496 6.67681Z" fill="#E6E7F5"/>
<path d="M44.3321 7.81186L45.9668 6.53747L45.8151 6.34277L44.1816 7.61716L44.3321 7.81186Z" fill="#E6E7F5"/>
<path d="M40.2989 2.14423L40.0473 2.05826L38.9613 3.36173L38.8981 1.66507L38.6465 1.5791L38.7767 3.89905L40.2989 2.14423Z" fill="#E6E7F5"/>
<path d="M42.6518 5.97854L43.155 3.68262L41.1309 4.87357L41.3471 5.03034L41.9387 4.67507L42.5924 5.15044L42.4381 5.82304L42.6518 5.97854ZM42.1183 4.53727L42.8338 4.115L42.653 4.9254L42.1183 4.53727Z" fill="#E6E7F5"/>
<path d="M41.4934 2.73878L41.2747 2.625L40.3164 4.46199L40.5339 4.57578L41.4934 2.73878Z" fill="#E6E7F5"/>
<path d="M27.0325 6.30892L26.8694 6.14963L26.2777 6.75395L25.71 6.2002L26.3004 5.59461L26.1374 5.43404L25.5457 6.03963L25.1209 5.62495L25.7126 5.01936L25.5507 4.86133L24.7871 5.64391L26.2688 7.09025L27.0325 6.30892Z" fill="#E6E7F5"/>
<path d="M31.6699 28.3993L31.9089 28.4562L32.388 26.4397L32.1478 26.3828L31.6699 28.3993Z" fill="#E6E7F5"/>
<path d="M33.8396 26.8319C33.9862 26.8458 34.0912 26.9381 34.1658 27.1024L34.3807 26.9924C34.2998 26.7775 34.1253 26.6536 33.8775 26.6296C33.5336 26.5967 33.277 26.7927 33.2492 27.0809C33.2251 27.3312 33.3402 27.5234 33.6031 27.665L33.8434 27.7965C34.0482 27.909 34.1417 28.0557 34.124 28.2403C34.1025 28.4653 33.9217 28.6082 33.6739 28.5841C33.4666 28.5639 33.3377 28.421 33.301 28.1631L33.0684 28.2516C33.1164 28.5652 33.3275 28.7599 33.6537 28.7915C34.052 28.8307 34.339 28.6018 34.3756 28.2238C34.4009 27.9646 34.2833 27.7611 34.0242 27.6195L33.7422 27.4615C33.5627 27.3629 33.483 27.2503 33.4969 27.1037C33.5134 26.9254 33.6562 26.8142 33.8396 26.8319Z" fill="#E6E7F5"/>
<path d="M36.5606 26.6523L35.1484 26.751L35.1649 26.9861L35.749 26.9444L35.8779 28.7763L36.1232 28.7586L35.9942 26.9267L36.5783 26.8862L36.5606 26.6523Z" fill="#E6E7F5"/>
<path d="M38.1267 27.4363C38.4807 27.3503 38.6274 27.1304 38.5477 26.8004C38.4997 26.6032 38.3884 26.4603 38.2506 26.3983C38.1039 26.3326 37.956 26.3629 37.7639 26.4085L37.291 26.5235L37.779 28.5375L38.018 28.4793L37.7853 27.5185L37.8132 27.5122L38.7803 28.2948L39.0838 28.2214L38.0825 27.4477L38.1267 27.4363ZM37.7424 27.3326L37.5793 26.66L37.7563 26.6171C38.0736 26.5399 38.2405 26.5602 38.3113 26.8522C38.3796 27.1316 38.2342 27.2138 37.9194 27.2897L37.7424 27.3326Z" fill="#E6E7F5"/>
<path d="M42.0594 24.7151L41.9343 24.5166L40.7383 25.2764L40.8634 25.4749L41.3578 25.1614L42.3426 26.7114L42.5513 26.5786L41.5664 25.0286L42.0594 24.7151Z" fill="#E6E7F5"/>
<path d="M42.6332 23.9463L42.4434 24.1035L43.765 25.6995L43.9549 25.5422L42.6332 23.9463Z" fill="#E6E7F5"/>
<path d="M45.4683 22.4725C45.2508 22.2803 44.9638 22.1868 44.6743 22.2121C44.3822 22.2386 44.113 22.3777 43.922 22.6002C43.7311 22.8214 43.6338 23.1072 43.6502 23.3992C43.6679 23.6938 43.7981 23.9555 44.0219 24.1489C44.2457 24.3424 44.5213 24.4309 44.8159 24.4043C45.1067 24.379 45.3772 24.2412 45.5681 24.02C45.759 23.7975 45.8577 23.5105 45.84 23.2172C45.8235 22.9289 45.6895 22.6596 45.4683 22.4725ZM45.3924 23.8594C45.2457 24.0314 45.0346 24.135 44.8096 24.1489C44.5845 24.1666 44.3607 24.0933 44.1901 23.9441C44.0169 23.7962 43.9094 23.5851 43.893 23.3575C43.874 23.1312 43.9461 22.915 44.0965 22.7405C44.2432 22.5699 44.4518 22.4637 44.6768 22.4498C44.9057 22.4333 45.1244 22.5066 45.3001 22.6584C45.4758 22.8101 45.577 23.0124 45.5934 23.2412C45.6111 23.4738 45.5403 23.6887 45.3924 23.8594Z" fill="#E6E7F5"/>
<path d="M45.856 19.6934L45.7397 19.9108L47.1279 20.6504L44.9609 21.1991L46.8599 22.2118L46.9762 21.9943L45.6032 21.2623L47.755 20.706L45.856 19.6934Z" fill="#E6E7F5"/>
<path d="M32.1729 3.28219L31.4232 3.50597L30.8973 1.74609L30.6621 1.81689L31.2551 3.80181L32.2399 3.50723L32.1729 3.28219Z" fill="#E6E7F5"/>
<path d="M48.2039 16.0474L48.2848 15.2598L47.7563 15.8489L47.0319 15.5278L47.4289 16.213L46.9004 16.8022L47.6741 16.6366L48.0711 17.3218L48.1533 16.5342L48.927 16.3685L48.2039 16.0474Z" fill="#E6E7F5"/>
<path d="M39.8611 27.9662L40.1039 27.8562L40.0887 27.1672L40.8258 26.8347L41.3327 27.3025L41.5755 27.1925L39.832 25.6172L39.8611 27.9662ZM40.6702 26.664L40.0685 26.9358L40.0558 26.1052L40.6702 26.664Z" fill="#E6E7F5"/>
<path d="M30.3779 27.4978L29.6383 25.3877L28.7988 27.3701L29.0264 27.4662L29.632 26.0337L30.3792 28.1274L31.2174 26.145L30.9911 26.0489L30.3779 27.4978Z" fill="#E6E7F5"/>
<path d="M27.48 4.67772C27.7733 4.459 27.8213 4.19982 27.6178 3.928C27.4964 3.76491 27.3371 3.67768 27.1867 3.67388C27.0261 3.67135 26.9022 3.75606 26.7442 3.87364L26.3535 4.16442L27.5912 5.82568L27.7885 5.67902L27.1981 4.88632L27.2208 4.86862L28.4168 5.20871L28.6684 5.0216L27.4446 4.703L27.48 4.67772ZM27.236 4.62335L27.0893 4.73208L26.6759 4.1758L26.8226 4.06707C27.0855 3.87111 27.2448 3.82433 27.4256 4.06581C27.5963 4.29591 27.4964 4.42866 27.236 4.62335Z" fill="#E6E7F5"/>
<path d="M42.7831 15.2518C42.7047 19.3543 39.4391 22.6819 35.339 22.8362L35.2189 24.3735C40.2482 24.2585 44.2977 20.185 44.3773 15.1468L42.7831 15.2518ZM27.302 14.7119C27.4246 12.1884 28.7837 9.9671 30.7472 8.64467C31.6359 8.05551 32.6372 7.65347 33.6879 7.46636C33.6322 7.26281 33.5387 6.7609 33.8674 6.43345C34.0596 6.24128 34.2998 6.15784 34.5438 6.19703C34.6487 6.21346 34.7473 6.25139 34.8396 6.30955C34.7612 6.1591 34.65 6.02888 34.5122 5.929C34.4831 5.90877 34.4755 5.86832 34.497 5.83797C34.4995 5.83545 34.5021 5.83165 34.5046 5.82912C34.5058 5.82786 34.5766 5.75706 34.674 5.62305C29.689 5.79372 25.6926 9.85331 25.623 14.8624L27.302 14.7119ZM35.8877 5.85188C35.9029 5.86452 35.9105 5.88349 35.9092 5.90372C35.9079 5.92268 35.8978 5.94164 35.8826 5.95302C35.8801 5.95429 35.6804 6.10094 35.5565 6.31587C35.6538 6.26403 35.7689 6.2299 35.9016 6.2299C36.1873 6.2299 36.4705 6.39931 36.6071 6.65217C36.7436 6.90376 36.7234 7.20213 36.554 7.49797C37.4491 7.6775 38.3063 8.01253 39.0851 8.4879C40.2811 8.36273 40.6136 8.12378 40.6174 8.12126C40.8512 8.02011 41.003 8.00241 41.0535 8.07574C41.1016 8.14528 41.0535 8.24263 40.8892 8.4133C40.7387 8.56881 40.4442 8.68007 40.0927 8.75845C40.0977 8.81155 40.0864 8.86591 40.0598 8.91143C40.0231 8.97464 39.9738 9.03027 39.9157 9.07452C41.6288 10.4614 42.6693 12.5134 42.7767 14.7145L44.3786 14.8485C44.304 9.97342 40.5099 5.9998 35.7082 5.64201C35.7638 5.72292 35.8245 5.79499 35.8877 5.85188ZM34.8598 22.84C34.2366 22.8248 33.6171 22.7375 33.014 22.5795C32.6562 22.4784 32.306 22.3557 31.9647 22.2103C31.0607 21.8172 30.2389 21.2558 29.5448 20.5567C29.249 20.2583 28.9734 19.9397 28.7231 19.6021C28.2047 18.855 27.814 18.0281 27.5675 17.1532C27.3956 16.5173 27.3033 15.8637 27.2932 15.205L25.623 15.095C25.6749 20.2216 29.8407 24.3634 34.9762 24.3761L34.8598 22.84Z" fill="#E6E7F5"/>
<path d="M37.0307 15.4975C37.0206 15.4963 37.0104 15.4963 37.0016 15.4988L35.8637 15.5747L35.2695 15.0449H43.8729L37.0307 15.4975Z" stroke="#E6E7F5" stroke-width="0.050571" stroke-miterlimit="10"/>
<path d="M26.9235 15.0456H34.9276L34.3599 15.5374L26.9235 15.0456ZM32.4471 14.373C32.5166 14.6284 32.5786 14.8257 32.6076 14.9154H26.4102L32.4471 14.373Z" stroke="#E6E7F5" stroke-width="0.050571" stroke-miterlimit="10"/>
<path d="M35.3606 7.1065C35.3593 7.11282 35.3581 7.11914 35.3581 7.12546V8.8158L35.2607 8.83603V7.1419C35.31 7.05593 35.3758 6.98007 35.4542 6.91939C35.4124 6.97628 35.3808 7.03949 35.3606 7.1065ZM35.133 7.21523V8.86511L35.0117 8.89418V7.31005C35.0117 7.30373 35.0117 7.2974 35.0091 7.29108C34.9345 7.03949 34.8043 6.86881 34.621 6.78411C34.5034 6.73227 34.3745 6.71457 34.248 6.73101C34.3138 6.69308 34.3884 6.67285 34.4642 6.67285C34.9206 6.67285 35.1128 7.18362 35.1141 7.18868C35.1191 7.20005 35.1255 7.2089 35.133 7.21523Z" stroke="#E6E7F5" stroke-width="0.050571" stroke-miterlimit="10"/>
<path d="M36.8052 9.84771C38.3287 9.67704 39.1656 9.45958 39.6144 9.25098C39.6094 9.28638 39.5967 9.31925 39.5778 9.34959C39.4374 9.58348 38.8407 10.0298 36.4158 10.3863C36.3956 10.3623 36.3703 10.342 36.3438 10.3243L36.4057 10.2839C36.6497 10.1221 36.7812 9.97794 36.8052 9.84771Z" stroke="#E6E7F5" stroke-width="0.050571" stroke-miterlimit="10"/>
<path d="M35.3834 14.4329C35.391 14.4342 36.1584 14.5353 36.2936 14.9159H32.9699L32.9673 14.907C33.0799 14.9019 33.2809 14.8501 33.5944 14.6402C33.6235 14.6466 34.0243 14.7199 34.5616 14.4519C34.5692 14.4582 34.5793 14.462 34.5894 14.4632C34.8283 14.4999 35.0749 14.4911 35.3758 14.4278C35.377 14.4304 35.3796 14.4316 35.3834 14.4329ZM33.8144 14.3103C33.7904 14.18 33.6374 14.0991 33.5224 14.0549L33.5261 14.0524L33.5337 14.0536C33.559 14.0536 33.9674 14.0473 34.4352 13.8994L34.439 13.9006C34.6337 13.9133 34.8637 13.9727 34.8802 14.0384C34.8878 14.0675 34.8423 14.1358 34.6905 14.2319C34.2695 14.4961 33.9117 14.5277 33.736 14.5227C33.7992 14.4531 33.827 14.3823 33.8144 14.3103ZM33.7777 13.6377C33.7461 13.4758 33.5679 13.4 33.5476 13.3911C33.5034 13.3734 33.4187 13.3418 33.3491 13.3165C33.3858 13.2963 33.4225 13.2748 33.4579 13.2508C33.4667 13.2546 33.4768 13.2584 33.487 13.2571C33.9573 13.2192 34.4187 13.1054 34.8549 12.9221C34.8637 12.9284 34.8739 12.9335 34.8852 12.9347C35.0129 12.9474 35.286 13.0131 35.3176 13.1269C35.3379 13.1977 35.2607 13.3026 35.1027 13.4227C34.6134 13.7944 33.9648 13.8905 33.6791 13.9158C33.7613 13.8223 33.7954 13.7287 33.7777 13.6377ZM33.7095 12.8513C33.6804 12.7059 33.5363 12.6073 33.4427 12.5845C33.3808 12.5681 33.3188 12.5504 33.2569 12.5314L33.2821 12.5175C33.2897 12.5175 33.2973 12.5163 33.3049 12.5137C33.5995 12.4037 33.8814 12.2381 34.0723 12.113C34.0736 12.113 34.0748 12.1142 34.0761 12.1142C34.2114 12.137 34.4946 12.2229 34.5085 12.3494C34.5161 12.4176 34.4503 12.6073 33.712 12.9322C33.7158 12.9057 33.7145 12.8778 33.7095 12.8513ZM32.5514 12.692C32.5312 12.4075 32.5324 12.1231 32.5552 11.8386C32.602 11.8335 32.7082 11.8171 32.8485 11.7754C32.8561 11.7767 33.1861 11.8563 33.3871 11.9334C33.492 11.9739 33.5578 12.0295 33.5628 12.0813C33.5691 12.1509 33.4781 12.2482 33.3125 12.3494C33.0748 12.4935 32.8182 12.6085 32.5514 12.692Z" stroke="#E6E7F5" stroke-width="0.050571" stroke-miterlimit="10"/>
<path d="M33.6574 11.2939C33.995 11.2952 34.4855 11.361 34.5297 11.5063C34.5399 11.5405 34.5335 11.6416 34.244 11.8363C34.239 11.8414 33.9874 12.0323 33.6587 12.208C33.6827 12.1663 33.6941 12.1183 33.6903 12.0702C33.6802 11.9627 33.5917 11.8742 33.4336 11.8136C33.3123 11.7693 33.1896 11.7301 33.0645 11.6972C33.1833 11.6479 33.3135 11.5809 33.4463 11.4912C33.5512 11.4216 33.6195 11.3559 33.6574 11.2939ZM34.5474 10.7958C34.6612 10.7971 35.4919 10.7971 36.2163 10.4014C36.2188 10.4026 36.2201 10.4039 36.2226 10.4052C36.2239 10.4052 36.344 10.4507 36.3516 10.5379C36.3566 10.6024 36.3073 10.7453 35.9053 10.9804C35.1606 11.4153 34.6916 11.3989 34.6094 11.3926C34.5272 11.2977 34.3578 11.2421 34.1821 11.2092C34.3717 11.0487 34.4918 10.9121 34.5474 10.7958ZM37.0798 12.514C37.0065 12.6657 36.6942 12.9426 35.4438 13.1069C35.4426 13.1019 35.4426 13.0981 35.4413 13.093C35.3983 12.94 35.1935 12.8667 35.0468 12.8326C35.1025 12.8035 35.1594 12.7731 35.2137 12.7403C35.2238 12.7453 35.234 12.7479 35.2453 12.7466C36.1695 12.6872 36.741 12.5304 37.0937 12.3597C37.1101 12.4116 37.1051 12.4672 37.0798 12.514ZM36.5399 13.0197C36.5412 13.0197 36.6651 13.0917 36.6487 13.1727C36.6297 13.2687 36.416 13.5064 34.9002 13.7062C34.9963 13.6543 35.0898 13.5962 35.1796 13.5279C35.3161 13.4243 35.3996 13.3294 35.4324 13.2397C35.8813 13.1828 36.2479 13.1057 36.5298 13.0121C36.5336 13.0134 36.5362 13.0172 36.5399 13.0197Z" stroke="#E6E7F5" stroke-width="0.050571" stroke-miterlimit="10"/>
<path d="M35.4179 12.6068C35.5923 12.4766 35.6808 12.3552 35.6859 12.2415C36.557 12.1681 37.1284 12.024 37.5014 11.8622C37.3952 12.0569 36.9906 12.4779 35.4179 12.6068ZM34.6087 12.2528C34.5379 12.1213 34.3458 12.0493 34.2168 12.0139C34.2762 11.9722 34.3129 11.9443 34.3179 11.9406C34.5493 11.785 34.6618 11.6485 34.6606 11.5233C34.8274 11.5259 35.232 11.4892 35.825 11.1719C35.8338 11.1769 35.9703 11.2654 35.9691 11.3906C35.9678 11.4955 35.8679 11.6093 35.6783 11.7206C35.3369 11.9266 34.9792 12.1036 34.6087 12.2528ZM35.744 11.8331C35.8654 11.761 35.9552 11.6864 36.0146 11.6093C36.0197 11.6106 36.0247 11.6106 36.0298 11.6106C36.9388 11.5044 37.5911 11.3691 38.0564 11.2237C37.9894 11.4184 37.6253 11.9519 35.653 12.1138C35.6138 12.0531 35.5595 12.005 35.495 11.9747C35.5746 11.9304 35.6581 11.8837 35.744 11.8331Z" stroke="#E6E7F5" stroke-width="0.050571" stroke-miterlimit="10"/>
<path d="M39.0524 10.374C39.0562 10.4069 39.0524 10.4625 39.012 10.5333C38.8754 10.771 38.3128 11.2072 36.0852 11.4752C36.0928 11.4487 36.0978 11.4208 36.0978 11.393C36.0953 11.3071 36.0624 11.2249 36.0043 11.1617C37.6782 10.9328 38.5808 10.6446 39.0524 10.374ZM33.6287 13.1087C34.295 12.8305 34.6186 12.5979 34.6363 12.3804C34.6957 12.3577 34.9701 12.2502 35.3468 12.053C35.4075 12.0719 35.5415 12.1288 35.5554 12.2148C35.5643 12.2692 35.5301 12.3918 35.2103 12.5928C34.6262 12.9595 33.9195 13.0796 33.6211 13.1162L33.6287 13.1087ZM34.7412 14.3527C34.7463 14.3502 34.7526 14.3464 34.7577 14.3426C34.9498 14.2212 35.0308 14.1125 35.0042 14.0088C34.9852 13.933 34.9094 13.8811 34.8196 13.8457C35.4846 13.7623 35.9764 13.6637 36.3014 13.5486C36.3899 13.5853 36.5732 13.6915 36.5719 13.7863C36.5706 13.8622 36.4493 13.9507 36.2381 14.029C35.5466 14.287 35.1205 14.3818 34.7412 14.3527Z" stroke="#E6E7F5" stroke-width="0.050571" stroke-miterlimit="10"/>
<path d="M39.3811 9.89969C39.2635 10.1639 38.6756 10.6545 36.0876 11.0186C36.3645 10.839 36.4922 10.676 36.4783 10.5242C36.4783 10.5192 36.477 10.5129 36.4758 10.5078C38.1484 10.2587 38.9854 9.96164 39.3899 9.69867C39.4177 9.76441 39.4139 9.83774 39.3811 9.89969ZM36.3354 10.1791C35.6628 10.633 34.7842 10.6658 34.5819 10.6671C34.5832 10.6368 34.5794 10.6064 34.5692 10.5786C34.5376 10.4939 34.4593 10.4433 34.3594 10.413C34.6438 10.2284 34.8057 10.0742 34.8524 9.94141C35.5946 9.9275 36.1003 9.79728 36.4454 9.63672C36.5049 9.6481 36.6604 9.6974 36.6793 9.7859C36.6869 9.82889 36.6717 9.95279 36.3354 10.1791Z" stroke="#E6E7F5" stroke-width="0.050571" stroke-miterlimit="10"/>
<path d="M34.8619 9.81213L34.8607 9.80201C34.8012 9.60605 34.4434 9.55169 34.1666 9.53904C34.9858 9.23435 36.1679 9.06873 37.0061 8.99414C36.8987 9.19516 36.4524 9.77799 34.8619 9.81213ZM33.8594 9.668L33.8644 9.66926C34.1994 9.65283 34.6925 9.69455 34.7368 9.83994C34.7519 9.89051 34.7254 10.0448 34.1704 10.3811C34.1046 10.376 34.0376 10.3747 33.9719 10.3773C33.6432 10.3899 33.1501 10.4784 32.9377 10.5189C33.1488 10.1459 33.4712 9.84879 33.8594 9.668ZM32.858 10.6655C32.8656 10.6642 33.5673 10.5214 33.9757 10.5062C34.03 10.5049 34.0793 10.5049 34.1261 10.5075C34.1463 10.5239 34.1754 10.5264 34.1982 10.5138C34.336 10.5302 34.427 10.5682 34.4485 10.6238C34.4675 10.6731 34.4586 10.8248 34.0098 11.1864C33.9023 11.175 33.7949 11.1687 33.6874 11.1674C33.6861 11.1624 33.6861 11.1561 33.6849 11.151C33.6457 11.0043 33.4067 10.9677 33.2677 10.9576C33.0844 10.9449 32.8429 10.9689 32.7266 10.9816C32.7658 10.8729 32.8087 10.7667 32.858 10.6655Z" stroke="#E6E7F5" stroke-width="0.050571" stroke-miterlimit="10"/>
<path d="M32.687 11.1159C32.7375 11.1083 33.0486 11.0704 33.2622 11.0856C33.443 11.097 33.553 11.145 33.5631 11.1829C33.5644 11.1892 33.5745 11.2512 33.376 11.3865C33.1345 11.5508 32.8602 11.6596 32.5707 11.7076C32.5934 11.5078 32.6313 11.3081 32.687 11.1159ZM33.0953 12.6154C33.1383 12.6305 33.2976 12.6811 33.4101 12.7102C33.4696 12.7253 33.5656 12.7924 33.5821 12.8771C33.601 12.9694 33.5125 13.0553 33.4367 13.1109C33.156 13.3158 32.7628 13.4156 32.6351 13.4447C32.6035 13.2386 32.5795 13.0326 32.5605 12.8252C32.6541 12.7974 32.8539 12.7329 33.0953 12.6154ZM33.1902 13.3954C33.1927 13.3967 33.1939 13.3979 33.1952 13.3992C33.1965 13.3992 33.4203 13.4801 33.4986 13.5105C33.5442 13.5294 33.6364 13.5838 33.6504 13.6609C33.6643 13.7368 33.5998 13.8164 33.5429 13.8695C33.3141 14.0857 32.9209 14.2197 32.7919 14.2602C32.7464 14.0617 32.6984 13.8278 32.6554 13.5699C32.84 13.5307 33.0182 13.4713 33.1902 13.3954ZM33.3836 14.1464C33.4873 14.1742 33.6718 14.2475 33.687 14.3335C33.6959 14.3828 33.6428 14.4511 33.5353 14.5231C33.1775 14.7659 32.9904 14.7811 32.9272 14.7773C32.8994 14.685 32.8627 14.551 32.8223 14.3853C33.0182 14.3284 33.2066 14.2475 33.3836 14.1464Z" stroke="#E6E7F5" stroke-width="0.050571" stroke-miterlimit="10"/>
<path d="M34.4492 15.6306L35.0371 15.1211V23.4008L34.4492 15.6306ZM35.1648 15.1249L35.7742 15.6685L35.1648 23.4577V15.1249Z" stroke="#E6E7F5" stroke-width="0.050571" stroke-miterlimit="10"/>
<path d="M36.4263 14.9162C36.3441 14.5912 35.937 14.4307 35.6602 14.3573C35.7512 14.3321 35.8473 14.3017 35.9497 14.2676C35.9547 14.2688 35.9585 14.2714 35.9636 14.2714L43.6934 14.9149L36.4263 14.9162Z" stroke="#E6E7F5" stroke-width="0.050571" stroke-miterlimit="10"/>
<path d="M39.9438 8.85768C39.8996 8.92342 39.8414 8.97779 39.7732 9.01698C39.4735 9.21674 38.7137 9.50373 36.7933 9.71865C36.7591 9.63648 36.6795 9.58338 36.6074 9.55177C37.0082 9.32041 37.1258 9.05744 37.1536 8.98032C37.4785 8.95377 37.7402 8.94239 37.8869 8.94239C38.2662 8.94239 39.2194 8.92595 39.9717 8.7793C39.9704 8.797 39.9653 8.82228 39.9438 8.85768Z" stroke="#E6E7F5" stroke-width="0.050571" stroke-miterlimit="10"/>
<path d="M40.6856 8.22791C40.7804 8.18746 40.8853 8.15711 40.9359 8.15332C40.922 8.17987 40.8866 8.23044 40.8006 8.3202C40.4479 8.68558 39.0635 8.8158 37.8852 8.8158C37.2821 8.8158 34.7991 9.00671 33.6853 9.61229C32.4893 10.2634 32.3414 11.6946 32.4286 12.7806C32.488 13.4936 32.6208 14.1978 32.823 14.8843H32.732C32.6536 14.6428 32.2832 13.4481 32.2832 12.5985C32.2832 11.7375 32.3806 10.5137 33.2251 9.83101C34.0823 9.13819 35.7372 8.73236 37.8865 8.68684C40.0269 8.64133 40.6097 8.28228 40.6856 8.22791Z" stroke="#E6E7F5" stroke-width="0.050571" stroke-miterlimit="10"/>
<path d="M36.4986 6.70732C36.5795 6.85524 36.5921 7.02592 36.5428 7.20292C36.5315 7.07902 36.4961 6.94374 36.4101 6.83754C36.3089 6.71238 36.1585 6.64917 35.9625 6.64917C35.697 6.62135 35.4353 6.72502 35.2621 6.92731V6.79456C35.3165 6.69594 35.5314 6.35206 35.9056 6.35206C36.1522 6.35712 36.3785 6.4924 36.4986 6.70732ZM35.3607 6.45573C35.3279 6.48734 35.2975 6.52021 35.2697 6.55435V5.09537C35.3772 5.3457 35.5441 5.67567 35.7514 5.88934C35.6465 5.97784 35.4328 6.18644 35.3607 6.45573ZM34.6502 5.86152C34.7476 5.75279 34.9625 5.48098 35.142 5.0625V6.58975C35.1167 6.55308 35.0877 6.51768 35.0586 6.48481C34.9865 6.24081 34.8449 6.02335 34.6502 5.86152ZM33.9637 6.51895C34.1255 6.35712 34.3266 6.28505 34.5288 6.31793C34.7728 6.35712 34.9865 6.53665 35.1332 6.8249L35.1344 6.82617V6.94754C35.0206 6.77307 34.8082 6.54676 34.4669 6.54676C34.075 6.54676 33.8676 6.90961 33.7766 7.20545C33.7513 6.99305 33.769 6.71364 33.9637 6.51895Z" stroke="#E6E7F5" stroke-width="0.050571" stroke-miterlimit="10"/>
<path d="M40.894 18.2591C40.229 18.7193 39.2935 19.2162 37.9849 19.6852C37.9116 18.5057 37.6259 17.3299 37.3945 16.5385C38.2732 16.2439 39.0608 15.8911 39.7221 15.4929C39.7259 15.4904 39.7296 15.4866 39.7322 15.4828L40.5325 15.4297C40.6033 15.6143 41.0268 16.8014 40.894 18.2591ZM40.6197 20.3161C40.5236 20.3894 40.4263 20.4602 40.3277 20.5272C40.7057 19.8547 40.9396 19.11 41.0142 18.3426C41.8359 17.7711 42.2456 17.2566 42.4466 16.919C42.1406 18.1896 41.511 19.3603 40.6197 20.3161ZM39.8991 20.9963C39.2252 21.5551 38.4603 21.9925 37.6373 22.2896C37.6954 22.1607 37.7447 22.0254 37.7877 21.8876C38.4982 21.6575 39.2252 21.3528 39.9066 20.9495C39.8978 20.9647 39.8953 20.9811 39.8991 20.9963Z" stroke="#E6E7F5" stroke-width="0.0632138" stroke-miterlimit="10"/>
<path d="M40.0779 20.6929C39.3636 21.148 38.5886 21.4869 37.8287 21.7384C37.9855 21.148 38.0247 20.4855 37.9918 19.8205C39.2713 19.3667 40.2005 18.8875 40.8744 18.4387C40.7859 19.1619 40.5558 19.9406 40.0779 20.6929ZM33.0687 22.4856C32.711 22.3895 32.3633 22.2694 32.0244 22.1228C31.4669 21.6929 31.0143 21.1329 30.6717 20.4691C31.5301 20.6916 32.6654 20.8421 34.0612 20.7245C34.2787 21.2909 34.5265 21.8459 34.8046 22.3845C34.2281 22.4528 33.649 22.4869 33.0687 22.4856ZM27.693 17.1453C27.6829 16.8002 27.6943 16.4563 27.7259 16.1162C28.0824 16.4538 28.7146 16.8773 29.7917 17.1504C29.8044 18.311 30.0218 19.3717 30.4302 20.2681C29.5654 20.0114 29.0357 19.6954 28.86 19.5803C28.329 18.8458 27.9333 18.0215 27.693 17.1453Z" stroke="#E6E7F5" stroke-width="0.0632138" stroke-miterlimit="10"/>
<path d="M28.825 12.4373C28.3585 11.9151 28.4229 11.3652 28.4229 11.3588V11.3513L28.4647 11.2792C28.5178 11.2274 29.002 10.7596 29.7669 10.2438C29.758 10.4031 29.7795 10.5649 29.8453 10.7217C29.887 10.8228 29.9477 10.9151 30.0223 11.0011C29.5848 11.4499 29.1942 11.9417 28.8566 12.4701L28.825 12.4373ZM30.8187 8.78605C30.686 8.87455 30.5507 8.98201 30.4243 9.0781C30.4192 9.08442 30.0703 9.4991 29.9439 9.977C30.4597 9.64955 31.0792 9.31831 31.7682 9.07177C31.7796 8.93144 31.8466 8.7949 31.9667 8.66594C31.5811 8.68111 31.198 8.72157 30.8187 8.78605ZM37.551 8.60399C36.7874 8.63307 36.0958 8.70893 35.4865 8.8265V8.52561C36.1692 8.49021 36.8544 8.50917 37.5346 8.58376L37.551 8.60399ZM35.4865 8.39539V7.95542C35.8834 7.86566 36.2893 7.81635 36.6976 7.81003C36.905 7.96553 37.1907 8.1969 37.4145 8.43964C36.7735 8.37769 36.1287 8.36252 35.4865 8.39539ZM36.5282 7.68866C36.2324 7.7013 35.8632 7.73796 35.4865 7.82393V7.52051C35.8139 7.53947 36.1388 7.57993 36.4599 7.64061L36.5282 7.68866Z" stroke="#E6E7F5" stroke-width="0.0632138" stroke-miterlimit="10"/>
<path d="M30.1124 11.0917C30.3526 11.3143 30.7154 11.4811 31.1996 11.5911C30.9126 12.1259 30.6661 12.6822 30.4651 13.2562C29.8115 13.1184 29.2994 12.8845 28.9492 12.5621C29.2855 12.0336 29.6749 11.5406 30.1124 11.0917ZM34.5588 7.52143C34.6663 7.51511 34.7737 7.51132 34.8825 7.50879V7.98416C34.8344 8.00059 34.7876 8.01829 34.7409 8.03726C34.5512 7.98921 34.3565 7.96266 34.1606 7.95887C34.2794 7.8021 34.4122 7.65545 34.5588 7.52143ZM34.8825 8.21678V8.44815C34.555 8.48734 34.2453 8.5417 33.952 8.61124C34.2035 8.44056 34.4703 8.2939 34.7485 8.17253C34.794 8.18644 34.8395 8.20161 34.8825 8.21678ZM34.8825 8.57837V8.76042C34.665 8.71997 34.4488 8.69468 34.2352 8.68204C34.4425 8.63905 34.6587 8.60492 34.8825 8.57837ZM34.5398 8.12702C34.3439 8.22058 34.0759 8.36723 33.7661 8.58342C33.8609 8.39505 33.9646 8.22943 34.0632 8.08909C34.2288 8.08783 34.3894 8.10047 34.5398 8.12702ZM31.9898 9.43807C31.9329 9.35716 31.8988 9.26107 31.8937 9.1612C32.3071 9.01707 32.7332 8.9134 33.1656 8.85271C33.1087 8.87421 33.0531 8.89696 32.9987 8.91972C32.6763 9.05626 32.3362 9.23073 31.9898 9.43807ZM33.048 9.03856C33.1302 9.00316 33.2149 8.97029 33.3021 8.93995C33.0075 9.18648 32.7332 9.45451 32.4791 9.74276C32.3337 9.70104 32.1883 9.6353 32.0783 9.53669C32.3893 9.34831 32.713 9.18269 33.048 9.03856ZM31.9658 9.60875C32.0808 9.72254 32.2325 9.79839 32.3855 9.84896C31.9569 10.3521 31.5814 10.897 31.2641 11.4761C30.7849 11.3724 30.4309 11.2131 30.2021 11.002C30.7331 10.4697 31.3235 10.0019 31.962 9.60622L31.9658 9.60875ZM30.9834 12.3168C31.0909 12.0804 31.2072 11.849 31.3311 11.6202C31.5903 11.6708 31.8823 11.7074 32.2035 11.7277C32.163 12.0475 32.1542 12.3573 32.1542 12.6329C32.1542 12.8756 32.1832 13.1424 32.2262 13.4054C31.6156 13.413 31.0694 13.3725 30.594 13.2827C30.7091 12.9553 30.8393 12.6329 30.9834 12.3168ZM32.2477 13.5356C32.2958 13.7998 32.3552 14.059 32.4133 14.2828L30.2375 14.4787C30.3248 14.1184 30.4284 13.7619 30.5485 13.4104C31.0391 13.5027 31.6055 13.5444 32.2477 13.5356ZM32.2212 11.6012C31.9443 11.5848 31.6687 11.5519 31.3956 11.5039C31.7129 10.9274 32.0909 10.3863 32.5208 9.88816C32.6902 9.92988 32.847 9.94378 32.9469 9.94884C32.5094 10.4027 32.3097 11.0096 32.2212 11.6012ZM32.6194 9.7769C32.8495 9.82494 33.0569 9.82494 33.0606 9.82494C33.0644 9.82494 33.0632 9.82494 33.0619 9.82368C33.0847 9.80345 33.1201 9.78575 33.1428 9.76679C33.1883 9.73012 33.2364 9.69472 33.2869 9.65932C33.3249 9.41279 33.3843 9.18648 33.4564 8.97788C33.158 9.22188 32.8773 9.48991 32.6194 9.7769ZM33.6321 8.88053C33.7345 9.00316 33.8331 9.14223 33.9241 9.29774C33.7547 9.3736 33.5916 9.46083 33.4349 9.55944C33.4779 9.32682 33.5449 9.09925 33.6321 8.88053ZM34.043 9.2459C33.9608 9.10178 33.8673 8.96397 33.7623 8.83375C33.9899 8.90202 34.1998 8.99431 34.3793 9.11695C34.263 9.1574 34.1505 9.20039 34.043 9.2459ZM34.5297 9.06638L34.5259 9.06258C34.3831 8.95638 34.2276 8.86915 34.0632 8.80341C34.3325 8.81099 34.6056 8.83881 34.8812 8.89064V8.96271C34.7611 8.99558 34.6435 9.02971 34.5297 9.06638Z" stroke="#E6E7F5" stroke-width="0.0632138" stroke-miterlimit="10"/>
<path d="M33.789 7.61647C33.3743 7.68727 32.9268 7.79473 32.5361 7.93001C32.641 7.9692 32.7826 8.03242 32.9445 8.12724C33.2858 8.02357 33.6398 7.96668 33.9951 7.95783C34.1329 7.77071 34.2606 7.63038 34.3529 7.53809C34.1771 7.55452 33.9609 7.58866 33.789 7.61647ZM33.9003 8.09184C33.7953 8.24861 33.6891 8.43193 33.593 8.64053C33.4426 8.4825 33.2744 8.3409 33.0924 8.21953C33.3566 8.14999 33.6272 8.10701 33.9003 8.09184ZM33.3718 8.6064C33.033 8.54824 32.6904 8.52043 32.3477 8.52296C32.5298 8.41676 32.7232 8.33079 32.9255 8.26884C33.0646 8.35481 33.2188 8.46606 33.3718 8.6064ZM33.2251 8.71639C32.7649 8.77328 32.3212 8.88201 31.9014 9.02361C31.9343 8.87822 32.0405 8.75432 32.1568 8.65823C32.5146 8.64812 32.8711 8.66708 33.2251 8.71639ZM31.7687 9.20693C31.7813 9.31692 31.818 9.41806 31.8787 9.50656C31.2377 9.90481 30.646 10.3751 30.1125 10.9099C30.0505 10.8391 30.0012 10.7582 29.9633 10.6722C29.8976 10.5079 29.8773 10.3271 29.9052 10.1526C30.4248 9.81378 31.0594 9.46358 31.7687 9.20693ZM28.8811 12.6736C29.2465 13.0061 29.7623 13.2438 30.421 13.3841C30.2971 13.7482 30.1909 14.1174 30.1011 14.4916L27.9961 14.6812C28.1984 13.9732 28.4967 13.2994 28.8811 12.6736Z" stroke="#E6E7F5" stroke-width="0.0632138" stroke-miterlimit="10"/>
<path d="M42.6178 14.7326L40.9199 14.591C41.3978 14.1308 41.7303 13.6378 41.9162 13.1156C42.2133 13.6251 42.4497 14.1675 42.6178 14.7326ZM41.968 12.9538C42.0375 12.7174 42.0767 12.4721 42.0868 12.2256C42.3599 12.8881 42.5382 13.591 42.6166 14.3142C42.4446 13.8413 42.2272 13.3849 41.968 12.9538Z" stroke="#E6E7F5" stroke-width="0.0632138" stroke-miterlimit="10"/>
<path d="M40.7472 14.5777L40.2883 14.5385C39.8698 13.5182 38.6953 12.2792 38.1934 11.7798C38.5815 11.4878 39.0354 11.0099 39.3805 10.2412C39.6612 10.4549 40.904 11.4461 41.8269 12.972C41.6486 13.5422 41.287 14.0796 40.7472 14.5777Z" stroke="#E6E7F5" stroke-width="0.0632138" stroke-miterlimit="10"/>
<path d="M37.6621 11.8176C37.7443 11.7746 37.8227 11.7253 37.8973 11.6684L37.9921 11.7607C37.8669 11.8466 37.7342 11.9225 37.5977 11.987C37.6432 11.9099 37.6571 11.8492 37.6621 11.8176ZM37.9946 11.5837C38.1565 11.4256 38.1919 11.2853 38.1982 11.212C38.4978 11.1096 38.709 11.0021 38.8581 10.8984C38.647 11.1981 38.3904 11.4636 38.0983 11.6836L37.9946 11.5837Z" stroke="#E6E7F5" stroke-width="0.0632138" stroke-miterlimit="10"/>
<path d="M36.28 14.1852C36.5581 14.0816 36.6947 13.9627 36.6972 13.8237C36.6985 13.6859 36.5619 13.5797 36.4583 13.5202C36.6479 13.433 36.7528 13.3369 36.7731 13.232C36.7933 13.1258 36.7276 13.0436 36.6719 12.9943C36.9488 12.8843 37.1245 12.7528 37.1953 12.5998C37.2371 12.5177 37.2409 12.4216 37.2055 12.3356C37.2838 12.2901 37.3496 12.2458 37.4039 12.2003C37.4406 12.1902 37.7238 12.108 38.0879 11.8564C38.5633 12.3318 39.7125 13.5417 40.1436 14.5266L36.2383 14.2017L36.28 14.1852Z" stroke="#E6E7F5" stroke-width="0.0632138" stroke-miterlimit="10"/>
<path d="M34.8043 22.0976C34.5805 21.6463 34.377 21.1835 34.1962 20.7132C34.3593 20.698 34.5249 20.6791 34.6956 20.6563L34.8043 22.0976ZM34.1494 20.5881C33.7562 19.5488 33.4794 18.4691 33.3251 17.3692C33.6968 17.3376 34.0685 17.2946 34.4377 17.239L34.6867 20.5261C34.5022 20.5527 34.3239 20.5729 34.1494 20.5881ZM33.3074 17.2415C33.1974 16.3704 33.2113 15.7889 33.2189 15.6258L34.3214 15.6978L34.4276 17.11C34.0483 17.1682 33.6728 17.2112 33.3074 17.2415ZM30.0519 15.4172L33.0912 15.6182C33.0836 15.7851 33.0685 16.373 33.1797 17.2529C32.5362 17.3022 31.9294 17.3085 31.4021 17.2706C30.904 17.2377 30.4084 17.1631 29.9217 17.0481C29.9217 16.5221 29.9647 15.9772 30.0519 15.4172ZM29.9229 15.4083C29.8395 15.9393 29.7965 16.4766 29.794 17.0152C28.6865 16.7244 28.0695 16.2731 27.7459 15.9444C27.7724 15.7181 27.8078 15.493 27.8533 15.2705L29.9229 15.4083ZM27.5676 16.6043C27.517 16.3439 27.4791 16.0796 27.4551 15.8154C27.4955 15.8698 27.5474 15.9317 27.6093 15.9987C27.5891 16.1998 27.5739 16.402 27.5676 16.6043Z" stroke="#E6E7F5" stroke-width="0.0632138" stroke-miterlimit="10"/>
<path d="M29.9219 17.1816C30.4048 17.2929 30.8966 17.365 31.3922 17.3978C31.927 17.437 32.544 17.4294 33.1963 17.3789C33.3139 18.236 33.5491 19.3461 34.0156 20.6002C32.5895 20.7153 31.4466 20.5484 30.5957 20.3158C30.1684 19.4219 29.937 18.3562 29.9219 17.1816Z" stroke="#E6E7F5" stroke-width="0.0632138" stroke-miterlimit="10"/>
<path d="M36.9772 15.665C37.0151 15.7725 37.1137 16.0544 37.2326 16.4552C36.7812 16.6019 36.3071 16.7334 35.814 16.8471L35.9013 15.7358L36.9772 15.665ZM37.1112 15.6562L39.4514 15.502C38.8432 15.8458 38.1365 16.1543 37.3577 16.4148C37.2819 16.1594 37.1997 15.9065 37.1112 15.6562ZM35.8027 16.9824C36.297 16.8699 36.7863 16.7359 37.268 16.5804C37.4968 17.3743 37.78 18.5577 37.8521 19.7335C37.5208 19.8498 37.1668 19.9636 36.7888 20.0748C36.3766 20.1949 35.9582 20.2986 35.5372 20.3846L35.8027 16.9824ZM35.5258 20.5161C35.9632 20.4288 36.3956 20.3214 36.8242 20.1962C37.1719 20.0951 37.517 19.9851 37.8596 19.8662C37.8912 20.5401 37.8483 21.2051 37.6826 21.7867C36.8596 22.0484 36.0618 22.2102 35.3867 22.3101L35.5258 20.5161Z" stroke="#E6E7F5" stroke-width="0.0632138" stroke-miterlimit="10"/>
<path d="M41.9578 11.9303C41.9755 12.2236 41.9477 12.5182 41.8769 12.8026C40.9198 11.2703 39.6644 10.2905 39.4355 10.1198L39.4419 10.1047C39.4444 10.0971 39.4469 10.0895 39.4469 10.0819C39.4709 10.0478 39.4899 10.0136 39.5038 9.98204C39.5734 9.82021 39.5203 9.70011 39.4975 9.66091C39.5986 9.58253 39.6606 9.50667 39.6985 9.4384C39.7377 9.37519 39.7516 9.29933 39.7402 9.226C39.7643 9.21336 39.787 9.19945 39.8098 9.18555C40.7276 9.92136 41.4622 10.8607 41.9578 11.9303Z" stroke="#E6E7F5" stroke-width="0.0632138" stroke-miterlimit="10"/>
<path d="M38.3444 8.57699C38.3368 8.5694 38.3267 8.56434 38.3153 8.56181C38.309 8.56055 38.0372 8.50871 37.601 8.45941C37.4025 8.2192 37.132 7.9853 36.9082 7.80957C37.0599 7.8121 37.1522 7.81968 37.1547 7.81968C37.1649 7.82095 37.175 7.81842 37.1838 7.81463C37.7742 7.98783 38.3432 8.23184 38.8754 8.54159C38.6997 8.55802 38.5214 8.5694 38.3444 8.57699Z" stroke="#E6E7F5" stroke-width="0.0632138" stroke-miterlimit="10"/>
<path d="M32.3425 8.00098C32.3919 8.01488 32.5575 8.06798 32.7749 8.18303C32.5739 8.25257 32.3817 8.34612 32.2035 8.4637C32.1744 8.48393 32.1453 8.50416 32.1175 8.52692C31.7054 8.53829 31.34 8.57875 31.0922 8.61289C31.4879 8.37015 31.9064 8.16533 32.3425 8.00098ZM30.0757 9.3487C29.9581 9.54213 29.8342 9.80004 29.7849 10.0769C29.412 10.3222 29.0542 10.5902 28.7141 10.8797C29.0984 10.3108 29.5561 9.79625 30.0757 9.3487ZM28.2969 11.5801C28.3209 11.8077 28.4119 12.1668 28.7255 12.5195C28.7444 12.541 28.7659 12.5612 28.7861 12.5814C28.379 13.2376 28.0668 13.9481 27.8582 14.6928L27.4334 14.7307C27.489 13.6295 27.7836 12.5549 28.2969 11.5801ZM27.7216 15.263C27.685 15.4476 27.6546 15.6334 27.6306 15.8218C27.5547 15.7371 27.4903 15.6448 27.4359 15.5449C27.4308 15.445 27.427 15.3439 27.4258 15.2427L27.7216 15.263ZM29.6383 20.4958C29.436 20.2923 29.2463 20.0786 29.0681 19.8536C29.3639 20.0154 29.8443 20.2379 30.5056 20.425C30.7875 21.0003 31.1503 21.5034 31.589 21.9194C30.8671 21.5502 30.2085 21.0698 29.6383 20.4958ZM33.5954 22.6059C33.9103 22.5945 34.3376 22.568 34.8357 22.5123L34.8534 22.7399C34.4311 22.7298 34.0101 22.6855 33.5954 22.6059ZM35.3755 22.4415C36.1404 22.3315 36.8965 22.1621 37.6348 21.9358C37.5906 22.0698 37.5387 22.2001 37.4768 22.3277C37.4742 22.3341 37.473 22.3417 37.4717 22.348C36.7865 22.5768 36.0734 22.7083 35.3515 22.7361L35.3755 22.4415ZM40.6678 15.421C40.7677 15.6954 41.1305 16.8029 41.0319 18.162C42.3063 17.2403 42.5427 16.4931 42.5453 16.4805C42.6097 16.1062 42.6502 15.6802 42.6578 15.2895L40.6678 15.421Z" stroke="#E6E7F5" stroke-width="0.0632138" stroke-miterlimit="10"/>
</g>
</g>
</g>
<defs>
<clipPath id="clip0_10196_1161">
<rect width="70" height="30" fill="white"/>
</clipPath>
<clipPath id="clip1_10196_1161">
<rect width="70" height="30" fill="white"/>
</clipPath>
<clipPath id="clip2_10196_1161">
<rect width="30" height="30" fill="white" transform="translate(20)"/>
</clipPath>
</defs>
</svg>
