<svg width="14" height="14" viewBox="0 0 14 14" fill="none" xmlns="http://www.w3.org/2000/svg">
<path d="M11.4954 2.21412C11.6434 2.21268 11.7903 2.24078 11.9274 2.29678C12.0644 2.35277 12.189 2.43555 12.2937 2.54025C12.3984 2.64495 12.4812 2.76948 12.5371 2.90656C12.5931 3.04363 12.6212 3.1905 12.6198 3.33856V9.33666C12.6198 9.90668 12.0048 10.2739 11.3718 10.2739H11.3118C11.2379 10.5415 11.2591 10.8263 11.3718 11.08C11.4863 11.2878 11.6522 11.4628 11.8536 11.5882C12.055 11.7135 12.2853 11.7852 12.5223 11.7961C12.3088 11.8481 12.0898 11.8745 11.8701 11.8747C11.3935 11.9102 10.918 11.7922 10.5133 11.5379C10.1087 11.2837 9.79602 10.9065 9.6212 10.4617H2.49957C2.35148 10.4631 2.2046 10.4349 2.06752 10.3788C1.93044 10.3228 1.80592 10.2399 1.70122 10.1352C1.59653 10.0304 1.51377 9.90586 1.45778 9.76875C1.40179 9.63164 1.37369 9.48475 1.37513 9.33666V3.33856C1.37381 3.19053 1.40199 3.04372 1.45803 2.9067C1.51407 2.76968 1.59685 2.6452 1.70153 2.54052C1.80621 2.43584 1.93069 2.35307 2.06771 2.29703C2.20473 2.24099 2.35154 2.2128 2.49957 2.21412H11.4954ZM11.4954 1.83911H2.49957C2.30107 1.83906 2.10454 1.87842 1.92138 1.95492C1.73821 2.03142 1.57207 2.14354 1.43258 2.28476C1.29309 2.42598 1.18303 2.59349 1.10879 2.77759C1.03456 2.96168 0.997617 3.15868 1.00012 3.35716V9.17555C1.00012 10.0117 1.65504 10.8364 2.49957 10.8364H9.24619C9.51858 11.3145 9.91814 11.7077 10.4005 11.9724C10.8829 12.237 11.4291 12.3629 11.9787 12.3359C12.2325 12.3359 12.4857 12.3056 12.732 12.2459C12.8134 12.2266 12.8851 12.1788 12.9341 12.111C12.983 12.0432 13.006 11.9601 12.9987 11.8768C12.9914 11.7936 12.9544 11.7157 12.8944 11.6575C12.8344 11.5992 12.7555 11.5645 12.672 11.5597C12.4942 11.5519 12.3211 11.5003 12.1681 11.4094C12.0151 11.3184 11.8869 11.1911 11.7951 11.0386C11.7437 10.9228 11.7156 10.798 11.7126 10.6714C12.4434 10.5553 12.9945 10.0903 12.9945 9.33666V3.33856C12.9933 3.13965 12.9527 2.94295 12.875 2.75983C12.7973 2.57672 12.6841 2.41081 12.5419 2.27172C12.3997 2.13262 12.2314 2.02309 12.0466 1.94945C11.8618 1.87581 11.6643 1.83954 11.4654 1.84271L11.4954 1.83911Z" fill="#777777"/>
</svg>
