<svg width="180" height="120" viewBox="0 0 180 120" fill="none" xmlns="http://www.w3.org/2000/svg">
<g clip-path="url(#clip0_11105_18884)">
<path d="M159.58 57.9914C159.626 58.1314 159.626 58.2248 159.626 58.3648C159.626 58.2248 159.58 58.1314 159.58 57.9914ZM89.9999 33.7715C51.1266 33.7715 20 45.4381 20 59.9981C20 74.5114 51.4066 86.2247 89.9999 86.2247C128.593 86.2247 160 74.4648 160 59.9981C160 45.5315 128.593 33.7715 89.9999 33.7715Z" fill="#D3D2D2"/>
<path d="M21.0723 59.9968C21.0723 73.9035 51.9189 85.1968 89.9988 85.1968C128.079 85.1968 158.925 73.9501 158.925 59.9968C158.925 46.0902 128.079 34.7969 89.9988 34.7969C51.9189 34.7969 21.0723 46.0902 21.0723 59.9968Z" fill="url(#paint0_radial_11105_18884)"/>
<path d="M26.2539 59.9964C26.2539 60.9298 26.4406 61.8631 26.8139 62.7964C26.6739 62.1898 26.5806 61.5831 26.5806 60.9764C26.5806 49.4498 55.0939 40.1165 90.3271 40.1165C122.714 40.1165 149.454 48.0031 153.514 58.2698C150.807 47.4898 123.414 39.0431 90.0005 39.0431C54.8139 38.9965 26.2539 48.4231 26.2539 59.9964Z" fill="url(#paint1_linear_11105_18884)"/>
<path d="M156.034 59.9983C156.034 72.6916 126.447 83.0049 90.0007 83.0049C57.5208 83.0049 30.5475 74.8383 24.9941 64.105C29.2408 75.3049 56.9141 83.9383 90.4674 83.9383C126.961 83.9383 156.501 73.7183 156.501 61.165C156.501 59.905 156.174 58.645 155.614 57.4316C155.894 58.225 156.034 59.1116 156.034 59.9983Z" fill="url(#paint2_linear_11105_18884)"/>
<path d="M102.32 62.2359C100.826 63.7759 100.733 65.7826 101.713 66.6692C102.04 66.9959 102.46 67.1359 102.88 67.1826C102.227 66.3892 101.947 64.8026 102.74 63.5892C102.6 63.2159 102.553 62.7959 102.647 62.3759C102.647 62.2826 102.6 62.1893 102.507 62.1893C102.413 62.1426 102.366 62.1893 102.32 62.2359Z" fill="url(#paint3_linear_11105_18884)"/>
<path d="M117.58 65.5039C117.58 65.7372 117.673 66.1572 117.72 66.4839C117.813 66.3439 117.86 66.2039 117.953 66.0172C118 65.8772 118 65.8772 117.907 65.8306C117.767 65.7839 117.58 65.6439 117.58 65.5506C117.533 65.5506 117.533 65.5506 117.58 65.5039Z" fill="url(#paint4_linear_11105_18884)"/>
<path d="M119.352 60.4648C119.865 60.9315 120.145 61.4915 120.192 62.0515C120.192 62.2848 120.425 62.3315 120.565 62.0982C120.612 62.0515 120.658 61.9582 120.705 61.8648C120.658 61.8182 120.612 61.7715 120.565 61.6782C120.378 61.4448 119.865 60.9315 119.352 60.4648Z" fill="url(#paint5_linear_11105_18884)"/>
<path d="M98.8652 59.5293C99.2386 60.0893 99.4252 60.836 99.4252 61.816C99.4252 62.0493 99.6119 62.0493 99.7052 61.8626C99.7519 61.7693 99.8452 61.676 99.8919 61.5826C99.6586 60.696 99.1919 59.856 98.8652 59.5293Z" fill="url(#paint6_linear_11105_18884)"/>
<path d="M112.539 64.6637C111.139 66.3437 110.393 68.0704 110.393 69.7504C110.393 70.357 110.626 71.1037 111.139 71.337C111.326 71.4303 111.466 71.477 111.653 71.5237C111.606 71.2903 111.559 71.057 111.559 70.8704C111.559 69.1437 112.073 67.417 113.473 65.6904C115.153 63.637 116.926 62.6104 118.139 63.1704C118.093 62.7037 117.859 62.3304 117.346 62.097C117.113 62.0037 116.879 61.957 116.599 61.957C115.386 61.957 113.893 62.9837 112.539 64.6637Z" fill="url(#paint7_linear_11105_18884)"/>
<path d="M84.8201 61.0684C82.9535 61.7684 81.0868 62.8884 79.7801 64.6151C78.2868 66.5751 77.9135 68.9551 78.8935 70.3551C79.1268 70.6818 79.4068 70.9151 79.7335 71.0551C79.2201 69.4218 79.5935 67.2284 80.8535 65.5484C82.1601 63.8218 83.6068 63.1684 85.2401 62.4218C85.4735 62.3284 85.4735 62.1884 85.4268 62.0018C85.3335 61.6751 85.1468 60.8351 85.0535 60.6484C85.1001 60.8818 85.0535 61.0218 84.8201 61.0684Z" fill="url(#paint8_linear_11105_18884)"/>
<path d="M98.8189 66.3433L93.7323 74.2767C93.639 74.4167 93.5456 74.4633 93.4056 74.51H89.999C89.859 74.51 89.8123 74.4633 89.7656 74.37L90.0456 75.7233C90.0923 75.8633 90.1856 75.91 90.279 75.91H94.1523C94.2923 75.91 94.4323 75.8167 94.479 75.6767L99.3323 68.07C99.7056 69.33 99.8456 69.89 100.546 70.4967C101.199 71.1033 101.806 71.2433 102.739 71.2433C103.579 71.2433 104.372 70.9167 105.352 70.4967C105.726 70.3567 106.006 70.17 106.286 69.9833C106.286 69.5167 106.332 69.05 106.426 68.63C106.426 68.5833 106.379 68.3033 106.146 68.4433C105.679 68.77 105.119 69.0967 104.372 69.3767C103.486 69.7033 103.066 69.8433 102.226 69.8433C101.199 69.8433 100.266 69.3767 99.6123 68.35C99.2389 67.79 99.0989 66.95 99.0523 66.3433C99.0523 66.2967 99.0056 66.25 98.9589 66.25C98.9123 66.2967 98.8656 66.2967 98.8189 66.3433Z" fill="url(#paint9_linear_11105_18884)"/>
<path d="M128.874 67.7455C127.194 69.7988 125.374 71.7121 123.601 73.0655C120.848 75.2121 118.141 75.7255 116.788 74.3721C116.274 73.8588 115.994 73.1588 115.994 72.5055C115.994 72.1788 115.808 72.1788 115.668 72.3188C114.034 73.9055 111.234 75.6788 108.668 74.4188C107.408 73.7655 106.708 72.5988 106.428 71.2921C106.568 72.2255 106.801 73.5788 107.221 74.4188C107.501 74.9788 108.154 75.6321 108.574 75.8188C110.861 76.9388 114.081 75.6788 116.181 73.6721C116.181 73.6255 116.228 73.6255 116.228 73.6255C116.321 73.9988 116.461 74.4188 116.461 74.4655C116.601 74.9321 116.834 75.3521 117.021 75.5855C118.468 77.2188 121.454 76.4721 124.627 74.0455C126.401 72.6921 127.707 71.3388 129.294 69.4721C129.341 69.3788 129.341 69.2855 129.341 69.0988L129.014 67.6055C128.921 67.6055 128.921 67.6988 128.874 67.7455Z" fill="url(#paint10_linear_11105_18884)"/>
<path d="M107.173 62.0982C107.033 63.1248 106.473 64.0115 105.54 64.4782C104.747 64.8515 103.813 64.8048 103.16 64.1982C102.973 64.0115 102.833 63.7782 102.693 63.5448C102.88 64.2915 103.02 64.8515 103.207 65.1782C103.813 66.1115 104.887 66.3448 106.053 65.6915C106.893 65.2248 107.64 64.2448 107.547 62.7048C107.5 61.9115 107.267 61.1182 106.893 60.4648C107.169 60.9618 107.268 61.5377 107.173 62.0982Z" fill="url(#paint11_linear_11105_18884)"/>
<path d="M131.115 52.4837C130.601 53.4171 120.335 69.0037 119.681 70.6371C119.495 71.1504 119.448 71.5237 119.681 71.8037C119.915 72.0837 120.195 72.1771 120.568 72.1771C120.615 71.9904 120.661 71.7571 120.755 71.5237C121.408 69.8904 131.021 55.3304 131.535 54.3971C131.581 54.3037 131.581 54.2104 131.535 54.1637C131.488 54.0237 131.161 52.4837 131.161 52.3438C131.161 52.3904 131.161 52.4371 131.115 52.4837Z" fill="url(#paint12_linear_11105_18884)"/>
<path d="M88.5508 59.7656L88.6441 59.859C89.2508 60.7923 89.5774 62.0523 89.6241 63.4056C89.6708 63.6856 89.7641 63.6856 89.9041 63.5456C90.0441 63.4056 90.1375 63.2656 90.2775 63.1723C90.0908 62.4723 89.8108 61.819 89.5308 61.2123C89.4374 60.9323 88.9708 60.139 88.5508 59.7656Z" fill="url(#paint13_linear_11105_18884)"/>
<path d="M93.7801 62.8433C91.5867 64.5233 89.7201 67.1366 88.7867 68.3033C88.2267 69.0033 87.7134 69.9833 86.2667 71.5699C83.9801 74.0433 80.9468 75.4899 78.0534 74.4633C76.4668 73.9499 75.3001 72.6433 74.8801 71.0566C74.7868 70.7299 74.6001 70.6833 74.4601 70.8699C73.9934 71.4766 73.0134 72.3166 72.2201 72.8766C72.1268 72.9233 71.8934 73.0633 71.7068 72.9699C71.5201 72.8766 70.9601 72.0366 70.8201 71.8033C70.8201 71.7566 70.7734 71.7566 70.7734 71.7099C70.9601 72.7366 71.0068 72.8766 71.2868 73.3433C71.6134 73.8566 71.9401 74.2299 71.9868 74.2766C72.1734 74.3699 72.3601 74.2766 72.4534 74.2299C73.0601 73.9033 74.2734 72.9699 74.8334 72.3166C74.9734 72.1766 75.1601 72.2699 75.2068 72.4099C75.4401 73.1099 75.7668 73.6233 76.0934 74.2299C76.4668 74.8833 77.2601 75.5366 78.2868 75.8166C79.5934 76.1899 81.0401 76.2366 82.9068 75.5366C84.4001 74.9766 85.9867 73.8099 87.2001 72.4566C88.6467 70.8699 89.1601 69.8899 89.7201 69.1899C90.6534 68.0233 92.1467 65.9699 94.2001 64.1966C94.9001 63.5899 95.6934 63.1699 96.2067 63.3566C96.4867 62.6099 96.3467 62.1899 96.0667 61.9566C95.9734 61.9099 95.8334 61.8633 95.6934 61.8633C95.1334 61.9566 94.4334 62.3766 93.7801 62.8433Z" fill="url(#paint14_linear_11105_18884)"/>
<path d="M57.0063 60.743C55.7463 61.3963 54.2529 62.4696 53.5063 63.963C52.8996 65.1763 52.8063 66.623 53.6929 68.023C53.7863 68.1163 53.8329 68.2563 53.9263 68.3496C53.6463 67.183 53.9729 65.9696 54.3929 65.0363C55.1396 63.543 56.1663 62.843 57.1929 62.1896C57.6129 61.9096 57.8463 61.6296 57.5663 60.9296C57.4729 60.743 57.4263 60.3696 57.3796 60.043C57.4263 60.323 57.2863 60.603 57.0063 60.743Z" fill="url(#paint15_linear_11105_18884)"/>
<path d="M66.3854 45.8587C62.792 47.212 61.2054 50.0587 61.952 51.972C62.092 52.3454 62.3254 52.6254 62.652 52.812C62.4187 51.0387 63.7254 48.192 67.1787 47.0254C71.7054 45.532 76.7454 46.4654 80.8053 47.352C81.3653 46.9787 81.8787 46.7454 82.3453 46.4654C82.5787 46.3254 82.2987 46.1854 82.252 46.1854C79.032 45.5787 75.672 44.832 72.4054 44.832C70.352 44.832 68.3454 45.112 66.3854 45.8587Z" fill="url(#paint16_linear_11105_18884)"/>
<path d="M81.4584 56.5422C79.4927 56.6639 77.5317 56.8506 75.5784 57.1022C75.1584 57.1489 75.1117 57.2422 75.0184 57.3822C72.2651 61.9089 69.3717 66.7622 66.1517 70.0289C62.6984 73.5289 59.8518 74.4622 56.8184 74.4622C53.3184 74.5089 50.1918 72.5022 49.3984 69.0022C49.8184 70.9622 51.0784 73.2955 52.5251 74.3222C54.0184 75.3489 55.4651 75.7222 57.1451 75.7222C60.5984 75.7689 63.7717 74.3689 67.1317 70.9622C70.3517 67.6955 73.1517 63.1222 75.8584 58.5956C75.9517 58.4556 76.0451 58.3622 76.5117 58.3156C78.2384 58.0822 79.7784 57.9889 81.3184 57.8489C81.7851 57.8022 82.1117 57.7556 82.2984 57.9422C82.8584 58.5022 83.4651 59.0156 83.9317 59.2489C84.2117 59.2489 84.4451 59.2956 84.6317 59.4822C84.8184 59.4356 84.9584 59.3422 85.0984 59.2489C85.285 59.0622 85.285 58.8289 85.285 58.6422C85.2384 58.2689 85.0984 57.5222 85.0051 57.3356C85.0984 57.4756 85.0517 57.7089 84.865 57.8956C84.7251 58.0356 84.5384 58.1756 84.3051 58.1756C84.1184 58.1756 83.9784 58.0822 83.7451 57.9889C83.2317 57.7089 82.5784 57.2422 82.1584 56.7289C82.0651 56.5889 81.9717 56.5422 81.7851 56.5422C81.5984 56.4956 81.5517 56.5422 81.4584 56.5422Z" fill="url(#paint17_linear_11105_18884)"/>
<path d="M66.6174 59.2511C66.2441 59.5311 65.6841 59.4845 65.4507 59.1111C65.3574 58.9711 65.3107 58.8311 65.3107 58.7378C65.2641 59.3445 65.4974 60.1845 65.6841 60.4645C65.8707 60.7911 66.4774 60.9311 66.9441 60.6045C67.9707 59.8111 68.9507 59.3911 69.9774 59.1578L70.8641 57.8978C70.9107 57.8511 70.9107 57.8045 70.8641 57.8045C70.8641 57.7578 70.8174 57.7578 70.724 57.7578C69.2774 57.8045 67.9241 58.2711 66.6174 59.2511Z" fill="url(#paint18_linear_11105_18884)"/>
<path d="M110.299 44.8789C110.299 44.9256 110.345 44.9256 110.345 44.9722C110.345 44.9256 110.345 44.8789 110.299 44.8789Z" fill="url(#paint19_linear_11105_18884)"/>
<path d="M110.487 45.5317C110.441 46.5117 109.647 47.4917 107.734 48.5184C105.541 49.7317 103.301 50.0584 100.921 50.1051C95.1807 50.1517 89.814 47.9117 84.3074 46.6984C84.3074 46.9317 84.354 47.2117 84.1674 47.3984C81.0874 49.6851 78.334 51.9717 76.4674 55.1917C76.4207 55.2851 76.4207 55.3317 76.5607 55.3317C77.074 55.2851 77.5407 55.2851 78.0074 55.2384C79.6874 52.5784 81.5074 51.0851 84.2607 49.0317C84.4474 48.8917 84.6807 48.7517 84.5873 48.1917C90.1407 49.4051 94.3407 51.4584 101.527 51.5051C103.674 51.5051 106.661 50.8051 108.294 49.8251C110.161 48.7051 110.674 47.8651 110.721 47.0251C110.721 46.7451 110.674 46.3251 110.627 46.1384C110.581 45.8584 110.534 45.4851 110.441 45.2051C110.487 45.2517 110.487 45.3917 110.487 45.5317Z" fill="url(#paint20_linear_11105_18884)"/>
<path d="M83.7466 52.2997C83.6999 52.3464 83.6066 52.4397 83.5132 52.4864C82.9532 53.0464 82.8132 53.7931 82.8599 54.3531C82.9066 54.5864 82.9999 54.6331 83.0932 54.5864C83.1866 54.5864 83.3266 54.5397 83.4199 54.4931C83.4666 54.1664 83.6066 53.8864 83.8866 53.6064C84.1199 53.4197 84.3999 53.3264 84.6332 53.3731C84.8666 52.9531 84.9132 52.4397 84.6332 52.2064C84.5399 52.1131 84.3999 52.0664 84.2132 52.0664C84.1199 52.1131 83.9332 52.1597 83.7466 52.2997Z" fill="url(#paint21_linear_11105_18884)"/>
<path d="M85.9402 54.2587C85.4269 55.2854 84.5402 55.7987 83.7002 56.0787C83.7002 56.0787 83.5136 56.1254 83.5602 56.2654C83.5602 56.452 84.1669 56.8254 84.5402 57.0587C84.5869 57.0587 84.6802 57.012 84.6802 57.012C85.1002 56.8254 85.8002 56.4054 86.2202 55.5187C86.5002 54.9587 86.6402 54.492 86.5002 53.4654C86.4069 52.7654 86.2669 52.112 86.0802 51.832C86.5002 52.5787 86.3602 53.512 85.9402 54.2587Z" fill="url(#paint22_linear_11105_18884)"/>
<path d="M70.6334 49.5449C70.7267 49.7783 70.7267 50.1983 70.5401 50.6649C69.0001 54.2582 66.1067 57.0582 62.5601 57.1982C60.4134 57.2449 58.8267 56.1716 58.0801 54.5849C58.6401 55.7982 59.7601 56.8716 60.7401 57.4782C61.4867 57.9449 62.4667 58.2249 63.5401 58.1782C67.2267 58.0382 70.0267 55.0049 70.9601 52.4383C71.1934 51.7383 71.0067 50.9916 70.9134 50.5249C70.8201 50.2916 70.7734 49.8716 70.6334 49.5449Z" fill="url(#paint23_linear_11105_18884)"/>
<path d="M159.58 57.9914C159.626 58.1314 159.626 58.2248 159.626 58.3648C159.626 58.2248 159.58 58.1314 159.58 57.9914ZM20.4667 60.3248C20.4667 57.2448 21.82 54.2115 24.6667 51.3181C34.7 41.1915 60.9266 34.3782 89.8599 34.2382C128.22 34.0982 159.44 45.5315 159.533 59.7181C159.533 62.7981 158.133 65.7848 155.286 68.6781C145.253 78.8048 119.073 85.6647 90.1399 85.7581C51.78 85.9447 20.56 74.5114 20.4667 60.3248ZM89.9999 33.7715C51.1266 33.7715 20 45.4381 20 59.9981C20 74.5114 51.4066 86.2247 89.9999 86.2247C128.593 86.2247 160 74.4648 160 59.9981C160 45.5315 128.593 33.7715 89.9999 33.7715Z" fill="#4F4C4D"/>
<path d="M20.2344 59.9992C20.2344 60.6992 20.3277 61.3525 20.4677 62.0525C20.3744 61.4925 20.281 60.8858 20.281 60.3258C20.281 57.1992 21.681 54.0725 24.5277 51.1792C34.6077 41.0058 60.881 34.1459 89.8609 34.0525C93.8743 34.0525 97.8409 34.1459 101.668 34.3792C97.8876 34.1459 93.9676 34.0059 90.0009 34.0059C51.3143 34.0059 20.2344 45.5792 20.2344 59.9992Z" fill="url(#paint24_linear_11105_18884)"/>
<path d="M159.721 59.7166C159.721 62.8433 158.275 65.9233 155.381 68.8166C145.348 78.9432 119.075 85.8499 90.0947 85.9899C85.988 85.9899 81.9747 85.8966 78.0547 85.6632C81.928 85.8966 85.8947 86.0366 89.9547 86.0366C128.455 86.0366 159.721 74.2766 159.721 59.9966C159.721 59.4492 159.674 58.9028 159.581 58.3633C159.721 58.8299 159.721 59.2966 159.721 59.7166Z" fill="url(#paint25_linear_11105_18884)"/>
<path d="M23.9219 59.999C23.9219 72.6923 53.5085 83.0057 89.9551 83.0057C126.448 83.0057 155.988 72.6923 155.988 59.999C156.035 47.3057 126.495 37.0391 90.0018 37.0391C53.5085 37.0391 23.9219 47.3057 23.9219 59.999ZM26.2552 59.999C26.2552 48.379 54.7685 38.9991 90.0018 38.9991C125.188 38.9991 153.748 48.379 153.748 59.999C153.748 71.619 125.235 80.999 90.0018 80.999C54.8152 80.999 26.2552 71.619 26.2552 59.999Z" fill="url(#paint26_linear_11105_18884)"/>
<path d="M127.382 52.2031C127.102 52.2031 127.009 52.2498 126.869 52.4831C126.449 53.2765 121.502 60.6498 120.616 62.0964C120.476 62.3298 120.289 62.2831 120.242 62.0498C120.149 61.2098 119.402 60.2298 118.236 59.7631C117.349 59.3898 116.462 59.3431 115.576 59.4364C113.942 59.6698 112.496 60.5098 111.236 61.4898C109.322 62.9364 107.642 64.8498 105.542 66.2498C104.376 66.9964 102.789 67.6964 101.716 66.6698C100.736 65.7831 100.876 63.7764 102.322 62.2364C102.462 62.0964 102.649 62.1898 102.649 62.3764C102.509 63.0764 102.696 63.7764 103.209 64.2431C103.862 64.8031 104.796 64.8964 105.589 64.5231C106.522 64.0564 107.082 63.1698 107.222 62.1431C107.456 60.5564 106.242 59.2031 104.749 59.0631C103.536 58.9698 102.322 59.3898 101.202 60.3698C100.642 60.8364 100.316 61.2098 99.8022 61.9098C99.6622 62.0964 99.4756 62.0964 99.5222 61.8631C99.5689 59.8564 98.7289 58.7364 97.0956 58.6898C95.7889 58.6431 94.4356 59.3431 93.3622 60.2298C92.1956 61.1631 91.1689 62.4231 90.0489 63.5898C89.9089 63.7298 89.7689 63.7298 89.7689 63.4498C89.7222 62.0964 89.3956 60.8364 88.7889 59.9031C88.5556 59.5764 88.0889 59.4364 87.7156 59.6231C87.5289 59.7164 86.9223 59.9964 86.4556 60.3698C86.2223 60.5564 86.1289 60.8364 86.2223 61.1631C86.8289 63.1698 86.6889 65.4098 85.8956 67.3231C85.1489 69.0964 83.7023 70.6364 82.0223 71.1964C80.9023 71.5698 79.7356 71.3831 79.0356 70.4031C78.0556 69.0498 78.4289 66.6698 79.9223 64.6631C81.2289 62.9364 83.0956 61.8164 84.9623 61.1164C85.1956 61.0231 85.2423 60.8831 85.1489 60.6964C85.0556 60.3698 84.8689 59.9498 84.8223 59.7631C84.6356 59.2964 84.1689 59.2498 83.5623 59.2964C82.2089 59.4364 80.9956 59.9031 79.7356 60.5564C76.5623 62.2364 74.9756 65.5498 74.2756 67.3231C73.9489 68.1631 73.6689 68.6764 73.2956 69.1431C72.7823 69.7964 72.1756 70.3564 71.0089 71.3364C70.9156 71.4298 70.8223 71.6164 70.9156 71.8031C71.0556 72.0364 71.6156 72.8764 71.8023 72.9698C71.9889 73.0631 72.2223 72.9231 72.3156 72.8764C73.1089 72.3164 74.0889 71.4764 74.5556 70.8698C74.6956 70.6831 74.8823 70.7764 74.9756 71.0564C75.3956 72.6431 76.5623 73.9031 78.1489 74.4631C81.0423 75.4431 84.0756 74.0431 86.3623 71.5698C87.8089 69.9831 88.3223 69.0031 88.8823 68.3031C89.8156 67.1364 91.6822 64.5231 93.8756 62.8431C94.6689 62.2364 95.6489 61.7698 96.1156 62.0498C96.4889 62.2831 96.6289 62.8898 96.0222 64.0098C93.7822 68.1164 90.4689 72.9698 89.8622 74.1364C89.7689 74.3231 89.8623 74.5098 90.0489 74.5098H93.4556C93.6422 74.5098 93.7356 74.4164 93.7822 74.2764L98.8689 66.3431C98.9622 66.2031 99.0556 66.2964 99.0556 66.3898C99.1022 66.9964 99.2422 67.8364 99.6156 68.3964C100.269 69.4231 101.202 69.8431 102.229 69.8898C103.069 69.8898 103.489 69.7964 104.376 69.4231C105.122 69.1431 105.682 68.8164 106.149 68.4898C106.429 68.3031 106.476 68.6298 106.429 68.6764C106.009 70.8231 106.522 73.3898 108.669 74.4164C111.236 75.6764 114.036 73.9031 115.669 72.3164C115.809 72.1764 115.996 72.1764 115.996 72.5031C116.042 73.1098 116.322 73.8564 116.789 74.3698C118.142 75.7231 120.896 75.2098 123.602 73.0631C125.376 71.7098 127.196 69.7964 128.876 67.7431C128.922 67.6498 128.969 67.5564 128.876 67.4164C128.642 67.1364 128.269 66.8564 127.989 66.6231C127.896 66.5298 127.709 66.5764 127.616 66.6231C125.889 68.2564 124.396 70.0764 122.156 71.6164C121.409 72.1298 120.196 72.5498 119.682 71.8498C119.496 71.5698 119.496 71.1964 119.682 70.6831C120.336 69.0498 130.602 53.4631 131.116 52.5298C131.209 52.3898 131.116 52.2498 130.929 52.2498C129.856 52.2031 128.456 52.2031 127.382 52.2031ZM111.142 71.3831C110.629 71.1031 110.396 70.3564 110.396 69.7964C110.442 68.1164 111.189 66.3898 112.542 64.7098C114.222 62.6564 116.089 61.5831 117.302 62.1431C118.562 62.7498 118.142 64.1964 117.582 65.3631C117.536 65.4564 117.536 65.5498 117.582 65.5964C117.582 65.7364 117.769 65.8298 117.909 65.8764C117.956 65.8764 118.002 65.9231 117.956 66.0631C117.536 66.9964 117.116 67.5564 116.556 68.3498C116.042 69.0964 115.482 69.7031 114.782 70.2631C113.989 70.9164 112.962 71.6164 111.982 71.6164C111.702 71.6164 111.376 71.5231 111.142 71.3831Z" fill="url(#paint27_linear_11105_18884)"/>
<path d="M72.8735 42.7305L69.9335 42.8705C63.6335 43.3838 57.6601 46.9305 57.6135 52.3438C57.6135 55.0971 59.5735 57.2904 62.5601 57.1971C66.1068 57.0571 69.0001 54.2571 70.5401 50.6638C71.1001 49.3105 70.0268 48.7505 69.5601 49.5438C68.6735 50.9438 67.3668 52.0171 66.0135 52.7171C64.3335 53.5105 62.5601 53.3238 62.0468 51.9705C61.3001 50.0571 62.8868 47.2105 66.4801 45.8571C71.6601 43.9438 77.1201 45.2038 82.3468 46.1838C82.4401 46.1838 82.7201 46.3238 82.4401 46.4638C81.5068 46.9771 80.5734 47.3971 79.1268 48.6105C78.1001 49.4971 76.7468 50.6638 75.7201 51.9238C74.6935 53.1838 73.9468 54.3038 72.9668 55.5638C72.8268 55.7504 72.6868 55.7504 72.6868 55.7504C70.3068 56.1704 68.0201 56.4038 65.8735 57.8971C65.4535 58.1771 65.2668 58.7371 65.5001 59.1571C65.7335 59.5304 66.2935 59.5771 66.6668 59.2971C67.9735 58.3171 69.3268 57.8504 70.9135 57.8038C70.9601 57.8038 71.0068 57.8038 71.0535 57.8504V57.9438C68.7201 61.1638 68.1601 61.9104 66.3868 63.9171C65.5001 64.9438 64.6135 65.8304 63.6335 66.7171C59.6668 70.4038 55.3735 70.3571 53.8335 68.0238C52.9002 66.6238 53.0402 65.1771 53.6468 63.9638C54.3935 62.4704 55.8868 61.3971 57.1468 60.7438C57.6135 60.5104 57.7535 59.9038 57.2868 59.3904C57.0068 59.0171 56.2602 58.9704 55.7468 59.0638C54.1135 59.3438 52.2002 60.6038 51.0335 62.0971C49.7735 63.7771 49.1202 65.7838 49.3068 68.0238C49.6802 72.1304 53.0402 74.4638 56.8668 74.4638C59.9001 74.4171 62.7935 73.5304 66.2001 70.0304C69.4201 66.7638 72.3601 61.9104 75.0668 57.3838C75.1601 57.2438 75.2068 57.1504 75.6268 57.1038C77.5801 56.8522 79.5411 56.6654 81.5068 56.5438C81.8801 56.5438 81.9268 56.5438 82.0668 56.7304C82.4868 57.2438 83.1401 57.7104 83.6534 57.9904C83.8868 58.1304 84.0268 58.1771 84.2134 58.1771C84.4468 58.1771 84.6334 58.0371 84.7734 57.8971C84.9601 57.7104 85.0068 57.4771 84.9134 57.2904C84.8201 57.1038 83.7001 56.4971 83.6534 56.2638C83.6068 56.1238 83.7934 56.0771 83.7934 56.0771C84.6334 55.7971 85.4734 55.2838 86.0334 54.2571C86.5468 53.2771 86.6401 51.9238 85.7068 51.2238C84.8668 50.5705 83.6068 50.6638 82.6268 51.5971C81.6468 52.4838 81.3201 53.7438 81.4601 54.8638C81.4601 55.0504 81.4601 55.1438 81.2268 55.1438C79.7334 55.2838 78.2868 55.2838 76.6535 55.3771C76.5601 55.3771 76.5135 55.3304 76.5601 55.2371C78.4268 52.0171 81.1801 49.7305 84.2601 47.4438C84.4468 47.3038 84.4001 47.0238 84.4001 46.7438C89.9534 47.9571 95.2734 50.1971 101.013 50.1505C103.393 50.1505 105.68 49.7771 107.827 48.5638C109.74 47.5371 110.533 46.5571 110.58 45.5771C110.627 44.8771 110.16 44.4571 109.46 44.5971C103.673 45.9505 98.1201 45.9038 92.3334 45.2038C85.7068 44.3638 79.4068 42.7305 72.8735 42.7305ZM82.8601 54.3505C82.7668 53.7438 82.9534 52.9038 83.6534 52.3438C83.9801 52.0638 84.4468 51.9705 84.6801 52.2038C85.0068 52.4838 84.8201 53.1371 84.5401 53.5571C84.2134 54.0705 83.6068 54.4905 83.0934 54.5838H83.0468C83.0001 54.6305 82.9068 54.5838 82.8601 54.3505Z" fill="url(#paint28_linear_11105_18884)"/>
</g>
<defs>
<radialGradient id="paint0_radial_11105_18884" cx="0" cy="0" r="1" gradientUnits="userSpaceOnUse" gradientTransform="translate(89.3922 323.387) scale(302.239 294.714)">
<stop stop-color="#00050D"/>
<stop offset="0.7" stop-color="#051125"/>
<stop offset="0.905" stop-color="#173E7E"/>
<stop offset="0.955" stop-color="#4CA9E3"/>
<stop offset="1" stop-color="#4CA9E3"/>
</radialGradient>
<linearGradient id="paint1_linear_11105_18884" x1="89.8838" y1="86.8437" x2="89.8838" y2="33.4945" gradientUnits="userSpaceOnUse">
<stop stop-color="#08142E"/>
<stop offset="0.809" stop-color="#17326E"/>
<stop offset="1" stop-color="#0D69A9"/>
</linearGradient>
<linearGradient id="paint2_linear_11105_18884" x1="90.7474" y1="86.8503" x2="90.7474" y2="33.4963" gradientUnits="userSpaceOnUse">
<stop stop-color="#08142E"/>
<stop offset="0.809" stop-color="#17326E"/>
<stop offset="1" stop-color="#0D69A9"/>
</linearGradient>
<linearGradient id="paint3_linear_11105_18884" x1="101.955" y1="77.6704" x2="101.955" y2="40.7058" gradientUnits="userSpaceOnUse">
<stop stop-color="#08142E"/>
<stop offset="0.809" stop-color="#17326E"/>
<stop offset="1" stop-color="#0D69A9"/>
</linearGradient>
<linearGradient id="paint4_linear_11105_18884" x1="117.747" y1="77.8318" x2="117.747" y2="40.3744" gradientUnits="userSpaceOnUse">
<stop stop-color="#08142E"/>
<stop offset="0.809" stop-color="#17326E"/>
<stop offset="1" stop-color="#0D69A9"/>
</linearGradient>
<linearGradient id="paint5_linear_11105_18884" x1="120.052" y1="76.3688" x2="120.052" y2="42.0558" gradientUnits="userSpaceOnUse">
<stop stop-color="#08142E"/>
<stop offset="0.809" stop-color="#17326E"/>
<stop offset="1" stop-color="#0D69A9"/>
</linearGradient>
<linearGradient id="paint6_linear_11105_18884" x1="99.4028" y1="76.8608" x2="99.4028" y2="41.3923" gradientUnits="userSpaceOnUse">
<stop stop-color="#08142E"/>
<stop offset="0.809" stop-color="#17326E"/>
<stop offset="1" stop-color="#0D69A9"/>
</linearGradient>
<linearGradient id="paint7_linear_11105_18884" x1="114.241" y1="77.8153" x2="114.241" y2="40.4181" gradientUnits="userSpaceOnUse">
<stop stop-color="#08142E"/>
<stop offset="0.809" stop-color="#17326E"/>
<stop offset="1" stop-color="#0D69A9"/>
</linearGradient>
<linearGradient id="paint8_linear_11105_18884" x1="81.8923" y1="77.7835" x2="81.8923" y2="40.3947" gradientUnits="userSpaceOnUse">
<stop stop-color="#08142E"/>
<stop offset="0.809" stop-color="#17326E"/>
<stop offset="1" stop-color="#0D69A9"/>
</linearGradient>
<linearGradient id="paint9_linear_11105_18884" x1="98.0522" y1="77.7906" x2="98.0522" y2="40.6571" gradientUnits="userSpaceOnUse">
<stop stop-color="#08142E"/>
<stop offset="0.809" stop-color="#17326E"/>
<stop offset="1" stop-color="#0D69A9"/>
</linearGradient>
<linearGradient id="paint10_linear_11105_18884" x1="117.82" y1="77.8049" x2="117.82" y2="40.3993" gradientUnits="userSpaceOnUse">
<stop stop-color="#08142E"/>
<stop offset="0.809" stop-color="#17326E"/>
<stop offset="1" stop-color="#0D69A9"/>
</linearGradient>
<linearGradient id="paint11_linear_11105_18884" x1="105.138" y1="77.8225" x2="105.138" y2="40.3935" gradientUnits="userSpaceOnUse">
<stop stop-color="#08142E"/>
<stop offset="0.809" stop-color="#17326E"/>
<stop offset="1" stop-color="#0D69A9"/>
</linearGradient>
<linearGradient id="paint12_linear_11105_18884" x1="125.549" y1="77.7864" x2="125.549" y2="40.3901" gradientUnits="userSpaceOnUse">
<stop stop-color="#08142E"/>
<stop offset="0.809" stop-color="#17326E"/>
<stop offset="1" stop-color="#0D69A9"/>
</linearGradient>
<linearGradient id="paint13_linear_11105_18884" x1="89.416" y1="77.4014" x2="89.416" y2="40.8685" gradientUnits="userSpaceOnUse">
<stop stop-color="#08142E"/>
<stop offset="0.809" stop-color="#17326E"/>
<stop offset="1" stop-color="#0D69A9"/>
</linearGradient>
<linearGradient id="paint14_linear_11105_18884" x1="83.5844" y1="77.7906" x2="83.5844" y2="40.6458" gradientUnits="userSpaceOnUse">
<stop stop-color="#08142E"/>
<stop offset="0.809" stop-color="#17326E"/>
<stop offset="1" stop-color="#0D69A9"/>
</linearGradient>
<linearGradient id="paint15_linear_11105_18884" x1="55.3879" y1="77.7851" x2="55.3879" y2="40.3903" gradientUnits="userSpaceOnUse">
<stop stop-color="#08142E"/>
<stop offset="0.809" stop-color="#17326E"/>
<stop offset="1" stop-color="#0D69A9"/>
</linearGradient>
<linearGradient id="paint16_linear_11105_18884" x1="72.1128" y1="77.8048" x2="72.1128" y2="40.4178" gradientUnits="userSpaceOnUse">
<stop stop-color="#08142E"/>
<stop offset="0.809" stop-color="#17326E"/>
<stop offset="1" stop-color="#0D69A9"/>
</linearGradient>
<linearGradient id="paint17_linear_11105_18884" x1="67.2451" y1="77.7923" x2="67.2451" y2="40.3961" gradientUnits="userSpaceOnUse">
<stop stop-color="#08142E"/>
<stop offset="0.809" stop-color="#17326E"/>
<stop offset="1" stop-color="#0D69A9"/>
</linearGradient>
<linearGradient id="paint18_linear_11105_18884" x1="68.1243" y1="77.8174" x2="68.1243" y2="40.403" gradientUnits="userSpaceOnUse">
<stop stop-color="#08142E"/>
<stop offset="0.809" stop-color="#17326E"/>
<stop offset="1" stop-color="#0D69A9"/>
</linearGradient>
<linearGradient id="paint19_linear_11105_18884" x1="110.338" y1="77.1065" x2="110.338" y2="40.5053" gradientUnits="userSpaceOnUse">
<stop stop-color="#08142E"/>
<stop offset="0.809" stop-color="#17326E"/>
<stop offset="1" stop-color="#0D69A9"/>
</linearGradient>
<linearGradient id="paint20_linear_11105_18884" x1="93.5861" y1="77.7914" x2="93.5861" y2="40.3994" gradientUnits="userSpaceOnUse">
<stop stop-color="#08142E"/>
<stop offset="0.809" stop-color="#17326E"/>
<stop offset="1" stop-color="#0D69A9"/>
</linearGradient>
<linearGradient id="paint21_linear_11105_18884" x1="83.8749" y1="76.5234" x2="83.8749" y2="41.1968" gradientUnits="userSpaceOnUse">
<stop stop-color="#08142E"/>
<stop offset="0.809" stop-color="#17326E"/>
<stop offset="1" stop-color="#0D69A9"/>
</linearGradient>
<linearGradient id="paint22_linear_11105_18884" x1="85.0718" y1="77.8029" x2="85.0718" y2="40.4066" gradientUnits="userSpaceOnUse">
<stop stop-color="#08142E"/>
<stop offset="0.809" stop-color="#17326E"/>
<stop offset="1" stop-color="#0D69A9"/>
</linearGradient>
<linearGradient id="paint23_linear_11105_18884" x1="64.5742" y1="77.8043" x2="64.5742" y2="40.4071" gradientUnits="userSpaceOnUse">
<stop stop-color="#08142E"/>
<stop offset="0.809" stop-color="#17326E"/>
<stop offset="1" stop-color="#0D69A9"/>
</linearGradient>
<linearGradient id="paint24_linear_11105_18884" x1="74.6192" y1="98.8146" x2="58.4454" y2="38.4541" gradientUnits="userSpaceOnUse">
<stop stop-color="#B2B1B1"/>
<stop offset="0.35" stop-color="#DEDDDE"/>
<stop offset="0.65" stop-color="#DEDDDE"/>
<stop offset="1" stop-color="#B2B1B1"/>
</linearGradient>
<linearGradient id="paint25_linear_11105_18884" x1="117.183" y1="65.7464" x2="101.085" y2="5.6655" gradientUnits="userSpaceOnUse">
<stop stop-color="#B2B1B1"/>
<stop offset="0.35" stop-color="#DEDDDE"/>
<stop offset="0.65" stop-color="#DEDDDE"/>
<stop offset="1" stop-color="#B2B1B1"/>
</linearGradient>
<linearGradient id="paint26_linear_11105_18884" x1="90.0013" y1="33.1387" x2="90.0013" y2="86.7628" gradientUnits="userSpaceOnUse">
<stop stop-color="white"/>
<stop offset="0.552" stop-color="white"/>
<stop offset="0.691" stop-color="#FAFAFA"/>
<stop offset="0.8" stop-color="#D3D2D2"/>
<stop offset="1" stop-color="#BDBCBC"/>
</linearGradient>
<linearGradient id="paint27_linear_11105_18884" x1="100.971" y1="50.2856" x2="100.971" y2="76.88" gradientUnits="userSpaceOnUse">
<stop stop-color="white"/>
<stop offset="0.552" stop-color="white"/>
<stop offset="0.691" stop-color="#EFEEEE"/>
<stop offset="0.8" stop-color="#E9E9E9"/>
<stop offset="1" stop-color="#D3D2D2"/>
</linearGradient>
<linearGradient id="paint28_linear_11105_18884" x1="79.8044" y1="40.1689" x2="79.8044" y2="77.0603" gradientUnits="userSpaceOnUse">
<stop stop-color="white"/>
<stop offset="0.552" stop-color="white"/>
<stop offset="0.691" stop-color="#EFEEEE"/>
<stop offset="0.8" stop-color="#E9E9E9"/>
<stop offset="1" stop-color="#D3D2D2"/>
</linearGradient>
<clipPath id="clip0_11105_18884">
<rect width="140" height="54" fill="white" transform="translate(20 33)"/>
</clipPath>
</defs>
</svg>
