<svg width="64" height="64" viewBox="0 0 64 64" fill="none" xmlns="http://www.w3.org/2000/svg">
<path d="M63.8079 31.0817C63.8292 31.1457 63.8292 31.1884 63.8292 31.2524C63.8292 31.1884 63.8079 31.1457 63.8079 31.0817ZM31.9999 20.0098C14.2293 20.0098 0 25.3431 0 31.9991C0 38.6337 14.3573 43.9884 31.9999 43.9884C49.6426 43.9884 63.9999 38.6124 63.9999 31.9991C63.9999 25.3858 49.6426 20.0098 31.9999 20.0098Z" fill="#D3D2D2"/>
<path d="M0.492188 31.9985C0.492188 38.3558 14.5935 43.5185 32.0015 43.5185C49.4094 43.5185 63.5108 38.3772 63.5108 31.9985C63.5108 25.6412 49.4094 20.4785 32.0015 20.4785C14.5935 20.4785 0.492188 25.6412 0.492188 31.9985Z" fill="url(#paint0_radial_11091_17559)"/>
<path d="M2.85938 31.9987C2.85938 32.4253 2.94471 32.852 3.11537 33.2787C3.05137 33.0013 3.00871 32.724 3.00871 32.4467C3.00871 27.1773 16.0434 22.9107 32.15 22.9107C46.9553 22.9107 59.1793 26.516 61.0353 31.2093C59.798 26.2813 47.2753 22.42 32.0007 22.42C15.9154 22.3987 2.85938 26.708 2.85938 31.9987Z" fill="url(#paint1_linear_11091_17559)"/>
<path d="M62.1852 31.9995C62.1852 37.8022 48.6598 42.5168 31.9985 42.5168C17.1506 42.5168 4.81991 38.7835 2.28125 33.8768C4.22258 38.9968 16.8732 42.9435 32.2119 42.9435C48.8945 42.9435 62.3985 38.2715 62.3985 32.5328C62.3985 31.9568 62.2492 31.3808 61.9932 30.8262C62.1212 31.1888 62.1852 31.5942 62.1852 31.9995Z" fill="url(#paint2_linear_11091_17559)"/>
<path d="M37.6337 33.0224C36.951 33.7264 36.9084 34.6437 37.3564 35.049C37.5057 35.1984 37.6977 35.2624 37.8897 35.2837C37.591 34.921 37.463 34.1957 37.8257 33.641C37.7617 33.4704 37.7404 33.2784 37.783 33.0864C37.783 33.0437 37.7617 33.001 37.719 33.001C37.6764 32.9797 37.655 33.001 37.6337 33.0224Z" fill="url(#paint3_linear_11091_17559)"/>
<path d="M44.6097 34.5156C44.6097 34.6223 44.6524 34.8143 44.6737 34.9636C44.7164 34.8996 44.7377 34.8356 44.7804 34.7503C44.8017 34.6863 44.8017 34.6863 44.7591 34.665C44.6951 34.6436 44.6097 34.5796 44.6097 34.537C44.5884 34.537 44.5884 34.537 44.6097 34.5156Z" fill="url(#paint4_linear_11091_17559)"/>
<path d="M45.4219 32.2129C45.6565 32.4262 45.7845 32.6822 45.8059 32.9382C45.8059 33.0449 45.9125 33.0662 45.9765 32.9596C45.9979 32.9382 46.0192 32.8956 46.0405 32.8529C46.0192 32.8316 45.9979 32.8102 45.9765 32.7676C45.8912 32.6609 45.6565 32.4262 45.4219 32.2129Z" fill="url(#paint5_linear_11091_17559)"/>
<path d="M36.0547 31.7852C36.2254 32.0412 36.3107 32.3825 36.3107 32.8305C36.3107 32.9372 36.396 32.9372 36.4387 32.8518C36.46 32.8092 36.5027 32.7665 36.524 32.7238C36.4174 32.3185 36.204 31.9345 36.0547 31.7852Z" fill="url(#paint6_linear_11091_17559)"/>
<path d="M42.3016 34.1319C41.6616 34.8999 41.3203 35.6892 41.3203 36.4572C41.3203 36.7345 41.427 37.0759 41.6616 37.1825C41.747 37.2252 41.811 37.2465 41.8963 37.2679C41.875 37.1612 41.8536 37.0545 41.8536 36.9692C41.8536 36.1799 42.0883 35.3905 42.7283 34.6012C43.4963 33.6625 44.307 33.1932 44.8616 33.4492C44.8403 33.2359 44.7336 33.0652 44.499 32.9585C44.3923 32.9159 44.2856 32.8945 44.1576 32.8945C43.603 32.8945 42.9203 33.3639 42.3016 34.1319Z" fill="url(#paint7_linear_11091_17559)"/>
<path d="M29.6298 32.4889C28.7765 32.8089 27.9232 33.3209 27.3258 34.1102C26.6432 35.0062 26.4725 36.0942 26.9205 36.7342C27.0272 36.8835 27.1552 36.9902 27.3045 37.0542C27.0698 36.3075 27.2405 35.3049 27.8165 34.5369C28.4138 33.7475 29.0752 33.4489 29.8218 33.1075C29.9285 33.0649 29.9285 33.0009 29.9072 32.9155C29.8645 32.7662 29.7792 32.3822 29.7365 32.2969C29.7578 32.4035 29.7365 32.4675 29.6298 32.4889Z" fill="url(#paint8_linear_11091_17559)"/>
<path d="M36.0293 34.9001L33.704 38.5267C33.6613 38.5907 33.6186 38.6121 33.5546 38.6334H31.9973C31.9333 38.6334 31.912 38.6121 31.8906 38.5694L32.0186 39.1881C32.04 39.2521 32.0826 39.2734 32.1253 39.2734H33.896C33.96 39.2734 34.024 39.2307 34.0453 39.1667L36.264 35.6894C36.4346 36.2654 36.4986 36.5214 36.8186 36.7988C37.1173 37.0761 37.3946 37.1401 37.8213 37.1401C38.2053 37.1401 38.5679 36.9908 39.0159 36.7988C39.1866 36.7348 39.3146 36.6494 39.4426 36.5641C39.4426 36.3508 39.4639 36.1374 39.5066 35.9454C39.5066 35.9241 39.4853 35.7961 39.3786 35.8601C39.1653 36.0094 38.9093 36.1588 38.5679 36.2868C38.1626 36.4361 37.9706 36.5001 37.5866 36.5001C37.1173 36.5001 36.6906 36.2868 36.392 35.8174C36.2213 35.5614 36.1573 35.1774 36.136 34.9001C36.136 34.8788 36.1146 34.8574 36.0933 34.8574C36.072 34.8788 36.0506 34.8788 36.0293 34.9001Z" fill="url(#paint9_linear_11091_17559)"/>
<path d="M49.767 35.5406C48.999 36.4792 48.167 37.3539 47.3564 37.9726C46.0977 38.9539 44.8604 39.1886 44.2417 38.5699C44.007 38.3352 43.879 38.0152 43.879 37.7166C43.879 37.5672 43.7937 37.5672 43.7297 37.6312C42.983 38.3566 41.703 39.1672 40.5297 38.5912C39.9537 38.2926 39.6337 37.7592 39.5057 37.1619C39.5697 37.5886 39.6764 38.2072 39.8684 38.5912C39.9964 38.8472 40.295 39.1459 40.487 39.2312C41.5324 39.7432 43.0044 39.1672 43.9644 38.2499C43.9644 38.2286 43.9857 38.2286 43.9857 38.2286C44.0284 38.3992 44.0924 38.5912 44.0924 38.6126C44.1564 38.8259 44.263 39.0179 44.3484 39.1246C45.0097 39.8712 46.375 39.5299 47.8257 38.4206C48.6364 37.8019 49.2337 37.1832 49.959 36.3299C49.9804 36.2872 49.9804 36.2446 49.9804 36.1592L49.831 35.4766C49.7884 35.4766 49.7884 35.5192 49.767 35.5406Z" fill="url(#paint10_linear_11091_17559)"/>
<path d="M39.8527 32.9596C39.7887 33.4289 39.5327 33.8342 39.106 34.0476C38.7434 34.2182 38.3167 34.1969 38.018 33.9196C37.9327 33.8342 37.8687 33.7276 37.8047 33.6209C37.89 33.9622 37.954 34.2182 38.0394 34.3676C38.3167 34.7942 38.8074 34.9009 39.3407 34.6022C39.7247 34.3889 40.066 33.9409 40.0234 33.2369C40.002 32.8742 39.8954 32.5116 39.7247 32.2129C39.8508 32.4401 39.8959 32.7034 39.8527 32.9596Z" fill="url(#paint11_linear_11091_17559)"/>
<path d="M50.7911 28.564C50.5564 28.9907 45.8631 36.116 45.5644 36.8627C45.4791 37.0973 45.4577 37.268 45.5644 37.396C45.6711 37.524 45.7991 37.5667 45.9697 37.5667C45.9911 37.4813 46.0124 37.3747 46.0551 37.268C46.3537 36.5213 50.7484 29.8653 50.9831 29.4387C51.0044 29.396 51.0044 29.3533 50.9831 29.332C50.9617 29.268 50.8124 28.564 50.8124 28.5C50.8124 28.5213 50.8124 28.5427 50.7911 28.564Z" fill="url(#paint12_linear_11091_17559)"/>
<path d="M31.3359 31.8926L31.3786 31.9352C31.6559 32.3619 31.8053 32.9379 31.8266 33.5566C31.8479 33.6846 31.8906 33.6846 31.9546 33.6206C32.0186 33.5566 32.0613 33.4926 32.1253 33.4499C32.0399 33.1299 31.9119 32.8312 31.7839 32.5539C31.7413 32.4259 31.5279 32.0632 31.3359 31.8926Z" fill="url(#paint13_linear_11091_17559)"/>
<path d="M33.7283 33.2996C32.7256 34.0676 31.8723 35.2622 31.4456 35.7956C31.1896 36.1156 30.9549 36.5636 30.2936 37.2889C29.2483 38.4196 27.8616 39.0809 26.5389 38.6116C25.8136 38.3769 25.2803 37.7796 25.0883 37.0542C25.0456 36.9049 24.9603 36.8836 24.8963 36.9689C24.6829 37.2462 24.2349 37.6302 23.8723 37.8862C23.8296 37.9076 23.7229 37.9716 23.6376 37.9289C23.5523 37.8862 23.2963 37.5022 23.2323 37.3956C23.2323 37.3742 23.2109 37.3742 23.2109 37.3529C23.2963 37.8222 23.3176 37.8862 23.4456 38.0996C23.5949 38.3342 23.7443 38.5049 23.7656 38.5262C23.8509 38.5689 23.9363 38.5262 23.9789 38.5049C24.2563 38.3556 24.8109 37.9289 25.0669 37.6302C25.1309 37.5662 25.2163 37.6089 25.2376 37.6729C25.3443 37.9929 25.4936 38.2276 25.6429 38.5049C25.8136 38.8036 26.1763 39.1022 26.6456 39.2302C27.2429 39.4009 27.9043 39.4222 28.7576 39.1022C29.4403 38.8462 30.1656 38.3129 30.7203 37.6942C31.3816 36.9689 31.6163 36.5209 31.8723 36.2009C32.2989 35.6676 32.9816 34.7289 33.9203 33.9182C34.2403 33.6409 34.6029 33.4489 34.8376 33.5342C34.9656 33.1929 34.9016 33.0009 34.7736 32.8942C34.7309 32.8729 34.6669 32.8516 34.6029 32.8516C34.3469 32.8942 34.0269 33.0862 33.7283 33.2996Z" fill="url(#paint14_linear_11091_17559)"/>
<path d="M16.9151 32.3395C16.3391 32.6382 15.6565 33.1289 15.3151 33.8115C15.0378 34.3662 14.9951 35.0275 15.4005 35.6675C15.4431 35.7102 15.4645 35.7742 15.5071 35.8169C15.3791 35.2835 15.5285 34.7289 15.7205 34.3022C16.0618 33.6195 16.5311 33.2995 17.0005 33.0009C17.1925 32.8729 17.2991 32.7449 17.1711 32.4249C17.1285 32.3395 17.1071 32.1689 17.0858 32.0195C17.1071 32.1475 17.0431 32.2755 16.9151 32.3395Z" fill="url(#paint15_linear_11091_17559)"/>
<path d="M21.203 25.5357C19.5603 26.1544 18.835 27.4557 19.1763 28.3304C19.2403 28.5011 19.347 28.6291 19.4963 28.7144C19.3896 27.9037 19.987 26.6024 21.5656 26.0691C23.635 25.3864 25.9389 25.8131 27.7949 26.2184C28.0509 26.0477 28.2856 25.9411 28.4989 25.8131C28.6056 25.7491 28.4776 25.6851 28.4563 25.6851C26.9843 25.4077 25.4483 25.0664 23.955 25.0664C23.0163 25.0664 22.099 25.1944 21.203 25.5357Z" fill="url(#paint16_linear_11091_17559)"/>
<path d="M28.0935 30.4196C27.1949 30.4752 26.2984 30.5606 25.4055 30.6756C25.2135 30.697 25.1921 30.7396 25.1495 30.8036C23.8908 32.873 22.5682 35.0916 21.0962 36.585C19.5175 38.185 18.2162 38.6116 16.8295 38.6116C15.2295 38.633 13.8002 37.7156 13.4375 36.1156C13.6295 37.0116 14.2055 38.0783 14.8668 38.5476C15.5495 39.017 16.2108 39.1876 16.9788 39.1876C18.5575 39.209 20.0082 38.569 21.5442 37.0116C23.0162 35.5183 24.2961 33.4276 25.5335 31.3583C25.5761 31.2943 25.6188 31.2516 25.8321 31.2303C26.6215 31.1236 27.3255 31.081 28.0295 31.017C28.2428 30.9956 28.3921 30.9743 28.4775 31.0596C28.7335 31.3156 29.0108 31.5503 29.2241 31.657C29.3521 31.657 29.4588 31.6783 29.5441 31.7636C29.6295 31.7423 29.6935 31.6996 29.7575 31.657C29.8428 31.5716 29.8428 31.465 29.8428 31.3796C29.8215 31.209 29.7575 30.8676 29.7148 30.7823C29.7575 30.8463 29.7361 30.953 29.6508 31.0383C29.5868 31.1023 29.5015 31.1663 29.3948 31.1663C29.3095 31.1663 29.2455 31.1236 29.1388 31.081C28.9041 30.953 28.6055 30.7396 28.4135 30.505C28.3708 30.441 28.3281 30.4196 28.2428 30.4196C28.1575 30.3983 28.1361 30.4196 28.0935 30.4196Z" fill="url(#paint17_linear_11091_17559)"/>
<path d="M21.311 31.6573C21.1404 31.7853 20.8844 31.7639 20.7777 31.5933C20.735 31.5293 20.7137 31.4653 20.7137 31.4226C20.6924 31.6999 20.799 32.0839 20.8844 32.2119C20.9697 32.3613 21.247 32.4253 21.4604 32.2759C21.9297 31.9133 22.3777 31.7213 22.847 31.6146L23.2524 31.0386C23.2737 31.0173 23.2737 30.9959 23.2524 30.9959C23.2524 30.9746 23.231 30.9746 23.1884 30.9746C22.527 30.9959 21.9084 31.2093 21.311 31.6573Z" fill="url(#paint18_linear_11091_17559)"/>
<path d="M41.2812 25.0879C41.2812 25.1092 41.3026 25.1092 41.3026 25.1306C41.3026 25.1092 41.3026 25.0879 41.2812 25.0879Z" fill="url(#paint19_linear_11091_17559)"/>
<path d="M41.3616 25.3857C41.3403 25.8337 40.9776 26.2817 40.1029 26.751C39.1003 27.3057 38.0763 27.455 36.9883 27.4763C34.3643 27.4977 31.911 26.4737 29.3936 25.919C29.3936 26.0257 29.415 26.1537 29.3296 26.239C27.9216 27.2843 26.663 28.3297 25.8096 29.8017C25.7883 29.8443 25.7883 29.8657 25.8523 29.8657C26.087 29.8443 26.3003 29.8443 26.5136 29.823C27.2816 28.607 28.1136 27.9243 29.3723 26.9857C29.4576 26.9217 29.5643 26.8577 29.5216 26.6017C32.0603 27.1563 33.9803 28.095 37.2656 28.1163C38.2469 28.1163 39.6123 27.7963 40.3589 27.3483C41.2123 26.8363 41.4469 26.4523 41.4683 26.0683C41.4683 25.9403 41.4469 25.7483 41.4256 25.663C41.4043 25.535 41.3829 25.3643 41.3403 25.2363C41.3616 25.2577 41.3616 25.3217 41.3616 25.3857Z" fill="url(#paint20_linear_11091_17559)"/>
<path d="M29.1435 28.4797C29.1222 28.501 29.0795 28.5437 29.0369 28.565C28.7809 28.821 28.7169 29.1624 28.7382 29.4184C28.7595 29.525 28.8022 29.5464 28.8449 29.525C28.8875 29.525 28.9515 29.5037 28.9942 29.4824C29.0155 29.333 29.0795 29.205 29.2075 29.077C29.3142 28.9917 29.4422 28.949 29.5489 28.9704C29.6555 28.7784 29.6769 28.5437 29.5489 28.437C29.5062 28.3944 29.4422 28.373 29.3569 28.373C29.3142 28.3944 29.2289 28.4157 29.1435 28.4797Z" fill="url(#paint21_linear_11091_17559)"/>
<path d="M30.1461 29.375C29.9114 29.8443 29.5061 30.079 29.1221 30.207C29.1221 30.207 29.0368 30.2283 29.0581 30.2923C29.0581 30.3776 29.3354 30.5483 29.5061 30.655C29.5274 30.655 29.5701 30.6336 29.5701 30.6336C29.7621 30.5483 30.0821 30.3563 30.2741 29.951C30.4021 29.695 30.4661 29.4816 30.4021 29.0123C30.3594 28.6923 30.2954 28.3936 30.2101 28.2656C30.4021 28.607 30.3381 29.0336 30.1461 29.375Z" fill="url(#paint22_linear_11091_17559)"/>
<path d="M23.1449 27.2207C23.1876 27.3274 23.1876 27.5194 23.1022 27.7327C22.3982 29.3754 21.0756 30.6554 19.4542 30.7194C18.4729 30.7407 17.7476 30.25 17.4062 29.5247C17.6622 30.0794 18.1742 30.57 18.6222 30.8474C18.9636 31.0607 19.4116 31.1887 19.9022 31.1674C21.5876 31.1034 22.8676 29.7167 23.2942 28.5434C23.4009 28.2234 23.3156 27.882 23.2729 27.6687C23.2302 27.562 23.2089 27.37 23.1449 27.2207Z" fill="url(#paint23_linear_11091_17559)"/>
<path d="M63.8079 31.0817C63.8292 31.1457 63.8292 31.1884 63.8292 31.2524C63.8292 31.1884 63.8079 31.1457 63.8079 31.0817ZM0.213333 32.1484C0.213333 30.7404 0.831999 29.3538 2.13333 28.0311C6.71999 23.4018 18.7093 20.2871 31.9359 20.2231C49.4719 20.1591 63.7439 25.3858 63.7866 31.8711C63.7866 33.2791 63.1466 34.6444 61.8452 35.9671C57.2586 40.5964 45.2906 43.7324 32.0639 43.7751C14.528 43.8604 0.256 38.6337 0.213333 32.1484ZM31.9999 20.0098C14.2293 20.0098 0 25.3431 0 31.9991C0 38.6337 14.3573 43.9884 31.9999 43.9884C49.6426 43.9884 63.9999 38.6124 63.9999 31.9991C63.9999 25.3858 49.6426 20.0098 31.9999 20.0098Z" fill="#4F4C4D"/>
<path d="M0.109375 31.9998C0.109375 32.3198 0.152042 32.6185 0.216041 32.9385C0.173375 32.6825 0.130708 32.4052 0.130708 32.1492C0.130708 30.7198 0.770707 29.2905 2.07204 27.9678C6.68003 23.3172 18.6907 20.1812 31.9387 20.1385C33.7733 20.1385 35.5867 20.1812 37.336 20.2879C35.608 20.1812 33.816 20.1172 32.0027 20.1172C14.3174 20.1172 0.109375 25.4078 0.109375 31.9998Z" fill="url(#paint24_linear_11091_17559)"/>
<path d="M63.8723 31.8706C63.8723 33.2999 63.211 34.7079 61.8883 36.0306C57.3017 40.6599 45.291 43.8173 32.0431 43.8813C30.1657 43.8813 28.3311 43.8386 26.5391 43.7319C28.3097 43.8386 30.1231 43.9026 31.9791 43.9026C49.579 43.9026 63.8723 38.5266 63.8723 31.9986C63.8722 31.7484 63.8508 31.4986 63.8083 31.252C63.8723 31.4653 63.8723 31.6786 63.8723 31.8706Z" fill="url(#paint25_linear_11091_17559)"/>
<path d="M1.78906 31.9999C1.78906 37.8025 15.3144 42.5172 31.9757 42.5172C48.6583 42.5172 62.1623 37.8025 62.1623 31.9999C62.1836 26.1972 48.6797 21.5039 31.997 21.5039C15.3144 21.5039 1.78906 26.1972 1.78906 31.9999ZM2.85573 31.9999C2.85573 26.6879 15.8904 22.3999 31.997 22.3999C48.0823 22.3999 61.1383 26.6879 61.1383 31.9999C61.1383 37.3119 48.1037 41.5999 31.997 41.5999C15.9117 41.5999 2.85573 37.3119 2.85573 31.9999Z" fill="url(#paint26_linear_11091_17559)"/>
<path d="M49.0888 28.4355C48.9608 28.4355 48.9181 28.4569 48.8541 28.5635C48.6621 28.9262 46.4008 32.2969 45.9955 32.9582C45.9314 33.0649 45.8461 33.0435 45.8248 32.9369C45.7821 32.5529 45.4408 32.1049 44.9075 31.8915C44.5021 31.7209 44.0968 31.6995 43.6915 31.7422C42.9448 31.8489 42.2835 32.2329 41.7075 32.6809C40.8328 33.3422 40.0648 34.2169 39.1048 34.8569C38.5715 35.1982 37.8461 35.5182 37.3555 35.0489C36.9075 34.6435 36.9715 33.7262 37.6328 33.0222C37.6968 32.9582 37.7821 33.0009 37.7821 33.0862C37.7181 33.4062 37.8035 33.7262 38.0381 33.9395C38.3368 34.1955 38.7635 34.2382 39.1261 34.0675C39.5528 33.8542 39.8088 33.4489 39.8728 32.9795C39.9795 32.2542 39.4248 31.6355 38.7421 31.5715C38.1875 31.5289 37.6328 31.7209 37.1208 32.1689C36.8648 32.3822 36.7155 32.5529 36.4808 32.8729C36.4168 32.9582 36.3315 32.9582 36.3528 32.8515C36.3741 31.9342 35.9901 31.4222 35.2435 31.4009C34.6461 31.3795 34.0275 31.6995 33.5368 32.1049C33.0035 32.5315 32.5341 33.1075 32.0221 33.6409C31.9581 33.7049 31.8941 33.7049 31.8941 33.5769C31.8728 32.9582 31.7235 32.3822 31.4461 31.9555C31.3395 31.8062 31.1261 31.7422 30.9555 31.8275C30.8701 31.8702 30.5928 31.9982 30.3795 32.1689C30.2728 32.2542 30.2301 32.3822 30.2728 32.5315C30.5501 33.4489 30.4861 34.4729 30.1235 35.3475C29.7821 36.1582 29.1208 36.8622 28.3528 37.1182C27.8408 37.2889 27.3075 37.2035 26.9875 36.7555C26.5395 36.1369 26.7101 35.0489 27.3928 34.1315C27.9901 33.3422 28.8435 32.8302 29.6968 32.5102C29.8035 32.4675 29.8248 32.4035 29.7821 32.3182C29.7395 32.1689 29.6541 31.9769 29.6328 31.8915C29.5475 31.6782 29.3341 31.6569 29.0568 31.6782C28.4381 31.7422 27.8835 31.9555 27.3075 32.2542C25.8568 33.0222 25.1315 34.5369 24.8115 35.3475C24.6622 35.7315 24.5341 35.9662 24.3635 36.1795C24.1288 36.4782 23.8515 36.7342 23.3182 37.1822C23.2755 37.2249 23.2328 37.3102 23.2755 37.3955C23.3395 37.5022 23.5955 37.8862 23.6808 37.9289C23.7662 37.9715 23.8728 37.9075 23.9155 37.8862C24.2782 37.6302 24.7262 37.2462 24.9395 36.9689C25.0035 36.8835 25.0888 36.9262 25.1315 37.0542C25.3235 37.7795 25.8568 38.3555 26.5821 38.6115C27.9048 39.0595 29.2915 38.4195 30.3368 37.2889C30.9981 36.5635 31.2328 36.1155 31.4888 35.7955C31.9155 35.2622 32.7688 34.0675 33.7715 33.2995C34.1341 33.0222 34.5821 32.8089 34.7955 32.9369C34.9661 33.0435 35.0301 33.3209 34.7528 33.8329C33.7288 35.7102 32.2141 37.9289 31.9368 38.4622C31.8941 38.5475 31.9368 38.6329 32.0221 38.6329H33.5795C33.6648 38.6329 33.7075 38.5902 33.7288 38.5262L36.0541 34.8995C36.0968 34.8355 36.1395 34.8782 36.1395 34.9209C36.1608 35.1982 36.2248 35.5822 36.3955 35.8382C36.6941 36.3075 37.1208 36.4995 37.5901 36.5209C37.9741 36.5209 38.1661 36.4782 38.5715 36.3075C38.9128 36.1795 39.1688 36.0302 39.3821 35.8809C39.5101 35.7955 39.5315 35.9449 39.5101 35.9662C39.3181 36.9475 39.5528 38.1209 40.5341 38.5902C41.7075 39.1662 42.9875 38.3555 43.7341 37.6302C43.7981 37.5662 43.8835 37.5662 43.8835 37.7155C43.9048 37.9929 44.0328 38.3342 44.2461 38.5689C44.8648 39.1875 46.1234 38.9529 47.3608 37.9715C48.1714 37.3529 49.0034 36.4782 49.7714 35.5395C49.7928 35.4969 49.8141 35.4542 49.7714 35.3902C49.6648 35.2622 49.4941 35.1342 49.3661 35.0275C49.3234 34.9849 49.2381 35.0062 49.1954 35.0275C48.4061 35.7742 47.7234 36.6062 46.6994 37.3102C46.3581 37.5449 45.8035 37.7369 45.5688 37.4169C45.4835 37.2889 45.4835 37.1182 45.5688 36.8835C45.8675 36.1369 50.5608 29.0115 50.7954 28.5849C50.8381 28.5209 50.7954 28.4569 50.7101 28.4569C50.2194 28.4355 49.5794 28.4355 49.0888 28.4355ZM41.6648 37.2035C41.4301 37.0755 41.3235 36.7342 41.3235 36.4782C41.3448 35.7102 41.6861 34.9209 42.3048 34.1529C43.0728 33.2142 43.9261 32.7235 44.4808 32.9795C45.0568 33.2569 44.8648 33.9182 44.6088 34.4515C44.5875 34.4942 44.5875 34.5369 44.6088 34.5582C44.6088 34.6222 44.6941 34.6649 44.7581 34.6862C44.7795 34.6862 44.8008 34.7075 44.7794 34.7715C44.5875 35.1982 44.3955 35.4542 44.1395 35.8169C43.9048 36.1582 43.6488 36.4355 43.3288 36.6915C42.9661 36.9902 42.4968 37.3102 42.0488 37.3102C41.9208 37.3102 41.7715 37.2675 41.6648 37.2035Z" fill="url(#paint27_linear_11091_17559)"/>
<path d="M24.1705 24.1055L22.8265 24.1695C19.9465 24.4041 17.2158 26.0255 17.1945 28.5001C17.1945 29.7588 18.0905 30.7615 19.4558 30.7188C21.0772 30.6548 22.3998 29.3748 23.1038 27.7321C23.3598 27.1135 22.8692 26.8575 22.6558 27.2201C22.2505 27.8601 21.6532 28.3508 21.0345 28.6708C20.2665 29.0335 19.4558 28.9481 19.2212 28.3295C18.8798 27.4548 19.6052 26.1535 21.2478 25.5348C23.6158 24.6601 26.1118 25.2361 28.5012 25.6841C28.5438 25.6841 28.6718 25.7481 28.5438 25.8121C28.1172 26.0468 27.6905 26.2388 27.0292 26.7935C26.5598 27.1988 25.9412 27.7321 25.4718 28.3081C25.0025 28.8841 24.6612 29.3961 24.2132 29.9721C24.1492 30.0575 24.0852 30.0575 24.0852 30.0575C22.9972 30.2495 21.9518 30.3561 20.9705 31.0388C20.7785 31.1668 20.6932 31.4228 20.7998 31.6148C20.9065 31.7855 21.1625 31.8068 21.3332 31.6788C21.9305 31.2308 22.5492 31.0175 23.2745 30.9961C23.2958 30.9961 23.3172 30.9961 23.3385 31.0175V31.0601C22.2718 32.5321 22.0158 32.8735 21.2052 33.7908C20.7998 34.2601 20.3945 34.6655 19.9465 35.0708C18.1332 36.7561 16.1705 36.7348 15.4665 35.6681C15.0398 35.0281 15.1038 34.3668 15.3812 33.8121C15.7225 33.1295 16.4052 32.6388 16.9812 32.3401C17.1945 32.2335 17.2585 31.9561 17.0452 31.7215C16.9172 31.5508 16.5758 31.5295 16.3412 31.5721C15.5945 31.7001 14.7198 32.2761 14.1865 32.9588C13.6105 33.7268 13.3119 34.6441 13.3972 35.6681C13.5679 37.5454 15.1038 38.6121 16.8532 38.6121C18.2398 38.5908 19.5625 38.1854 21.1198 36.5855C22.5918 35.0921 23.9358 32.8735 25.1732 30.8041C25.2158 30.7401 25.2372 30.6975 25.4292 30.6761C26.3221 30.5611 27.2186 30.4757 28.1172 30.4201C28.2878 30.4201 28.3092 30.4201 28.3732 30.5055C28.5652 30.7401 28.8638 30.9535 29.0985 31.0815C29.2052 31.1455 29.2692 31.1668 29.3545 31.1668C29.4612 31.1668 29.5465 31.1028 29.6105 31.0388C29.6958 30.9535 29.7172 30.8468 29.6745 30.7615C29.6318 30.6761 29.1198 30.3988 29.0985 30.2921C29.0772 30.2281 29.1625 30.2068 29.1625 30.2068C29.5465 30.0788 29.9305 29.8441 30.1865 29.3748C30.4212 28.9268 30.4638 28.3081 30.0372 27.9881C29.6532 27.6895 29.0772 27.7321 28.6292 28.1588C28.1812 28.5641 28.0318 29.1401 28.0958 29.6521C28.0958 29.7375 28.0958 29.7801 27.9892 29.7801C27.3065 29.8441 26.6452 29.8441 25.8985 29.8868C25.8558 29.8868 25.8345 29.8655 25.8558 29.8228C26.7092 28.3508 27.9678 27.3055 29.3758 26.2601C29.4612 26.1961 29.4398 26.0681 29.4398 25.9401C31.9785 26.4948 34.4105 27.5188 37.0345 27.4975C38.1225 27.4975 39.1678 27.3268 40.1491 26.7721C41.0238 26.3028 41.3865 25.8548 41.4078 25.4068C41.4291 25.0868 41.2158 24.8948 40.8958 24.9588C38.2505 25.5775 35.7118 25.5561 33.0665 25.2361C30.0372 24.8521 27.1572 24.1055 24.1705 24.1055ZM28.7358 29.4175C28.6932 29.1401 28.7785 28.7561 29.0985 28.5001C29.2478 28.3721 29.4612 28.3295 29.5678 28.4361C29.7172 28.5641 29.6318 28.8628 29.5038 29.0548C29.3545 29.2895 29.0772 29.4815 28.8425 29.5241H28.8212C28.7998 29.5455 28.7572 29.5241 28.7358 29.4175Z" fill="url(#paint28_linear_11091_17559)"/>
<defs>
<radialGradient id="paint0_radial_11091_17559" cx="0" cy="0" r="1" gradientUnits="userSpaceOnUse" gradientTransform="translate(31.7242 152.405) scale(138.166 134.726)">
<stop stop-color="#00050D"/>
<stop offset="0.7" stop-color="#051125"/>
<stop offset="0.905" stop-color="#173E7E"/>
<stop offset="0.955" stop-color="#4CA9E3"/>
<stop offset="1" stop-color="#4CA9E3"/>
</radialGradient>
<linearGradient id="paint1_linear_11091_17559" x1="31.9473" y1="44.2717" x2="31.9473" y2="19.8835" gradientUnits="userSpaceOnUse">
<stop stop-color="#08142E"/>
<stop offset="0.809" stop-color="#17326E"/>
<stop offset="1" stop-color="#0D69A9"/>
</linearGradient>
<linearGradient id="paint2_linear_11091_17559" x1="32.3399" y1="44.2747" x2="32.3399" y2="19.8843" gradientUnits="userSpaceOnUse">
<stop stop-color="#08142E"/>
<stop offset="0.809" stop-color="#17326E"/>
<stop offset="1" stop-color="#0D69A9"/>
</linearGradient>
<linearGradient id="paint3_linear_11091_17559" x1="37.4671" y1="40.0781" x2="37.4671" y2="23.18" gradientUnits="userSpaceOnUse">
<stop stop-color="#08142E"/>
<stop offset="0.809" stop-color="#17326E"/>
<stop offset="1" stop-color="#0D69A9"/>
</linearGradient>
<linearGradient id="paint4_linear_11091_17559" x1="44.6859" y1="40.1512" x2="44.6859" y2="23.0279" gradientUnits="userSpaceOnUse">
<stop stop-color="#08142E"/>
<stop offset="0.809" stop-color="#17326E"/>
<stop offset="1" stop-color="#0D69A9"/>
</linearGradient>
<linearGradient id="paint5_linear_11091_17559" x1="45.7423" y1="39.4833" x2="45.7423" y2="23.7973" gradientUnits="userSpaceOnUse">
<stop stop-color="#08142E"/>
<stop offset="0.809" stop-color="#17326E"/>
<stop offset="1" stop-color="#0D69A9"/>
</linearGradient>
<linearGradient id="paint6_linear_11091_17559" x1="36.3004" y1="39.7081" x2="36.3004" y2="23.494" gradientUnits="userSpaceOnUse">
<stop stop-color="#08142E"/>
<stop offset="0.809" stop-color="#17326E"/>
<stop offset="1" stop-color="#0D69A9"/>
</linearGradient>
<linearGradient id="paint7_linear_11091_17559" x1="43.0797" y1="40.144" x2="43.0797" y2="23.0481" gradientUnits="userSpaceOnUse">
<stop stop-color="#08142E"/>
<stop offset="0.809" stop-color="#17326E"/>
<stop offset="1" stop-color="#0D69A9"/>
</linearGradient>
<linearGradient id="paint8_linear_11091_17559" x1="28.2914" y1="40.13" x2="28.2914" y2="23.038" gradientUnits="userSpaceOnUse">
<stop stop-color="#08142E"/>
<stop offset="0.809" stop-color="#17326E"/>
<stop offset="1" stop-color="#0D69A9"/>
</linearGradient>
<linearGradient id="paint9_linear_11091_17559" x1="35.6788" y1="40.1331" x2="35.6788" y2="23.1578" gradientUnits="userSpaceOnUse">
<stop stop-color="#08142E"/>
<stop offset="0.809" stop-color="#17326E"/>
<stop offset="1" stop-color="#0D69A9"/>
</linearGradient>
<linearGradient id="paint10_linear_11091_17559" x1="44.7136" y1="40.1392" x2="44.7136" y2="23.0395" gradientUnits="userSpaceOnUse">
<stop stop-color="#08142E"/>
<stop offset="0.809" stop-color="#17326E"/>
<stop offset="1" stop-color="#0D69A9"/>
</linearGradient>
<linearGradient id="paint11_linear_11091_17559" x1="38.9223" y1="40.1478" x2="38.9223" y2="23.0374" gradientUnits="userSpaceOnUse">
<stop stop-color="#08142E"/>
<stop offset="0.809" stop-color="#17326E"/>
<stop offset="1" stop-color="#0D69A9"/>
</linearGradient>
<linearGradient id="paint12_linear_11091_17559" x1="48.2469" y1="40.1309" x2="48.2469" y2="23.0355" gradientUnits="userSpaceOnUse">
<stop stop-color="#08142E"/>
<stop offset="0.809" stop-color="#17326E"/>
<stop offset="1" stop-color="#0D69A9"/>
</linearGradient>
<linearGradient id="paint13_linear_11091_17559" x1="31.7315" y1="39.9546" x2="31.7315" y2="23.2539" gradientUnits="userSpaceOnUse">
<stop stop-color="#08142E"/>
<stop offset="0.809" stop-color="#17326E"/>
<stop offset="1" stop-color="#0D69A9"/>
</linearGradient>
<linearGradient id="paint14_linear_11091_17559" x1="29.0674" y1="40.1326" x2="29.0674" y2="23.1522" gradientUnits="userSpaceOnUse">
<stop stop-color="#08142E"/>
<stop offset="0.809" stop-color="#17326E"/>
<stop offset="1" stop-color="#0D69A9"/>
</linearGradient>
<linearGradient id="paint15_linear_11091_17559" x1="16.1753" y1="40.1302" x2="16.1753" y2="23.0354" gradientUnits="userSpaceOnUse">
<stop stop-color="#08142E"/>
<stop offset="0.809" stop-color="#17326E"/>
<stop offset="1" stop-color="#0D69A9"/>
</linearGradient>
<linearGradient id="paint16_linear_11091_17559" x1="23.8212" y1="40.1397" x2="23.8212" y2="23.0485" gradientUnits="userSpaceOnUse">
<stop stop-color="#08142E"/>
<stop offset="0.809" stop-color="#17326E"/>
<stop offset="1" stop-color="#0D69A9"/>
</linearGradient>
<linearGradient id="paint17_linear_11091_17559" x1="21.596" y1="40.134" x2="21.596" y2="23.0385" gradientUnits="userSpaceOnUse">
<stop stop-color="#08142E"/>
<stop offset="0.809" stop-color="#17326E"/>
<stop offset="1" stop-color="#0D69A9"/>
</linearGradient>
<linearGradient id="paint18_linear_11091_17559" x1="21.9999" y1="40.1447" x2="21.9999" y2="23.041" gradientUnits="userSpaceOnUse">
<stop stop-color="#08142E"/>
<stop offset="0.809" stop-color="#17326E"/>
<stop offset="1" stop-color="#0D69A9"/>
</linearGradient>
<linearGradient id="paint19_linear_11091_17559" x1="41.299" y1="39.8205" x2="41.299" y2="23.0885" gradientUnits="userSpaceOnUse">
<stop stop-color="#08142E"/>
<stop offset="0.809" stop-color="#17326E"/>
<stop offset="1" stop-color="#0D69A9"/>
</linearGradient>
<linearGradient id="paint20_linear_11091_17559" x1="33.6353" y1="40.1329" x2="33.6353" y2="23.0394" gradientUnits="userSpaceOnUse">
<stop stop-color="#08142E"/>
<stop offset="0.809" stop-color="#17326E"/>
<stop offset="1" stop-color="#0D69A9"/>
</linearGradient>
<linearGradient id="paint21_linear_11091_17559" x1="29.2022" y1="39.5534" x2="29.2022" y2="23.4041" gradientUnits="userSpaceOnUse">
<stop stop-color="#08142E"/>
<stop offset="0.809" stop-color="#17326E"/>
<stop offset="1" stop-color="#0D69A9"/>
</linearGradient>
<linearGradient id="paint22_linear_11091_17559" x1="29.7491" y1="40.138" x2="29.7491" y2="23.0426" gradientUnits="userSpaceOnUse">
<stop stop-color="#08142E"/>
<stop offset="0.809" stop-color="#17326E"/>
<stop offset="1" stop-color="#0D69A9"/>
</linearGradient>
<linearGradient id="paint23_linear_11091_17559" x1="20.375" y1="40.1393" x2="20.375" y2="23.0434" gradientUnits="userSpaceOnUse">
<stop stop-color="#08142E"/>
<stop offset="0.809" stop-color="#17326E"/>
<stop offset="1" stop-color="#0D69A9"/>
</linearGradient>
<linearGradient id="paint24_linear_11091_17559" x1="24.971" y1="49.744" x2="17.5773" y2="22.1507" gradientUnits="userSpaceOnUse">
<stop stop-color="#B2B1B1"/>
<stop offset="0.35" stop-color="#DEDDDE"/>
<stop offset="0.65" stop-color="#DEDDDE"/>
<stop offset="1" stop-color="#B2B1B1"/>
</linearGradient>
<linearGradient id="paint25_linear_11091_17559" x1="44.4264" y1="34.6271" x2="37.067" y2="7.16154" gradientUnits="userSpaceOnUse">
<stop stop-color="#B2B1B1"/>
<stop offset="0.35" stop-color="#DEDDDE"/>
<stop offset="0.65" stop-color="#DEDDDE"/>
<stop offset="1" stop-color="#B2B1B1"/>
</linearGradient>
<linearGradient id="paint26_linear_11091_17559" x1="31.9968" y1="19.7209" x2="31.9968" y2="44.2348" gradientUnits="userSpaceOnUse">
<stop stop-color="white"/>
<stop offset="0.552" stop-color="white"/>
<stop offset="0.691" stop-color="#FAFAFA"/>
<stop offset="0.8" stop-color="#D3D2D2"/>
<stop offset="1" stop-color="#BDBCBC"/>
</linearGradient>
<linearGradient id="paint27_linear_11091_17559" x1="37.0152" y1="27.559" x2="37.0152" y2="39.7164" gradientUnits="userSpaceOnUse">
<stop stop-color="white"/>
<stop offset="0.552" stop-color="white"/>
<stop offset="0.691" stop-color="#EFEEEE"/>
<stop offset="0.8" stop-color="#E9E9E9"/>
<stop offset="1" stop-color="#D3D2D2"/>
</linearGradient>
<linearGradient id="paint28_linear_11091_17559" x1="27.3389" y1="22.9345" x2="27.3389" y2="39.7991" gradientUnits="userSpaceOnUse">
<stop stop-color="white"/>
<stop offset="0.552" stop-color="white"/>
<stop offset="0.691" stop-color="#EFEEEE"/>
<stop offset="0.8" stop-color="#E9E9E9"/>
<stop offset="1" stop-color="#D3D2D2"/>
</linearGradient>
</defs>
</svg>
