<svg width="140" height="54" viewBox="0 0 140 54" fill="none" xmlns="http://www.w3.org/2000/svg">
<g clip-path="url(#clip0_11105_19632)">
<path d="M139.58 24.9914C139.626 25.1314 139.626 25.2248 139.626 25.3648C139.626 25.2248 139.58 25.1314 139.58 24.9914ZM69.9999 0.771484C31.1266 0.771484 0 12.4381 0 26.9981C0 41.5114 31.4066 53.2247 69.9999 53.2247C108.593 53.2247 140 41.4648 140 26.9981C140 12.5315 108.593 0.771484 69.9999 0.771484Z" fill="#D3D2D2"/>
<path d="M1.07227 26.9968C1.07227 40.9035 31.9189 52.1968 69.9988 52.1968C108.079 52.1968 138.925 40.9501 138.925 26.9968C138.925 13.0902 108.079 1.79688 69.9988 1.79688C31.9189 1.79688 1.07227 13.0902 1.07227 26.9968Z" fill="url(#paint0_radial_11105_19632)"/>
<path d="M6.25391 26.9964C6.25391 27.9298 6.44057 28.8631 6.81391 29.7964C6.67391 29.1898 6.58057 28.5831 6.58057 27.9764C6.58057 16.4498 35.0939 7.11647 70.3271 7.11647C102.714 7.11647 129.454 15.0031 133.514 25.2698C130.807 14.4898 103.414 6.04314 70.0005 6.04314C34.8139 5.99647 6.25391 15.4231 6.25391 26.9964Z" fill="url(#paint1_linear_11105_19632)"/>
<path d="M136.034 26.9983C136.034 39.6916 106.447 50.0049 70.0007 50.0049C37.5208 50.0049 10.5475 41.8383 4.99414 31.105C9.2408 42.3049 36.9141 50.9383 70.4674 50.9383C106.961 50.9383 136.501 40.7183 136.501 28.165C136.501 26.905 136.174 25.645 135.614 24.4316C135.894 25.225 136.034 26.1116 136.034 26.9983Z" fill="url(#paint2_linear_11105_19632)"/>
<path d="M82.3198 29.2359C80.8265 30.7759 80.7332 32.7826 81.7132 33.6692C82.0398 33.9959 82.4598 34.1359 82.8798 34.1826C82.2265 33.3892 81.9465 31.8026 82.7398 30.5892C82.5998 30.2159 82.5532 29.7959 82.6465 29.3759C82.6465 29.2826 82.5998 29.1893 82.5065 29.1893C82.4132 29.1426 82.3665 29.1893 82.3198 29.2359Z" fill="url(#paint3_linear_11105_19632)"/>
<path d="M97.5799 32.5039C97.5799 32.7372 97.6732 33.1572 97.7199 33.4839C97.8132 33.3439 97.8599 33.2039 97.9532 33.0172C97.9999 32.8772 97.9999 32.8772 97.9066 32.8306C97.7666 32.7839 97.5799 32.6439 97.5799 32.5506C97.5333 32.5506 97.5333 32.5506 97.5799 32.5039Z" fill="url(#paint4_linear_11105_19632)"/>
<path d="M99.3516 27.4648C99.8649 27.9315 100.145 28.4915 100.192 29.0515C100.192 29.2848 100.425 29.3315 100.565 29.0982C100.612 29.0515 100.658 28.9582 100.705 28.8648C100.658 28.8182 100.612 28.7715 100.565 28.6782C100.378 28.4448 99.8649 27.9315 99.3516 27.4648Z" fill="url(#paint5_linear_11105_19632)"/>
<path d="M78.8652 26.5293C79.2386 27.0893 79.4252 27.836 79.4252 28.816C79.4252 29.0493 79.6119 29.0493 79.7052 28.8626C79.7519 28.7693 79.8452 28.676 79.8919 28.5826C79.6586 27.696 79.1919 26.856 78.8652 26.5293Z" fill="url(#paint6_linear_11105_19632)"/>
<path d="M92.5392 31.6637C91.1392 33.3437 90.3926 35.0704 90.3926 36.7504C90.3926 37.357 90.6259 38.1037 91.1392 38.337C91.3259 38.4303 91.4659 38.477 91.6526 38.5237C91.6059 38.2903 91.5592 38.057 91.5592 37.8704C91.5592 36.1437 92.0726 34.417 93.4726 32.6904C95.1526 30.637 96.9259 29.6104 98.1392 30.1704C98.0926 29.7037 97.8592 29.3304 97.3459 29.097C97.1126 29.0037 96.8792 28.957 96.5992 28.957C95.3859 28.957 93.8926 29.9837 92.5392 31.6637Z" fill="url(#paint7_linear_11105_19632)"/>
<path d="M64.8201 28.0684C62.9535 28.7684 61.0868 29.8884 59.7801 31.6151C58.2868 33.5751 57.9135 35.9551 58.8935 37.3551C59.1268 37.6818 59.4068 37.9151 59.7335 38.0551C59.2201 36.4218 59.5935 34.2284 60.8535 32.5484C62.1601 30.8218 63.6068 30.1684 65.2401 29.4218C65.4735 29.3284 65.4735 29.1884 65.4268 29.0018C65.3335 28.6751 65.1468 27.8351 65.0535 27.6484C65.1001 27.8818 65.0535 28.0218 64.8201 28.0684Z" fill="url(#paint8_linear_11105_19632)"/>
<path d="M78.8189 33.3433L73.7323 41.2767C73.639 41.4167 73.5456 41.4633 73.4056 41.51H69.999C69.859 41.51 69.8123 41.4633 69.7656 41.37L70.0456 42.7233C70.0923 42.8633 70.1856 42.91 70.279 42.91H74.1523C74.2923 42.91 74.4323 42.8167 74.479 42.6767L79.3323 35.07C79.7056 36.33 79.8456 36.89 80.5456 37.4967C81.1989 38.1033 81.8056 38.2433 82.7389 38.2433C83.5789 38.2433 84.3723 37.9167 85.3523 37.4967C85.7256 37.3567 86.0056 37.17 86.2856 36.9833C86.2856 36.5167 86.3323 36.05 86.4256 35.63C86.4256 35.5833 86.3789 35.3033 86.1456 35.4433C85.6789 35.77 85.1189 36.0967 84.3723 36.3767C83.4856 36.7033 83.0656 36.8433 82.2256 36.8433C81.1989 36.8433 80.2656 36.3767 79.6123 35.35C79.2389 34.79 79.0989 33.95 79.0523 33.3433C79.0523 33.2967 79.0056 33.25 78.9589 33.25C78.9123 33.2967 78.8656 33.2967 78.8189 33.3433Z" fill="url(#paint9_linear_11105_19632)"/>
<path d="M108.874 34.7455C107.194 36.7988 105.374 38.7121 103.601 40.0655C100.848 42.2121 98.1408 42.7255 96.7875 41.3721C96.2742 40.8588 95.9942 40.1588 95.9942 39.5055C95.9942 39.1788 95.8075 39.1788 95.6675 39.3188C94.0342 40.9055 91.2342 42.6788 88.6675 41.4188C87.4075 40.7655 86.7075 39.5988 86.4275 38.2921C86.5675 39.2255 86.8009 40.5788 87.2209 41.4188C87.5009 41.9788 88.1542 42.6321 88.5742 42.8188C90.8609 43.9388 94.0808 42.6788 96.1808 40.6721C96.1808 40.6255 96.2275 40.6255 96.2275 40.6255C96.3208 40.9988 96.4608 41.4188 96.4608 41.4655C96.6008 41.9321 96.8342 42.3521 97.0208 42.5855C98.4675 44.2188 101.454 43.4721 104.627 41.0455C106.401 39.6921 107.707 38.3388 109.294 36.4721C109.341 36.3788 109.341 36.2855 109.341 36.0988L109.014 34.6055C108.921 34.6055 108.921 34.6988 108.874 34.7455Z" fill="url(#paint10_linear_11105_19632)"/>
<path d="M87.1734 29.0982C87.0334 30.1248 86.4734 31.0115 85.54 31.4782C84.7467 31.8515 83.8134 31.8048 83.16 31.1982C82.9734 31.0115 82.8334 30.7782 82.6934 30.5448C82.88 31.2915 83.02 31.8515 83.2067 32.1782C83.8134 33.1115 84.8867 33.3448 86.0534 32.6915C86.8934 32.2248 87.64 31.2448 87.5467 29.7048C87.5 28.9115 87.2667 28.1182 86.8934 27.4648C87.1692 27.9618 87.2679 28.5377 87.1734 29.0982Z" fill="url(#paint11_linear_11105_19632)"/>
<path d="M111.115 19.4837C110.601 20.4171 100.335 36.0037 99.6814 37.6371C99.4948 38.1504 99.4481 38.5237 99.6814 38.8037C99.9148 39.0837 100.195 39.1771 100.568 39.1771C100.615 38.9904 100.661 38.7571 100.755 38.5237C101.408 36.8904 111.021 22.3304 111.535 21.3971C111.581 21.3037 111.581 21.2104 111.535 21.1637C111.488 21.0237 111.161 19.4837 111.161 19.3438C111.161 19.3904 111.161 19.4371 111.115 19.4837Z" fill="url(#paint12_linear_11105_19632)"/>
<path d="M68.5508 26.7656L68.6441 26.859C69.2508 27.7923 69.5774 29.0523 69.6241 30.4056C69.6708 30.6856 69.7641 30.6856 69.9041 30.5456C70.0441 30.4056 70.1375 30.2656 70.2775 30.1723C70.0908 29.4723 69.8108 28.819 69.5308 28.2123C69.4374 27.9323 68.9708 27.139 68.5508 26.7656Z" fill="url(#paint13_linear_11105_19632)"/>
<path d="M73.7801 29.8433C71.5867 31.5233 69.7201 34.1366 68.7867 35.3033C68.2267 36.0033 67.7134 36.9833 66.2667 38.5699C63.9801 41.0433 60.9468 42.4899 58.0534 41.4633C56.4668 40.9499 55.3001 39.6433 54.8801 38.0566C54.7868 37.7299 54.6001 37.6833 54.4601 37.8699C53.9934 38.4766 53.0134 39.3166 52.2201 39.8766C52.1268 39.9233 51.8934 40.0633 51.7068 39.9699C51.5201 39.8766 50.9601 39.0366 50.8201 38.8033C50.8201 38.7566 50.7734 38.7566 50.7734 38.7099C50.9601 39.7366 51.0068 39.8766 51.2868 40.3433C51.6134 40.8566 51.9401 41.2299 51.9868 41.2766C52.1734 41.3699 52.3601 41.2766 52.4534 41.2299C53.0601 40.9033 54.2734 39.9699 54.8334 39.3166C54.9734 39.1766 55.1601 39.2699 55.2068 39.4099C55.4401 40.1099 55.7668 40.6233 56.0934 41.2299C56.4668 41.8833 57.2601 42.5366 58.2868 42.8166C59.5934 43.1899 61.0401 43.2366 62.9068 42.5366C64.4001 41.9766 65.9867 40.8099 67.2001 39.4566C68.6467 37.8699 69.1601 36.8899 69.7201 36.1899C70.6534 35.0233 72.1467 32.9699 74.2001 31.1966C74.9001 30.5899 75.6934 30.1699 76.2067 30.3566C76.4867 29.6099 76.3467 29.1899 76.0667 28.9566C75.9734 28.9099 75.8334 28.8633 75.6934 28.8633C75.1334 28.9566 74.4334 29.3766 73.7801 29.8433Z" fill="url(#paint14_linear_11105_19632)"/>
<path d="M37.0063 27.743C35.7463 28.3963 34.2529 29.4696 33.5063 30.963C32.8996 32.1763 32.8063 33.623 33.6929 35.023C33.7863 35.1163 33.8329 35.2563 33.9263 35.3496C33.6463 34.183 33.9729 32.9696 34.3929 32.0363C35.1396 30.543 36.1663 29.843 37.1929 29.1896C37.6129 28.9096 37.8463 28.6296 37.5663 27.9296C37.4729 27.743 37.4263 27.3696 37.3796 27.043C37.4263 27.323 37.2863 27.603 37.0063 27.743Z" fill="url(#paint15_linear_11105_19632)"/>
<path d="M46.3854 12.8587C42.792 14.212 41.2054 17.0587 41.952 18.972C42.092 19.3454 42.3254 19.6254 42.652 19.812C42.4187 18.0387 43.7254 15.192 47.1787 14.0254C51.7054 12.532 56.7454 13.4654 60.8053 14.352C61.3653 13.9787 61.8787 13.7454 62.3453 13.4654C62.5787 13.3254 62.2987 13.1854 62.252 13.1854C59.032 12.5787 55.672 11.832 52.4054 11.832C50.352 11.832 48.3454 12.112 46.3854 12.8587Z" fill="url(#paint16_linear_11105_19632)"/>
<path d="M61.4584 23.5422C59.4927 23.6639 57.5317 23.8506 55.5784 24.1022C55.1584 24.1489 55.1117 24.2422 55.0184 24.3822C52.2651 28.9089 49.3717 33.7622 46.1517 37.0289C42.6984 40.5289 39.8518 41.4622 36.8184 41.4622C33.3184 41.5089 30.1918 39.5022 29.3984 36.0022C29.8184 37.9622 31.0784 40.2955 32.5251 41.3222C34.0184 42.3489 35.4651 42.7222 37.1451 42.7222C40.5984 42.7689 43.7717 41.3689 47.1317 37.9622C50.3517 34.6955 53.1517 30.1222 55.8584 25.5956C55.9517 25.4556 56.0451 25.3622 56.5117 25.3156C58.2384 25.0822 59.7784 24.9889 61.3184 24.8489C61.7851 24.8022 62.1117 24.7556 62.2984 24.9422C62.8584 25.5022 63.4651 26.0156 63.9317 26.2489C64.2117 26.2489 64.4451 26.2956 64.6317 26.4822C64.8184 26.4356 64.9584 26.3422 65.0984 26.2489C65.285 26.0622 65.285 25.8289 65.285 25.6422C65.2384 25.2689 65.0984 24.5222 65.0051 24.3356C65.0984 24.4756 65.0517 24.7089 64.865 24.8956C64.7251 25.0356 64.5384 25.1756 64.3051 25.1756C64.1184 25.1756 63.9784 25.0822 63.7451 24.9889C63.2317 24.7089 62.5784 24.2422 62.1584 23.7289C62.0651 23.5889 61.9717 23.5422 61.7851 23.5422C61.5984 23.4956 61.5517 23.5422 61.4584 23.5422Z" fill="url(#paint17_linear_11105_19632)"/>
<path d="M46.6174 26.2511C46.2441 26.5311 45.6841 26.4845 45.4507 26.1111C45.3574 25.9711 45.3107 25.8311 45.3107 25.7378C45.2641 26.3445 45.4974 27.1845 45.6841 27.4645C45.8707 27.7911 46.4774 27.9311 46.9441 27.6045C47.9707 26.8111 48.9507 26.3911 49.9774 26.1578L50.8641 24.8978C50.9107 24.8511 50.9107 24.8045 50.8641 24.8045C50.8641 24.7578 50.8174 24.7578 50.724 24.7578C49.2774 24.8045 47.9241 25.2711 46.6174 26.2511Z" fill="url(#paint18_linear_11105_19632)"/>
<path d="M90.2988 11.8789C90.2988 11.9256 90.3455 11.9256 90.3455 11.9722C90.3455 11.9256 90.3455 11.8789 90.2988 11.8789Z" fill="url(#paint19_linear_11105_19632)"/>
<path d="M90.4873 12.5317C90.4406 13.5117 89.6473 14.4917 87.734 15.5184C85.5407 16.7317 83.3007 17.0584 80.9207 17.1051C75.1807 17.1517 69.814 14.9117 64.3074 13.6984C64.3074 13.9317 64.354 14.2117 64.1674 14.3984C61.0874 16.6851 58.334 18.9717 56.4674 22.1917C56.4207 22.2851 56.4207 22.3317 56.5607 22.3317C57.074 22.2851 57.5407 22.2851 58.0074 22.2384C59.6874 19.5784 61.5074 18.0851 64.2607 16.0317C64.4474 15.8917 64.6807 15.7517 64.5873 15.1917C70.1407 16.4051 74.3407 18.4584 81.5273 18.5051C83.674 18.5051 86.6606 17.8051 88.294 16.8251C90.1606 15.7051 90.674 14.8651 90.7206 14.0251C90.7206 13.7451 90.674 13.3251 90.6273 13.1384C90.5806 12.8584 90.534 12.4851 90.4406 12.2051C90.4873 12.2517 90.4873 12.3917 90.4873 12.5317Z" fill="url(#paint20_linear_11105_19632)"/>
<path d="M63.7466 19.2997C63.6999 19.3464 63.6066 19.4397 63.5132 19.4864C62.9532 20.0464 62.8132 20.7931 62.8599 21.3531C62.9066 21.5864 62.9999 21.6331 63.0932 21.5864C63.1866 21.5864 63.3266 21.5397 63.4199 21.4931C63.4666 21.1664 63.6066 20.8864 63.8866 20.6064C64.1199 20.4197 64.3999 20.3264 64.6332 20.3731C64.8666 19.9531 64.9132 19.4397 64.6332 19.2064C64.5399 19.1131 64.3999 19.0664 64.2132 19.0664C64.1199 19.1131 63.9332 19.1597 63.7466 19.2997Z" fill="url(#paint21_linear_11105_19632)"/>
<path d="M65.9402 21.2587C65.4269 22.2854 64.5402 22.7987 63.7002 23.0787C63.7002 23.0787 63.5136 23.1254 63.5602 23.2654C63.5602 23.452 64.1669 23.8254 64.5402 24.0587C64.5869 24.0587 64.6802 24.012 64.6802 24.012C65.1002 23.8254 65.8002 23.4054 66.2202 22.5187C66.5002 21.9587 66.6402 21.492 66.5002 20.4654C66.4069 19.7654 66.2669 19.112 66.0802 18.832C66.5002 19.5787 66.3602 20.512 65.9402 21.2587Z" fill="url(#paint22_linear_11105_19632)"/>
<path d="M50.6334 16.5449C50.7267 16.7783 50.7267 17.1983 50.5401 17.6649C49.0001 21.2582 46.1067 24.0582 42.5601 24.1982C40.4134 24.2449 38.8267 23.1716 38.0801 21.5849C38.6401 22.7982 39.7601 23.8716 40.7401 24.4782C41.4867 24.9449 42.4667 25.2249 43.5401 25.1782C47.2267 25.0382 50.0267 22.0049 50.9601 19.4383C51.1934 18.7383 51.0067 17.9916 50.9134 17.5249C50.8201 17.2916 50.7734 16.8716 50.6334 16.5449Z" fill="url(#paint23_linear_11105_19632)"/>
<path d="M139.58 24.9914C139.626 25.1314 139.626 25.2248 139.626 25.3648C139.626 25.2248 139.58 25.1314 139.58 24.9914ZM0.466666 27.3248C0.466666 24.2448 1.82 21.2115 4.66666 18.3181C14.7 8.19147 40.9266 1.37815 69.8599 1.23815C108.22 1.09815 139.44 12.5315 139.533 26.7181C139.533 29.7981 138.133 32.7848 135.286 35.6781C125.253 45.8048 99.0732 52.6647 70.1399 52.7581C31.78 52.9447 0.559999 41.5114 0.466666 27.3248ZM69.9999 0.771484C31.1266 0.771484 0 12.4381 0 26.9981C0 41.5114 31.4066 53.2247 69.9999 53.2247C108.593 53.2247 140 41.4648 140 26.9981C140 12.5315 108.593 0.771484 69.9999 0.771484Z" fill="#4F4C4D"/>
<path d="M0.234375 26.9992C0.234375 27.6992 0.327708 28.3525 0.467708 29.0525C0.374375 28.4925 0.281042 27.8858 0.281042 27.3258C0.281042 24.1992 1.68104 21.0725 4.5277 18.1792C14.6077 8.00585 40.881 1.14586 69.8609 1.05253C73.8743 1.05253 77.8409 1.14586 81.6676 1.37919C77.8876 1.14586 73.9676 1.00586 70.0009 1.00586C31.3143 1.00586 0.234375 12.5792 0.234375 26.9992Z" fill="url(#paint24_linear_11105_19632)"/>
<path d="M139.721 26.7166C139.721 29.8433 138.275 32.9233 135.381 35.8166C125.348 45.9432 99.0746 52.8499 70.0947 52.9899C65.988 52.9899 61.9747 52.8966 58.0547 52.6632C61.928 52.8966 65.8947 53.0366 69.9547 53.0366C108.455 53.0366 139.721 41.2766 139.721 26.9966C139.721 26.4492 139.674 25.9028 139.581 25.3633C139.721 25.8299 139.721 26.2966 139.721 26.7166Z" fill="url(#paint25_linear_11105_19632)"/>
<path d="M3.92188 26.999C3.92188 39.6923 33.5085 50.0057 69.9551 50.0057C106.448 50.0057 135.988 39.6923 135.988 26.999C136.035 14.3057 106.495 4.03906 70.0018 4.03906C33.5085 4.03906 3.92188 14.3057 3.92188 26.999ZM6.2552 26.999C6.2552 15.379 34.7685 5.99906 70.0018 5.99906C105.188 5.99906 133.748 15.379 133.748 26.999C133.748 38.619 105.235 47.999 70.0018 47.999C34.8152 47.999 6.2552 38.619 6.2552 26.999Z" fill="url(#paint26_linear_11105_19632)"/>
<path d="M107.382 19.2031C107.102 19.2031 107.009 19.2498 106.869 19.4831C106.449 20.2765 101.502 27.6498 100.616 29.0964C100.476 29.3298 100.289 29.2831 100.242 29.0498C100.149 28.2098 99.4022 27.2298 98.2355 26.7631C97.3489 26.3898 96.4622 26.3431 95.5755 26.4364C93.9422 26.6698 92.4955 27.5098 91.2355 28.4898C89.3222 29.9364 87.6422 31.8498 85.5422 33.2498C84.3756 33.9964 82.7889 34.6964 81.7156 33.6698C80.7356 32.7831 80.8756 30.7764 82.3222 29.2364C82.4622 29.0964 82.6489 29.1898 82.6489 29.3764C82.5089 30.0764 82.6956 30.7764 83.2089 31.2431C83.8622 31.8031 84.7956 31.8964 85.5889 31.5231C86.5222 31.0564 87.0822 30.1698 87.2222 29.1431C87.4556 27.5564 86.2422 26.2031 84.7489 26.0631C83.5356 25.9698 82.3222 26.3898 81.2022 27.3698C80.6422 27.8364 80.3156 28.2098 79.8022 28.9098C79.6622 29.0964 79.4756 29.0964 79.5222 28.8631C79.5689 26.8564 78.7289 25.7364 77.0956 25.6898C75.7889 25.6431 74.4356 26.3431 73.3622 27.2298C72.1956 28.1631 71.1689 29.4231 70.0489 30.5898C69.9089 30.7298 69.7689 30.7298 69.7689 30.4498C69.7222 29.0964 69.3956 27.8364 68.7889 26.9031C68.5556 26.5764 68.0889 26.4364 67.7156 26.6231C67.5289 26.7164 66.9223 26.9964 66.4556 27.3698C66.2223 27.5564 66.1289 27.8364 66.2223 28.1631C66.8289 30.1698 66.6889 32.4098 65.8956 34.3231C65.1489 36.0964 63.7023 37.6364 62.0223 38.1964C60.9023 38.5698 59.7356 38.3831 59.0356 37.4031C58.0556 36.0498 58.4289 33.6698 59.9223 31.6631C61.2289 29.9364 63.0956 28.8164 64.9623 28.1164C65.1956 28.0231 65.2423 27.8831 65.1489 27.6964C65.0556 27.3698 64.8689 26.9498 64.8223 26.7631C64.6356 26.2964 64.1689 26.2498 63.5623 26.2964C62.2089 26.4364 60.9956 26.9031 59.7356 27.5564C56.5623 29.2364 54.9756 32.5498 54.2756 34.3231C53.9489 35.1631 53.6689 35.6764 53.2956 36.1431C52.7823 36.7964 52.1756 37.3564 51.0089 38.3364C50.9156 38.4298 50.8223 38.6164 50.9156 38.8031C51.0556 39.0364 51.6156 39.8764 51.8023 39.9698C51.9889 40.0631 52.2223 39.9231 52.3156 39.8764C53.1089 39.3164 54.0889 38.4764 54.5556 37.8698C54.6956 37.6831 54.8823 37.7764 54.9756 38.0564C55.3956 39.6431 56.5623 40.9031 58.1489 41.4631C61.0423 42.4431 64.0756 41.0431 66.3623 38.5698C67.8089 36.9831 68.3223 36.0031 68.8823 35.3031C69.8156 34.1364 71.6822 31.5231 73.8756 29.8431C74.6689 29.2364 75.6489 28.7698 76.1156 29.0498C76.4889 29.2831 76.6289 29.8898 76.0222 31.0098C73.7822 35.1164 70.4689 39.9698 69.8622 41.1364C69.7689 41.3231 69.8623 41.5098 70.0489 41.5098H73.4556C73.6422 41.5098 73.7356 41.4164 73.7822 41.2764L78.8689 33.3431C78.9622 33.2031 79.0556 33.2964 79.0556 33.3898C79.1022 33.9964 79.2422 34.8364 79.6156 35.3964C80.2689 36.4231 81.2022 36.8431 82.2289 36.8898C83.0689 36.8898 83.4889 36.7964 84.3756 36.4231C85.1222 36.1431 85.6822 35.8164 86.1489 35.4898C86.4289 35.3031 86.4756 35.6298 86.4289 35.6764C86.0089 37.8231 86.5222 40.3898 88.6689 41.4164C91.2355 42.6764 94.0355 40.9031 95.6689 39.3164C95.8089 39.1764 95.9955 39.1764 95.9955 39.5031C96.0422 40.1098 96.3222 40.8564 96.7889 41.3698C98.1422 42.7231 100.896 42.2098 103.602 40.0631C105.376 38.7098 107.196 36.7964 108.876 34.7431C108.922 34.6498 108.969 34.5564 108.876 34.4164C108.642 34.1364 108.269 33.8564 107.989 33.6231C107.896 33.5298 107.709 33.5764 107.616 33.6231C105.889 35.2564 104.396 37.0764 102.156 38.6164C101.409 39.1298 100.196 39.5498 99.6822 38.8498C99.4955 38.5698 99.4955 38.1964 99.6822 37.6831C100.336 36.0498 110.602 20.4631 111.116 19.5298C111.209 19.3898 111.116 19.2498 110.929 19.2498C109.856 19.2031 108.456 19.2031 107.382 19.2031ZM91.1422 38.3831C90.6289 38.1031 90.3955 37.3564 90.3955 36.7964C90.4422 35.1164 91.1889 33.3898 92.5422 31.7098C94.2222 29.6564 96.0889 28.5831 97.3022 29.1431C98.5622 29.7498 98.1422 31.1964 97.5822 32.3631C97.5355 32.4564 97.5355 32.5498 97.5822 32.5964C97.5822 32.7364 97.7689 32.8298 97.9089 32.8764C97.9555 32.8764 98.0022 32.9231 97.9555 33.0631C97.5355 33.9964 97.1155 34.5564 96.5555 35.3498C96.0422 36.0964 95.4822 36.7031 94.7822 37.2631C93.9889 37.9164 92.9622 38.6164 91.9822 38.6164C91.7022 38.6164 91.3755 38.5231 91.1422 38.3831Z" fill="url(#paint27_linear_11105_19632)"/>
<path d="M52.8735 9.73047L49.9335 9.87047C43.6335 10.3838 37.6601 13.9305 37.6135 19.3438C37.6135 22.0971 39.5735 24.2904 42.5601 24.1971C46.1068 24.0571 49.0001 21.2571 50.5401 17.6638C51.1001 16.3105 50.0268 15.7505 49.5601 16.5438C48.6735 17.9438 47.3668 19.0171 46.0135 19.7171C44.3335 20.5105 42.5601 20.3238 42.0468 18.9705C41.3001 17.0571 42.8868 14.2105 46.4801 12.8571C51.6601 10.9438 57.1201 12.2038 62.3468 13.1838C62.4401 13.1838 62.7201 13.3238 62.4401 13.4638C61.5068 13.9771 60.5734 14.3971 59.1268 15.6105C58.1001 16.4971 56.7468 17.6638 55.7201 18.9238C54.6935 20.1838 53.9468 21.3038 52.9668 22.5638C52.8268 22.7504 52.6868 22.7504 52.6868 22.7504C50.3068 23.1704 48.0201 23.4038 45.8735 24.8971C45.4535 25.1771 45.2668 25.7371 45.5001 26.1571C45.7335 26.5304 46.2935 26.5771 46.6668 26.2971C47.9735 25.3171 49.3268 24.8504 50.9135 24.8038C50.9601 24.8038 51.0068 24.8038 51.0535 24.8504V24.9438C48.7201 28.1638 48.1601 28.9104 46.3868 30.9171C45.5001 31.9438 44.6135 32.8304 43.6335 33.7171C39.6668 37.4038 35.3735 37.3571 33.8335 35.0238C32.9002 33.6238 33.0402 32.1771 33.6468 30.9638C34.3935 29.4704 35.8868 28.3971 37.1468 27.7438C37.6135 27.5104 37.7535 26.9038 37.2868 26.3904C37.0068 26.0171 36.2602 25.9704 35.7468 26.0638C34.1135 26.3438 32.2002 27.6038 31.0335 29.0971C29.7735 30.7771 29.1202 32.7838 29.3068 35.0238C29.6802 39.1304 33.0402 41.4638 36.8668 41.4638C39.9001 41.4171 42.7935 40.5304 46.2001 37.0304C49.4201 33.7638 52.3601 28.9104 55.0668 24.3838C55.1601 24.2438 55.2068 24.1504 55.6268 24.1038C57.5801 23.8522 59.5411 23.6654 61.5068 23.5438C61.8801 23.5438 61.9268 23.5438 62.0668 23.7304C62.4868 24.2438 63.1401 24.7104 63.6534 24.9904C63.8868 25.1304 64.0268 25.1771 64.2134 25.1771C64.4468 25.1771 64.6334 25.0371 64.7734 24.8971C64.9601 24.7104 65.0068 24.4771 64.9134 24.2904C64.8201 24.1038 63.7001 23.4971 63.6534 23.2638C63.6068 23.1238 63.7934 23.0771 63.7934 23.0771C64.6334 22.7971 65.4734 22.2838 66.0334 21.2571C66.5468 20.2771 66.6401 18.9238 65.7068 18.2238C64.8668 17.5705 63.6068 17.6638 62.6268 18.5971C61.6468 19.4838 61.3201 20.7438 61.4601 21.8638C61.4601 22.0504 61.4601 22.1438 61.2268 22.1438C59.7334 22.2838 58.2868 22.2838 56.6535 22.3771C56.5601 22.3771 56.5135 22.3304 56.5601 22.2371C58.4268 19.0171 61.1801 16.7305 64.2601 14.4438C64.4468 14.3038 64.4001 14.0238 64.4001 13.7438C69.9534 14.9571 75.2734 17.1971 81.0134 17.1505C83.3934 17.1505 85.6801 16.7771 87.8267 15.5638C89.7401 14.5371 90.5334 13.5571 90.5801 12.5771C90.6267 11.8771 90.1601 11.4571 89.4601 11.5971C83.6734 12.9505 78.1201 12.9038 72.3334 12.2038C65.7068 11.3638 59.4068 9.73047 52.8735 9.73047ZM62.8601 21.3505C62.7668 20.7438 62.9534 19.9038 63.6534 19.3438C63.9801 19.0638 64.4468 18.9705 64.6801 19.2038C65.0068 19.4838 64.8201 20.1371 64.5401 20.5571C64.2134 21.0705 63.6068 21.4905 63.0934 21.5838H63.0468C63.0001 21.6305 62.9068 21.5838 62.8601 21.3505Z" fill="url(#paint28_linear_11105_19632)"/>
</g>
<defs>
<radialGradient id="paint0_radial_11105_19632" cx="0" cy="0" r="1" gradientUnits="userSpaceOnUse" gradientTransform="translate(69.3922 290.387) scale(302.239 294.714)">
<stop stop-color="#00050D"/>
<stop offset="0.7" stop-color="#051125"/>
<stop offset="0.905" stop-color="#173E7E"/>
<stop offset="0.955" stop-color="#4CA9E3"/>
<stop offset="1" stop-color="#4CA9E3"/>
</radialGradient>
<linearGradient id="paint1_linear_11105_19632" x1="69.8838" y1="53.8437" x2="69.8838" y2="0.494482" gradientUnits="userSpaceOnUse">
<stop stop-color="#08142E"/>
<stop offset="0.809" stop-color="#17326E"/>
<stop offset="1" stop-color="#0D69A9"/>
</linearGradient>
<linearGradient id="paint2_linear_11105_19632" x1="70.7474" y1="53.8503" x2="70.7474" y2="0.496347" gradientUnits="userSpaceOnUse">
<stop stop-color="#08142E"/>
<stop offset="0.809" stop-color="#17326E"/>
<stop offset="1" stop-color="#0D69A9"/>
</linearGradient>
<linearGradient id="paint3_linear_11105_19632" x1="81.9554" y1="44.6704" x2="81.9554" y2="7.70582" gradientUnits="userSpaceOnUse">
<stop stop-color="#08142E"/>
<stop offset="0.809" stop-color="#17326E"/>
<stop offset="1" stop-color="#0D69A9"/>
</linearGradient>
<linearGradient id="paint4_linear_11105_19632" x1="97.7465" y1="44.8318" x2="97.7465" y2="7.37441" gradientUnits="userSpaceOnUse">
<stop stop-color="#08142E"/>
<stop offset="0.809" stop-color="#17326E"/>
<stop offset="1" stop-color="#0D69A9"/>
</linearGradient>
<linearGradient id="paint5_linear_11105_19632" x1="100.052" y1="43.3688" x2="100.052" y2="9.0558" gradientUnits="userSpaceOnUse">
<stop stop-color="#08142E"/>
<stop offset="0.809" stop-color="#17326E"/>
<stop offset="1" stop-color="#0D69A9"/>
</linearGradient>
<linearGradient id="paint6_linear_11105_19632" x1="79.4028" y1="43.8608" x2="79.4028" y2="8.39233" gradientUnits="userSpaceOnUse">
<stop stop-color="#08142E"/>
<stop offset="0.809" stop-color="#17326E"/>
<stop offset="1" stop-color="#0D69A9"/>
</linearGradient>
<linearGradient id="paint7_linear_11105_19632" x1="94.2412" y1="44.8153" x2="94.2412" y2="7.41807" gradientUnits="userSpaceOnUse">
<stop stop-color="#08142E"/>
<stop offset="0.809" stop-color="#17326E"/>
<stop offset="1" stop-color="#0D69A9"/>
</linearGradient>
<linearGradient id="paint8_linear_11105_19632" x1="61.8923" y1="44.7835" x2="61.8923" y2="7.39467" gradientUnits="userSpaceOnUse">
<stop stop-color="#08142E"/>
<stop offset="0.809" stop-color="#17326E"/>
<stop offset="1" stop-color="#0D69A9"/>
</linearGradient>
<linearGradient id="paint9_linear_11105_19632" x1="78.0522" y1="44.7906" x2="78.0522" y2="7.65711" gradientUnits="userSpaceOnUse">
<stop stop-color="#08142E"/>
<stop offset="0.809" stop-color="#17326E"/>
<stop offset="1" stop-color="#0D69A9"/>
</linearGradient>
<linearGradient id="paint10_linear_11105_19632" x1="97.8198" y1="44.8049" x2="97.8198" y2="7.39931" gradientUnits="userSpaceOnUse">
<stop stop-color="#08142E"/>
<stop offset="0.809" stop-color="#17326E"/>
<stop offset="1" stop-color="#0D69A9"/>
</linearGradient>
<linearGradient id="paint11_linear_11105_19632" x1="85.1382" y1="44.8225" x2="85.1382" y2="7.39354" gradientUnits="userSpaceOnUse">
<stop stop-color="#08142E"/>
<stop offset="0.809" stop-color="#17326E"/>
<stop offset="1" stop-color="#0D69A9"/>
</linearGradient>
<linearGradient id="paint12_linear_11105_19632" x1="105.549" y1="44.7864" x2="105.549" y2="7.3901" gradientUnits="userSpaceOnUse">
<stop stop-color="#08142E"/>
<stop offset="0.809" stop-color="#17326E"/>
<stop offset="1" stop-color="#0D69A9"/>
</linearGradient>
<linearGradient id="paint13_linear_11105_19632" x1="69.416" y1="44.4014" x2="69.416" y2="7.86846" gradientUnits="userSpaceOnUse">
<stop stop-color="#08142E"/>
<stop offset="0.809" stop-color="#17326E"/>
<stop offset="1" stop-color="#0D69A9"/>
</linearGradient>
<linearGradient id="paint14_linear_11105_19632" x1="63.5844" y1="44.7906" x2="63.5844" y2="7.64585" gradientUnits="userSpaceOnUse">
<stop stop-color="#08142E"/>
<stop offset="0.809" stop-color="#17326E"/>
<stop offset="1" stop-color="#0D69A9"/>
</linearGradient>
<linearGradient id="paint15_linear_11105_19632" x1="35.3879" y1="44.7851" x2="35.3879" y2="7.39026" gradientUnits="userSpaceOnUse">
<stop stop-color="#08142E"/>
<stop offset="0.809" stop-color="#17326E"/>
<stop offset="1" stop-color="#0D69A9"/>
</linearGradient>
<linearGradient id="paint16_linear_11105_19632" x1="52.1128" y1="44.8048" x2="52.1128" y2="7.41784" gradientUnits="userSpaceOnUse">
<stop stop-color="#08142E"/>
<stop offset="0.809" stop-color="#17326E"/>
<stop offset="1" stop-color="#0D69A9"/>
</linearGradient>
<linearGradient id="paint17_linear_11105_19632" x1="47.2451" y1="44.7923" x2="47.2451" y2="7.39605" gradientUnits="userSpaceOnUse">
<stop stop-color="#08142E"/>
<stop offset="0.809" stop-color="#17326E"/>
<stop offset="1" stop-color="#0D69A9"/>
</linearGradient>
<linearGradient id="paint18_linear_11105_19632" x1="48.1243" y1="44.8174" x2="48.1243" y2="7.40297" gradientUnits="userSpaceOnUse">
<stop stop-color="#08142E"/>
<stop offset="0.809" stop-color="#17326E"/>
<stop offset="1" stop-color="#0D69A9"/>
</linearGradient>
<linearGradient id="paint19_linear_11105_19632" x1="90.3376" y1="44.1065" x2="90.3376" y2="7.5053" gradientUnits="userSpaceOnUse">
<stop stop-color="#08142E"/>
<stop offset="0.809" stop-color="#17326E"/>
<stop offset="1" stop-color="#0D69A9"/>
</linearGradient>
<linearGradient id="paint20_linear_11105_19632" x1="73.5861" y1="44.7914" x2="73.5861" y2="7.39935" gradientUnits="userSpaceOnUse">
<stop stop-color="#08142E"/>
<stop offset="0.809" stop-color="#17326E"/>
<stop offset="1" stop-color="#0D69A9"/>
</linearGradient>
<linearGradient id="paint21_linear_11105_19632" x1="63.8749" y1="43.5234" x2="63.8749" y2="8.19682" gradientUnits="userSpaceOnUse">
<stop stop-color="#08142E"/>
<stop offset="0.809" stop-color="#17326E"/>
<stop offset="1" stop-color="#0D69A9"/>
</linearGradient>
<linearGradient id="paint22_linear_11105_19632" x1="65.0718" y1="44.8029" x2="65.0718" y2="7.40665" gradientUnits="userSpaceOnUse">
<stop stop-color="#08142E"/>
<stop offset="0.809" stop-color="#17326E"/>
<stop offset="1" stop-color="#0D69A9"/>
</linearGradient>
<linearGradient id="paint23_linear_11105_19632" x1="44.5742" y1="44.8043" x2="44.5742" y2="7.40714" gradientUnits="userSpaceOnUse">
<stop stop-color="#08142E"/>
<stop offset="0.809" stop-color="#17326E"/>
<stop offset="1" stop-color="#0D69A9"/>
</linearGradient>
<linearGradient id="paint24_linear_11105_19632" x1="54.6192" y1="65.8146" x2="38.4454" y2="5.45412" gradientUnits="userSpaceOnUse">
<stop stop-color="#B2B1B1"/>
<stop offset="0.35" stop-color="#DEDDDE"/>
<stop offset="0.65" stop-color="#DEDDDE"/>
<stop offset="1" stop-color="#B2B1B1"/>
</linearGradient>
<linearGradient id="paint25_linear_11105_19632" x1="97.1832" y1="32.7464" x2="81.0847" y2="-27.3345" gradientUnits="userSpaceOnUse">
<stop stop-color="#B2B1B1"/>
<stop offset="0.35" stop-color="#DEDDDE"/>
<stop offset="0.65" stop-color="#DEDDDE"/>
<stop offset="1" stop-color="#B2B1B1"/>
</linearGradient>
<linearGradient id="paint26_linear_11105_19632" x1="70.0013" y1="0.138669" x2="70.0013" y2="53.7628" gradientUnits="userSpaceOnUse">
<stop stop-color="white"/>
<stop offset="0.552" stop-color="white"/>
<stop offset="0.691" stop-color="#FAFAFA"/>
<stop offset="0.8" stop-color="#D3D2D2"/>
<stop offset="1" stop-color="#BDBCBC"/>
</linearGradient>
<linearGradient id="paint27_linear_11105_19632" x1="80.9712" y1="17.2856" x2="80.9712" y2="43.88" gradientUnits="userSpaceOnUse">
<stop stop-color="white"/>
<stop offset="0.552" stop-color="white"/>
<stop offset="0.691" stop-color="#EFEEEE"/>
<stop offset="0.8" stop-color="#E9E9E9"/>
<stop offset="1" stop-color="#D3D2D2"/>
</linearGradient>
<linearGradient id="paint28_linear_11105_19632" x1="59.8044" y1="7.16894" x2="59.8044" y2="44.0603" gradientUnits="userSpaceOnUse">
<stop stop-color="white"/>
<stop offset="0.552" stop-color="white"/>
<stop offset="0.691" stop-color="#EFEEEE"/>
<stop offset="0.8" stop-color="#E9E9E9"/>
<stop offset="1" stop-color="#D3D2D2"/>
</linearGradient>
<clipPath id="clip0_11105_19632">
<rect width="140" height="54" fill="white"/>
</clipPath>
</defs>
</svg>
