<svg width="70" height="30" viewBox="0 0 70 30" fill="none" xmlns="http://www.w3.org/2000/svg">
<g clip-path="url(#clip0_10196_961)">
<g clip-path="url(#clip1_10196_961)">
<g clip-path="url(#clip2_10196_961)">
<path d="M35 3.55859C15.6679 3.55859 0 8.68046 0 15.0014C0 21.3222 15.6712 26.4408 35 26.4408C54.3288 26.4408 70 21.3189 70 14.998C70 8.6771 54.3321 3.55859 35 3.55859ZM35 25.4903C16.259 25.4903 1.06804 20.7949 1.06468 15.0014C1.06468 9.20776 16.259 4.50908 35 4.50908C53.741 4.50908 68.9353 9.20776 68.9353 15.0014C68.9353 20.7949 53.741 25.4903 35 25.4903Z" fill="#E6E7F5"/>
<path d="M27.0979 13.2377C28.2969 13.147 29.496 13.0429 30.658 12.8816C30.9905 13.1671 31.276 13.5937 31.7529 13.6273C31.894 13.6172 32.0216 13.6172 32.1257 13.5131C32.1795 13.456 32.203 13.3787 32.1896 13.3048C32.0082 13.0764 31.7126 12.9387 31.4809 12.754L31.4675 12.7204C31.8033 12.6163 32.1157 12.445 32.3978 12.2267C32.8109 11.8707 33.0426 11.3871 32.9016 10.8698C32.821 10.6179 32.5792 10.3627 32.2937 10.272C31.894 10.1813 31.4675 10.2955 31.1316 10.4903C30.5103 10.9169 30.255 11.5483 30.3826 12.2267C29.4926 12.4014 28.5388 12.435 27.6084 12.4685C28.5488 11.021 30.0568 9.57007 31.6958 8.68675C31.7966 8.54569 31.7193 8.34082 31.7597 8.1796H31.7731L35.9915 9.16703C38.5978 9.70777 42.0034 10.2485 44.4283 9.00582C44.9455 8.73042 45.6273 8.35089 45.7583 7.78665C45.7953 7.63887 45.7717 7.50117 45.6408 7.39705C45.3956 7.17874 44.9959 7.29629 44.6869 7.30637C41.9261 7.95122 38.6146 7.87061 35.7631 7.49109L30.1912 6.75556L28.2062 6.54732C25.4085 6.27192 22.4933 6.40962 20.2094 7.58177C18.7148 8.29716 17.5897 9.65067 17.7845 11.2259C17.8618 12.0051 18.4831 12.8212 19.3463 13.063C20.9584 13.5231 22.4395 12.7977 23.5244 11.7296C24.0517 11.1083 24.6596 10.5004 24.6327 9.68426C24.5924 9.61709 24.542 9.51297 24.4379 9.48946C24.3069 9.45587 24.1927 9.51297 24.102 9.57007C23.2523 10.3862 22.3623 11.3636 21.0726 11.34C20.6091 11.3165 20.1691 11.0982 19.9642 10.7086C19.7862 10.1813 20.0045 9.65067 20.327 9.23756C22.8157 6.35252 27.7562 7.37354 31.098 8.07549C29.0358 9.06628 27.1147 10.8363 25.7847 12.5928C24.8544 12.7406 23.8871 12.8212 23.0239 13.1201C22.5739 13.2948 21.9156 13.5131 21.8518 14.0404C21.8786 14.1445 21.8887 14.2587 22.0063 14.3158C22.097 14.3628 22.2246 14.3393 22.3018 14.3057C23.0743 13.7549 24.0416 13.5802 25.0223 13.4896C23.2657 15.5114 21.2942 18.1547 18.52 19.0178C17.4889 19.3167 16.2093 19.1891 15.5275 18.3629C15.0875 17.8121 15.2017 16.9489 15.5645 16.3981C16.0011 15.6726 16.8676 15.3637 17.499 14.8229C17.5763 14.7423 17.5763 14.5912 17.536 14.477C17.4722 14.3393 17.3177 14.2352 17.1632 14.2016C16.4545 14.121 15.7962 14.3393 15.242 14.6852C13.7575 15.7096 12.7903 17.2713 13.3847 18.9607C13.8247 20.3042 15.4234 21.305 16.9449 21.4427C20.2061 21.7987 22.6444 19.2596 24.27 17.0765L26.3355 14.2049L27.0979 13.2377ZM31.6589 10.7321C31.8 10.6818 32.0115 10.6818 32.1257 10.7825C32.2802 10.8967 32.2399 11.1117 32.2097 11.2628C32.0552 11.7162 31.5313 11.9547 31.0779 12.0823C30.9805 11.5516 31.1215 10.9975 31.6589 10.7321Z" fill="#E6E7F5"/>
<path d="M55.1355 17.6614C54.9575 17.6278 54.8265 17.7554 54.6855 17.8461C53.9634 18.4909 53.2513 19.213 52.4789 19.7874C52.0422 20.0628 51.6157 20.3617 51.0615 20.3147C50.9205 20.2945 50.8164 20.177 50.7391 20.0863C50.5846 19.8344 50.7391 19.569 50.8298 19.3507L56.798 10.9609L54.6317 10.8232L51.1119 15.7201C51.075 15.4917 50.9843 15.2935 50.8802 15.0887C50.6081 14.595 50.054 14.3867 49.4998 14.3296C46.43 13.9938 44.8951 17.0736 42.3292 17.8562C41.9295 17.9133 41.372 18.0409 41.0898 17.6714C40.6633 17.2785 40.8715 16.6706 41.0126 16.234C41.1402 15.9115 41.4123 15.4749 41.8388 15.4279C41.6709 15.6596 41.6709 16.0492 41.8388 16.291C42.0202 16.5665 42.3157 16.6941 42.6382 16.7277C43.0244 16.7613 43.3367 16.6235 43.6189 16.4052C44.0185 16.0358 44.2133 15.532 44.0588 15.0148C43.9312 14.5782 43.4274 14.1986 42.9371 14.1315C41.6474 13.9467 40.6667 14.7965 39.9311 15.6697C39.9815 15.4077 40.0218 15.0618 39.9446 14.7864C39.8404 14.3733 39.4005 14.0038 38.937 13.9467C37.0662 13.7184 35.9948 15.4413 34.7186 16.4187C34.7589 16.2709 34.7454 16.1097 34.7454 15.9485C34.7186 15.3876 34.6413 14.8233 34.1913 14.4102C33.9998 14.286 33.6908 14.3531 33.496 14.4337C33.2374 14.5479 32.915 14.7696 32.915 15.0551C33.046 15.4816 33.2274 15.8813 33.187 16.3649C33.046 17.5505 32.5422 18.5951 31.5111 19.4347C30.9435 19.8612 30.1039 20.1366 29.3952 19.8142C28.8276 19.5153 28.6496 18.9645 28.7 18.4137C28.8141 17.0904 30.1039 15.8847 31.4339 15.3439C31.7025 15.2264 32.0518 15.2264 32.2836 15.0215C32.3608 14.8905 32.2802 14.7192 32.2063 14.6084C32.1324 14.4472 31.9645 14.2994 31.7697 14.2994C31.0711 14.2893 30.4531 14.4371 29.8721 14.6789C27.5244 15.6093 27.061 17.8864 25.4488 19.4145C25.2272 19.6463 24.8544 19.7605 24.7637 20.0594C24.8174 20.3012 24.8812 20.543 25.113 20.7143C25.2036 20.7378 25.301 20.7378 25.3951 20.7143C25.9728 20.4288 26.3758 19.8646 26.9031 19.4616C26.93 19.4716 26.9434 19.5086 26.9434 19.5422C27.1751 20.402 27.9241 21.3928 29.019 21.507C31.3432 21.8865 33.0057 20.0124 34.2181 18.5312C35.1216 17.4968 36.1258 16.2575 37.429 15.6025C37.6741 15.5219 38.01 15.3506 38.2552 15.5454C38.5004 15.9485 38.2182 16.3717 38.0503 16.7176L34.9537 21.0972L34.9033 21.2584C34.8899 21.3054 34.9537 21.339 34.994 21.3625L36.9285 21.3726L39.8942 17.1912C39.8942 17.3524 39.8404 17.5472 39.8807 17.7185C39.9177 18.2558 40.2267 18.7966 40.8077 19.0384C42.0202 19.4952 43.0378 18.6824 43.9547 18.1416C43.8506 18.4305 43.7331 18.7059 43.6827 19.0048C43.6189 19.9351 43.901 20.842 44.8179 21.3256C46.3796 21.9335 47.7735 20.9897 48.8952 20.1064C48.8549 20.4624 48.8952 20.8319 49.127 21.1073C49.4729 21.5103 49.9633 21.7051 50.5443 21.6715C52.7106 21.4902 54.1951 19.5825 55.6393 18.2021L55.6662 18.098C55.6124 17.8797 55.3438 17.7285 55.1355 17.6614ZM47.179 19.9922C46.8834 20.0829 46.4435 20.1064 46.1848 19.9351C45.7583 19.6463 45.7214 19.1526 45.812 18.7059C46.1848 17.3524 47.3973 15.7402 49.0766 15.4783C49.4091 15.4346 49.6811 15.5723 49.8625 15.7906C50.1211 16.2507 49.8491 16.778 49.6442 17.1912L50.0304 17.3154C49.2815 18.2928 48.509 19.5556 47.179 19.9922Z" fill="#E6E7F5"/>
</g>
</g>
</g>
<defs>
<clipPath id="clip0_10196_961">
<rect width="70" height="30" fill="white"/>
</clipPath>
<clipPath id="clip1_10196_961">
<rect width="70" height="30" fill="white"/>
</clipPath>
<clipPath id="clip2_10196_961">
<rect width="70" height="22.8822" fill="white" transform="translate(0 3.55859)"/>
</clipPath>
</defs>
</svg>
