<svg width="70" height="30" viewBox="0 0 70 30" fill="none" xmlns="http://www.w3.org/2000/svg">
<g clip-path="url(#clip0_10196_1236)">
<g clip-path="url(#clip1_10196_1236)">
<g clip-path="url(#clip2_10196_1236)">
<path fill-rule="evenodd" clip-rule="evenodd" d="M42.5541 11.3223V19.8719H40.0758V11.3223H42.5541ZM28.833 17.9587C28.833 18.1061 28.7961 18.3732 28.6702 18.5176C28.5443 18.6619 28.4276 18.7264 28.2771 18.7633C28.142 18.797 27.9823 18.8492 27.5923 18.8492C27.2023 18.8492 27.0426 18.797 26.9044 18.7633C26.7539 18.7264 26.6372 18.6619 26.5113 18.5176C26.3854 18.3732 26.3485 18.1061 26.3485 17.9587V11.3223H23.9102V17.3844C23.8549 18.4531 24.2418 19.3744 25.3566 19.7982C25.6484 19.9087 26.628 20.1298 27.5861 20.1298C28.5443 20.1298 29.5239 19.9087 29.8157 19.7982C30.9304 19.3744 31.3174 18.4224 31.2621 17.3537V11.3223H28.8238L28.833 17.9587ZM34.3454 18.017C34.3454 18.1828 34.3699 18.4469 34.5051 18.5821C34.6402 18.7172 34.7968 18.8462 35.1991 18.8462C35.6014 18.8462 35.7765 18.7172 35.9116 18.5821C36.0467 18.4469 36.0559 18.1828 36.0559 18.017V11.3223H38.5373V17.4519C38.5373 18.1552 38.4329 18.3487 38.3039 18.622C38.0736 19.1103 37.7235 19.4788 37.1216 19.7859C36.75 19.9763 36.102 20.1268 35.2053 20.1268C34.3485 20.1176 33.6391 19.9579 33.2797 19.7736C32.6778 19.4634 32.38 19.1103 32.1496 18.6189C32.0636 18.4347 31.9623 18.0477 31.9562 17.4489V16.6627H34.3515L34.3454 18.017ZM44.0958 12.477V19.875H46.66V16.1099H49.8231V14.8293H46.66V12.6059H49.9951V11.3223H45.2474C44.8911 11.3223 44.5718 11.3438 44.3476 11.571C44.1203 11.7983 44.0958 12.0931 44.0958 12.477ZM53.3302 11.3223V19.8719H50.8519V11.3223H53.3302ZM54.8657 18.7203C54.8657 19.0765 54.8903 19.3959 55.1144 19.6231C55.3417 19.8504 55.6334 19.875 56.0204 19.875H60.1662V18.5913H57.344V11.3223H54.8626L54.8657 18.7203ZM60.851 19.875V11.3223H63.5873L65.0829 16.9667L66.5784 11.3223H69.9995V19.8719H67.6072V13.8896L65.9827 19.875H63.8882L62.2176 13.8896V19.875H60.851ZM17.1602 12.477V19.875H19.7244V16.1099H22.8875V14.8293H19.7244V12.6059H23.0595V11.3223H18.3118C17.9525 11.3223 17.6362 11.3438 17.412 11.571C17.1878 11.7983 17.1602 12.0931 17.1602 12.477Z" fill="#E6E7F5"/>
<path fill-rule="evenodd" clip-rule="evenodd" d="M8.99414 16.0156H10.2317V12.2383H8.99414V16.0156Z" fill="#E6E7F5"/>
<path fill-rule="evenodd" clip-rule="evenodd" d="M5.60147 16.0152C4.98114 16.0305 4.35773 16.0305 3.73432 16.0152C3.26446 15.9998 2.93279 15.6405 2.95429 15.1553V13.3618H1.95929V16.0121H0V10.4106C0 9.9346 0.322453 9.63672 0.773888 9.63672H8.38686L10.644 11.5315H1.95929V12.2378H4.19189V14.6946C4.19189 14.8267 4.32395 14.9741 4.45293 14.9802C4.60033 14.9894 4.74774 14.9894 4.89515 14.9802C5.02413 14.9679 5.15618 14.8267 5.15618 14.6946V12.2378H6.39379V15.1553C6.41836 15.6558 6.05905 15.9998 5.60147 16.0152Z" fill="#E6E7F5"/>
<path fill-rule="evenodd" clip-rule="evenodd" d="M5.90811 17.8488H2.17994L0.794922 16.6849H5.50581C6.67278 16.7064 7.07815 15.9632 7.07815 15.174V12.2412H8.3219V15.4166C8.33726 16.774 7.41596 17.8488 5.90811 17.8488Z" fill="#E6E7F5"/>
<path fill-rule="evenodd" clip-rule="evenodd" d="M10.9025 11.75L12.8249 13.3653V19.5196C12.8249 20.0048 12.4994 20.361 11.9804 20.361H5.18125L2.98242 18.5123H10.9025V11.75Z" fill="#E6E7F5"/>
</g>
</g>
</g>
<defs>
<clipPath id="clip0_10196_1236">
<rect width="70" height="30" fill="white"/>
</clipPath>
<clipPath id="clip1_10196_1236">
<rect width="70" height="30" fill="white"/>
</clipPath>
<clipPath id="clip2_10196_1236">
<rect width="70" height="10.7269" fill="white" transform="translate(0 9.63672)"/>
</clipPath>
</defs>
</svg>
