<svg width="180" height="120" viewBox="0 0 180 120" fill="none" xmlns="http://www.w3.org/2000/svg">
<g clip-path="url(#clip0_11105_18898)">
<path d="M67.7414 30C63.4664 30 60 33.4664 60 37.7414V82.2574C60 86.5336 63.4664 90 67.7414 90H112.257C116.534 90 120 86.5336 120 82.2574V37.7414C120 33.4664 116.534 30 112.257 30H67.7414ZM67.7414 33.8707H112.257C114.395 33.8707 116.128 35.6039 116.128 37.7414V82.2574C116.128 84.3949 114.395 86.1281 112.257 86.1281H67.7414C65.6039 86.1281 63.8707 84.3949 63.8707 82.2574V37.7414C63.8707 35.6039 65.6039 33.8707 67.7414 33.8707Z" fill="#0671D8"/>
<path d="M108.388 70.6445H87.0977V74.5152H108.388V70.6445Z" fill="#0671D8"/>
<path d="M87.0977 45.4844V66.291H91.4523V49.3551H95.807V66.291H100.162V49.3551H103.064C103.866 49.3551 104.516 50.0055 104.516 50.807V66.291H108.871V50.323C108.871 47.6512 106.704 45.4844 104.032 45.4844H87.0977Z" fill="#0671D8"/>
<path d="M75.9676 45.4844C73.2957 45.4844 71.1289 47.6512 71.1289 50.323V61.4523C71.1289 64.1242 73.2957 66.291 75.9676 66.291H79.8383V67.259C79.8383 69.1293 78.1051 70.6457 75.9676 70.6457H73.5488V74.5164H75.9676C80.5109 74.5164 84.193 71.2668 84.193 67.2578V45.4844H75.9676ZM76.9355 49.3551H79.8383V62.4191H76.9355C76.134 62.4191 75.4836 61.7687 75.4836 60.9672V50.8059C75.4836 50.0055 76.134 49.3551 76.9355 49.3551Z" fill="#0671D8"/>
</g>
<defs>
<clipPath id="clip0_11105_18898">
<rect width="60" height="60" fill="white" transform="translate(60 30)"/>
</clipPath>
</defs>
</svg>
