<svg width="48" height="48" viewBox="0 0 48 48" fill="none" xmlns="http://www.w3.org/2000/svg">
<g clip-path="url(#clip0_11091_17611)">
<path d="M6.19312 0C2.77312 0 0 2.77312 0 6.19312V41.8059C0 45.2269 2.77312 48 6.19312 48H41.8059C45.2269 48 48 45.2269 48 41.8059V6.19312C48 2.77312 45.2269 0 41.8059 0H6.19312ZM6.19312 3.09656H41.8059C43.5159 3.09656 44.9025 4.48312 44.9025 6.19312V41.8059C44.9025 43.5159 43.5159 44.9025 41.8059 44.9025H6.19312C4.48312 44.9025 3.09656 43.5159 3.09656 41.8059V6.19312C3.09656 4.48312 4.48312 3.09656 6.19312 3.09656Z" fill="#0671D8"/>
<path d="M38.7122 32.5156H21.6797V35.6122H38.7122V32.5156Z" fill="#0671D8"/>
<path d="M21.6797 12.3867V29.032H25.1634V15.4833H28.6472V29.032H32.1309V15.4833H34.4531C35.0944 15.4833 35.6147 16.0036 35.6147 16.6448V29.032H39.0984V16.2577C39.0984 14.1202 37.365 12.3867 35.2275 12.3867H21.6797Z" fill="#0671D8"/>
<path d="M12.7772 12.3867C10.6397 12.3867 8.90625 14.1202 8.90625 16.2577V25.1611C8.90625 27.2986 10.6397 29.032 12.7772 29.032H15.8737V29.8064C15.8737 31.3027 14.4872 32.5158 12.7772 32.5158H10.8422V35.6123H12.7772C16.4119 35.6123 19.3575 33.0127 19.3575 29.8055V12.3867H12.7772ZM13.5516 15.4833H15.8737V25.9345H13.5516C12.9103 25.9345 12.39 25.4142 12.39 24.773V16.6439C12.39 16.0036 12.9103 15.4833 13.5516 15.4833Z" fill="#0671D8"/>
</g>
<defs>
<clipPath id="clip0_11091_17611">
<rect width="48" height="48" fill="white"/>
</clipPath>
</defs>
</svg>
