<svg width="60" height="60" viewBox="0 0 60 60" fill="none" xmlns="http://www.w3.org/2000/svg">
<g clip-path="url(#clip0_11105_19625)">
<path d="M7.74141 0C3.46641 0 0 3.46641 0 7.74141V52.2574C0 56.5336 3.46641 60 7.74141 60H52.2574C56.5336 60 60 56.5336 60 52.2574V7.74141C60 3.46641 56.5336 0 52.2574 0H7.74141ZM7.74141 3.8707H52.2574C54.3949 3.8707 56.1281 5.60391 56.1281 7.74141V52.2574C56.1281 54.3949 54.3949 56.1281 52.2574 56.1281H7.74141C5.60391 56.1281 3.8707 54.3949 3.8707 52.2574V7.74141C3.8707 5.60391 5.60391 3.8707 7.74141 3.8707Z" fill="#0671D8"/>
<path d="M48.3883 40.6445H27.0977V44.5152H48.3883V40.6445Z" fill="#0671D8"/>
<path d="M27.0977 15.4844V36.291H31.4523V19.3551H35.807V36.291H40.1617V19.3551H43.0645C43.866 19.3551 44.5164 20.0055 44.5164 20.807V36.291H48.8711V20.323C48.8711 17.6512 46.7043 15.4844 44.0324 15.4844H27.0977Z" fill="#0671D8"/>
<path d="M15.9676 15.4844C13.2957 15.4844 11.1289 17.6512 11.1289 20.323V31.4523C11.1289 34.1242 13.2957 36.291 15.9676 36.291H19.8383V37.259C19.8383 39.1293 18.1051 40.6457 15.9676 40.6457H13.5488V44.5164H15.9676C20.5109 44.5164 24.193 41.2668 24.193 37.2578V15.4844H15.9676ZM16.9355 19.3551H19.8383V32.4191H16.9355C16.134 32.4191 15.4836 31.7687 15.4836 30.9672V20.8059C15.4836 20.0055 16.134 19.3551 16.9355 19.3551Z" fill="#0671D8"/>
</g>
<defs>
<clipPath id="clip0_11105_19625">
<rect width="60" height="60" fill="white"/>
</clipPath>
</defs>
</svg>
