<svg width="70" height="30" viewBox="0 0 70 30" fill="none" xmlns="http://www.w3.org/2000/svg">
<g clip-path="url(#clip0_10196_975)">
<g clip-path="url(#clip1_10196_975)">
<g clip-path="url(#clip2_10196_975)">
<path fill-rule="evenodd" clip-rule="evenodd" d="M19.2578 0V30H50.7435V0H19.2578ZM50.3309 29.5874H19.6704V0.41263H50.3296V29.5874H50.3309Z" fill="#E6E7F5"/>
<path fill-rule="evenodd" clip-rule="evenodd" d="M20.7598 1.48047V28.5233H49.2598V1.48047H20.7598ZM27.3307 13.9087V10.7504C27.3307 7.51161 28.8164 6.82389 30.489 6.82389C32.0772 6.82389 33.6071 7.32476 33.694 9.45538L33.6914 10.897H31.8385L31.8424 9.96144C31.7879 8.88185 31.4868 8.63272 30.489 8.58341C29.0331 8.58341 29.2368 10.6725 29.2368 11.5756V14.8144C29.2213 16.3377 29.2187 17.4368 30.489 17.4368C31.2195 17.4368 31.832 17.2279 31.832 16.0951L31.8333 13.9216H30.55V12.2088H33.6343V19.1314H31.8528L31.8554 18.4048C31.4752 18.9614 30.5176 19.2482 30.031 19.2936C26.9868 19.2923 27.3592 17.3122 27.3307 13.9087ZM42.9042 23.1487H27.2775V19.8697H42.9042V23.1487ZM42.9042 19.1184H41.1058V11.1163L39.5046 19.1184H38.0461L36.5266 11.1552L36.5279 19.1184H34.7282V7.10677H37.2364L38.8143 15.0817L40.3947 7.10677H42.9042V19.1184Z" fill="#E6E7F5"/>
</g>
</g>
</g>
<defs>
<clipPath id="clip0_10196_975">
<rect width="70" height="30" fill="white"/>
</clipPath>
<clipPath id="clip1_10196_975">
<rect width="70" height="30" fill="white"/>
</clipPath>
<clipPath id="clip2_10196_975">
<rect width="31.4857" height="30" fill="white" transform="translate(19.2578)"/>
</clipPath>
</defs>
</svg>
