<svg width="140" height="60" viewBox="0 0 140 60" fill="none" xmlns="http://www.w3.org/2000/svg">
<g clip-path="url(#clip0_11105_19026)">
<g clip-path="url(#clip1_11105_19026)">
<path d="M129.986 27.9743H124.489V6.31391H129.66V8.73626C130.304 7.28433 131.927 5.98797 134.023 5.82499C137.579 5.66202 140.001 7.76584 140.001 12.292V27.9743H134.349V11.6475C134.349 9.70668 134.349 8.09178 133.053 7.76584C132.571 7.60287 131.756 7.76584 131.112 8.24734C130.304 9.05479 129.978 10.0252 129.978 11.6401L129.986 27.9743ZM36.5365 7.76584C35.2402 6.63244 33.6253 5.82499 31.6844 5.82499C29.7436 5.82499 28.2916 6.63244 26.8323 7.76584C24.5655 9.70668 23.1136 13.2624 23.1136 17.1441C23.1136 21.1888 24.5655 24.5815 26.8323 26.5224C28.2842 27.6558 29.7436 28.4632 31.6844 28.4632C33.6253 28.4632 35.2402 27.6558 36.5365 26.5224C38.9589 24.5815 40.2552 21.1888 40.2552 17.1441C40.2552 13.2624 38.9589 9.70668 36.5365 7.76584ZM34.4327 17.1441C34.4327 21.1888 34.4327 24.4186 33.7882 26.0335C33.3067 26.8409 32.8178 27.3224 31.6844 27.3224C30.714 27.3224 30.0695 26.8409 29.7436 26.0335C28.9361 24.4186 28.9361 21.1814 28.9361 17.1441C28.9361 13.2624 28.9361 9.86965 29.7436 8.25475C30.0695 7.4473 30.714 6.95839 31.6844 6.95839C32.8178 6.95839 33.2993 7.43989 33.7882 8.25475C34.5957 9.86965 34.4327 13.2624 34.4327 17.1441ZM92.9617 36.2266V42.0491H91.8283C91.1838 39.6268 90.2134 37.523 87.6281 37.36C86.0132 37.197 84.5539 38.1674 84.3909 39.6268C84.2279 41.0787 84.7168 42.3751 87.6281 43.99C91.3468 46.0938 94.2581 47.0642 94.2581 51.4274C94.2581 56.1165 90.2134 58.3759 86.8207 58.3759H80.3462V50.2866H81.4796C82.2871 54.4942 83.5834 57.0796 86.6503 57.2351C88.5911 57.2351 90.043 56.1017 90.043 54.0053C90.043 51.9015 88.7467 50.6125 85.6799 48.8273C82.2871 46.7235 80.1833 45.4345 80.1833 42.5232C80.1833 38.6415 82.9316 36.2192 87.2948 36.2192L92.9617 36.2266ZM100.073 27.9743V12.2994C100.073 7.77324 97.6509 5.66943 94.0877 5.8324C91.6654 5.99537 90.206 7.61027 89.5615 8.90664C88.7541 6.63985 86.9762 5.67684 84.3909 5.8324C82.2871 5.99537 80.6722 7.28433 80.0277 8.74367V6.32132H75.0126V27.9891H80.5092V11.6475C80.5092 10.0326 80.6722 9.0622 81.6426 8.25475C82.2871 7.77324 82.939 7.61027 83.4205 7.77324C84.7168 8.09919 84.7168 9.71409 84.7168 11.6549V27.9817H90.2134V11.4846C90.2134 10.0326 90.5394 9.0622 91.3468 8.24734C91.9913 7.76584 92.6432 7.60287 93.1247 7.76584C94.4211 8.09178 94.5766 9.70668 94.5766 11.6475V27.9743H100.073ZM43.9739 1.78774H49.6335V27.9817H43.9739V1.78774ZM69.679 27.9743V1.78774H64.0195V7.92881C63.5379 6.79542 62.4046 5.98797 60.7822 5.98797C56.7376 5.98797 53.5078 10.1956 53.3448 16.6626C53.1818 21.0258 54.6412 28.3003 60.2933 28.3003C62.5601 28.3003 63.8491 27.0039 64.338 25.8779V27.9817H69.679V27.9743ZM63.049 8.09178C64.1824 9.70668 64.1824 13.5884 64.1824 16.6626C64.1824 19.8924 64.3454 24.1 63.049 25.8779C62.5675 26.5224 62.0786 26.8483 61.2712 26.8483C60.1378 26.8483 59.4933 25.552 59.1673 23.4556C59.0044 21.5147 59.0044 19.0924 59.0044 16.507C59.0044 12.1438 59.3303 7.29174 61.4267 7.29174C62.2416 7.28433 62.5675 7.61027 63.049 8.09178ZM116.889 6.95839C118.341 7.76584 119.311 9.0622 119.311 11.9735V27.9817H113.978V25.5594C113.333 27.3372 111.555 28.4706 109.126 28.4706C107.185 28.4706 103.792 27.5002 103.792 22.4925C103.792 17.8034 106.866 16.833 110.259 15.3811C113.333 14.0921 113.652 13.9291 113.652 12.6328V9.07702C113.652 7.62509 112.844 6.9732 111.229 6.9732C110.585 7.13617 109.451 7.45471 109.451 8.26957C109.289 9.23999 110.422 9.23999 110.585 10.6919C110.748 12.9587 108.97 13.7662 107.355 13.6032C106.222 13.6032 104.933 12.9587 104.77 11.1808C104.607 8.26957 107.844 5.84722 112.37 5.84722C114.467 5.82499 115.756 6.31391 116.889 6.95839ZM113.652 15.0403L111.874 16.1737C110.096 17.3071 109.77 18.759 109.607 20.3813C109.444 21.6777 109.444 22.8037 109.607 24.7445C109.77 26.5224 110.903 26.8483 111.874 26.5224C113.007 26.0409 113.652 23.9371 113.652 21.6703V15.0403ZM36.8551 37.197C38.307 38.1674 39.1218 39.3008 39.1218 42.2047V58.3759H33.9512V55.9536C33.3067 57.5685 31.5288 58.7019 29.0991 58.7019C26.9953 58.7019 23.7655 57.8944 23.7655 52.8793C23.7655 48.1902 26.8397 47.2198 30.0695 45.7678C33.2993 44.3159 33.6253 44.1529 33.6253 43.0196V39.4638C33.6253 37.8489 32.8178 37.197 31.2029 37.36C30.5584 37.36 29.425 37.6859 29.425 38.4934C29.2621 39.6268 30.3955 39.6268 30.5584 41.0787C30.7214 43.1825 28.9435 43.99 27.3212 43.99C26.1878 43.827 24.8989 43.1825 24.7359 41.4047C24.5729 38.6564 27.8101 36.234 32.3363 36.234C34.4327 36.2266 35.7217 36.5451 36.8551 37.197ZM33.6253 45.2789L31.8474 46.4123C30.0695 47.5457 29.7436 48.9976 29.5806 50.6125C29.4176 51.9089 29.4176 53.1979 29.5806 54.9757C29.5806 56.9166 30.714 57.2351 31.6844 56.7536C32.9808 56.2721 33.6253 54.3313 33.6253 51.9015V45.2789ZM75.983 42.6936C75.983 38.1674 73.5607 35.9007 70.005 36.2266C68.2271 36.3896 66.7752 37.197 65.9603 38.3304V32.0264H60.4637V46.9012C60.4637 52.3978 56.582 57.5685 52.7003 57.4055C49.952 57.4055 49.3076 55.3017 48.9816 53.0423C48.5001 49.8051 48.5001 46.0938 48.8186 42.0491C49.1446 39.4638 49.7891 37.36 51.7299 37.36C53.1818 37.36 53.3448 38.3304 52.7003 38.9749C52.0485 39.7823 51.0854 40.5898 51.5669 42.3677C52.0484 44.3085 55.1227 44.627 56.5746 43.1751C57.708 41.8788 57.545 39.7823 56.7376 38.486C55.7672 36.8711 54.1523 36.2192 51.7299 36.2192C48.6557 36.2192 42.8406 38.9675 42.8406 47.7013C42.8406 57.0796 48.8187 58.6945 52.2188 58.6945C56.1005 58.6945 59.4933 55.3017 60.4637 52.5534V58.3759H65.9603V42.0417C65.9603 40.4268 66.2862 39.4564 67.0937 38.649C67.7382 38.1674 68.5456 38.0045 69.0345 38.1674C70.3309 38.4934 70.3309 40.1083 70.3309 42.0491V58.3759H75.9905L75.983 42.6936ZM19.3949 1.29883V10.5141H18.2615C17.2911 5.98797 15.1872 2.59519 12.2834 2.43222C10.3425 2.26925 9.20915 3.40264 8.23873 5.01754C7.26831 6.95839 6.7868 10.9956 6.7868 15.8477C6.7868 20.3739 6.94977 23.7667 7.43128 26.1964C7.75722 27.3298 8.56467 29.1077 10.6611 29.1077C11.7945 29.1077 12.6019 28.7818 13.0834 28.1373C13.8909 27.1669 14.0539 25.226 14.0539 23.9371V19.5739C14.0539 17.959 13.5723 16.9885 12.7575 16.4996C12.113 16.1737 11.1426 16.1737 10.6537 16.0181V14.8847H19.706V38.0045H18.5726C18.0911 36.2266 17.7652 34.9302 16.9577 33.4783C16.1503 32.0264 14.6909 30.4041 12.2686 30.4041C9.68325 30.2411 7.74241 31.856 7.74241 34.2858C7.74241 37.523 9.68325 38.3304 13.239 40.2639C16.6318 42.2047 21.0024 43.8196 21.0024 49.4792C21.0024 54.9757 16.3132 58.3685 10.9796 58.3685H2.42361V47.2198H3.557C5.00893 55.6276 8.57208 57.0796 10.9944 57.0796C14.0687 57.0796 15.5206 55.1387 15.5206 52.3904C15.3576 48.8347 12.9353 47.5383 9.5425 45.7604C4.69039 43.0121 2.43101 41.7158 2.43101 37.1896C2.59399 33.3079 5.66822 30.8856 9.06099 29.9152C1.94951 29.1077 -0.154307 22.6407 0.00866434 15.6848C0.00866434 8.73626 4.05332 1.29883 11.9723 1.29883H19.3949Z" fill="#6994C3"/>
</g>
</g>
<defs>
<clipPath id="clip0_11105_19026">
<rect width="140" height="60" fill="white"/>
</clipPath>
<clipPath id="clip1_11105_19026">
<rect width="140" height="57.403" fill="white" transform="translate(0 1.29883)"/>
</clipPath>
</defs>
</svg>
