<svg width="416" height="180" viewBox="0 0 416 180" fill="none" xmlns="http://www.w3.org/2000/svg">
<g clip-path="url(#clip0_11102_17181)">
<path fill-rule="evenodd" clip-rule="evenodd" d="M379.356 84.2178H363.652V22.3258H378.432V29.2558C379.587 26.8898 381.351 24.8734 383.542 23.4128C385.733 21.9521 388.273 21.0997 390.902 20.9428C401.065 20.4808 407.992 26.4868 407.992 39.4168V84.2168H391.826V37.5708C391.826 32.0288 391.826 27.4108 388.132 26.4878C387.163 26.2963 386.163 26.3209 385.205 26.56C384.247 26.799 383.353 27.2466 382.588 27.8708C381.388 29.1632 380.478 30.6976 379.921 32.3707C379.363 34.0438 379.17 35.8169 379.355 37.5708V84.2188L379.356 84.2178ZM112.397 26.4868C108.623 22.9879 103.686 21.0126 98.5395 20.9428C93.4121 21.1 88.5051 23.0635 84.6845 26.4868C78.2185 32.0308 74.0635 42.1868 74.0635 53.2748C74.0635 64.8188 78.2185 74.5178 84.6845 80.0618C88.5055 83.484 93.4124 85.4468 98.5395 85.6038C103.686 85.5335 108.623 83.5583 112.397 80.0598C119.325 74.5148 123.02 64.8188 123.02 53.2718C123.02 42.1888 119.325 32.0278 112.397 26.4838V26.4868ZM106.393 53.2748C106.393 64.8188 106.393 74.0568 104.546 78.6758C104.04 79.8301 103.194 80.8025 102.121 81.4628C101.047 82.1232 99.7978 82.4399 98.5395 82.3708C97.3412 82.4336 96.1546 82.108 95.1562 81.4422C94.1578 80.7765 93.4011 79.8062 92.9985 78.6758C90.6905 74.0568 90.6905 64.8188 90.6905 53.2748C90.6905 42.1858 90.6905 32.4888 92.9985 27.8698C93.4014 26.739 94.1587 25.7686 95.1576 25.103C96.1566 24.4374 97.3438 24.1122 98.5425 24.1758C99.8002 24.1071 101.049 24.424 102.122 25.0842C103.194 25.7443 104.04 26.7161 104.546 27.8698C106.856 32.4908 106.393 42.1888 106.393 53.2748ZM273.591 107.772V124.399H270.358C268.51 117.474 265.738 111.472 258.348 111.005C256.266 110.649 254.129 111.13 252.399 112.341C250.67 113.552 249.488 115.397 249.111 117.475C248.651 121.63 250.033 125.325 258.346 129.943C268.968 135.949 277.285 138.718 277.285 151.187C277.285 164.583 265.738 171.05 256.042 171.05H237.564V147.96H240.798C243.106 159.967 246.799 167.358 255.577 167.82C256.842 167.943 258.119 167.792 259.32 167.378C260.521 166.963 261.619 166.295 262.539 165.418C263.459 164.542 264.18 163.477 264.652 162.298C265.124 161.118 265.336 159.85 265.275 158.581C265.275 152.578 261.58 148.884 252.805 143.801C243.106 137.799 237.104 134.101 237.104 125.788C237.104 114.702 244.953 107.775 257.421 107.775L273.591 107.772ZM293.912 84.2178V39.4168C293.912 26.4868 286.985 20.4788 276.822 20.9428C274.085 21.1386 271.448 22.053 269.177 23.5934C266.906 25.1339 265.082 27.2461 263.889 29.7168C261.58 23.2508 256.499 20.4818 249.111 20.9428C246.482 21.0999 243.942 21.9523 241.751 23.4129C239.56 24.8735 237.796 26.8899 236.639 29.2558V22.3288H222.324V84.2198H238.025V37.5708C238.025 32.9508 238.485 30.1818 241.258 27.8708C241.936 27.2558 242.749 26.8098 243.631 26.5694C244.514 26.329 245.441 26.3011 246.337 26.4878C250.034 27.4098 250.034 32.0318 250.034 37.5708V84.2188H265.738V37.1088C265.592 35.4277 265.804 33.7349 266.362 32.1423C266.919 30.5497 267.809 29.0937 268.972 27.8708C269.648 27.2557 270.461 26.8097 271.344 26.5693C272.226 26.3289 273.153 26.301 274.049 26.4878C277.746 27.4098 278.207 32.0318 278.207 37.5708V84.2188L293.912 84.2178ZM133.644 9.39576H149.809V84.2178H133.644V9.39576ZM207.083 84.2178V9.39777H190.917V26.9478C190.118 25.1974 188.808 23.7304 187.158 22.7405C185.509 21.7507 183.598 21.2846 181.678 21.4038C170.132 21.4038 160.893 33.4118 160.432 51.8888C159.971 64.3568 164.126 85.1428 180.292 85.1428C182.688 85.2724 185.068 84.6819 187.126 83.4472C189.184 82.2125 190.825 80.3902 191.839 78.2148V84.2178H207.083ZM188.145 27.4088C191.378 32.0288 191.378 43.1108 191.378 51.8888C191.378 61.1238 191.839 73.1318 188.145 78.2148C187.615 79.0815 186.867 79.7939 185.975 80.2804C185.084 80.7669 184.08 81.0105 183.064 80.9868C179.83 80.9868 177.984 77.2898 177.059 71.2848C176.598 65.7438 176.598 58.8158 176.598 51.4268C176.598 38.9558 177.52 25.0978 183.525 25.0978C184.422 25.0907 185.309 25.2964 186.112 25.6981C186.915 26.0998 187.612 26.686 188.145 27.4088ZM341.946 24.1758C346.104 26.4858 348.874 30.1808 348.874 38.4948V84.2198H333.632V77.2898C331.784 82.3698 326.704 85.6038 319.774 85.6038C314.23 85.6038 304.533 82.8318 304.533 68.5158C304.533 55.1218 313.31 52.3498 323.01 48.1918C331.784 44.4998 332.707 44.0358 332.707 40.3418V30.1808C332.707 26.0218 330.401 24.1748 325.779 24.1748C323.935 24.6358 320.702 25.5608 320.702 27.8688C320.235 30.6408 323.468 30.6408 323.935 34.7968C324.393 41.2658 319.313 43.5738 314.696 43.1128C313.753 43.1504 312.813 43.0003 311.93 42.6712C311.046 42.342 310.237 41.8403 309.549 41.1954C308.861 40.5505 308.308 39.7751 307.923 38.9146C307.538 38.054 307.327 37.1254 307.305 36.1828C306.844 27.8658 316.08 20.9418 329.012 20.9418C333.541 20.7829 338.023 21.9034 341.945 24.1748L341.946 24.1758ZM332.708 47.2688L327.63 50.5028C325.616 51.7858 323.964 53.5632 322.831 55.6655C321.699 57.7678 321.123 60.1251 321.16 62.5128C320.693 66.656 320.693 70.8385 321.16 74.9818C321.622 80.0598 324.858 80.9838 327.627 80.0598C330.863 78.6758 332.707 72.6738 332.707 66.2048V47.2688H332.708ZM113.32 110.547C117.478 113.319 119.789 116.55 119.789 124.863V171.05H105.009V164.125C103.159 168.745 98.0815 171.975 91.1495 171.975C85.1465 171.975 75.9075 169.667 75.9075 155.351C75.9075 141.957 84.6845 139.185 93.9235 135.026C103.16 130.868 104.084 130.407 104.084 127.176V117.013C104.084 112.397 101.774 110.55 97.1565 111.008C95.3065 111.008 92.0765 111.933 92.0765 114.241C91.6125 117.477 94.8485 117.477 95.3065 121.633C95.7735 127.638 90.6905 129.946 86.0715 129.946C84.1506 129.825 82.3398 129.008 80.9788 127.647C79.6178 126.286 78.8002 124.476 78.6795 122.555C78.2195 114.705 87.4575 107.775 100.39 107.775C104.872 107.494 109.346 108.453 113.32 110.547ZM104.085 133.637L99.0065 136.871C93.9235 140.104 92.9985 144.262 92.5365 148.879C92.0719 153.023 92.0719 157.206 92.5365 161.35C92.5365 166.894 95.7705 167.817 98.5395 166.43C102.236 165.045 104.085 159.503 104.085 152.576V133.638V133.637ZM225.092 126.249C225.092 113.316 218.166 106.85 208.005 107.772C205.763 107.892 203.573 108.49 201.582 109.526C199.59 110.562 197.843 112.011 196.458 113.777V95.7668H180.753V138.257C180.753 153.962 169.671 168.742 158.585 168.277C150.735 168.277 148.884 162.275 147.962 155.809C146.633 145.389 146.478 134.853 147.499 124.399C148.424 117.011 150.271 111.005 155.816 111.005C159.971 111.005 160.431 113.777 158.587 115.625C156.734 117.935 153.966 120.244 155.352 125.325C156.735 130.868 165.512 131.791 169.671 127.635C171.09 125.71 171.894 123.4 171.976 121.009C172.058 118.618 171.415 116.259 170.131 114.241C167.36 109.622 162.742 107.772 155.812 107.772C147.038 107.772 130.41 115.625 130.41 140.568C130.41 167.356 147.499 171.972 157.199 171.972C168.284 171.972 177.984 162.275 180.753 154.42V171.053H196.458V124.396C196.273 122.642 196.465 120.869 197.023 119.196C197.58 117.523 198.488 115.989 199.688 114.696C200.453 114.072 201.347 113.624 202.306 113.385C203.264 113.146 204.263 113.122 205.232 113.314C208.929 114.236 208.93 118.858 208.93 124.396V171.047H225.096V126.249H225.092ZM63.4385 8.01077V34.3378H60.2055C57.4335 21.4048 51.4305 11.7048 43.1175 11.2438C37.5735 10.7838 34.3425 14.0158 31.5705 18.6358C28.7985 24.1798 27.4125 35.7238 27.4125 49.5788C27.1297 59.4677 27.7479 69.3619 29.2595 79.1388C30.1845 82.3718 32.4955 87.4548 38.4985 87.4548C39.7907 87.5813 41.0945 87.3956 42.2999 86.9132C43.5054 86.4308 44.5773 85.6659 45.4255 84.6828C47.7365 81.9098 48.1975 76.3658 48.1975 72.6748V60.2008C48.1975 55.5808 46.8145 52.8098 44.5035 51.4258C42.5447 50.794 40.5358 50.3297 38.4985 50.0378V46.8038H64.3635V112.854H61.1275C60.1526 108.362 58.6011 104.015 56.5115 99.9218C55.3084 97.3638 53.4197 95.1895 51.0552 93.6404C48.6907 92.0914 45.9431 91.2282 43.1175 91.1468C35.7265 90.6828 30.1845 95.3018 30.1845 102.23C30.1845 111.468 35.7285 113.776 45.8865 119.318C55.5895 124.862 68.0575 129.481 68.0575 145.644C68.0575 161.349 54.6645 171.049 39.4235 171.049H14.9435V139.181H18.1765C22.3325 163.196 32.4965 167.355 39.4235 167.355C48.1975 167.355 52.3535 161.81 52.3535 153.961C51.8925 143.797 44.9645 140.103 35.2645 135.023C21.4105 127.173 14.9445 123.476 14.9445 110.546C15.4045 99.4578 24.1825 92.5298 33.8815 89.7608C13.5575 87.4538 7.5555 68.9788 8.0165 49.1138C8.0165 29.2588 19.5625 8.00977 42.1895 8.00977L63.4385 8.01077Z" fill="#6994C3"/>
</g>
<defs>
<clipPath id="clip0_11102_17181">
<rect width="415.74" height="179.74" fill="white"/>
</clipPath>
</defs>
</svg>
