<svg width="180" height="120" viewBox="0 0 180 120" fill="none" xmlns="http://www.w3.org/2000/svg">
<g clip-path="url(#clip0_11105_19025)">
<g clip-path="url(#clip1_11105_19025)">
<path d="M149.986 57.9743H144.489V36.3139H149.66V38.7363C150.304 37.2843 151.927 35.988 154.023 35.825C157.579 35.662 160.001 37.7658 160.001 42.292V57.9743H154.349V41.6475C154.349 39.7067 154.349 38.0918 153.053 37.7658C152.571 37.6029 151.756 37.7658 151.112 38.2473C150.304 39.0548 149.978 40.0252 149.978 41.6401L149.986 57.9743ZM56.5365 37.7658C55.2402 36.6324 53.6253 35.825 51.6844 35.825C49.7436 35.825 48.2916 36.6324 46.8323 37.7658C44.5655 39.7067 43.1136 43.2624 43.1136 47.1441C43.1136 51.1888 44.5655 54.5815 46.8323 56.5224C48.2842 57.6558 49.7436 58.4632 51.6844 58.4632C53.6253 58.4632 55.2402 57.6558 56.5365 56.5224C58.9589 54.5815 60.2552 51.1888 60.2552 47.1441C60.2552 43.2624 58.9589 39.7067 56.5365 37.7658ZM54.4327 47.1441C54.4327 51.1888 54.4327 54.4186 53.7882 56.0335C53.3067 56.8409 52.8178 57.3224 51.6844 57.3224C50.714 57.3224 50.0695 56.8409 49.7436 56.0335C48.9361 54.4186 48.9361 51.1814 48.9361 47.1441C48.9361 43.2624 48.9361 39.8697 49.7436 38.2548C50.0695 37.4473 50.714 36.9584 51.6844 36.9584C52.8178 36.9584 53.2993 37.4399 53.7882 38.2548C54.5957 39.8697 54.4327 43.2624 54.4327 47.1441ZM112.962 66.2266V72.0491H111.828C111.184 69.6268 110.213 67.523 107.628 67.36C106.013 67.197 104.554 68.1674 104.391 69.6268C104.228 71.0787 104.717 72.3751 107.628 73.99C111.347 76.0938 114.258 77.0642 114.258 81.4274C114.258 86.1165 110.213 88.3759 106.821 88.3759H100.346V80.2866H101.48C102.287 84.4942 103.583 87.0796 106.65 87.2351C108.591 87.2351 110.043 86.1017 110.043 84.0053C110.043 81.9015 108.747 80.6125 105.68 78.8273C102.287 76.7235 100.183 75.4345 100.183 72.5232C100.183 68.6415 102.932 66.2192 107.295 66.2192L112.962 66.2266ZM120.073 57.9743V42.2994C120.073 37.7732 117.651 35.6694 114.088 35.8324C111.665 35.9954 110.206 37.6103 109.562 38.9066C108.754 36.6399 106.976 35.6768 104.391 35.8324C102.287 35.9954 100.672 37.2843 100.028 38.7437V36.3213H95.0126V57.9891H100.509V41.6475C100.509 40.0326 100.672 39.0622 101.643 38.2548C102.287 37.7732 102.939 37.6103 103.42 37.7732C104.717 38.0992 104.717 39.7141 104.717 41.6549V57.9817H110.213V41.4846C110.213 40.0326 110.539 39.0622 111.347 38.2473C111.991 37.7658 112.643 37.6029 113.125 37.7658C114.421 38.0918 114.577 39.7067 114.577 41.6475V57.9743H120.073ZM63.9739 31.7877H69.6335V57.9817H63.9739V31.7877ZM89.679 57.9743V31.7877H84.0195V37.9288C83.5379 36.7954 82.4046 35.988 80.7822 35.988C76.7376 35.988 73.5078 40.1956 73.3448 46.6626C73.1818 51.0258 74.6412 58.3003 80.2933 58.3003C82.5601 58.3003 83.8491 57.0039 84.338 55.8779V57.9817H89.679V57.9743ZM83.049 38.0918C84.1824 39.7067 84.1824 43.5884 84.1824 46.6626C84.1824 49.8924 84.3454 54.1 83.049 55.8779C82.5675 56.5224 82.0786 56.8483 81.2712 56.8483C80.1378 56.8483 79.4933 55.552 79.1673 53.4556C79.0044 51.5147 79.0044 49.0924 79.0044 46.507C79.0044 42.1438 79.3303 37.2917 81.4267 37.2917C82.2416 37.2843 82.5675 37.6103 83.049 38.0918ZM136.889 36.9584C138.341 37.7658 139.311 39.0622 139.311 41.9735V57.9817H133.978V55.5594C133.333 57.3372 131.555 58.4706 129.126 58.4706C127.185 58.4706 123.792 57.5002 123.792 52.4925C123.792 47.8034 126.866 46.833 130.259 45.3811C133.333 44.0921 133.652 43.9291 133.652 42.6328V39.077C133.652 37.6251 132.844 36.9732 131.229 36.9732C130.585 37.1362 129.451 37.4547 129.451 38.2696C129.289 39.24 130.422 39.24 130.585 40.6919C130.748 42.9587 128.97 43.7662 127.355 43.6032C126.222 43.6032 124.933 42.9587 124.77 41.1808C124.607 38.2696 127.844 35.8472 132.37 35.8472C134.467 35.825 135.756 36.3139 136.889 36.9584ZM133.652 45.0403L131.874 46.1737C130.096 47.3071 129.77 48.759 129.607 50.3813C129.444 51.6777 129.444 52.8037 129.607 54.7445C129.77 56.5224 130.903 56.8483 131.874 56.5224C133.007 56.0409 133.652 53.9371 133.652 51.6703V45.0403ZM56.8551 67.197C58.307 68.1674 59.1218 69.3008 59.1218 72.2047V88.3759H53.9512V85.9536C53.3067 87.5685 51.5288 88.7019 49.0991 88.7019C46.9953 88.7019 43.7655 87.8944 43.7655 82.8793C43.7655 78.1902 46.8397 77.2198 50.0695 75.7678C53.2993 74.3159 53.6253 74.1529 53.6253 73.0196V69.4638C53.6253 67.8489 52.8178 67.197 51.2029 67.36C50.5584 67.36 49.425 67.6859 49.425 68.4934C49.2621 69.6268 50.3955 69.6268 50.5584 71.0787C50.7214 73.1825 48.9435 73.99 47.3212 73.99C46.1878 73.827 44.8989 73.1825 44.7359 71.4047C44.5729 68.6564 47.8101 66.234 52.3363 66.234C54.4327 66.2266 55.7217 66.5451 56.8551 67.197ZM53.6253 75.2789L51.8474 76.4123C50.0695 77.5457 49.7436 78.9976 49.5806 80.6125C49.4176 81.9089 49.4176 83.1979 49.5806 84.9757C49.5806 86.9166 50.714 87.2351 51.6844 86.7536C52.9808 86.2721 53.6253 84.3313 53.6253 81.9015V75.2789ZM95.983 72.6936C95.983 68.1674 93.5607 65.9007 90.005 66.2266C88.2271 66.3896 86.7752 67.197 85.9603 68.3304V62.0264H80.4637V76.9012C80.4637 82.3978 76.582 87.5685 72.7003 87.4055C69.952 87.4055 69.3076 85.3017 68.9816 83.0423C68.5001 79.8051 68.5001 76.0938 68.8186 72.0491C69.1446 69.4638 69.7891 67.36 71.7299 67.36C73.1818 67.36 73.3448 68.3304 72.7003 68.9749C72.0485 69.7823 71.0854 70.5898 71.5669 72.3677C72.0484 74.3085 75.1227 74.627 76.5746 73.1751C77.708 71.8788 77.545 69.7823 76.7376 68.486C75.7672 66.8711 74.1523 66.2192 71.7299 66.2192C68.6557 66.2192 62.8406 68.9675 62.8406 77.7013C62.8406 87.0796 68.8187 88.6945 72.2188 88.6945C76.1005 88.6945 79.4933 85.3017 80.4637 82.5534V88.3759H85.9603V72.0417C85.9603 70.4268 86.2862 69.4564 87.0937 68.649C87.7382 68.1674 88.5456 68.0045 89.0345 68.1674C90.3309 68.4934 90.3309 70.1083 90.3309 72.0491V88.3759H95.9905L95.983 72.6936ZM39.3949 31.2988V40.5141H38.2615C37.2911 35.988 35.1872 32.5952 32.2834 32.4322C30.3425 32.2692 29.2091 33.4026 28.2387 35.0175C27.2683 36.9584 26.7868 40.9956 26.7868 45.8477C26.7868 50.3739 26.9498 53.7667 27.4313 56.1964C27.7572 57.3298 28.5647 59.1077 30.6611 59.1077C31.7945 59.1077 32.6019 58.7818 33.0834 58.1373C33.8909 57.1669 34.0539 55.226 34.0539 53.9371V49.5739C34.0539 47.959 33.5723 46.9885 32.7575 46.4996C32.113 46.1737 31.1426 46.1737 30.6537 46.0181V44.8847H39.706V68.0045H38.5726C38.0911 66.2266 37.7652 64.9302 36.9577 63.4783C36.1503 62.0264 34.6909 60.4041 32.2686 60.4041C29.6833 60.2411 27.7424 61.856 27.7424 64.2858C27.7424 67.523 29.6832 68.3304 33.239 70.2639C36.6318 72.2047 41.0024 73.8196 41.0024 79.4792C41.0024 84.9757 36.3132 88.3685 30.9796 88.3685H22.4236V77.2198H23.557C25.0089 85.6276 28.5721 87.0796 30.9944 87.0796C34.0687 87.0796 35.5206 85.1387 35.5206 82.3904C35.3576 78.8347 32.9353 77.5383 29.5425 75.7604C24.6904 73.0121 22.431 71.7158 22.431 67.1896C22.594 63.3079 25.6682 60.8856 29.061 59.9152C21.9495 59.1077 19.8457 52.6407 20.0087 45.6848C20.0087 38.7363 24.0533 31.2988 31.9723 31.2988H39.3949Z" fill="#6994C3"/>
</g>
</g>
<defs>
<clipPath id="clip0_11105_19025">
<rect width="140" height="60" fill="white" transform="translate(20 30)"/>
</clipPath>
<clipPath id="clip1_11105_19025">
<rect width="140" height="57.403" fill="white" transform="translate(20 31.2988)"/>
</clipPath>
</defs>
</svg>
