<svg width="70" height="30" viewBox="0 0 70 30" fill="none" xmlns="http://www.w3.org/2000/svg">
<g clip-path="url(#clip0_10196_1102)">
<g clip-path="url(#clip1_10196_1102)">
<g clip-path="url(#clip2_10196_1102)">
<path d="M64.993 13.9872H62.2447V3.15695H64.83V4.36813C65.1522 3.64216 65.9634 2.99398 67.0116 2.9125C68.7894 2.83101 70.0006 3.88292 70.0006 6.146V13.9872H67.1745V5.82376C67.1745 4.85334 67.1745 4.04589 66.5264 3.88292C66.2856 3.80143 65.8782 3.88292 65.5559 4.12367C65.1522 4.5274 64.9892 5.01261 64.9892 5.82006L64.993 13.9872ZM18.2683 3.88292C17.6201 3.31622 16.8126 2.9125 15.8422 2.9125C14.8718 2.9125 14.1458 3.31622 13.4162 3.88292C12.2828 4.85334 11.5568 6.63121 11.5568 8.57206C11.5568 10.5944 12.2828 12.2908 13.4162 13.2612C14.1421 13.8279 14.8718 14.2316 15.8422 14.2316C16.8126 14.2316 17.6201 13.8279 18.2683 13.2612C19.4794 12.2908 20.1276 10.5944 20.1276 8.57206C20.1276 6.63121 19.4794 4.85334 18.2683 3.88292ZM17.2164 8.57206C17.2164 10.5944 17.2164 12.2093 16.8941 13.0167C16.6534 13.4205 16.4089 13.6612 15.8422 13.6612C15.357 13.6612 15.0348 13.4205 14.8718 13.0167C14.4681 12.2093 14.4681 10.5907 14.4681 8.57206C14.4681 6.63121 14.4681 4.93483 14.8718 4.12738C15.0348 3.72365 15.357 3.47919 15.8422 3.47919C16.4089 3.47919 16.6497 3.71995 16.8941 4.12738C17.2978 4.93483 17.2164 6.63121 17.2164 8.57206ZM46.4809 18.1133V21.0246H45.9142C45.5919 19.8134 45.1067 18.7615 43.8141 18.68C43.0066 18.5985 42.2769 19.0837 42.1954 19.8134C42.114 20.5394 42.3584 21.1875 43.8141 21.995C45.6734 23.0469 47.129 23.5321 47.129 25.7137C47.129 28.0583 45.1067 29.188 43.4103 29.188H40.1731V25.1433H40.7398C41.1435 27.2471 41.7917 28.5398 43.3251 28.6176C44.2956 28.6176 45.0215 28.0509 45.0215 27.0027C45.0215 25.9508 44.3733 25.3063 42.8399 24.4136C41.1435 23.3617 40.0916 22.7172 40.0916 21.2616C40.0916 19.3208 41.4658 18.1096 43.6474 18.1096L46.4809 18.1133ZM50.0366 13.9872V6.1497C50.0366 3.88662 48.8254 2.83471 47.0439 2.9162C45.8327 2.99769 45.103 3.80514 44.7808 4.45332C44.377 3.31993 43.4881 2.83842 42.1954 2.9162C41.1435 2.99769 40.3361 3.64216 40.0139 4.37183V3.16066H37.5063V13.9946H40.2546V5.82376C40.2546 5.01631 40.3361 4.5311 40.8213 4.12738C41.1435 3.88662 41.4695 3.80514 41.7102 3.88662C42.3584 4.04959 42.3584 4.85704 42.3584 5.82747V13.9909H45.1067V5.74228C45.1067 5.01631 45.2697 4.5311 45.6734 4.12367C45.9956 3.88292 46.3216 3.80143 46.5623 3.88292C47.2105 4.04589 47.2883 4.85334 47.2883 5.82376V13.9872H50.0366ZM21.987 0.893871H24.8168V13.9909H21.987V0.893871ZM34.8395 13.9872V0.893871H32.0097V3.9644C31.769 3.39771 31.2023 2.99398 30.3911 2.99398C28.3688 2.99398 26.7539 5.0978 26.6724 8.3313C26.5909 10.5129 27.3206 14.1501 30.1467 14.1501C31.2801 14.1501 31.9245 13.5019 32.169 12.939V13.9909H34.8395V13.9872ZM31.5245 4.04589C32.0912 4.85334 32.0912 6.79418 32.0912 8.3313C32.0912 9.9462 32.1727 12.05 31.5245 12.939C31.2838 13.2612 31.0393 13.4242 30.6356 13.4242C30.0689 13.4242 29.7466 12.776 29.5837 11.7278C29.5022 10.7574 29.5022 9.54618 29.5022 8.25352C29.5022 6.07192 29.6652 3.64587 30.7134 3.64587C31.1208 3.64216 31.2838 3.80514 31.5245 4.04589ZM58.4445 3.47919C59.1704 3.88292 59.6556 4.5311 59.6556 5.98673V13.9909H56.9888V12.7797C56.6666 13.6686 55.7776 14.2353 54.5628 14.2353C53.5923 14.2353 51.896 13.7501 51.896 11.2463C51.896 8.9017 53.4331 8.41649 55.1295 7.69053C56.6666 7.04605 56.8259 6.96456 56.8259 6.31638V4.53851C56.8259 3.81254 56.4221 3.4866 55.6147 3.4866C55.2924 3.56809 54.7257 3.72735 54.7257 4.13478C54.6443 4.61999 55.211 4.61999 55.2924 5.34596C55.3739 6.47935 54.485 6.88308 53.6775 6.80159C53.1108 6.80159 52.4664 6.47935 52.3849 5.59042C52.3034 4.13478 53.922 2.92361 56.1851 2.92361C57.2333 2.9125 57.8778 3.15695 58.4445 3.47919ZM56.8259 7.52015L55.9369 8.08684C55.048 8.65354 54.885 9.37951 54.8035 10.1907C54.722 10.8388 54.722 11.4018 54.8035 12.3723C54.885 13.2612 55.4517 13.4242 55.9369 13.2612C56.5036 13.0204 56.8259 11.9685 56.8259 10.8351V7.52015ZM18.4275 18.5985C19.1535 19.0837 19.5609 19.6504 19.5609 21.1023V29.188H16.9756V27.9768C16.6534 28.7842 15.7644 29.3509 14.5495 29.3509C13.4976 29.3509 11.8827 28.9472 11.8827 26.4397C11.8827 24.0951 13.4199 23.6099 15.0348 22.8839C16.6497 22.158 16.8126 22.0765 16.8126 21.5098V19.7319C16.8126 18.9245 16.4089 18.5985 15.6015 18.68C15.2792 18.68 14.7125 18.843 14.7125 19.2467C14.631 19.8134 15.1977 19.8134 15.2792 20.5394C15.3607 21.5913 14.4718 21.995 13.6606 21.995C13.0939 21.9135 12.4494 21.5913 12.3679 20.7023C12.2865 19.3282 13.9051 18.117 16.1681 18.117C17.2164 18.1133 17.8608 18.2726 18.4275 18.5985ZM16.8126 22.6395L15.9237 23.2062C15.0348 23.7729 14.8718 24.4988 14.7903 25.3063C14.7088 25.9545 14.7088 26.5989 14.7903 27.4879C14.7903 28.4583 15.357 28.6176 15.8422 28.3768C16.4904 28.1361 16.8126 27.1656 16.8126 25.9508V22.6395ZM37.9915 21.3468C37.9915 19.0837 36.7803 17.9503 35.0025 18.1133C34.1135 18.1948 33.3876 18.5985 32.9801 19.1652V16.0132H30.2319V23.4506C30.2319 26.1989 28.291 28.7842 26.3502 28.7028C24.976 28.7028 24.6538 27.6508 24.4908 26.5212C24.2501 24.9025 24.2501 23.0469 24.4093 21.0246C24.5723 19.7319 24.8945 18.68 25.865 18.68C26.5909 18.68 26.6724 19.1652 26.3502 19.4874C26.0242 19.8912 25.5427 20.2949 25.7835 21.1838C26.0242 22.1543 27.5613 22.3135 28.2873 21.5876C28.854 20.9394 28.7725 19.8912 28.3688 19.243C27.8836 18.4355 27.0761 18.1096 25.865 18.1096C24.3278 18.1096 21.4203 19.4837 21.4203 23.8506C21.4203 28.5398 24.4093 29.3472 26.1094 29.3472C28.0503 29.3472 29.7466 27.6508 30.2319 26.2767V29.188H32.9801V21.0209C32.9801 20.2134 33.1431 19.7282 33.5468 19.3245C33.8691 19.0837 34.2728 19.0022 34.5173 19.0837C35.1655 19.2467 35.1655 20.0541 35.1655 21.0246V29.188H37.9952L37.9915 21.3468ZM9.69744 0.649414V5.25707H9.13074C8.64553 2.99398 7.59362 1.2976 6.14169 1.21611C5.17127 1.13462 4.60458 1.70132 4.11936 2.50877C3.63415 3.47919 3.3934 5.49782 3.3934 7.92387C3.3934 10.187 3.47489 11.8833 3.71564 13.0982C3.87861 13.6649 4.28234 14.5539 5.33054 14.5539C5.89724 14.5539 6.30096 14.3909 6.54171 14.0686C6.94544 13.5834 7.02693 12.613 7.02693 11.9685V9.78693C7.02693 8.97948 6.78617 8.49427 6.37874 8.24982C6.0565 8.08684 5.57129 8.08684 5.32684 8.00906V7.44237H9.853V19.0022H9.2863C9.04555 18.1133 8.88258 17.4651 8.47885 16.7392C8.07513 16.0132 7.34546 15.202 6.13429 15.202C4.84163 15.1206 3.8712 15.928 3.8712 17.1429C3.8712 18.7615 4.84162 19.1652 6.6195 20.1319C8.31588 21.1023 10.5012 21.9098 10.5012 24.7396C10.5012 27.4879 8.15661 29.1843 5.48981 29.1843H1.2118V23.6099H1.7785C2.50446 27.8138 4.28604 28.5398 5.49721 28.5398C7.03433 28.5398 7.7603 27.5694 7.7603 26.1952C7.67881 24.4173 6.46764 23.7692 4.77125 22.8802C2.3452 21.5061 1.21551 20.8579 1.21551 18.5948C1.29699 16.654 2.83411 15.4428 4.5305 14.9576C0.974754 14.5539 -0.0771536 11.3203 0.00433217 7.84239C0.00433217 4.36813 2.02666 0.649414 5.98613 0.649414H9.69744Z" fill="#E6E7F5"/>
</g>
</g>
</g>
<defs>
<clipPath id="clip0_10196_1102">
<rect width="70" height="30" fill="white"/>
</clipPath>
<clipPath id="clip1_10196_1102">
<rect width="70" height="30" fill="white"/>
</clipPath>
<clipPath id="clip2_10196_1102">
<rect width="70" height="28.7015" fill="white" transform="translate(0 0.649414)"/>
</clipPath>
</defs>
</svg>
