<svg width="272" height="224" viewBox="0 0 272 224" fill="none" xmlns="http://www.w3.org/2000/svg">
<path d="M240.55 1H32.117C27.08 1 23 5.08 23 10.117V223.436H249.667V10.117C249.667 5.08 245.587 1 240.55 1ZM92.5111 8.35407C96.7422 8.35407 100.117 11.7793 100.117 15.96C100.117 20.1407 96.6919 23.5659 92.5111 23.5659C88.3304 23.5659 84.9052 20.1407 84.9052 15.96C84.9052 11.7793 88.3304 8.35407 92.5111 8.35407ZM67.1244 8.35407C71.3556 8.35407 74.7304 11.7793 74.7304 15.96C74.7304 20.1407 71.3052 23.5659 67.1244 23.5659C62.9437 23.5659 59.5185 20.1407 59.5185 15.96C59.5185 11.7793 62.9437 8.35407 67.1244 8.35407ZM41.6874 8.35407C45.9185 8.35407 49.2933 11.7793 49.2933 15.96C49.2933 20.1407 45.8681 23.5659 41.6874 23.5659C37.5067 23.5659 34.0815 20.1407 34.0815 15.96C34.0815 11.7793 37.5067 8.35407 41.6874 8.35407ZM243.572 217.341H29.0948V29.7615H243.622V217.29L243.572 217.341Z" fill="#E19C24"/>
<path d="M243.572 217.341H29.0948V29.7615H243.622V217.29L243.572 217.341Z" fill="url(#paint0_linear_11284_205096)" fill-opacity="0.32"/>
<path d="M61.0488 156.379H78.9303V190.077H61.0488V156.379ZM87.4429 143.233H105.324V190.077H87.4429V143.233ZM113.837 125.301H131.718V190.027H113.837V125.301ZM140.231 140.563H158.113V190.027H140.231V140.563ZM166.625 112.154H184.507V190.027H166.625V112.154ZM193.019 98.4536H210.901V190.027H193.019V98.4536ZM70.5185 121.725L69.5111 119.408L95.9051 108.377L122.652 88.581L148.945 101.677L175.087 74.6787L201.481 62.5898L202.489 64.9069L176.347 76.895L149.449 104.75L122.904 91.5528L97.1644 110.542L70.5185 121.725Z" fill="#E19C24"/>
<path d="M70.0133 127.315C73.741 127.315 76.7629 124.293 76.7629 120.565C76.7629 116.837 73.741 113.815 70.0133 113.815C66.2856 113.815 63.2637 116.837 63.2637 120.565C63.2637 124.293 66.2856 127.315 70.0133 127.315Z" fill="#E19C24"/>
<path d="M96.4059 116.385C100.134 116.385 103.156 113.363 103.156 109.635C103.156 105.907 100.134 102.885 96.4059 102.885C92.6782 102.885 89.6562 105.907 89.6562 109.635C89.6562 113.363 92.6782 116.385 96.4059 116.385Z" fill="#E19C24"/>
<path d="M122.8 97.344C126.528 97.344 129.55 94.3221 129.55 90.5944C129.55 86.8666 126.528 83.8447 122.8 83.8447C119.073 83.8447 116.051 86.8666 116.051 90.5944C116.051 94.3221 119.073 97.344 122.8 97.344Z" fill="#E19C24"/>
<path d="M149.195 109.638C152.923 109.638 155.945 106.616 155.945 102.888C155.945 99.1606 152.923 96.1387 149.195 96.1387C145.467 96.1387 142.445 99.1606 142.445 102.888C142.445 106.616 145.467 109.638 149.195 109.638Z" fill="#E19C24"/>
<path d="M175.589 82.7869C179.317 82.7869 182.339 79.7649 182.339 76.0372C182.339 72.3095 179.317 69.2876 175.589 69.2876C171.862 69.2876 168.84 72.3095 168.84 76.0372C168.84 79.7649 171.862 82.7869 175.589 82.7869Z" fill="#E19C24"/>
<path d="M201.984 70.4978C205.712 70.4978 208.734 67.4759 208.734 63.7482C208.734 60.0204 205.712 56.9985 201.984 56.9985C198.256 56.9985 195.234 60.0204 195.234 63.7482C195.234 67.4759 198.256 70.4978 201.984 70.4978Z" fill="#E19C24"/>
<defs>
<linearGradient id="paint0_linear_11284_205096" x1="136.333" y1="1" x2="136.333" y2="223.436" gradientUnits="userSpaceOnUse">
<stop stop-color="#8778B3"/>
<stop offset="1" stop-color="#8778B3" stop-opacity="0"/>
</linearGradient>
</defs>
</svg>
