<svg width="140" height="60" viewBox="0 0 140 60" fill="none" xmlns="http://www.w3.org/2000/svg">
<g clip-path="url(#clip0_11105_19003)">
<g clip-path="url(#clip1_11105_19003)">
<path d="M126.859 36.5291H132.178V17.6016H126.859V36.5291ZM140 17.6016V36.5291H134.68V17.6016H140ZM11.3419 24.951H7.04021V17.6016H0V36.5291H7.04021V27.1441H11.3419V36.5291H18.3821V17.6016H11.3419V24.951ZM44.3837 24.6418L43.9507 23.3934H38.1644V36.5348H43.9507V28.6286C43.9507 26.9079 45.0472 25.9688 45.9863 25.9688C46.7679 25.9688 47.7857 26.1263 47.7857 27.847V36.5291H53.5719V28.0044C53.5719 23.2304 48.2187 21.3578 44.3837 24.6418ZM103.826 31.0128L101.127 23.3878H97.1796L94.4805 31.3277L91.6633 23.3878H83.9202L81.1423 30.0737L77.2342 23.3878H70.627L78.4094 36.6866L77.3917 39.1889C77.0374 39.9705 76.1939 40.0099 76.0308 39.2676C76.0308 37.9237 74.94 36.8328 73.596 36.8328C72.2521 36.8328 71.1612 37.9237 71.1612 39.2676C71.1724 40.6734 72.5782 42.5122 75.3561 42.3941C78.1339 42.276 79.3035 39.9705 79.6972 38.9921L86.1301 23.4384L90.7635 36.5291H94.9865L97.5676 28.9829L100.227 36.5291H104.214L108.713 23.3878H106.407L103.826 31.0128ZM28.352 22.7186C23.921 22.7186 20.3334 26.0138 20.3334 30.0737C20.3334 34.1393 23.921 37.4289 28.352 37.4289C32.7831 37.4289 36.3706 34.1337 36.3706 30.0737C36.3706 26.0138 32.7831 22.7186 28.352 22.7186ZM30.3482 33.5151C30.3482 34.6173 29.4542 35.5114 28.352 35.5114C27.2499 35.5114 26.3558 34.6173 26.3558 33.5151V26.638C26.3558 25.5359 27.2499 24.6418 28.352 24.6418C29.4542 24.6418 30.3482 25.5359 30.3482 26.6324V33.5151Z" fill="#DE1E34"/>
<path d="M71.2645 31.131C71.3038 30.8217 71.3263 30.3944 71.3263 30.0739C71.3263 26.0139 67.7388 22.7188 63.3077 22.7188C58.8766 22.7188 55.2891 26.0139 55.2891 30.0739C55.2891 34.1394 58.8766 37.429 63.3077 37.429C66.3498 37.429 68.9983 35.8713 70.3592 33.5827L68.5879 32.9248C67.5195 34.5611 65.557 35.6577 63.3077 35.6577C62.2056 35.6577 61.3115 34.6174 61.3115 33.5152V31.131H71.2645ZM61.3171 26.6381C61.3171 25.536 62.2112 24.6475 63.3133 24.6475C64.4155 24.6475 65.3095 25.5416 65.3095 26.6381V29.2585H61.3227L61.3171 26.6381ZM124.836 31.131C124.881 30.8217 124.904 30.3944 124.904 30.0739C124.904 26.0139 121.316 22.7188 116.885 22.7188C112.454 22.7188 108.867 26.0139 108.867 30.0739C108.867 34.1394 112.454 37.429 116.885 37.429C119.927 37.429 122.576 35.8713 123.937 33.5827L122.165 32.9248C121.097 34.5611 119.135 35.6577 116.885 35.6577C115.783 35.6577 114.889 34.6174 114.889 33.5152V31.131H124.836ZM114.889 26.6381C114.889 25.536 115.783 24.6475 116.885 24.6475C117.987 24.6475 118.881 25.5416 118.881 26.6381V29.2585H114.895L114.889 26.6381Z" fill="#DE1E34"/>
</g>
</g>
<defs>
<clipPath id="clip0_11105_19003">
<rect width="140" height="60" fill="white"/>
</clipPath>
<clipPath id="clip1_11105_19003">
<rect width="140" height="24.7982" fill="white" transform="translate(0 17.6016)"/>
</clipPath>
</defs>
</svg>
