<svg width="453" height="81" viewBox="0 0 453 81" fill="none" xmlns="http://www.w3.org/2000/svg">
<g clip-path="url(#clip0_11102_17159)">
<path fill-rule="evenodd" clip-rule="evenodd" d="M410.484 61.2457H427.694V0H410.484V61.2457Z" fill="#DE1E34"/>
<path fill-rule="evenodd" clip-rule="evenodd" d="M453.004 0V61.2457H435.797V0H453.004Z" fill="#DE1E34"/>
<path fill-rule="evenodd" clip-rule="evenodd" d="M36.694 23.7879H22.7757V0H0V61.2457H22.7757V30.877H36.694V61.2457H59.472V0H36.694V23.7879Z" fill="#DE1E34"/>
<path fill-rule="evenodd" clip-rule="evenodd" d="M143.621 22.7761L142.228 18.728H123.5V61.2461H142.228V35.6845C142.228 30.1159 145.772 27.08 148.808 27.08C151.339 27.08 154.628 27.5857 154.628 33.1544V61.2461H173.355V33.6608C173.355 18.2222 156.023 12.1498 143.621 22.7761Z" fill="#DE1E34"/>
<path fill-rule="evenodd" clip-rule="evenodd" d="M335.955 43.4033L327.224 18.7285H314.444L305.711 44.4154L296.6 18.7285H278.759H278.632H271.548L262.562 40.3648L249.909 18.7285H228.523L253.704 61.7524L250.415 69.8485C249.275 72.3812 246.549 72.5066 246.015 70.1017C246.015 65.7535 242.489 62.2301 238.14 62.2301C233.792 62.2301 230.266 65.7535 230.266 70.1017C230.297 74.6582 234.851 80.6053 243.834 80.2248C252.82 79.8463 256.615 72.3813 257.88 69.2175L278.691 18.8943L293.692 61.2466H307.357L315.708 36.8225L324.313 61.2466H337.219L351.771 18.7285H344.306L335.955 43.4033Z" fill="#DE1E34"/>
<path fill-rule="evenodd" clip-rule="evenodd" d="M91.7409 16.5684C77.4115 16.5684 65.7969 27.2233 65.7969 40.366C65.7969 53.5133 77.4115 64.1682 91.7409 64.1682C106.073 64.1682 117.69 53.5133 117.69 40.366C117.69 27.2233 106.073 16.5684 91.7409 16.5684ZM98.1964 51.5007C98.1964 55.0665 95.3067 57.9562 91.7409 57.9562C88.18 57.9562 85.2903 55.0665 85.2903 51.5007V29.2333C85.2903 25.6702 88.18 22.7831 91.7409 22.7831C95.3067 22.7831 98.1964 25.6702 98.1964 29.2333V51.5007Z" fill="#DE1E34"/>
<path fill-rule="evenodd" clip-rule="evenodd" d="M230.61 43.783C230.747 42.7872 230.817 41.3971 230.817 40.366C230.817 27.2233 219.201 16.5684 204.871 16.5684C190.539 16.5684 178.922 27.2233 178.922 40.366C178.922 53.5133 190.539 64.1682 204.871 64.1682C214.717 64.1682 223.282 59.1361 227.68 51.7232L221.948 49.6022C218.484 54.8961 212.133 58.441 204.871 58.441C201.305 58.441 198.416 55.0665 198.416 51.5007V43.785L230.61 43.783ZM198.416 29.2333C198.416 25.6702 201.305 22.7831 204.871 22.7831C208.434 22.7831 211.324 25.6702 211.324 29.2333V37.7106H198.416V29.2333Z" fill="#DE1E34"/>
<path fill-rule="evenodd" clip-rule="evenodd" d="M403.959 43.783C404.098 42.7872 404.169 41.3971 404.169 40.366C404.169 27.2233 392.552 16.5684 378.22 16.5684C363.89 16.5684 352.273 27.2233 352.273 40.366C352.273 53.5133 363.89 64.1682 378.22 64.1682C388.068 64.1682 396.633 59.1361 401.031 51.7232L395.299 49.6022C391.835 54.8961 385.484 58.441 378.22 58.441C374.656 58.441 371.767 55.0665 371.767 51.5007V43.785L403.959 43.783ZM371.767 29.2333C371.767 25.6702 374.656 22.7831 378.22 22.7831C381.786 22.7831 384.676 25.6702 384.676 29.2333V37.7106H371.767V29.2333Z" fill="#DE1E34"/>
</g>
<defs>
<clipPath id="clip0_11102_17159">
<rect width="453" height="80.2416" fill="white"/>
</clipPath>
</defs>
</svg>
