<svg width="70" height="30" viewBox="0 0 70 30" fill="none" xmlns="http://www.w3.org/2000/svg">
<g clip-path="url(#clip0_10196_1078)">
<g clip-path="url(#clip1_10196_1078)">
<g clip-path="url(#clip2_10196_1078)">
<path d="M63.4293 18.2646H66.0891V8.80078H63.4293V18.2646ZM70 8.80078V18.2646H67.3402V8.80078H70ZM5.67096 12.4755H3.5201V8.80078H0V18.2646H3.5201V13.572H5.67096V18.2646H9.19107V8.80078H5.67096V12.4755ZM22.1918 12.3209L21.9753 11.6967H19.0822V18.2674H21.9753V14.3143C21.9753 13.454 22.5236 12.9844 22.9931 12.9844C23.3839 12.9844 23.8928 13.0631 23.8928 13.9235V18.2646H26.786V14.0022C26.786 11.6152 24.1093 10.6789 22.1918 12.3209ZM51.9131 15.5064L50.5635 11.6939H48.5898L47.2402 15.6639L45.8316 11.6939H41.9601L40.5712 15.0369L38.6171 11.6939H35.3135L39.2047 18.3433L38.6958 19.5945C38.5187 19.9853 38.097 20.0049 38.0154 19.6338C38.0154 18.9618 37.47 18.4164 36.798 18.4164C36.126 18.4164 35.5806 18.9618 35.5806 19.6338C35.5862 20.3367 36.2891 21.2561 37.678 21.1971C39.067 21.138 39.6518 19.9853 39.8486 19.496L43.065 11.7192L45.3818 18.2646H47.4933L48.7838 14.4914L50.1137 18.2646H52.1071L54.3563 11.6939H53.2036L51.9131 15.5064ZM14.176 11.3593C11.9605 11.3593 10.1667 13.0069 10.1667 15.0369C10.1667 17.0696 11.9605 18.7144 14.176 18.7144C16.3915 18.7144 18.1853 17.0668 18.1853 15.0369C18.1853 13.0069 16.3915 11.3593 14.176 11.3593ZM15.1741 16.7576C15.1741 17.3086 14.7271 17.7557 14.176 17.7557C13.6249 17.7557 13.1779 17.3086 13.1779 16.7576V13.319C13.1779 12.7679 13.6249 12.3209 14.176 12.3209C14.7271 12.3209 15.1741 12.7679 15.1741 13.3162V16.7576Z" fill="#E6E7F5"/>
<path d="M35.6342 15.5655C35.6539 15.4109 35.6651 15.1972 35.6651 15.0369C35.6651 13.007 33.8713 11.3594 31.6558 11.3594C29.4403 11.3594 27.6465 13.007 27.6465 15.0369C27.6465 17.0697 29.4403 18.7145 31.6558 18.7145C33.1769 18.7145 34.5011 17.9357 35.1815 16.7914L34.2959 16.4624C33.7617 17.2806 32.7804 17.8288 31.6558 17.8288C31.1047 17.8288 30.6577 17.3087 30.6577 16.7576V15.5655H35.6342ZM30.6605 13.319C30.6605 12.768 31.1075 12.3237 31.6586 12.3237C32.2097 12.3237 32.6567 12.7708 32.6567 13.319V14.6292H30.6633L30.6605 13.319ZM62.4202 15.5655C62.4426 15.4109 62.4539 15.1972 62.4539 15.0369C62.4539 13.007 60.6601 11.3594 58.4446 11.3594C56.229 11.3594 54.4353 13.007 54.4353 15.0369C54.4353 17.0697 56.229 18.7145 58.4446 18.7145C59.9656 18.7145 61.2899 17.9357 61.9703 16.7914L61.0847 16.4624C60.5505 17.2806 59.5692 17.8288 58.4446 17.8288C57.8935 17.8288 57.4465 17.3087 57.4465 16.7576V15.5655H62.4202ZM57.4465 13.319C57.4465 12.768 57.8935 12.3237 58.4446 12.3237C58.9956 12.3237 59.4427 12.7708 59.4427 13.319V14.6292H57.4493L57.4465 13.319Z" fill="#E6E7F5"/>
</g>
</g>
</g>
<defs>
<clipPath id="clip0_10196_1078">
<rect width="70" height="30" fill="white"/>
</clipPath>
<clipPath id="clip1_10196_1078">
<rect width="70" height="30" fill="white"/>
</clipPath>
<clipPath id="clip2_10196_1078">
<rect width="70" height="12.3991" fill="white" transform="translate(0 8.80078)"/>
</clipPath>
</defs>
</svg>
