<svg width="180" height="120" viewBox="0 0 180 120" fill="none" xmlns="http://www.w3.org/2000/svg">
<g clip-path="url(#clip0_11105_19001)">
<g clip-path="url(#clip1_11105_19001)">
<path d="M146.859 66.5291H152.178V47.6016H146.859V66.5291ZM160 47.6016V66.5291H154.68V47.6016H160ZM31.3419 54.951H27.0402V47.6016H20V66.5291H27.0402V57.1441H31.3419V66.5291H38.3821V47.6016H31.3419V54.951ZM64.3837 54.6418L63.9507 53.3934H58.1644V66.5348H63.9507V58.6286C63.9507 56.9079 65.0472 55.9688 65.9863 55.9688C66.7679 55.9688 67.7857 56.1263 67.7857 57.847V66.5291H73.5719V58.0044C73.5719 53.2304 68.2187 51.3578 64.3837 54.6418ZM123.826 61.0128L121.127 53.3878H117.18L114.48 61.3277L111.663 53.3878H103.92L101.142 60.0737L97.2342 53.3878H90.627L98.4094 66.6866L97.3917 69.1889C97.0374 69.9705 96.1939 70.0099 96.0308 69.2676C96.0308 67.9237 94.94 66.8328 93.596 66.8328C92.2521 66.8328 91.1612 67.9237 91.1612 69.2676C91.1724 70.6734 92.5782 72.5122 95.3561 72.3941C98.1339 72.276 99.3035 69.9705 99.6972 68.9921L106.13 53.4384L110.764 66.5291H114.987L117.568 58.9829L120.227 66.5291H124.214L128.713 53.3878H126.407L123.826 61.0128ZM48.352 52.7186C43.921 52.7186 40.3334 56.0138 40.3334 60.0737C40.3334 64.1393 43.921 67.4289 48.352 67.4289C52.7831 67.4289 56.3706 64.1337 56.3706 60.0737C56.3706 56.0138 52.7831 52.7186 48.352 52.7186ZM50.3482 63.5151C50.3482 64.6173 49.4542 65.5114 48.352 65.5114C47.2499 65.5114 46.3558 64.6173 46.3558 63.5151V56.638C46.3558 55.5359 47.2499 54.6418 48.352 54.6418C49.4542 54.6418 50.3482 55.5359 50.3482 56.6324V63.5151Z" fill="#DE1E34"/>
<path d="M91.2645 61.131C91.3038 60.8217 91.3263 60.3944 91.3263 60.0739C91.3263 56.0139 87.7388 52.7188 83.3077 52.7188C78.8766 52.7188 75.2891 56.0139 75.2891 60.0739C75.2891 64.1394 78.8766 67.429 83.3077 67.429C86.3498 67.429 88.9983 65.8713 90.3592 63.5827L88.5879 62.9248C87.5195 64.5611 85.557 65.6577 83.3077 65.6577C82.2056 65.6577 81.3115 64.6174 81.3115 63.5152V61.131H91.2645ZM81.3171 56.6381C81.3171 55.536 82.2112 54.6475 83.3133 54.6475C84.4155 54.6475 85.3095 55.5416 85.3095 56.6381V59.2585H81.3227L81.3171 56.6381ZM144.836 61.131C144.881 60.8217 144.904 60.3944 144.904 60.0739C144.904 56.0139 141.316 52.7188 136.885 52.7188C132.454 52.7188 128.867 56.0139 128.867 60.0739C128.867 64.1394 132.454 67.429 136.885 67.429C139.927 67.429 142.576 65.8713 143.937 63.5827L142.165 62.9248C141.097 64.5611 139.135 65.6577 136.885 65.6577C135.783 65.6577 134.889 64.6174 134.889 63.5152V61.131H144.836ZM134.889 56.6381C134.889 55.536 135.783 54.6475 136.885 54.6475C137.987 54.6475 138.881 55.5416 138.881 56.6381V59.2585H134.895L134.889 56.6381Z" fill="#DE1E34"/>
</g>
</g>
<defs>
<clipPath id="clip0_11105_19001">
<rect width="140" height="60" fill="white" transform="translate(20 30)"/>
</clipPath>
<clipPath id="clip1_11105_19001">
<rect width="140" height="24.7982" fill="white" transform="translate(20 47.6016)"/>
</clipPath>
</defs>
</svg>
