<svg width="140" height="60" viewBox="0 0 140 60" fill="none" xmlns="http://www.w3.org/2000/svg">
<g clip-path="url(#clip0_11105_18649)">
<g clip-path="url(#clip1_11105_18649)">
<path d="M0 2V5.8304H27.2496V2H0ZM31.1136 2V5.8304H69.944C69.944 5.8304 65.9792 2 60.7264 2H31.1136ZM77.5656 2V5.8304H101.058L99.6632 2H77.5656ZM117.902 2L116.508 5.8304H139.787V2H117.902ZM0 9.4536V13.284H27.2496V9.4536H0ZM31.1136 9.4592V13.284H74.452C74.452 13.284 73.948 10.3328 73.0632 9.4592H31.1136ZM77.5656 9.4592V13.284H103.634L102.346 9.4592H77.5656ZM115.114 9.4592L113.826 13.284H139.793V9.4592H115.114ZM7.8288 16.9016V20.7376H19.628V16.9016H7.8288ZM38.9424 16.9016V20.7376H50.7416V16.9016H38.9424ZM62.2216 16.9016V20.7376H74.0208C74.0208 20.7376 74.7712 18.7104 74.7712 16.9016H62.2216ZM85.3944 16.9016V20.7376H106.316L104.922 16.9016H85.3944ZM112.543 16.9016L111.143 20.7376H132.171V16.9016H112.543ZM7.8288 24.3608V28.1912H19.628V24.3608H7.8288ZM38.9424 24.3608V28.1912H69.0872C69.0872 28.1912 71.6072 26.2256 72.4136 24.3608H38.9424ZM85.3944 24.3608V28.1912H97.1936V26.0576L97.944 28.1912H119.56L120.366 26.0576V28.1912H132.166V24.3608H110.012L108.836 27.6032L107.654 24.3608H85.3944ZM7.8288 31.8088V35.6392H19.628V31.8088H7.8288ZM38.9424 31.8088V35.6392H72.4136C71.6128 33.78 69.0872 31.8088 69.0872 31.8088H38.9424ZM85.3944 31.8088V35.6392H97.1936V31.8088H85.3944ZM99.3384 31.8088L100.766 35.6392H116.978L118.334 31.8088H99.3384ZM120.366 31.8088V35.6392H132.166V31.8088H120.366ZM7.8288 39.2624V43.0928H19.628V39.2624H7.8288ZM38.9424 39.2624V43.0928H50.7416V39.2624H38.9424ZM62.2216 39.2624V43.0928H74.7712C74.7712 41.284 74.0208 39.2624 74.0208 39.2624H62.2216ZM85.3944 39.2624V43.0928H97.1936V39.2624H85.3944ZM102.021 39.2624L103.404 43.0928H114.268L115.662 39.2624H102.021ZM120.366 39.2624V43.0928H132.166V39.2624H120.366ZM0.2128 46.7104V50.5464H27.4624V46.7104H0.2128ZM31.1136 46.7104V50.5464H73.0632C73.948 49.6672 74.452 46.7104 74.452 46.7104H31.1136ZM77.7784 46.7104V50.5464H97.1992V46.7104H77.7784ZM104.703 46.7104L106.126 50.5464H111.653L112.986 46.7104H104.703ZM120.366 46.7104V50.5464H140V46.7104H120.366ZM0.2128 54.1696V58H27.4624V54.1696H0.2128ZM31.1136 54.1696V57.9944H60.7264C65.9792 57.9944 69.944 54.1696 69.944 54.1696H31.1136ZM77.7784 54.1696V58H97.1992V54.1696H77.7784ZM107.402 54.1696L108.769 57.9888L109.004 57.9944L110.393 54.1696H107.402ZM120.366 54.1696V58H140V54.1696H120.366Z" fill="#1F70C1"/>
</g>
</g>
<defs>
<clipPath id="clip0_11105_18649">
<rect width="140" height="60" fill="white"/>
</clipPath>
<clipPath id="clip1_11105_18649">
<rect width="140" height="56" fill="white" transform="translate(0 2)"/>
</clipPath>
</defs>
</svg>
