<svg width="180" height="120" viewBox="0 0 180 120" fill="none" xmlns="http://www.w3.org/2000/svg">
<g clip-path="url(#clip0_11105_18648)">
<g clip-path="url(#clip1_11105_18648)">
<path d="M20 32V35.8304H47.2496V32H20ZM51.1136 32V35.8304H89.944C89.944 35.8304 85.9792 32 80.7264 32H51.1136ZM97.5656 32V35.8304H121.058L119.663 32H97.5656ZM137.902 32L136.508 35.8304H159.787V32H137.902ZM20 39.4536V43.284H47.2496V39.4536H20ZM51.1136 39.4592V43.284H94.452C94.452 43.284 93.948 40.3328 93.0632 39.4592H51.1136ZM97.5656 39.4592V43.284H123.634L122.346 39.4592H97.5656ZM135.114 39.4592L133.826 43.284H159.793V39.4592H135.114ZM27.8288 46.9016V50.7376H39.628V46.9016H27.8288ZM58.9424 46.9016V50.7376H70.7416V46.9016H58.9424ZM82.2216 46.9016V50.7376H94.0208C94.0208 50.7376 94.7712 48.7104 94.7712 46.9016H82.2216ZM105.394 46.9016V50.7376H126.316L124.922 46.9016H105.394ZM132.543 46.9016L131.143 50.7376H152.171V46.9016H132.543ZM27.8288 54.3608V58.1912H39.628V54.3608H27.8288ZM58.9424 54.3608V58.1912H89.0872C89.0872 58.1912 91.6072 56.2256 92.4136 54.3608H58.9424ZM105.394 54.3608V58.1912H117.194V56.0576L117.944 58.1912H139.56L140.366 56.0576V58.1912H152.166V54.3608H130.012L128.836 57.6032L127.654 54.3608H105.394ZM27.8288 61.8088V65.6392H39.628V61.8088H27.8288ZM58.9424 61.8088V65.6392H92.4136C91.6128 63.78 89.0872 61.8088 89.0872 61.8088H58.9424ZM105.394 61.8088V65.6392H117.194V61.8088H105.394ZM119.338 61.8088L120.766 65.6392H136.978L138.334 61.8088H119.338ZM140.366 61.8088V65.6392H152.166V61.8088H140.366ZM27.8288 69.2624V73.0928H39.628V69.2624H27.8288ZM58.9424 69.2624V73.0928H70.7416V69.2624H58.9424ZM82.2216 69.2624V73.0928H94.7712C94.7712 71.284 94.0208 69.2624 94.0208 69.2624H82.2216ZM105.394 69.2624V73.0928H117.194V69.2624H105.394ZM122.021 69.2624L123.404 73.0928H134.268L135.662 69.2624H122.021ZM140.366 69.2624V73.0928H152.166V69.2624H140.366ZM20.2128 76.7104V80.5464H47.4624V76.7104H20.2128ZM51.1136 76.7104V80.5464H93.0632C93.948 79.6672 94.452 76.7104 94.452 76.7104H51.1136ZM97.7784 76.7104V80.5464H117.199V76.7104H97.7784ZM124.703 76.7104L126.126 80.5464H131.653L132.986 76.7104H124.703ZM140.366 76.7104V80.5464H160V76.7104H140.366ZM20.2128 84.1696V88H47.4624V84.1696H20.2128ZM51.1136 84.1696V87.9944H80.7264C85.9792 87.9944 89.944 84.1696 89.944 84.1696H51.1136ZM97.7784 84.1696V88H117.199V84.1696H97.7784ZM127.402 84.1696L128.769 87.9888L129.004 87.9944L130.393 84.1696H127.402ZM140.366 84.1696V88H160V84.1696H140.366Z" fill="#1F70C1"/>
</g>
</g>
<defs>
<clipPath id="clip0_11105_18648">
<rect width="140" height="60" fill="white" transform="translate(20 30)"/>
</clipPath>
<clipPath id="clip1_11105_18648">
<rect width="140" height="56" fill="white" transform="translate(20 32)"/>
</clipPath>
</defs>
</svg>
