<svg width="64" height="64" viewBox="0 0 64 64" fill="none" xmlns="http://www.w3.org/2000/svg">
<path d="M0 19.1992V20.9512H12.46V19.1992H0ZM14.22 19.1992V20.9512H31.972C31.972 20.9512 30.158 19.1992 27.758 19.1992H14.22ZM35.456 19.1992V20.9512H46.196L45.556 19.1992H35.456ZM53.896 19.1992L53.256 20.9512H63.896V19.1992H53.896ZM0 22.6052V24.3572H12.46V22.6052H0ZM14.22 22.6072V24.3572H34.032C34.032 24.3572 33.8 23.0092 33.398 22.6072H14.22ZM35.456 22.6072V24.3572H47.376L46.786 22.6072H35.456ZM52.622 22.6072L52.032 24.3572H63.902V22.6072H52.622ZM3.6 26.0112V27.7652H8.994V26.0112H3.6ZM17.82 26.0112V27.7652H23.2V26.0112H17.82ZM28.46 26.0112V27.7652H33.856C33.856 27.7652 34.196 26.8392 34.196 26.0112H28.46ZM39.052 26.0112V27.7652H48.6L47.96 26.0112H39.052ZM51.462 26.0112L50.822 27.7652H60.4V26.0112H51.462ZM3.6 29.4192V31.1712H8.994V29.4192H3.6ZM17.82 29.4192V31.1712H31.62C31.62 31.1712 32.772 30.2712 33.14 29.4192H17.82ZM39.056 29.4192V31.1712H44.45V30.1992L44.79 31.1732H54.67L55.038 30.1992V31.1732H60.4V29.4212H50.272L49.732 30.9052L49.192 29.4212L39.056 29.4192ZM3.6 32.8272V34.5792H8.994V32.8272H3.6ZM17.82 32.8272V34.5792H33.12C32.752 33.7292 31.6 32.8272 31.6 32.8272H17.82ZM39.056 32.8272V34.5792H44.45V32.8272H39.056ZM45.432 32.8272L46.084 34.5792H53.494L54.094 32.8272H45.432ZM55.044 32.8272V34.5792H60.4V32.8272H55.044ZM3.6 36.2332V37.9852H8.994V36.2332H3.6ZM17.82 36.2332V37.9852H23.2V36.2332H17.82ZM28.46 36.2332V37.9852H34.2C34.2 37.1592 33.86 36.2332 33.86 36.2332H28.46ZM39.052 36.2332V37.9852H44.446V36.2332H39.052ZM46.652 36.2332L47.284 37.9852H52.252L52.892 36.2332H46.652ZM55.04 36.2332V37.9852H60.4V36.2332H55.04ZM0.1 39.6392V41.3932H12.56V39.6392H0.1ZM14.226 39.6392V41.3932H33.406C33.81 40.9932 34.04 39.6392 34.04 39.6392H14.226ZM35.558 39.6392V41.3932H44.438V39.6392H35.558ZM47.868 39.6392L48.518 41.3932H51.046L51.656 39.6392H47.868ZM55.028 39.6392V41.3932H64V39.6392H55.028ZM0.1 43.0472V44.7992H12.56V43.0472H0.1ZM14.226 43.0472V44.7972H27.766C30.166 44.7972 31.982 43.0472 31.982 43.0472H14.226ZM35.558 43.0472V44.7992H44.438V43.0472H35.558ZM49.098 43.0472L49.724 44.7932L49.832 44.7952L50.468 43.0452L49.098 43.0472ZM55.026 43.0472V44.7992H64V43.0472H55.026Z" fill="#1F70C1"/>
</svg>
