<svg width="70" height="30" viewBox="0 0 70 30" fill="none" xmlns="http://www.w3.org/2000/svg">
<g clip-path="url(#clip0_10196_724)">
<g clip-path="url(#clip1_10196_724)">
<g clip-path="url(#clip2_10196_724)">
<path d="M0 1V2.9152H13.6248V1H0ZM15.5568 1V2.9152H34.972C34.972 2.9152 32.9896 1 30.3632 1H15.5568ZM38.7828 1V2.9152H50.5288L49.8316 1H38.7828ZM58.9512 1L58.254 2.9152H69.8936V1H58.9512ZM0 4.7268V6.642H13.6248V4.7268H0ZM15.5568 4.7296V6.642H37.226C37.226 6.642 36.974 5.1664 36.5316 4.7296H15.5568ZM38.7828 4.7296V6.642H51.8168L51.1728 4.7296H38.7828ZM57.5568 4.7296L56.9128 6.642H69.8964V4.7296H57.5568ZM3.9144 8.4508V10.3688H9.814V8.4508H3.9144ZM19.4712 8.4508V10.3688H25.3708V8.4508H19.4712ZM31.1108 8.4508V10.3688H37.0104C37.0104 10.3688 37.3856 9.3552 37.3856 8.4508H31.1108ZM42.6972 8.4508V10.3688H53.158L52.4608 8.4508H42.6972ZM56.2716 8.4508L55.5716 10.3688H66.0856V8.4508H56.2716ZM3.9144 12.1804V14.0956H9.814V12.1804H3.9144ZM19.4712 12.1804V14.0956H34.5436C34.5436 14.0956 35.8036 13.1128 36.2068 12.1804H19.4712ZM42.6972 12.1804V14.0956H48.5968V13.0288L48.972 14.0956H59.78L60.1832 13.0288V14.0956H66.0828V12.1804H55.006L54.418 13.8016L53.8272 12.1804H42.6972ZM3.9144 15.9044V17.8196H9.814V15.9044H3.9144ZM19.4712 15.9044V17.8196H36.2068C35.8064 16.89 34.5436 15.9044 34.5436 15.9044H19.4712ZM42.6972 15.9044V17.8196H48.5968V15.9044H42.6972ZM49.6692 15.9044L50.3832 17.8196H58.4892L59.1668 15.9044H49.6692ZM60.1832 15.9044V17.8196H66.0828V15.9044H60.1832ZM3.9144 19.6312V21.5464H9.814V19.6312H3.9144ZM19.4712 19.6312V21.5464H25.3708V19.6312H19.4712ZM31.1108 19.6312V21.5464H37.3856C37.3856 20.642 37.0104 19.6312 37.0104 19.6312H31.1108ZM42.6972 19.6312V21.5464H48.5968V19.6312H42.6972ZM51.0104 19.6312L51.702 21.5464H57.134L57.8312 19.6312H51.0104ZM60.1832 19.6312V21.5464H66.0828V19.6312H60.1832ZM0.1064 23.3552V25.2732H13.7312V23.3552H0.1064ZM15.5568 23.3552V25.2732H36.5316C36.974 24.8336 37.226 23.3552 37.226 23.3552H15.5568ZM38.8892 23.3552V25.2732H48.5996V23.3552H38.8892ZM52.3516 23.3552L53.0628 25.2732H55.8264L56.4928 23.3552H52.3516ZM60.1832 23.3552V25.2732H70V23.3552H60.1832ZM0.1064 27.0848V29H13.7312V27.0848H0.1064ZM15.5568 27.0848V28.9972H30.3632C32.9896 28.9972 34.972 27.0848 34.972 27.0848H15.5568ZM38.8892 27.0848V29H48.5996V27.0848H38.8892ZM53.7012 27.0848L54.3844 28.9944L54.502 28.9972L55.1964 27.0848H53.7012ZM60.1832 27.0848V29H70V27.0848H60.1832Z" fill="#E6E7F5"/>
</g>
</g>
</g>
<defs>
<clipPath id="clip0_10196_724">
<rect width="70" height="30" fill="white"/>
</clipPath>
<clipPath id="clip1_10196_724">
<rect width="70" height="30" fill="white"/>
</clipPath>
<clipPath id="clip2_10196_724">
<rect width="70" height="28" fill="white" transform="translate(0 1)"/>
</clipPath>
</defs>
</svg>
