<svg width="180" height="120" viewBox="0 0 180 120" fill="none" xmlns="http://www.w3.org/2000/svg">
<g clip-path="url(#clip0_11105_18618)">
<g clip-path="url(#clip1_11105_18618)">
<g clip-path="url(#clip2_11105_18618)">
<path d="M52.5 44.623H58.4032V50.5262H52.5V44.623Z" fill="#00C7FD"/>
<path d="M58.256 75.3763V54.1164H52.668V75.3763H58.256ZM95.3979 75.5864V70.3764C94.5786 70.3764 93.8853 70.3344 93.3811 70.2504C92.7929 70.1664 92.3517 69.9563 92.0576 69.6622C91.7635 69.3681 91.5744 68.9479 91.4694 68.4017C91.3854 67.8765 91.3434 67.1832 91.3434 66.3429V58.9062H95.3979V54.1164H91.3434V45.8183H85.7343V66.3849C85.7343 68.1286 85.8813 69.5991 86.1754 70.7756C86.4695 71.931 86.9737 72.8764 87.667 73.5906C88.3602 74.3049 89.2846 74.8091 90.398 75.1242C91.5324 75.4393 92.961 75.5864 94.6626 75.5864H95.3979ZM127.498 75.3763V44.1797H121.889V75.3763H127.498ZM80.3353 56.1962C78.7807 54.5155 76.5959 53.6752 73.8228 53.6752C72.4783 53.6752 71.2599 53.9483 70.1465 54.4945C69.0541 55.0407 68.1087 55.797 67.3734 56.7634L67.0583 57.1625V54.1164H61.5333V75.3763H67.1003V64.0531V64.8304V64.4522C67.1634 62.4565 67.6465 60.9859 68.5709 60.0406C69.5582 59.0322 70.7557 58.528 72.1212 58.528C73.7388 58.528 74.9783 59.0322 75.7976 59.9986C76.5959 60.9649 77.016 62.3304 77.016 64.0741V75.3553H82.6671V63.2968C82.6881 60.2717 81.8898 57.8768 80.3353 56.1962ZM118.99 64.7043C118.99 63.1708 118.717 61.7422 118.191 60.3977C117.645 59.0742 116.889 57.8978 115.944 56.8894C114.977 55.881 113.822 55.1038 112.477 54.5365C111.133 53.9693 109.641 53.6962 108.024 53.6962C106.49 53.6962 105.04 53.9903 103.696 54.5575C102.351 55.1458 101.175 55.9231 100.188 56.9104C99.2003 57.8978 98.402 59.0742 97.8348 60.4187C97.2465 61.7632 96.9734 63.2128 96.9734 64.7463C96.9734 66.2799 97.2465 67.7294 97.7927 69.0739C98.339 70.4184 99.1162 71.5949 100.083 72.5822C101.049 73.5696 102.246 74.3679 103.633 74.9351C105.019 75.5233 106.553 75.8175 108.192 75.8175C112.939 75.8175 115.88 73.6536 117.645 71.6369L113.612 68.5698C112.771 69.5781 110.755 70.9436 108.234 70.9436C106.658 70.9436 105.356 70.5865 104.368 69.8512C103.381 69.137 102.709 68.1286 102.351 66.8891L102.288 66.7001H118.99V64.7043ZM102.33 62.7506C102.33 61.196 104.116 58.486 107.961 58.465C111.805 58.465 113.612 61.175 113.612 62.7296L102.33 62.7506Z" fill="#0068B5"/>
</g>
</g>
</g>
<defs>
<clipPath id="clip0_11105_18618">
<rect width="140" height="60" fill="white" transform="translate(20 30)"/>
</clipPath>
<clipPath id="clip1_11105_18618">
<rect width="90.5797" height="60" fill="white" transform="translate(44.7109 30)"/>
</clipPath>
<clipPath id="clip2_11105_18618">
<rect width="75" height="75" fill="white" transform="translate(52.5 22.5)"/>
</clipPath>
</defs>
</svg>
