<svg width="70" height="30" viewBox="0 0 70 30" fill="none" xmlns="http://www.w3.org/2000/svg">
<g clip-path="url(#clip0_10196_694)">
<g clip-path="url(#clip1_10196_694)">
<path d="M55.1366 9.90924C53.229 0.590397 35.1348 -0.000182629 23.4736 7.09945V7.88388C35.1221 1.89293 51.6475 1.93279 53.1529 10.5143C53.6565 13.3549 52.0569 16.3132 49.2 18.0161V20.2426C52.6366 18.9835 56.162 14.9056 55.1366 9.90924ZM33.9391 26.2208C25.8938 26.9636 17.508 25.7933 16.3323 19.5071C15.7562 16.4074 17.171 13.1194 19.0442 11.0759V9.98351C15.6692 12.9418 13.8413 16.6882 14.8957 21.1103C16.2417 26.786 23.4373 29.9998 34.4228 28.9328C38.7707 28.5107 44.4591 27.1103 48.4174 24.9382V21.8531C44.825 23.9926 38.8866 25.7625 33.9391 26.2208Z" fill="#E6E7F5"/>
<path d="M47.7647 8.55371H45.656V17.9486C45.656 19.0501 46.1886 20.0084 47.7647 20.1606V8.55371ZM22.6433 11.9849H20.5292L20.5273 18.1226C20.5273 19.2276 21.0618 20.1841 22.6433 20.3345V11.9849ZM20.5292 10.8381H22.636V8.83813H20.5292V10.8381ZM35.2773 20.2367C33.5708 20.2367 32.8498 19.0483 32.8498 17.878V9.72943H34.9386V11.9831H36.5129V13.6733H34.9386V17.7512C34.9386 18.2294 35.165 18.4939 35.6632 18.4939H36.5147V20.2385H35.2773V20.2367ZM40.8263 13.5736C40.1107 13.5736 39.5618 13.9432 39.3281 14.4396C39.1922 14.7385 39.1415 14.9722 39.1288 15.3381H42.3498C42.3081 14.4378 41.9005 13.5736 40.8263 13.5736ZM39.1288 16.7639C39.1288 17.8327 39.7973 18.6207 40.9802 18.6207C41.9078 18.6207 42.3661 18.3617 42.9023 17.8309L44.1958 19.0628C43.3679 19.8816 42.4984 20.378 40.9676 20.378C38.9657 20.378 37.0491 19.2874 37.0491 16.1026C37.0491 13.3798 38.7248 11.8399 40.9223 11.8399C43.156 11.8399 44.4386 13.6407 44.4386 16.0066V16.7602L39.1288 16.7639ZM28.3226 13.6733C28.9368 13.6733 29.1922 13.9758 29.1922 14.4686V20.2512H31.2828V14.4541C31.2828 13.2802 30.6578 11.9867 28.819 11.9867L24.5002 11.9849V20.2512H26.5907V13.6751H28.3226V13.6733Z" fill="#E6E7F5"/>
</g>
</g>
<defs>
<clipPath id="clip0_10196_694">
<rect width="70" height="30" fill="white"/>
</clipPath>
<clipPath id="clip1_10196_694">
<rect width="70" height="30" fill="white"/>
</clipPath>
</defs>
</svg>
