<svg width="48" height="48" viewBox="0 0 48 48" fill="none" xmlns="http://www.w3.org/2000/svg">
<g clip-path="url(#clip0_11091_17273)">
<path d="M0 14.1582H3.77804V17.9362H0V14.1582Z" fill="#00C7FD"/>
<path d="M3.68575 33.8408V20.2345H0.109375V33.8408H3.68575ZM27.4565 33.9753V30.6409C26.9321 30.6409 26.4885 30.614 26.1658 30.5602C25.7893 30.5065 25.507 30.372 25.3188 30.1838C25.1305 29.9956 25.0095 29.7267 24.9423 29.3771C24.8885 29.041 24.8616 28.5973 24.8616 28.0595V23.2999H27.4565V20.2345H24.8616V14.9237H21.2718V28.0864C21.2718 29.2023 21.3659 30.1434 21.5541 30.8964C21.7424 31.6358 22.0651 32.2409 22.5087 32.698C22.9524 33.1551 23.544 33.4778 24.2566 33.6795C24.9826 33.8812 25.8969 33.9753 26.9859 33.9753H27.4565ZM48.0005 33.8408V13.875H44.4107V33.8408H48.0005ZM17.8164 21.5655C16.8215 20.4899 15.4232 19.9521 13.6485 19.9521C12.788 19.9521 12.0082 20.1269 11.2956 20.4765C10.5965 20.8261 9.99145 21.3101 9.52087 21.9286L9.3192 22.184V20.2345H5.78317V33.8408H9.34609V26.594V27.0914V26.8494C9.38643 25.5722 9.69566 24.631 10.2872 24.026C10.9192 23.3806 11.6855 23.0579 12.5594 23.0579C13.5947 23.0579 14.388 23.3806 14.9123 23.9991C15.4232 24.6176 15.6921 25.4915 15.6921 26.6074V33.8274H19.3088V26.11C19.3223 24.1739 18.8114 22.6411 17.8164 21.5655ZM42.5552 27.0108C42.5552 26.0293 42.3805 25.115 42.0443 24.2545C41.6948 23.4075 41.2107 22.6546 40.6057 22.0092C39.9872 21.3639 39.2478 20.8664 38.3873 20.5034C37.5268 20.1404 36.5722 19.9656 35.5369 19.9656C34.5555 19.9656 33.6278 20.1538 32.7673 20.5168C31.9068 20.8933 31.1539 21.3908 30.522 22.0227C29.8901 22.6546 29.3791 23.4075 29.0161 24.268C28.6397 25.1285 28.4649 26.0562 28.4649 27.0377C28.4649 28.0191 28.6397 28.9468 28.9892 29.8073C29.3388 30.6678 29.8363 31.4207 30.4547 32.0526C31.0732 32.6846 31.8396 33.1955 32.7269 33.5585C33.6143 33.9349 34.5958 34.1232 35.6445 34.1232C38.6831 34.1232 40.5654 32.7383 41.6948 31.4476L39.1133 29.4846C38.5755 30.13 37.2848 31.0039 35.6714 31.0039C34.663 31.0039 33.8294 30.7754 33.1975 30.3048C32.5656 29.8477 32.1354 29.2023 31.9068 28.409L31.8665 28.288H42.5552V27.0108ZM31.8934 25.7604C31.8934 24.7655 33.0362 23.031 35.4966 23.0176C37.9571 23.0176 39.1133 24.752 39.1133 25.7469L31.8934 25.7604Z" fill="#0068B5"/>
</g>
<defs>
<clipPath id="clip0_11091_17273">
<rect width="48" height="48" fill="white"/>
</clipPath>
</defs>
</svg>
