<svg width="70" height="30" viewBox="0 0 70 30" fill="none" xmlns="http://www.w3.org/2000/svg">
<g clip-path="url(#clip0_11112_19794)">
<path d="M10 4.74805H13.9356V8.68363H10V4.74805Z" fill="#00C7FD"/>
<path d="M13.8388 25.2515V11.0778H10.1133V25.2515H13.8388ZM38.6007 25.3915V21.9181C38.0545 21.9181 37.5923 21.8901 37.2562 21.8341C36.864 21.7781 36.5699 21.638 36.3738 21.4419C36.1777 21.2459 36.0517 20.9658 35.9817 20.6016C35.9256 20.2515 35.8976 19.7893 35.8976 19.2291V14.2711H38.6007V11.0778H35.8976V5.54556H32.1581V19.2571C32.1581 20.4195 32.2562 21.3999 32.4522 22.1842C32.6483 22.9545 32.9845 23.5848 33.4466 24.061C33.9088 24.5372 34.5251 24.8733 35.2674 25.0834C36.0237 25.2935 36.9761 25.3915 38.1105 25.3915H38.6007ZM60.0013 25.2515V4.45312H56.2618V25.2515H60.0013ZM28.5587 12.4643C27.5223 11.3439 26.0657 10.7837 24.2169 10.7837C23.3206 10.7837 22.5083 10.9657 21.766 11.3299C21.0377 11.694 20.4074 12.1982 19.9172 12.8425L19.7071 13.1086V11.0778H16.0237V25.2515H19.7351V17.7024V18.2207V17.9685C19.7772 16.638 20.0993 15.6576 20.7155 15.0274C21.3738 14.3551 22.1721 14.019 23.0825 14.019C24.1609 14.019 24.9872 14.3551 25.5335 14.9994C26.0657 15.6436 26.3458 16.554 26.3458 17.7164V25.2375H30.1133V17.1982C30.1273 15.1814 29.5951 13.5848 28.5587 12.4643ZM54.329 18.1366C54.329 17.1142 54.1469 16.1618 53.7968 15.2655C53.4327 14.3831 52.9285 13.5988 52.2982 12.9265C51.6539 12.2543 50.8836 11.736 49.9873 11.3579C49.0909 10.9797 48.0965 10.7977 47.0181 10.7977C45.9957 10.7977 45.0293 10.9938 44.1329 11.3719C43.2366 11.7641 42.4523 12.2823 41.794 12.9405C41.1357 13.5988 40.6035 14.3831 40.2254 15.2795C39.8332 16.1758 39.6511 17.1422 39.6511 18.1646C39.6511 19.187 39.8332 20.1534 40.1974 21.0498C40.5615 21.9461 41.0797 22.7305 41.724 23.3887C42.3682 24.047 43.1665 24.5792 44.0909 24.9574C45.0153 25.3495 46.0377 25.5456 47.1301 25.5456C50.2954 25.5456 52.2562 24.103 53.4327 22.7585L50.7436 20.7137C50.1834 21.3859 48.8388 22.2963 47.1581 22.2963C46.1077 22.2963 45.2394 22.0582 44.5811 21.568C43.9228 21.0918 43.4747 20.4195 43.2366 19.5932L43.1946 19.4672H54.329V18.1366ZM43.2226 16.8341C43.2226 15.7977 44.413 13.991 46.9761 13.9769C49.5391 13.9769 50.7436 15.7837 50.7436 16.8201L43.2226 16.8341Z" fill="#0068B5"/>
</g>
<defs>
<clipPath id="clip0_11112_19794">
<rect width="70" height="30" fill="white"/>
</clipPath>
</defs>
</svg>
