<svg width="91" height="60" viewBox="0 0 91 60" fill="none" xmlns="http://www.w3.org/2000/svg">
<g clip-path="url(#clip0_11105_19666)">
<path d="M46.0598 0.00012412C53.0794 0.00012412 60.2312 1.51202 66.9516 4.76247C69.3231 10.4448 70.4068 16.2944 70.4068 22.0033C70.4068 27.6957 69.337 33.4794 66.964 39.2149C60.2175 42.4811 53.09 43.9786 46.0617 43.9786C39.0371 43.9786 31.9127 42.4811 25.1587 39.2149C22.7856 33.48 21.7188 27.696 21.7188 22.0033C21.7188 16.2945 22.7993 10.4447 25.1724 4.76247C31.8941 1.5119 39.0477 0 46.0617 0" fill="#247218"/>
<path d="M26.63 37.8473C24.6682 32.9298 23.5938 27.5851 23.5938 22.0041C23.5938 16.4102 24.6697 11.0592 26.6409 6.12983C32.48 3.39374 39.1267 1.85938 46.0594 1.85938C52.9946 1.85938 59.6455 3.3938 65.4804 6.12983C67.4508 11.0589 68.5282 16.41 68.5282 22.0041C68.5282 27.5848 67.457 32.9297 65.4928 37.8473C59.6545 40.5873 53.0008 42.1225 46.0594 42.1225C39.1217 42.1225 32.4686 40.5873 26.63 37.8473Z" fill="#FCDF17"/>
<path d="M64.3814 36.819C63.1542 34.7989 61.5057 33.1675 61.4879 33.152C61.4677 33.1419 61.145 33.0418 61.145 33.0418C57.6464 31.9667 55.3532 31.1583 54.3395 30.6332C52.9447 29.9086 51.4793 28.1501 51.3179 27.9522C49.6827 27.8289 48.3298 27.8552 47.0281 28.0127L46.1988 28.1205C44.6178 28.3246 42.9857 28.5402 41.3861 28.2834C40.321 28.1089 39.2869 27.7699 38.1907 27.4131C36.502 26.86 34.772 26.2921 32.7954 26.2952H32.7163L32.7504 26.3651C33.1996 27.2385 34.9737 29.8893 37.1954 30.6177C37.6857 30.7356 38.0402 30.8659 38.1938 30.9862C38.1938 30.9916 39.0441 32.7215 39.276 33.1893C37.8937 32.5618 33.6177 30.3873 30.1682 26.1896V26.1834C30.1682 26.1275 30.0789 25.3107 30.0603 25.1322C32.1145 24.3658 36.7404 23.9213 37.2617 23.8717L37.2998 23.8685L37.316 23.8267C37.5922 21.3932 38.1686 19.446 39.2485 17.3135C39.2795 17.2491 39.2981 17.1901 39.2981 17.1389C39.2981 17.1017 39.2872 17.0637 39.2717 17.0334C39.2112 16.9186 39.0631 16.8961 39.0568 16.8961C39.0568 16.8961 36.0702 16.3748 35.9089 16.3469C35.8918 16.2942 35.5947 15.3826 35.5691 15.3067C37.8381 14.4626 40.6355 13.6729 42.2368 13.3254C42.5075 12.8933 42.5835 12.6583 42.5835 12.3759C42.5835 12.1362 42.468 11.9322 42.2368 11.7755C41.1018 11.0059 37.5272 11.469 33.9109 12.856C33.9031 12.8413 33.9031 12.8382 33.8922 12.8227C34.6432 12.261 35.9852 11.4263 36.9805 10.964L37.0192 10.9423L37.0076 10.905C36.7376 9.9904 34.9713 9.29074 34.7727 9.21937C34.7766 9.18834 34.7797 9.1674 34.7828 9.14335C36.5787 9.02078 37.7702 9.86088 38.134 10.4598L38.1526 10.4892L38.1883 10.4776C38.4187 10.4031 39.2302 10.1456 40.1083 10.0416L40.1595 10.0393L40.1456 9.98575C39.857 8.44741 38.3885 7.42032 37.8881 7.11083C37.9021 7.08601 37.9068 7.0767 37.9207 7.05885C39.6545 7.19306 41.2564 8.68637 41.6171 9.94848L41.6272 9.98261L41.6629 9.98572C42.1283 10.002 42.6931 10.054 43.0709 10.1176L43.1097 10.1238L43.1237 10.0912C43.2648 9.75997 43.3339 9.4062 43.3339 9.04241C43.3339 7.90597 42.6916 6.68724 41.9019 5.91695C41.9174 5.89523 41.9244 5.87506 41.9445 5.85645C44.2221 6.72063 44.8016 8.36211 44.8016 9.89033C44.8016 10.9601 44.5177 11.9786 44.3346 12.6279L44.2578 12.8971C44.2578 12.8971 47.6122 12.4922 47.8387 12.465C47.4973 12.8971 46.7619 13.6666 45.2935 14.4773C45.2935 14.4695 43.78 14.2841 43.78 14.2841L43.7404 14.2779L43.7272 14.3167C43.6256 14.6293 42.7397 17.4283 42.735 19.4855C42.735 20.2481 42.9507 20.84 43.3766 21.248C44.1353 21.978 45.392 22.0183 46.2701 21.9842C50.0038 21.8477 52.9173 22.0773 54.9392 22.6754L55.0587 22.708L55.0773 22.6801C55.203 22.4869 55.3015 22.1285 55.3015 21.6537C55.3015 20.7523 54.9408 19.4087 53.7276 17.8891C53.7407 17.8782 53.7407 17.8704 53.7563 17.8588C53.9572 17.9697 57.2324 19.8299 57.6699 22.6381C57.5931 22.6676 56.1005 23.2766 56.1005 23.2766L56.1486 23.3255C57.5325 24.7746 58.0104 26.5254 58.3936 27.9272C58.6985 29.0381 59.0623 29.7479 59.5448 30.1645C60.1041 30.647 62.2235 31.6586 62.8596 31.9556C63.3886 32.7073 64.2978 34.1161 64.9572 35.2068V35.2045C66.3892 30.955 67.1215 26.5255 67.1215 22.0032C67.1215 16.8918 66.1891 11.9011 64.3661 7.15477C58.7225 4.60647 52.404 3.25195 46.0591 3.25195C39.7134 3.25195 33.402 4.60641 27.757 7.15477C25.9317 11.9016 25 16.8919 25 22.0032C25 27.1021 25.9302 32.0817 27.7461 36.8262C33.392 39.3784 39.7106 40.7266 46.0594 40.7266C52.4112 40.7266 58.7295 39.3784 64.3744 36.8262L64.3822 36.8192L64.3814 36.819Z" fill="url(#paint0_radial_11105_19666)"/>
<path d="M0 57.812C0 57.812 1.10597 58.207 2.34431 58.207C3.66221 58.207 4.48531 58.0268 4.94511 57.5629C5.32613 57.181 5.47829 56.5423 5.45726 55.6009V49.3359H7.40817V55.8721C7.37963 58.7659 5.97236 60.0009 2.69858 60.0009C1.10892 60.0009 9.92956e-05 59.7502 9.92956e-05 59.7502L0 57.812Z" fill="#247218"/>
<path d="M13.5576 58.2873C12.4195 58.2873 10.5044 57.9351 10.5044 55.5851C10.5044 53.8997 11.6178 52.9323 13.5576 52.9323C15.4973 52.9323 16.6075 53.8997 16.6075 55.5851C16.6075 57.9352 14.6982 58.2873 13.5576 58.2873ZM8.56055 55.6746C8.56055 57.6692 9.86982 60.0003 13.5576 60.0003C17.247 60.0003 18.5567 57.6692 18.5567 55.6746C18.5567 52.8833 16.6879 51.2148 13.5576 51.2148C10.4294 51.2148 8.56055 52.8833 8.56055 55.6746Z" fill="#247218"/>
<path d="M26.7248 51.4141V54.7518H21.6581V51.4141H19.7109V59.8045H21.6581V56.4673H26.7248V59.8045H28.6708V51.4141H26.7248Z" fill="#247218"/>
<path d="M56.5067 58.0873V56.4675H60.9986V54.7517H56.5067V53.1319H62.3137V51.4141H54.5605V59.8045H62.3137V58.087L56.5067 58.0873Z" fill="#247218"/>
<path d="M47.6029 49.3262C51.3328 49.3262 53.5629 51.3167 53.5629 54.6412C53.5629 57.0259 52.0012 59.8052 47.6029 59.8052H45.1473H42.8945V49.3264H45.1473L47.6029 49.3262ZM44.8492 51.0592V58.0769H47.6029C49.0969 58.0769 51.6033 57.6163 51.6033 54.5351C51.6033 52.324 50.1455 51.0592 47.6029 51.0592L44.8492 51.0592Z" fill="#247218"/>
<path d="M78.2762 55.022C78.6799 55.022 79.3537 54.8945 79.3537 54.0649C79.3537 53.4703 78.9615 53.1317 78.2762 53.1317H74.7188V55.0174L78.2762 55.022ZM81.6015 59.8045H79.2473L76.8997 56.7337H74.6132V59.8045H72.666V51.4141H78.1707C80.0659 51.4141 81.195 52.4215 81.195 54.1068C81.195 55.117 80.6313 56.2523 79.1542 56.6065L81.6015 59.8045Z" fill="#247218"/>
<path d="M37.2661 59.8045L32.2018 54.0851V59.8045H30.2559V51.4141H32.1865L37.266 57.0766V51.4141H39.2152V59.8045H37.2661Z" fill="#247218"/>
<path d="M65.5595 58.0873V56.4675H70.0514V54.7517H65.5595V53.1319H71.3664V51.4141H63.6133V59.8045H71.3664V58.087L65.5595 58.0873Z" fill="#247218"/>
<path d="M84.4384 58.0873V56.4675H88.9303V54.7517H84.4384V53.1319H90.2453V51.4141H82.4922V59.8045H90.2453V58.087L84.4384 58.0873Z" fill="#247218"/>
</g>
<defs>
<radialGradient id="paint0_radial_11105_19666" cx="0" cy="0" r="1" gradientTransform="matrix(-0.805498 -22.3227 -22.8821 0.825784 47.0454 18.7838)" gradientUnits="userSpaceOnUse">
<stop stop-color="#5AAD35"/>
<stop offset="0.67532" stop-color="#438E2F"/>
<stop offset="1" stop-color="#2C702A"/>
</radialGradient>
<clipPath id="clip0_11105_19666">
<rect width="90.2473" height="60" fill="white"/>
</clipPath>
</defs>
</svg>
