<svg width="180" height="120" viewBox="0 0 180 120" fill="none" xmlns="http://www.w3.org/2000/svg">
<g clip-path="url(#clip0_11105_18876)">
<path d="M90.9368 30.0001C97.9564 30.0001 105.108 31.512 111.829 34.7625C114.2 40.4448 115.284 46.2944 115.284 52.0033C115.284 57.6957 114.214 63.4794 111.841 69.2149C105.094 72.4811 97.9669 73.9786 90.9386 73.9786C83.9141 73.9786 76.7896 72.4811 70.0357 69.2149C67.6625 63.48 66.5957 57.696 66.5957 52.0033C66.5957 46.2945 67.6763 40.4447 70.0493 34.7625C76.771 31.5119 83.9247 30 90.9386 30" fill="#247218"/>
<path d="M71.507 67.8473C69.5451 62.9298 68.4707 57.5851 68.4707 52.0041C68.4707 46.4102 69.5467 41.0592 71.5178 36.1298C77.3569 33.3937 84.0036 31.8594 90.9363 31.8594C97.8715 31.8594 104.522 33.3938 110.357 36.1298C112.328 41.0589 113.405 46.41 113.405 52.0041C113.405 57.5848 112.334 62.9297 110.37 67.8473C104.531 70.5873 97.8777 72.1225 90.9363 72.1225C83.9987 72.1225 77.3456 70.5873 71.507 67.8473Z" fill="#FCDF17"/>
<path d="M109.258 66.819C108.031 64.7989 106.383 63.1675 106.365 63.152C106.345 63.1419 106.022 63.0418 106.022 63.0418C102.523 61.9667 100.23 61.1583 99.2165 60.6332C97.8217 59.9086 96.3562 58.1501 96.1949 57.9522C94.5596 57.8289 93.2067 57.8552 91.905 58.0127L91.0758 58.1205C89.4948 58.3246 87.8626 58.5402 86.263 58.2834C85.198 58.1089 84.1639 57.7699 83.0677 57.4131C81.3789 56.86 79.6489 56.2921 77.6723 56.2952H77.5932L77.6274 56.3651C78.0765 57.2385 79.8506 59.8893 82.0724 60.6177C82.5627 60.7356 82.9171 60.8659 83.0708 60.9862C83.0708 60.9916 83.921 62.7215 84.153 63.1893C82.7706 62.5618 78.4947 60.3873 75.0451 56.1896V56.1834C75.0451 56.1275 74.9559 55.3107 74.9373 55.1322C76.9915 54.3658 81.6174 53.9213 82.1387 53.8717L82.1767 53.8685L82.193 53.8267C82.4692 51.3932 83.0456 49.446 84.1254 47.3135C84.1564 47.2491 84.1751 47.1901 84.1751 47.1389C84.1751 47.1017 84.1642 47.0637 84.1487 47.0334C84.0882 46.9186 83.94 46.8961 83.9338 46.8961C83.9338 46.8961 80.9472 46.3748 80.7858 46.3469C80.7688 46.2942 80.4716 45.3826 80.446 45.3067C82.7151 44.4626 85.5125 43.6729 87.1137 43.3254C87.3845 42.8933 87.4605 42.6583 87.4605 42.3759C87.4605 42.1362 87.3449 41.9322 87.1137 41.7755C85.9788 41.0059 82.4042 41.469 78.7878 42.856C78.78 42.8413 78.78 42.8382 78.7692 42.8227C79.5201 42.261 80.8622 41.4263 81.8574 40.964L81.8962 40.9423L81.8846 40.905C81.6146 39.9904 79.8483 39.2907 79.6497 39.2194C79.6535 39.1883 79.6566 39.1674 79.6597 39.1433C81.4556 39.0208 82.6472 39.8609 83.011 40.4598L83.0296 40.4892L83.0653 40.4776C83.2957 40.4031 84.1071 40.1456 84.9853 40.0416L85.0365 40.0393L85.0225 39.9857C84.7339 38.4474 83.2655 37.4203 82.7651 37.1108C82.7791 37.086 82.7837 37.0767 82.7977 37.0589C84.5315 37.1931 86.1334 38.6864 86.4941 39.9485L86.5042 39.9826L86.5398 39.9857C87.0053 40.002 87.57 40.054 87.9479 40.1176L87.9866 40.1238L88.0006 40.0912C88.1418 39.76 88.2108 39.4062 88.2108 39.0424C88.2108 37.906 87.5685 36.6872 86.7788 35.917C86.7943 35.8952 86.8013 35.8751 86.8215 35.8564C89.0991 36.7206 89.6786 38.3621 89.6786 39.8903C89.6786 40.9601 89.3947 41.9786 89.2116 42.6279L89.1348 42.8971C89.1348 42.8971 92.4891 42.4922 92.7156 42.465C92.3743 42.8971 91.6389 43.6666 90.1704 44.4773C90.1704 44.4695 88.6569 44.2841 88.6569 44.2841L88.6174 44.2779L88.6042 44.3167C88.5025 44.6293 87.6167 47.4283 87.612 49.4855C87.612 50.2481 87.8276 50.84 88.2535 51.248C89.0122 51.978 90.2689 52.0183 91.1471 51.9842C94.8807 51.8477 97.7943 52.0773 99.8162 52.6754L99.9357 52.708L99.9543 52.6801C100.08 52.4869 100.178 52.1285 100.178 51.6537C100.178 50.7523 99.8178 49.4087 98.6045 47.8891C98.6177 47.8782 98.6177 47.8704 98.6332 47.8588C98.8341 47.9697 102.109 49.8299 102.547 52.6381C102.47 52.6676 100.977 53.2766 100.977 53.2766L101.026 53.3255C102.409 54.7746 102.887 56.5254 103.271 57.9272C103.575 59.0381 103.939 59.7479 104.422 60.1645C104.981 60.647 107.1 61.6586 107.737 61.9556C108.266 62.7073 109.175 64.1161 109.834 65.2068V65.2045C111.266 60.955 111.998 56.5255 111.998 52.0032C111.998 46.8918 111.066 41.9011 109.243 37.1548C103.599 34.6065 97.281 33.252 90.936 33.252C84.5904 33.252 78.2789 34.6064 72.634 37.1548C70.8087 41.9016 69.877 46.8919 69.877 52.0032C69.877 57.1021 70.8071 62.0817 72.6231 66.8262C78.269 69.3784 84.5876 70.7266 90.9363 70.7266C97.2881 70.7266 103.606 69.3784 109.251 66.8262L109.259 66.8192L109.258 66.819Z" fill="url(#paint0_radial_11105_18876)"/>
<path d="M44.877 87.812C44.877 87.812 45.9829 88.207 47.2213 88.207C48.5392 88.207 49.3623 88.0268 49.8221 87.5629C50.2031 87.181 50.3552 86.5423 50.3342 85.6009V79.3359H52.2851V85.8721C52.2566 88.7659 50.8493 90.0009 47.5755 90.0009C45.9859 90.0009 44.8771 89.7502 44.8771 89.7502L44.877 87.812Z" fill="#247218"/>
<path d="M58.4346 88.2873C57.2964 88.2873 55.3814 87.9351 55.3814 85.5851C55.3814 83.8997 56.4947 82.9323 58.4346 82.9323C60.3743 82.9323 61.4844 83.8997 61.4844 85.5851C61.4844 87.9352 59.5751 88.2873 58.4346 88.2873ZM53.4375 85.6746C53.4375 87.6692 54.7468 90.0003 58.4346 90.0003C62.1239 90.0003 63.4337 87.6692 63.4337 85.6746C63.4337 82.8833 61.5648 81.2148 58.4346 81.2148C55.3064 81.2148 53.4375 82.8833 53.4375 85.6746Z" fill="#247218"/>
<path d="M71.6018 81.4141V84.7518H66.5351V81.4141H64.5879V89.8045H66.5351V86.4673H71.6018V89.8045H73.5477V81.4141H71.6018Z" fill="#247218"/>
<path d="M101.384 88.0873V86.4675H105.876V84.7517H101.384V83.1319H107.191V81.4141H99.4375V89.8045H107.191V88.087L101.384 88.0873Z" fill="#247218"/>
<path d="M92.4799 79.3262C96.2097 79.3262 98.4398 81.3167 98.4398 84.6412C98.4398 87.0259 96.8782 89.8052 92.4799 89.8052H90.0243H87.7715V79.3264H90.0243L92.4799 79.3262ZM89.7261 81.0592V88.0769H92.4799C93.9739 88.0769 96.4802 87.6163 96.4802 84.5351C96.4802 82.324 95.0225 81.0592 92.4799 81.0592L89.7261 81.0592Z" fill="#247218"/>
<path d="M123.153 85.022C123.557 85.022 124.231 84.8945 124.231 84.0649C124.231 83.4703 123.838 83.1317 123.153 83.1317H119.596V85.0174L123.153 85.022ZM126.478 89.8045H124.124L121.777 86.7337H119.49V89.8045H117.543V81.4141H123.048C124.943 81.4141 126.072 82.4215 126.072 84.1068C126.072 85.117 125.508 86.2523 124.031 86.6065L126.478 89.8045Z" fill="#247218"/>
<path d="M82.143 89.8045L77.0788 84.0851V89.8045H75.1328V81.4141H77.0635L82.143 87.0766V81.4141H84.0922V89.8045H82.143Z" fill="#247218"/>
<path d="M110.436 88.0873V86.4675H114.928V84.7517H110.436V83.1319H116.243V81.4141H108.49V89.8045H116.243V88.087L110.436 88.0873Z" fill="#247218"/>
<path d="M129.315 88.0873V86.4675H133.807V84.7517H129.315V83.1319H135.122V81.4141H127.369V89.8045H135.122V88.087L129.315 88.0873Z" fill="#247218"/>
</g>
<defs>
<radialGradient id="paint0_radial_11105_18876" cx="0" cy="0" r="1" gradientTransform="matrix(-0.805498 -22.3227 -22.8821 0.825784 91.9224 48.7838)" gradientUnits="userSpaceOnUse">
<stop stop-color="#5AAD35"/>
<stop offset="0.67532" stop-color="#438E2F"/>
<stop offset="1" stop-color="#2C702A"/>
</radialGradient>
<clipPath id="clip0_11105_18876">
<rect width="90.2473" height="60" fill="white" transform="translate(44.877 30)"/>
</clipPath>
</defs>
</svg>
