<svg width="70" height="30" viewBox="0 0 70 30" fill="none" xmlns="http://www.w3.org/2000/svg">
<g clip-path="url(#clip0_10196_953)">
<g clip-path="url(#clip1_10196_953)">
<g clip-path="url(#clip2_10196_953)">
<path d="M45.3266 2.28789C42.2761 0.822634 38.7978 0 35.1686 0C31.5393 0 28.061 0.822634 25.0105 2.31886C23.942 4.88161 23.3633 7.71727 23.3633 10.6458C23.3633 13.6054 23.942 16.4101 25.0105 19.0038C28.061 20.4671 31.5374 21.3227 35.1686 21.3227C38.7998 21.3227 42.2761 20.4691 45.3266 19.0038C46.3951 16.4411 47.0048 13.6054 47.0048 10.6458C47.0029 7.71727 46.3932 4.87967 45.3266 2.28789ZM44.593 18.3631C41.7864 19.7045 38.523 20.4381 35.1686 20.4381C31.8141 20.4381 28.5797 19.7045 25.7421 18.3631C24.7956 15.9843 24.2788 13.3615 24.2788 10.6458C24.2788 7.93019 24.7976 5.33841 25.7421 2.92858C28.5797 1.61623 31.8141 0.853603 35.1686 0.853603C38.523 0.853603 41.7574 1.61623 44.593 2.92858C45.5396 5.33841 46.0873 7.93019 46.0873 10.6458C46.0893 13.3905 45.5705 15.9843 44.593 18.3631Z" fill="#E6E7F5"/>
<path fill-rule="evenodd" clip-rule="evenodd" d="M31.8734 8.17395C31.3856 9.18047 31.0507 10.278 30.8978 11.5303C30.8668 11.5303 30.6229 11.5613 30.6229 11.5613C29.5545 11.6522 28.488 11.7452 27.4505 12.14L27.5124 12.5368C29.2216 14.6408 31.8133 15.9222 31.8133 15.9222L31.3256 14.9757C31.2036 14.8847 30.8378 14.7918 30.8378 14.7918C29.6764 14.4279 28.8538 12.9026 28.7319 12.6588C29.6784 12.6588 30.532 12.9336 31.3256 13.2085C31.8753 13.3614 32.394 13.5433 32.9108 13.6053C33.8264 13.7582 34.771 13.6053 35.6555 13.4833C36.3582 13.3924 37.0279 13.3924 37.6995 13.4524C37.7905 13.5433 38.4931 14.3989 39.1938 14.7647C40.0474 15.1925 42.5192 15.9551 42.6411 15.9841C42.7011 16.0151 43.6477 16.9907 44.2574 18.0881C41.4507 19.3695 38.3092 20.0392 35.1678 20.0392C32.0263 20.0392 28.8848 19.3676 26.0781 18.0881C25.1626 15.7093 24.6748 13.2085 24.6748 10.6457C24.6748 8.11395 25.1626 5.61314 26.0781 3.23428C28.8848 1.95291 32.0263 1.28125 35.1678 1.28125C38.3402 1.28125 41.4817 1.95291 44.2574 3.23428C45.1729 5.61314 45.6607 8.11395 45.6607 10.6457C45.6626 12.9626 45.2716 15.2622 44.5013 17.4475C43.6167 15.9222 43.2509 15.4654 43.2509 15.4654C43.2199 15.4654 42.0005 14.8247 41.6946 14.5498C41.4507 14.3369 41.3288 13.9092 41.1759 13.4214C40.992 12.7207 40.7501 11.8652 40.0784 11.1645L40.841 10.8586C40.6281 9.42436 38.919 8.51075 38.8899 8.51075L38.859 8.54172C39.5306 9.36435 39.6526 10.036 39.6526 10.4638C39.6526 10.6767 39.6216 10.8296 39.5926 10.8896C39.4087 10.7986 38.1583 10.4018 35.2607 10.5238C34.8639 10.5238 34.2542 10.4928 33.8883 10.158C33.6754 9.97407 33.5825 9.67018 33.5825 9.33338C33.5825 8.32687 34.0103 6.98549 34.0703 6.80161L34.8019 6.89258C35.7175 6.40481 36.0523 5.94607 36.0833 5.88606C35.3207 5.97704 34.3142 6.16092 34.3142 6.16092C34.3761 6.00801 34.558 5.42926 34.558 4.78857C34.558 4.08595 34.3451 3.32525 33.4606 2.86651L33.3986 2.89748C33.4296 2.92845 33.9174 3.47623 33.9174 4.20983C33.9174 4.42274 33.8864 4.66663 33.7954 4.88148C33.4896 4.79051 33.3076 4.75954 32.9708 4.75954C32.7889 4.14982 32.2702 3.66205 31.5675 3.41816L31.5366 3.44913C31.5366 3.44913 32.2992 3.99884 32.3302 4.76147C31.9643 4.79244 31.7514 4.85245 31.2927 4.97439C31.0798 4.66857 30.652 4.42468 30.0732 4.36467V4.42661C30.0732 4.42661 30.7449 4.63953 30.8668 5.15827C30.47 5.34216 29.9823 5.61508 29.7074 5.8609L29.7384 5.89187C31.4456 5.25118 33.0328 5.09827 33.4296 5.58604C33.5206 5.67702 33.5515 5.76993 33.5515 5.89187C33.5515 6.01381 33.4896 6.1977 33.3676 6.37964C32.545 6.56353 31.2636 6.89839 30.2261 7.29519L30.3791 7.72296C30.3791 7.72296 31.4165 7.93587 31.8133 8.02878C31.8133 8.02297 31.9643 8.05201 31.8734 8.17395ZM12.9141 28.8966C12.9141 28.8966 13.4657 29.0979 14.0851 29.0979C14.7548 29.0979 15.1555 28.9972 15.3897 28.763C15.5736 28.5791 15.6568 28.2617 15.6413 27.7778V24.6344H16.6285V27.9288C16.6111 29.3824 15.9104 30.0018 14.2709 30.0018C13.4676 30.0018 12.916 29.8683 12.916 29.8683L12.9141 28.8966ZM19.5009 25.5867C21.0727 25.5867 21.9921 26.4229 21.9921 27.8262C21.9921 28.8288 21.3398 29.9999 19.5009 29.9999C17.6447 29.9999 16.9924 28.8288 16.9924 27.8262C16.9924 26.4209 17.9292 25.5867 19.5009 25.5867ZM21.0223 27.7759C21.0223 26.9242 20.4707 26.4384 19.5009 26.4384C18.5312 26.4384 17.9621 26.9242 17.9621 27.7759C17.9621 28.9624 18.9319 29.1308 19.5009 29.1308C20.07 29.1308 21.0223 28.9624 21.0223 27.7759ZM25.9214 25.6854V27.3578H23.3973V25.6854H22.4276V29.8992H23.3973V28.2114H25.9214V29.8992H26.9085V25.6854H25.9214ZM40.5991 29.0301V28.2114H42.8386V27.3597H40.5991V26.5409H43.4909V25.6893H39.6119V29.9031H43.4909V29.034H40.5991V29.0301ZM44.9813 29.0301V28.2114H47.2208V27.3597H44.9813V26.5409H47.8905V25.6893H44.0116V29.9031H47.8905V29.034H44.9813V29.0301ZM54.1754 29.0301V28.2114H56.4149V27.3597H54.1754V26.5409H57.0847V25.6893H53.2057V29.9031H57.0847V29.034H54.1754V29.0301ZM36.2865 25.5015C37.5563 25.5015 38.2938 26.1364 38.2938 27.2397C38.2938 28.794 37.0395 29.0282 36.2865 29.0282H34.8987V25.5015H36.2865ZM36.2865 24.6324H33.929V29.8992H36.2865C38.4931 29.8992 39.2616 28.494 39.2616 27.3074C39.2616 25.6351 38.1428 24.6324 36.2865 24.6324ZM51.6669 28.2946C52.4198 28.1107 52.687 27.5417 52.687 27.0403C52.687 26.1887 52.1353 25.6873 51.183 25.6873H48.4247V29.8992H49.3945V28.3604H50.5481L51.7192 29.8992H52.9057L51.6669 28.2946ZM49.3945 27.4913V26.539H51.183C51.5159 26.539 51.7172 26.7229 51.7172 27.0074C51.7172 27.4255 51.3824 27.4933 51.183 27.4933L49.3945 27.4913ZM31.0043 29.8992L28.4628 27.0229V29.8992H27.4931V25.6854H28.4628L31.0043 28.5269V25.6854H31.974V29.8992H31.0043Z" fill="#E6E7F5"/>
</g>
</g>
</g>
<defs>
<clipPath id="clip0_10196_953">
<rect width="70" height="30" fill="white"/>
</clipPath>
<clipPath id="clip1_10196_953">
<rect width="70" height="30" fill="white"/>
</clipPath>
<clipPath id="clip2_10196_953">
<rect width="44.1706" height="30" fill="white" transform="translate(12.9141)"/>
</clipPath>
</defs>
</svg>
