<svg width="146" height="97" viewBox="0 0 146 97" fill="none" xmlns="http://www.w3.org/2000/svg">
<g clip-path="url(#clip0_11091_17530)">
<path d="M74.222 0.0002C85.533 0.0002 97.057 2.4364 107.886 7.674C111.707 16.8302 113.453 26.256 113.453 35.455C113.453 44.6275 111.73 53.947 107.906 63.189C97.035 68.452 85.55 70.865 74.225 70.865C62.906 70.865 51.426 68.452 40.543 63.189C36.719 53.948 35 44.628 35 35.455C35 26.2562 36.7412 16.83 40.565 7.674C51.396 2.4362 62.923 0 74.225 0" fill="#247218"/>
<path d="M42.9081 60.9833C39.7469 53.0595 38.0156 44.4473 38.0156 35.4543C38.0156 26.4405 39.7494 17.8183 42.9256 9.87534C52.3344 5.46654 63.0446 2.99414 74.2156 2.99414C85.3906 2.99414 96.1076 5.46664 105.51 9.87534C108.685 17.8178 110.421 26.4403 110.421 35.4543C110.421 44.4468 108.695 53.0593 105.53 60.9833C96.1221 65.3983 85.4006 67.8721 74.2156 67.8721C63.0366 67.8721 52.3161 65.3983 42.9081 60.9833Z" fill="#FCDF17"/>
<path d="M103.738 59.3285C101.761 56.0735 99.1047 53.4447 99.076 53.4197C99.0434 53.4034 98.5235 53.2422 98.5235 53.2422C92.886 51.5097 89.1909 50.2072 87.5574 49.361C85.3099 48.1935 82.9487 45.3598 82.6887 45.041C80.0537 44.8422 77.8737 44.8847 75.7762 45.1385L74.4399 45.3122C71.8924 45.641 69.2625 45.9885 66.685 45.5747C64.9688 45.2935 63.3025 44.7472 61.5362 44.1722C58.815 43.281 56.0273 42.366 52.8424 42.371H52.7149L52.7699 42.4835C53.4936 43.891 56.3524 48.1623 59.9324 49.336C60.7224 49.526 61.2936 49.736 61.5412 49.9298C61.5412 49.9385 62.9111 52.726 63.285 53.4798C61.0574 52.4686 54.1675 48.9648 48.609 42.2008V42.1908C48.609 42.1008 48.4652 40.7846 48.4352 40.497C51.7452 39.262 59.1992 38.5458 60.0392 38.4658L60.1005 38.4608L60.1267 38.3933C60.5717 34.4721 61.5005 31.3345 63.2405 27.8983C63.2905 27.7945 63.3205 27.6995 63.3205 27.617C63.3205 27.557 63.303 27.4958 63.278 27.447C63.1805 27.262 62.9418 27.2258 62.9318 27.2258C62.9318 27.2258 58.1193 26.3858 57.8593 26.3408C57.8318 26.2558 57.353 24.787 57.3118 24.6646C60.968 23.3046 65.4755 22.0321 68.0557 21.4721C68.492 20.7758 68.6145 20.3971 68.6145 19.9421C68.6145 19.5558 68.4282 19.2271 68.0557 18.9746C66.2269 17.7346 60.467 18.4808 54.6398 20.7158C54.6273 20.692 54.6273 20.687 54.6098 20.662C55.8198 19.757 57.9823 18.412 59.586 17.667L59.6485 17.632L59.6297 17.572C59.1947 16.0982 56.3485 14.9708 56.0285 14.8558C56.0347 14.8058 56.0398 14.7721 56.0448 14.7333C58.9386 14.5358 60.8586 15.8895 61.4448 16.8545L61.4748 16.902L61.5322 16.8833C61.9035 16.7633 63.2111 16.3483 64.6261 16.1808L64.7085 16.177L64.6861 16.0907C64.2211 13.6119 61.8548 11.9569 61.0485 11.4582C61.071 11.4182 61.0786 11.4032 61.1011 11.3745C63.8949 11.5907 66.4761 13.997 67.0573 16.0307L67.0735 16.0857L67.131 16.0907C67.881 16.1169 68.791 16.2007 69.3998 16.3032L69.4623 16.3132L69.4848 16.2607C69.7123 15.7269 69.8236 15.1569 69.8236 14.5707C69.8236 12.7395 68.7886 10.7757 67.5161 9.53448C67.5411 9.49948 67.5523 9.46698 67.5848 9.43698C71.2548 10.8295 72.1886 13.4745 72.1886 15.937C72.1886 17.6608 71.7311 19.302 71.4361 20.3482L71.3124 20.7819C71.3124 20.7819 76.7174 20.1294 77.0824 20.0857C76.5324 20.7819 75.3473 22.0219 72.9811 23.3282C72.9811 23.3157 70.5424 23.0169 70.5424 23.0169L70.4786 23.0069L70.4574 23.0694C70.2936 23.5732 68.8662 28.0832 68.8586 31.3982C68.8586 32.627 69.206 33.5807 69.8923 34.2382C71.1148 35.4144 73.1398 35.4794 74.5548 35.4244C80.571 35.2044 85.2659 35.5744 88.5238 36.5382L88.7164 36.5907L88.7464 36.5457C88.9489 36.2345 89.1076 35.657 89.1076 34.8919C89.1076 33.4394 88.5264 31.2744 86.5714 28.8257C86.5927 28.8082 86.5927 28.7957 86.6177 28.777C86.9414 28.9557 92.2188 31.9532 92.9239 36.4782C92.8001 36.5257 90.3951 37.507 90.3951 37.507L90.4725 37.5857C92.7025 39.9207 93.4725 42.7419 94.09 45.0007C94.5813 46.7907 95.1676 47.9345 95.9451 48.6057C96.8463 49.3832 100.261 51.0132 101.286 51.4919C102.139 52.7031 103.604 54.9731 104.666 56.7307V56.727C106.974 49.8795 108.154 42.742 108.154 35.455C108.154 27.2188 106.651 19.177 103.714 11.529C94.6201 7.42283 84.4388 5.24023 74.2148 5.24023C63.9898 5.24023 53.8198 7.42273 44.7238 11.529C41.7826 19.1778 40.2812 27.219 40.2812 35.455C40.2812 43.6712 41.7801 51.695 44.7063 59.34C53.8038 63.4525 63.9852 65.625 74.2152 65.625C84.4502 65.625 94.6312 63.4525 103.727 59.34L103.74 59.3288L103.738 59.3285Z" fill="url(#paint0_radial_11091_17530)"/>
<path d="M0 93.1539C0 93.1539 1.7821 93.7905 3.7775 93.7905C5.9011 93.7905 7.2274 93.5001 7.9683 92.7526C8.58226 92.1373 8.82745 91.1081 8.79356 89.5911V79.4961H11.9372V90.0281C11.8912 94.6911 9.62356 96.6811 4.34836 96.6811C1.78686 96.6811 0.00016 96.2771 0.00016 96.2771L0 93.1539Z" fill="#247218"/>
<path d="M21.8489 93.9196C20.015 93.9196 16.9292 93.3522 16.9292 89.5654C16.9292 86.8497 18.7232 85.2909 21.8489 85.2909C24.9745 85.2909 26.7633 86.8497 26.7633 89.5654C26.7633 93.3522 23.6868 93.9196 21.8489 93.9196ZM13.7969 89.7096C13.7969 92.9236 15.9066 96.6798 21.8489 96.6798C27.7938 96.6798 29.9042 92.9236 29.9042 89.7096C29.9042 85.2119 26.8929 82.5234 21.8489 82.5234C16.8083 82.5234 13.7969 85.2118 13.7969 89.7096Z" fill="#247218"/>
<path d="M43.0596 82.8457V88.2239H34.8954V82.8457H31.7578V96.3657H34.8954V90.9882H43.0596V96.3657H46.1952V82.8457H43.0596Z" fill="#247218"/>
<path d="M91.0501 93.5986V90.9886H98.2881V88.2238H91.0501V85.6138H100.407V82.8457H87.9141V96.3657H100.407V93.5982L91.0501 93.5986Z" fill="#247218"/>
<path d="M76.7041 79.4805C82.7142 79.4805 86.3076 82.6879 86.3076 88.0448C86.3076 91.8874 83.7913 96.3659 76.7041 96.3659H72.7472H69.1172V79.4809H72.7472L76.7041 79.4805ZM72.2668 82.273V93.581H76.7041C79.1114 93.581 83.15 92.8388 83.15 87.8739C83.15 84.3111 80.8011 82.2731 76.7041 82.2731L72.2668 82.273Z" fill="#247218"/>
<path d="M126.134 88.6593C126.784 88.6593 127.87 88.454 127.87 87.1171C127.87 86.1589 127.238 85.6134 126.134 85.6134H120.401V88.652L126.134 88.6593ZM131.492 96.3657H127.699L123.916 91.4175H120.231V96.3657H117.094V82.8457H125.964C129.018 82.8457 130.837 84.469 130.837 87.1846C130.837 88.8125 129.929 90.6418 127.548 91.2126L131.492 96.3657Z" fill="#247218"/>
<path d="M60.0459 96.3657L51.8856 87.1496V96.3657H48.75V82.8457H51.861L60.0458 91.9701V82.8457H63.1867V96.3657H60.0459Z" fill="#247218"/>
<path d="M105.644 93.5986V90.9886H112.882V88.2238H105.644V85.6138H115.001V82.8457H102.508V96.3657H115.001V93.5982L105.644 93.5986Z" fill="#247218"/>
<path d="M136.058 93.5986V90.9886H143.296V88.2238H136.058V85.6138H145.415V82.8457H132.922V96.3657H145.415V93.5982L136.058 93.5986Z" fill="#247218"/>
</g>
<defs>
<radialGradient id="paint0_radial_11091_17530" cx="0" cy="0" r="1" gradientTransform="matrix(-1.29794 -35.9697 -36.8711 1.33063 75.8042 30.2675)" gradientUnits="userSpaceOnUse">
<stop stop-color="#5AAD35"/>
<stop offset="0.67532" stop-color="#438E2F"/>
<stop offset="1" stop-color="#2C702A"/>
</radialGradient>
<clipPath id="clip0_11091_17530">
<rect width="145.42" height="96.681" fill="white"/>
</clipPath>
</defs>
</svg>
