<svg width="115" height="20" viewBox="0 0 115 20" fill="none" xmlns="http://www.w3.org/2000/svg">
<g clip-path="url(#clip0_11091_17280)">
<path d="M106.246 8.58219L111.246 8.66195L105.372 11.8193L106.246 8.58219ZM102.11 7.8231L106.719 3.37705L105.734 7.8231H102.11ZM114.827 7.8231H106.449L108.522 0.144531L101.393 7.8231H67.9497C67.9497 7.8231 67.8249 7.82124 67.8282 7.89683C67.8291 7.95016 67.8801 7.96917 67.9497 7.96917L100.769 8.49409L96.6561 12.9248C96.6561 12.9248 96.5787 12.9953 96.6269 13.0375C96.6579 13.0658 96.702 13.0468 96.746 13.0004L101.404 8.50429L105.567 8.57153L104.778 12.1388L91.3188 19.3695C91.3188 19.3695 91.2172 19.4154 91.258 19.4752C91.2836 19.5146 91.3332 19.5081 91.3786 19.4868L104.606 12.9063L103.11 19.6667C103.11 19.6667 103.073 19.7771 103.141 19.7914C103.198 19.8026 103.224 19.7664 103.242 19.7084L105.151 12.6359L114.827 7.8231Z" fill="#003478"/>
<path d="M0.954617 10.3457H2.41391L1.84123 13.0394H3.18367L2.97222 14.0289H0.171875L0.954617 10.3457Z" fill="#003478"/>
<path d="M5.97675 12.1868C5.73237 13.3354 6.19701 14.1256 7.46711 14.1256C8.73721 14.1256 9.5385 13.3354 9.78241 12.1868C10.0263 11.0391 9.56215 10.248 8.29112 10.248C7.02149 10.248 6.2202 11.0391 5.97675 12.1868ZM7.48612 12.1868C7.66372 11.3558 7.85338 11.2079 8.08755 11.2079C8.32266 11.2079 8.44971 11.3558 8.27211 12.1868C8.09173 13.0391 7.89558 13.1666 7.67114 13.1666C7.44624 13.1666 7.30574 13.0391 7.48612 12.1868Z" fill="#003478"/>
<path d="M16.0424 12.6663C15.8267 13.6823 14.9216 14.1256 14.0081 14.1256C12.7171 14.1256 12.2877 13.3401 12.5358 12.1724C12.7435 11.0243 13.5917 10.248 14.8372 10.248C15.7655 10.248 16.4718 10.6255 16.2464 11.7083H14.9095C14.9786 11.2886 14.8423 11.2079 14.6638 11.2079C14.2863 11.2079 14.1681 11.5947 14.0424 12.1868C13.9232 12.7484 13.8653 13.1666 14.232 13.1666C14.4217 13.1666 14.5724 13.0549 14.6749 12.6663H16.0424Z" fill="#003478"/>
<path d="M19.7441 10.3457H21.1719L20.8362 11.927H20.8455L21.9324 10.3457H23.4733L22.1197 12.08L22.8278 14.0289H21.2466L20.7509 12.3763H20.7407L20.3896 14.0289H18.9609L19.7441 10.3457Z" fill="#003478"/>
<path d="M28.1439 12.6726H27.5216L27.2332 14.0294H25.7734L26.5566 10.3457H28.015L27.7516 11.5903H28.3735L28.6382 10.3457H30.0971L29.3148 14.0294H27.8555L28.1439 12.6726Z" fill="#003478"/>
<path d="M33.502 10.3457H36.3032L36.0992 11.3056H34.696L34.6121 11.6974H35.9081L35.7046 12.6559H34.4085L34.3209 13.0705H35.7695L35.5664 14.0289H32.7188L33.502 10.3457Z" fill="#003478"/>
<path d="M39.7901 10.3457H42.5914L42.3878 11.3056H40.9846L40.9007 11.6974H42.1967L41.9927 12.6559H40.6971L40.6095 13.0705H42.0586L41.8545 14.0289H39.0078L39.7901 10.3457Z" fill="#003478"/>
<path d="M45.3125 14.0289H47.1275C48.2608 14.0289 49.1321 13.3403 49.3681 12.2284C49.6 11.1359 49.2985 10.3457 47.8244 10.3457H46.0943L45.3125 14.0289ZM47.3454 11.1818H47.4892C47.7229 11.1818 47.842 11.2689 47.9028 11.4173C47.9677 11.5699 47.9427 11.8305 47.8666 12.1866C47.7901 12.5442 47.7048 12.8043 47.5754 12.9573C47.4516 13.1048 47.2958 13.192 47.0611 13.192H46.9183L47.3454 11.1818Z" fill="#003478"/>
<path d="M59.0513 11.3969H59.0411L57.9607 14.0294H56.6252L56.6641 11.3969H56.6539L56.0947 14.0294H54.8594L55.6421 10.3457H57.6681L57.6045 12.5404H57.6147L58.4837 10.3457H60.5097L59.7265 14.0294H58.4921L59.0513 11.3969Z" fill="#003478"/>
<path d="M62.7031 14.0289H64.1021L64.3743 13.4373H65.4302L65.4478 14.0289H66.9577L66.5566 10.3457H64.6641L62.7031 14.0289ZM64.7856 12.54L65.401 11.1516H65.4112L65.4079 12.54H64.7856Z" fill="#003478"/>
<path d="M70.1875 14.0289H71.6162L71.894 12.7176H72.0637C72.2983 12.7176 72.3739 12.7895 72.366 12.9726C72.3493 13.2893 72.2965 13.7535 72.3243 14.0289H73.7534C73.7038 13.473 73.823 12.9536 73.8091 12.6369C73.7979 12.3554 73.637 12.1978 73.2879 12.1667L73.2888 12.157C73.868 12.0243 74.1156 11.7021 74.2046 11.2792C74.3535 10.5859 73.9394 10.3457 73.1478 10.3457H70.9702L70.1875 14.0289ZM72.0716 11.881L72.2209 11.1818H72.353C72.6396 11.1818 72.8149 11.2388 72.7578 11.5087C72.7003 11.7841 72.4754 11.881 72.1944 11.881H72.0716Z" fill="#003478"/>
<path d="M78.3762 11.3353H77.4688L77.6797 10.3457H80.9545L80.7439 11.3353H79.8355L79.2633 14.0289H77.804L78.3762 11.3353Z" fill="#003478"/>
<path d="M84.2984 10.3457H85.7595L84.9754 14.0289H83.5156L84.2984 10.3457Z" fill="#003478"/>
<path d="M89.3149 10.3457H91.0636L91.371 12.5752H91.3807L91.8547 10.3457H93.039L92.2548 14.0289H90.5057L90.2029 11.7846H90.1913L89.7142 14.0289H88.5312L89.3149 10.3457Z" fill="#003478"/>
</g>
<defs>
<clipPath id="clip0_11091_17280">
<rect width="115" height="19.9395" fill="white"/>
</clipPath>
</defs>
</svg>
