<svg width="70" height="30" viewBox="0 0 70 30" fill="none" xmlns="http://www.w3.org/2000/svg">
<g clip-path="url(#clip0_10196_702)">
<g clip-path="url(#clip1_10196_702)">
<g clip-path="url(#clip2_10196_702)">
<path fill-rule="evenodd" clip-rule="evenodd" d="M64.8737 13.7072L66.1401 9.01074L61.7812 13.7072L41.4432 13.6986C41.3163 13.7014 41.325 13.7649 41.4346 13.7649C41.5096 13.762 61.4119 14.1082 61.4119 14.1082C59.8137 15.8304 58.931 16.7824 58.9079 16.8055C58.8444 16.869 58.8964 16.9209 58.9771 16.843C58.9771 16.843 60.1426 15.7468 61.7927 14.114L64.3342 14.1572C64.1669 14.8813 64.0256 15.5795 63.8467 16.3555C60.7167 18.0489 55.674 20.7635 55.674 20.7635C55.6019 20.801 55.625 20.85 55.6856 20.8212C55.7173 20.8212 60.4368 18.4181 63.7573 16.7507C63.4371 18.1412 63.1313 19.5374 62.8399 20.9337C62.837 21 62.8889 21.0029 62.8889 20.9539C62.9034 20.9337 63.3909 19.2086 64.0977 16.5834C67.0661 15.0948 70 13.7072 70 13.7072H64.8737ZM62.2139 13.7072C63.7544 12.1812 65.0237 10.9868 65.0237 10.9868C65.0237 10.9868 64.8131 12.0283 64.4294 13.7072H62.2139L64.7467 14.163L67.8104 14.2092C67.8104 14.2092 66.2728 15.0602 64.2044 16.1766C64.3919 15.4785 64.5592 14.8554 64.7467 14.163L62.2139 13.7072ZM0.487533 15.2217H1.39048L1.03565 16.8921H1.86936L1.73954 17.5065H0L0.487533 15.2217ZM4.98784 15.1612C4.20029 15.1612 3.7041 15.6516 3.55121 16.3641C3.4012 17.0767 3.68679 17.5671 4.47723 17.5671C5.26478 17.5671 5.76097 17.0767 5.91387 16.3641C6.06388 15.6516 5.7754 15.1612 4.98784 15.1612ZM4.9763 16.3641C4.8638 16.8921 4.74263 16.9728 4.60416 16.9728C4.46569 16.9728 4.37626 16.8921 4.48877 16.3641C4.59839 15.8477 4.71667 15.7583 4.86091 15.7583C5.00804 15.7554 5.08593 15.8477 4.9763 16.3641ZM9.7074 16.6613C9.5747 17.2902 9.01216 17.5671 8.44673 17.5671C7.64764 17.5671 7.37935 17.0796 7.53513 16.3555C7.66495 15.6429 8.18999 15.164 8.96312 15.164C9.54008 15.164 9.97569 15.3977 9.83721 16.0699H9.00927C9.05254 15.8102 8.96889 15.7612 8.85638 15.7612C8.62271 15.7612 8.5477 16.0006 8.46981 16.367C8.39481 16.7161 8.36019 16.9757 8.58809 16.9757C8.70637 16.9757 8.79868 16.9065 8.86215 16.6642L9.7074 16.6613ZM11.9691 15.2217H12.8547L12.647 16.2026H12.6528L13.3278 15.2217H14.2798L13.4403 16.2978L13.8788 17.5065H12.898L12.5922 16.4824H12.5864L12.3701 17.5065H11.4816L11.9691 15.2217ZM17.1214 16.6642H16.7348L16.5559 17.5065H15.6501L16.1348 15.2217H17.0406L16.8762 15.992H17.2627L17.4272 15.2217H18.333L17.8483 17.5065H16.9425L17.1214 16.6642ZM20.3697 15.2217H22.1063L21.9794 15.816H21.1082L21.0563 16.0612H21.8611L21.7342 16.6555H20.9322L20.8774 16.9122H21.7775L21.6505 17.5065H19.885L20.3697 15.2217ZM24.2007 15.2217H25.9374L25.8104 15.816H24.9392L24.8873 16.0612H25.6921L25.5652 16.6555H24.7604L24.7055 16.9122H25.6056L25.4787 17.5065H23.7132L24.2007 15.2217ZM29.1078 15.2217H28.0346L27.55 17.5065H28.6779C29.3789 17.5065 29.9213 17.0796 30.0655 16.3872C30.2098 15.7122 30.0223 15.2217 29.1078 15.2217ZM29.1337 16.3641C29.0876 16.5863 29.0328 16.7478 28.952 16.843C28.8741 16.9382 28.7558 16.993 28.6318 16.9873H28.5423L28.8077 15.741H28.8972C29.0443 15.741 29.1164 15.7958 29.1539 15.8853C29.1972 15.9805 29.1828 16.142 29.1337 16.3641ZM35.988 15.8737H35.9823L35.313 17.5065H34.4851L34.5081 15.8737H34.5024L34.1533 17.5065H33.3888L33.8735 15.2217H35.1284L35.0909 16.5834H35.0966L35.6361 15.2217H36.8939L36.4092 17.5065H35.6419L35.988 15.8737ZM40.5461 15.2217H39.3719L38.1545 17.5065H39.02L39.1902 17.1401H39.845L39.8566 17.5065H40.7941L40.5461 15.2217ZM39.8335 16.5834H39.4498L39.8306 15.7208H39.8393L39.8335 16.5834Z" fill="#E6E7F5"/>
<path fill-rule="evenodd" clip-rule="evenodd" d="M44.573 15.2217H43.2229L42.7383 17.5065H43.6239L43.797 16.6929H43.9009C44.0451 16.6929 44.0884 16.7362 44.0797 16.8516C44.0797 17.0478 44.048 17.3362 44.0653 17.5065H44.9509C44.9192 17.1603 44.9856 16.8372 44.9769 16.6439C44.9769 16.4679 44.8788 16.3698 44.6596 16.3525L44.6625 16.3468C45.0202 16.266 45.1759 16.064 45.2308 15.8015C45.3202 15.3688 45.0634 15.2217 44.573 15.2217ZM44.3307 15.9429C44.2932 16.1131 44.1547 16.1737 43.9816 16.1737H43.9066L43.9989 15.7409H44.0826C44.2586 15.7409 44.3682 15.7756 44.3307 15.9429ZM47.7405 15.8361H47.178L47.3078 15.2217H49.3416L49.2118 15.8361H48.6493L48.2944 17.5065H47.3886L47.7405 15.8361ZM51.3494 15.2217H52.2553L51.7677 17.5065H50.8619L51.3494 15.2217ZM54.4189 15.2217H55.5036L55.694 16.6035H55.7026L55.9969 15.2217H56.7296L56.245 17.5065H55.1603L54.9728 16.1131H54.967L54.6699 17.5065H53.9342L54.4189 15.2217Z" fill="#E6E7F5"/>
</g>
</g>
</g>
<defs>
<clipPath id="clip0_10196_702">
<rect width="70" height="30" fill="white"/>
</clipPath>
<clipPath id="clip1_10196_702">
<rect width="70" height="30" fill="white"/>
</clipPath>
<clipPath id="clip2_10196_702">
<rect width="70" height="11.9777" fill="white" transform="translate(0 9.01074)"/>
</clipPath>
</defs>
</svg>
