<svg width="180" height="120" viewBox="0 0 180 120" fill="none" xmlns="http://www.w3.org/2000/svg">
<g clip-path="url(#clip0_11105_18626)">
<g clip-path="url(#clip1_11105_18626)">
<path fill-rule="evenodd" clip-rule="evenodd" d="M149.747 57.4164L152.28 48.0234L143.562 57.4164L102.886 57.3991C102.633 57.4049 102.65 57.5318 102.869 57.5318C103.019 57.526 142.824 58.2184 142.824 58.2184C139.627 61.6628 137.862 63.5668 137.816 63.613C137.689 63.7399 137.793 63.8438 137.954 63.688C137.954 63.688 140.285 61.4955 143.585 58.2299L148.668 58.3165C148.334 59.7646 148.051 61.1609 147.693 62.7129C141.433 66.0997 131.348 71.5289 131.348 71.5289C131.204 71.6039 131.25 71.702 131.371 71.6443C131.435 71.6443 140.874 66.8382 147.515 63.5033C146.874 66.2843 146.263 69.0768 145.68 71.8693C145.674 72.002 145.778 72.0078 145.778 71.9097C145.807 71.8693 146.782 68.4191 148.195 63.1687C154.132 60.1916 160 57.4164 160 57.4164H149.747ZM144.428 57.4164C147.509 54.3643 150.047 51.9756 150.047 51.9756C150.047 51.9756 149.626 54.0585 148.859 57.4164H144.428L149.494 58.328L155.621 58.4203C155.621 58.4203 152.546 60.1223 148.409 62.3552C148.784 60.9589 149.118 59.7127 149.494 58.328L144.428 57.4164ZM20.9751 60.4454H22.781L22.0713 63.7861H23.7387L23.4791 65.015H20L20.9751 60.4454ZM29.9757 60.3243C28.4006 60.3243 27.4082 61.3051 27.1024 62.7302C26.8024 64.1553 27.3736 65.1362 28.9545 65.1362C30.5296 65.1362 31.5219 64.1553 31.8277 62.7302C32.1278 61.3051 31.5508 60.3243 29.9757 60.3243ZM29.9526 62.7302C29.7276 63.7861 29.4853 63.9476 29.2083 63.9476C28.9314 63.9476 28.7525 63.7861 28.9775 62.7302C29.1968 61.6975 29.4333 61.5186 29.7218 61.5186C30.0161 61.5128 30.1719 61.6975 29.9526 62.7302ZM39.4148 63.3245C39.1494 64.5823 38.0243 65.1362 36.8935 65.1362C35.2953 65.1362 34.7587 64.1611 35.0703 62.7129C35.3299 61.2878 36.38 60.3301 37.9262 60.3301C39.0802 60.3301 39.9514 60.7974 39.6744 62.1417H38.0185C38.1051 61.6224 37.9378 61.5244 37.7128 61.5244C37.2454 61.5244 37.0954 62.0032 36.9396 62.736C36.7896 63.4341 36.7204 63.9534 37.1762 63.9534C37.4127 63.9534 37.5974 63.8149 37.7243 63.3303L39.4148 63.3245ZM43.9382 60.4454H45.7095L45.294 62.4071H45.3056L46.6557 60.4454H48.5597L46.8807 62.5975L47.7577 65.015H45.796L45.1844 62.9668H45.1729L44.7402 65.015H42.9631L43.9382 60.4454ZM54.2427 63.3303H53.4696L53.1119 65.015H51.3002L52.2695 60.4454H54.0812L53.7523 61.9859H54.5255L54.8543 60.4454H56.666L55.6967 65.015H53.885L54.2427 63.3303ZM60.7393 60.4454H64.2127L63.9588 61.634H62.2164L62.1125 62.1244H63.7222L63.4684 63.3129H61.8644L61.7548 63.8264H63.5549L63.3011 65.015H59.77L60.7393 60.4454ZM68.4014 60.4454H71.8747L71.6209 61.634H69.8784L69.7746 62.1244H71.3843L71.1304 63.3129H69.5207L69.4111 63.8264H71.2112L70.9573 65.015H67.4263L68.4014 60.4454ZM78.2155 60.4454H76.0692L75.0999 65.015H77.3559C78.7579 65.015 79.8426 64.1611 80.1311 62.7764C80.4195 61.4263 80.0445 60.4454 78.2155 60.4454ZM78.2675 62.7302C78.1752 63.1745 78.0655 63.4976 77.904 63.688C77.7482 63.8784 77.5116 63.988 77.2635 63.9765H77.0847L77.6155 61.484H77.7944C78.0886 61.484 78.2328 61.5936 78.3079 61.7725C78.3944 61.9629 78.3655 62.286 78.2675 62.7302ZM91.9761 61.7494H91.9646L90.626 65.015H88.9701L89.0163 61.7494H89.0047L88.3066 65.015H86.7777L87.747 60.4454H90.2567L90.1817 63.1687H90.1933L91.2722 60.4454H93.7878L92.8185 65.015H91.2837L91.9761 61.7494ZM101.092 60.4454H98.7439L96.3091 65.015H98.04L98.3804 64.2822H99.6901L99.7132 65.015H101.588L101.092 60.4454ZM99.667 63.1687H98.8997L99.6612 61.4436H99.6786L99.667 63.1687Z" fill="#003478"/>
<path fill-rule="evenodd" clip-rule="evenodd" d="M109.146 60.4453H106.446L105.477 65.0149H107.248L107.594 63.3878H107.802C108.09 63.3878 108.177 63.4744 108.159 63.7052C108.159 64.0975 108.096 64.6744 108.131 65.0149H109.902C109.838 64.3225 109.971 63.6763 109.954 63.2897C109.954 62.9378 109.758 62.7416 109.319 62.707L109.325 62.6955C110.04 62.5339 110.352 62.13 110.462 61.605C110.64 60.7396 110.127 60.4453 109.146 60.4453ZM108.661 61.8877C108.586 62.2281 108.309 62.3493 107.963 62.3493H107.813L107.998 61.4838H108.165C108.517 61.4838 108.736 61.5531 108.661 61.8877ZM115.481 61.6742H114.356L114.616 60.4453H118.683L118.424 61.6742H117.299L116.589 65.0149H114.777L115.481 61.6742ZM122.699 60.4453H124.511L123.535 65.0149H121.724L122.699 60.4453ZM128.838 60.4453H131.007L131.388 63.209H131.405L131.994 60.4453H133.459L132.49 65.0149H130.321L129.946 62.2281H129.934L129.34 65.0149H127.868L128.838 60.4453Z" fill="#003478"/>
</g>
</g>
<defs>
<clipPath id="clip0_11105_18626">
<rect width="140" height="60" fill="white" transform="translate(20 30)"/>
</clipPath>
<clipPath id="clip1_11105_18626">
<rect width="140" height="23.9555" fill="white" transform="translate(20 48.0234)"/>
</clipPath>
</defs>
</svg>
