<svg width="156" height="33" viewBox="0 0 156 33" fill="none" xmlns="http://www.w3.org/2000/svg">
<g clip-path="url(#clip0_10522_33277)">
<path d="M36.5547 8.16504H40.6837L42.5913 18.78L45.4146 8.16504H49.001L52.3585 19.0089L54.3424 8.16504H58.2425L54.885 24.1299H50.3745L47.3986 14.2017L44.3464 24.1299H39.6069L36.5547 8.16504Z" fill="white"/>
<path d="M155.578 24.1299H151.449L149.542 13.4386L146.718 24.1299H143.132L139.775 13.286L137.791 24.1299H133.891L137.248 8.16504H141.759L144.735 18.0933L147.787 8.16504H152.526L155.578 24.1299Z" fill="white"/>
<path d="M66.8836 7.85938C72.0809 7.85938 74.7516 10.9879 74.7516 16.1089C74.7516 21.2298 72.0046 24.3584 66.8836 24.3584C61.7626 24.3584 59.0156 21.1535 59.0156 16.1089C59.0156 10.9879 61.6863 7.85938 66.8836 7.85938ZM66.8836 21.2298C69.4017 21.2298 70.47 18.7881 70.47 16.1089C70.47 13.4297 69.478 10.9879 66.8836 10.9879C64.2892 10.9879 63.2972 13.2771 63.2972 16.1089C63.3735 18.7796 64.3655 21.2298 66.8836 21.2298Z" fill="white"/>
<path d="M77.1172 8.16504H81.3225V20.9166H87.817V24.0451H77.1257V8.16504H77.1172Z" fill="white"/>
<path d="M89.571 8.16473H100.11V11.1407H93.7678V14.6507H99.8044V17.6266H93.7678V24.0448H89.5625V8.15625L89.571 8.16473Z" fill="white"/>
<path d="M102.332 8.16504H109.819C112.642 8.16504 114.863 9.46224 114.863 12.2092C114.863 14.3458 113.871 15.7193 111.811 16.2534C113.185 16.635 113.261 17.8559 114.024 19.7635L115.55 24.1214H111.192L110.277 21.2218C109.437 18.4748 108.903 17.788 107.301 17.788H106.385V24.0536H102.18V8.16504H102.332ZM106.461 14.8121H107.53C108.903 14.8121 110.582 14.7358 110.582 12.9808C110.582 11.531 109.132 11.2257 107.53 11.2257H106.461V14.8121Z" fill="white"/>
<path d="M121.96 8.16504H127.081L133.118 24.1299H128.531L127.387 20.6961H121.502L120.282 24.1299H116L121.96 8.16504ZM124.555 11.4462L122.494 17.7117H126.471L124.563 11.4462H124.555Z" fill="white"/>
<path d="M27.3917 16.499L31.9785 11.378L25.2552 9.92823L25.9419 3.12854L19.6764 5.87554L16.2341 0L12.8004 5.88402L6.45851 3.12854L7.14526 9.92823L0.421875 11.378L5.0087 16.499L0.421875 21.62L7.14526 23.0698L6.45851 29.8695L12.7241 27.1225L16.1578 33.0065L19.5916 27.1225L25.8571 29.8695L25.1704 23.0698L31.8938 21.62L27.3832 16.499H27.3917ZM28.5363 19.7801L25.5604 18.7882L23.5001 16.1175L26.1708 17.1094L28.5363 19.7801ZM18.7607 26.122L16.853 29.3268V25.9694L18.837 23.1461L18.7607 26.122ZM14.3265 9.39409L11.1216 8.2495L9.2903 5.73141L12.6478 7.18122L14.3265 9.39409ZM19.829 7.25752L23.1864 5.80772L21.3551 8.3258L18.1502 9.47039L19.829 7.25752ZM23.8817 10.2334L22.2792 12.5226L22.3555 9.01256L24.2632 6.41816L23.8817 10.2334ZM16.2426 24.6722L13.7245 21.0095L16.2426 17.5758L18.7607 21.0095L16.2426 24.6722ZM11.5032 14.2098L11.3506 9.77561L15.5559 11.3017V15.6596L11.5032 14.2098ZM16.853 11.2339L21.0583 9.70779L20.9057 14.2183L16.853 15.5918V11.2339ZM8.52724 10.2419L8.14571 6.50295L10.0534 9.09734L10.1297 12.6074L8.52724 10.2419ZM15.1743 16.8127L12.6562 20.2465L8.37463 18.9493L11.1216 15.4392L15.1743 16.8127ZM13.5719 23.1546L15.5559 25.9779V29.3353L13.6482 26.1305L13.5719 23.1546ZM17.2346 16.8127L21.2873 15.4392L24.0343 18.9493L19.7527 20.2465L17.2346 16.8127ZM29.4605 12.2259L26.3319 15.7359L22.5845 14.3624L24.7973 11.1576L29.4605 12.2259ZM18.6166 6.64708L16.2511 9.69931L13.8856 6.64708L16.2511 2.52657L18.6166 6.64708ZM2.93997 12.1411L7.60309 11.1491L9.81596 14.354L6.0685 15.7275L2.93997 12.1411ZM6.29742 17.0331L8.96812 16.0412L6.83156 18.7882L3.77933 19.8565L6.29742 17.0331ZM4.08455 21.0773L7.21309 20.0091L10.5705 21.001L7.82353 21.8404L4.07607 21.0773H4.08455ZM8.44246 23.0613L12.2662 21.8404L12.3425 25.8846L7.98462 27.7922L8.44246 23.0528V23.0613ZM20.0579 25.8846L20.1342 21.8404L23.958 23.0613L24.4158 27.8007L20.0579 25.8931V25.8846ZM24.5684 21.9167L21.7451 21.001L25.1025 20.0091L28.2311 21.0773L24.5684 21.9167Z" fill="#DD1100"/>
</g>
<defs>
<clipPath id="clip0_10522_33277">
<rect width="156" height="32.9988" fill="white"/>
</clipPath>
</defs>
</svg>
