<svg width="665" height="670" viewBox="0 0 665 670" fill="none" xmlns="http://www.w3.org/2000/svg">
<g clip-path="url(#clip0_10521_31727)">
<mask id="mask0_10521_31727" style="mask-type:luminance" maskUnits="userSpaceOnUse" x="0" y="0" width="665" height="670">
<path d="M664.37 0H0V669.41H664.37V0Z" fill="white"/>
</mask>
<g mask="url(#mask0_10521_31727)">
<path d="M244.91 168.63L308.89 190.85L251.02 118.57L141.91 71.75L204.8 154.69L244.91 168.63Z" fill="#D71920"/>
<path d="M0 235.9L87.72 332.05L146.15 310.88L191.3 294.52L129.19 208.41L0 235.9Z" fill="#D71920"/>
<path d="M140.209 196.73L195.199 272.94L192.129 164.11L128.289 79.9199L140.209 196.73Z" fill="#D71920"/>
<path d="M332.181 0L265.551 111.44L332.181 194.66L398.851 111.46L332.181 0Z" fill="#D71920"/>
<path d="M499.381 258.06L473.051 294.53L576.631 332.11L664.371 235.98L535.201 208.46L499.381 258.06Z" fill="#D71920"/>
<path d="M472.22 164.11L469.15 272.96L524.17 196.76L536.13 79.9404L497.15 131.28L472.22 164.11Z" fill="#D71920"/>
<path d="M459.561 154.69L522.491 71.79L413.361 118.58L355.471 190.84L459.561 154.69Z" fill="#D71920"/>
<path d="M483.869 315.25L534.149 379.08L550.849 400.27L562.319 404.1L653.179 434.45L574.379 348.09L483.869 315.25Z" fill="#D71920"/>
<path d="M133.81 374.49L180.49 315.23L89.9704 348.02L11.1504 434.4L113.51 400.27L133.81 374.49Z" fill="#D71920"/>
<path d="M340.07 561.33V669.39L400.56 568.25L402.97 471.68L340.07 561.33Z" fill="#D71920"/>
<path d="M545.94 415.27L439.09 446.04L473.66 456.74L532.14 474.82L649.49 449.86L545.94 415.27Z" fill="#D71920"/>
<path d="M416.41 565.36L537.57 617.33L524.45 488.98L419.14 456.39L416.41 565.36Z" fill="#D71920"/>
<path d="M132.181 474.78L225.251 446.03L118.411 415.27L14.8809 449.8L132.181 474.78Z" fill="#D71920"/>
<path d="M261.879 492.37L263.759 568.23L324.279 669.41V561.33L261.369 471.67L261.879 492.37Z" fill="#D71920"/>
<path d="M245.211 456.39L139.871 488.93L126.721 617.3L247.891 565.35L245.211 456.39Z" fill="#D71920"/>
<path d="M340.07 329.71L452.79 292.62L456.19 172.57L340.07 212.9V329.71Z" fill="#D71920"/>
<path d="M211.56 292.62L324.28 329.71V212.9L208.17 172.57L211.56 292.62Z" fill="#D71920"/>
<path d="M332.18 545.09L401.75 445.94L332.18 353.73L262.6 445.94L332.18 545.09Z" fill="#D71920"/>
<path d="M345.131 344.68L414.551 436.68L532.651 402.67L457.761 307.6L345.131 344.68Z" fill="#D71920"/>
<path d="M249.809 436.68L319.229 344.68L206.589 307.6L131.699 402.67L249.809 436.68Z" fill="#D71920"/>
</g>
</g>
<defs>
<clipPath id="clip0_10521_31727">
<rect width="664.37" height="669.41" fill="white"/>
</clipPath>
</defs>
</svg>
