<svg width="140" height="28" viewBox="0 0 140 28" fill="none" xmlns="http://www.w3.org/2000/svg">
<g clip-path="url(#clip0_11105_18634)">
<path d="M82.2749 3.39453H85.1985V17.0345H82.2749V3.39453ZM94.9996 6.2581H97.8636V17.0161H94.9996V15.2638C94.4722 16.5072 93.0779 17.2789 91.5696 17.2789C88.8943 17.2789 86.7844 15.2638 86.7844 11.6457C86.7844 8.02751 88.8759 6.05059 91.5512 6.05059C93.0767 6.05059 94.4525 6.80388 94.9983 8.08539L94.9996 6.2581ZM95.0939 11.6465C95.0939 9.63144 93.9633 8.42453 92.3619 8.42453C90.7795 8.42453 89.6489 9.61171 89.6489 11.6465C89.6489 13.7002 90.7795 14.887 92.3808 14.887C93.9633 14.887 95.0939 13.6813 95.0939 11.6474V11.6465ZM112.861 6.05144C110.846 6.05144 109.583 7.04955 109.074 8.3495C108.49 6.67312 107.586 6.05144 105.833 6.05144C104.308 6.05144 103.083 6.82318 102.707 8.02923V6.25853H99.8426V17.0354H102.707V11.7216C102.707 9.44193 103.328 8.48155 104.816 8.48155C106.267 8.48155 106.794 9.29144 106.794 11.6277V17.0345H109.658V11.5145C109.658 9.36647 110.261 8.46226 111.768 8.46226C113.238 8.46226 113.802 9.32917 113.802 11.6084V17.0345H116.666V11.3451C116.666 7.59577 115.555 6.05144 112.861 6.05144ZM129.259 11.6474C129.259 15.5661 126.528 17.2806 123.702 17.2806C120.875 17.2806 118.125 15.5656 118.125 11.6474C118.125 7.76641 120.875 6.0523 123.702 6.0523C126.507 6.05101 129.259 7.76555 129.259 11.6474ZM126.414 11.6474C126.414 9.63229 125.284 8.42539 123.682 8.42539C122.1 8.42539 120.97 9.61257 120.97 11.6474C120.97 13.7011 122.1 14.8878 123.702 14.8878C125.303 14.8878 126.413 13.6813 126.413 11.6474H126.414ZM133.182 9.19841C133.182 8.48284 133.879 8.06781 135.066 8.06781C135.493 8.037 135.92 8.13104 136.294 8.33848C136.669 8.54591 136.975 8.85779 137.176 9.23614L139.738 8.78381C139.211 7.10658 137.213 6.07074 134.99 6.07074C132.315 6.07074 130.393 7.35225 130.356 9.29273C130.318 13.6063 137.119 11.8549 137.119 14.0029C137.119 14.7562 136.384 15.1901 135.104 15.1901C133.88 15.1901 132.957 14.7 132.561 13.852L129.962 14.285C130.489 16.0373 132.411 17.224 135.086 17.224C138.101 17.224 140.003 15.8868 140.003 13.7388C140.001 9.4235 133.181 11.3451 133.181 9.19712L133.182 9.19841ZM75.9519 3.39453L81.3776 17.0345H78.2315L77.1433 14.0462H71.7459L70.6578 17.0345H67.5305L72.9374 3.39453H75.9519ZM76.3476 11.8613L74.4453 6.63496L72.5421 11.8613H76.3476ZM32.7617 17.0345H40.7873V14.3763H35.7389V3.39453H32.7617V17.0345ZM46.8905 17.2793C49.7167 17.2793 52.4478 15.5644 52.4478 11.6461C52.4478 7.76512 49.6974 6.05101 46.8905 6.05101C44.0642 6.05101 41.3138 7.76598 41.3138 11.6461C41.3143 15.5652 44.0646 17.2793 46.8905 17.2793ZM46.8905 14.8865C45.2891 14.8865 44.1585 13.6993 44.1585 11.6461C44.1585 9.61129 45.2891 8.4241 46.8716 8.4241C48.473 8.4241 49.6035 9.63015 49.6035 11.6461C49.604 13.6813 48.4918 14.8865 46.8905 14.8865ZM58.2736 17.2227C61.2885 17.2227 63.1912 15.8855 63.1912 13.7375C63.1912 9.42307 56.3712 11.3447 56.3712 9.19712C56.3712 8.48155 57.0679 8.06653 58.2551 8.06653C58.6824 8.03555 59.1094 8.1295 59.4841 8.33695C59.8589 8.54439 60.1652 8.85636 60.3658 9.23485L62.9275 8.78253C62.4002 7.10529 60.4031 6.06945 58.1801 6.06945C55.5047 6.06945 53.5831 7.35096 53.5458 9.29144C53.5081 13.605 60.3088 11.8536 60.3088 14.0016C60.3088 14.7549 59.5748 15.1888 58.2937 15.1888C57.0688 15.1888 56.1457 14.6987 55.75 13.8507L53.1505 14.2837C53.677 16.036 55.5991 17.221 58.2736 17.221V17.2227Z" fill="#000F7E"/>
<path d="M34.0715 22.6204L33.5356 21.5914H33.5146V25.3107H32.7617V20.4471H33.6402L35.2266 23.1361L35.7625 24.1651H35.7835V20.4454H36.5355V25.3077H35.66L34.0715 22.6204ZM45.8735 21.1438H44.4243V20.4471H48.1115V21.1438H46.6624V25.309H45.8752L45.8735 21.1438ZM50.2188 25.309V24.6685H50.8803V21.0876H50.2188V20.4445H52.3363V21.0876H51.6679V24.6685H52.3363V25.309H50.2188ZM54.4072 22.878C54.4072 21.2407 55.2364 20.363 56.5041 20.363C57.7719 20.363 58.6011 21.2407 58.6011 22.878C58.6011 24.5154 57.7719 25.393 56.5041 25.393C55.2364 25.393 54.4072 24.5154 54.4072 22.878ZM57.7582 23.2613V22.4956C57.7582 21.6107 57.257 21.067 56.5041 21.067C55.7513 21.067 55.2501 21.6107 55.2501 22.4956V23.2613C55.2501 24.1458 55.7521 24.6895 56.5041 24.6895C57.2562 24.6895 57.7582 24.1458 57.7582 23.2613ZM62.3685 22.6182L61.8325 21.5892H61.8115V25.3086H61.0595V20.4471H61.9372L63.5235 23.1361L64.0603 24.1651H64.0809V20.4454H64.8329V25.3077H63.9552L62.3685 22.6182ZM73.6242 25.3073V20.4471H74.4118V24.6132H76.39V25.3094L73.6242 25.3073ZM42.2631 25.3073H43.085L41.427 20.4449H40.4383L38.78 25.3073H39.5817L39.9762 24.0841H41.8558L42.2631 25.3073ZM40.8979 21.1699H40.9327L41.6615 23.4084H40.1652L40.8979 21.1699ZM70.5604 25.3073H71.3823L69.7244 20.4449H68.7357L67.0773 25.3073H67.8787L68.2735 24.0841H70.1531L70.5604 25.3073ZM69.1953 21.1699H69.23L69.9589 23.4084H68.463L69.1953 21.1699ZM81.7377 25.3073V20.4471H82.5262V24.6132H84.504V25.3094L81.7377 25.3073ZM93.0994 20.4449H95.2521C95.4225 20.4294 95.5943 20.4508 95.7557 20.5078C95.9171 20.5647 96.0643 20.6558 96.1873 20.7748C96.3103 20.8938 96.4062 21.0379 96.4684 21.1973C96.5306 21.3567 96.5576 21.5277 96.5478 21.6986C96.5636 21.8222 96.5541 21.9478 96.5197 22.0677C96.4854 22.1875 96.427 22.2991 96.3482 22.3956C96.2693 22.4922 96.1715 22.5716 96.0609 22.6291C95.9503 22.6866 95.8292 22.721 95.7048 22.7301V22.773C95.8464 22.78 95.9852 22.815 96.1132 22.876C96.2411 22.937 96.3557 23.0228 96.4503 23.1284C96.5449 23.234 96.6176 23.3573 96.6642 23.4911C96.7108 23.625 96.7304 23.7668 96.7218 23.9083C96.7343 24.0832 96.7115 24.2588 96.6548 24.4246C96.5981 24.5905 96.5086 24.7433 96.3916 24.8739C96.2747 25.0044 96.1326 25.1102 95.974 25.1848C95.8154 25.2594 95.6434 25.3014 95.4682 25.3081H93.0994V20.4449ZM93.887 22.5003H95.1055C95.1854 22.5107 95.2667 22.5031 95.3435 22.4783C95.4202 22.4534 95.4904 22.4117 95.5491 22.3564C95.6077 22.3011 95.6534 22.2334 95.6827 22.1582C95.712 22.0831 95.7243 22.0024 95.7186 21.9219V21.6981C95.7241 21.6178 95.7118 21.5372 95.6824 21.4621C95.653 21.3871 95.6074 21.3195 95.5487 21.2643C95.4901 21.209 95.4199 21.1675 95.3432 21.1426C95.2666 21.1178 95.1854 21.1103 95.1055 21.1206H93.8878L93.887 22.5003ZM93.887 24.6316H95.2384C95.3239 24.6422 95.4107 24.6337 95.4925 24.6068C95.5743 24.5799 95.6492 24.5352 95.7117 24.4759C95.7743 24.4167 95.8229 24.3443 95.8542 24.2641C95.8855 24.1838 95.8986 24.0976 95.8926 24.0116V23.775C95.8985 23.689 95.8853 23.6029 95.854 23.5226C95.8227 23.4424 95.7741 23.3701 95.7116 23.3108C95.6491 23.2516 95.5742 23.2069 95.4924 23.18C95.4106 23.153 95.3239 23.1445 95.2384 23.155H93.8878L93.887 24.6316ZM98.9393 22.8763C98.9393 21.239 99.7685 20.3613 101.036 20.3613C102.304 20.3613 103.133 21.239 103.133 22.8763C103.133 24.5137 102.304 25.3913 101.036 25.3913C99.7685 25.3913 98.9393 24.5154 98.9393 22.878V22.8763ZM102.29 23.2596V22.4939C102.29 21.609 101.789 21.0653 101.036 21.0653C100.283 21.0653 99.7822 21.609 99.7822 22.4939V23.2596C99.7822 24.1441 100.284 24.6878 101.036 24.6878C101.788 24.6878 102.291 24.1458 102.291 23.2613L102.29 23.2596ZM106.384 25.3077H105.597V20.4471H107.693C107.886 20.4352 108.079 20.4654 108.259 20.5356C108.439 20.6057 108.601 20.7141 108.735 20.8532C108.869 20.9923 108.971 21.1589 109.034 21.3414C109.097 21.5238 109.12 21.7178 109.101 21.9099C109.126 22.2106 109.046 22.5107 108.872 22.7578C108.699 23.0048 108.444 23.1831 108.153 23.2613L109.205 25.3094H108.327L107.351 23.3454H106.384L106.384 25.3077ZM107.638 22.6821C107.721 22.6926 107.806 22.6845 107.886 22.6581C107.966 22.6318 108.039 22.588 108.099 22.5299C108.16 22.4719 108.207 22.401 108.237 22.3224C108.267 22.2439 108.279 22.1596 108.272 22.0759V21.741C108.279 21.6572 108.267 21.573 108.237 21.4945C108.207 21.4159 108.16 21.345 108.099 21.2869C108.039 21.2289 107.966 21.1851 107.886 21.1588C107.806 21.1324 107.721 21.1242 107.638 21.1348H106.384V22.6821H107.638ZM118.425 21.1425H116.976V20.4458H120.663V21.1425H119.214V25.3077H118.426L118.425 21.1425ZM122.602 22.8768C122.602 21.2394 123.431 20.3618 124.699 20.3618C125.967 20.3618 126.795 21.2394 126.795 22.8768C126.795 24.5141 125.966 25.3918 124.699 25.3918C123.432 25.3918 122.602 24.5154 122.602 22.878L122.602 22.8768ZM125.953 23.26V22.4943C125.953 21.6094 125.451 21.0657 124.699 21.0657C123.946 21.0657 123.445 21.6094 123.445 22.4943V23.26C123.445 24.1445 123.946 24.6882 124.699 24.6882C125.452 24.6882 125.952 24.1458 125.952 23.2613L125.953 23.26ZM130.047 25.3081H129.259V20.4471H131.356C131.549 20.4353 131.742 20.4655 131.921 20.5357C132.101 20.6058 132.264 20.7142 132.397 20.8534C132.531 20.9925 132.633 21.1591 132.696 21.3415C132.759 21.5239 132.782 21.7179 132.763 21.9099C132.788 22.2105 132.708 22.5105 132.534 22.7575C132.361 23.0046 132.107 23.1829 131.816 23.2613L132.868 25.3094H131.99L131.014 23.3454H130.046L130.047 25.3081ZM131.301 22.6825C131.384 22.6929 131.469 22.6846 131.548 22.6582C131.628 22.6318 131.701 22.588 131.762 22.53C131.822 22.472 131.869 22.4011 131.899 22.3227C131.929 22.2442 131.941 22.16 131.935 22.0763V21.7414C131.941 21.6577 131.929 21.5736 131.899 21.4951C131.869 21.4166 131.822 21.3458 131.762 21.2877C131.701 21.2297 131.628 21.1859 131.548 21.1595C131.469 21.1331 131.384 21.1248 131.301 21.1352H130.047V22.6825H131.301ZM136.338 25.3081V23.3925L134.666 20.4458H135.566L136.751 22.6122H136.772L137.948 20.4458H138.813L137.127 23.3788V25.3081H136.338ZM90.0292 25.3081H90.8511L89.1931 20.4458H88.2044L86.5461 25.3081H87.3474L87.7423 24.0849H89.6219L90.0292 25.3081ZM88.6641 21.1708H88.7001L89.4289 23.4093H87.9283L88.6641 21.1708ZM114.815 25.3081H115.636L113.978 20.4458H112.99L111.332 25.3081H112.133L112.527 24.0849H114.407L114.815 25.3081ZM113.449 21.1708H113.485L114.214 23.4093H112.717L113.449 21.1708Z" fill="#000F7E"/>
<path d="M8.8768 0.887239C11.5375 -0.118608 14.4449 -0.273408 17.1974 0.444221C19.9499 1.16185 22.4116 2.71649 24.2425 4.8934C24.0873 4.87368 22.3016 4.67903 19.2609 5.62526C15.0374 1.99382 11.3832 0.942976 8.8768 0.887239ZM13.1376 21.8699C11.6253 20.8895 10.2221 19.7503 8.95183 18.4716C8.10971 17.636 7.32099 16.7481 6.59032 15.8134C4.351 18.5274 3.48537 20.9862 4.27083 22.1678C5.23592 23.6157 8.71731 23.7083 13.1381 21.8716L13.1376 21.8699ZM17.9395 6.0823C13.2916 2.69096 7.91985 1.15863 5.58878 3.49785C4.12591 4.96543 3.88453 8.57801 6.875 13.2397C8.38494 11.7804 10.0296 10.4673 11.7871 9.31801C13.7104 8.0135 15.7737 6.92818 17.9383 6.0823H17.9395ZM5.65609 14.5285C2.7921 10.2913 2.55715 6.82274 2.89885 5.30585C1.10967 7.60287 0.0973903 10.4094 0.00837177 13.3197C-0.0806468 16.2299 0.758211 19.0931 2.40366 21.4951C2.2879 20.4289 2.77795 17.8182 5.65438 14.5268L5.65609 14.5285ZM25.0112 5.8958C24.9006 5.87522 23.3185 5.6094 20.3178 6.57707C20.5413 6.7883 20.7664 7.00595 20.993 7.23004C22.1777 8.37984 23.1725 9.71033 23.9402 11.1719C23.986 11.255 23.997 11.3528 23.9707 11.444C23.9444 11.5352 23.883 11.6122 23.8 11.6581C23.7166 11.703 23.6189 11.7135 23.5279 11.6873C23.4368 11.6611 23.3597 11.6003 23.313 11.5179C22.61 10.4699 21.8026 9.49595 20.903 8.61102C20.3346 8.04709 19.7401 7.51 19.1216 7.00152C16.8535 7.91439 14.6909 9.07015 12.6716 10.4486C10.891 11.6221 9.24245 12.9847 7.75478 14.5126C8.66048 15.724 9.6552 16.8662 10.7307 17.9297C11.9382 19.1428 13.2708 20.2246 14.706 21.1573C16.4343 20.2886 18.0795 19.2636 19.6211 18.0952C19.4212 17.7596 19.3475 17.3637 19.413 16.9786C19.4786 16.5935 19.6792 16.2444 19.9789 15.9938C20.2786 15.7432 20.6577 15.6075 21.0483 15.6112C21.439 15.6148 21.8155 15.7574 22.1105 16.0135C22.4055 16.2697 22.5996 16.6225 22.658 17.0087C22.7164 17.395 22.6353 17.7894 22.4292 18.1213C22.2232 18.4532 21.9056 18.7008 21.5336 18.8198C21.1615 18.9387 20.7592 18.9213 20.3988 18.7705C18.9482 19.8912 17.4252 20.9149 15.8396 21.8347C18.4665 23.2881 21.0634 23.9154 23.2654 23.6247C25.618 21.3605 27.0862 18.3317 27.4062 15.0823C27.7261 11.8328 26.877 8.57536 25.0112 5.8958ZM14.3866 22.6167C10.0563 24.7999 6.95218 24.9919 5.26336 24.5461C7.63498 26.4077 10.5535 27.4369 13.5683 27.4747C16.5831 27.5124 19.5265 26.5566 21.944 24.7549C20.8177 24.7643 17.955 24.5726 14.3853 22.6133L14.3866 22.6167Z" fill="#000F7E"/>
</g>
<defs>
<clipPath id="clip0_11105_18634">
<rect width="140" height="27.4703" fill="white"/>
</clipPath>
</defs>
</svg>
