<svg width="327" height="65" viewBox="0 0 327 65" fill="none" xmlns="http://www.w3.org/2000/svg">
<g clip-path="url(#clip0_11091_17301)">
<path d="M191.891 7.91602H198.71V39.73H191.891V7.91602ZM221.57 14.595H228.25V39.687H221.57V35.6C220.34 38.5 217.088 40.3 213.57 40.3C207.33 40.3 202.409 35.6 202.409 27.161C202.409 18.722 207.287 14.111 213.527 14.111C217.085 14.111 220.294 15.868 221.567 18.857L221.57 14.595ZM221.79 27.163C221.79 22.463 219.153 19.648 215.418 19.648C211.727 19.648 209.09 22.417 209.09 27.163C209.09 31.953 211.727 34.721 215.462 34.721C219.153 34.721 221.79 31.909 221.79 27.165V27.163ZM263.23 14.113C258.53 14.113 255.584 16.441 254.397 19.473C253.035 15.563 250.926 14.113 246.839 14.113C243.281 14.113 240.424 15.913 239.546 18.726V14.596H232.866V39.732H239.546V27.338C239.546 22.021 240.995 19.781 244.466 19.781C247.85 19.781 249.08 21.67 249.08 27.119V39.73H255.759V26.855C255.759 21.845 257.166 19.736 260.68 19.736C264.109 19.736 265.426 21.758 265.426 27.074V39.73H272.106V26.46C272.106 17.715 269.513 14.113 263.23 14.113ZM301.477 27.165C301.477 36.305 295.107 40.304 288.515 40.304C281.923 40.304 275.508 36.304 275.508 27.165C275.508 18.113 281.923 14.115 288.515 14.115C295.058 14.112 301.477 18.111 301.477 27.165ZM294.842 27.165C294.842 22.465 292.205 19.65 288.47 19.65C284.78 19.65 282.143 22.419 282.143 27.165C282.143 31.955 284.78 34.723 288.515 34.723C292.25 34.723 294.838 31.909 294.838 27.165H294.842ZM310.627 21.453C310.627 19.784 312.252 18.816 315.021 18.816C316.017 18.7442 317.013 18.9635 317.887 19.4473C318.76 19.9311 319.475 20.6586 319.942 21.541L325.918 20.486C324.688 16.574 320.03 14.158 314.845 14.158C308.605 14.158 304.123 17.147 304.035 21.673C303.948 31.734 319.81 27.649 319.81 32.659C319.81 34.416 318.096 35.428 315.11 35.428C312.255 35.428 310.102 34.285 309.179 32.307L303.116 33.317C304.346 37.404 308.828 40.172 315.067 40.172C322.099 40.172 326.537 37.053 326.537 32.043C326.531 21.978 310.624 26.46 310.624 21.45L310.627 21.453ZM177.143 7.91602L189.798 39.73H182.46L179.922 32.76H167.333L164.795 39.73H157.501L170.112 7.91602H177.143ZM178.066 27.664L173.629 15.474L169.19 27.664H178.066ZM76.4062 39.73H95.1252V33.53H83.3503V7.91602H76.4062V39.73ZM109.36 40.301C115.952 40.301 122.322 36.301 122.322 27.162C122.322 18.11 115.907 14.112 109.36 14.112C102.768 14.112 96.3532 18.112 96.3532 27.162C96.3542 36.303 102.769 40.301 109.36 40.301ZM109.36 34.72C105.625 34.72 102.988 31.951 102.988 27.162C102.988 22.416 105.625 19.647 109.316 19.647C113.051 19.647 115.688 22.46 115.688 27.162C115.689 31.909 113.095 34.72 109.36 34.72ZM135.91 40.169C142.942 40.169 147.38 37.05 147.38 32.04C147.38 21.977 131.473 26.459 131.473 21.45C131.473 19.781 133.098 18.813 135.867 18.813C136.864 18.7408 137.86 18.9599 138.734 19.4437C139.608 19.9276 140.322 20.6552 140.79 21.538L146.765 20.483C145.535 16.571 140.877 14.155 135.692 14.155C129.452 14.155 124.97 17.144 124.883 21.67C124.795 31.731 140.657 27.646 140.657 32.656C140.657 34.413 138.945 35.425 135.957 35.425C133.1 35.425 130.947 34.282 130.024 32.304L123.961 33.314C125.189 37.401 129.672 40.165 135.91 40.165V40.169Z" fill="#000F7E"/>
<path d="M79.4613 52.7612L78.2113 50.3612H78.1622V59.0362H76.4062V47.6922H78.4552L82.1553 53.9642L83.4053 56.3642H83.4542V47.6882H85.2082V59.0292H83.1662L79.4613 52.7612ZM106.988 49.3172H103.608V47.6922H112.208V49.3172H108.828V59.0322H106.992L106.988 49.3172ZM117.123 59.0322V57.5382H118.666V49.1862H117.123V47.6862H122.062V49.1862H120.503V57.5382H122.062V59.0322H117.123ZM126.892 53.3622C126.892 49.5432 128.826 47.4962 131.783 47.4962C134.74 47.4962 136.674 49.5432 136.674 53.3622C136.674 57.1812 134.74 59.2282 131.783 59.2282C128.826 59.2282 126.892 57.1812 126.892 53.3622ZM134.708 54.2562V52.4702C134.708 50.4062 133.539 49.1382 131.783 49.1382C130.027 49.1382 128.858 50.4062 128.858 52.4702V54.2562C128.858 56.3192 130.029 57.5872 131.783 57.5872C133.537 57.5872 134.708 56.3192 134.708 54.2562ZM145.461 52.7562L144.211 50.3562H144.162V59.0312H142.408V47.6922H144.455L148.155 53.9642L149.407 56.3642H149.455V47.6882H151.209V59.0292H149.162L145.461 52.7562ZM171.714 59.0282V47.6922H173.551V57.4092H178.165V59.0332L171.714 59.0282ZM98.5672 59.0282H100.484L96.6172 47.6872H94.3112L90.4432 59.0282H92.3132L93.2332 56.1752H97.6172L98.5672 59.0282ZM95.3832 49.3782H95.4642L97.1642 54.5992H93.6742L95.3832 49.3782ZM164.568 59.0282H166.485L162.618 47.6872H160.312L156.444 59.0282H158.313L159.234 56.1752H163.618L164.568 59.0282ZM161.384 49.3782H161.465L163.165 54.5992H159.676L161.384 49.3782ZM190.638 59.0282V47.6922H192.477V57.4092H197.09V59.0332L190.638 59.0282ZM217.138 47.6872H222.159C222.557 47.651 222.957 47.701 223.334 47.8337C223.71 47.9665 224.054 48.1789 224.341 48.4565C224.627 48.734 224.851 49.0702 224.996 49.4421C225.141 49.8139 225.204 50.2127 225.181 50.6112C225.218 50.8996 225.196 51.1925 225.116 51.472C225.036 51.7516 224.9 52.0119 224.716 52.237C224.532 52.4622 224.304 52.6475 224.046 52.7816C223.788 52.9157 223.505 52.9959 223.215 53.0172V53.1172C223.545 53.1335 223.869 53.2152 224.168 53.3575C224.466 53.4997 224.733 53.6998 224.954 53.9461C225.175 54.1924 225.344 54.4799 225.453 54.7922C225.562 55.1044 225.607 55.4352 225.587 55.7652C225.616 56.173 225.563 56.5826 225.431 56.9694C225.299 57.3563 225.09 57.7127 224.817 58.0172C224.544 58.3218 224.213 58.5685 223.843 58.7425C223.473 58.9165 223.072 59.0143 222.663 59.0302H217.138V47.6872ZM218.975 52.4812H221.817C222.004 52.5054 222.193 52.4878 222.372 52.4297C222.551 52.3717 222.715 52.2746 222.852 52.1455C222.989 52.0164 223.095 51.8586 223.164 51.6833C223.232 51.5081 223.261 51.3198 223.247 51.1322V50.6102C223.26 50.4227 223.231 50.2347 223.163 50.0597C223.094 49.8847 222.988 49.7271 222.851 49.5982C222.714 49.4694 222.551 49.3725 222.372 49.3145C222.193 49.2566 222.004 49.2391 221.817 49.2632H218.977L218.975 52.4812ZM218.975 57.4522H222.127C222.327 57.4769 222.529 57.4571 222.72 57.3943C222.911 57.3316 223.085 57.2274 223.231 57.0891C223.377 56.9509 223.491 56.7822 223.564 56.5949C223.637 56.4077 223.667 56.2066 223.653 56.0062V55.4542C223.667 55.2538 223.636 55.0528 223.563 54.8657C223.49 54.6785 223.377 54.5098 223.231 54.3716C223.085 54.2335 222.911 54.1292 222.72 54.0664C222.529 54.0036 222.327 53.9837 222.127 54.0082H218.977L218.975 57.4522ZM230.759 53.3582C230.759 49.5392 232.693 47.4922 235.65 47.4922C238.607 47.4922 240.541 49.5392 240.541 53.3582C240.541 57.1772 238.607 59.2242 235.65 59.2242C232.693 59.2242 230.759 57.1812 230.759 53.3622V53.3582ZM238.575 54.2522V52.4662C238.575 50.4022 237.406 49.1342 235.65 49.1342C233.894 49.1342 232.725 50.4022 232.725 52.4662V54.2522C232.725 56.3152 233.896 57.5832 235.65 57.5832C237.404 57.5832 238.577 56.3192 238.577 54.2562L238.575 54.2522ZM248.124 59.0292H246.287V47.6922H251.177C251.627 47.6646 252.077 47.735 252.496 47.8985C252.916 48.0621 253.295 48.3149 253.607 48.6394C253.92 48.9639 254.158 49.3524 254.305 49.778C254.452 50.2036 254.505 50.6561 254.46 51.1042C254.52 51.8055 254.331 52.5055 253.927 53.0817C253.523 53.6579 252.929 54.0736 252.249 54.2562L254.703 59.0332H252.654L250.379 54.4522H248.122L248.124 59.0292ZM251.048 52.9052C251.243 52.9298 251.44 52.9107 251.626 52.8493C251.813 52.7879 251.983 52.6857 252.124 52.5503C252.266 52.4148 252.376 52.2494 252.445 52.0662C252.515 51.883 252.543 51.6866 252.527 51.4912V50.7102C252.543 50.5148 252.515 50.3184 252.445 50.1351C252.376 49.9519 252.266 49.7866 252.124 49.6511C251.983 49.5157 251.813 49.4135 251.626 49.3521C251.44 49.2907 251.243 49.2716 251.048 49.2962H248.124V52.9052H251.048ZM276.207 49.3142H272.827V47.6892H281.427V49.3142H278.047V59.0292H276.211L276.207 49.3142ZM285.95 53.3592C285.95 49.5402 287.884 47.4932 290.841 47.4932C293.798 47.4932 295.73 49.5402 295.73 53.3592C295.73 57.1782 293.797 59.2252 290.841 59.2252C287.885 59.2252 285.949 57.1812 285.949 53.3622L285.95 53.3592ZM293.765 54.2532V52.4672C293.765 50.4032 292.596 49.1352 290.841 49.1352C289.086 49.1352 287.916 50.4032 287.916 52.4672V54.2532C287.916 56.3162 289.085 57.5842 290.841 57.5842C292.597 57.5842 293.763 56.3192 293.763 54.2562L293.765 54.2532ZM303.314 59.0302H301.477V47.6922H306.368C306.818 47.6647 307.268 47.7352 307.687 47.8989C308.106 48.0625 308.485 48.3153 308.797 48.6398C309.109 48.9643 309.347 49.3528 309.494 49.7783C309.641 50.2038 309.694 50.6562 309.649 51.1042C309.709 51.8052 309.521 52.505 309.117 53.0811C308.713 53.6573 308.12 54.0732 307.44 54.2562L309.894 59.0332H307.847L305.571 54.4522H303.312L303.314 59.0302ZM306.239 52.9062C306.434 52.9304 306.631 52.911 306.817 52.8495C307.003 52.788 307.173 52.6858 307.315 52.5504C307.456 52.415 307.566 52.2498 307.636 52.0668C307.705 51.8838 307.734 51.6875 307.718 51.4922V50.7112C307.734 50.5159 307.705 50.3196 307.636 50.1366C307.566 49.9535 307.456 49.7883 307.315 49.653C307.173 49.5176 307.003 49.4154 306.817 49.3539C306.631 49.2923 306.434 49.273 306.239 49.2972H303.314V52.9062H306.239ZM317.988 59.0302V54.5622L314.088 47.6892H316.188L318.951 52.7422H319L321.744 47.6892H323.761L319.828 54.5302V59.0302H317.988ZM209.977 59.0302H211.894L208.027 47.6892H205.721L201.853 59.0302H203.722L204.643 56.1772H209.027L209.977 59.0302ZM206.793 49.3802H206.877L208.577 54.6012H205.077L206.793 49.3802ZM267.788 59.0302H269.703L265.836 47.6892H263.53L259.663 59.0302H261.532L262.452 56.1772H266.836L267.788 59.0302ZM264.602 49.3802H264.685L266.385 54.6012H262.895L264.602 49.3802Z" fill="#000F7E"/>
<path d="M20.6998 2.0694C26.9056 -0.276642 33.6869 -0.6377 40.1067 1.0361C46.5266 2.70991 52.2684 6.33597 56.5388 11.4134C56.1768 11.3674 52.0118 10.9134 44.9198 13.1204C35.0688 4.6504 26.5458 2.1994 20.6998 2.0694ZM30.6378 51.0094C27.1103 48.7228 23.8374 46.0657 20.8748 43.0834C18.9106 41.1342 17.071 39.0635 15.3668 36.8834C10.1438 43.2134 8.12475 48.9484 9.95675 51.7044C12.2078 55.0814 20.3278 55.2974 30.6388 51.0134L30.6378 51.0094ZM41.8378 14.1864C30.9968 6.2764 18.4678 2.7024 13.0308 8.1584C9.61875 11.5814 9.05575 20.0074 16.0308 30.8804C19.5525 27.4767 23.3886 24.414 27.4878 21.7334C31.9738 18.6907 36.786 16.1593 41.8348 14.1864H41.8378ZM13.1878 33.8864C6.50775 24.0034 5.95975 15.9134 6.75675 12.3754C2.58365 17.733 0.222598 24.279 0.0149709 31.0669C-0.192657 37.8547 1.7639 44.5328 5.60175 50.1354C5.33175 47.6484 6.47475 41.5594 13.1838 33.8824L13.1878 33.8864ZM58.3318 13.7514C58.0738 13.7034 54.3838 13.0834 47.3848 15.3404C47.9061 15.8331 48.4311 16.3407 48.9598 16.8634C51.723 19.5452 54.0431 22.6484 55.8338 26.0574C55.9406 26.2512 55.9662 26.4794 55.9049 26.6921C55.8436 26.9047 55.7004 27.0843 55.5068 27.1914C55.3122 27.2963 55.0844 27.3207 54.8721 27.2596C54.6597 27.1985 54.4798 27.0566 54.3708 26.8644C52.7313 24.4201 50.848 22.1484 48.7498 20.0844C47.4239 18.7691 46.0374 17.5164 44.5948 16.3304C39.3046 18.4596 34.2605 21.1553 29.5508 24.3704C25.3976 27.1075 21.5526 30.2856 18.0828 33.8494C20.1952 36.6748 22.5153 39.3389 25.0238 41.8194C27.8403 44.6487 30.9482 47.1721 34.2958 49.3474C38.3268 47.3212 42.1641 44.9306 45.7598 42.2054C45.2936 41.4225 45.1216 40.4992 45.2745 39.601C45.4275 38.7028 45.8954 37.8884 46.5943 37.304C47.2933 36.7195 48.1776 36.4031 49.0887 36.4116C49.9998 36.42 50.8781 36.7528 51.5661 37.3501C52.2541 37.9475 52.7068 38.7704 52.843 39.6713C52.9793 40.5722 52.7901 41.4921 52.3096 42.2662C51.829 43.0403 51.0883 43.6178 50.2205 43.8953C49.3526 44.1728 48.4143 44.1321 47.5738 43.7804C44.1905 46.3945 40.6381 48.782 36.9398 50.9274C43.0668 54.3174 49.1238 55.7804 54.2598 55.1024C59.747 49.8215 63.1714 42.757 63.9177 35.178C64.6641 27.599 62.6835 20.0012 58.3318 13.7514ZM33.5508 52.7514C23.4508 57.8434 16.2108 58.2914 12.2718 57.2514C17.8033 61.5936 24.6105 63.9941 31.6423 64.0821C38.674 64.1701 45.5392 61.9408 51.1778 57.7384C48.5508 57.7604 41.8738 57.3134 33.5478 52.7434L33.5508 52.7514Z" fill="#000F7E"/>
</g>
<defs>
<clipPath id="clip0_11091_17301">
<rect width="326.537" height="64.072" fill="white"/>
</clipPath>
</defs>
</svg>
