<svg width="180" height="120" viewBox="0 0 180 120" fill="none" xmlns="http://www.w3.org/2000/svg">
<g clip-path="url(#clip0_11105_18633)">
<path d="M102.275 49.6602H105.199V63.3001H102.275V49.6602ZM115 52.5237H117.864V63.2817H115V61.5294C114.472 62.7728 113.078 63.5445 111.57 63.5445C108.894 63.5445 106.784 61.5294 106.784 57.9113C106.784 54.2931 108.876 52.3162 111.551 52.3162C113.077 52.3162 114.452 53.0695 114.998 54.351L115 52.5237ZM115.094 57.9121C115.094 55.8971 113.963 54.6902 112.362 54.6902C110.779 54.6902 109.649 55.8773 109.649 57.9121C109.649 59.9658 110.779 61.1526 112.381 61.1526C113.963 61.1526 115.094 59.947 115.094 57.913V57.9121ZM132.861 52.3171C130.846 52.3171 129.583 53.3152 129.074 54.6151C128.49 52.9387 127.586 52.3171 125.833 52.3171C124.308 52.3171 123.083 53.0888 122.707 54.2949V52.5242H119.843V63.301H122.707V57.9872C122.707 55.7076 123.328 54.7472 124.816 54.7472C126.267 54.7472 126.794 55.5571 126.794 57.8933V63.3001H129.658V57.7801C129.658 55.6321 130.261 54.7279 131.768 54.7279C133.238 54.7279 133.802 55.5948 133.802 57.874V63.3001H136.666V57.6107C136.666 53.8614 135.555 52.3171 132.861 52.3171ZM149.259 57.913C149.259 61.8317 146.528 63.5462 143.702 63.5462C140.875 63.5462 138.125 61.8313 138.125 57.913C138.125 54.032 140.875 52.3179 143.702 52.3179C146.507 52.3166 149.259 54.0312 149.259 57.913ZM146.414 57.913C146.414 55.8979 145.284 54.691 143.682 54.691C142.1 54.691 140.97 55.8782 140.97 57.913C140.97 59.9667 142.1 61.1534 143.702 61.1534C145.303 61.1534 146.413 59.947 146.413 57.913H146.414ZM153.182 55.464C153.182 54.7485 153.879 54.3334 155.066 54.3334C155.493 54.3026 155.92 54.3967 156.294 54.6041C156.669 54.8115 156.975 55.1234 157.176 55.5018L159.738 55.0494C159.211 53.3722 157.213 52.3364 154.99 52.3364C152.315 52.3364 150.393 53.6179 150.356 55.5584C150.318 59.8719 157.119 58.1205 157.119 60.2685C157.119 61.0218 156.384 61.4557 155.104 61.4557C153.88 61.4557 152.957 60.9656 152.561 60.1176L149.962 60.5506C150.489 62.3029 152.411 63.4896 155.086 63.4896C158.101 63.4896 160.003 62.1524 160.003 60.0044C160.001 55.6891 153.181 57.6107 153.181 55.4627L153.182 55.464ZM95.9519 49.6602L101.378 63.3001H98.2315L97.1433 60.3118H91.7459L90.6578 63.3001H87.5305L92.9374 49.6602H95.9519ZM96.3476 58.1269L94.4453 52.9006L92.5421 58.1269H96.3476ZM52.7617 63.3001H60.7873V60.6419H55.7389V49.6602H52.7617V63.3001ZM66.8905 63.545C69.7167 63.545 72.4478 61.83 72.4478 57.9117C72.4478 54.0307 69.6974 52.3166 66.8905 52.3166C64.0642 52.3166 61.3138 54.0316 61.3138 57.9117C61.3143 61.8308 64.0646 63.545 66.8905 63.545ZM66.8905 61.1521C65.2891 61.1521 64.1585 59.965 64.1585 57.9117C64.1585 55.8769 65.2891 54.6897 66.8716 54.6897C68.473 54.6897 69.6035 55.8958 69.6035 57.9117C69.604 59.947 68.4918 61.1521 66.8905 61.1521ZM78.2736 63.4884C81.2885 63.4884 83.1912 62.1511 83.1912 60.0031C83.1912 55.6887 76.3712 57.6103 76.3712 55.4627C76.3712 54.7472 77.0679 54.3322 78.2551 54.3322C78.6824 54.3012 79.1094 54.3951 79.4841 54.6026C79.8589 54.81 80.1652 55.122 80.3658 55.5005L82.9275 55.0482C82.4002 53.3709 80.4031 52.3351 78.1801 52.3351C75.5047 52.3351 73.5831 53.6166 73.5458 55.5571C73.5081 59.8706 80.3088 58.1192 80.3088 60.2672C80.3088 61.0205 79.5748 61.4544 78.2937 61.4544C77.0688 61.4544 76.1457 60.9644 75.75 60.1163L73.1505 60.5493C73.677 62.3016 75.5991 63.4866 78.2736 63.4866V63.4884Z" fill="#000F7E"/>
<path d="M54.0715 68.886L53.5356 67.857H53.5146V71.5763H52.7617V66.7127H53.6402L55.2266 69.4018L55.7625 70.4307H55.7835V66.711H56.5355V71.5733H55.66L54.0715 68.886ZM65.8735 67.4094H64.4243V66.7127H68.1115V67.4094H66.6624V71.5746H65.8752L65.8735 67.4094ZM70.2188 71.5746V70.9341H70.8803V67.3532H70.2188V66.7101H72.3363V67.3532H71.6679V70.9341H72.3363V71.5746H70.2188ZM74.4072 69.1437C74.4072 67.5063 75.2364 66.6287 76.5041 66.6287C77.7719 66.6287 78.6011 67.5063 78.6011 69.1437C78.6011 70.781 77.7719 71.6587 76.5041 71.6587C75.2364 71.6587 74.4072 70.781 74.4072 69.1437ZM77.7582 69.527V68.7612C77.7582 67.8763 77.257 67.3327 76.5041 67.3327C75.7513 67.3327 75.2501 67.8763 75.2501 68.7612V69.527C75.2501 70.4115 75.7521 70.9551 76.5041 70.9551C77.2562 70.9551 77.7582 70.4115 77.7582 69.527ZM82.3685 68.8838L81.8325 67.8549H81.8115V71.5742H81.0595V66.7127H81.9372L83.5235 69.4018L84.0603 70.4307H84.0809V66.711H84.8329V71.5733H83.9552L82.3685 68.8838ZM93.6242 71.5729V66.7127H94.4118V70.8788H96.39V71.5751L93.6242 71.5729ZM62.2631 71.5729H63.085L61.427 66.7106H60.4383L58.78 71.5729H59.5817L59.9762 70.3497H61.8558L62.2631 71.5729ZM60.8979 67.4356H60.9327L61.6615 69.674H60.1652L60.8979 67.4356ZM90.5604 71.5729H91.3823L89.7244 66.7106H88.7357L87.0773 71.5729H87.8787L88.2735 70.3497H90.1531L90.5604 71.5729ZM89.1953 67.4356H89.23L89.9589 69.674H88.463L89.1953 67.4356ZM101.738 71.5729V66.7127H102.526V70.8788H104.504V71.5751L101.738 71.5729ZM113.099 66.7106H115.252C115.423 66.695 115.594 66.7165 115.756 66.7734C115.917 66.8303 116.064 66.9214 116.187 67.0404C116.31 67.1594 116.406 67.3035 116.468 67.4629C116.531 67.6224 116.558 67.7933 116.548 67.9642C116.564 68.0879 116.554 68.2134 116.52 68.3333C116.485 68.4531 116.427 68.5647 116.348 68.6613C116.269 68.7578 116.172 68.8372 116.061 68.8947C115.95 68.9523 115.829 68.9866 115.705 68.9957V69.0386C115.846 69.0456 115.985 69.0806 116.113 69.1416C116.241 69.2026 116.356 69.2884 116.45 69.394C116.545 69.4996 116.618 69.6229 116.664 69.7568C116.711 69.8906 116.73 70.0324 116.722 70.1739C116.734 70.3488 116.712 70.5244 116.655 70.6902C116.598 70.8561 116.509 71.0089 116.392 71.1395C116.275 71.2701 116.133 71.3758 115.974 71.4504C115.815 71.525 115.643 71.567 115.468 71.5738H113.099V66.7106ZM113.887 68.7659H115.105C115.185 68.7763 115.267 68.7688 115.343 68.7439C115.42 68.719 115.49 68.6774 115.549 68.622C115.608 68.5667 115.653 68.499 115.683 68.4239C115.712 68.3487 115.724 68.268 115.719 68.1876V67.9638C115.724 67.8834 115.712 67.8028 115.682 67.7277C115.653 67.6527 115.607 67.5851 115.549 67.5299C115.49 67.4747 115.42 67.4331 115.343 67.4083C115.267 67.3834 115.185 67.3759 115.105 67.3863H113.888L113.887 68.7659ZM113.887 70.8972H115.238C115.324 70.9078 115.411 70.8993 115.492 70.8724C115.574 70.8455 115.649 70.8008 115.712 70.7416C115.774 70.6823 115.823 70.61 115.854 70.5297C115.885 70.4494 115.899 70.3632 115.893 70.2773V70.0406C115.899 69.9547 115.885 69.8685 115.854 69.7883C115.823 69.708 115.774 69.6357 115.712 69.5765C115.649 69.5172 115.574 69.4725 115.492 69.4456C115.411 69.4187 115.324 69.4101 115.238 69.4206H113.888L113.887 70.8972ZM118.939 69.142C118.939 67.5046 119.768 66.627 121.036 66.627C122.304 66.627 123.133 67.5046 123.133 69.142C123.133 70.7793 122.304 71.6569 121.036 71.6569C119.768 71.6569 118.939 70.781 118.939 69.1437V69.142ZM122.29 69.5252V68.7595C122.29 67.8746 121.789 67.3309 121.036 67.3309C120.283 67.3309 119.782 67.8746 119.782 68.7595V69.5252C119.782 70.4097 120.284 70.9534 121.036 70.9534C121.788 70.9534 122.291 70.4115 122.291 69.527L122.29 69.5252ZM126.384 71.5733H125.597V66.7127H127.693C127.886 66.7009 128.079 66.7311 128.259 66.8012C128.439 66.8713 128.601 66.9797 128.735 67.1188C128.869 67.2579 128.971 67.4245 129.034 67.607C129.097 67.7894 129.12 67.9834 129.101 68.1756C129.126 68.4762 129.046 68.7763 128.872 69.0234C128.699 69.2704 128.444 69.4487 128.153 69.527L129.205 71.5751H128.327L127.351 69.611H126.384L126.384 71.5733ZM127.638 68.9477C127.721 68.9583 127.806 68.9501 127.886 68.9238C127.966 68.8974 128.039 68.8536 128.099 68.7956C128.16 68.7375 128.207 68.6666 128.237 68.588C128.267 68.5095 128.279 68.4253 128.272 68.3415V68.0066C128.279 67.9229 128.267 67.8386 128.237 67.7601C128.207 67.6815 128.16 67.6107 128.099 67.5526C128.039 67.4945 127.966 67.4507 127.886 67.4244C127.806 67.3981 127.721 67.3899 127.638 67.4004H126.384V68.9477H127.638ZM138.425 67.4081H136.976V66.7114H140.663V67.4081H139.214V71.5733H138.426L138.425 67.4081ZM142.602 69.1424C142.602 67.505 143.431 66.6274 144.699 66.6274C145.967 66.6274 146.795 67.505 146.795 69.1424C146.795 70.7797 145.966 71.6574 144.699 71.6574C143.432 71.6574 142.602 70.781 142.602 69.1437L142.602 69.1424ZM145.953 69.5257V68.7599C145.953 67.875 145.451 67.3314 144.699 67.3314C143.946 67.3314 143.445 67.875 143.445 68.7599V69.5257C143.445 70.4102 143.946 70.9538 144.699 70.9538C145.452 70.9538 145.952 70.4115 145.952 69.527L145.953 69.5257ZM150.047 71.5738H149.259V66.7127H151.356C151.549 66.7009 151.742 66.7312 151.921 66.8013C152.101 66.8715 152.264 66.9799 152.397 67.119C152.531 67.2581 152.633 67.4247 152.696 67.6071C152.759 67.7895 152.782 67.9835 152.763 68.1756C152.788 68.4761 152.708 68.7761 152.534 69.0232C152.361 69.2702 152.107 69.4485 151.816 69.527L152.868 71.5751H151.99L151.014 69.611H150.046L150.047 71.5738ZM151.301 68.9482C151.384 68.9585 151.469 68.9502 151.548 68.9239C151.628 68.8975 151.701 68.8537 151.762 68.7956C151.822 68.7376 151.869 68.6668 151.899 68.5883C151.929 68.5098 151.941 68.4256 151.935 68.3419V68.0071C151.941 67.9233 151.929 67.8392 151.899 67.7607C151.869 67.6822 151.822 67.6114 151.762 67.5534C151.701 67.4953 151.628 67.4515 151.548 67.4251C151.469 67.3988 151.384 67.3905 151.301 67.4008H150.047V68.9482H151.301ZM156.338 71.5738V69.6582L154.666 66.7114H155.566L156.751 68.8778H156.772L157.948 66.7114H158.813L157.127 69.6444V71.5738H156.338ZM110.029 71.5738H110.851L109.193 66.7114H108.204L106.546 71.5738H107.347L107.742 70.3506H109.622L110.029 71.5738ZM108.664 67.4364H108.7L109.429 69.6749H107.928L108.664 67.4364ZM134.815 71.5738H135.636L133.978 66.7114H132.99L131.332 71.5738H132.133L132.527 70.3506H134.407L134.815 71.5738ZM133.449 67.4364H133.485L134.214 69.6749H132.717L133.449 67.4364Z" fill="#000F7E"/>
<path d="M28.8768 47.1529C31.5375 46.147 34.4449 45.9922 37.1974 46.7098C39.9499 47.4275 42.4116 48.9821 44.2425 51.159C44.0873 51.1393 42.3016 50.9447 39.2609 51.8909C35.0374 48.2594 31.3832 47.2086 28.8768 47.1529ZM33.1376 68.1355C31.6253 67.1551 30.2221 66.0159 28.9518 64.7373C28.1097 63.9016 27.321 63.0138 26.5903 62.0791C24.351 64.793 23.4854 67.2518 24.2708 68.4335C25.2359 69.8813 28.7173 69.9739 33.1381 68.1372L33.1376 68.1355ZM37.9395 52.3479C33.2916 48.9566 27.9198 47.4243 25.5888 49.7635C24.1259 51.2311 23.8845 54.8436 26.875 59.5053C28.3849 58.046 30.0296 56.7329 31.7871 55.5836C33.7104 54.2791 35.7737 53.1938 37.9383 52.3479H37.9395ZM25.6561 60.7941C22.7921 56.5569 22.5571 53.0884 22.8989 51.5715C21.1097 53.8685 20.0974 56.675 20.0084 59.5853C19.9194 62.4955 20.7582 65.3587 22.4037 67.7608C22.2879 66.6945 22.7779 64.0839 25.6544 60.7924L25.6561 60.7941ZM45.0112 52.1614C44.9006 52.1408 43.3185 51.875 40.3178 52.8427C40.5413 53.0539 40.7664 53.2716 40.993 53.4957C42.1777 54.6455 43.1725 55.976 43.9402 57.4375C43.986 57.5206 43.997 57.6185 43.9707 57.7096C43.9444 57.8008 43.883 57.8778 43.8 57.9237C43.7166 57.9687 43.6189 57.9792 43.5279 57.953C43.4368 57.9267 43.3597 57.8659 43.313 57.7835C42.61 56.7355 41.8026 55.7616 40.903 54.8766C40.3346 54.3127 39.7401 53.7756 39.1216 53.2671C36.8535 54.18 34.6909 55.3358 32.6716 56.7142C30.891 57.8877 29.2424 59.2503 27.7548 60.7783C28.6605 61.9896 29.6552 63.1318 30.7307 64.1953C31.9382 65.4084 33.2708 66.4903 34.706 67.4229C36.4343 66.5542 38.0795 65.5292 39.6211 64.3608C39.4212 64.0252 39.3475 63.6293 39.413 63.2442C39.4786 62.8591 39.6792 62.51 39.9789 62.2594C40.2786 62.0088 40.6577 61.8732 41.0483 61.8768C41.439 61.8804 41.8155 62.0231 42.1105 62.2792C42.4055 62.5353 42.5996 62.8881 42.658 63.2743C42.7164 63.6606 42.6353 64.055 42.4292 64.3869C42.2232 64.7188 41.9056 64.9664 41.5336 65.0854C41.1615 65.2043 40.7592 65.1869 40.3988 65.0361C38.9482 66.1569 37.4252 67.1805 35.8396 68.1003C38.4665 69.5538 41.0634 70.181 43.2654 69.8903C45.618 67.6262 47.0862 64.5973 47.4062 61.3479C47.7261 58.0985 46.877 54.841 45.0112 52.1614ZM34.3866 68.8823C30.0563 71.0655 26.9522 71.2576 25.2634 70.8117C27.635 72.6734 30.5535 73.7025 33.5683 73.7403C36.5831 73.778 39.5265 72.8222 41.944 71.0205C40.8177 71.0299 37.955 70.8383 34.3853 68.8789L34.3866 68.8823Z" fill="#000F7E"/>
</g>
<defs>
<clipPath id="clip0_11105_18633">
<rect width="140" height="27.4703" fill="white" transform="translate(20 46.2656)"/>
</clipPath>
</defs>
</svg>
