<svg width="70" height="30" viewBox="0 0 70 30" fill="none" xmlns="http://www.w3.org/2000/svg">
<g clip-path="url(#clip0_10196_709)">
<g clip-path="url(#clip1_10196_709)">
<g clip-path="url(#clip2_10196_709)">
<path d="M41.1355 9.83008H42.5973V16.6501H41.1355V9.83008ZM47.4978 11.2619H48.9298V16.6409H47.4978V15.7647C47.2342 16.3864 46.537 16.7723 45.7829 16.7723C44.4452 16.7723 43.3903 15.7647 43.3903 13.9556C43.3903 12.1466 44.436 11.1581 45.7736 11.1581C46.5364 11.1581 47.2243 11.5348 47.4972 12.1755L47.4978 11.2619ZM47.545 13.9561C47.545 12.9485 46.9797 12.3451 46.179 12.3451C45.3878 12.3451 44.8225 12.9387 44.8225 13.9561C44.8225 14.9829 45.3878 15.5763 46.1885 15.5763C46.9797 15.5763 47.545 14.9735 47.545 13.9565V13.9561ZM56.4285 11.1585C55.421 11.1585 54.7894 11.6576 54.535 12.3076C54.243 11.4694 53.7909 11.1585 52.9148 11.1585C52.152 11.1585 51.5396 11.5444 51.3514 12.1474V11.2621H49.9194V16.6505H51.3514V13.9936C51.3514 12.8538 51.662 12.3736 52.4061 12.3736C53.1315 12.3736 53.3952 12.7785 53.3952 13.9466V16.6501H54.827V13.89C54.827 12.816 55.1286 12.3639 55.8819 12.3639C56.617 12.3639 56.8993 12.7974 56.8993 13.937V16.6501H58.3313V13.8054C58.3313 11.9307 57.7754 11.1583 56.4285 11.1583V11.1585ZM64.6276 13.9565C64.6276 15.9159 63.262 16.7731 61.8489 16.7731C60.4358 16.7731 59.0606 15.9156 59.0606 13.9565C59.0606 12.016 60.4358 11.159 61.8489 11.159C63.2515 11.1583 64.6276 12.0156 64.6276 13.9565ZM63.2052 13.9565C63.2052 12.949 62.6399 12.3455 61.8392 12.3455C61.0482 12.3455 60.4829 12.9391 60.4829 13.9565C60.4829 14.9833 61.0482 15.5767 61.8489 15.5767C62.6496 15.5767 63.2044 14.9735 63.2044 13.9565H63.2052ZM66.5891 12.732C66.5891 12.3742 66.9374 12.1667 67.531 12.1667C67.7446 12.1512 67.958 12.1981 68.1454 12.3019C68.3327 12.4056 68.4858 12.5616 68.5859 12.7509L69.867 12.5247C69.6033 11.6861 68.6048 11.1682 67.4933 11.1682C66.1556 11.1682 65.1948 11.8089 65.1759 12.7792C65.1573 14.936 68.5576 14.0603 68.5576 15.1343C68.5576 15.5109 68.1902 15.7278 67.5501 15.7278C66.938 15.7278 66.4765 15.4828 66.2786 15.0588L64.9789 15.2753C65.2426 16.1514 66.2034 16.7448 67.5409 16.7448C69.0483 16.7448 69.9997 16.0762 69.9997 15.0022C69.9984 12.8446 66.5884 13.8054 66.5884 12.7314L66.5891 12.732ZM37.974 9.83008L40.6868 16.6501H39.1138L38.5697 15.1559H35.871L35.3269 16.6501H33.7633L36.4667 9.83008H37.974ZM38.1718 14.0635L37.2207 11.4503L36.2691 14.0635H38.1718ZM16.3789 16.6501H20.3917V15.321H17.8675V9.83008H16.3789V16.6501ZM23.4433 16.7725C24.8564 16.7725 26.222 15.915 26.222 13.9559C26.222 12.0154 24.8468 11.1583 23.4433 11.1583C22.0302 11.1583 20.655 12.0158 20.655 13.9559C20.6552 15.9154 22.0304 16.7725 23.4433 16.7725ZM23.4433 15.5761C22.6426 15.5761 22.0773 14.9825 22.0773 13.9559C22.0773 12.9385 22.6426 12.3449 23.4339 12.3449C24.2345 12.3449 24.7998 12.9479 24.7998 13.9559C24.8 14.9735 24.244 15.5763 23.4433 15.5763V15.5761ZM29.1348 16.7442C30.6423 16.7442 31.5937 16.0756 31.5937 15.0016C31.5937 12.8443 28.1837 13.8052 28.1837 12.7314C28.1837 12.3736 28.532 12.1661 29.1256 12.1661C29.3392 12.1505 29.5528 12.1975 29.7402 12.3012C29.9276 12.4049 30.0807 12.561 30.181 12.7502L31.4618 12.5241C31.1981 11.6855 30.1996 11.1675 29.0881 11.1675C27.7504 11.1675 26.7896 11.8083 26.771 12.7785C26.7521 14.9353 30.1524 14.0596 30.1524 15.1336C30.1524 15.5103 29.7854 15.7272 29.1449 15.7272C28.5324 15.7272 28.0709 15.4822 27.873 15.0582L26.5733 15.2747C26.8366 16.1508 27.7976 16.7433 29.1348 16.7433V16.7442Z" fill="#E6E7F5"/>
<path d="M17.0338 19.443L16.7658 18.9285H16.7553V20.7882H16.3789V18.3564H16.8182L17.6113 19.7009L17.8793 20.2154H17.8898V18.3555H18.2658V20.7867H17.8281L17.0338 19.443ZM22.9348 18.7047H22.2102V18.3564H24.0538V18.7047H23.3292V20.7873H22.9357L22.9348 18.7047ZM25.1074 20.7873V20.467H25.4382V18.6766H25.1074V18.3551H26.1662V18.6766H25.832V20.467H26.1662V20.7873H25.1074ZM27.2016 19.5718C27.2016 18.7532 27.6162 18.3143 28.2501 18.3143C28.884 18.3143 29.2986 18.7532 29.2986 19.5718C29.2986 20.3905 28.884 20.8293 28.2501 20.8293C27.6162 20.8293 27.2018 20.3905 27.2018 19.5718H27.2016ZM28.8772 19.7635V19.3806C28.8772 18.9382 28.6266 18.6663 28.2501 18.6663C27.8737 18.6663 27.6231 18.9382 27.6231 19.3806V19.7635C27.6231 20.2057 27.8741 20.4775 28.2501 20.4775C28.6261 20.4775 28.8774 20.2057 28.8774 19.7635H28.8772ZM31.1823 19.4419L30.9143 18.9274H30.9038V20.7871H30.5278V18.3564H30.9666L31.7598 19.7009L32.0282 20.2154H32.0385V18.3555H32.4145V20.7867H31.9757L31.1823 19.4419ZM36.8102 20.7865V18.3564H37.204V20.4394H38.1931V20.7875L36.8102 20.7865ZM21.1296 20.7865H21.5405L20.7116 18.3553H20.2172L19.388 20.7865H19.7889L19.9861 20.1749H20.9259L21.1296 20.7865ZM20.447 18.7178H20.4644L20.8288 19.837H20.0807L20.447 18.7178ZM35.2783 20.7865H35.6892L34.8602 18.3553H34.3659L33.5367 20.7865H33.9374L34.1348 20.1749H35.0746L35.2783 20.7865ZM34.5957 18.7178H34.6131L34.9775 19.837H34.2296L34.5957 18.7178ZM40.8669 20.7865V18.3564H41.2611V20.4394H42.25V20.7875L40.8669 20.7865ZM46.5477 18.3553H47.6241C47.7093 18.3475 47.7952 18.3582 47.8759 18.3867C47.9566 18.4152 48.0302 18.4607 48.0917 18.5202C48.1532 18.5797 48.2011 18.6518 48.2322 18.7315C48.2633 18.8112 48.2769 18.8967 48.2719 18.9821C48.2799 19.0439 48.2752 19.1067 48.258 19.1667C48.2409 19.2266 48.2117 19.2825 48.1723 19.3308C48.1328 19.379 48.0839 19.4188 48.0286 19.4475C47.9733 19.4762 47.9127 19.4934 47.8505 19.4979V19.5193C47.9213 19.5228 47.9907 19.5403 48.0546 19.5708C48.1186 19.6013 48.1759 19.6442 48.2232 19.697C48.2705 19.7498 48.3068 19.8114 48.3301 19.8784C48.3535 19.9453 48.3632 20.0162 48.359 20.087C48.3652 20.1744 48.3538 20.2622 48.3254 20.3451C48.297 20.428 48.2523 20.5044 48.1938 20.5697C48.1353 20.635 48.0643 20.6878 47.985 20.7252C47.9057 20.7625 47.8197 20.7835 47.7321 20.7869H46.5477V18.3553ZM46.9415 19.383H47.5508C47.5908 19.3881 47.6314 19.3843 47.6697 19.3719C47.7081 19.3594 47.7432 19.3386 47.7725 19.3109C47.8018 19.2833 47.8246 19.2494 47.8393 19.2119C47.854 19.1743 47.8601 19.134 47.8573 19.0938V18.9819C47.8601 18.9417 47.8539 18.9014 47.8392 18.8639C47.8245 18.8264 47.8016 18.7927 47.7723 18.765C47.743 18.7374 47.7079 18.7167 47.6696 18.7042C47.6313 18.6918 47.5907 18.688 47.5508 18.6931H46.942L46.9415 19.383ZM46.9415 20.4486H47.6172C47.66 20.4539 47.7034 20.4497 47.7443 20.4362C47.7852 20.4228 47.8226 20.4004 47.8539 20.3708C47.8852 20.3412 47.9095 20.305 47.9251 20.2648C47.9408 20.2247 47.9474 20.1816 47.9444 20.1386V20.0203C47.9473 19.9773 47.9407 19.9342 47.9251 19.8941C47.9094 19.854 47.8851 19.8179 47.8538 19.7882C47.8226 19.7586 47.7852 19.7363 47.7443 19.7228C47.7034 19.7093 47.66 19.7051 47.6172 19.7103H46.942L46.9415 20.4486ZM49.4677 19.571C49.4677 18.7523 49.8823 18.3135 50.5162 18.3135C51.1501 18.3135 51.5647 18.7523 51.5647 19.571C51.5647 20.3897 51.1501 20.8285 50.5162 20.8285C49.8823 20.8285 49.4677 20.3905 49.4677 19.5718V19.571ZM51.1432 19.7626V19.3798C51.1432 18.9373 50.8926 18.6655 50.5162 18.6655C50.1397 18.6655 49.8891 18.9373 49.8891 19.3798V19.7626C49.8891 20.2049 50.1402 20.4767 50.5162 20.4767C50.8922 20.4767 51.1436 20.2057 51.1436 19.7635L51.1432 19.7626ZM53.1902 20.7867H52.7964V18.3564H53.8447C53.9411 18.3504 54.0376 18.3655 54.1275 18.4006C54.2175 18.4356 54.2987 18.4898 54.3657 18.5594C54.4326 18.629 54.4836 18.7123 54.5152 18.8035C54.5467 18.8947 54.5581 18.9917 54.5485 19.0878C54.5613 19.2381 54.5208 19.3882 54.4342 19.5117C54.3475 19.6352 54.2202 19.7243 54.0745 19.7635L54.6006 20.7875H54.1613L53.6736 19.8055H53.1898L53.1902 20.7867ZM53.8171 19.4739C53.8587 19.4791 53.9011 19.475 53.941 19.4619C53.9809 19.4487 54.0174 19.4268 54.0477 19.3978C54.0781 19.3687 54.1016 19.3333 54.1166 19.294C54.1315 19.2547 54.1375 19.2126 54.1341 19.1707V19.0033C54.1375 18.9614 54.1315 18.9193 54.1166 18.88C54.1016 18.8408 54.0781 18.8053 54.0477 18.7763C54.0174 18.7472 53.9809 18.7253 53.941 18.7122C53.9011 18.699 53.8587 18.6949 53.8171 18.7002H53.1902V19.4739H53.8171ZM59.2104 18.7041H58.4858V18.3557H60.3294V18.7041H59.6049V20.7867H59.2113L59.2104 18.7041ZM61.299 19.5712C61.299 18.7525 61.7136 18.3137 62.3475 18.3137C62.9814 18.3137 63.3956 18.7525 63.3956 19.5712C63.3956 20.3899 62.9812 20.8287 62.3475 20.8287C61.7138 20.8287 61.2988 20.3905 61.2988 19.5718L61.299 19.5712ZM62.9743 19.7628V19.38C62.9743 18.9375 62.7237 18.6657 62.3475 18.6657C61.9713 18.6657 61.7205 18.9375 61.7205 19.38V19.7628C61.7205 20.2051 61.9711 20.4769 62.3475 20.4769C62.7239 20.4769 62.9739 20.2057 62.9739 19.7635L62.9743 19.7628ZM65.0214 20.7869H64.6276V18.3564H65.676C65.7724 18.3505 65.8688 18.3656 65.9588 18.4007C66.0487 18.4357 66.1299 18.4899 66.1968 18.5595C66.2637 18.6291 66.3147 18.7123 66.3462 18.8036C66.3777 18.8948 66.3891 18.9918 66.3794 19.0878C66.3922 19.2381 66.3518 19.3881 66.2653 19.5116C66.1787 19.6351 66.0515 19.7243 65.9059 19.7635L66.4319 20.7875H65.9931L65.5052 19.8055H65.0209L65.0214 20.7869ZM65.6484 19.4741C65.6901 19.4793 65.7324 19.4752 65.7723 19.462C65.8122 19.4488 65.8486 19.4269 65.879 19.3979C65.9094 19.3689 65.9329 19.3334 65.9478 19.2942C65.9628 19.2549 65.9688 19.2128 65.9655 19.171V19.0035C65.9688 18.9617 65.9628 18.9196 65.9478 18.8803C65.9329 18.8411 65.9094 18.8056 65.879 18.7766C65.8486 18.7476 65.8122 18.7257 65.7723 18.7125C65.7324 18.6993 65.6901 18.6952 65.6484 18.7004H65.0214V19.4741H65.6484ZM68.167 20.7869V19.8291L67.331 18.3557H67.7812L68.3735 19.4389H68.384L68.9722 18.3557H69.4046L68.5615 19.8222V20.7869H68.167ZM45.0126 20.7869H45.4236L44.5946 18.3557H44.1003L43.2711 20.7869H43.6717L43.8692 20.1753H44.809L45.0126 20.7869ZM44.3301 18.7182H44.3481L44.7125 19.8374H43.9622L44.3301 18.7182ZM57.4056 20.7869H57.8161L56.9872 18.3557H56.4928L55.6639 20.7869H56.0645L56.2617 20.1753H57.2015L57.4056 20.7869ZM56.7226 18.7182H56.7404L57.1049 19.8374H56.3567L56.7226 18.7182Z" fill="#E6E7F5"/>
<path d="M4.43722 8.57627C5.76759 8.07348 7.22125 7.99614 8.59746 8.35495C9.97367 8.71376 11.2045 9.49101 12.1201 10.5794C12.0425 10.5695 11.1496 10.4722 9.62928 10.9453C7.51751 9.12957 5.69043 8.60414 4.43722 8.57627ZM6.56764 19.0676C5.8116 18.5772 5.11 18.0076 4.47473 17.3685C4.05361 16.9507 3.65924 16.5068 3.29398 16.0394C2.17432 17.3963 1.74151 18.6258 2.13423 19.2166C2.61678 19.9405 4.35747 19.9868 6.56785 19.0684L6.56764 19.0676ZM8.96859 11.1738C6.6446 9.47813 3.95874 8.71197 2.79321 9.88158C2.06178 10.6154 1.94108 12.4217 3.43632 14.7525C4.19129 14.0229 5.01365 13.3663 5.89237 12.7917C6.85399 12.1393 7.88561 11.5967 8.96795 11.1738H8.96859ZM2.82686 15.3969C1.39487 13.2783 1.27739 11.544 1.44825 10.7856C0.55378 11.9341 0.047718 13.3374 0.00320972 14.7925C-0.0412986 16.2476 0.378053 17.6791 1.20065 18.8802C1.14277 18.3471 1.38779 17.0418 2.82601 15.3961L2.82686 15.3969ZM12.5044 11.0806C12.4491 11.0703 11.6581 10.9374 10.1577 11.4212C10.2696 11.5269 10.3819 11.6356 10.4953 11.7477C11.0878 12.3225 11.5852 12.9877 11.9689 13.7186C11.9918 13.7601 11.9973 13.8091 11.9842 13.8547C11.971 13.9002 11.9403 13.9387 11.8988 13.9617C11.8571 13.9842 11.8083 13.9894 11.7628 13.9763C11.7172 13.9632 11.6787 13.9328 11.6553 13.8916C11.3038 13.3676 10.9001 12.8806 10.4503 12.4382C10.1667 12.1556 9.86766 11.8872 9.55961 11.6334C8.42559 12.0899 7.34429 12.6678 6.33461 13.357C5.44437 13.9438 4.62012 14.6251 3.87621 15.389C4.32885 15.9948 4.82622 16.5659 5.36416 17.0975C5.96793 17.704 6.63418 18.245 7.3518 18.7113C8.21599 18.277 9.0386 17.7645 9.80935 17.1803C9.70942 17.0124 9.67255 16.8145 9.70533 16.622C9.73812 16.4294 9.83842 16.2548 9.98826 16.1295C10.1381 16.0042 10.3277 15.9364 10.523 15.9382C10.7183 15.94 10.9066 16.0114 11.0541 16.1394C11.2015 16.2675 11.2986 16.4439 11.3278 16.637C11.357 16.8301 11.3165 17.0274 11.2134 17.1933C11.1104 17.3592 10.9516 17.483 10.7656 17.5425C10.5796 17.602 10.3784 17.5933 10.1982 17.5179C9.47302 18.0784 8.71148 18.5902 7.9186 19.05C9.23205 19.7767 10.5305 20.0903 11.6315 19.945C12.8078 18.8129 13.5419 17.2985 13.7019 15.6738C13.8619 14.0491 13.4373 12.4206 12.5044 11.0808V11.0806ZM7.1921 19.441C5.02695 20.5326 3.47491 20.6286 2.6305 20.4057C3.81626 21.3366 5.27555 21.8513 6.78298 21.8702C8.29041 21.889 9.76212 21.4111 10.9708 20.5101C10.4077 20.5148 8.97631 20.419 7.19145 19.4393L7.1921 19.441Z" fill="#E6E7F5"/>
</g>
</g>
</g>
<defs>
<clipPath id="clip0_10196_709">
<rect width="70" height="30" fill="white"/>
</clipPath>
<clipPath id="clip1_10196_709">
<rect width="70" height="30" fill="white"/>
</clipPath>
<clipPath id="clip2_10196_709">
<rect width="70" height="13.7352" fill="white" transform="translate(0 8.13281)"/>
</clipPath>
</defs>
</svg>
