<svg width="2025" height="209" viewBox="0 0 2025 209" fill="none" xmlns="http://www.w3.org/2000/svg">
<path fill-rule="evenodd" clip-rule="evenodd" d="M318.489 93.0498H242.914V87.5458H245.314C254.338 87.5458 257.009 84.3328 257.009 77.4168V21.0038C257.009 12.7038 252.23 10.8498 245.872 10.8498H243.197V5.3418H290.984V10.8498H286.914C279.589 10.8498 276.48 14.1078 276.48 20.7208V78.8418C276.48 84.0378 278.03 85.2998 283.526 85.2998H301.43C310.872 85.2998 313.693 80.6578 323.139 68.5458H328.789L318.489 93.0498Z" fill="#092F56"/>
<path fill-rule="evenodd" clip-rule="evenodd" d="M332.547 5.3418H377.384V10.8498H374.976C367.368 10.8498 364.28 14.1078 364.28 21.4208V77.2828C364.28 84.1668 366.659 87.5458 375.276 87.5458H377.384V93.0498H332.547V87.5458H334.526C342.001 87.5458 344.818 84.0378 344.818 77.8328V21.4208C344.818 14.1078 342.289 10.8498 334.393 10.8498H332.547V5.3418Z" fill="#092F56"/>
<path fill-rule="evenodd" clip-rule="evenodd" d="M407.939 76.1288C407.939 84.7538 410.63 87.5458 421.893 87.5458V93.0498H387.789V87.5458H388.622C397.226 87.5458 399.355 84.4538 399.355 78.6748V13.9418C396.247 11.8618 392.439 10.8498 388.068 10.8498V5.3418H417.105L474.639 65.4418V22.8458C474.639 12.7038 472.522 10.8498 461.239 10.8498H459.826V5.3418H496.213V10.8498H494.801C486.043 10.8498 483.259 12.7038 483.259 18.0418V93.4668H475.488L407.938 22.8458L407.939 76.1288Z" fill="#092F56"/>
<path fill-rule="evenodd" clip-rule="evenodd" d="M596.037 67.842C594.908 75.325 591.529 86.154 588.167 93.467C585.896 92.767 583.079 92.492 579.829 92.492C573.196 92.492 566.154 95.025 555.579 95.025C526.671 95.025 504.258 75 504.258 49.508C504.258 23.558 528.079 3.25 558.254 3.25C572.933 3.25 582.504 9.029 585.35 9.029C586.467 9.029 587.312 8.6 588.167 7.6H591.687L592.946 32.3H587.433C582.933 18.317 572.933 10.421 559.396 10.421C539.225 10.421 525.262 25.663 525.262 47.95C525.262 70.663 540.783 88.125 560.937 88.125C573.908 88.125 584.625 80.658 590.4 67.842H596.037Z" fill="#092F56"/>
<path fill-rule="evenodd" clip-rule="evenodd" d="M663.259 88.9954C682.847 88.9954 692.014 72.0374 692.014 52.6124C692.014 29.9124 680.718 8.76641 659.301 8.76641C641.376 8.76641 629.705 22.5874 629.705 43.8494C629.705 70.8034 643.376 88.9954 663.259 88.9954ZM662.684 2.69141C692.159 2.69141 713.026 21.1574 713.026 47.5074C713.026 72.6124 693.705 95.0244 660.009 95.0244C627.572 95.0244 608.672 74.3124 608.672 50.6074C608.672 22.7034 631.239 2.69141 662.684 2.69141Z" fill="#092F56"/>
<path fill-rule="evenodd" clip-rule="evenodd" d="M796.747 93.0498H721.172V87.5458H723.58C732.597 87.5458 735.284 84.3328 735.284 77.4168V21.0038C735.284 12.7038 730.484 10.8498 724.13 10.8498H721.455V5.3418H769.259V10.8498H765.172C757.83 10.8498 754.726 14.1078 754.726 20.7208V78.8418C754.726 84.0378 756.284 85.2998 761.789 85.2998H779.697C789.139 85.2998 791.968 80.6578 801.418 68.5458H807.047L796.747 93.0498Z" fill="#092F56"/>
<path fill-rule="evenodd" clip-rule="evenodd" d="M831.025 76.1288C831.025 84.7538 833.717 87.5458 844.988 87.5458V93.0498H810.867V87.5458H811.692C820.325 87.5458 822.429 84.4538 822.429 78.6748V13.9418C819.333 11.8618 815.521 10.8498 811.159 10.8498V5.3418H840.209L897.725 65.4418V22.8458C897.725 12.7038 895.592 10.8498 884.309 10.8498H882.934V5.3418H919.309V10.8498H917.896C909.138 10.8498 906.334 12.7038 906.334 18.0418V93.4668H898.575L831.025 22.8458V76.1288Z" fill="#092F56"/>
<path fill-rule="evenodd" clip-rule="evenodd" d="M1046.38 93.0498H970.812V87.5458H973.199C982.216 87.5458 984.908 84.3328 984.908 77.4168V21.0038C984.908 12.7038 980.137 10.8498 973.783 10.8498H971.108V5.3418H1018.88V10.8498H1014.82C1007.47 10.8498 1004.37 14.1078 1004.37 20.7208V78.8418C1004.37 84.0378 1005.92 85.2998 1011.42 85.2998H1029.34C1038.8 85.2998 1041.6 80.6578 1051.04 68.5458H1056.66L1046.38 93.0498Z" fill="#092F56"/>
<path fill-rule="evenodd" clip-rule="evenodd" d="M1104.43 19.767L1092.58 52.754H1117.41L1104.43 19.767ZM1089.79 60.504L1083.84 76.975C1081.31 84.167 1081.45 87.546 1094.99 87.546H1096.82V93.05H1059.46V87.546H1061.56C1068.34 87.546 1071.85 84.454 1075.38 74.571L1099.51 7.329L1097.95 3.25H1118.82L1147.02 74.896C1150.69 84.167 1153.79 87 1161.1 87.546V93.05H1115.29V87.546H1120.22C1128.82 87.546 1130.08 83.754 1127.27 76.854L1120.64 60.504H1089.79Z" fill="#092F56"/>
<path fill-rule="evenodd" clip-rule="evenodd" d="M1206.24 74.042C1206.24 84.333 1210.05 86.738 1219.08 86.738C1234.87 86.738 1238.82 76.571 1238.82 67.108C1238.82 58.663 1234.87 46.117 1216.57 46.117C1213.86 46.117 1208.36 46.392 1206.24 46.533V74.042ZM1206.24 40.496C1209.35 40.613 1214.43 40.754 1217.12 40.754C1231.21 40.754 1234.73 33.129 1234.73 25.937C1234.73 17.9 1230.78 8.767 1213.71 8.767C1210.76 8.767 1208.64 8.862 1206.24 9.183V40.496ZM1186.79 23.275C1186.79 12.408 1185.24 10.85 1174.52 10.85H1170.98V5.342C1174.52 5.25 1181.28 4.654 1188.76 4.225C1197.24 3.808 1205.55 3.25 1211.6 3.25C1229.22 3.25 1242.77 5.654 1250.39 13.25C1253.9 16.783 1255.75 21.717 1255.75 26.054C1255.75 34.675 1250.1 40.029 1238.39 42.575V42.871C1252.05 45.833 1260.7 55.133 1260.7 66.558C1260.7 80.938 1247.58 93.05 1224.28 93.05H1169.74V87.546C1183.53 87.546 1186.79 84.038 1186.79 75.717L1186.79 23.275Z" fill="#092F56"/>
<path fill-rule="evenodd" clip-rule="evenodd" d="M1328.65 88.9954C1348.24 88.9954 1357.41 72.0374 1357.41 52.6124C1357.41 29.9124 1346.13 8.76641 1324.71 8.76641C1306.78 8.76641 1295.08 22.5874 1295.08 43.8494C1295.08 70.8034 1308.75 88.9954 1328.65 88.9954ZM1328.09 2.69141C1357.55 2.69141 1378.42 21.1574 1378.42 47.5074C1378.42 72.6124 1359.08 95.0244 1325.4 95.0244C1292.97 95.0244 1274.1 74.3124 1274.1 50.6074C1274.1 22.7034 1296.63 2.69141 1328.09 2.69141Z" fill="#092F56"/>
<path fill-rule="evenodd" clip-rule="evenodd" d="M1419.83 49.912L1425.34 49.911C1442.37 49.911 1452.24 44.691 1452.24 29.624C1452.24 14.666 1440.83 9.299 1427.16 9.299H1419.83V49.912ZM1419.83 77.283C1419.83 84.454 1422.92 87.546 1430.98 87.546H1435.19V93.05H1385.84V87.546H1388.08C1396.71 87.546 1400.36 85.454 1400.36 77.283V21.587C1400.36 14.812 1398.55 10.85 1389.09 10.85H1386.11V5.342C1393.16 4.929 1398.55 4.654 1404.31 4.225C1412.22 3.692 1422.36 3.25 1427.41 3.25C1448.19 3.25 1459.45 5.912 1466.49 12.992C1471.15 17.625 1473.27 22.979 1473.27 29.042C1473.27 39.767 1465.52 48.221 1452.41 51.729C1461.69 59.521 1466.62 70.662 1476.64 80.658C1482.44 86.429 1486.37 88.125 1495.25 88.996V94.492C1492.16 94.608 1490.75 94.608 1486.51 94.608C1469.04 94.608 1461.84 92.079 1455.23 85.454C1448.19 78.413 1440.01 63.587 1430.98 55.829H1419.83V77.283Z" fill="#092F56"/>
<path fill-rule="evenodd" clip-rule="evenodd" d="M1547.03 19.767L1535.18 52.754H1560.02L1547.03 19.767ZM1532.38 60.504L1526.44 76.975C1523.9 84.167 1524.05 87.546 1537.6 87.546H1539.43V93.05H1502.05V87.546H1504.17C1510.92 87.546 1514.48 84.454 1518.02 74.571L1542.09 7.329L1540.53 3.25H1561.43L1589.6 74.896C1593.27 84.167 1596.37 87 1603.73 87.546V93.05H1557.89L1557.89 87.546H1562.83C1571.43 87.546 1572.66 83.754 1569.88 76.854L1563.27 60.504H1532.38Z" fill="#092F56"/>
<path fill-rule="evenodd" clip-rule="evenodd" d="M1659.58 76.9748C1659.58 84.3328 1661.84 87.5458 1671.86 87.5458H1675.25V93.0498H1624.49V87.5458H1629.29C1637.02 87.5458 1640.14 84.4538 1640.14 76.9748V12.7038H1623.5C1612.62 12.7038 1610.95 14.3668 1608.26 29.3118H1602.51L1605.02 2.9668H1609.52C1610.67 3.9498 1611.4 4.6538 1612.2 4.9288C1613.22 5.2498 1614.33 5.3418 1616.32 5.3418H1683.45C1687.24 5.3418 1687.93 5.0708 1690.2 2.9668H1694.71L1697.22 29.3118H1691.45C1688.79 14.5208 1687.1 12.7038 1676.24 12.7038H1659.58V76.9748Z" fill="#092F56"/>
<path fill-rule="evenodd" clip-rule="evenodd" d="M1762.65 88.9954C1782.26 88.9954 1791.42 72.0374 1791.42 52.6124C1791.42 29.9124 1780.15 8.76641 1758.69 8.76641C1740.8 8.76641 1729.08 22.5874 1729.08 43.8494C1729.08 70.8034 1742.79 88.9954 1762.65 88.9954ZM1762.11 2.69141C1791.56 2.69141 1812.44 21.1574 1812.44 47.5074C1812.44 72.6124 1793.13 95.0244 1759.4 95.0244C1726.99 95.0244 1708.1 74.3124 1708.1 50.6074C1708.1 22.7034 1730.63 2.69141 1762.11 2.69141Z" fill="#092F56"/>
<path fill-rule="evenodd" clip-rule="evenodd" d="M1853.85 49.912L1859.34 49.911C1876.4 49.911 1886.26 44.691 1886.26 29.624C1886.26 14.666 1874.84 9.299 1861.16 9.299H1853.85V49.912ZM1853.85 77.283C1853.85 84.454 1856.95 87.546 1864.97 87.546H1869.2V93.05H1819.84V87.546H1822.11C1830.73 87.546 1834.36 85.454 1834.36 77.283V21.587C1834.36 14.812 1832.54 10.85 1823.11 10.85H1820.17V5.342C1827.18 4.929 1832.54 4.654 1838.33 4.225C1846.21 3.692 1856.39 3.25 1861.46 3.25C1882.17 3.25 1893.46 5.912 1900.51 12.992C1905.18 17.625 1907.28 22.979 1907.28 29.042C1907.28 39.767 1899.52 48.221 1886.41 51.729C1895.71 59.521 1900.65 70.662 1910.67 80.658C1916.44 86.429 1920.41 88.125 1929.28 88.996V94.492C1926.16 94.608 1924.76 94.608 1920.54 94.608C1903.07 94.608 1895.84 92.079 1889.25 85.454C1882.17 78.413 1874.01 63.587 1864.97 55.829H1853.85V77.283Z" fill="#092F56"/>
<path fill-rule="evenodd" clip-rule="evenodd" d="M1985.22 77.1418C1985.22 83.8958 1987.36 87.5458 1997.5 87.5458H1999.61V93.0498H1951.55V87.5458H1955.06C1963.52 87.5458 1965.81 83.7538 1965.81 77.4168V57.8208L1935.48 17.4828C1931.38 12.1208 1929.68 10.8498 1922.64 10.8498H1921.66V5.3418H1967.62V10.8498H1965.92C1957.77 10.8498 1956.61 14.2498 1959.57 18.0418L1982.14 47.7958L1998.49 22.1458C2002.15 16.3708 2003.29 10.8498 1993.41 10.8498H1991.74V5.3418H2025V10.8498C2016.83 11.4458 2014.44 12.9918 2009.36 20.7208L1985.22 57.8208V77.1418Z" fill="#092F56"/>
<path fill-rule="evenodd" clip-rule="evenodd" d="M323.917 205.44H297.354V200.427H298.984C301.763 200.427 303.729 199.894 304.671 198.861C305.263 198.231 305.5 197.365 305.413 196.211L303.179 161.656L282.713 205.44H278.559L257.579 161.577L255.5 196.373C255.425 197.54 255.646 198.406 256.175 198.973C256.963 199.84 258.546 200.327 261.175 200.427L262.754 200.481V205.44H240.617V200.427H242.263C247.558 200.427 248.071 200.198 248.492 192.286L250.675 157.006C251.021 151.227 250.917 151.044 246.775 150.79L245.233 150.706V145.898H261.592L282.409 189.377L303.109 145.898H319.117V150.681L317.604 150.79C313.042 151.161 313.046 151.206 313.134 152.565L316.029 193.615C316.475 200.427 316.475 200.427 322.275 200.427H323.917V205.44Z" fill="#092F56"/>
<path fill-rule="evenodd" clip-rule="evenodd" d="M347.677 179.57H355.148L351.348 169.507L347.677 179.57ZM377.919 205.441H355.227V200.816H358.714C361.773 200.816 362.414 200.491 362.539 200.374C362.569 199.37 362.256 198.62 362.014 198.012L357.573 185.961H345.273L341.248 196.853C340.927 197.649 340.269 199.341 340.269 199.836C340.269 200.678 342.81 200.816 344.331 200.816H347.123V205.441H327.523V200.832L329.144 200.816C332.71 200.741 333.094 200.732 335.239 194.891L347.864 160.462L346.552 157.207H356.269L371.41 197.416C372.552 200.482 373.348 200.816 376.277 200.816H377.919V205.441Z" fill="#092F56"/>
<path fill-rule="evenodd" clip-rule="evenodd" d="M396.381 206.553C393.573 206.553 390.386 205.678 388.277 205.091C387.473 204.866 386.848 204.674 386.523 204.645L386.036 205.391L382.548 205.441L380.602 191.411H385.131L385.419 192.686C386.677 197.966 390.715 201.361 395.744 201.361C399.64 201.361 403.823 199.274 403.823 194.682C403.823 190.761 399.106 187.77 394.098 184.628C388.052 180.82 381.198 176.478 381.198 169.099C381.198 162.336 387.294 157.207 395.394 157.207C399.269 157.207 401.34 157.953 402.852 158.478C403.727 158.803 404.298 158.986 404.977 158.986L405.477 158.324L408.815 158.286L410.469 170.545H406.256L405.844 169.495C404.115 165.07 400.265 162.207 396.036 162.207C392.294 162.207 389.777 164.207 389.777 167.199C389.777 170.974 394.369 173.824 399.223 176.849C405.402 180.678 412.411 185.045 412.411 192.886C412.411 200.674 405.519 206.553 396.381 206.553Z" fill="#092F56"/>
<path fill-rule="evenodd" clip-rule="evenodd" d="M433.111 206.553C430.307 206.553 427.116 205.678 424.995 205.091C424.199 204.866 423.574 204.674 423.266 204.645L422.77 205.391L419.265 205.441L417.336 191.411H421.861L422.161 192.686C423.395 197.966 427.445 201.361 432.47 201.361C436.374 201.361 440.565 199.274 440.565 194.682C440.565 190.761 435.845 187.77 430.849 184.628C424.782 180.82 417.924 176.478 417.924 169.099C417.924 162.336 424.036 157.207 432.12 157.207C436.011 157.207 438.065 157.953 439.582 158.478C440.453 158.803 441.024 158.986 441.72 158.986L442.203 158.37L445.545 158.286L447.174 170.545H442.982L442.574 169.495C440.857 165.07 437.007 162.207 432.761 162.207C429.024 162.207 426.507 164.207 426.507 167.199C426.507 170.974 431.099 173.824 435.949 176.849C442.128 180.678 449.136 185.045 449.136 192.886C449.136 200.674 442.245 206.553 433.111 206.553Z" fill="#092F56"/>
<path fill-rule="evenodd" clip-rule="evenodd" d="M470.837 179.57H478.302L474.499 169.507L470.836 179.57H470.837ZM501.07 205.441H478.408V200.816H481.863C484.938 200.816 485.574 200.491 485.703 200.374C485.732 199.374 485.424 198.632 485.182 198.02L480.725 185.962H468.432L464.345 197.041C464.028 197.845 463.432 199.374 463.428 199.837C463.428 200.678 465.967 200.816 467.483 200.816H470.263V205.441H450.688V200.832L452.303 200.816C455.895 200.741 456.267 200.732 458.417 194.891L471.017 160.457L469.738 157.207H479.424L494.561 197.416C495.699 200.47 496.553 200.816 499.428 200.816H501.07V205.441Z" fill="#092F56"/>
<path fill-rule="evenodd" clip-rule="evenodd" d="M526.82 206.553C511.611 206.553 500.57 196.407 500.57 182.407C500.57 167.82 511.903 157.207 527.528 157.207C533.741 157.207 537.574 158.528 540.107 159.399C541.091 159.753 541.949 160.036 542.391 160.036L542.886 159.424L543.686 159.624H546.261L547.124 173.145H542.857L542.474 172.049C540.324 166.016 534.774 162.27 527.957 162.27C517.349 162.27 510.503 169.637 510.503 181.016C510.503 192.495 518.507 201.503 528.728 201.503C535.716 201.503 540.87 198.37 544.495 191.907L544.961 191.066H549.441L548.845 193.17C547.87 196.545 545.899 201.062 544.157 203.882L543.591 204.787L542.52 204.632C540.636 204.387 539.028 204.766 536.832 205.266C534.378 205.845 531.32 206.553 526.82 206.553Z" fill="#092F56"/>
<path fill-rule="evenodd" clip-rule="evenodd" d="M606.661 205.442H583.416V200.817H587.245C590.782 200.817 591.178 200.058 591.178 197.146V184.479H566.82V196.267C566.82 200.254 567.311 200.817 570.816 200.817H572.465L572.674 203.783V205.442H551.695V200.817H553.753C557.299 200.817 557.682 200.083 557.682 197.304V166.292C557.682 163.687 557.399 163.142 554.128 162.912L552.603 162.812V158.287H572.674V162.912H571.032C567.299 162.912 566.82 163.108 566.82 168.058V178.675H591.178V166.433C591.178 163.775 590.87 162.912 587.245 162.912H584.27V158.287H605.678V162.867L604.095 162.912C600.766 163.025 600.307 163.525 600.307 167.058V196.304C600.307 200.421 601.024 200.817 604.295 200.817H606.661V205.442Z" fill="#092F56"/>
<path fill-rule="evenodd" clip-rule="evenodd" d="M637.732 206.554C624.357 206.554 615.711 198.942 615.711 187.175V166.554C615.711 163.283 615.591 162.992 611.266 162.912L609.641 162.892V158.287H631.057V162.912H628.757C625.499 162.912 624.853 163.513 624.853 166.433V186.008C624.853 194.913 629.836 199.608 639.261 199.608C645.853 199.608 653.703 197.258 653.703 185.954V169.517C653.703 163.425 653.107 163.138 648.361 162.913L646.786 162.846V158.288H666.653V162.892L665.028 162.913C661.307 162.988 660.236 164.079 660.236 167.763V186.813C660.236 195.908 654.341 206.554 637.732 206.554Z" fill="#092F56"/>
<path fill-rule="evenodd" clip-rule="evenodd" d="M684.533 206.553C681.721 206.553 678.525 205.678 676.421 205.082C675.621 204.862 675 204.674 674.683 204.645L674.2 205.399L670.696 205.441L668.758 191.412H673.254L673.558 192.678C674.821 197.957 678.875 201.362 683.9 201.362C687.783 201.362 691.987 199.274 691.987 194.682C691.987 190.762 687.262 187.77 682.267 184.628C676.217 180.82 669.362 176.478 669.362 169.099C669.362 162.337 675.446 157.207 683.537 157.207C687.421 157.207 689.492 157.953 691.004 158.478C691.875 158.803 692.446 158.987 693.121 158.987L693.617 158.332L696.967 158.287L698.587 170.545H694.408L693.992 169.495C692.267 165.07 688.417 162.207 684.167 162.207C680.421 162.207 677.904 164.207 677.904 167.199C677.904 170.974 682.5 173.824 687.35 176.849C693.546 180.678 700.554 185.045 700.554 192.887C700.554 200.674 693.667 206.553 684.533 206.553Z" fill="#092F56"/>
<path fill-rule="evenodd" clip-rule="evenodd" d="M742.635 205.442H702.094V200.817H705.698C710.469 200.817 710.681 199.896 710.681 196.679V166.892C710.681 163.679 710.302 162.912 706.665 162.912H703.477V158.287H740.519L741.264 171.392H736.856L736.635 170.008C735.74 164.133 734.235 164.133 733.039 164.133H719.819V178.183H730.781C732.015 178.183 732.91 178.183 733.227 174.404L733.352 172.896H737.856V189.583H733.402L733.235 188.112C732.773 184 732.144 184 730.065 184H719.819V197.367C719.819 199.608 720.144 199.608 721.981 199.608H732.823C736.519 199.608 737.689 198.825 739.456 192.817L739.794 191.646H744.102L742.635 205.442Z" fill="#092F56"/>
<path fill-rule="evenodd" clip-rule="evenodd" d="M783.144 205.441H757.644V200.816H761.902C765.369 200.816 765.84 200.112 765.84 197.303V164.132H755.202C753.956 164.132 752.777 164.132 751.677 170.566L751.444 171.924H746.969L748.431 157.207H752.686L752.827 158.228C753.065 158.266 753.256 158.287 753.444 158.287H787.356C787.644 158.287 787.84 158.266 787.969 158.241L788.144 157.207H792.36L793.798 171.924H789.356L789.123 170.566C788.023 164.132 786.844 164.132 785.602 164.132H774.969V197.303C774.969 200.112 775.431 200.816 778.902 200.816H783.144V205.441Z" fill="#092F56"/>
<path fill-rule="evenodd" clip-rule="evenodd" d="M833.71 205.441H808.239V200.816H812.464C815.951 200.816 816.41 200.112 816.41 197.303V164.132H805.776C804.485 164.132 803.355 164.132 802.239 170.566L801.997 171.924H797.555L798.997 157.207H803.239L803.393 158.224C803.626 158.266 803.835 158.287 804.01 158.287H837.91C838.21 158.287 838.405 158.257 838.56 158.241L838.714 157.207H842.935L844.389 171.924H839.91L839.676 170.566C838.58 164.132 837.455 164.132 836.16 164.132H825.543V197.303C825.543 200.112 826.014 200.816 829.455 200.816H833.71V205.441Z" fill="#092F56"/>
<path fill-rule="evenodd" clip-rule="evenodd" d="M864.115 206.553C861.315 206.553 858.135 205.678 856.031 205.091C855.214 204.866 854.602 204.674 854.277 204.645L853.785 205.391L850.273 205.441L848.352 191.411H852.864L853.169 192.686C854.41 197.966 858.465 201.361 863.498 201.361C867.381 201.361 871.569 199.274 871.569 194.682C871.569 190.761 866.848 187.77 861.856 184.628C855.81 180.82 848.944 176.478 848.944 169.099C848.944 162.336 855.044 157.207 863.123 157.207C867.006 157.207 869.065 157.953 870.577 158.478C871.46 158.803 872.031 158.986 872.731 158.986L873.227 158.311L876.573 158.286L878.185 170.545H874.006L873.602 169.495C871.877 165.07 868.01 162.207 863.76 162.207C860.031 162.207 857.527 164.207 857.527 167.199C857.527 170.974 862.11 173.824 866.96 176.849C873.148 180.678 880.148 185.045 880.148 192.886C880.148 200.674 873.265 206.553 864.115 206.553Z" fill="#092F56"/>
<path fill-rule="evenodd" clip-rule="evenodd" d="M942.964 205.441H917.664V200.491L919.23 200.428C923.718 200.212 924.43 199.774 924.43 194.261V155.682C924.43 151.812 923.609 151.02 919.218 150.791L917.664 150.72V145.766H942.964V150.791H941.318C936.176 150.791 935.276 151.645 935.276 156.474V194.899C935.276 199.316 935.997 200.428 941.318 200.428H942.964V205.441Z" fill="#092F56"/>
<path fill-rule="evenodd" clip-rule="evenodd" d="M999.453 205.908H995.286L961.075 170.162V196.304C961.075 200.292 961.282 200.817 966.57 200.817H968.203V205.442H948.562V200.817H950.203C954.428 200.817 954.625 199.629 954.625 197.746V163.958C953.458 163.292 952.082 162.979 950.307 162.912L948.711 162.871V158.287H962.142L992.963 190.467V166.5C992.963 163.558 992.962 163.046 987.661 162.912L986.067 162.879V158.287H1005.84V162.912H1004.19C999.454 162.912 999.453 163.546 999.453 164.954V205.908Z" fill="#092F56"/>
<path fill-rule="evenodd" clip-rule="evenodd" d="M1024.16 206.553C1021.37 206.553 1018.2 205.678 1016.08 205.091C1015.29 204.866 1014.66 204.674 1014.32 204.645L1013.83 205.391L1010.32 205.441L1008.4 191.411H1012.92L1013.2 192.686C1014.45 197.966 1018.5 201.361 1023.53 201.361C1027.43 201.361 1031.61 199.274 1031.61 194.682C1031.61 190.761 1026.87 187.77 1021.89 184.628C1015.83 180.82 1008.97 176.478 1008.97 169.099C1008.97 162.336 1015.08 157.207 1023.18 157.207C1027.05 157.207 1029.13 157.953 1030.62 158.478C1031.49 158.803 1032.07 158.986 1032.76 158.986L1033.24 158.311L1036.61 158.286L1038.24 170.545H1034.04L1033.63 169.495C1031.9 165.07 1028.06 162.207 1023.8 162.207C1020.06 162.207 1017.56 164.207 1017.56 167.199C1017.56 170.974 1022.14 173.824 1026.99 176.849C1033.17 180.678 1040.17 185.045 1040.17 192.886C1040.17 200.674 1033.3 206.553 1024.16 206.553Z" fill="#092F56"/>
<path fill-rule="evenodd" clip-rule="evenodd" d="M1079.7 205.441H1054.21V200.816H1058.45C1061.92 200.816 1062.38 200.112 1062.38 197.303V164.132H1051.77C1050.51 164.132 1049.34 164.132 1048.2 170.566L1047.97 171.924H1043.52L1044.97 157.207H1049.27L1049.4 158.228C1049.62 158.266 1049.82 158.287 1050 158.287H1083.91C1084.17 158.287 1084.38 158.266 1084.52 158.241L1084.67 157.207H1088.92L1090.35 171.924H1085.9L1085.67 170.566C1084.57 164.132 1083.44 164.132 1082.15 164.132H1071.52V197.303C1071.52 200.112 1071.98 200.816 1075.43 200.816H1079.7V205.441Z" fill="#092F56"/>
<path fill-rule="evenodd" clip-rule="evenodd" d="M1114.82 205.442H1094.4V200.888L1095.96 200.817C1099.27 200.642 1099.7 200.388 1099.7 196.383V166.371C1099.7 163.721 1099.34 163.079 1095.96 162.912L1094.4 162.846V158.287H1114.82V162.912H1113.17C1109.37 162.912 1108.82 163.425 1108.82 166.992V196.887C1108.82 200.125 1109.2 200.817 1113.17 200.817H1114.82V205.442Z" fill="#092F56"/>
<path fill-rule="evenodd" clip-rule="evenodd" d="M1154.96 205.441H1129.46V200.816H1133.74C1137.21 200.816 1137.67 200.112 1137.67 197.303V164.132H1127.03C1125.72 164.132 1124.6 164.132 1123.5 170.566L1123.26 171.924H1118.8L1120.25 157.207H1124.49L1124.63 158.224C1124.86 158.266 1125.07 158.287 1125.26 158.287H1159.18C1159.46 158.287 1159.66 158.266 1159.78 158.241L1159.95 157.207H1164.18L1165.64 171.924H1161.2L1160.97 170.566C1159.85 164.132 1158.67 164.132 1157.45 164.132H1146.79V197.303C1146.79 200.112 1147.25 200.816 1150.71 200.816H1154.96V205.441Z" fill="#092F56"/>
<path fill-rule="evenodd" clip-rule="evenodd" d="M1196.73 206.554C1183.38 206.554 1174.73 198.942 1174.73 187.175V166.554C1174.73 163.283 1174.61 162.992 1170.29 162.912L1168.68 162.892V158.287H1190.07V162.912H1187.79C1184.53 162.912 1183.87 163.513 1183.87 166.433V186.008C1183.87 194.913 1188.86 199.608 1198.3 199.608C1204.85 199.608 1212.71 197.258 1212.71 185.954V169.517C1212.71 163.425 1212.1 163.138 1207.37 162.913L1205.81 162.846V158.288H1225.65V162.892L1224.05 162.913C1220.33 162.988 1219.26 164.079 1219.26 167.763V186.813C1219.26 195.908 1213.35 206.554 1196.73 206.554Z" fill="#092F56"/>
<path fill-rule="evenodd" clip-rule="evenodd" d="M1264.65 205.441H1239.12V200.816H1243.4C1246.87 200.816 1247.33 200.112 1247.33 197.303V164.132H1236.68C1235.45 164.132 1234.26 164.132 1233.14 170.574L1232.89 171.924H1228.46L1229.9 157.207H1234.13L1234.29 158.224C1234.49 158.257 1234.69 158.287 1234.92 158.287H1268.84C1269.11 158.287 1269.32 158.257 1269.44 158.241L1269.61 157.207H1273.87L1275.31 171.924H1270.82L1270.59 170.557C1269.52 164.132 1268.32 164.132 1267.09 164.132H1256.46V197.303C1256.46 200.112 1256.92 200.816 1260.39 200.816H1264.65V205.441Z" fill="#092F56"/>
<path fill-rule="evenodd" clip-rule="evenodd" d="M1317.65 205.442H1277.1V200.817H1280.7C1285.68 200.817 1285.68 199.692 1285.68 196.679V166.892C1285.68 163.679 1285.33 162.912 1281.7 162.912H1278.51V158.287H1315.54L1316.29 171.392H1311.89L1311.68 170.008C1310.75 164.133 1309.27 164.133 1308.06 164.133H1294.84V178.183H1305.83C1307 178.183 1307.95 178.183 1308.26 174.404L1308.41 172.896H1312.89V189.583H1308.44L1308.26 188.121C1307.8 184 1307.17 184 1305.11 184H1294.84V197.367C1294.84 199.608 1295.22 199.608 1296.99 199.608H1307.85C1311.55 199.608 1312.71 198.825 1314.48 192.817L1314.84 191.646H1319.16L1317.65 205.442Z" fill="#092F56"/>
<path fill-rule="evenodd" clip-rule="evenodd" d="M1367.67 162.27C1356.15 162.27 1351.96 173.257 1351.96 180.653C1351.96 192.536 1359.97 201.503 1370.63 201.503C1381.17 201.503 1385.98 191.903 1385.98 183.003C1385.98 170.799 1378.46 162.27 1367.67 162.27ZM1369.17 206.553C1353.72 206.553 1342.06 196.374 1342.06 182.849C1342.06 167.986 1353.59 157.207 1369.52 157.207C1384.3 157.207 1395.88 167.507 1395.88 180.653C1395.88 195.174 1384.14 206.553 1369.17 206.553Z" fill="#092F56"/>
<path fill-rule="evenodd" clip-rule="evenodd" d="M1420.56 205.442H1400.15V200.908L1401.68 200.817C1405.06 200.596 1405.33 200.575 1405.33 195.55V167.917C1405.33 163.588 1405.1 162.979 1401.65 162.912L1400.05 162.892V158.287H1434.88V169.908H1430.42L1430.4 168.3C1430.35 164.954 1429.53 164.133 1426.21 164.133H1414.42V177.4H1426.75C1427.96 177.4 1429.05 177.175 1429.19 174.442L1429.29 172.896H1433.69V188.583H1429.26L1429.19 187C1429.09 183.554 1428.15 183.221 1425.84 183.221H1414.42V197.042C1414.42 199.937 1414.42 200.817 1418.93 200.817H1420.56V205.442Z" fill="#092F56"/>
<path fill-rule="evenodd" clip-rule="evenodd" d="M1516.2 205.441H1484.39V200.428H1489.37C1494.17 200.428 1494.88 199.303 1494.88 195.42V152.341H1480.77C1478.57 152.341 1477.16 152.937 1475.76 161.028L1475.52 162.391H1470.7L1472.48 144.416H1477.02L1477.28 145.736C1477.59 145.703 1478.03 145.766 1478.5 145.766H1522.09C1522.94 145.766 1523.34 145.628 1523.4 145.553L1523.63 144.186L1524.91 144.416H1528.12L1529.92 162.391H1525.06L1524.83 161.024C1523.46 152.949 1521.97 152.341 1519.83 152.341H1505.72V195.42C1505.72 199.303 1506.43 200.428 1511.21 200.428H1516.2V205.441Z" fill="#092F56"/>
<path fill-rule="evenodd" clip-rule="evenodd" d="M1573.67 205.442H1533.09V200.817H1536.72C1541.69 200.817 1541.69 199.763 1541.69 196.679V166.892C1541.69 163.679 1541.33 162.912 1537.7 162.912H1534.51V158.287H1571.51L1572.31 171.392H1567.91L1567.69 170.012C1566.74 164.133 1565.27 164.133 1564.07 164.133H1550.84V178.183H1561.8C1563.05 178.183 1563.96 178.183 1564.24 174.408L1564.37 172.896H1568.89V189.583H1564.42L1564.25 188.112C1563.81 184 1563.13 184 1561.11 184H1550.84V197.367C1550.84 199.608 1551.19 199.608 1552.99 199.608H1563.84C1567.54 199.608 1568.7 198.825 1570.46 192.817L1570.82 191.646H1575.1L1573.67 205.442Z" fill="#092F56"/>
<path fill-rule="evenodd" clip-rule="evenodd" d="M1605.89 206.553C1590.65 206.553 1579.61 196.407 1579.61 182.407C1579.61 167.82 1590.96 157.207 1606.57 157.207C1612.78 157.207 1616.6 158.528 1619.16 159.399C1620.13 159.753 1620.99 160.036 1621.44 160.036L1621.96 159.47L1622.72 159.624H1625.33L1626.16 173.145H1621.93L1621.54 172.049C1619.37 166.016 1613.81 162.27 1607.01 162.27C1596.38 162.27 1589.53 169.637 1589.53 181.016C1589.53 192.495 1597.56 201.503 1607.76 201.503C1614.75 201.503 1619.9 198.37 1623.56 191.903L1624.03 191.066H1628.48L1627.89 193.17C1626.91 196.549 1624.93 201.061 1623.19 203.882L1622.64 204.786L1621.58 204.632C1619.67 204.386 1618.08 204.757 1615.88 205.266C1613.43 205.845 1610.37 206.553 1605.89 206.553Z" fill="#092F56"/>
<path fill-rule="evenodd" clip-rule="evenodd" d="M1685.72 205.442H1662.46V200.817H1666.27C1669.83 200.817 1670.2 200.058 1670.2 197.146V184.479H1645.88V196.267C1645.88 200.254 1646.36 200.817 1649.85 200.817H1651.47L1651.71 203.783V205.442H1630.73V200.817H1632.8C1636.34 200.817 1636.73 200.083 1636.73 197.304V166.292C1636.73 163.721 1636.43 163.142 1633.18 162.912L1631.66 162.812V158.287H1651.71V162.912H1650.08C1646.35 162.912 1645.88 163.108 1645.88 168.058V178.675H1670.2V166.433C1670.2 163.775 1669.9 162.912 1666.27 162.912H1663.33V158.287H1684.68V162.867L1683.1 162.912C1679.8 163.025 1679.34 163.525 1679.34 167.058V196.304C1679.34 200.421 1680.05 200.817 1683.35 200.817H1685.72V205.442Z" fill="#092F56"/>
<path fill-rule="evenodd" clip-rule="evenodd" d="M1740.47 205.908H1736.3L1702.14 170.162V196.304C1702.14 200.133 1702.14 200.817 1707.58 200.817H1709.24V205.442H1689.62V200.817H1691.25C1695.4 200.817 1695.67 199.633 1695.67 197.746V163.958C1694.5 163.283 1693.15 162.979 1691.32 162.912L1689.74 162.871V158.287H1703.14L1734.01 190.467V166.5C1734.01 163.558 1734.01 163.046 1728.72 162.912L1727.1 162.879V158.287H1746.89V162.912H1745.25C1740.47 162.912 1740.47 163.546 1740.47 164.954V205.908Z" fill="#092F56"/>
<path fill-rule="evenodd" clip-rule="evenodd" d="M1774.93 162.27C1763.44 162.27 1759.23 173.257 1759.23 180.653C1759.23 192.536 1767.25 201.503 1777.87 201.503C1788.44 201.503 1793.25 191.903 1793.25 183.003C1793.25 170.799 1785.72 162.27 1774.93 162.27ZM1776.42 206.553C1760.96 206.553 1749.32 196.374 1749.32 182.849C1749.32 167.986 1760.86 157.207 1776.75 157.207C1791.57 157.207 1803.14 167.507 1803.14 180.653C1803.14 195.411 1791.65 206.553 1776.42 206.553Z" fill="#092F56"/>
<path fill-rule="evenodd" clip-rule="evenodd" d="M1839.83 205.442H1805.7V200.817H1809.65C1811.95 200.817 1812.47 200.562 1812.47 197.8V166.554C1812.47 163.8 1812.15 162.912 1808.52 162.912H1805.91V158.287H1830.01V162.912H1825.73C1821.59 162.912 1821.59 163.1 1821.59 166.137V198.667C1821.59 199.304 1821.71 199.471 1821.72 199.479C1821.72 199.479 1821.93 199.608 1822.77 199.608H1833.16C1836.33 199.608 1837.19 198.717 1841.68 192.529L1842.17 191.854H1847L1839.83 205.442Z" fill="#092F56"/>
<path fill-rule="evenodd" clip-rule="evenodd" d="M1874.35 162.27C1862.84 162.27 1858.66 173.257 1858.66 180.653C1858.66 192.536 1866.7 201.503 1877.32 201.503C1887.86 201.503 1892.68 191.903 1892.68 183.003C1892.68 170.799 1885.15 162.27 1874.35 162.27ZM1875.83 206.553C1860.39 206.553 1848.74 196.374 1848.74 182.849C1848.74 167.986 1860.28 157.207 1876.2 157.207C1890.98 157.207 1902.58 167.507 1902.58 180.653C1902.58 195.174 1890.82 206.553 1875.83 206.553Z" fill="#092F56"/>
<path fill-rule="evenodd" clip-rule="evenodd" d="M1932.7 206.553C1916.77 206.553 1908.45 194.553 1908.45 182.707C1908.45 172.474 1915.42 157.207 1934.65 157.207C1940.13 157.207 1944.32 158.428 1946.81 159.149C1947.59 159.37 1948.45 159.62 1948.71 159.624C1949.05 159.624 1949.22 159.557 1949.25 159.532L1949.72 159.141H1952.93L1952.93 173.845H1948.57L1948.3 172.545C1946.8 165.649 1942.61 162.27 1935.47 162.27C1923.64 162.27 1918.35 172.324 1918.35 182.266C1918.35 196.395 1928.27 201.503 1934.93 201.503C1938.03 201.503 1941.05 200.828 1944.1 199.412V191.599C1944.1 188.687 1943.61 187.882 1940.09 187.882H1935.84V183.312H1958.17V187.77L1956.63 187.882C1953.55 188.078 1953.21 188.87 1953.21 190.695V201.474L1952.33 201.924C1945 205.716 1935.66 206.553 1932.7 206.553Z" fill="#092F56"/>
<path fill-rule="evenodd" clip-rule="evenodd" d="M1996.18 205.442H1973.49V200.817H1976.48C1980.1 200.817 1980.46 199.763 1980.46 197.367V187.925L1968.17 168.746C1964.89 163.575 1963.67 163.033 1959.87 162.912L1958.26 162.871V158.287H1980.33V162.912H1978.67C1976.28 162.912 1975.52 163.208 1975.31 163.304C1975.4 163.329 1975.57 163.825 1976.29 164.988L1986.13 180.146L1994.73 165.533C1995.72 163.875 1995.57 163.338 1995.57 163.338C1995.57 163.338 1995.08 162.913 1992.52 162.913H1990.89V158.288H2010.14V162.804L2008.61 162.913C2004.44 163.229 2002.81 164.767 2001.07 167.683L1989.6 187.088V197.225C1989.6 200.004 1990.12 200.817 1993.6 200.817H1996.18V205.442Z" fill="#092F56"/>
<path fill-rule="evenodd" clip-rule="evenodd" d="M131.285 48.3281C134.989 50.6371 138.285 53.5161 141.148 56.9281C141.702 55.9161 142.073 55.1121 142.465 54.2661C142.731 53.6781 142.998 53.1241 143.302 52.4951C144.51 50.1411 144.865 48.1571 144.248 47.1451C143.631 46.1491 141.865 45.9871 140.873 45.9871C140.223 45.9871 139.527 46.0411 138.773 46.1701C136.589 46.5321 134.077 47.2411 131.285 48.3281ZM66.2523 45.9871C65.2563 45.9871 63.4893 46.1491 62.8643 47.1491C62.2563 48.1661 62.6023 50.1411 63.7943 52.4821C64.1143 53.1161 64.3733 53.6781 64.6393 54.2571C65.0393 55.1201 65.4193 55.9371 65.9983 56.9741C68.8523 53.6371 72.1693 50.7821 75.9143 48.4371C72.9733 47.2701 70.4403 46.5201 68.3393 46.1701C67.5943 46.0411 66.9023 45.9871 66.2523 45.9871ZM88.0233 48.5071C93.0903 51.2161 98.5103 54.5201 103.577 57.9991C108.944 54.2661 114.181 50.9991 119.06 48.3611C109.74 45.5161 97.6063 45.4491 88.0233 48.5071ZM108.006 61.1991C113.523 65.4951 119.848 71.3491 125.473 77.3661C128.773 73.6611 131.398 70.5661 133.448 67.9491C135.494 65.3121 137.039 63.2411 138.227 61.5321C134.723 57.0031 130.419 53.4411 125.389 50.9161C120.094 53.4821 114.156 57.0031 108.006 61.1991ZM68.9023 61.5571C70.0893 63.2661 71.6313 65.3241 73.6813 67.9491C75.7393 70.5871 78.4023 73.7201 81.7483 77.5071C87.3893 71.3821 93.7023 65.4871 99.1603 61.2451C93.3483 57.3451 87.2023 53.7281 81.7523 51.0611C76.6813 53.6451 72.3733 57.1611 68.9023 61.5571ZM128.956 81.2361C133.052 85.9321 137.785 91.9451 141.198 98.0741C144.427 88.8701 147.01 75.9281 141.306 66.1071C140.273 67.5241 139.019 69.1911 137.514 71.1411C135.323 73.9201 132.51 77.2321 128.964 81.1991L128.969 81.2071L128.956 81.2361ZM65.8103 66.1161C59.7983 76.4701 63.1983 90.1411 66.1813 98.2031C69.5443 92.0991 74.2313 86.0821 78.2943 81.3661L78.2693 81.3531L78.2733 81.3491C74.6773 77.3321 71.8233 73.9531 69.6143 71.1411C68.0983 69.1991 66.8443 67.5321 65.8103 66.1161ZM85.2273 81.3371C89.9523 86.5201 94.8523 91.6531 98.7813 95.7821C100.623 97.7161 102.252 99.4031 103.539 100.799L103.569 100.753L103.589 100.799C104.889 99.3991 106.506 97.6781 108.36 95.7621C112.306 91.6121 117.252 86.4071 121.998 81.1991C116.023 74.7661 109.227 68.5451 103.594 64.3411C97.9853 68.5371 91.2103 74.7991 85.2273 81.3371ZM107.081 104.62C108.364 105.999 110.056 107.762 111.973 109.807C115.802 113.812 120.564 118.82 125.206 123.882C131.485 116.503 136.194 109.724 138.644 104.47C136.194 98.9031 131.669 92.2661 125.464 85.0781C120.806 90.1701 115.977 95.2371 112.094 99.3161C110.119 101.382 108.402 103.212 107.081 104.62ZM68.8523 104.42C71.8603 110.553 76.3273 117.199 81.8853 123.895C86.5443 118.837 91.3273 113.803 95.1643 109.766C97.0893 107.749 98.7643 105.991 100.06 104.62C98.7393 103.216 97.0153 101.395 95.0443 99.3371C91.2023 95.3071 86.4233 90.2911 81.7773 85.2321C75.7693 92.2741 71.2353 98.9741 68.8523 104.42ZM66.4023 110.828C61.5193 125.041 61.3773 135.124 65.8143 143.107C66.8443 141.695 68.0983 140.024 69.6103 138.087C71.8443 135.228 74.7233 131.853 78.3733 127.753L78.3813 127.741C73.5733 122.007 69.5103 116.274 66.4023 110.828ZM128.694 127.72C132.373 131.832 135.26 135.224 137.51 138.087C139.019 140.032 140.273 141.703 141.306 143.12C145.798 135.378 145.715 124.562 141.073 110.866C138.144 115.887 133.915 121.637 128.694 127.707L128.698 127.72H128.694ZM85.2853 127.832C91.1813 134.412 97.8063 140.599 103.577 144.891C108.848 140.924 115.56 134.599 121.764 127.753C117.039 122.599 112.148 117.445 108.239 113.357C106.448 111.466 104.856 109.812 103.594 108.437L103.569 108.495L103.531 108.437C102.273 109.807 100.698 111.449 98.9023 113.341C94.9693 117.445 90.0443 122.632 85.2853 127.832ZM68.8653 147.728C72.2523 152.112 76.5523 155.632 81.6773 158.216C87.1353 155.545 93.3063 151.916 99.1403 147.995C93.5693 143.674 87.3693 137.832 81.8103 131.674C78.4273 135.449 75.7483 138.624 73.6813 141.278C71.6063 143.928 70.0563 146.016 68.8653 147.728ZM107.99 148.003C114.165 152.241 120.11 155.766 125.385 158.32C130.419 155.799 134.727 152.241 138.231 147.699C137.04 145.987 135.498 143.916 133.444 141.278C131.352 138.612 128.652 135.416 125.248 131.612C119.36 138.062 113.198 143.924 107.99 148.003ZM88.0023 160.778C97.5693 163.774 109.723 163.72 119.052 160.87C114.185 158.241 108.948 154.974 103.573 151.237C98.4813 154.737 93.0693 158.041 88.0023 160.778ZM65.9483 152.332C65.4023 153.345 65.0313 154.145 64.6403 154.987C64.3773 155.57 64.1193 156.132 63.8023 156.753C62.6063 159.099 62.2603 161.07 62.8603 162.053C63.4853 163.078 65.2563 163.241 66.2523 163.241C66.9023 163.241 67.5943 163.162 68.3523 163.057C70.4233 162.724 72.9233 161.987 75.8103 160.841C72.0563 158.495 68.7603 155.653 65.9483 152.332ZM131.285 160.916C134.077 161.995 136.59 162.703 138.777 163.057C139.527 163.162 140.223 163.241 140.873 163.241C141.869 163.241 143.631 163.078 144.252 162.062C144.865 161.078 144.506 159.107 143.31 156.778C142.998 156.132 142.727 155.57 142.465 154.978C142.073 154.128 141.702 153.324 141.148 152.307C138.285 155.695 134.99 158.595 131.285 160.916ZM140.873 168.391C139.985 168.391 139.015 168.32 137.981 168.145C134.39 167.603 130.16 166.203 125.377 164.02C118.998 166.791 111.665 168.174 103.569 168.174C95.5693 168.174 88.2193 166.762 81.7023 163.924C76.7563 166.195 72.5313 167.632 69.1483 168.145C63.9103 168.962 60.2403 167.682 58.4563 164.757C57.3313 162.891 56.5403 159.599 59.2023 154.437L59.9603 152.828C60.5653 151.495 61.2403 150.041 62.6193 147.828C62.1983 147.174 61.8103 146.512 61.4193 145.837C55.5813 135.524 56.1313 122.774 63.2103 104.574C60.0523 97.5031 52.8153 77.9871 61.4443 63.3491C61.8273 62.7031 62.2193 62.0661 62.6353 61.4281C61.2603 59.2161 60.5693 57.7571 59.9653 56.4281L59.1943 54.8031C56.5403 49.6371 57.3313 46.3321 58.4653 44.4621C60.2403 41.5491 63.9153 40.2491 69.1443 41.0781C72.5483 41.6121 76.7903 43.0571 81.7603 45.3451C88.2693 42.4871 95.5983 41.0531 103.569 41.0531C111.66 41.0531 118.998 42.4451 125.381 45.2161C130.16 43.0451 134.381 41.6371 137.969 41.0781C143.231 40.2661 146.869 41.5411 148.656 44.4621C149.785 46.3321 150.585 49.6371 147.902 54.8201L147.144 56.4281C146.54 57.7531 145.865 59.2071 144.481 61.4161C144.898 62.0531 145.306 62.7031 145.681 63.3491C153.619 76.8621 148.415 94.5531 144.248 104.557C151.094 122.016 151.569 135.878 145.681 145.878C145.306 146.532 144.898 147.174 144.481 147.787C145.865 150.032 146.544 151.495 147.148 152.828L147.915 154.453C150.585 159.599 149.785 162.899 148.656 164.766C147.227 167.091 144.465 168.391 140.873 168.391Z" fill="#092F56"/>
<path fill-rule="evenodd" clip-rule="evenodd" d="M0 4.30273H48.558L35.596 24.4947V183.745H141.1L165.708 166.449L144.996 204.899H0L12.287 183.745V24.4947L0 4.30273Z" fill="#092F56"/>
<path fill-rule="evenodd" clip-rule="evenodd" d="M207.186 204.899H158.627L171.59 184.732V25.4817H66.0726L41.4766 42.7567L62.1896 4.30273H207.186L194.898 25.4817V184.732L207.186 204.899Z" fill="#092F56"/>
</svg>
