<svg width="180" height="120" viewBox="0 0 180 120" fill="none" xmlns="http://www.w3.org/2000/svg">
<g clip-path="url(#clip0_11105_18654)">
<path d="M159.999 58.4813V56.0192H156.942V52.1914L156.839 52.2231L153.967 53.1017L153.91 53.1189V56.0192H149.378V54.4037C149.378 53.6514 149.546 53.0756 149.877 52.6917C150.207 52.3123 150.678 52.1195 151.278 52.1195C151.71 52.1195 152.157 52.2212 152.607 52.4218L152.72 52.4721V49.8791L152.667 49.8597C152.247 49.7088 151.676 49.6328 150.969 49.6328C150.077 49.6328 149.266 49.8268 148.56 50.2114C147.853 50.5966 147.296 51.1464 146.907 51.8456C146.518 52.5439 146.321 53.3504 146.321 54.2428V56.0192H144.192V58.4813H146.321V68.8537H149.378V58.4813H153.91V65.0728C153.91 67.7875 155.191 69.1633 157.716 69.1633C158.131 69.1633 158.568 69.1146 159.014 69.0193C159.468 68.9216 159.777 68.8239 159.959 68.7196L159.999 68.6959V66.2109L159.875 66.2932C159.709 66.4039 159.502 66.4942 159.26 66.5612C159.017 66.6296 158.814 66.664 158.657 66.664C158.065 66.664 157.627 66.5045 157.356 66.19C157.081 65.8725 156.942 65.3173 156.942 64.5408V58.4813H159.999ZM137.367 66.6642C136.258 66.6642 135.383 66.2963 134.767 65.5718C134.147 64.8435 133.833 63.8053 133.833 62.4862C133.833 61.1253 134.147 60.0601 134.767 59.319C135.384 58.5828 136.25 58.2091 137.342 58.2091C138.402 58.2091 139.246 58.566 139.85 59.2704C140.457 59.9784 140.765 61.0351 140.765 62.4119C140.765 63.8056 140.476 64.8762 139.904 65.5923C139.337 66.3031 138.483 66.6642 137.367 66.6642ZM137.503 55.71C135.387 55.71 133.706 56.3301 132.507 57.5532C131.31 58.7764 130.702 60.4691 130.702 62.5849C130.702 64.5943 131.295 66.2107 132.464 67.3882C133.634 68.5663 135.225 69.163 137.194 69.163C139.245 69.163 140.893 68.5343 142.091 67.2943C143.289 66.0554 143.896 64.3788 143.896 62.3125C143.896 60.2716 143.326 58.6432 142.202 57.4734C141.078 56.3031 139.497 55.71 137.503 55.71ZM125.775 55.7099C124.335 55.7099 123.144 56.0781 122.235 56.8042C121.319 57.5345 120.855 58.4925 120.855 59.6516C120.855 60.2541 120.955 60.7894 121.153 61.2432C121.351 61.6988 121.658 62.0996 122.066 62.4362C122.471 62.77 123.096 63.1198 123.924 63.4754C124.62 63.7619 125.139 64.0043 125.469 64.1952C125.791 64.3823 126.02 64.5706 126.149 64.7537C126.274 64.933 126.338 65.1783 126.338 65.4813C126.338 66.3435 125.693 66.763 124.364 66.763C123.871 66.763 123.309 66.6602 122.693 66.4573C122.077 66.2546 121.501 65.9633 120.982 65.5897L120.855 65.4988V68.4411L120.902 68.4628C121.334 68.6624 121.879 68.8307 122.522 68.9632C123.163 69.0958 123.746 69.1633 124.252 69.1633C125.815 69.1633 127.073 68.7933 127.99 68.063C128.914 67.3276 129.383 66.3471 129.383 65.1477C129.383 64.2826 129.13 63.5406 128.634 62.9424C128.14 62.3488 127.284 61.8041 126.09 61.3224C125.138 60.9405 124.528 60.6235 124.277 60.3802C124.035 60.145 123.912 59.8126 123.912 59.3915C123.912 59.0183 124.063 58.7193 124.375 58.4771C124.69 58.2336 125.127 58.1099 125.676 58.1099C126.185 58.1099 126.706 58.1903 127.224 58.3479C127.742 58.5055 128.197 58.7166 128.577 58.9749L128.701 59.0603V56.269L128.653 56.2484C128.303 56.0982 127.841 55.9697 127.28 55.8655C126.722 55.7622 126.215 55.7099 125.775 55.7099ZM112.888 66.6642C111.779 66.6642 110.904 66.2963 110.287 65.5718C109.667 64.8435 109.353 63.8056 109.353 62.4862C109.353 61.1253 109.668 60.0601 110.288 59.319C110.904 58.5828 111.77 58.2091 112.863 58.2091C113.922 58.2091 114.766 58.566 115.37 59.2704C115.978 59.9784 116.286 61.0351 116.286 62.4119C116.286 63.8056 115.996 64.8762 115.424 65.5923C114.857 66.3031 114.004 66.6642 112.888 66.6642ZM113.024 55.71C110.907 55.71 109.226 56.3301 108.028 57.5532C106.83 58.7764 106.223 60.4691 106.223 62.5849C106.223 64.5952 106.816 66.2107 107.985 67.3882C109.154 68.5663 110.746 69.163 112.714 69.163C114.765 69.163 116.413 68.5343 117.611 67.2943C118.809 66.0554 119.416 64.3788 119.416 62.3125C119.416 60.2716 118.847 58.6432 117.723 57.4734C116.598 56.3031 115.017 55.71 113.024 55.71ZM101.583 58.2417V56.0192H98.5642V68.8534H101.583V62.2882C101.583 61.1718 101.836 60.2547 102.336 59.562C102.829 58.8776 103.486 58.5307 104.288 58.5307C104.56 58.5307 104.865 58.5756 105.196 58.6643C105.523 58.7525 105.76 58.8481 105.9 58.9489L106.027 59.0408V55.9972L105.978 55.9762C105.697 55.8567 105.299 55.7964 104.796 55.7964C104.037 55.7964 103.358 56.0402 102.777 56.5201C102.266 56.942 101.897 57.5204 101.615 58.2417H101.583ZM93.1578 55.7099C91.7728 55.7099 90.5374 56.007 89.4864 56.5924C88.4335 57.1791 87.6192 58.0169 87.0651 59.0823C86.5136 60.145 86.2336 61.3864 86.2336 62.7707C86.2336 63.9833 86.5051 65.0962 87.0418 66.0769C87.5787 67.0592 88.3388 67.8278 89.3009 68.3609C90.2616 68.8933 91.372 69.1633 92.6013 69.1633C94.036 69.1633 95.261 68.8764 96.2432 68.3108L96.2828 68.2879V65.5221L96.156 65.6147C95.7111 65.9387 95.2139 66.1974 94.679 66.3838C94.1454 66.57 93.6589 66.6641 93.2324 66.6641C92.0478 66.6641 91.0969 66.2934 90.4065 65.5627C89.7146 64.8309 89.3639 63.8035 89.3639 62.5105C89.3639 61.2094 89.7297 60.1555 90.4507 59.3778C91.1693 58.6025 92.1221 58.2092 93.2822 58.2092C94.2746 58.2092 95.2415 58.5453 96.1564 59.2089L96.2828 59.3008V56.3865L96.242 56.3635C95.8977 56.1709 95.4283 56.0117 94.8452 55.891C94.2649 55.7707 93.6973 55.7099 93.1578 55.7099ZM84.1543 56.0192H81.1352V68.8534H84.1543V56.0192ZM82.6756 50.5517C82.1787 50.5517 81.7453 50.7209 81.3893 51.056C81.0318 51.3922 80.8503 51.8155 80.8503 52.3149C80.8503 52.8065 81.0296 53.2219 81.3836 53.5491C81.7354 53.8754 82.1701 54.0407 82.6756 54.0407C83.1809 54.0407 83.6173 53.8754 83.9733 53.5496C84.3317 53.2219 84.5134 52.8065 84.5134 52.3149C84.5134 51.8329 84.3366 51.4139 83.9881 51.0696C83.64 50.7259 83.1983 50.5517 82.6756 50.5517ZM75.143 55.0723V68.8533H78.224V50.9448H73.9598L68.5396 64.2467L63.2797 50.9448H58.8418V68.8533H61.7371V55.071H61.8367L67.391 68.8533H69.576L75.0436 55.0723H75.143Z" fill="#706D6E"/>
<path d="M34.2022 59.1631H20V44.9609H34.2022V59.1631Z" fill="#F1511B"/>
<path d="M49.8837 59.1631H35.6816V44.9609H49.8837V59.1631Z" fill="#80CC28"/>
<path d="M34.2019 74.8487H20V60.6465H34.2019V74.8487Z" fill="#00ADEF"/>
<path d="M49.8837 74.8487H35.6816V60.6465H49.8837V74.8487Z" fill="#FBBC09"/>
</g>
<defs>
<clipPath id="clip0_11105_18654">
<rect width="140" height="30.0781" fill="white" transform="translate(20 44.9609)"/>
</clipPath>
</defs>
</svg>
