<svg width="70" height="30" viewBox="0 0 70 30" fill="none" xmlns="http://www.w3.org/2000/svg">
<g clip-path="url(#clip0_11110_19732)">
<mask id="mask0_11110_19732" style="mask-type:luminance" maskUnits="userSpaceOnUse" x="0" y="0" width="70" height="30">
<path d="M70 0H0V30H70V0Z" fill="white"/>
</mask>
<g mask="url(#mask0_11110_19732)">
<mask id="mask1_11110_19732" style="mask-type:luminance" maskUnits="userSpaceOnUse" x="0" y="0" width="70" height="30">
<path d="M70 0H0V30H70V0Z" fill="white"/>
</mask>
<g mask="url(#mask1_11110_19732)">
<mask id="mask2_11110_19732" style="mask-type:luminance" maskUnits="userSpaceOnUse" x="0" y="7" width="70" height="16">
<path d="M70 7.52734H0V22.4709H70V7.52734Z" fill="white"/>
</mask>
<g mask="url(#mask2_11110_19732)">
<path d="M70.0002 14.2853V13.0533H68.4714V11.1381L68.421 11.1549L66.9846 11.5945L66.9566 11.6029V13.0533H64.6914V12.2441C64.6914 11.8689 64.7754 11.5805 64.9406 11.3873C65.1058 11.1969 65.341 11.1017 65.6406 11.1017C65.8562 11.1017 66.0802 11.1521 66.3042 11.2529L66.3602 11.2781V9.98453L66.335 9.97613C66.125 9.90053 65.8394 9.86133 65.4866 9.86133C65.0414 9.86133 64.6354 9.95933 64.2826 10.1497C63.9298 10.3429 63.6498 10.6173 63.4566 10.9673C63.2634 11.3173 63.1626 11.7205 63.1626 12.1657V13.0533H62.0986V14.2853H63.1626V19.4709H64.6914V14.2853H66.9566V17.5809C66.9566 18.9389 67.5978 19.6249 68.8606 19.6249C69.0678 19.6249 69.2862 19.5997 69.5102 19.5521C69.737 19.5045 69.891 19.4541 69.9834 19.4009L70.003 19.3897V18.1465L69.9414 18.1885C69.8574 18.2445 69.7538 18.2893 69.6334 18.3229C69.513 18.3565 69.4094 18.3733 69.331 18.3733C69.0342 18.3733 68.8158 18.2949 68.6814 18.1353C68.5442 17.9757 68.4742 17.6985 68.4742 17.3121V14.2853H70.0002ZM58.6854 18.3789C58.131 18.3789 57.6942 18.1941 57.3862 17.8329C57.0754 17.4689 56.9186 16.9509 56.9186 16.2901C56.9186 15.6097 57.0754 15.0777 57.3862 14.7053C57.6942 14.3385 58.1282 14.1509 58.6742 14.1509C59.2034 14.1509 59.6262 14.3301 59.9286 14.6829C60.231 15.0357 60.385 15.5649 60.385 16.2537C60.385 16.9509 60.2394 17.4857 59.9538 17.8441C59.6682 18.1969 59.2426 18.3789 58.6854 18.3789ZM58.7526 12.9021C57.6942 12.9021 56.8542 13.2129 56.255 13.8233C55.6558 14.4337 55.3534 15.2821 55.3534 16.3405C55.3534 17.3457 55.6502 18.1521 56.2354 18.7429C56.8206 19.3309 57.6158 19.6305 58.6014 19.6305C59.6262 19.6305 60.4522 19.3169 61.0486 18.6953C61.6478 18.0765 61.9502 17.2365 61.9502 16.2033C61.9502 15.1841 61.6646 14.3693 61.1046 13.7841C60.539 13.1989 59.7494 12.9021 58.7526 12.9021ZM52.8866 12.9021C52.167 12.9021 51.5706 13.0869 51.117 13.4481C50.6606 13.8121 50.4282 14.2909 50.4282 14.8705C50.4282 15.1729 50.4786 15.4389 50.5766 15.6657C50.6746 15.8925 50.8286 16.0941 51.033 16.2621C51.2346 16.4301 51.5482 16.6037 51.9626 16.7829C52.3098 16.9257 52.5702 17.0461 52.7354 17.1441C52.8978 17.2365 53.0098 17.3317 53.0742 17.4241C53.1358 17.5137 53.1694 17.6369 53.1694 17.7881C53.1694 18.2193 52.8474 18.4293 52.181 18.4293C51.9346 18.4293 51.6546 18.3789 51.3466 18.2753C51.0414 18.1745 50.753 18.0289 50.4898 17.8413L50.4254 17.7965V19.2665L50.4478 19.2777C50.6634 19.3785 50.9378 19.4625 51.257 19.5269C51.579 19.5941 51.8702 19.6277 52.1222 19.6277C52.9034 19.6277 53.5334 19.4429 53.9926 19.0789C54.4546 18.7121 54.6898 18.2221 54.6898 17.6201C54.6898 17.1889 54.5638 16.8165 54.3146 16.5169C54.0682 16.2201 53.6398 15.9485 53.0434 15.7077C52.5674 15.5173 52.2622 15.3577 52.1362 15.2373C52.0158 15.1197 51.9542 14.9545 51.9542 14.7417C51.9542 14.5541 52.0298 14.4057 52.1866 14.2853C52.3434 14.1649 52.5618 14.1005 52.8362 14.1005C53.091 14.1005 53.3514 14.1397 53.609 14.2209C53.8666 14.2993 54.0962 14.4057 54.2838 14.5345L54.3454 14.5765V13.1821L54.3202 13.1709C54.1438 13.0953 53.9142 13.0309 53.6342 12.9805C53.3626 12.9273 53.1078 12.9021 52.8866 12.9021ZM46.4438 18.3789C45.8894 18.3789 45.4526 18.1941 45.1446 17.8329C44.8338 17.4689 44.677 16.9509 44.677 16.2901C44.677 15.6097 44.8338 15.0777 45.1446 14.7053C45.4526 14.3385 45.8866 14.1509 46.4326 14.1509C46.9618 14.1509 47.3846 14.3301 47.687 14.6829C47.9894 15.0357 48.1434 15.5649 48.1434 16.2537C48.1434 16.9509 47.9978 17.4857 47.7122 17.8441C47.4294 18.1969 47.0038 18.3789 46.4438 18.3789ZM46.5138 12.9021C45.4554 12.9021 44.6154 13.2129 44.0162 13.8233C43.417 14.4337 43.1146 15.2821 43.1146 16.3405C43.1146 17.3457 43.4114 18.1521 43.9966 18.7429C44.5818 19.3309 45.377 19.6305 46.3626 19.6305C47.3874 19.6305 48.2134 19.3169 48.8098 18.6953C49.409 18.0765 49.7114 17.2365 49.7114 16.2033C49.7114 15.1841 49.4258 14.3693 48.8658 13.7841C48.3002 13.1989 47.5078 12.9021 46.5138 12.9021ZM40.7934 14.1677V13.0561H39.2842V19.4737H40.7934V16.1893C40.7934 15.6321 40.9194 15.1729 41.1686 14.8257C41.415 14.4841 41.7426 14.3105 42.1458 14.3105C42.283 14.3105 42.4342 14.3329 42.5994 14.3777C42.7618 14.4225 42.8822 14.4701 42.9522 14.5205L43.0166 14.5653V13.0421L42.9914 13.0309C42.8514 12.9721 42.6526 12.9413 42.4006 12.9413C42.0226 12.9413 41.681 13.0645 41.3898 13.3025C41.135 13.5125 40.9502 13.8037 40.8102 14.1621H40.7934V14.1677ZM36.5794 12.9021C35.8878 12.9021 35.269 13.0505 34.7426 13.3445C34.2162 13.6385 33.8102 14.0557 33.533 14.5905C33.2558 15.1225 33.1158 15.7413 33.1158 16.4357C33.1158 17.0433 33.2502 17.5977 33.519 18.0877C33.7878 18.5777 34.1686 18.9641 34.6474 19.2301C35.129 19.4961 35.6834 19.6305 36.2966 19.6305C37.0134 19.6305 37.6266 19.4877 38.1166 19.2049L38.1362 19.1937V17.8105L38.0718 17.8581C37.8506 18.0205 37.6014 18.1493 37.3326 18.2417C37.0666 18.3341 36.823 18.3817 36.6102 18.3817C36.0166 18.3817 35.5434 18.1969 35.1962 17.8301C34.849 17.4633 34.6754 16.9509 34.6754 16.3041C34.6754 15.6545 34.8574 15.1253 35.2186 14.7389C35.577 14.3525 36.053 14.1537 36.6354 14.1537C37.131 14.1537 37.6154 14.3217 38.0718 14.6549L38.1362 14.6997V13.2437L38.1166 13.2325C37.9458 13.1373 37.7106 13.0561 37.4194 12.9973C37.1338 12.9301 36.8482 12.9021 36.5794 12.9021ZM32.077 13.0561H30.5678V19.4737H32.077V13.0561ZM31.3378 10.3233C31.0886 10.3233 30.873 10.4073 30.6938 10.5753C30.5146 10.7433 30.425 10.9561 30.425 11.2053C30.425 11.4517 30.5146 11.6589 30.691 11.8213C30.8674 11.9837 31.083 12.0677 31.3378 12.0677C31.5898 12.0677 31.8082 11.9837 31.9874 11.8213C32.1666 11.6561 32.2562 11.4489 32.2562 11.2025C32.2562 10.9617 32.1666 10.7517 31.993 10.5809C31.8194 10.4101 31.601 10.3233 31.3378 10.3233ZM27.5718 12.5829V19.4737H29.1118V10.5193H26.981L24.2706 17.1693L21.6414 10.5193H19.4238V19.4737H20.8714V12.5801H20.9218L23.6994 19.4709H24.7914L27.5242 12.5801L27.5718 12.5829Z" fill="#706D6E"/>
<path d="M7.1008 14.6281H0V7.52734H7.1008V14.6281Z" fill="#F1511B"/>
<path d="M14.9406 14.6281H7.83984V7.52734H14.9406V14.6281Z" fill="#80CC28"/>
<path d="M7.1008 22.4719H0V15.3711H7.1008V22.4719Z" fill="#00ADEF"/>
<path d="M14.9406 22.4719H7.83984V15.3711H14.9406V22.4719Z" fill="#FBBC09"/>
</g>
</g>
</g>
</g>
<defs>
<clipPath id="clip0_11110_19732">
<rect width="70" height="30" fill="white"/>
</clipPath>
</defs>
</svg>
