<svg width="140" height="31" viewBox="0 0 140 31" fill="none" xmlns="http://www.w3.org/2000/svg">
<g clip-path="url(#clip0_11105_19474)">
<path d="M139.999 13.5204V11.0582H136.942V7.23048L136.839 7.26214L133.967 8.14074L133.91 8.15801V11.0582H129.378V9.44273C129.378 8.69042 129.546 8.11467 129.877 7.73073C130.207 7.35135 130.678 7.15854 131.278 7.15854C131.71 7.15854 132.157 7.26028 132.607 7.46088L132.72 7.51116V4.91819L132.667 4.89872C132.247 4.74789 131.676 4.67188 130.969 4.67188C130.077 4.67188 129.266 4.86588 128.56 5.2505C127.853 5.63563 127.296 6.18547 126.907 6.88463C126.518 7.58294 126.321 8.38943 126.321 9.28191V11.0582H124.192V13.5204H126.321V23.8928H129.378V13.5204H133.91V20.1119C133.91 22.8266 135.191 24.2024 137.716 24.2024C138.131 24.2024 138.568 24.1536 139.014 24.0583C139.468 23.9606 139.777 23.863 139.959 23.7587L139.999 23.735V21.25L139.875 21.3323C139.709 21.443 139.502 21.5332 139.26 21.6003C139.017 21.6687 138.814 21.703 138.657 21.703C138.065 21.703 137.627 21.5436 137.356 21.229C137.081 20.9116 136.942 20.3563 136.942 19.5798V13.5204H139.999ZM117.367 21.7033C116.258 21.7033 115.383 21.3354 114.767 20.6109C114.147 19.8826 113.833 18.8443 113.833 17.5253C113.833 16.1643 114.147 15.0992 114.767 14.3581C115.384 13.6218 116.25 13.2482 117.342 13.2482C118.402 13.2482 119.246 13.6051 119.85 14.3095C120.457 15.0174 120.765 16.0741 120.765 17.4509C120.765 18.8447 120.476 19.9153 119.904 20.6313C119.337 21.3422 118.483 21.7033 117.367 21.7033ZM117.503 10.749C115.387 10.749 113.706 11.3691 112.507 12.5922C111.31 13.8155 110.702 15.5082 110.702 17.6239C110.702 19.6334 111.295 21.2497 112.464 22.4273C113.634 23.6054 115.225 24.2021 117.194 24.2021C119.245 24.2021 120.893 23.5734 122.091 22.3334C123.289 21.0945 123.896 19.4179 123.896 17.3516C123.896 15.3106 123.326 13.6823 122.202 12.5125C121.078 11.3422 119.497 10.749 117.503 10.749ZM105.775 10.749C104.335 10.749 103.144 11.1172 102.235 11.8432C101.319 12.5735 100.855 13.5315 100.855 14.6906C100.855 15.2931 100.955 15.8284 101.153 16.2823C101.351 16.7378 101.658 17.1387 102.066 17.4752C102.471 17.8091 103.096 18.1588 103.924 18.5145C104.62 18.8009 105.139 19.0434 105.469 19.2343C105.791 19.4214 106.02 19.6096 106.149 19.7928C106.274 19.9721 106.338 20.2174 106.338 20.5204C106.338 21.3826 105.693 21.8021 104.364 21.8021C103.871 21.8021 103.309 21.6993 102.693 21.4963C102.077 21.2937 101.501 21.0023 100.982 20.6287L100.855 20.5378V23.4802L100.902 23.5019C101.334 23.7015 101.879 23.8697 102.522 24.0023C103.163 24.1348 103.746 24.2024 104.252 24.2024C105.815 24.2024 107.073 23.8323 107.99 23.102C108.914 22.3666 109.383 21.3861 109.383 20.1867C109.383 19.3217 109.13 18.5797 108.634 17.9814C108.14 17.3879 107.284 16.8431 106.09 16.3615C105.138 15.9796 104.528 15.6625 104.277 15.4193C104.035 15.1841 103.912 14.8516 103.912 14.4306C103.912 14.0573 104.063 13.7584 104.375 13.5161C104.69 13.2727 105.127 13.1489 105.676 13.1489C106.185 13.1489 106.706 13.2293 107.224 13.387C107.742 13.5446 108.197 13.7557 108.577 14.014L108.701 14.0993V11.3081L108.653 11.2875C108.303 11.1373 107.841 11.0088 107.28 10.9045C106.722 10.8013 106.215 10.749 105.775 10.749ZM92.8875 21.7033C91.7785 21.7033 90.9036 21.3354 90.2874 20.6109C89.6672 19.8826 89.3535 18.8447 89.3535 17.5253C89.3535 16.1643 89.6675 15.0992 90.2881 14.3581C90.9043 13.6218 91.7704 13.2482 92.863 13.2482C93.9224 13.2482 94.7659 13.6051 95.3703 14.3095C95.9777 15.0174 96.2858 16.0741 96.2858 17.4509C96.2858 18.8447 95.9958 19.9153 95.4243 20.6313C94.8568 21.3422 94.0038 21.7033 92.8875 21.7033ZM93.024 10.749C90.907 10.749 89.226 11.3691 88.0281 12.5922C86.8304 13.8155 86.2227 15.5082 86.2227 17.6239C86.2227 19.6342 86.8159 21.2497 87.9851 22.4273C89.1544 23.6054 90.7455 24.2021 92.7143 24.2021C94.7654 24.2021 96.4134 23.5734 97.6115 22.3334C98.809 21.0945 99.4162 19.4179 99.4162 17.3516C99.4162 15.3106 98.8466 13.6823 97.7227 12.5125C96.5981 11.3422 95.0172 10.749 93.024 10.749ZM81.5833 13.2808V11.0582H78.5642V23.8924H81.5833V17.3273C81.5833 16.2108 81.8364 15.2938 82.3358 14.6011C82.8289 13.9167 83.4861 13.5698 84.2883 13.5698C84.5602 13.5698 84.8654 13.6146 85.196 13.7034C85.5233 13.7916 85.7603 13.8872 85.9001 13.9879L86.0269 14.0798V11.0362L85.978 11.0152C85.6968 10.8957 85.2991 10.8355 84.7959 10.8355C84.0373 10.8355 83.3583 11.0792 82.7768 11.5592C82.2664 11.981 81.8973 12.5595 81.6153 13.2808H81.5833ZM73.1578 10.749C71.7728 10.749 70.5374 11.0461 69.4864 11.6314C68.4335 12.2182 67.6192 13.056 67.0651 14.1213C66.5136 15.1841 66.2336 16.4255 66.2336 17.8098C66.2336 19.0224 66.5051 20.1353 67.0418 21.1159C67.5787 22.0983 68.3388 22.8669 69.3009 23.4C70.2616 23.9324 71.372 24.2024 72.6013 24.2024C74.036 24.2024 75.261 23.9154 76.2432 23.3499L76.2828 23.327V20.5612L76.156 20.6538C75.7111 20.9778 75.2139 21.2365 74.679 21.4229C74.1454 21.6091 73.6589 21.7032 73.2324 21.7032C72.0478 21.7032 71.0969 21.3325 70.4065 20.6018C69.7146 19.87 69.3639 18.8426 69.3639 17.5496C69.3639 16.2484 69.7297 15.1946 70.4507 14.4169C71.1693 13.6416 72.1221 13.2483 73.2822 13.2483C74.2746 13.2483 75.2415 13.5843 76.1564 14.248L76.2828 14.3399V11.4256L76.242 11.4026C75.8977 11.2099 75.4283 11.0508 74.8452 10.9301C74.2649 10.8097 73.6973 10.749 73.1578 10.749ZM64.1543 11.0583H61.1352V23.8925H64.1543V11.0583ZM62.6756 5.5908C62.1787 5.5908 61.7453 5.75992 61.3893 6.09511C61.0318 6.43131 60.8503 6.85453 60.8503 7.35393C60.8503 7.84554 61.0296 8.26097 61.3836 8.5882C61.7354 8.91442 62.1701 9.07981 62.6756 9.07981C63.1809 9.07981 63.6173 8.91442 63.9733 8.58871C64.3317 8.26097 64.5134 7.84554 64.5134 7.35393C64.5134 6.87197 64.3366 6.45298 63.9881 6.10865C63.64 5.765 63.1983 5.5908 62.6756 5.5908ZM55.143 10.1114V23.8924H58.224V5.98382H53.9598L48.5396 19.2857L43.2797 5.98382H38.8418V23.8924H41.7371V10.11H41.8367L47.391 23.8924H49.576L55.0436 10.1114H55.143Z" fill="#706D6E"/>
<path d="M14.2022 14.2022H0V0H14.2022V14.2022Z" fill="#F1511B"/>
<path d="M29.8837 14.2022H15.6816V0H29.8837V14.2022Z" fill="#80CC28"/>
<path d="M14.2019 29.8877H0V15.6855H14.2019V29.8877Z" fill="#00ADEF"/>
<path d="M29.8837 29.8877H15.6816V15.6855H29.8837V29.8877Z" fill="#FBBC09"/>
</g>
<defs>
<clipPath id="clip0_11105_19474">
<rect width="140" height="30.0781" fill="white"/>
</clipPath>
</defs>
</svg>
