<svg width="512" height="110" viewBox="0 0 512 110" fill="none" xmlns="http://www.w3.org/2000/svg">
<g clip-path="url(#clip0_11091_17321)">
<path d="M512.002 49.448V40.4437H500.82V26.4451L500.443 26.5609L489.941 29.774L489.734 29.8372V40.4437H473.158V34.5356C473.158 31.7843 473.773 29.6787 474.985 28.2746C476.189 26.8871 477.912 26.182 480.108 26.182C481.687 26.182 483.322 26.5541 484.967 27.2877L485.379 27.4716V17.9887L485.186 17.9175C483.651 17.3659 481.562 17.0879 478.975 17.0879C475.714 17.0879 472.75 17.7974 470.166 19.204C467.58 20.6125 465.546 22.6233 464.121 25.1803C462.701 27.7341 461.98 30.6835 461.98 33.9474V40.4437H454.194V49.448H461.98V87.3814H473.158V49.448H489.734V73.5542C489.734 83.4823 494.417 88.5137 503.652 88.5137C505.17 88.5137 506.767 88.3354 508.398 87.9869C510.058 87.6297 511.189 87.2724 511.854 86.8911L512.002 86.8044V77.7165L511.547 78.0174C510.94 78.4223 510.185 78.7523 509.299 78.9974C508.409 79.2476 507.667 79.3732 507.091 79.3732C504.928 79.3732 503.327 78.79 502.334 77.6397C501.329 76.4789 500.82 74.4482 500.82 71.6084V49.448H512.002ZM429.233 79.3741C425.176 79.3741 421.978 78.0288 419.724 75.379C417.456 72.7156 416.307 68.9186 416.307 64.0945C416.307 59.1175 417.456 55.2221 419.725 52.5116C421.981 49.8191 425.149 48.4528 429.142 48.4528C433.018 48.4528 436.103 49.7578 438.313 52.334C440.534 54.9231 441.661 58.7875 441.661 63.8227C441.661 68.9199 440.601 72.8351 438.511 75.4539C436.435 78.0536 433.315 79.3741 429.233 79.3741ZM429.731 39.3129C421.991 39.3129 415.843 41.5807 411.461 46.0537C407.08 50.5274 404.859 56.7178 404.859 64.4555C404.859 71.8043 407.027 77.7155 411.303 82.022C415.58 86.3304 421.399 88.5128 428.599 88.5128C436.102 88.5128 442.127 86.2134 446.508 81.6784C450.889 77.1478 453.109 71.0162 453.109 63.4593C453.109 55.9954 451.026 50.0402 446.916 45.7621C442.805 41.4822 437.022 39.3129 429.731 39.3129ZM386.838 39.3126C381.573 39.3126 377.218 40.6592 373.891 43.3145C370.544 45.9854 368.847 49.4889 368.847 53.7279C368.847 55.9313 369.213 57.889 369.934 59.5488C370.66 61.2148 371.783 62.6809 373.274 63.9116C374.755 65.1325 377.04 66.4116 380.068 67.7123C382.614 68.7599 384.512 69.6464 385.718 70.3448C386.897 71.0289 387.734 71.7173 388.207 72.3872C388.665 73.0429 388.899 73.9399 388.899 75.0481C388.899 78.2013 386.538 79.7354 381.678 79.7354C379.876 79.7354 377.82 79.3596 375.568 78.6173C373.314 77.8762 371.208 76.8108 369.31 75.4444L368.847 75.1119V85.8726L369.017 85.9519C370.599 86.6818 372.592 87.2972 374.942 87.782C377.288 88.2667 379.419 88.5137 381.271 88.5137C386.984 88.5137 391.585 87.1604 394.941 84.4895C398.32 81.8001 400.032 78.2143 400.032 73.8279C400.032 70.6642 399.11 67.9507 397.293 65.7628C395.489 63.5922 392.358 61.5999 387.989 59.8385C384.509 58.4418 382.28 57.2822 381.361 56.3926C380.474 55.5326 380.024 54.3167 380.024 52.777C380.024 51.4119 380.579 50.3185 381.72 49.4326C382.87 48.5423 384.47 48.0897 386.477 48.0897C388.339 48.0897 390.245 48.3838 392.139 48.9602C394.033 49.5366 395.696 50.3086 397.085 51.2534L397.541 51.5654V41.3575L397.366 41.282C396.085 40.7329 394.396 40.263 392.345 39.8816C390.302 39.5039 388.449 39.3126 386.838 39.3126ZM339.708 79.3741C335.652 79.3741 332.452 78.0288 330.199 75.379C327.93 72.7156 326.783 68.9198 326.783 64.0945C326.783 59.1175 327.932 55.2221 330.201 52.5116C332.455 49.8191 335.622 48.4528 339.618 48.4528C343.492 48.4528 346.577 49.7578 348.787 52.334C351.009 54.9231 352.136 58.7875 352.136 63.8227C352.136 68.9199 351.075 72.8351 348.985 75.4539C346.91 78.0536 343.79 79.3741 339.708 79.3741ZM340.207 39.3129C332.465 39.3129 326.317 41.5807 321.936 46.0537C317.556 50.5274 315.333 56.7178 315.333 64.4555C315.333 71.8074 317.503 77.7155 321.779 82.022C326.055 86.3304 331.874 88.5128 339.074 88.5128C346.575 88.5128 352.602 86.2134 356.984 81.6784C361.363 77.1478 363.584 71.0162 363.584 63.4593C363.584 55.9954 361.501 50.0402 357.391 45.7621C353.278 41.4822 347.496 39.3129 340.207 39.3129ZM298.366 48.572V40.4437H287.325V87.3802H298.366V63.3705C298.366 59.2875 299.292 55.9338 301.118 53.4004C302.922 50.8974 305.325 49.6288 308.259 49.6288C309.253 49.6288 310.37 49.7929 311.579 50.1173C312.776 50.4398 313.642 50.7896 314.154 51.158L314.617 51.4942V40.3633L314.438 40.2865C313.41 39.8494 311.956 39.629 310.115 39.629C307.341 39.629 304.858 40.5205 302.731 42.2757C300.865 43.8185 299.515 45.934 298.483 48.572H298.366ZM267.553 39.3126C262.488 39.3126 257.97 40.3992 254.127 42.54C250.276 44.6859 247.298 47.7498 245.271 51.6459C243.254 55.5326 242.23 60.0725 242.23 65.135C242.23 69.5697 243.223 73.6397 245.186 77.2262C247.15 80.8189 249.93 83.6296 253.448 85.5792C256.961 87.5263 261.022 88.5137 265.518 88.5137C270.765 88.5137 275.245 87.4644 278.837 85.3959L278.982 85.3123V75.1974L278.518 75.536C276.891 76.721 275.073 77.667 273.116 78.3486C271.165 79.0296 269.386 79.3739 267.826 79.3739C263.494 79.3739 260.016 78.018 257.491 75.3459C254.961 72.6695 253.678 68.9122 253.678 64.1834C253.678 59.425 255.016 55.571 257.653 52.7268C260.281 49.8913 263.765 48.4531 268.008 48.4531C271.637 48.4531 275.174 49.6821 278.519 52.109L278.982 52.4451V41.7872L278.833 41.703C277.573 40.9985 275.857 40.4165 273.724 39.9751C271.602 39.5349 269.526 39.3126 267.553 39.3126ZM234.626 40.4439H223.585V87.3803H234.626V40.4439ZM229.218 20.4485C227.401 20.4485 225.816 21.067 224.514 22.2929C223.207 23.5224 222.543 25.0702 222.543 26.8965C222.543 28.6944 223.199 30.2137 224.493 31.4105C225.78 32.6035 227.37 33.2083 229.218 33.2083C231.066 33.2083 232.662 32.6035 233.964 31.4123C235.275 30.2137 235.939 28.6944 235.939 26.8965C235.939 25.1339 235.293 23.6016 234.018 22.3424C232.745 21.0856 231.13 20.4485 229.218 20.4485ZM201.67 36.9809V87.38H212.938V21.8859H197.343L177.521 70.5329L158.285 21.8859H142.055V87.38H152.643V36.976H153.007L173.32 87.38H181.311L201.307 36.9809H201.67Z" fill="#706D6E"/>
<path d="M51.9394 51.9394H0V0H51.9394V51.9394Z" fill="#F1511B"/>
<path d="M109.29 51.9394H57.3516V0H109.29V51.9394Z" fill="#80CC28"/>
<path d="M51.9382 109.307H0V57.3672H51.9382V109.307Z" fill="#00ADEF"/>
<path d="M109.29 109.307H57.3516V57.3672H109.29V109.307Z" fill="#FBBC09"/>
</g>
<defs>
<clipPath id="clip0_11091_17321">
<rect width="512" height="110" fill="white"/>
</clipPath>
</defs>
</svg>
