<svg width="70" height="30" viewBox="0 0 70 30" fill="none" xmlns="http://www.w3.org/2000/svg">
<g clip-path="url(#clip0_10196_730)">
<g clip-path="url(#clip1_10196_730)">
<g clip-path="url(#clip2_10196_730)">
<path d="M70.0002 14.2873V13.0553H68.4714V11.1401L68.421 11.1569L66.9846 11.5965L66.9566 11.6049V13.0553H64.6914V12.2461C64.6914 11.8709 64.7754 11.5825 64.9406 11.3893C65.1058 11.1989 65.341 11.1037 65.6406 11.1037C65.8562 11.1037 66.0802 11.1541 66.3042 11.2549L66.3602 11.2801V9.98648L66.335 9.97808C66.125 9.90248 65.8394 9.86328 65.4866 9.86328C65.0414 9.86328 64.6354 9.96128 64.2826 10.1517C63.9298 10.3449 63.6498 10.6193 63.4566 10.9693C63.2634 11.3193 63.1626 11.7225 63.1626 12.1677V13.0553H62.0986V14.2873H63.1626V19.4729H64.6914V14.2873H66.9566V17.5829C66.9566 18.9409 67.5978 19.6269 68.8606 19.6269C69.0678 19.6269 69.2862 19.6017 69.5102 19.5541C69.737 19.5065 69.891 19.4561 69.9834 19.4029L70.003 19.3917V18.1485L69.9414 18.1905C69.8574 18.2465 69.7538 18.2913 69.6334 18.3249C69.513 18.3585 69.4094 18.3753 69.331 18.3753C69.0342 18.3753 68.8158 18.2969 68.6814 18.1373C68.5442 17.9777 68.4742 17.7005 68.4742 17.3141V14.2873H70.0002ZM58.6854 18.3809C58.131 18.3809 57.6942 18.1961 57.3862 17.8349C57.0754 17.4709 56.9186 16.9529 56.9186 16.2921C56.9186 15.6117 57.0754 15.0797 57.3862 14.7073C57.6942 14.3405 58.1282 14.1529 58.6742 14.1529C59.2034 14.1529 59.6262 14.3321 59.9286 14.6849C60.231 15.0377 60.385 15.5669 60.385 16.2557C60.385 16.9529 60.2394 17.4877 59.9538 17.8461C59.6682 18.1989 59.2426 18.3809 58.6854 18.3809ZM58.7526 12.9041C57.6942 12.9041 56.8542 13.2149 56.255 13.8253C55.6558 14.4357 55.3534 15.2841 55.3534 16.3425C55.3534 17.3477 55.6502 18.1541 56.2354 18.7449C56.8206 19.3329 57.6158 19.6325 58.6014 19.6325C59.6262 19.6325 60.4522 19.3189 61.0486 18.6973C61.6478 18.0785 61.9502 17.2385 61.9502 16.2053C61.9502 15.1861 61.6646 14.3713 61.1046 13.7861C60.539 13.2009 59.7494 12.9041 58.7526 12.9041ZM52.8866 12.9041C52.167 12.9041 51.5706 13.0889 51.117 13.4501C50.6606 13.8141 50.4282 14.2929 50.4282 14.8725C50.4282 15.1749 50.4786 15.4409 50.5766 15.6677C50.6746 15.8945 50.8286 16.0961 51.033 16.2641C51.2346 16.4321 51.5482 16.6057 51.9626 16.7849C52.3098 16.9277 52.5702 17.0481 52.7354 17.1461C52.8978 17.2385 53.0098 17.3337 53.0742 17.4261C53.1358 17.5157 53.1694 17.6389 53.1694 17.7901C53.1694 18.2213 52.8474 18.4313 52.181 18.4313C51.9346 18.4313 51.6546 18.3809 51.3466 18.2773C51.0414 18.1765 50.753 18.0309 50.4898 17.8433L50.4254 17.7985V19.2685L50.4478 19.2797C50.6634 19.3805 50.9378 19.4645 51.257 19.5289C51.579 19.5961 51.8702 19.6297 52.1222 19.6297C52.9034 19.6297 53.5334 19.4449 53.9926 19.0809C54.4546 18.7141 54.6898 18.2241 54.6898 17.6221C54.6898 17.1909 54.5638 16.8185 54.3146 16.5189C54.0682 16.2221 53.6398 15.9505 53.0434 15.7097C52.5674 15.5193 52.2622 15.3597 52.1362 15.2393C52.0158 15.1217 51.9542 14.9565 51.9542 14.7437C51.9542 14.5561 52.0298 14.4077 52.1866 14.2873C52.3434 14.1669 52.5618 14.1025 52.8362 14.1025C53.091 14.1025 53.3514 14.1417 53.609 14.2229C53.8666 14.3013 54.0962 14.4077 54.2838 14.5365L54.3454 14.5785V13.1841L54.3202 13.1729C54.1438 13.0973 53.9142 13.0329 53.6342 12.9825C53.3626 12.9293 53.1078 12.9041 52.8866 12.9041ZM46.4438 18.3809C45.8894 18.3809 45.4526 18.1961 45.1446 17.8349C44.8338 17.4709 44.677 16.9529 44.677 16.2921C44.677 15.6117 44.8338 15.0797 45.1446 14.7073C45.4526 14.3405 45.8866 14.1529 46.4326 14.1529C46.9618 14.1529 47.3846 14.3321 47.687 14.6849C47.9894 15.0377 48.1434 15.5669 48.1434 16.2557C48.1434 16.9529 47.9978 17.4877 47.7122 17.8461C47.4294 18.1989 47.0038 18.3809 46.4438 18.3809ZM46.5138 12.9041C45.4554 12.9041 44.6154 13.2149 44.0162 13.8253C43.417 14.4357 43.1146 15.2841 43.1146 16.3425C43.1146 17.3477 43.4114 18.1541 43.9966 18.7449C44.5818 19.3329 45.377 19.6325 46.3626 19.6325C47.3874 19.6325 48.2134 19.3189 48.8098 18.6973C49.409 18.0785 49.7114 17.2385 49.7114 16.2053C49.7114 15.1861 49.4258 14.3713 48.8658 13.7861C48.3002 13.2009 47.5078 12.9041 46.5138 12.9041ZM40.7934 14.1697V13.0581H39.2842V19.4757H40.7934V16.1913C40.7934 15.6341 40.9194 15.1749 41.1686 14.8277C41.415 14.4861 41.7426 14.3125 42.1458 14.3125C42.283 14.3125 42.4342 14.3349 42.5994 14.3797C42.7618 14.4245 42.8822 14.4721 42.9522 14.5225L43.0166 14.5673V13.0441L42.9914 13.0329C42.8514 12.9741 42.6526 12.9433 42.4006 12.9433C42.0226 12.9433 41.681 13.0665 41.3898 13.3045C41.135 13.5145 40.9502 13.8057 40.8102 14.1641H40.7934V14.1697ZM36.5794 12.9041C35.8878 12.9041 35.269 13.0525 34.7426 13.3465C34.2162 13.6405 33.8102 14.0577 33.533 14.5925C33.2558 15.1245 33.1158 15.7433 33.1158 16.4377C33.1158 17.0453 33.2502 17.5997 33.519 18.0897C33.7878 18.5797 34.1686 18.9661 34.6474 19.2321C35.129 19.4981 35.6834 19.6325 36.2966 19.6325C37.0134 19.6325 37.6266 19.4897 38.1166 19.2069L38.1362 19.1957V17.8125L38.0718 17.8601C37.8506 18.0225 37.6014 18.1513 37.3326 18.2437C37.0666 18.3361 36.823 18.3837 36.6102 18.3837C36.0166 18.3837 35.5434 18.1989 35.1962 17.8321C34.849 17.4653 34.6754 16.9529 34.6754 16.3061C34.6754 15.6565 34.8574 15.1273 35.2186 14.7409C35.577 14.3545 36.053 14.1557 36.6354 14.1557C37.131 14.1557 37.6154 14.3237 38.0718 14.6569L38.1362 14.7017V13.2457L38.1166 13.2345C37.9458 13.1393 37.7106 13.0581 37.4194 12.9993C37.1338 12.9321 36.8482 12.9041 36.5794 12.9041ZM32.077 13.0581H30.5678V19.4757H32.077V13.0581ZM31.3378 10.3253C31.0886 10.3253 30.873 10.4093 30.6938 10.5773C30.5146 10.7453 30.425 10.9581 30.425 11.2073C30.425 11.4537 30.5146 11.6609 30.691 11.8233C30.8674 11.9857 31.083 12.0697 31.3378 12.0697C31.5898 12.0697 31.8082 11.9857 31.9874 11.8233C32.1666 11.6581 32.2562 11.4509 32.2562 11.2045C32.2562 10.9637 32.1666 10.7537 31.993 10.5829C31.8194 10.4121 31.601 10.3253 31.3378 10.3253ZM27.5718 12.5849V19.4757H29.1118V10.5213H26.981L24.2706 17.1713L21.6414 10.5213H19.4238V19.4757H20.8714V12.5821H20.9218L23.6994 19.4729H24.7914L27.5242 12.5821L27.5718 12.5849Z" fill="#E6E7F5"/>
<path d="M7.1008 14.6291H0V7.52832H7.1008V14.6291Z" fill="#E6E7F5"/>
<path d="M14.9406 14.6291H7.83984V7.52832H14.9406V14.6291Z" fill="#E6E7F5"/>
<path d="M7.1008 22.4719H0V15.3711H7.1008V22.4719Z" fill="#E6E7F5"/>
<path d="M14.9406 22.4719H7.83984V15.3711H14.9406V22.4719Z" fill="#E6E7F5"/>
</g>
</g>
</g>
<defs>
<clipPath id="clip0_10196_730">
<rect width="70" height="30" fill="white"/>
</clipPath>
<clipPath id="clip1_10196_730">
<rect width="70" height="30" fill="white"/>
</clipPath>
<clipPath id="clip2_10196_730">
<rect width="70" height="14.9436" fill="white" transform="translate(0 7.52832)"/>
</clipPath>
</defs>
</svg>
