<svg width="70" height="30" viewBox="0 0 70 30" fill="none" xmlns="http://www.w3.org/2000/svg">
<g clip-path="url(#clip0_10196_1313)">
<g clip-path="url(#clip1_10196_1313)">
<g clip-path="url(#clip2_10196_1313)">
<path fill-rule="evenodd" clip-rule="evenodd" d="M11.009 14.6159H8.39648V14.4256H8.47945C8.79142 14.4256 8.88375 14.3146 8.88375 14.0755V12.1254C8.88375 11.8385 8.71854 11.7744 8.49875 11.7744H8.40628V11.584H10.0582V11.7744H9.91747C9.66426 11.7744 9.55681 11.887 9.55681 12.1156V14.1247C9.55681 14.3043 9.61039 14.348 9.80037 14.348H10.4193C10.7457 14.348 10.8432 14.1875 11.1697 13.7688H11.365L11.009 14.6159Z" fill="#E6E7F5"/>
<path fill-rule="evenodd" clip-rule="evenodd" d="M11.4961 11.584H13.046V11.7744H12.9628C12.6998 11.7744 12.593 11.887 12.593 12.1398V14.0709C12.593 14.3088 12.6753 14.4256 12.9732 14.4256H13.046V14.6159H11.4961V14.4256H11.5645C11.8229 14.4256 11.9203 14.3043 11.9203 14.0899V12.1398C11.9203 11.887 11.8328 11.7744 11.5599 11.7744H11.4961V11.584Z" fill="#E6E7F5"/>
<path fill-rule="evenodd" clip-rule="evenodd" d="M14.1008 14.031C14.1008 14.3291 14.1939 14.4256 14.5832 14.4256V14.6159H13.4043V14.4256H13.4331C13.7305 14.4256 13.8041 14.3187 13.8041 14.119V11.8813C13.6967 11.8094 13.565 11.7744 13.4139 11.7744V11.584H14.4177L16.4065 13.6615V12.1891C16.4065 11.8385 16.3334 11.7744 15.9433 11.7744H15.8945V11.584H17.1523V11.7744H17.1035C16.8007 11.7744 16.7045 11.8385 16.7045 12.023V14.6303H16.4359L14.1008 12.1891V14.031Z" fill="#E6E7F5"/>
<path fill-rule="evenodd" clip-rule="evenodd" d="M20.6043 13.7445C20.5652 14.0032 20.4484 14.3775 20.3322 14.6303C20.2537 14.6061 20.1563 14.5966 20.044 14.5966C19.8147 14.5966 19.5712 14.6842 19.2057 14.6842C18.2064 14.6842 17.4316 13.992 17.4316 13.1108C17.4316 12.2137 18.2551 11.5117 19.2982 11.5117C19.8056 11.5117 20.1364 11.7115 20.2348 11.7115C20.2734 11.7115 20.3026 11.6967 20.3322 11.6621H20.4539L20.4974 12.5159H20.3068C20.1513 12.0325 19.8056 11.7596 19.3376 11.7596C18.6404 11.7596 18.1577 12.2865 18.1577 13.0569C18.1577 13.842 18.6942 14.4457 19.3909 14.4457C19.8393 14.4457 20.2097 14.1876 20.4094 13.7445H20.6043Z" fill="#E6E7F5"/>
<path fill-rule="evenodd" clip-rule="evenodd" d="M22.928 14.4755C23.6051 14.4755 23.922 13.8893 23.922 13.2178C23.922 12.4332 23.5315 11.7022 22.7912 11.7022C22.1715 11.7022 21.7681 12.1799 21.7681 12.9149C21.7681 13.8467 22.2407 14.4755 22.928 14.4755ZM22.9081 11.4922C23.927 11.4922 24.6483 12.1305 24.6483 13.0414C24.6483 13.9092 23.9804 14.684 22.8156 14.684C21.6943 14.684 21.041 13.968 21.041 13.1486C21.041 12.184 21.8211 11.4922 22.9081 11.4922Z" fill="#E6E7F5"/>
<path fill-rule="evenodd" clip-rule="evenodd" d="M27.5422 14.6159H24.9297V14.4256H25.0129C25.3246 14.4256 25.4175 14.3146 25.4175 14.0755V12.1254C25.4175 11.8385 25.2516 11.7744 25.032 11.7744H24.9395V11.584H26.592V11.7744H26.4507C26.1969 11.7744 26.0896 11.887 26.0896 12.1156V14.1247C26.0896 14.3043 26.1435 14.348 26.3337 14.348H26.9528C27.2792 14.348 27.377 14.1875 27.7036 13.7688H27.8982L27.5422 14.6159Z" fill="#E6E7F5"/>
<path fill-rule="evenodd" clip-rule="evenodd" d="M28.7261 14.031C28.7261 14.3291 28.8192 14.4256 29.2088 14.4256V14.6159H28.0293V14.4256H28.0578C28.3563 14.4256 28.429 14.3187 28.429 14.119V11.8813C28.322 11.8094 28.1902 11.7744 28.0394 11.7744V11.584H29.0436L31.0318 13.6615V12.1891C31.0318 11.8385 30.9581 11.7744 30.568 11.7744H30.5205V11.584H31.7779V11.7744H31.7291C31.4263 11.7744 31.3294 11.8385 31.3294 12.023V14.6303H31.0612L28.7261 12.1891V14.031Z" fill="#E6E7F5"/>
<path fill-rule="evenodd" clip-rule="evenodd" d="M36.1708 14.6159H33.5586V14.4256H33.6411C33.9528 14.4256 34.0459 14.3146 34.0459 14.0755V12.1254C34.0459 11.8385 33.8809 11.7744 33.6613 11.7744H33.5688V11.584H35.2203V11.7744H35.0799C34.8258 11.7744 34.7185 11.887 34.7185 12.1156V14.1247C34.7185 14.3043 34.7722 14.348 34.9625 14.348H35.5817C35.9086 14.348 36.0054 14.1875 36.3318 13.7688H36.5262L36.1708 14.6159Z" fill="#E6E7F5"/>
<path fill-rule="evenodd" clip-rule="evenodd" d="M38.1776 12.0827L37.768 13.223H38.6263L38.1776 12.0827ZM37.6715 13.4909L37.4658 14.0602C37.3782 14.3088 37.3833 14.4256 37.8512 14.4256H37.9144V14.6159H36.623V14.4256H36.6955C36.93 14.4256 37.0513 14.3188 37.1734 13.9771L38.0075 11.6527L37.9536 11.5117H38.6751L39.6498 13.9884C39.7766 14.3088 39.8838 14.4068 40.1366 14.4256V14.6159H38.5528V14.4256H38.7235C39.0206 14.4256 39.0643 14.2946 38.9672 14.0561L38.7379 13.4909H37.6715Z" fill="#E6E7F5"/>
<path fill-rule="evenodd" clip-rule="evenodd" d="M41.6973 13.9588C41.6973 14.3146 41.8288 14.3977 42.141 14.3977C42.6868 14.3977 42.8235 14.0463 42.8235 13.7192C42.8235 13.4272 42.6868 12.9935 42.0542 12.9935C41.9606 12.9935 41.7704 13.003 41.6973 13.0079V13.9588ZM41.6973 12.7992C41.8047 12.8033 41.9803 12.8082 42.0732 12.8082C42.5605 12.8082 42.6822 12.5446 42.6822 12.296C42.6822 12.0181 42.5453 11.7024 41.9554 11.7024C41.8536 11.7024 41.7802 11.7057 41.6973 11.7168V12.7992ZM41.0248 12.2039C41.0248 11.8283 40.9713 11.7744 40.6006 11.7744H40.4782V11.584C40.6006 11.5809 40.8342 11.5603 41.0931 11.5454C41.3862 11.531 41.6734 11.5117 41.8826 11.5117C42.4915 11.5117 42.96 11.5948 43.2233 11.8574C43.3447 11.9795 43.4085 12.1501 43.4085 12.3C43.4085 12.598 43.2134 12.7831 42.8085 12.8711V12.8813C43.2809 12.9837 43.5799 13.3052 43.5799 13.7002C43.5799 14.1972 43.1261 14.6159 42.3209 14.6159H40.4355V14.4256C40.9122 14.4256 41.0248 14.3044 41.0248 14.0167V12.2039Z" fill="#E6E7F5"/>
<path fill-rule="evenodd" clip-rule="evenodd" d="M45.9285 14.4755C46.6056 14.4755 46.9229 13.8893 46.9229 13.2178C46.9229 12.4332 46.5327 11.7022 45.7925 11.7022C45.1725 11.7022 44.7682 12.1799 44.7682 12.9149C44.7682 13.8467 45.2407 14.4755 45.9285 14.4755ZM45.9093 11.4922C46.9277 11.4922 47.6491 12.1305 47.6491 13.0414C47.6491 13.9092 46.9805 14.684 45.8163 14.684C44.6951 14.684 44.043 13.968 44.043 13.1486C44.043 12.184 44.8216 11.4922 45.9093 11.4922Z" fill="#E6E7F5"/>
<path fill-rule="evenodd" clip-rule="evenodd" d="M49.081 13.1247H49.2714C49.8602 13.1247 50.2016 12.9443 50.2016 12.4234C50.2016 11.9064 49.8071 11.7209 49.3343 11.7209H49.081V13.1247ZM49.081 14.0709C49.081 14.3188 49.188 14.4256 49.4666 14.4256H49.6122V14.6159H47.9062V14.4256H47.9835C48.282 14.4256 48.4081 14.3533 48.4081 14.0709V12.1456C48.4081 11.9114 48.3456 11.7744 48.0186 11.7744H47.9156V11.584C48.159 11.5698 48.3456 11.5603 48.5445 11.5454C48.818 11.527 49.1684 11.5117 49.3433 11.5117C50.0614 11.5117 50.4506 11.6038 50.694 11.8485C50.855 12.0086 50.9283 12.1937 50.9283 12.4033C50.9283 12.774 50.6604 13.0663 50.2072 13.1875C50.5282 13.4569 50.6985 13.842 51.0447 14.1876C51.2452 14.387 51.3812 14.4457 51.6881 14.4758V14.6658C51.5812 14.6698 51.5327 14.6698 51.3861 14.6698C50.7822 14.6698 50.5334 14.5824 50.3047 14.3533C50.0614 14.1099 49.7785 13.5975 49.4666 13.3293H49.081V14.0709Z" fill="#E6E7F5"/>
<path fill-rule="evenodd" clip-rule="evenodd" d="M53.4785 12.0827L53.0689 13.223H53.9275L53.4785 12.0827ZM52.9721 13.4909L52.7669 14.0602C52.679 14.3088 52.6842 14.4256 53.1524 14.4256H53.2158V14.6159H51.9238V14.4256H51.997C52.2303 14.4256 52.3535 14.3188 52.4756 13.9771L53.3078 11.6527L53.254 11.5117H53.9762L54.9501 13.9884C55.077 14.3088 55.184 14.4068 55.4385 14.4256V14.6159H53.8539V14.4256H54.0247C54.3218 14.4256 54.3646 14.2946 54.2684 14.0561L54.04 13.4909H52.9721Z" fill="#E6E7F5"/>
<path fill-rule="evenodd" clip-rule="evenodd" d="M57.3675 14.0603C57.3675 14.3146 57.4456 14.4257 57.7918 14.4257H57.9089V14.6159H56.1543V14.4257H56.3204C56.5876 14.4257 56.6953 14.3188 56.6953 14.0603V11.8386H56.1202C55.744 11.8386 55.6865 11.896 55.5933 12.4127H55.3945L55.4815 11.502H55.6369C55.6765 11.5359 55.7018 11.5603 55.7297 11.5698C55.7647 11.5809 55.8032 11.5841 55.8719 11.5841H58.1925C58.3236 11.5841 58.3475 11.5747 58.4257 11.502H58.5817L58.6685 12.4127H58.4691C58.377 11.9014 58.3187 11.8386 57.9433 11.8386H57.3675V14.0603Z" fill="#E6E7F5"/>
<path fill-rule="evenodd" clip-rule="evenodd" d="M60.9305 14.4755C61.6083 14.4755 61.9251 13.8893 61.9251 13.2178C61.9251 12.4332 61.5355 11.7022 60.7938 11.7022C60.1753 11.7022 59.7701 12.1799 59.7701 12.9149C59.7701 13.8467 60.244 14.4755 60.9305 14.4755ZM60.912 11.4922C61.9299 11.4922 62.6516 12.1305 62.6516 13.0414C62.6516 13.9092 61.9841 14.684 60.8183 14.684C59.6978 14.684 59.0449 13.968 59.0449 13.1486C59.0449 12.184 59.8237 11.4922 60.912 11.4922Z" fill="#E6E7F5"/>
<path fill-rule="evenodd" clip-rule="evenodd" d="M64.0838 13.1247H64.2735C64.8633 13.1247 65.2041 12.9443 65.2041 12.4234C65.2041 11.9064 64.8094 11.7209 64.3366 11.7209H64.0838V13.1247ZM64.0838 14.0709C64.0838 14.3188 64.191 14.4256 64.4681 14.4256H64.6144V14.6159H62.9082V14.4256H62.9866C63.2846 14.4256 63.41 14.3533 63.41 14.0709V12.1456C63.41 11.9114 63.3472 11.7744 63.0211 11.7744H62.9194V11.584C63.162 11.5698 63.3472 11.5603 63.5471 11.5454C63.8195 11.527 64.1715 11.5117 64.3469 11.5117C65.0626 11.5117 65.4528 11.6038 65.6967 11.8485C65.8581 12.0086 65.9306 12.1937 65.9306 12.4033C65.9306 12.774 65.6624 13.0663 65.2094 13.1875C65.5309 13.4569 65.7014 13.842 66.0478 14.1876C66.2475 14.387 66.3846 14.4457 66.6911 14.4758V14.6658C66.5833 14.6698 66.535 14.6698 66.3892 14.6698C65.7851 14.6698 65.5354 14.5824 65.3074 14.3533C65.0626 14.1099 64.7806 13.5975 64.4681 13.3293H64.0838V14.0709Z" fill="#E6E7F5"/>
<path fill-rule="evenodd" clip-rule="evenodd" d="M68.6247 14.066C68.6247 14.2994 68.6986 14.4256 69.0491 14.4256H69.122V14.6159H67.4607V14.4256H67.5822C67.8747 14.4256 67.9539 14.2945 67.9539 14.0755V13.3981L66.9052 12.0037C66.7636 11.8183 66.7049 11.7744 66.4616 11.7744H66.4277V11.584H68.0164V11.7744H67.9576C67.6758 11.7744 67.6356 11.8919 67.7381 12.023L68.5181 13.0515L69.0834 12.1649C69.21 11.9652 69.2492 11.7744 68.9078 11.7744H68.8501V11.584H69.9997V11.7744C69.7173 11.795 69.6348 11.8484 69.459 12.1156L68.6247 13.3981V14.066Z" fill="#E6E7F5"/>
<path fill-rule="evenodd" clip-rule="evenodd" d="M11.1979 18.5006H10.2797V18.3273H10.336C10.432 18.3273 10.5 18.3089 10.5326 18.2732C10.553 18.2514 10.5612 18.2215 10.5582 18.1816L10.481 16.9871L9.77352 18.5006H9.62992L8.90472 16.9844L8.83284 18.1872C8.83025 18.2275 8.83789 18.2575 8.85618 18.2771C8.8834 18.307 8.93813 18.3239 9.02902 18.3273L9.08361 18.3292V18.5006H8.31836V18.3273H8.37525C8.55832 18.3273 8.57603 18.3194 8.59058 18.0459L8.66605 16.8264C8.67801 16.6266 8.67441 16.6203 8.53124 16.6115L8.47795 16.6086V16.4424H9.04342L9.76301 17.9454L10.4786 16.4424H11.0319V16.6077L10.9797 16.6115C10.8219 16.6243 10.8221 16.6259 10.8251 16.6728L10.9252 18.0918C10.9406 18.3273 10.9406 18.3273 11.1411 18.3273H11.1979V18.5006Z" fill="#E6E7F5"/>
<path fill-rule="evenodd" clip-rule="evenodd" d="M12.019 17.607H12.2772L12.1458 17.2592L12.019 17.607ZM13.0643 18.5013H12.2799V18.3414H12.4005C12.5062 18.3414 12.5284 18.3302 12.5327 18.3262C12.5337 18.2915 12.5229 18.2655 12.5146 18.2445L12.361 17.828H11.9358L11.7967 18.2045C11.7856 18.232 11.7629 18.2904 11.7629 18.3076C11.7629 18.3367 11.8507 18.3414 11.9033 18.3414H11.9998V18.5013H11.3223V18.342L11.3783 18.3414C11.5016 18.3388 11.5148 18.3386 11.589 18.1366L12.0254 16.9465L11.9801 16.834H12.3159L12.8394 18.2239C12.8788 18.3299 12.9063 18.3414 13.0076 18.3414H13.0643V18.5013Z" fill="#E6E7F5"/>
<path fill-rule="evenodd" clip-rule="evenodd" d="M13.7017 18.5398C13.6046 18.5398 13.4944 18.5095 13.4216 18.4892C13.3938 18.4814 13.3722 18.4748 13.3609 18.4738L13.3441 18.4996L13.2235 18.5013L13.1562 18.0164H13.3128L13.3228 18.0604C13.3662 18.2429 13.5058 18.3603 13.6797 18.3603C13.8143 18.3603 13.9589 18.2881 13.9589 18.1294C13.9589 17.9939 13.7959 17.8905 13.6228 17.7819C13.4138 17.6502 13.1768 17.5001 13.1768 17.2451C13.1768 17.0113 13.3876 16.834 13.6676 16.834C13.8015 16.834 13.8731 16.8598 13.9254 16.8779C13.9556 16.8891 13.9754 16.8955 13.9988 16.8955L14.0161 16.8726L14.1315 16.8713L14.1887 17.295H14.0431L14.0288 17.2587C13.969 17.1058 13.8359 17.0068 13.6897 17.0068C13.5604 17.0068 13.4734 17.076 13.4734 17.1794C13.4734 17.3099 13.6321 17.4084 13.7999 17.513C14.0135 17.6453 14.2558 17.7963 14.2558 18.0673C14.2558 18.3365 14.0176 18.5398 13.7017 18.5398Z" fill="#E6E7F5"/>
<path fill-rule="evenodd" clip-rule="evenodd" d="M14.9711 18.5398C14.8742 18.5398 14.7638 18.5095 14.6905 18.4892C14.663 18.4814 14.6414 18.4748 14.6307 18.4738L14.6136 18.4996L14.4925 18.5013L14.4258 18.0164H14.5822L14.5926 18.0604C14.6352 18.2429 14.7752 18.3603 14.9489 18.3603C15.0839 18.3603 15.2288 18.2881 15.2288 18.1294C15.2288 17.9939 15.0656 17.8905 14.8929 17.7819C14.6832 17.6502 14.4461 17.5001 14.4461 17.2451C14.4461 17.0113 14.6574 16.834 14.9368 16.834C15.0713 16.834 15.1423 16.8598 15.1948 16.8779C15.2249 16.8891 15.2446 16.8955 15.2687 16.8955L15.2854 16.8742L15.4009 16.8713L15.4572 17.295H15.3123L15.2982 17.2587C15.2388 17.1058 15.1058 17.0068 14.959 17.0068C14.8298 17.0068 14.7428 17.076 14.7428 17.1794C14.7428 17.3099 14.9015 17.4084 15.0692 17.513C15.2828 17.6453 15.525 17.7963 15.525 18.0673C15.525 18.3365 15.2868 18.5398 14.9711 18.5398Z" fill="#E6E7F5"/>
<path fill-rule="evenodd" clip-rule="evenodd" d="M16.2766 17.607H16.5347L16.4032 17.2592L16.2766 17.607ZM17.3217 18.5013H16.5383V18.3414H16.6577C16.764 18.3414 16.7861 18.3302 16.7905 18.3262C16.7915 18.2916 16.7809 18.266 16.7725 18.2448L16.6184 17.828H16.1935L16.0522 18.2109C16.0413 18.2387 16.0207 18.2916 16.0205 18.3076C16.0205 18.3367 16.1082 18.3414 16.1607 18.3414H16.2567V18.5013H15.5801V18.342L15.636 18.3414C15.7601 18.3388 15.7729 18.3386 15.8473 18.1366L16.2828 16.9463L16.2386 16.834H16.5735L17.0967 18.2239C17.1361 18.3295 17.1656 18.3414 17.265 18.3414H17.3217V18.5013Z" fill="#E6E7F5"/>
<path fill-rule="evenodd" clip-rule="evenodd" d="M18.2101 18.5398C17.6844 18.5398 17.3027 18.189 17.3027 17.7051C17.3027 17.2008 17.6945 16.834 18.2346 16.834C18.4494 16.834 18.5819 16.8796 18.6695 16.9097C18.7035 16.922 18.7331 16.9318 18.7484 16.9318L18.7655 16.9106L18.7932 16.9175H18.8822L18.912 17.3849H18.7645L18.7513 17.347C18.677 17.1385 18.4851 17.009 18.2495 17.009C17.8828 17.009 17.6461 17.2636 17.6461 17.657C17.6461 18.0538 17.9228 18.3652 18.2761 18.3652C18.5177 18.3652 18.6958 18.2569 18.8211 18.0335L18.8373 18.0044H18.9921L18.9715 18.0771C18.9378 18.1938 18.8697 18.3499 18.8095 18.4474L18.7899 18.4787L18.7529 18.4734C18.6878 18.4649 18.6322 18.478 18.5563 18.4953C18.4714 18.5153 18.3657 18.5398 18.2101 18.5398Z" fill="#E6E7F5"/>
<path fill-rule="evenodd" clip-rule="evenodd" d="M20.9704 18.5011H20.1668V18.3412H20.2992C20.4215 18.3412 20.4352 18.315 20.4352 18.2143V17.7765H19.5932V18.184C19.5932 18.3218 19.6101 18.3412 19.7313 18.3412H19.7883L19.7955 18.4438V18.5011H19.0703V18.3412H19.1415C19.264 18.3412 19.2773 18.3159 19.2773 18.2198V17.1478C19.2773 17.0578 19.2675 17.0389 19.1544 17.031L19.1017 17.0275V16.8711H19.7955V17.031H19.7388C19.6097 17.031 19.5932 17.0377 19.5932 17.2089V17.5758H20.4352V17.1527C20.4352 17.0608 20.4245 17.031 20.2992 17.031H20.1964V16.8711H20.9364V17.0294L20.8817 17.031C20.7666 17.0349 20.7507 17.0521 20.7507 17.1743V18.1853C20.7507 18.3276 20.7755 18.3412 20.8886 18.3412H20.9704V18.5011Z" fill="#E6E7F5"/>
<path fill-rule="evenodd" clip-rule="evenodd" d="M22.0453 18.5396C21.5829 18.5396 21.2841 18.2764 21.2841 17.8697V17.1569C21.2841 17.0438 21.2799 17.0337 21.1304 17.031L21.0742 17.0303V16.8711H21.8145V17.031H21.735C21.6224 17.031 21.6001 17.0517 21.6001 17.1527V17.8293C21.6001 18.1371 21.7723 18.2995 22.0982 18.2995C22.326 18.2995 22.5974 18.2182 22.5974 17.8275V17.2593C22.5974 17.0487 22.5768 17.0387 22.4127 17.031L22.3583 17.0287V16.8711H23.045V17.0303L22.9888 17.031C22.8602 17.0336 22.8232 17.0713 22.8232 17.1986V17.8571C22.8232 18.1716 22.6194 18.5396 22.0453 18.5396Z" fill="#E6E7F5"/>
<path fill-rule="evenodd" clip-rule="evenodd" d="M23.6625 18.5398C23.5653 18.5398 23.4548 18.5095 23.3821 18.4889C23.3544 18.4813 23.3329 18.4748 23.322 18.4738L23.3053 18.4999L23.1842 18.5013L23.1172 18.0164H23.2726L23.2831 18.0601C23.3268 18.2426 23.4669 18.3603 23.6406 18.3603C23.7748 18.3603 23.9202 18.2881 23.9202 18.1294C23.9202 17.9939 23.7568 17.8905 23.5841 17.7819C23.375 17.6502 23.1381 17.5001 23.1381 17.2451C23.1381 17.0113 23.3484 16.834 23.6281 16.834C23.7623 16.834 23.8339 16.8598 23.8862 16.8779C23.9163 16.8891 23.936 16.8955 23.9593 16.8955L23.9765 16.8729L24.0923 16.8713L24.1483 17.295H24.0039L23.9895 17.2587C23.9298 17.1058 23.7967 17.0068 23.6498 17.0068C23.5203 17.0068 23.4333 17.076 23.4333 17.1794C23.4333 17.3099 23.5922 17.4084 23.7599 17.513C23.974 17.6453 24.2163 17.7963 24.2163 18.0673C24.2163 18.3365 23.9782 18.5398 23.6625 18.5398Z" fill="#E6E7F5"/>
<path fill-rule="evenodd" clip-rule="evenodd" d="M25.671 18.5011H24.2695V18.3412H24.3941C24.559 18.3412 24.5664 18.3094 24.5664 18.1982V17.1685C24.5664 17.0575 24.5533 17.031 24.4275 17.031H24.3174V16.8711H25.5978L25.6236 17.3241H25.4712L25.4636 17.2763C25.4326 17.0732 25.3806 17.0732 25.3393 17.0732H24.8822V17.5589H25.2612C25.3038 17.5589 25.3348 17.5589 25.3457 17.4282L25.3501 17.3761H25.5058V17.9529H25.3518L25.346 17.9021C25.33 17.7599 25.3083 17.7599 25.2364 17.7599H24.8822V18.222C24.8822 18.2995 24.8935 18.2995 24.957 18.2995H25.3318C25.4595 18.2995 25.5 18.2724 25.5611 18.0647L25.5727 18.0242H25.7217L25.671 18.5011Z" fill="#E6E7F5"/>
<path fill-rule="evenodd" clip-rule="evenodd" d="M27.0708 18.5013H26.1893V18.3414H26.3365C26.4564 18.3414 26.4726 18.3171 26.4726 18.22V17.0734H26.1049C26.0619 17.0734 26.0211 17.0734 25.9831 17.2958L25.975 17.3427H25.8203L25.8709 16.834H26.0179L26.0228 16.8693C26.031 16.8706 26.0377 16.8713 26.0441 16.8713H27.2164C27.2264 16.8713 27.2331 16.8706 27.2376 16.8697L27.2436 16.834H27.3894L27.4391 17.3427H27.2856L27.2775 17.2958C27.2395 17.0734 27.1987 17.0734 27.1558 17.0734H26.7882V18.22C26.7882 18.3171 26.8042 18.3414 26.9242 18.3414H27.0708V18.5013Z" fill="#E6E7F5"/>
<path fill-rule="evenodd" clip-rule="evenodd" d="M28.8201 18.5013H27.9396V18.3414H28.0857C28.2062 18.3414 28.2221 18.3171 28.2221 18.22V17.0734H27.8545C27.8098 17.0734 27.7708 17.0734 27.7322 17.2958L27.7239 17.3427H27.5703L27.6201 16.834H27.7668L27.7721 16.8691C27.7802 16.8706 27.7874 16.8713 27.7934 16.8713H28.9653C28.9756 16.8713 28.9824 16.8703 28.9877 16.8697L28.9931 16.834H29.139L29.1892 17.3427H29.0344L29.0263 17.2958C28.9885 17.0734 28.9496 17.0734 28.9048 17.0734H28.5378V18.22C28.5378 18.3171 28.5541 18.3414 28.673 18.3414H28.8201V18.5013Z" fill="#E6E7F5"/>
<path fill-rule="evenodd" clip-rule="evenodd" d="M29.871 18.5398C29.7743 18.5398 29.6644 18.5095 29.5916 18.4892C29.5634 18.4814 29.5422 18.4748 29.531 18.4738L29.514 18.4996L29.3926 18.5013L29.3262 18.0164H29.4822L29.4927 18.0604C29.5356 18.2429 29.6757 18.3603 29.8497 18.3603C29.984 18.3603 30.1287 18.2881 30.1287 18.1294C30.1287 17.9939 29.9655 17.8905 29.793 17.7819C29.584 17.6502 29.3466 17.5001 29.3466 17.2451C29.3466 17.0113 29.5575 16.834 29.8368 16.834C29.971 16.834 30.0422 16.8598 30.0944 16.8779C30.125 16.8891 30.1447 16.8955 30.1689 16.8955L30.186 16.8722L30.3017 16.8713L30.3574 17.295H30.213L30.199 17.2587C30.1394 17.1058 30.0057 17.0068 29.8588 17.0068C29.7299 17.0068 29.6433 17.076 29.6433 17.1794C29.6433 17.3099 29.8018 17.4084 29.9694 17.513C30.1833 17.6453 30.4253 17.7963 30.4253 18.0673C30.4253 18.3365 30.1873 18.5398 29.871 18.5398Z" fill="#E6E7F5"/>
<path fill-rule="evenodd" clip-rule="evenodd" d="M32.5972 18.5013H31.7227V18.3302L31.7768 18.328C31.9319 18.3206 31.9566 18.3054 31.9566 18.1149V16.7813C31.9566 16.6475 31.9282 16.6201 31.7764 16.6122L31.7227 16.6097V16.4385H32.5972V16.6122H32.5403C32.3626 16.6122 32.3315 16.6417 32.3315 16.8086V18.1369C32.3315 18.2896 32.3564 18.328 32.5403 18.328H32.5972V18.5013Z" fill="#E6E7F5"/>
<path fill-rule="evenodd" clip-rule="evenodd" d="M34.5483 18.5172H34.4042L33.2216 17.2816V18.1853C33.2216 18.3231 33.2288 18.3412 33.4116 18.3412H33.468V18.5011H32.7891V18.3412H32.8458C32.9919 18.3412 32.9986 18.3002 32.9986 18.2351V17.0671C32.9583 17.0441 32.9108 17.0333 32.8494 17.031L32.7942 17.0295V16.8711H33.2585L34.3239 17.9835V17.155C34.3239 17.0533 34.3239 17.0356 34.1407 17.031L34.0855 17.0298V16.8711H34.7691V17.031H34.712C34.5483 17.031 34.5483 17.0529 34.5483 17.1015V18.5172Z" fill="#E6E7F5"/>
<path fill-rule="evenodd" clip-rule="evenodd" d="M35.4023 18.5398C35.3058 18.5398 35.1962 18.5095 35.123 18.4892C35.0957 18.4814 35.0738 18.4748 35.0621 18.4738L35.0451 18.4996L34.924 18.5013L34.8574 18.0164H35.0136L35.0233 18.0604C35.0667 18.2429 35.2066 18.3603 35.3804 18.3603C35.5152 18.3603 35.6597 18.2881 35.6597 18.1294C35.6597 17.9939 35.4961 17.8905 35.3239 17.7819C35.1144 17.6502 34.8773 17.5001 34.8773 17.2451C34.8773 17.0113 35.0884 16.834 35.3684 16.834C35.5021 16.834 35.574 16.8598 35.6254 16.8779C35.6555 16.8891 35.6758 16.8955 35.6994 16.8955L35.7163 16.8722L35.8325 16.8713L35.8891 17.295H35.7437L35.7295 17.2587C35.6698 17.1058 35.5371 17.0068 35.3898 17.0068C35.2604 17.0068 35.174 17.076 35.174 17.1794C35.174 17.3099 35.3324 17.4084 35.5002 17.513C35.7136 17.6453 35.9555 17.7963 35.9555 18.0673C35.9555 18.3365 35.718 18.5398 35.4023 18.5398Z" fill="#E6E7F5"/>
<path fill-rule="evenodd" clip-rule="evenodd" d="M37.3232 18.5013H36.4419V18.3414H36.5883C36.7085 18.3414 36.7244 18.3171 36.7244 18.22V17.0734H36.3576C36.3141 17.0734 36.2735 17.0734 36.2342 17.2958L36.2261 17.3427H36.0723L36.1227 16.834H36.2712L36.2756 16.8693C36.2833 16.8706 36.29 16.8713 36.2964 16.8713H37.4685C37.4776 16.8713 37.4848 16.8706 37.4897 16.8697L37.4947 16.834H37.6418L37.6912 17.3427H37.5375L37.5296 17.2958C37.4914 17.0734 37.4524 17.0734 37.4076 17.0734H37.0405V18.22C37.0405 18.3171 37.0563 18.3414 37.1754 18.3414H37.3232V18.5013Z" fill="#E6E7F5"/>
<path fill-rule="evenodd" clip-rule="evenodd" d="M38.5361 18.5011H37.8301V18.3437L37.8839 18.3412C37.9985 18.3352 38.0133 18.3264 38.0133 18.188V17.1505C38.0133 17.0589 38.001 17.0367 37.8839 17.031L37.8301 17.0287V16.8711H38.5361V17.031H38.4788C38.3474 17.031 38.3286 17.0487 38.3286 17.172V18.2054C38.3286 18.3173 38.3418 18.3412 38.4788 18.3412H38.5361V18.5011Z" fill="#E6E7F5"/>
<path fill-rule="evenodd" clip-rule="evenodd" d="M39.9236 18.5013H39.0421V18.3414H39.1902C39.31 18.3414 39.3259 18.3171 39.3259 18.22V17.0734H38.958C38.9129 17.0734 38.874 17.0734 38.836 17.2958L38.8278 17.3427H38.6738L38.7237 16.834H38.8703L38.8752 16.8691C38.8833 16.8706 38.8903 16.8713 38.8971 16.8713H40.0697C40.0793 16.8713 40.0862 16.8706 40.0902 16.8697L40.096 16.834H40.2423L40.2929 17.3427H40.1395L40.1314 17.2958C40.0928 17.0734 40.0518 17.0734 40.0097 17.0734H39.6412V18.22C39.6412 18.3171 39.657 18.3414 39.7768 18.3414H39.9236V18.5013Z" fill="#E6E7F5"/>
<path fill-rule="evenodd" clip-rule="evenodd" d="M41.3682 18.5396C40.9064 18.5396 40.6074 18.2764 40.6074 17.8697V17.1569C40.6074 17.0438 40.6034 17.0337 40.4542 17.031L40.3984 17.0303V16.8711H41.1379V17.031H41.0591C40.9465 17.031 40.9236 17.0517 40.9236 17.1527V17.8293C40.9236 18.1371 41.0961 18.2995 41.4222 18.2995C41.6489 18.2995 41.9206 18.2182 41.9206 17.8275V17.2593C41.9206 17.0487 41.8994 17.0387 41.7359 17.031L41.6821 17.0287V16.8711H42.3678V17.0303L42.3123 17.031C42.184 17.0336 42.1469 17.0713 42.1469 17.1986V17.8571C42.1469 18.1716 41.9428 18.5396 41.3682 18.5396Z" fill="#E6E7F5"/>
<path fill-rule="evenodd" clip-rule="evenodd" d="M43.7158 18.5013H42.8334V18.3414H42.9813C43.1012 18.3414 43.117 18.3171 43.117 18.22V17.0734H42.749C42.7065 17.0734 42.6653 17.0734 42.6265 17.296L42.6181 17.3427H42.4648L42.5147 16.834H42.6607L42.6662 16.8691C42.6731 16.8703 42.6803 16.8713 42.6882 16.8713H43.8607C43.8702 16.8713 43.8774 16.8703 43.8816 16.8697L43.8875 16.834H44.0345L44.0845 17.3427H43.9291L43.9213 17.2955C43.8841 17.0734 43.8427 17.0734 43.8002 17.0734H43.4327V18.22C43.4327 18.3171 43.4486 18.3414 43.5684 18.3414H43.7158V18.5013Z" fill="#E6E7F5"/>
<path fill-rule="evenodd" clip-rule="evenodd" d="M45.5481 18.5011H44.1465V18.3412H44.2709C44.443 18.3412 44.443 18.3023 44.443 18.1982V17.1685C44.443 17.0575 44.4309 17.031 44.3055 17.031H44.1953V16.8711H45.4752L45.5011 17.3241H45.3492L45.3417 17.2763C45.3095 17.0732 45.2586 17.0732 45.2165 17.0732H44.7595V17.5589H45.1396C45.1801 17.5589 45.2128 17.5589 45.2237 17.4282L45.2286 17.3761H45.3834V17.9529H45.2298L45.2237 17.9024C45.2076 17.7599 45.186 17.7599 45.1148 17.7599H44.7595V18.222C44.7595 18.2995 44.7727 18.2995 44.8341 18.2995H45.2094C45.3373 18.2995 45.3774 18.2724 45.4385 18.0647L45.4508 18.0242H45.6002L45.5481 18.5011Z" fill="#E6E7F5"/>
<path fill-rule="evenodd" clip-rule="evenodd" d="M47.2777 17.009C46.8794 17.009 46.7347 17.3888 46.7347 17.6445C46.7347 18.0552 47.0116 18.3652 47.3801 18.3652C47.7446 18.3652 47.9108 18.0333 47.9108 17.7257C47.9108 17.3038 47.6509 17.009 47.2777 17.009ZM47.3295 18.5398C46.7954 18.5398 46.3926 18.1879 46.3926 17.7204C46.3926 17.2066 46.7911 16.834 47.3418 16.834C47.8525 16.834 48.2531 17.19 48.2531 17.6445C48.2531 18.1464 47.847 18.5398 47.3295 18.5398Z" fill="#E6E7F5"/>
<path fill-rule="evenodd" clip-rule="evenodd" d="M49.1056 18.5011H48.4001V18.3444L48.4531 18.3412C48.5698 18.3336 48.579 18.3329 48.579 18.1592V17.204C48.579 17.0543 48.5712 17.0333 48.4521 17.031L48.3965 17.0303V16.8711H49.6005V17.2728H49.4465L49.4459 17.2172C49.4442 17.1015 49.4155 17.0732 49.3009 17.0732H48.8934V17.5318H49.3195C49.3614 17.5318 49.399 17.524 49.4039 17.4295L49.4075 17.3761H49.5594V17.9184H49.4063L49.4039 17.8636C49.4004 17.7445 49.368 17.733 49.2882 17.733H48.8934V18.2107C48.8934 18.3108 48.8934 18.3412 49.0492 18.3412H49.1056V18.5011Z" fill="#E6E7F5"/>
<path fill-rule="evenodd" clip-rule="evenodd" d="M52.4125 18.5012H51.3129V18.3279H51.4851C51.651 18.3279 51.6757 18.2891 51.6757 18.1548V16.6657H51.1877C51.1119 16.6657 51.0631 16.6863 51.0147 16.966L51.0065 17.0131H50.8398L50.9012 16.3917H51.0581L51.0671 16.4374C51.0779 16.4362 51.0932 16.4384 51.1093 16.4384H52.6162C52.6454 16.4384 52.6593 16.4336 52.6616 16.431L52.6695 16.3838L52.7136 16.3917H52.8246L52.8868 17.0131H52.7189L52.711 16.9658C52.6634 16.6867 52.6122 16.6657 52.538 16.6657H52.0502V18.1548C52.0502 18.2891 52.0749 18.3279 52.24 18.3279H52.4125V18.5012Z" fill="#E6E7F5"/>
<path fill-rule="evenodd" clip-rule="evenodd" d="M54.399 18.5011H52.9961V18.3412H53.1218C53.2934 18.3412 53.2934 18.3048 53.2934 18.1982V17.1685C53.2934 17.0575 53.2811 17.031 53.1555 17.031H53.0452V16.8711H54.3242L54.3519 17.3241H54.1998L54.1924 17.2764C54.1596 17.0732 54.1087 17.0732 54.067 17.0732H53.61V17.5589H53.9886C54.032 17.5589 54.0632 17.5589 54.073 17.4284L54.0776 17.3761H54.2338V17.9529H54.0791L54.0733 17.9021C54.058 17.7599 54.0346 17.7599 53.965 17.7599H53.61V18.222C53.61 18.2995 53.6218 18.2995 53.6843 18.2995H54.0591C54.1872 18.2995 54.2271 18.2724 54.2881 18.0647L54.3003 18.0242H54.4484L54.399 18.5011Z" fill="#E6E7F5"/>
<path fill-rule="evenodd" clip-rule="evenodd" d="M55.5121 18.5398C54.9852 18.5398 54.6035 18.189 54.6035 17.7051C54.6035 17.2008 54.9957 16.834 55.5354 16.834C55.7503 16.834 55.8822 16.8796 55.9705 16.9097C56.0044 16.922 56.034 16.9318 56.0496 16.9318L56.0673 16.9122L56.0937 16.9175H56.184L56.2127 17.3849H56.0666L56.0529 17.347C55.978 17.1385 55.7859 17.009 55.5508 17.009C55.1834 17.009 54.9465 17.2636 54.9465 17.657C54.9465 18.0538 55.224 18.3652 55.5767 18.3652C55.8183 18.3652 55.9963 18.2569 56.1226 18.0333L56.1389 18.0044H56.293L56.2726 18.0771C56.2386 18.1939 56.1702 18.3499 56.1101 18.4474L56.0911 18.4787L56.0542 18.4734C55.9882 18.4649 55.9332 18.4777 55.8572 18.4953C55.7726 18.5153 55.6668 18.5398 55.5121 18.5398Z" fill="#E6E7F5"/>
<path fill-rule="evenodd" clip-rule="evenodd" d="M58.2717 18.5011H57.4678V18.3412H57.5995C57.7226 18.3412 57.7355 18.315 57.7355 18.2143V17.7765H56.8947V18.184C56.8947 18.3218 56.9112 18.3412 57.0318 18.3412H57.0879L57.0963 18.4438V18.5011H56.3711V18.3412H56.4425C56.565 18.3412 56.5785 18.3159 56.5785 18.2198V17.1478C56.5785 17.0589 56.5681 17.0389 56.4558 17.031L56.4031 17.0275V16.8711H57.0963V17.031H57.04C56.9109 17.031 56.8947 17.0377 56.8947 17.2089V17.5758H57.7355V17.1527C57.7355 17.0608 57.725 17.031 57.5995 17.031H57.4977V16.8711H58.2359V17.0294L58.1812 17.031C58.0671 17.0349 58.0514 17.0521 58.0514 17.1743V18.1853C58.0514 18.3276 58.0757 18.3412 58.1899 18.3412H58.2717V18.5011Z" fill="#E6E7F5"/>
<path fill-rule="evenodd" clip-rule="evenodd" d="M60.1639 18.5172H60.0196L58.8389 17.2816V18.1853C58.8389 18.3176 58.8389 18.3412 59.027 18.3412H59.0842V18.5011H58.4062V18.3412H58.4624C58.606 18.3412 58.6154 18.3003 58.6154 18.2351V17.0671C58.5748 17.0438 58.5282 17.0333 58.465 17.031L58.4103 17.0295V16.8711H58.8735L59.9405 17.9835V17.155C59.9405 17.0533 59.9405 17.0356 59.7579 17.031L59.7017 17.0298V16.8711H60.3857V17.031H60.3292C60.1639 17.031 60.1639 17.0529 60.1639 17.1015V18.5172Z" fill="#E6E7F5"/>
<path fill-rule="evenodd" clip-rule="evenodd" d="M61.3561 17.009C60.9587 17.009 60.8134 17.3888 60.8134 17.6445C60.8134 18.0552 61.0906 18.3652 61.4576 18.3652C61.8229 18.3652 61.9894 18.0333 61.9894 17.7257C61.9894 17.3038 61.729 17.009 61.3561 17.009ZM61.4073 18.5398C60.8731 18.5398 60.4707 18.1879 60.4707 17.7204C60.4707 17.2066 60.8697 16.834 61.419 16.834C61.9312 16.834 62.3312 17.19 62.3312 17.6445C62.3312 18.1546 61.9341 18.5398 61.4073 18.5398Z" fill="#E6E7F5"/>
<path fill-rule="evenodd" clip-rule="evenodd" d="M63.6 18.5011H62.4199V18.3412H62.5568C62.6363 18.3412 62.654 18.3325 62.654 18.237V17.1569C62.654 17.0616 62.6429 17.031 62.5177 17.031H62.4273V16.8711H63.2605V17.031H63.1126C62.9694 17.031 62.9694 17.0375 62.9694 17.1425V18.2669C62.9694 18.289 62.9736 18.2947 62.9739 18.295C62.9739 18.295 62.9811 18.2995 63.0102 18.2995H63.3694C63.479 18.2995 63.5085 18.2686 63.6638 18.0548L63.6806 18.0314H63.8476L63.6 18.5011Z" fill="#E6E7F5"/>
<path fill-rule="evenodd" clip-rule="evenodd" d="M64.7933 17.009C64.3956 17.009 64.251 17.3888 64.251 17.6445C64.251 18.0552 64.5288 18.3652 64.8961 18.3652C65.2605 18.3652 65.4269 18.0333 65.4269 17.7257C65.4269 17.3038 65.1668 17.009 64.7933 17.009ZM64.8447 18.5398C64.3109 18.5398 63.9082 18.1879 63.9082 17.7204C63.9082 17.2066 64.3069 16.834 64.8572 16.834C65.3684 16.834 65.7691 17.19 65.7691 17.6445C65.7691 18.1464 65.3628 18.5398 64.8447 18.5398Z" fill="#E6E7F5"/>
<path fill-rule="evenodd" clip-rule="evenodd" d="M66.8088 18.5398C66.258 18.5398 65.9707 18.125 65.9707 17.7155C65.9707 17.3617 66.2114 16.834 66.8764 16.834C67.0658 16.834 67.2105 16.8762 67.2967 16.9011C67.3236 16.9087 67.3534 16.9174 67.3623 16.9175C67.374 16.9175 67.3801 16.9152 67.3811 16.9144L67.3971 16.9008H67.5083V17.4091H67.3575L67.3481 17.3642C67.2962 17.1258 67.1513 17.009 66.9048 17.009C66.4956 17.009 66.3126 17.3565 66.3126 17.7002C66.3126 18.1886 66.6556 18.3652 66.886 18.3652C66.9932 18.3652 67.0975 18.3419 67.203 18.2929V18.0228C67.203 17.9222 67.1861 17.8944 67.0643 17.8944H66.9174V17.7364H67.6893V17.8905L67.636 17.8944C67.5297 17.9011 67.5179 17.9285 67.5179 17.9916V18.3642L67.4875 18.3797C67.234 18.5108 66.9111 18.5398 66.8088 18.5398Z" fill="#E6E7F5"/>
<path fill-rule="evenodd" clip-rule="evenodd" d="M69.0042 18.5011H68.2198V18.3412H68.3234C68.4485 18.3412 68.4609 18.3048 68.4609 18.222V17.8956L68.0362 17.2326C67.9225 17.0539 67.8806 17.0351 67.7492 17.031L67.6934 17.0295V16.8711H68.4563V17.031H68.3991C68.3163 17.031 68.2899 17.0412 68.2827 17.0445C68.2861 17.0454 68.2917 17.0625 68.3167 17.1027L68.6568 17.6267L68.9541 17.1216C68.9884 17.0642 68.9833 17.0457 68.9833 17.0457C68.983 17.0457 68.9662 17.031 68.8779 17.031H68.8214V16.8711H69.4867V17.0272L69.434 17.031C69.2897 17.0419 69.2334 17.0951 69.1733 17.1959L68.7769 17.8666V18.2171C68.7769 18.3132 68.7946 18.3412 68.9149 18.3412H69.0042V18.5011Z" fill="#E6E7F5"/>
<path fill-rule="evenodd" clip-rule="evenodd" d="M4.53791 13.0697C4.66595 13.1495 4.77988 13.249 4.87883 13.367C4.89799 13.332 4.91081 13.3042 4.92435 13.2749C4.93357 13.2546 4.94278 13.2355 4.9533 13.2137C4.99507 13.1323 5.00731 13.0638 4.98599 13.0288C4.96468 12.9943 4.90361 12.9887 4.86933 12.9887C4.84686 12.9887 4.82281 12.9906 4.79674 12.9951C4.72126 13.0076 4.63441 13.0321 4.53791 13.0697ZM2.28984 12.9887C2.25542 12.9887 2.19435 12.9943 2.17274 13.0289C2.15171 13.0641 2.16367 13.1323 2.20486 13.2133C2.21595 13.2352 2.22488 13.2546 2.2341 13.2746C2.24793 13.3044 2.26104 13.3327 2.28106 13.3685C2.37972 13.2532 2.49437 13.1545 2.62385 13.0734C2.52217 13.0331 2.4346 13.0072 2.362 12.9951C2.33622 12.9906 2.31231 12.9887 2.28984 12.9887ZM3.04241 13.0759C3.21756 13.1695 3.40495 13.2837 3.58009 13.404C3.7656 13.2749 3.94665 13.162 4.11532 13.0708C3.79311 12.9725 3.37369 12.9701 3.04241 13.0759ZM3.7332 13.5146C3.9239 13.6631 4.14254 13.8655 4.33698 14.0734C4.45106 13.9454 4.5418 13.8384 4.61266 13.7479C4.68338 13.6568 4.73682 13.5852 4.77787 13.5261C4.65674 13.3695 4.50795 13.2464 4.3341 13.1591C4.15104 13.2478 3.94579 13.3695 3.7332 13.5146ZM2.38145 13.527C2.4225 13.586 2.47579 13.6572 2.54665 13.7479C2.61781 13.8391 2.70984 13.9474 2.8255 14.0783C3.02052 13.8666 3.23873 13.6628 3.42741 13.5162C3.22649 13.3814 3.01404 13.2563 2.82564 13.1642C2.65036 13.2535 2.50143 13.375 2.38145 13.527ZM4.45739 14.2072C4.59898 14.3696 4.7626 14.5774 4.88056 14.7893C4.99219 14.4711 5.08149 14.0237 4.88431 13.6843C4.84859 13.7332 4.80523 13.7908 4.75324 13.8583C4.67748 13.9543 4.58025 14.0688 4.45768 14.2059L4.45783 14.2062L4.45739 14.2072ZM2.27457 13.6845C2.06674 14.0425 2.18427 14.515 2.28739 14.7937C2.40363 14.5827 2.56567 14.3748 2.7061 14.2117L2.70523 14.2113L2.70538 14.2111C2.58108 14.0723 2.48241 13.9555 2.40608 13.8583C2.35365 13.7911 2.31029 13.7335 2.27457 13.6845ZM2.94577 14.2107C3.1091 14.3899 3.27848 14.5673 3.41431 14.7101C3.47797 14.7769 3.53429 14.8352 3.57879 14.8835L3.5798 14.8819L3.58052 14.8835C3.62546 14.8351 3.68134 14.7756 3.74544 14.7093C3.88184 14.5659 4.05281 14.386 4.21686 14.2059C4.01032 13.9836 3.7754 13.7685 3.58067 13.6232C3.3868 13.7682 3.1526 13.9847 2.94577 14.2107ZM3.70122 15.0156C3.74558 15.0632 3.80406 15.1242 3.87032 15.1949C4.00268 15.3333 4.16731 15.5064 4.32776 15.6814C4.54482 15.4263 4.70758 15.192 4.79227 15.0104C4.70758 14.8179 4.55116 14.5885 4.33669 14.34C4.17567 14.5161 4.00873 14.6912 3.87449 14.8322C3.80622 14.9036 3.74688 14.9669 3.70122 15.0156ZM2.37972 15.0086C2.48371 15.2207 2.63811 15.4504 2.83025 15.6819C2.99128 15.507 3.15663 15.333 3.28929 15.1934C3.35583 15.1237 3.41373 15.0629 3.45853 15.0156C3.41287 14.967 3.35324 14.9041 3.28511 14.8329C3.15231 14.6936 2.98711 14.5202 2.82651 14.3454C2.61881 14.5888 2.46211 14.8204 2.37972 15.0086ZM2.29503 15.2302C2.12622 15.7215 2.12132 16.07 2.27472 16.346C2.31029 16.2972 2.35365 16.2394 2.40593 16.1724C2.48313 16.0736 2.58266 15.957 2.70883 15.8152L2.70912 15.8148C2.54291 15.6166 2.40248 15.4184 2.29503 15.2302ZM4.44832 15.8141C4.5755 15.9562 4.67532 16.0735 4.75309 16.1724C4.80523 16.2397 4.84859 16.2975 4.88431 16.3464C5.03957 16.0788 5.03669 15.7049 4.87624 15.2315C4.77499 15.405 4.62879 15.6038 4.44832 15.8136V15.8141ZM2.94778 15.818C3.15159 16.0454 3.3806 16.2593 3.58009 16.4076C3.76229 16.2705 3.99433 16.0519 4.20879 15.8152C4.04546 15.6371 3.87636 15.4589 3.74126 15.3176C3.67933 15.2522 3.62431 15.195 3.58067 15.1475L3.5798 15.1495L3.5785 15.1475C3.53501 15.1949 3.48056 15.2516 3.41848 15.317C3.28252 15.4589 3.11227 15.6382 2.94778 15.818ZM2.38015 16.5057C2.49725 16.6572 2.64589 16.779 2.82305 16.8683C3.01174 16.7759 3.22505 16.6505 3.42669 16.5149C3.23412 16.3656 3.0198 16.1636 2.82766 15.9508C2.71071 16.0813 2.61809 16.191 2.54665 16.2828C2.47492 16.3744 2.42134 16.4465 2.38015 16.5057ZM3.73262 16.5152C3.94608 16.6617 4.15161 16.7836 4.33396 16.8719C4.50795 16.7847 4.65688 16.6617 4.77801 16.5047C4.73682 16.4455 4.68353 16.3739 4.61252 16.2828C4.54021 16.1906 4.44688 16.0801 4.3292 15.9486C4.12569 16.1716 3.91266 16.3742 3.73262 16.5152ZM3.04169 16.9568C3.37239 17.0604 3.79254 17.0585 4.11503 16.96C3.9468 16.8691 3.76575 16.7562 3.57995 16.627C3.40394 16.748 3.21684 16.8622 3.04169 16.9568ZM2.27933 16.6649C2.26046 16.6999 2.24764 16.7275 2.2341 16.7566C2.22503 16.7768 2.2161 16.7962 2.20515 16.8177C2.16381 16.8988 2.15186 16.9669 2.1726 17.0009C2.1942 17.0363 2.25542 17.042 2.28984 17.042C2.31231 17.042 2.33622 17.0392 2.36243 17.0356C2.43402 17.0241 2.52044 16.9986 2.62025 16.959C2.49048 16.8779 2.37655 16.7797 2.27933 16.6649ZM4.53791 16.9616C4.63441 16.9989 4.72126 17.0234 4.79688 17.0356C4.82281 17.0392 4.84686 17.042 4.86933 17.042C4.90375 17.042 4.96468 17.0363 4.98614 17.0012C5.00731 16.9672 4.99493 16.8991 4.95359 16.8186C4.94279 16.7962 4.93342 16.7768 4.92435 16.7563C4.91081 16.727 4.89799 16.6992 4.87883 16.664C4.77988 16.7811 4.66595 16.8814 4.53791 16.9616ZM4.86933 17.22C4.83865 17.22 4.80509 17.2175 4.76937 17.2115C4.64521 17.1928 4.49902 17.1444 4.33367 17.0689C4.11316 17.1647 3.85966 17.2125 3.5798 17.2125C3.30326 17.2125 3.04918 17.1637 2.82392 17.0656C2.65295 17.1441 2.5069 17.1938 2.38995 17.2115C2.2089 17.2397 2.082 17.1955 2.02036 17.0944C1.98147 17.0299 1.9541 16.9161 2.04614 16.7376L2.07235 16.682C2.09324 16.6359 2.11657 16.5857 2.16425 16.5092C2.1497 16.4866 2.1363 16.4637 2.12276 16.4403C1.92097 16.0838 1.93999 15.6431 2.1847 15.014C2.07552 14.7695 1.82534 14.0949 2.12363 13.5889C2.13688 13.5666 2.15042 13.5445 2.16482 13.5225C2.11729 13.446 2.09338 13.3956 2.0725 13.3497L2.04585 13.2935C1.9541 13.1149 1.98147 13.0007 2.02064 12.936C2.082 12.8353 2.20904 12.7904 2.3898 12.8191C2.50748 12.8375 2.6541 12.8875 2.82593 12.9665C3.05091 12.8677 3.30427 12.8182 3.5798 12.8182C3.85951 12.8182 4.11316 12.8663 4.33381 12.9621C4.49902 12.887 4.64492 12.8384 4.76894 12.8191C4.95085 12.791 5.07659 12.835 5.13838 12.936C5.17741 13.0007 5.20507 13.1149 5.11231 13.2941L5.0861 13.3497C5.06521 13.3955 5.04188 13.4457 4.99406 13.5221C5.00846 13.5441 5.02258 13.5666 5.03554 13.5889C5.30993 14.056 5.13003 14.6676 4.98599 15.0134C5.22264 15.6169 5.23906 16.0961 5.03554 16.4418C5.02258 16.4644 5.00846 16.4866 4.99406 16.5077C5.04188 16.5854 5.06536 16.6359 5.08624 16.682L5.11274 16.7382C5.20507 16.9161 5.17741 17.0301 5.13838 17.0947C5.08898 17.175 4.99348 17.22 4.86933 17.22Z" fill="#E6E7F5"/>
<path fill-rule="evenodd" clip-rule="evenodd" d="M0 11.5479H1.67856L1.23047 12.2458V17.7508H4.87753L5.72819 17.1529L5.0122 18.482H0L0.424753 17.7508V12.2458L0 11.5479Z" fill="#E6E7F5"/>
<path fill-rule="evenodd" clip-rule="evenodd" d="M7.16178 18.482H5.48322L5.93131 17.7849V12.28H2.28382L1.43359 12.8771L2.14958 11.5479H7.16178L6.73703 12.28V17.7849L7.16178 18.482Z" fill="#E6E7F5"/>
</g>
</g>
</g>
<defs>
<clipPath id="clip0_10196_1313">
<rect width="70" height="30" fill="white"/>
</clipPath>
<clipPath id="clip1_10196_1313">
<rect width="70" height="30" fill="white"/>
</clipPath>
<clipPath id="clip2_10196_1313">
<rect width="70" height="7.20165" fill="white" transform="translate(0 11.3994)"/>
</clipPath>
</defs>
</svg>
