<svg width="70" height="30" viewBox="0 0 70 30" fill="none" xmlns="http://www.w3.org/2000/svg">
<g clip-path="url(#clip0_11113_19818)">
<mask id="mask0_11113_19818" style="mask-type:luminance" maskUnits="userSpaceOnUse" x="0" y="0" width="70" height="30">
<path d="M70 0H0V30H70V0Z" fill="white"/>
</mask>
<g mask="url(#mask0_11113_19818)">
<mask id="mask1_11113_19818" style="mask-type:luminance" maskUnits="userSpaceOnUse" x="0" y="0" width="70" height="30">
<path d="M70 0H0V30H70V0Z" fill="white"/>
</mask>
<g mask="url(#mask1_11113_19818)">
<mask id="mask2_11113_19818" style="mask-type:luminance" maskUnits="userSpaceOnUse" x="21" y="0" width="28" height="30">
<path d="M48.5141 0H21.4863V30H48.5141V0Z" fill="white"/>
</mask>
<g mask="url(#mask2_11113_19818)">
<path fill-rule="evenodd" clip-rule="evenodd" d="M34.9341 15.9304H25.9434L21.4863 23.7552H30.503L34.9341 15.9304ZM39.5024 7.90274L35.007 0L30.4981 7.90274L35.007 15.8191L39.5024 7.90274ZM39.4975 23.7552H48.5141L44.0571 15.9304H35.0664L39.4975 23.7552Z" fill="#E60012"/>
<path fill-rule="evenodd" clip-rule="evenodd" d="M39.0976 29.8851H39.7714V26.2886H39.0976V29.8851ZM46.6492 29.8851H47.323V26.2886H46.6492V29.8851ZM26.4423 29.8851H27.1161V26.2886H26.4423V29.8851ZM29.689 26.2886H27.607V26.8981H28.3005V29.8851H28.9941V26.8981H29.6877L29.689 26.2886ZM45.3003 27.656H43.7846V26.2886H43.1108V29.8851H43.7846V28.2655H45.3003V29.8851H45.9729V26.2886H45.3003V27.656ZM24.2688 27.8971L23.6383 26.2874H22.8594V29.8839H23.5319V27.656L24.2688 29.4438L24.9834 27.635V29.8851H25.656V26.2886H24.8994L24.2688 27.8971ZM35.3935 26.2886H34.7258V28.8553C34.7258 29.1347 34.4131 29.3609 34.1336 29.3609C33.8542 29.3609 33.5414 29.1347 33.5414 28.8553V26.2886H32.8614L32.8713 28.8231C32.8713 29.4722 33.4833 29.9977 34.1324 29.9977C34.7815 29.9977 35.3935 29.471 35.3935 28.8231V26.2886ZM37.9898 27.9391C38.085 27.8761 38.4423 27.6659 38.4423 27.2134C38.4423 26.5816 37.9379 26.2985 37.6004 26.2874H36.0413V29.8839H37.4223C37.97 29.8839 38.5585 29.6206 38.5585 28.927C38.5573 28.3286 38.2742 28.0974 37.9898 27.9391ZM37.4532 29.2756H36.7139V26.8981H37.4211C37.6103 26.8981 37.7574 27.0564 37.7574 27.2455C37.7574 27.4347 37.6832 27.656 37.431 27.656H37.138V28.2655H37.4532C37.6424 28.2655 37.9057 28.4448 37.8946 28.812C37.886 29.1285 37.6325 29.2756 37.4532 29.2756ZM29.9585 28.718C29.9535 28.7551 29.9585 28.7972 29.961 28.8652C29.961 29.4858 30.4642 29.9569 31.0836 29.9569C31.7042 29.9569 32.2062 29.5377 32.2062 28.9183C32.2062 28.5919 32.0788 28.3397 31.8563 28.1345C31.6745 27.9676 31.1577 27.7154 30.9575 27.593C30.7683 27.4767 30.6793 27.3877 30.6743 27.2196C30.6743 26.9735 30.8375 26.7992 31.0836 26.7992C31.3296 26.7992 31.5299 26.9995 31.5299 27.2455C31.5348 27.3086 31.5361 27.3716 31.5361 27.4137H32.132V27.2455C32.132 26.6669 31.7673 26.207 31.0836 26.207C30.505 26.207 30.0351 26.6039 30.0351 27.2455C30.0376 27.5299 30.1687 27.8031 30.4951 28.0183C30.845 28.2495 31.2839 28.4225 31.431 28.5709C31.52 28.6599 31.5744 28.7823 31.5744 28.9183C31.5744 29.1891 31.3543 29.3832 31.0836 29.3832C30.8128 29.3832 30.594 29.1446 30.5606 28.9183C30.5532 28.8602 30.5359 28.7613 30.5408 28.718H29.9585ZM41.328 27.593C41.1388 27.4767 41.0498 27.3877 41.0448 27.2196C41.0448 26.9735 41.208 26.7992 41.4541 26.7992C41.7001 26.7992 41.9004 26.9995 41.9004 27.2455C41.9053 27.3086 41.9066 27.3716 41.9066 27.4137H42.5025V27.2455C42.5025 26.6669 42.1378 26.207 41.4541 26.207C40.8742 26.207 40.4056 26.6039 40.4056 27.2455C40.4081 27.5299 40.5392 27.8031 40.8656 28.0183C41.2167 28.2495 41.6543 28.4225 41.8015 28.5709C41.8905 28.6599 41.9449 28.7823 41.9449 28.9183C41.9449 29.1891 41.7248 29.3832 41.4541 29.3832C41.1833 29.3832 40.9645 29.1446 40.9311 28.9183C40.9237 28.8602 40.9064 28.7613 40.9125 28.718H40.329C40.324 28.7551 40.329 28.7972 40.3315 28.8652C40.3315 29.4858 40.8346 29.9569 41.4541 29.9569C42.0747 29.9569 42.5767 29.5377 42.5767 28.9183C42.5767 28.5919 42.4493 28.3397 42.2268 28.1345C42.0463 27.9663 41.5295 27.7154 41.328 27.593Z" fill="white"/>
</g>
</g>
</g>
</g>
<defs>
<clipPath id="clip0_11113_19818">
<rect width="70" height="30" fill="white"/>
</clipPath>
</defs>
</svg>
