<svg width="70" height="30" viewBox="0 0 70 30" fill="none" xmlns="http://www.w3.org/2000/svg">
<g clip-path="url(#clip0_10196_1373)">
<g clip-path="url(#clip1_10196_1373)">
<g clip-path="url(#clip2_10196_1373)">
<path fill-rule="evenodd" clip-rule="evenodd" d="M34.9341 15.9304H25.9434L21.4863 23.7552H30.503L34.9341 15.9304ZM39.5024 7.90274L35.007 0L30.4981 7.90274L35.007 15.8191L39.5024 7.90274ZM39.4975 23.7552H48.5141L44.0571 15.9304H35.0664L39.4975 23.7552Z" fill="#E6E7F5"/>
<path fill-rule="evenodd" clip-rule="evenodd" d="M39.0976 29.8861H39.7714V26.2896H39.0976V29.8861ZM46.6492 29.8861H47.323V26.2896H46.6492V29.8861ZM26.4423 29.8861H27.1161V26.2896H26.4423V29.8861ZM29.689 26.2896H27.607V26.8991H28.3005V29.8861H28.9941V26.8991H29.6877L29.689 26.2896ZM45.3003 27.657H43.7846V26.2896H43.1108V29.8861H43.7846V28.2665H45.3003V29.8861H45.9729V26.2896H45.3003V27.657ZM24.2688 27.8981L23.6383 26.2884H22.8594V29.8849H23.5319V27.657L24.2688 29.4448L24.9834 27.636V29.8861H25.656V26.2896H24.8994L24.2688 27.8981ZM35.3935 26.2896H34.7258V28.8563C34.7258 29.1357 34.4131 29.3619 34.1336 29.3619C33.8542 29.3619 33.5414 29.1357 33.5414 28.8563V26.2896H32.8614L32.8713 28.8241C32.8713 29.4732 33.4833 29.9987 34.1324 29.9987C34.7815 29.9987 35.3935 29.472 35.3935 28.8241V26.2896ZM37.9898 27.9401C38.085 27.8771 38.4423 27.6669 38.4423 27.2144C38.4423 26.5826 37.9379 26.2995 37.6004 26.2884H36.0413V29.8849H37.4223C37.97 29.8849 38.5585 29.6216 38.5585 28.928C38.5573 28.3296 38.2742 28.0984 37.9898 27.9401ZM37.4532 29.2766H36.7139V26.8991H37.4211C37.6103 26.8991 37.7574 27.0574 37.7574 27.2465C37.7574 27.4357 37.6832 27.657 37.431 27.657H37.138V28.2665H37.4532C37.6424 28.2665 37.9057 28.4458 37.8946 28.813C37.886 29.1295 37.6325 29.2766 37.4532 29.2766ZM29.9585 28.719C29.9535 28.7561 29.9585 28.7982 29.961 28.8662C29.961 29.4868 30.4642 29.9579 31.0836 29.9579C31.7042 29.9579 32.2062 29.5387 32.2062 28.9193C32.2062 28.5929 32.0788 28.3407 31.8563 28.1355C31.6745 27.9686 31.1577 27.7164 30.9575 27.594C30.7683 27.4777 30.6793 27.3887 30.6743 27.2206C30.6743 26.9745 30.8375 26.8002 31.0836 26.8002C31.3296 26.8002 31.5299 27.0005 31.5299 27.2465C31.5348 27.3096 31.5361 27.3726 31.5361 27.4147H32.132V27.2465C32.132 26.6679 31.7673 26.208 31.0836 26.208C30.505 26.208 30.0351 26.6049 30.0351 27.2465C30.0376 27.5309 30.1687 27.8041 30.4951 28.0193C30.845 28.2505 31.2839 28.4235 31.431 28.5719C31.52 28.6609 31.5744 28.7833 31.5744 28.9193C31.5744 29.1901 31.3543 29.3842 31.0836 29.3842C30.8128 29.3842 30.594 29.1456 30.5606 28.9193C30.5532 28.8612 30.5359 28.7623 30.5408 28.719H29.9585ZM41.328 27.594C41.1388 27.4777 41.0498 27.3887 41.0448 27.2206C41.0448 26.9745 41.208 26.8002 41.4541 26.8002C41.7001 26.8002 41.9004 27.0005 41.9004 27.2465C41.9053 27.3096 41.9066 27.3726 41.9066 27.4147H42.5025V27.2465C42.5025 26.6679 42.1378 26.208 41.4541 26.208C40.8742 26.208 40.4056 26.6049 40.4056 27.2465C40.4081 27.5309 40.5392 27.8041 40.8656 28.0193C41.2167 28.2505 41.6543 28.4235 41.8015 28.5719C41.8905 28.6609 41.9449 28.7833 41.9449 28.9193C41.9449 29.1901 41.7248 29.3842 41.4541 29.3842C41.1833 29.3842 40.9645 29.1456 40.9311 28.9193C40.9237 28.8612 40.9064 28.7623 40.9125 28.719H40.329C40.324 28.7561 40.329 28.7982 40.3315 28.8662C40.3315 29.4868 40.8346 29.9579 41.4541 29.9579C42.0747 29.9579 42.5767 29.5387 42.5767 28.9193C42.5767 28.5929 42.4493 28.3407 42.2268 28.1355C42.0463 27.9673 41.5295 27.7164 41.328 27.594Z" fill="#E6E7F5"/>
</g>
</g>
</g>
<defs>
<clipPath id="clip0_10196_1373">
<rect width="70" height="30" fill="white"/>
</clipPath>
<clipPath id="clip1_10196_1373">
<rect width="70" height="30" fill="white"/>
</clipPath>
<clipPath id="clip2_10196_1373">
<rect width="27.0278" height="30" fill="white" transform="translate(21.4863)"/>
</clipPath>
</defs>
</svg>
