<svg width="64" height="64" viewBox="0 0 64 64" fill="none" xmlns="http://www.w3.org/2000/svg">
<g clip-path="url(#clip0_11091_17441)">
<path d="M29.7491 58.1857C44.2116 58.1857 55.9357 46.4616 55.9357 31.9991C55.9357 17.5366 44.2116 5.8125 29.7491 5.8125C15.2866 5.8125 3.5625 17.5366 3.5625 31.9991C3.5625 46.4616 15.2866 58.1857 29.7491 58.1857Z" fill="#0B3D91"/>
<path d="M28.2076 11.136C28.3698 11.136 28.5012 11.0045 28.5012 10.8424C28.5012 10.6803 28.3698 10.5488 28.2076 10.5488C28.0455 10.5488 27.9141 10.6803 27.9141 10.8424C27.9141 11.0045 28.0455 11.136 28.2076 11.136Z" fill="white"/>
<path d="M31.2154 11.5285C31.3776 11.5285 31.509 11.3971 31.509 11.235C31.509 11.0728 31.3776 10.9414 31.2154 10.9414C31.0533 10.9414 30.9219 11.0728 30.9219 11.235C30.9219 11.3971 31.0533 11.5285 31.2154 11.5285Z" fill="white"/>
<path d="M35.1764 16.8508C35.3385 16.8508 35.47 16.7194 35.47 16.5572C35.47 16.3951 35.3385 16.2637 35.1764 16.2637C35.0142 16.2637 34.8828 16.3951 34.8828 16.5572C34.8828 16.7194 35.0142 16.8508 35.1764 16.8508Z" fill="white"/>
<path d="M13.4889 44.2512C13.651 44.2512 13.7825 44.1198 13.7825 43.9576C13.7825 43.7955 13.651 43.6641 13.4889 43.6641C13.3267 43.6641 13.1953 43.7955 13.1953 43.9576C13.1953 44.1198 13.3267 44.2512 13.4889 44.2512Z" fill="white"/>
<path d="M14.2545 46.6008C14.4166 46.6008 14.5481 46.4694 14.5481 46.3072C14.5481 46.1451 14.4166 46.0137 14.2545 46.0137C14.0924 46.0137 13.9609 46.1451 13.9609 46.3072C13.9609 46.4694 14.0924 46.6008 14.2545 46.6008Z" fill="white"/>
<path d="M10.6105 44.5295C10.7319 44.5295 10.8303 44.4311 10.8303 44.3097C10.8303 44.1883 10.7319 44.0898 10.6105 44.0898C10.4891 44.0898 10.3906 44.1883 10.3906 44.3097C10.3906 44.4311 10.4891 44.5295 10.6105 44.5295Z" fill="white"/>
<path d="M22.5486 49.1441C22.6704 49.1441 22.7691 49.0454 22.7691 48.9236C22.7691 48.8019 22.6704 48.7031 22.5486 48.7031C22.4268 48.7031 22.3281 48.8019 22.3281 48.9236C22.3281 49.0454 22.4268 49.1441 22.5486 49.1441Z" fill="white"/>
<path d="M41.2745 45.2542C41.396 45.2542 41.4944 45.1557 41.4944 45.0343C41.4944 44.9129 41.396 44.8145 41.2745 44.8145C41.1531 44.8145 41.0547 44.9129 41.0547 45.0343C41.0547 45.1557 41.1531 45.2542 41.2745 45.2542Z" fill="white"/>
<path d="M46.7127 39.3434C46.8345 39.3434 46.9332 39.2446 46.9332 39.1228C46.9332 39.0011 46.8345 38.9023 46.7127 38.9023C46.5909 38.9023 46.4922 39.0011 46.4922 39.1228C46.4922 39.2446 46.5909 39.3434 46.7127 39.3434Z" fill="white"/>
<path d="M20.0402 18.4944C20.1616 18.4944 20.26 18.396 20.26 18.2745C20.26 18.1531 20.1616 18.0547 20.0402 18.0547C19.9187 18.0547 19.8203 18.1531 19.8203 18.2745C19.8203 18.396 19.9187 18.4944 20.0402 18.4944Z" fill="white"/>
<path d="M26.0324 14.096C26.1538 14.096 26.2522 13.9975 26.2522 13.8761C26.2522 13.7547 26.1538 13.6562 26.0324 13.6562C25.9109 13.6562 25.8125 13.7547 25.8125 13.8761C25.8125 13.9975 25.9109 14.096 26.0324 14.096Z" fill="white"/>
<path d="M25.3839 13.6663C25.5053 13.6663 25.6038 13.5678 25.6038 13.4464C25.6038 13.325 25.5053 13.2266 25.3839 13.2266C25.2625 13.2266 25.1641 13.325 25.1641 13.4464C25.1641 13.5678 25.2625 13.6663 25.3839 13.6663Z" fill="white"/>
<path d="M24.798 13.2346C24.9194 13.2346 25.0178 13.1362 25.0178 13.0148C25.0178 12.8934 24.9194 12.7949 24.798 12.7949C24.6766 12.7949 24.5781 12.8934 24.5781 13.0148C24.5781 13.1362 24.6766 13.2346 24.798 13.2346Z" fill="white"/>
<path d="M20.9855 19.6311C21.1069 19.6311 21.2053 19.5327 21.2053 19.4113C21.2053 19.2898 21.1069 19.1914 20.9855 19.1914C20.8641 19.1914 20.7656 19.2898 20.7656 19.4113C20.7656 19.5327 20.8641 19.6311 20.9855 19.6311Z" fill="white"/>
<path d="M29.8058 8.1858C29.9272 8.1858 30.0256 8.08737 30.0256 7.96595C30.0256 7.84453 29.9272 7.74609 29.8058 7.74609C29.6844 7.74609 29.5859 7.84453 29.5859 7.96595C29.5859 8.08737 29.6844 8.1858 29.8058 8.1858Z" fill="white"/>
<path d="M31.2511 14.5276C31.3725 14.5276 31.471 14.4292 31.471 14.3077C31.471 14.1863 31.3725 14.0879 31.2511 14.0879C31.1297 14.0879 31.0312 14.1863 31.0312 14.3077C31.0312 14.4292 31.1297 14.5276 31.2511 14.5276Z" fill="white"/>
<path d="M28.9699 13.2893C29.0913 13.2893 29.1897 13.1909 29.1897 13.0695C29.1897 12.948 29.0913 12.8496 28.9699 12.8496C28.8484 12.8496 28.75 12.948 28.75 13.0695C28.75 13.1909 28.8484 13.2893 28.9699 13.2893Z" fill="white"/>
<path d="M25.0558 14.9729C25.1772 14.9729 25.2756 14.8745 25.2756 14.7531C25.2756 14.6316 25.1772 14.5332 25.0558 14.5332C24.9344 14.5332 24.8359 14.6316 24.8359 14.7531C24.8359 14.8745 24.9344 14.9729 25.0558 14.9729Z" fill="white"/>
<path d="M42.3136 51.0628C42.435 51.0628 42.5335 50.9643 42.5335 50.8429C42.5335 50.7215 42.435 50.623 42.3136 50.623C42.1922 50.623 42.0938 50.7215 42.0938 50.8429C42.0938 50.9643 42.1922 51.0628 42.3136 51.0628Z" fill="white"/>
<path d="M13.1189 45.6656C13.2407 45.6656 13.3394 45.5669 13.3394 45.4451C13.3394 45.3233 13.2407 45.2246 13.1189 45.2246C12.9972 45.2246 12.8984 45.3233 12.8984 45.4451C12.8984 45.5669 12.9972 45.6656 13.1189 45.6656Z" fill="white"/>
<path d="M28.4236 48.5035C28.5454 48.5035 28.6441 48.4048 28.6441 48.283C28.6441 48.1612 28.5454 48.0625 28.4236 48.0625C28.3018 48.0625 28.2031 48.1612 28.2031 48.283C28.2031 48.4048 28.3018 48.5035 28.4236 48.5035Z" fill="white"/>
<path d="M17.6736 45.4898C17.7954 45.4898 17.8941 45.3911 17.8941 45.2693C17.8941 45.1475 17.7954 45.0488 17.6736 45.0488C17.5518 45.0488 17.4531 45.1475 17.4531 45.2693C17.4531 45.3911 17.5518 45.4898 17.6736 45.4898Z" fill="white"/>
<path d="M19.5721 48.5973C19.6939 48.5973 19.7926 48.4985 19.7926 48.3768C19.7926 48.255 19.6939 48.1562 19.5721 48.1562C19.4503 48.1562 19.3516 48.255 19.3516 48.3768C19.3516 48.4985 19.4503 48.5973 19.5721 48.5973Z" fill="white"/>
<path d="M33.587 46.6389C33.7085 46.6389 33.8069 46.5405 33.8069 46.4191C33.8069 46.2976 33.7085 46.1992 33.587 46.1992C33.4656 46.1992 33.3672 46.2976 33.3672 46.4191C33.3672 46.5405 33.4656 46.6389 33.587 46.6389Z" fill="white"/>
<path d="M41.3136 42.2795C41.435 42.2795 41.5335 42.1811 41.5335 42.0597C41.5335 41.9383 41.435 41.8398 41.3136 41.8398C41.1922 41.8398 41.0938 41.9383 41.0938 42.0597C41.0938 42.1811 41.1922 42.2795 41.3136 42.2795Z" fill="white"/>
<path d="M47.173 44.9553C47.2944 44.9553 47.3928 44.8569 47.3928 44.7355C47.3928 44.6141 47.2944 44.5156 47.173 44.5156C47.0516 44.5156 46.9531 44.6141 46.9531 44.7355C46.9531 44.8569 47.0516 44.9553 47.173 44.9553Z" fill="white"/>
<path d="M49.1652 46.2327C49.2866 46.2327 49.385 46.1342 49.385 46.0128C49.385 45.8914 49.2866 45.793 49.1652 45.793C49.0437 45.793 48.9453 45.8914 48.9453 46.0128C48.9453 46.1342 49.0437 46.2327 49.1652 46.2327Z" fill="white"/>
<path d="M49.4933 42.7483C49.6147 42.7483 49.7131 42.6499 49.7131 42.5284C49.7131 42.407 49.6147 42.3086 49.4933 42.3086C49.3719 42.3086 49.2734 42.407 49.2734 42.5284C49.2734 42.6499 49.3719 42.7483 49.4933 42.7483Z" fill="white"/>
<path d="M20.3683 37.8167C20.4897 37.8167 20.5881 37.7182 20.5881 37.5968C20.5881 37.4754 20.4897 37.377 20.3683 37.377C20.2469 37.377 20.1484 37.4754 20.1484 37.5968C20.1484 37.7182 20.2469 37.8167 20.3683 37.8167Z" fill="white"/>
<path d="M20.4576 42.9407C20.6198 42.9407 20.7512 42.8092 20.7512 42.6471C20.7512 42.485 20.6198 42.3535 20.4576 42.3535C20.2955 42.3535 20.1641 42.485 20.1641 42.6471C20.1641 42.8092 20.2955 42.9407 20.4576 42.9407Z" fill="white"/>
<path d="M22.2154 46.6594C22.3776 46.6594 22.509 46.528 22.509 46.3658C22.509 46.2037 22.3776 46.0723 22.2154 46.0723C22.0533 46.0723 21.9219 46.2037 21.9219 46.3658C21.9219 46.528 22.0533 46.6594 22.2154 46.6594Z" fill="white"/>
<path d="M43.317 42.7844C43.4791 42.7844 43.6106 42.653 43.6106 42.4908C43.6106 42.3287 43.4791 42.1973 43.317 42.1973C43.1549 42.1973 43.0234 42.3287 43.0234 42.4908C43.0234 42.653 43.1549 42.7844 43.317 42.7844Z" fill="white"/>
<path d="M50.9108 42.3528C51.0729 42.3528 51.2043 42.2213 51.2043 42.0592C51.2043 41.8971 51.0729 41.7656 50.9108 41.7656C50.7486 41.7656 50.6172 41.8971 50.6172 42.0592C50.6172 42.2213 50.7486 42.3528 50.9108 42.3528Z" fill="white"/>
<path d="M47.1529 40.7473C47.3151 40.7473 47.4465 40.6159 47.4465 40.4537C47.4465 40.2916 47.3151 40.1602 47.1529 40.1602C46.9908 40.1602 46.8594 40.2916 46.8594 40.4537C46.8594 40.6159 46.9908 40.7473 47.1529 40.7473Z" fill="white"/>
<path d="M43.317 40.9055C43.4791 40.9055 43.6106 40.7741 43.6106 40.6119C43.6106 40.4498 43.4791 40.3184 43.317 40.3184C43.1549 40.3184 43.0234 40.4498 43.0234 40.6119C43.0234 40.7741 43.1549 40.9055 43.317 40.9055Z" fill="white"/>
<path d="M35.3978 10.6598L36.1285 10.59L35.3997 10.5489C35.3769 10.408 35.2641 10.2978 35.1218 10.2795L35.052 9.55273L35.0103 10.2854C34.8785 10.3147 34.7774 10.425 34.7611 10.562L34.0147 10.6298L34.7663 10.6703C34.7937 10.7962 34.8955 10.8947 35.0233 10.9182L35.0912 11.6671L35.1303 10.9195C35.1961 10.9087 35.257 10.878 35.3048 10.8316C35.3526 10.7852 35.3851 10.7252 35.3978 10.6598ZM23.0834 18.7872L23.8141 18.7174L23.0854 18.6763C23.0632 18.5354 22.9497 18.4251 22.8075 18.4069L22.7377 17.6801L22.6966 18.4127C22.5641 18.4421 22.463 18.5523 22.4467 18.6893L21.7004 18.7572L22.4519 18.7976C22.4793 18.9235 22.5811 19.0221 22.709 19.0455L22.7768 19.7945L22.8173 19.0468C22.8829 19.036 22.9437 19.0052 22.9914 18.9588C23.039 18.9124 23.0708 18.8525 23.0834 18.7872ZM50.3765 40.2754L51.1072 40.2056L50.3784 40.1645C50.3563 40.0235 50.2427 39.9133 50.1005 39.895L50.0307 39.1683L49.9896 39.9009C49.8578 39.9303 49.7567 40.0405 49.7404 40.1775L48.9941 40.2454L49.7456 40.2858C49.773 40.4117 49.8748 40.5102 50.0027 40.5337L50.0705 41.2826L50.111 40.535C50.1765 40.524 50.2371 40.4932 50.2847 40.4468C50.3322 40.4004 50.3638 40.3406 50.3765 40.2754ZM20.6174 51.5107L21.3481 51.4409L20.6194 51.3998C20.5965 51.2589 20.4837 51.1486 20.3415 51.1303L20.2717 50.4042L20.2306 51.1362C20.0981 51.1656 19.997 51.2758 19.9807 51.4128L19.2344 51.4807L19.9859 51.5211C20.0133 51.647 20.1151 51.7462 20.243 51.769L20.3108 52.518L20.3513 51.7703C20.4169 51.7594 20.4777 51.7287 20.5253 51.6823C20.573 51.6359 20.6047 51.576 20.6174 51.5107ZM48.0566 46.0307L48.7873 45.9609L48.0586 45.9198C48.0364 45.7789 47.9229 45.6686 47.7807 45.6503L47.7108 44.9236L47.6698 45.6556C47.538 45.6849 47.4368 45.7952 47.4205 45.9322L46.6742 46L47.4258 46.0405C47.4532 46.1664 47.5549 46.2649 47.6828 46.2884L47.7506 47.0373L47.7911 46.2897C47.9248 46.2681 48.0325 46.1638 48.0573 46.0307H48.0566Z" fill="white"/>
<path d="M35.9593 25.7259C32.9146 26.9093 29.9443 27.9655 27.4392 28.7497C22.3473 30.3441 8.41573 34.6602 0 40.1011L0.704572 40.3751C5.83229 37.4785 9.16597 36.5684 12.3692 35.5605C15.8529 34.4645 27.115 31.8289 32.2146 30.3937C33.9369 29.9089 35.9554 29.2742 38.0861 28.5017C37.5889 27.8083 37.0644 27.1122 36.5125 26.4187L35.9528 25.7259H35.9593ZM39.6792 30.8536C38.942 31.3514 38.3242 31.7487 37.8917 31.9992C35.3865 33.4475 23.1739 41.7849 20.3948 43.7029C17.6156 45.6209 9.90446 52.9015 7.63417 55.0152L7.55589 55.8763C14.8756 49.3003 17.172 47.6785 20.0816 45.4643C23.6828 42.7243 31.133 37.6553 33.6642 36.0309L40.2272 31.7434L40.1313 31.5823L39.6798 30.8536H39.6792ZM51.122 18.7682C47.556 20.8584 41.9364 23.3805 36.4825 25.5217L36.872 26.0044C37.4702 26.7577 38.0455 27.5289 38.5969 28.3171C42.883 26.7384 47.5867 24.6194 51.3183 22.0543C49.5406 23.7387 43.6633 28.1312 40.0797 30.5796L40.616 31.4799C46.0445 27.8494 49.6978 25.1746 51.8331 23.3871C54.7688 20.9211 61.4622 15.4019 64.0065 8.00391C59.5442 13.6796 54.2664 16.9285 51.1285 18.7682H51.122Z" fill="#FC3D21"/>
<path d="M26.3773 38.484L24.4019 36.0291L22.1786 32.9825L21.5145 33.1489C22.358 34.4638 23.2675 35.7351 24.2395 36.9581L25.9617 39.064L26.3493 39.6342L26.9886 39.1997L26.3754 38.4847L26.3773 38.484ZM30.5917 42.3096C30.1174 41.8608 28.9607 41.1112 27.7701 39.9871L26.9716 40.5377C27.7447 41.6272 28.7983 42.9646 29.6223 43.356C30.8644 43.9445 31.1991 42.8863 30.5917 42.3109V42.3096ZM36.8696 26.0001C30.0248 17.3847 21.6691 12.6523 18.0581 15.5163C15.2581 17.7344 16.4076 24.2425 20.2671 31.0723L20.8542 30.8766C16.9595 24.2223 15.8929 18.0377 18.5337 15.9397C21.8524 13.3028 29.8656 18.0534 36.5121 26.4195C37.8821 28.151 39.0975 29.8889 40.1217 31.5831C44.0438 38.0743 45.2475 43.9445 42.5375 46.34C41.7089 47.0733 39.1744 47.361 35.8551 45.8671C35.8094 45.9323 35.8832 46.0823 35.9412 46.128C38.8065 47.2801 41.5517 47.7198 42.9367 46.6186C46.2665 43.9725 43.7085 34.6278 36.8696 26.0131V26.0001ZM7.51434 27.0282H11.8983L15.5778 33.2715V28.3982C15.5778 27.8502 14.883 27.1359 14.6383 27.0282H17.6719C17.486 27.0771 16.8891 27.8013 16.8891 28.3982V35.5614C16.8891 36.0017 17.5251 36.6084 17.8285 36.8433H13.6011L9.86291 30.5641V35.4961C9.86291 35.9854 10.3424 36.4551 10.8415 36.8563H7.61219C8.07212 36.6606 8.51248 36.0441 8.55162 35.5548C8.59077 35.0656 8.55162 28.7538 8.55162 28.4798C8.55162 27.8828 7.97427 27.3935 7.50781 27.0217L7.51434 27.0282Z" fill="white"/>
<path d="M47.6167 36.8434H53.449C53.1261 36.7651 52.764 36.3834 52.5683 35.8746L49.2868 27.0283H47.0687L45.0464 28.4616V28.5157C44.9498 29.1029 43.2145 35.3879 43.1088 35.6919C42.962 36.1225 42.2085 36.602 41.9051 36.8564H45.0464C44.7332 36.5041 44.4788 36.1616 44.5375 35.7702C44.5962 35.3788 44.7724 34.5959 44.7724 34.5959H48.0212C48.168 34.9873 48.2776 35.3396 48.3344 35.6723C48.4029 36.0736 47.9919 36.5237 47.6298 36.8368L47.6167 36.8434ZM45.0464 33.3499L46.1424 29.7618L47.5906 33.3499H45.0464ZM44.5525 27.3858L45.0366 27.0283H44.1983C44.2831 27.1066 44.4233 27.224 44.5655 27.3858H44.5525ZM22.2521 35.7832L22.487 34.609H25.7358C25.8826 35.0004 25.9922 35.3527 26.049 35.6854C26.1175 36.0866 25.7065 36.5367 25.3444 36.8499H30.4787L30.8049 36.6346C30.6059 36.4585 30.4226 36.1942 30.3025 35.8805L27.0145 27.0341H21.9259C22.1706 27.2592 22.8752 27.8659 22.774 28.5216C22.6781 29.1087 20.9421 35.3938 20.8365 35.6978C20.6897 36.1284 19.9362 36.6079 19.6328 36.8623H22.774C22.4609 36.51 22.2065 36.1675 22.2652 35.7761L22.2521 35.7832ZM23.8831 29.7813L25.3314 33.3694H22.7871L23.8831 29.7813ZM39.9891 31.9003L36.9555 33.8998C37.4331 34.1314 37.8134 34.4217 37.8493 34.7981C37.9171 35.504 36.4988 35.8452 35.2169 35.6984C34.9605 35.6691 34.7081 35.6019 34.4686 35.5119L33.661 36.0312L32.6628 36.6816V37.6947C32.9238 37.1957 33.4737 36.7488 33.9056 36.7259C34.0916 36.7162 34.7374 37.3131 37.3991 37.1663C38.6908 37.1011 41.1862 35.718 41.1471 34.1327C41.1236 33.1959 40.6343 32.4652 39.9878 31.9003H39.9891ZM32.6641 34.348V35.3801L33.3596 34.9234C33.0008 34.6742 32.7476 34.4406 32.6641 34.3539V34.348ZM39.0797 31.2525C38.8393 31.1114 38.5924 30.9816 38.3399 30.8636C37.0873 30.2765 35.776 30.1688 35.502 29.3762C35.3089 28.8171 35.8543 28.2998 37.1852 28.3193C38.516 28.3389 39.749 29.1316 40.0817 29.4153V26.8906C39.9839 26.9885 39.5546 27.481 39.1684 27.3995C38.0158 27.1625 36.8418 27.0445 35.6651 27.0472C33.982 27.057 32.5337 28.352 32.4847 30.0025C32.4162 32.3021 34.256 32.9284 35.2932 33.2905L35.6547 33.4099L37.8897 31.9994L39.079 31.2531L39.0797 31.2525Z" fill="white"/>
</g>
<defs>
<clipPath id="clip0_11091_17441">
<rect width="64" height="64" fill="white"/>
</clipPath>
</defs>
</svg>
