<svg width="80" height="80" viewBox="0 0 80 80" fill="none" xmlns="http://www.w3.org/2000/svg">
<g clip-path="url(#clip0_11105_19580)">
<path d="M37.1864 72.7322C55.2645 72.7322 69.9197 58.077 69.9197 39.9989C69.9197 21.9208 55.2645 7.26562 37.1864 7.26562C19.1083 7.26562 4.45312 21.9208 4.45312 39.9989C4.45312 58.077 19.1083 72.7322 37.1864 72.7322Z" fill="#0B3D91"/>
<path d="M35.2537 13.9195C35.4564 13.9195 35.6206 13.7552 35.6206 13.5525C35.6206 13.3498 35.4564 13.1855 35.2537 13.1855C35.051 13.1855 34.8867 13.3498 34.8867 13.5525C34.8867 13.7552 35.051 13.9195 35.2537 13.9195Z" fill="white"/>
<path d="M39.0213 14.4097C39.2239 14.4097 39.3882 14.2454 39.3882 14.0427C39.3882 13.8401 39.2239 13.6758 39.0213 13.6758C38.8186 13.6758 38.6543 13.8401 38.6543 14.0427C38.6543 14.2454 38.8186 14.4097 39.0213 14.4097Z" fill="white"/>
<path d="M43.9627 21.064C44.1653 21.064 44.3296 20.8997 44.3296 20.697C44.3296 20.4944 44.1653 20.3301 43.9627 20.3301C43.76 20.3301 43.5957 20.4944 43.5957 20.697C43.5957 20.8997 43.76 21.064 43.9627 21.064Z" fill="white"/>
<path d="M16.8552 55.314C17.0579 55.314 17.2222 55.1497 17.2222 54.947C17.2222 54.7444 17.0579 54.5801 16.8552 54.5801C16.6526 54.5801 16.4883 54.7444 16.4883 54.947C16.4883 55.1497 16.6526 55.314 16.8552 55.314Z" fill="white"/>
<path d="M17.8103 58.2515C18.013 58.2515 18.1773 58.0872 18.1773 57.8845C18.1773 57.6819 18.013 57.5176 17.8103 57.5176C17.6077 57.5176 17.4434 57.6819 17.4434 57.8845C17.4434 58.0872 17.6077 58.2515 17.8103 58.2515Z" fill="white"/>
<path d="M13.2611 55.6629C13.4129 55.6629 13.536 55.5399 13.536 55.3881C13.536 55.2363 13.4129 55.1133 13.2611 55.1133C13.1094 55.1133 12.9863 55.2363 12.9863 55.3881C12.9863 55.5399 13.1094 55.6629 13.2611 55.6629Z" fill="white"/>
<path d="M28.1838 61.4302C28.3361 61.4302 28.4595 61.3068 28.4595 61.1545C28.4595 61.0023 28.3361 60.8789 28.1838 60.8789C28.0316 60.8789 27.9082 61.0023 27.9082 61.1545C27.9082 61.3068 28.0316 61.4302 28.1838 61.4302Z" fill="white"/>
<path d="M51.5912 56.5672C51.743 56.5672 51.866 56.4442 51.866 56.2924C51.866 56.1406 51.743 56.0176 51.5912 56.0176C51.4394 56.0176 51.3164 56.1406 51.3164 56.2924C51.3164 56.4442 51.4394 56.5672 51.5912 56.5672Z" fill="white"/>
<path d="M58.3909 49.1802C58.5431 49.1802 58.6665 49.0568 58.6665 48.9045C58.6665 48.7523 58.5431 48.6289 58.3909 48.6289C58.2386 48.6289 58.1152 48.7523 58.1152 48.9045C58.1152 49.0568 58.2386 49.1802 58.3909 49.1802Z" fill="white"/>
<path d="M25.0522 23.118C25.2039 23.118 25.327 22.995 25.327 22.8432C25.327 22.6914 25.2039 22.5684 25.0522 22.5684C24.9004 22.5684 24.7773 22.6914 24.7773 22.8432C24.7773 22.995 24.9004 23.118 25.0522 23.118Z" fill="white"/>
<path d="M32.5385 17.6199C32.6903 17.6199 32.8133 17.4969 32.8133 17.3451C32.8133 17.1934 32.6903 17.0703 32.5385 17.0703C32.3867 17.0703 32.2637 17.1934 32.2637 17.3451C32.2637 17.4969 32.3867 17.6199 32.5385 17.6199Z" fill="white"/>
<path d="M31.724 17.0828C31.8758 17.0828 31.9989 16.9598 31.9989 16.808C31.9989 16.6562 31.8758 16.5332 31.724 16.5332C31.5723 16.5332 31.4492 16.6562 31.4492 16.808C31.4492 16.9598 31.5723 17.0828 31.724 17.0828Z" fill="white"/>
<path d="M30.9936 16.5438C31.1453 16.5438 31.2684 16.4207 31.2684 16.269C31.2684 16.1172 31.1453 15.9941 30.9936 15.9941C30.8418 15.9941 30.7188 16.1172 30.7188 16.269C30.7188 16.4207 30.8418 16.5438 30.9936 16.5438Z" fill="white"/>
<path d="M26.2279 24.5379C26.3797 24.5379 26.5028 24.4149 26.5028 24.2631C26.5028 24.1113 26.3797 23.9883 26.2279 23.9883C26.0762 23.9883 25.9531 24.1113 25.9531 24.2631C25.9531 24.4149 26.0762 24.5379 26.2279 24.5379Z" fill="white"/>
<path d="M37.2553 10.2332C37.4071 10.2332 37.5301 10.1102 37.5301 9.95841C37.5301 9.80663 37.4071 9.68359 37.2553 9.68359C37.1035 9.68359 36.9805 9.80663 36.9805 9.95841C36.9805 10.1102 37.1035 10.2332 37.2553 10.2332Z" fill="white"/>
<path d="M39.0639 18.159C39.2157 18.159 39.3387 18.036 39.3387 17.8842C39.3387 17.7324 39.2157 17.6094 39.0639 17.6094C38.9121 17.6094 38.7891 17.7324 38.7891 17.8842C38.7891 18.036 38.9121 18.159 39.0639 18.159Z" fill="white"/>
<path d="M36.2084 16.6121C36.3602 16.6121 36.4832 16.4891 36.4832 16.3373C36.4832 16.1855 36.3602 16.0625 36.2084 16.0625C36.0566 16.0625 35.9336 16.1855 35.9336 16.3373C35.9336 16.4891 36.0566 16.6121 36.2084 16.6121Z" fill="white"/>
<path d="M31.3139 18.7156C31.4657 18.7156 31.5887 18.5926 31.5887 18.4408C31.5887 18.2891 31.4657 18.166 31.3139 18.166C31.1621 18.166 31.0391 18.2891 31.0391 18.4408C31.0391 18.5926 31.1621 18.7156 31.3139 18.7156Z" fill="white"/>
<path d="M52.892 63.8289C53.0438 63.8289 53.1668 63.7059 53.1668 63.5541C53.1668 63.4023 53.0438 63.2793 52.892 63.2793C52.7402 63.2793 52.6172 63.4023 52.6172 63.5541C52.6172 63.7059 52.7402 63.8289 52.892 63.8289Z" fill="white"/>
<path d="M16.3909 57.0825C16.5431 57.0825 16.6665 56.9591 16.6665 56.8069C16.6665 56.6547 16.5431 56.5312 16.3909 56.5312C16.2386 56.5312 16.1152 56.6547 16.1152 56.8069C16.1152 56.9591 16.2386 57.0825 16.3909 57.0825Z" fill="white"/>
<path d="M35.5217 60.6294C35.674 60.6294 35.7974 60.506 35.7974 60.3538C35.7974 60.2015 35.674 60.0781 35.5217 60.0781C35.3695 60.0781 35.2461 60.2015 35.2461 60.3538C35.2461 60.506 35.3695 60.6294 35.5217 60.6294Z" fill="white"/>
<path d="M22.0842 56.8618C22.2365 56.8618 22.3599 56.7384 22.3599 56.5862C22.3599 56.4339 22.2365 56.3105 22.0842 56.3105C21.932 56.3105 21.8086 56.4339 21.8086 56.5862C21.8086 56.7384 21.932 56.8618 22.0842 56.8618Z" fill="white"/>
<path d="M24.4651 60.7466C24.6173 60.7466 24.7407 60.6232 24.7407 60.4709C24.7407 60.3187 24.6173 60.1953 24.4651 60.1953C24.3129 60.1953 24.1895 60.3187 24.1895 60.4709C24.1895 60.6232 24.3129 60.7466 24.4651 60.7466Z" fill="white"/>
<path d="M41.9818 58.2996C42.1336 58.2996 42.2567 58.1766 42.2567 58.0248C42.2567 57.873 42.1336 57.75 41.9818 57.75C41.8301 57.75 41.707 57.873 41.707 58.0248C41.707 58.1766 41.8301 58.2996 41.9818 58.2996Z" fill="white"/>
<path d="M51.6401 52.8504C51.7918 52.8504 51.9149 52.7274 51.9149 52.5756C51.9149 52.4238 51.7918 52.3008 51.6401 52.3008C51.4883 52.3008 51.3652 52.4238 51.3652 52.5756C51.3652 52.7274 51.4883 52.8504 51.6401 52.8504Z" fill="white"/>
<path d="M58.9584 56.1942C59.1102 56.1942 59.2332 56.0711 59.2332 55.9194C59.2332 55.7676 59.1102 55.6445 58.9584 55.6445C58.8066 55.6445 58.6836 55.7676 58.6836 55.9194C58.6836 56.0711 58.8066 56.1942 58.9584 56.1942Z" fill="white"/>
<path d="M61.4565 57.7918C61.6082 57.7918 61.7313 57.6688 61.7313 57.517C61.7313 57.3652 61.6082 57.2422 61.4565 57.2422C61.3047 57.2422 61.1816 57.3652 61.1816 57.517C61.1816 57.6688 61.3047 57.7918 61.4565 57.7918Z" fill="white"/>
<path d="M61.8666 53.4364C62.0184 53.4364 62.1414 53.3133 62.1414 53.1615C62.1414 53.0098 62.0184 52.8867 61.8666 52.8867C61.7148 52.8867 61.5918 53.0098 61.5918 53.1615C61.5918 53.3133 61.7148 53.4364 61.8666 53.4364Z" fill="white"/>
<path d="M25.4623 47.2703C25.6141 47.2703 25.7371 47.1473 25.7371 46.9955C25.7371 46.8437 25.6141 46.7207 25.4623 46.7207C25.3105 46.7207 25.1875 46.8437 25.1875 46.9955C25.1875 47.1473 25.3105 47.2703 25.4623 47.2703Z" fill="white"/>
<path d="M25.5662 53.6753C25.7689 53.6753 25.9331 53.511 25.9331 53.3084C25.9331 53.1057 25.7689 52.9414 25.5662 52.9414C25.3635 52.9414 25.1992 53.1057 25.1992 53.3084C25.1992 53.511 25.3635 53.6753 25.5662 53.6753Z" fill="white"/>
<path d="M27.7674 58.3238C27.97 58.3238 28.1343 58.1595 28.1343 57.9568C28.1343 57.7541 27.97 57.5898 27.7674 57.5898C27.5647 57.5898 27.4004 57.7541 27.4004 57.9568C27.4004 58.1595 27.5647 58.3238 27.7674 58.3238Z" fill="white"/>
<path d="M54.1404 53.48C54.3431 53.48 54.5074 53.3157 54.5074 53.1131C54.5074 52.9104 54.3431 52.7461 54.1404 52.7461C53.9377 52.7461 53.7734 52.9104 53.7734 53.1131C53.7734 53.3157 53.9377 53.48 54.1404 53.48Z" fill="white"/>
<path d="M63.6326 52.941C63.8353 52.941 63.9996 52.7767 63.9996 52.574C63.9996 52.3713 63.8353 52.207 63.6326 52.207C63.4299 52.207 63.2656 52.3713 63.2656 52.574C63.2656 52.7767 63.4299 52.941 63.6326 52.941Z" fill="white"/>
<path d="M58.9373 50.9331C59.14 50.9331 59.3042 50.7689 59.3042 50.5662C59.3042 50.3635 59.14 50.1992 58.9373 50.1992C58.7346 50.1992 58.5703 50.3635 58.5703 50.5662C58.5703 50.7689 58.7346 50.9331 58.9373 50.9331Z" fill="white"/>
<path d="M54.1404 51.1324C54.3431 51.1324 54.5074 50.9681 54.5074 50.7654C54.5074 50.5627 54.3431 50.3984 54.1404 50.3984C53.9377 50.3984 53.7734 50.5627 53.7734 50.7654C53.7734 50.9681 53.9377 51.1324 54.1404 51.1324Z" fill="white"/>
<path d="M44.2433 13.3253L45.1567 13.238L44.2458 13.1866C44.2172 13.0105 44.0762 12.8727 43.8984 12.8498L43.8111 11.9414L43.7589 12.8572C43.5942 12.8939 43.4678 13.0317 43.4474 13.2029L42.5145 13.2878L43.454 13.3383C43.4882 13.4957 43.6154 13.6188 43.7752 13.6482L43.8601 14.5844L43.909 13.6498C43.9912 13.6364 44.0673 13.598 44.1271 13.54C44.1869 13.482 44.2274 13.407 44.2433 13.3253ZM28.8504 23.4845L29.7637 23.3972L28.8528 23.3459C28.8251 23.1697 28.6832 23.0319 28.5054 23.0091L28.4182 22.1006L28.3668 23.0164C28.2013 23.0531 28.0749 23.1909 28.0545 23.3622L27.1216 23.447L28.061 23.4975C28.0952 23.6549 28.2225 23.7781 28.3823 23.8074L28.4671 24.7436L28.5177 23.809C28.5997 23.7954 28.6757 23.757 28.7353 23.699C28.7949 23.641 28.8345 23.5662 28.8504 23.4845ZM62.9667 50.3447L63.88 50.2574L62.9691 50.2061C62.9414 50.0299 62.7995 49.8921 62.6218 49.8693L62.5345 48.9608L62.4831 49.8766C62.3184 49.9133 62.192 50.0511 62.1716 50.2224L61.2387 50.3072L62.1781 50.3577C62.2124 50.5151 62.3396 50.6383 62.4994 50.6676L62.5842 51.6038L62.6348 50.6692C62.7167 50.6555 62.7925 50.617 62.8519 50.559C62.9114 50.501 62.9509 50.4262 62.9667 50.3447ZM25.7679 64.3888L26.6812 64.3016L25.7703 64.2502C25.7418 64.0741 25.6007 63.9362 25.4229 63.9134L25.3357 63.0058L25.2843 63.9208C25.1188 63.9575 24.9924 64.0953 24.972 64.2665L24.0391 64.3513L24.9785 64.4019C25.0127 64.5593 25.14 64.6832 25.2998 64.7118L25.3846 65.6479L25.4352 64.7134C25.5172 64.6998 25.5932 64.6614 25.6528 64.6034C25.7124 64.5454 25.752 64.4705 25.7679 64.3888ZM60.0669 57.5388L60.9802 57.4516L60.0693 57.4002C60.0416 57.2241 59.8997 57.0862 59.7219 57.0634L59.6347 56.155L59.5833 57.0699C59.4186 57.1066 59.2922 57.2444 59.2718 57.4157L58.3389 57.5005L59.2783 57.5511C59.3125 57.7085 59.4398 57.8316 59.5996 57.8609L59.6844 58.7971L59.735 57.8626C59.9021 57.8357 60.0367 57.7052 60.0677 57.5388H60.0669Z" fill="white"/>
<path d="M44.9491 32.1563C41.1433 33.6356 37.4304 34.9559 34.299 35.9361C27.9342 37.9291 10.5197 43.3243 0 50.1254L0.880716 50.4679C7.29037 46.8472 11.4575 45.7096 15.4615 44.4497C19.8161 43.0797 33.8937 39.7851 40.2683 37.9911C42.4211 37.3852 44.9442 36.5917 47.6076 35.6262C46.9862 34.7594 46.3305 33.8892 45.6406 33.0224L44.941 32.1563H44.9491ZM49.599 38.566C48.6775 39.1882 47.9052 39.6848 47.3646 39.998C44.2331 41.8083 28.9674 52.2301 25.4935 54.6277C22.0195 57.0252 12.3806 66.1259 9.54272 68.768L9.44486 69.8445C18.5945 61.6244 21.465 59.5972 25.102 56.8294C29.6035 53.4044 38.9162 47.0682 42.0803 45.0376L50.284 39.6783L50.1641 39.4769L49.5998 38.566H49.599ZM63.9024 23.4593C59.445 26.0721 52.4205 29.2247 45.6031 31.9011L46.09 32.5046C46.8378 33.4461 47.5568 34.4102 48.2461 35.3954C53.6038 33.422 59.4834 30.7733 64.1479 27.5668C61.9257 29.6724 54.5791 35.163 50.0997 38.2235L50.77 39.3489C57.5556 34.8107 62.1223 31.4673 64.7913 29.2329C68.461 26.1504 76.8278 19.2514 80.0081 10.0039C74.4303 17.0986 67.833 21.1596 63.9106 23.4593H63.9024Z" fill="#FC3D21"/>
<path d="M32.9736 48.1051L30.5043 45.0364L27.7252 41.2281L26.895 41.4361C27.9494 43.0797 29.0863 44.6689 30.3013 46.1977L32.4541 48.83L32.9385 49.5427L33.7377 48.9996L32.9711 48.1059L32.9736 48.1051ZM38.2416 52.887C37.6487 52.326 36.2029 51.389 34.7146 49.9839L33.7165 50.6722C34.6828 52.034 35.9998 53.7058 37.0298 54.195C38.5824 54.9306 39.0008 53.6079 38.2416 52.8886V52.887ZM46.0889 32.5001C37.5329 21.7309 27.0883 15.8154 22.5746 19.3954C19.0746 22.168 20.5115 30.3032 25.3358 38.8404L26.0698 38.5958C21.2014 30.2779 19.8681 22.5472 23.1691 19.9246C27.3174 16.6284 37.3339 22.5667 45.642 33.0244C47.3545 35.1887 48.8738 37.3611 50.1541 39.4789C55.0567 47.5929 56.5613 54.9306 53.1738 57.925C52.1381 58.8416 48.97 59.2013 44.8208 57.3338C44.7638 57.4154 44.8559 57.6029 44.9285 57.66C48.5101 59.1001 51.9416 59.6498 53.6729 58.2732C57.8351 54.9657 54.6376 43.2848 46.0889 32.5164V32.5001ZM9.39487 33.7853H14.8749L19.4742 41.5894V35.4978C19.4742 34.8128 18.6057 33.9198 18.2999 33.7853H22.0919C21.8594 33.8464 21.1133 34.7516 21.1133 35.4978V44.4517C21.1133 45.0022 21.9084 45.7606 22.2876 46.0541H17.0033L12.3306 38.2052V44.3702C12.3306 44.9818 12.93 45.5689 13.5538 46.0704H9.5172C10.0921 45.8258 10.6426 45.0552 10.6915 44.4436C10.7404 43.832 10.6915 35.9422 10.6915 35.5997C10.6915 34.8535 9.96979 34.2419 9.38672 33.7771L9.39487 33.7853Z" fill="white"/>
<path d="M59.5229 46.0542H66.8132C66.4096 45.9563 65.957 45.4793 65.7124 44.8432L61.6105 33.7853H58.8379L56.3099 35.577V35.6446C56.1892 36.3786 54.02 44.2349 53.8879 44.6149C53.7044 45.1531 52.7626 45.7525 52.3834 46.0705H56.3099C55.9185 45.6302 55.6004 45.202 55.6738 44.7127C55.7472 44.2235 55.9674 43.2449 55.9674 43.2449H60.0285C60.212 43.7342 60.349 44.1745 60.4199 44.5904C60.5055 45.0919 59.9918 45.6546 59.5392 46.0461L59.5229 46.0542ZM56.3099 41.6873L57.6799 37.2022L59.4903 41.6873H56.3099ZM55.6926 34.2322L56.2977 33.7853H55.2498C55.3558 33.8832 55.5311 34.03 55.7089 34.2322H55.6926ZM27.8171 44.7291L28.1107 43.2612H32.1718C32.3552 43.7505 32.4922 44.1908 32.5632 44.6067C32.6488 45.1083 32.1351 45.6709 31.6825 46.0624H38.1003L38.508 45.7933C38.2593 45.5731 38.0302 45.2428 37.8801 44.8506L33.7701 33.7927H27.4094C27.7152 34.074 28.5959 34.8324 28.4695 35.652C28.3496 36.3859 26.1796 44.2422 26.0475 44.6222C25.864 45.1604 24.9222 45.7598 24.543 46.0779H28.4695C28.0781 45.6375 27.76 45.2094 27.8334 44.7201L27.8171 44.7291ZM29.8558 37.2267L31.6662 41.7118H28.4858L29.8558 37.2267ZM49.9883 39.8753L46.1963 42.3748C46.7933 42.6643 47.2687 43.0272 47.3135 43.4977C47.3984 44.38 45.6255 44.8065 44.0231 44.623C43.7026 44.5863 43.387 44.5024 43.0877 44.3898L42.0782 45.0389L40.8305 45.852V47.1184C41.1567 46.4946 41.8441 45.936 42.384 45.9074C42.6164 45.8952 43.4237 46.6414 46.7509 46.4579C48.3655 46.3763 51.4847 44.6475 51.4358 42.6659C51.4064 41.4949 50.7948 40.5815 49.9867 39.8753H49.9883ZM40.8321 42.935V44.2251L41.7014 43.6543C41.2529 43.3427 40.9365 43.0508 40.8321 42.9423V42.935ZM48.8515 39.0656C48.5511 38.8892 48.2425 38.727 47.9268 38.5795C46.3611 37.8456 44.722 37.7111 44.3795 36.7203C44.1381 36.0214 44.8198 35.3747 46.4834 35.3992C48.147 35.4236 49.6882 36.4144 50.1041 36.7692V33.6133C49.9818 33.7356 49.4452 34.3513 48.9624 34.2494C47.5216 33.9531 46.0543 33.8056 44.5833 33.809C42.4794 33.8212 40.669 35.44 40.6079 37.5031C40.5223 40.3777 42.8219 41.1605 44.1185 41.6131L44.5703 41.7623L47.3641 39.9993L48.8507 39.0664L48.8515 39.0656Z" fill="white"/>
</g>
<defs>
<clipPath id="clip0_11105_19580">
<rect width="80" height="80" fill="white"/>
</clipPath>
</defs>
</svg>
