<svg width="70" height="30" viewBox="0 0 70 30" fill="none" xmlns="http://www.w3.org/2000/svg">
<g clip-path="url(#clip0_10196_837)">
<g clip-path="url(#clip1_10196_837)">
<g clip-path="url(#clip2_10196_837)">
<g opacity="0.2">
<path d="M48.0002 8.79546C46.8567 9.83814 45.5439 10.897 44.132 11.9577C44.0816 11.9739 44.0474 12.0081 43.997 12.0424C42.8876 12.8833 41.7261 13.7243 40.516 14.5473C40.3989 14.3456 40.2638 14.1439 40.1468 13.9422C40.9878 13.3534 41.8126 12.7825 42.6193 12.2098L42.6535 12.1756C43.5774 11.5201 44.4688 10.8808 45.2936 10.2253C43.6116 11.2176 41.8468 12.0081 40.0964 12.6636C40.0802 12.3449 40.1126 12.0243 40.0964 11.7218C39.9109 11.8731 39.693 12.0243 39.5075 12.1756C39.2554 12.1594 39.1041 12.0586 38.8358 11.9901C38.6341 11.7218 38.4324 11.4697 38.2307 11.2158C40.9211 10.0722 43.7286 8.57576 46.6892 6.45619C44.7425 3.63609 41.8882 1.57054 38.5999 0.603493C30.6798 -1.71777 22.3204 2.84012 19.9829 10.7782C19.2932 13.1499 19.2086 15.5378 19.6462 17.8248C20.5376 17.353 21.4128 16.9334 22.3204 16.5642V16.8668L21.9674 17.3548C21.2057 17.5871 20.4547 17.8518 19.7146 18.1454C20.3035 20.8862 21.6649 23.4092 23.599 25.4099C27.7355 22.046 35.6051 16.7839 39.8767 14.1439C39.9775 14.2448 40.0946 14.5635 40.2458 14.749C36.5469 17.1207 28.4234 22.3503 23.8835 25.6962C25.5817 27.3782 27.7175 28.673 30.1558 29.3951C38.0758 31.7164 46.4335 27.1423 48.7547 19.2205C49.8154 15.6224 49.4463 11.9577 48.0002 8.79546ZM23.599 21.6768C23.5828 21.7434 23.5143 21.7776 23.4477 21.7614C23.3811 21.7452 23.3469 21.6768 23.3631 21.6102C23.3793 21.5597 23.4477 21.5093 23.5143 21.5255C23.581 21.5597 23.6152 21.6264 23.599 21.6768ZM25.045 22.4331C25.0108 22.534 24.928 22.5844 24.8433 22.5502C24.7623 22.5376 24.7047 22.462 24.7173 22.3809C24.7191 22.3701 24.7209 22.3593 24.7263 22.3485C24.7389 22.2675 24.8145 22.2098 24.8956 22.2224C24.9064 22.2242 24.9172 22.226 24.928 22.2314C25.0108 22.2495 25.0612 22.3503 25.045 22.4331ZM25.2287 21.5597C25.1945 21.6444 25.1117 21.6948 25.0108 21.6606C24.9262 21.6444 24.8758 21.5417 24.91 21.4589C24.9208 21.3778 24.9964 21.3202 25.0793 21.3328C25.0901 21.3346 25.1009 21.3382 25.1117 21.3418C25.1963 21.3742 25.2467 21.4589 25.2287 21.5597ZM25.7384 22.8743C25.7366 22.8797 25.7348 22.8833 25.733 22.8887C25.6987 23.0058 25.5655 23.0742 25.4466 23.04C25.3296 23.0058 25.2449 22.8725 25.2954 22.7537C25.3242 22.6294 25.4484 22.5538 25.5727 22.5826C25.5763 22.5826 25.5781 22.5844 25.5817 22.5844C25.7059 22.6222 25.7762 22.7519 25.7384 22.8743ZM27.4996 22.2819C27.4834 22.3485 27.3987 22.3827 27.3321 22.3665C27.2655 22.3503 27.2312 22.2657 27.2475 22.1972C27.2637 22.1306 27.3321 22.0964 27.4149 22.1126C27.4834 22.1306 27.5158 22.2152 27.4996 22.2819ZM28.7439 6.94601C28.7601 6.89559 28.8106 6.87938 28.861 6.87938C28.9276 6.89559 28.9618 6.96402 28.9456 7.01444C28.9294 7.06487 28.861 7.09908 28.8106 7.08107C28.7601 7.06306 28.7277 7.01264 28.7439 6.94601ZM28.7782 17.9275C28.7944 17.8608 28.879 17.8104 28.9456 17.8428C29.0123 17.859 29.0465 17.9275 29.0303 17.9941C29.0141 18.0607 28.9294 18.1111 28.8628 18.0949C28.7944 18.0607 28.7601 17.9941 28.7782 17.9275ZM29.1473 20.8196C29.1131 20.9042 29.0303 20.9547 28.9276 20.9366C28.843 20.9024 28.7926 20.8016 28.8106 20.7187C28.8448 20.6341 28.9456 20.5837 29.0303 20.6017C29.1149 20.6341 29.1653 20.735 29.1473 20.8196ZM29.4679 7.73657C29.4337 7.83742 29.3508 7.87164 29.2662 7.85363C29.1815 7.81941 29.1311 7.75278 29.1653 7.65194C29.1815 7.5673 29.2662 7.53488 29.3508 7.55109C29.4337 7.5853 29.4841 7.66814 29.4679 7.73657ZM30.5106 7.21433C30.4943 7.26476 30.4601 7.31518 30.4097 7.33139L30.3089 8.30744L30.1918 7.33139C30.1414 7.29717 30.1072 7.26476 30.091 7.21433L29.5867 7.16391L30.1072 7.02885C30.127 6.99283 30.1558 6.96402 30.1918 6.94421L30.3089 6.22028L30.4097 6.94421C30.4457 6.96402 30.4745 6.99283 30.4943 7.02885L31.0652 7.09548L30.5106 7.21433ZM31.3677 4.17093C31.3011 4.15473 31.2831 4.0863 31.3011 4.03587C31.3191 3.98545 31.3677 3.95123 31.4182 3.96924C31.4686 3.98545 31.5028 4.03587 31.4848 4.0863C31.4686 4.15473 31.4182 4.18714 31.3677 4.17093ZM31.7207 5.09656C31.6865 5.16319 31.6199 5.21361 31.5532 5.1812C31.4866 5.16499 31.4362 5.09656 31.4686 5.01372C31.4848 4.94709 31.5532 4.91288 31.6199 4.92908C31.6865 4.9615 31.7369 5.02813 31.7207 5.09656ZM31.8216 4.35642C31.8053 4.40684 31.7369 4.44106 31.6865 4.42305C31.6361 4.40684 31.6019 4.35642 31.6199 4.28799C31.6361 4.23757 31.6865 4.20335 31.7369 4.22136C31.8053 4.23756 31.8378 4.306 31.8216 4.35642ZM32.2934 4.55811C32.2772 4.64275 32.2087 4.67517 32.1259 4.65896C32.0593 4.64275 32.0251 4.57432 32.0413 4.49148C32.0755 4.42485 32.1421 4.39064 32.2087 4.40684C32.2754 4.42305 32.3096 4.48968 32.2934 4.55811ZM33.4531 2.89235C33.4189 2.99319 33.318 3.04362 33.2352 3.0094C33.1344 2.99319 33.0839 2.89235 33.1182 2.7915C33.1344 2.69065 33.2352 2.64023 33.3361 2.67445C33.4369 2.69065 33.4873 2.7915 33.4531 2.89235ZM33.8907 4.13672C33.8745 4.23756 33.7899 4.27178 33.689 4.25377C33.6224 4.21956 33.572 4.15293 33.6044 4.05208C33.6206 3.96744 33.7052 3.93503 33.7899 3.95123C33.8727 3.98545 33.9231 4.07009 33.8907 4.13672ZM34.4111 1.2788C34.3769 1.37965 34.2761 1.43007 34.1932 1.41387C34.0924 1.37965 34.042 1.2788 34.0582 1.17796C34.0924 1.09332 34.1932 1.0429 34.2941 1.0609C34.3769 1.09332 34.4454 1.19416 34.4111 1.2788ZM34.9658 3.0112C34.982 2.96078 35.0324 2.92656 35.0829 2.94457C35.1333 2.96078 35.1675 3.02921 35.1495 3.07963C35.1333 3.13006 35.0829 3.16427 35.0144 3.14626C34.9838 3.12825 34.9496 3.07783 34.9658 3.0112ZM35.2179 4.84444C35.2017 4.91107 35.1513 4.92908 35.0829 4.91107C35.0324 4.89487 34.9982 4.84444 35.0162 4.79402C35.0324 4.7436 35.1009 4.70938 35.1513 4.72739C35.2017 4.7436 35.2359 4.79402 35.2179 4.84444ZM37.2871 5.96996C37.2529 6.08702 37.152 6.13744 37.035 6.10502C36.9395 6.07621 36.8855 5.97356 36.9143 5.87812C36.9143 5.87452 36.9161 5.87272 36.9179 5.86912C36.9521 5.75206 37.053 5.70164 37.1538 5.73405C37.2529 5.76827 37.3213 5.86912 37.2871 5.96996ZM37.2709 2.7915C37.2547 2.85813 37.2204 2.89235 37.17 2.92656L37.0692 4.13672L36.9521 2.92656C36.9053 2.89415 36.8693 2.84733 36.8513 2.7915L36.0607 2.74108L36.8675 2.62402C36.8837 2.58981 36.9179 2.55739 36.9341 2.53938L37.0692 1.39586L37.17 2.53938C37.2042 2.55559 37.2366 2.5736 37.2547 2.60601L38.0452 2.69065L37.2709 2.7915ZM28.2487 24.0611C28.2505 24.0503 28.2541 24.0413 28.2577 24.0323C28.2739 23.9476 28.3586 23.8972 28.4432 23.9152C28.5278 23.9494 28.5783 24.0323 28.5603 24.1169C28.526 24.2015 28.4432 24.252 28.3586 24.2178C28.2847 24.2034 28.2343 24.1331 28.2487 24.0611ZM29.1473 25.8313C29.1311 25.8979 29.0969 25.9484 29.0465 25.9664L28.9294 26.6723L28.8124 25.9664C28.7746 25.9285 28.7457 25.8817 28.7277 25.8313L28.1569 25.7647L28.7457 25.6638C28.7619 25.6296 28.78 25.5972 28.8124 25.5792L28.879 24.8895L29.0465 25.5792C29.0807 25.5954 29.1131 25.6296 29.1311 25.6458L29.72 25.7305L29.1473 25.8313ZM29.8875 23.1229C29.765 23.0868 29.6948 22.9572 29.7308 22.8347C29.7326 22.8293 29.7344 22.8257 29.7362 22.8203C29.7704 22.7033 29.9037 22.6348 30.0225 22.669C30.1396 22.7033 30.2242 22.8383 30.1738 22.9554C30.1396 23.0904 30.0225 23.1571 29.8875 23.1229ZM30.2746 24.3834C30.2584 24.4339 30.19 24.4843 30.1234 24.4681C30.0567 24.4339 30.0225 24.3672 30.0387 24.3168C30.0549 24.2502 30.1396 24.216 30.19 24.2322C30.2584 24.2502 30.2909 24.3168 30.2746 24.3834ZM33.7214 24.1151C33.6872 24.216 33.5864 24.2826 33.4855 24.2502C33.3847 24.216 33.318 24.1151 33.3505 24.0143C33.3847 23.9134 33.4855 23.8468 33.5864 23.881C33.689 23.9134 33.7556 24.0143 33.7214 24.1151ZM36.5307 23.0562C36.4965 23.1409 36.4137 23.1913 36.3452 23.1571C36.2606 23.1409 36.2282 23.0562 36.2444 22.9896C36.257 22.9176 36.3254 22.8671 36.3993 22.8797C36.4101 22.8815 36.4209 22.8851 36.4299 22.8887C36.4965 22.905 36.5469 22.9896 36.5307 23.0562ZM43.9627 19.5086C43.997 19.424 44.0978 19.3573 44.1806 19.3915C44.2653 19.4077 44.3319 19.5266 44.2977 19.6094C44.2815 19.6941 44.1644 19.7445 44.096 19.7265C43.997 19.6923 43.9465 19.5914 43.9627 19.5086ZM44.2149 22.0802C44.1806 22.1648 44.0798 22.2152 43.997 22.1972C43.9123 22.163 43.8457 22.0622 43.8799 21.9793C43.8961 21.8947 43.997 21.8281 44.0978 21.8623C44.1824 21.8785 44.2329 21.9973 44.2149 22.0802ZM40.633 20.4486C40.6672 20.382 40.7501 20.3316 40.8185 20.3478C40.9031 20.382 40.9536 20.4648 40.9193 20.5333C40.9031 20.6179 40.8185 20.6503 40.7339 20.6341C40.6672 20.6179 40.6168 20.5333 40.633 20.4486ZM40.9698 22.2819C40.9355 22.3665 40.8347 22.4169 40.7681 22.3827C40.6834 22.3665 40.6168 22.2657 40.651 22.1972C40.6672 22.1126 40.7681 22.0622 40.8527 22.0802C40.9355 22.0982 40.986 22.199 40.9698 22.2819ZM41.6253 25.5792C41.591 25.6962 41.456 25.7647 41.3389 25.7305C41.2219 25.6962 41.1535 25.5612 41.1877 25.4441C41.2219 25.3271 41.3551 25.2586 41.474 25.2929C41.5748 25.3271 41.6595 25.4603 41.6253 25.5792ZM42.1133 20.8196C42.0971 20.9204 41.9782 20.9889 41.8774 20.9547C41.7765 20.9204 41.7261 20.8034 41.7423 20.7187C41.7765 20.6179 41.8936 20.5495 41.9944 20.5837C42.0791 20.6017 42.1475 20.7187 42.1133 20.8196ZM42.1475 19.7427C42.1133 19.8598 41.962 19.9444 41.845 19.912C41.7099 19.8778 41.6271 19.7265 41.6595 19.6094C41.7099 19.4744 41.8432 19.3915 41.9782 19.4402C42.0971 19.4744 42.1817 19.6256 42.1475 19.7427ZM43.7286 18.8009C43.7448 18.7342 43.7953 18.7 43.8457 18.7162C43.9123 18.7324 43.9465 18.8009 43.9303 18.8513C43.9141 18.9017 43.8457 18.9359 43.7971 18.9179C43.7448 18.9017 43.7106 18.8513 43.7286 18.8009ZM44.6363 22.8203C44.62 22.8707 44.5696 22.9212 44.5354 22.9554L44.4346 23.393L44.2995 22.9392C44.2491 22.923 44.2149 22.8725 44.1986 22.8221L43.761 22.7717L44.2311 22.6528C44.2473 22.6024 44.2653 22.5862 44.2977 22.552L44.3985 22.1324L44.5336 22.552C44.5678 22.5682 44.584 22.6024 44.6002 22.6366L44.9874 22.7717L44.6363 22.8203ZM45.4268 22.8365C45.4106 22.9212 45.3098 22.9716 45.2251 22.9536C45.1405 22.9194 45.0901 22.8185 45.1243 22.7519C45.1405 22.6672 45.2413 22.6168 45.326 22.6348C45.3926 22.6528 45.4592 22.7537 45.4268 22.8365ZM45.6123 20.8016C45.5961 20.8682 45.4952 20.9366 45.4106 20.9024C45.3098 20.8862 45.2593 20.7854 45.2755 20.7007C45.308 20.5999 45.4106 20.5495 45.5115 20.5657C45.5943 20.6017 45.6447 20.7007 45.6123 20.8016ZM46.4191 20.4666C46.3849 20.5675 46.2678 20.6359 46.1832 20.6017C46.0823 20.5675 46.0157 20.4504 46.0481 20.3658C46.0643 20.2649 46.1832 20.1965 46.284 20.2307C46.3686 20.2649 46.4353 20.382 46.4191 20.4666ZM45.9815 19.4744C45.9635 19.5284 45.9274 19.577 45.8806 19.6094L45.7636 20.3334L45.6627 19.6094C45.6159 19.577 45.5799 19.5302 45.5619 19.4744L44.8902 19.4077L45.5799 19.3069C45.5997 19.2709 45.6285 19.2421 45.6645 19.2223L45.7816 18.4983L45.8824 19.2223C45.9166 19.2385 45.9491 19.2565 45.9671 19.2889L46.5055 19.3897L45.9815 19.4744Z" fill="#E6E7F5"/>
</g>
<path opacity="0.4" fill-rule="evenodd" clip-rule="evenodd" d="M24.1355 15.8586C23.8059 15.9721 23.4818 16.0945 23.1595 16.2278V17.0022C23.6133 16.8851 24.1013 16.75 24.5893 16.633L24.1355 15.8586ZM22.3203 16.5646C20.4024 17.3551 18.5529 18.315 16.7539 19.626C18.2846 18.6679 20.0494 17.9602 21.9673 17.3551L22.3041 16.8509L22.3203 16.5646ZM38.2288 11.2179C38.4305 11.47 38.6322 11.7383 38.8177 11.9922C39.104 12.0769 39.2553 12.1597 39.5074 12.1777C39.6929 12.0265 39.9108 11.8752 40.0962 11.7239C40.1124 12.0427 40.08 12.3632 40.0962 12.6658C41.8448 12.0103 43.6115 11.2197 45.2934 10.2436C44.4705 10.8829 43.579 11.5222 42.6534 12.1777L42.6192 12.2119C41.8124 12.7828 40.9877 13.3555 40.1467 13.9443C40.2637 14.146 40.3988 14.3477 40.5158 14.5494C41.7098 13.7246 42.8875 12.8855 43.9968 12.0445C44.0473 12.0103 44.0815 11.9778 44.1319 11.9598C49.1436 8.16008 53.0442 4.30811 53.2459 0.861328C47.7804 6.25661 42.8353 9.24959 38.2288 11.2179ZM29.5506 15.5219L29.601 15.3544C29.3651 15.0014 29.1472 14.6809 28.9455 14.3621C28.3062 14.5476 27.6849 14.7313 27.0618 14.9168V16.0603C27.8704 15.8748 28.7096 15.7074 29.5506 15.5219ZM39.8603 14.1442C39.9774 14.2613 40.0962 14.5638 40.2475 14.7493C35.3547 17.8774 22.8263 25.9325 20.8922 28.1853C21.2272 26.4205 34.0076 17.7765 39.8603 14.1442ZM29.3669 14.2271C29.484 14.445 29.619 14.6647 29.7361 14.8664L29.972 14.0596C29.7703 14.11 29.5686 14.1767 29.3669 14.2271ZM35.74 14.0758C35.7058 13.9912 35.7058 13.8903 35.7058 13.7895C35.722 12.9143 36.5972 11.9724 37.7408 11.922C37.9425 11.9058 38.1099 11.9058 38.2612 11.9058C38.1261 11.7203 37.9749 11.5528 37.8236 11.3854C36.2101 12.0589 34.6613 12.6135 33.1324 13.0998L33.6529 14.6125C34.3444 14.4468 35.0341 14.2613 35.74 14.0758Z" fill="#E6E7F5"/>
<path fill-rule="evenodd" clip-rule="evenodd" d="M42.9711 11.9576L42.6182 12.2097C42.4669 12.0584 42.3498 11.9413 42.3498 11.9576H42.9711ZM36.2792 16.4308C36.128 16.5317 35.9929 16.6325 35.8416 16.7334C35.8254 16.465 35.8579 16.1949 35.8416 15.9266C35.9425 16.1265 36.0595 16.2795 36.2792 16.4308ZM32.8145 19.5751L33.2683 19.2725C33.7563 19.6759 34.2101 20.0289 34.5126 20.2144C35.1519 20.6682 34.8656 21.122 34.6801 21.2228C34.4784 21.3399 33.94 21.239 33.7041 20.7852C33.6374 20.6159 33.234 20.0793 32.8631 19.6417C32.8523 19.6165 32.8361 19.5931 32.8145 19.5751ZM38.4312 15.8924C39.0867 15.4728 39.6756 15.0856 40.1979 14.7831C40.4842 15.0856 40.6679 15.489 40.6679 15.9608C40.7021 16.9188 39.4397 17.5743 38.397 17.6428C37.3706 17.7094 37.1022 17.6428 36.5296 17.4573C36.3279 17.6086 36.0415 17.7598 35.8398 17.9273C35.8236 17.8102 35.8398 17.6752 35.8398 17.5581C36.254 17.2916 36.6682 17.0287 37.0842 16.7676C37.8082 16.9693 38.5645 16.9368 38.6978 16.5317C38.8004 16.2111 38.6671 16.0274 38.4312 15.8924Z" fill="#E6E7F5"/>
<path fill-rule="evenodd" clip-rule="evenodd" d="M21.748 11.957H24.2206L26.2213 15.3876V12.6125L25.7009 11.957H27.6187L27.0641 12.5801V16.7833L27.6872 17.5738H25.1282L23.1617 14.2261V17.0174L23.7506 17.572H21.7823L22.3027 16.8481L22.3189 12.6269L21.748 11.957Z" fill="#E6E7F5"/>
<path d="M29.7194 11.9578H29.7248C29.7194 11.9542 29.7176 11.9542 29.7194 11.9578Z" fill="#E6E7F5"/>
<path d="M47.8486 17.5743L47.0238 16.8341L45.3599 11.9575H44.1317C43.7499 12.2366 43.3681 12.5158 42.9882 12.7985L41.778 16.935C41.2071 15.5898 40.4328 14.2608 39.5576 13.0164C39.7593 13.1172 39.9105 13.2523 40.096 13.4198C40.096 12.8651 40.1122 12.2762 40.096 11.7216C39.9105 11.8729 39.6926 12.0241 39.491 12.1754C39.255 12.1592 39.0876 12.0745 38.8192 11.9899C38.0791 10.9977 37.2723 10.072 36.4656 9.31568C33.1682 6.16963 29.9574 4.21934 27.7874 5.48172C25.6012 6.7603 27.4686 11.6532 28.4609 13.5026C28.7292 14.0411 29.1506 14.6803 29.6044 15.3521L29.1344 16.9152L28.3943 17.5707H30.4958L29.925 16.9152L30.1429 16.2093H30.1591C31.0847 17.5383 32.0427 18.7646 32.3453 19.0672C32.4623 18.9825 32.5974 18.8817 32.7144 18.7988C32.4965 18.6134 32.2768 18.4117 32.0914 18.21C31.823 17.9579 31.2504 17.2177 30.5787 16.2093H31.9581L32.194 16.899L31.6213 17.5725H34.5819C34.699 17.4878 34.834 17.387 34.9511 17.3204L34.3964 16.7999L32.7126 11.9575H29.7251C29.7935 12.0007 30.4076 12.631 30.4076 12.631L29.7341 14.8838C28.6752 13.1172 27.5983 10.9652 27.2795 9.20043C26.6402 5.82027 28.5077 4.64253 31.8032 6.22366C33.8382 7.21591 36.2603 9.41833 38.243 11.9071C38.1097 11.9071 37.9404 11.9071 37.7388 11.9233C36.5952 11.9737 35.72 12.9155 35.6876 13.7907C35.6714 14.6659 36.7807 15.2368 37.4362 15.5051C37.4866 15.5213 37.5371 15.5556 37.5875 15.5718C38.3114 15.1017 38.9831 14.6966 39.6044 14.3112C39.4531 14.2265 39.2857 14.1437 39.1164 14.0753C38.2412 13.7385 37.4848 13.6557 37.4524 13.1677C37.4686 12.8489 38.1241 12.613 38.9327 12.7985L39.8745 14.1437L40.2455 14.7488C40.7659 15.5736 41.2216 16.3965 41.5403 17.1367L41.0199 17.5743H41.7438C41.9797 18.1794 42.131 18.7178 42.1814 19.1374C42.3993 20.9526 42.6694 21.844 41.9131 22.8201C41.2738 23.6107 40.2149 23.7457 37.6919 22.8543C38.9363 23.8304 42.3669 24.5687 42.7036 21.6766C42.8549 20.4988 42.5866 19.0528 42.0319 17.5743H43.125L42.5704 16.9512L42.7721 16.2111H44.5873L44.8232 16.935L44.2686 17.5743H47.8486ZM30.3914 15.4547C30.4256 15.4385 30.9622 13.4864 30.9622 13.4864L31.6015 15.4547H30.3914ZM43.0206 15.4547C43.0548 15.4385 43.5932 13.5206 43.5932 13.5206L44.2325 15.4547H43.0206Z" fill="#E6E7F5"/>
<path opacity="0.4" fill-rule="evenodd" clip-rule="evenodd" d="M26.2206 15.1689C26.1864 15.1689 26.1539 15.1852 26.1035 15.2032L26.2206 15.3886V15.1689Z" fill="#E6E7F5"/>
<path opacity="0.4" fill-rule="evenodd" clip-rule="evenodd" d="M39.1042 13.0328C39.052 12.9481 38.989 12.8689 38.9187 12.7969C38.1282 12.6114 37.4727 12.8473 37.4727 13.166C37.4727 13.3173 37.5393 13.4182 37.6581 13.5028C38.1444 13.3533 38.6324 13.2021 39.1042 13.0328Z" fill="#E6E7F5"/>
<path opacity="0.4" fill-rule="evenodd" clip-rule="evenodd" d="M31.0471 13.7402C30.9912 13.76 30.9354 13.7763 30.8796 13.7907C30.7625 14.2283 30.5266 15.035 30.4258 15.3376C30.7787 15.2529 31.1497 15.1683 31.4847 15.1017L31.0471 13.7402Z" fill="#E6E7F5"/>
</g>
</g>
</g>
<defs>
<clipPath id="clip0_10196_837">
<rect width="70" height="30" fill="white"/>
</clipPath>
<clipPath id="clip1_10196_837">
<rect width="70" height="30" fill="white"/>
</clipPath>
<clipPath id="clip2_10196_837">
<rect width="36.492" height="30" fill="white" transform="translate(16.7539)"/>
</clipPath>
</defs>
</svg>
