<svg width="180" height="120" viewBox="0 0 180 120" fill="none" xmlns="http://www.w3.org/2000/svg">
<g clip-path="url(#clip0_11105_18761)">
<path d="M87.1864 92.7322C105.264 92.7322 119.92 78.077 119.92 59.9989C119.92 41.9208 105.264 27.2656 87.1864 27.2656C69.1083 27.2656 54.4531 41.9208 54.4531 59.9989C54.4531 78.077 69.1083 92.7322 87.1864 92.7322Z" fill="#0B3D91"/>
<path d="M85.2537 33.9195C85.4564 33.9195 85.6206 33.7552 85.6206 33.5525C85.6206 33.3498 85.4564 33.1855 85.2537 33.1855C85.051 33.1855 84.8867 33.3498 84.8867 33.5525C84.8867 33.7552 85.051 33.9195 85.2537 33.9195Z" fill="white"/>
<path d="M89.0213 34.4097C89.2239 34.4097 89.3882 34.2454 89.3882 34.0427C89.3882 33.8401 89.2239 33.6758 89.0213 33.6758C88.8186 33.6758 88.6543 33.8401 88.6543 34.0427C88.6543 34.2454 88.8186 34.4097 89.0213 34.4097Z" fill="white"/>
<path d="M93.9627 41.064C94.1653 41.064 94.3296 40.8997 94.3296 40.697C94.3296 40.4944 94.1653 40.3301 93.9627 40.3301C93.76 40.3301 93.5957 40.4944 93.5957 40.697C93.5957 40.8997 93.76 41.064 93.9627 41.064Z" fill="white"/>
<path d="M66.8552 75.314C67.0579 75.314 67.2222 75.1497 67.2222 74.947C67.2222 74.7444 67.0579 74.5801 66.8552 74.5801C66.6526 74.5801 66.4883 74.7444 66.4883 74.947C66.4883 75.1497 66.6526 75.314 66.8552 75.314Z" fill="white"/>
<path d="M67.8103 78.2515C68.013 78.2515 68.1773 78.0872 68.1773 77.8845C68.1773 77.6819 68.013 77.5176 67.8103 77.5176C67.6077 77.5176 67.4434 77.6819 67.4434 77.8845C67.4434 78.0872 67.6077 78.2515 67.8103 78.2515Z" fill="white"/>
<path d="M63.2611 75.6629C63.4129 75.6629 63.536 75.5399 63.536 75.3881C63.536 75.2363 63.4129 75.1133 63.2611 75.1133C63.1094 75.1133 62.9863 75.2363 62.9863 75.3881C62.9863 75.5399 63.1094 75.6629 63.2611 75.6629Z" fill="white"/>
<path d="M78.1838 81.4302C78.3361 81.4302 78.4595 81.3068 78.4595 81.1545C78.4595 81.0023 78.3361 80.8789 78.1838 80.8789C78.0316 80.8789 77.9082 81.0023 77.9082 81.1545C77.9082 81.3068 78.0316 81.4302 78.1838 81.4302Z" fill="white"/>
<path d="M101.591 76.5672C101.743 76.5672 101.866 76.4442 101.866 76.2924C101.866 76.1406 101.743 76.0176 101.591 76.0176C101.439 76.0176 101.316 76.1406 101.316 76.2924C101.316 76.4442 101.439 76.5672 101.591 76.5672Z" fill="white"/>
<path d="M108.391 69.1802C108.543 69.1802 108.666 69.0568 108.666 68.9045C108.666 68.7523 108.543 68.6289 108.391 68.6289C108.239 68.6289 108.115 68.7523 108.115 68.9045C108.115 69.0568 108.239 69.1802 108.391 69.1802Z" fill="white"/>
<path d="M75.0522 43.118C75.2039 43.118 75.327 42.995 75.327 42.8432C75.327 42.6914 75.2039 42.5684 75.0522 42.5684C74.9004 42.5684 74.7773 42.6914 74.7773 42.8432C74.7773 42.995 74.9004 43.118 75.0522 43.118Z" fill="white"/>
<path d="M82.5385 37.6199C82.6903 37.6199 82.8133 37.4969 82.8133 37.3451C82.8133 37.1934 82.6903 37.0703 82.5385 37.0703C82.3867 37.0703 82.2637 37.1934 82.2637 37.3451C82.2637 37.4969 82.3867 37.6199 82.5385 37.6199Z" fill="white"/>
<path d="M81.724 37.0828C81.8758 37.0828 81.9989 36.9598 81.9989 36.808C81.9989 36.6562 81.8758 36.5332 81.724 36.5332C81.5723 36.5332 81.4492 36.6562 81.4492 36.808C81.4492 36.9598 81.5723 37.0828 81.724 37.0828Z" fill="white"/>
<path d="M80.9936 36.5438C81.1453 36.5438 81.2684 36.4207 81.2684 36.269C81.2684 36.1172 81.1453 35.9941 80.9936 35.9941C80.8418 35.9941 80.7188 36.1172 80.7188 36.269C80.7188 36.4207 80.8418 36.5438 80.9936 36.5438Z" fill="white"/>
<path d="M76.2279 44.5379C76.3797 44.5379 76.5028 44.4149 76.5028 44.2631C76.5028 44.1113 76.3797 43.9883 76.2279 43.9883C76.0762 43.9883 75.9531 44.1113 75.9531 44.2631C75.9531 44.4149 76.0762 44.5379 76.2279 44.5379Z" fill="white"/>
<path d="M87.2553 30.2332C87.4071 30.2332 87.5301 30.1102 87.5301 29.9584C87.5301 29.8066 87.4071 29.6836 87.2553 29.6836C87.1035 29.6836 86.9805 29.8066 86.9805 29.9584C86.9805 30.1102 87.1035 30.2332 87.2553 30.2332Z" fill="white"/>
<path d="M89.0639 38.159C89.2157 38.159 89.3387 38.036 89.3387 37.8842C89.3387 37.7324 89.2157 37.6094 89.0639 37.6094C88.9121 37.6094 88.7891 37.7324 88.7891 37.8842C88.7891 38.036 88.9121 38.159 89.0639 38.159Z" fill="white"/>
<path d="M86.2084 36.6121C86.3602 36.6121 86.4832 36.4891 86.4832 36.3373C86.4832 36.1855 86.3602 36.0625 86.2084 36.0625C86.0566 36.0625 85.9336 36.1855 85.9336 36.3373C85.9336 36.4891 86.0566 36.6121 86.2084 36.6121Z" fill="white"/>
<path d="M81.3139 38.7156C81.4657 38.7156 81.5887 38.5926 81.5887 38.4408C81.5887 38.2891 81.4657 38.166 81.3139 38.166C81.1621 38.166 81.0391 38.2891 81.0391 38.4408C81.0391 38.5926 81.1621 38.7156 81.3139 38.7156Z" fill="white"/>
<path d="M102.892 83.8289C103.044 83.8289 103.167 83.7059 103.167 83.5541C103.167 83.4023 103.044 83.2793 102.892 83.2793C102.74 83.2793 102.617 83.4023 102.617 83.5541C102.617 83.7059 102.74 83.8289 102.892 83.8289Z" fill="white"/>
<path d="M66.3909 77.0825C66.5431 77.0825 66.6665 76.9591 66.6665 76.8069C66.6665 76.6547 66.5431 76.5312 66.3909 76.5312C66.2386 76.5312 66.1152 76.6547 66.1152 76.8069C66.1152 76.9591 66.2386 77.0825 66.3909 77.0825Z" fill="white"/>
<path d="M85.5217 80.6294C85.674 80.6294 85.7974 80.506 85.7974 80.3538C85.7974 80.2015 85.674 80.0781 85.5217 80.0781C85.3695 80.0781 85.2461 80.2015 85.2461 80.3538C85.2461 80.506 85.3695 80.6294 85.5217 80.6294Z" fill="white"/>
<path d="M72.0842 76.8618C72.2365 76.8618 72.3599 76.7384 72.3599 76.5862C72.3599 76.4339 72.2365 76.3105 72.0842 76.3105C71.932 76.3105 71.8086 76.4339 71.8086 76.5862C71.8086 76.7384 71.932 76.8618 72.0842 76.8618Z" fill="white"/>
<path d="M74.4651 80.7466C74.6173 80.7466 74.7407 80.6232 74.7407 80.4709C74.7407 80.3187 74.6173 80.1953 74.4651 80.1953C74.3129 80.1953 74.1895 80.3187 74.1895 80.4709C74.1895 80.6232 74.3129 80.7466 74.4651 80.7466Z" fill="white"/>
<path d="M91.9818 78.2996C92.1336 78.2996 92.2567 78.1766 92.2567 78.0248C92.2567 77.873 92.1336 77.75 91.9818 77.75C91.8301 77.75 91.707 77.873 91.707 78.0248C91.707 78.1766 91.8301 78.2996 91.9818 78.2996Z" fill="white"/>
<path d="M101.64 72.8504C101.792 72.8504 101.915 72.7274 101.915 72.5756C101.915 72.4238 101.792 72.3008 101.64 72.3008C101.488 72.3008 101.365 72.4238 101.365 72.5756C101.365 72.7274 101.488 72.8504 101.64 72.8504Z" fill="white"/>
<path d="M108.958 76.1942C109.11 76.1942 109.233 76.0711 109.233 75.9194C109.233 75.7676 109.11 75.6445 108.958 75.6445C108.807 75.6445 108.684 75.7676 108.684 75.9194C108.684 76.0711 108.807 76.1942 108.958 76.1942Z" fill="white"/>
<path d="M111.456 77.7918C111.608 77.7918 111.731 77.6688 111.731 77.517C111.731 77.3652 111.608 77.2422 111.456 77.2422C111.305 77.2422 111.182 77.3652 111.182 77.517C111.182 77.6688 111.305 77.7918 111.456 77.7918Z" fill="white"/>
<path d="M111.867 73.4364C112.018 73.4364 112.141 73.3133 112.141 73.1615C112.141 73.0098 112.018 72.8867 111.867 72.8867C111.715 72.8867 111.592 73.0098 111.592 73.1615C111.592 73.3133 111.715 73.4364 111.867 73.4364Z" fill="white"/>
<path d="M75.4623 67.2703C75.6141 67.2703 75.7371 67.1473 75.7371 66.9955C75.7371 66.8437 75.6141 66.7207 75.4623 66.7207C75.3105 66.7207 75.1875 66.8437 75.1875 66.9955C75.1875 67.1473 75.3105 67.2703 75.4623 67.2703Z" fill="white"/>
<path d="M75.5662 73.6753C75.7689 73.6753 75.9331 73.511 75.9331 73.3084C75.9331 73.1057 75.7689 72.9414 75.5662 72.9414C75.3635 72.9414 75.1992 73.1057 75.1992 73.3084C75.1992 73.511 75.3635 73.6753 75.5662 73.6753Z" fill="white"/>
<path d="M77.7674 78.3238C77.97 78.3238 78.1343 78.1595 78.1343 77.9568C78.1343 77.7541 77.97 77.5898 77.7674 77.5898C77.5647 77.5898 77.4004 77.7541 77.4004 77.9568C77.4004 78.1595 77.5647 78.3238 77.7674 78.3238Z" fill="white"/>
<path d="M104.14 73.48C104.343 73.48 104.507 73.3157 104.507 73.1131C104.507 72.9104 104.343 72.7461 104.14 72.7461C103.938 72.7461 103.773 72.9104 103.773 73.1131C103.773 73.3157 103.938 73.48 104.14 73.48Z" fill="white"/>
<path d="M113.633 72.941C113.835 72.941 114 72.7767 114 72.574C114 72.3713 113.835 72.207 113.633 72.207C113.43 72.207 113.266 72.3713 113.266 72.574C113.266 72.7767 113.43 72.941 113.633 72.941Z" fill="white"/>
<path d="M108.937 70.9331C109.14 70.9331 109.304 70.7689 109.304 70.5662C109.304 70.3635 109.14 70.1992 108.937 70.1992C108.735 70.1992 108.57 70.3635 108.57 70.5662C108.57 70.7689 108.735 70.9331 108.937 70.9331Z" fill="white"/>
<path d="M104.14 71.1324C104.343 71.1324 104.507 70.9681 104.507 70.7654C104.507 70.5627 104.343 70.3984 104.14 70.3984C103.938 70.3984 103.773 70.5627 103.773 70.7654C103.773 70.9681 103.938 71.1324 104.14 71.1324Z" fill="white"/>
<path d="M94.2433 33.3253L95.1567 33.238L94.2458 33.1866C94.2172 33.0105 94.0762 32.8727 93.8984 32.8498L93.8111 31.9414L93.7589 32.8572C93.5942 32.8939 93.4678 33.0317 93.4474 33.2029L92.5145 33.2878L93.454 33.3383C93.4882 33.4957 93.6154 33.6188 93.7752 33.6482L93.8601 34.5844L93.909 33.6498C93.9912 33.6364 94.0673 33.598 94.1271 33.54C94.1869 33.482 94.2274 33.407 94.2433 33.3253ZM78.8504 43.4845L79.7637 43.3972L78.8528 43.3459C78.8251 43.1697 78.6832 43.0319 78.5054 43.0091L78.4182 42.1006L78.3668 43.0164C78.2013 43.0531 78.0749 43.1909 78.0545 43.3622L77.1216 43.447L78.061 43.4975C78.0952 43.6549 78.2225 43.7781 78.3823 43.8074L78.4671 44.7436L78.5177 43.809C78.5997 43.7954 78.6757 43.757 78.7353 43.699C78.7949 43.641 78.8345 43.5662 78.8504 43.4845ZM112.967 70.3447L113.88 70.2574L112.969 70.2061C112.941 70.0299 112.8 69.8921 112.622 69.8693L112.534 68.9608L112.483 69.8766C112.318 69.9133 112.192 70.0511 112.172 70.2224L111.239 70.3072L112.178 70.3577C112.212 70.5151 112.34 70.6383 112.499 70.6676L112.584 71.6038L112.635 70.6692C112.717 70.6555 112.792 70.617 112.852 70.559C112.911 70.501 112.951 70.4262 112.967 70.3447ZM75.7679 84.3888L76.6812 84.3016L75.7703 84.2502C75.7418 84.0741 75.6007 83.9362 75.4229 83.9134L75.3357 83.0058L75.2843 83.9208C75.1188 83.9575 74.9924 84.0953 74.972 84.2665L74.0391 84.3513L74.9785 84.4019C75.0127 84.5593 75.14 84.6832 75.2998 84.7118L75.3846 85.6479L75.4352 84.7134C75.5172 84.6998 75.5932 84.6614 75.6528 84.6034C75.7124 84.5454 75.752 84.4705 75.7679 84.3888ZM110.067 77.5388L110.98 77.4516L110.069 77.4002C110.042 77.2241 109.9 77.0862 109.722 77.0634L109.635 76.155L109.583 77.0699C109.419 77.1066 109.292 77.2444 109.272 77.4157L108.339 77.5005L109.278 77.5511C109.313 77.7085 109.44 77.8316 109.6 77.8609L109.684 78.7971L109.735 77.8626C109.902 77.8357 110.037 77.7052 110.068 77.5388H110.067Z" fill="white"/>
<path d="M94.9491 52.1563C91.1433 53.6356 87.4304 54.9559 84.299 55.9361C77.9342 57.9291 60.5197 63.3243 50 70.1254L50.8807 70.4679C57.2904 66.8472 61.4575 65.7096 65.4615 64.4497C69.8161 63.0797 83.8937 59.7851 90.2683 57.9911C92.4211 57.3852 94.9442 56.5917 97.6076 55.6262C96.9862 54.7594 96.3305 53.8892 95.6406 53.0224L94.941 52.1563H94.9491ZM99.599 58.566C98.6775 59.1882 97.9052 59.6848 97.3646 59.998C94.2331 61.8083 78.9674 72.2301 75.4935 74.6277C72.0195 77.0252 62.3806 86.1259 59.5427 88.768L59.4449 89.8445C68.5945 81.6244 71.465 79.5972 75.102 76.8294C79.6035 73.4044 88.9162 67.0682 92.0803 65.0376L100.284 59.6783L100.164 59.4769L99.5998 58.566H99.599ZM113.902 43.4593C109.445 46.0721 102.421 49.2247 95.6031 51.9011L96.09 52.5046C96.8378 53.4461 97.5568 54.4102 98.2461 55.3954C103.604 53.422 109.483 50.7733 114.148 47.5668C111.926 49.6724 104.579 55.163 100.1 58.2235L100.77 59.3489C107.556 54.8107 112.122 51.4673 114.791 49.2329C118.461 46.1504 126.828 39.2514 130.008 30.0039C124.43 37.0986 117.833 41.1596 113.911 43.4593H113.902Z" fill="#FC3D21"/>
<path d="M82.9736 68.1051L80.5043 65.0364L77.7252 61.2281L76.895 61.4361C77.9494 63.0797 79.0863 64.6689 80.3013 66.1977L82.4541 68.83L82.9385 69.5427L83.7377 68.9996L82.9711 68.1059L82.9736 68.1051ZM88.2416 72.887C87.6487 72.326 86.2029 71.389 84.7146 69.9839L83.7165 70.6722C84.6828 72.034 85.9998 73.7058 87.0298 74.195C88.5824 74.9306 89.0008 73.6079 88.2416 72.8886V72.887ZM96.0889 52.5001C87.5329 41.7309 77.0883 35.8154 72.5746 39.3954C69.0746 42.168 70.5115 50.3032 75.3358 58.8404L76.0698 58.5958C71.2014 50.2779 69.8681 42.5472 73.1691 39.9246C77.3174 36.6284 87.3339 42.5667 95.642 53.0244C97.3545 55.1887 98.8738 57.3611 100.154 59.4789C105.057 67.5929 106.561 74.9306 103.174 77.925C102.138 78.8416 98.97 79.2013 94.8208 77.3338C94.7638 77.4154 94.8559 77.6029 94.9285 77.66C98.5101 79.1001 101.942 79.6498 103.673 78.2732C107.835 74.9657 104.638 63.2848 96.0889 52.5164V52.5001ZM59.3949 53.7853H64.8749L69.4742 61.5894V55.4978C69.4742 54.8128 68.6057 53.9198 68.2999 53.7853H72.0919C71.8594 53.8464 71.1133 54.7516 71.1133 55.4978V64.4517C71.1133 65.0022 71.9084 65.7606 72.2876 66.0541H67.0033L62.3306 58.2052V64.3702C62.3306 64.9818 62.93 65.5689 63.5538 66.0704H59.5172C60.0921 65.8258 60.6426 65.0552 60.6915 64.4436C60.7404 63.832 60.6915 55.9422 60.6915 55.5997C60.6915 54.8535 59.9698 54.2419 59.3867 53.7771L59.3949 53.7853Z" fill="white"/>
<path d="M109.523 66.0542H116.813C116.41 65.9563 115.957 65.4793 115.712 64.8432L111.61 53.7853H108.838L106.31 55.577V55.6446C106.189 56.3786 104.02 64.2349 103.888 64.6149C103.704 65.1531 102.763 65.7525 102.383 66.0705H106.31C105.918 65.6302 105.6 65.202 105.674 64.7127C105.747 64.2235 105.967 63.2449 105.967 63.2449H110.028C110.212 63.7342 110.349 64.1745 110.42 64.5904C110.506 65.0919 109.992 65.6546 109.539 66.0461L109.523 66.0542ZM106.31 61.6873L107.68 57.2022L109.49 61.6873H106.31ZM105.693 54.2322L106.298 53.7853H105.25C105.356 53.8832 105.531 54.03 105.709 54.2322H105.693ZM77.8171 64.7291L78.1107 63.2612H82.1718C82.3552 63.7505 82.4922 64.1908 82.5632 64.6067C82.6488 65.1083 82.1351 65.6709 81.6825 66.0624H88.1003L88.508 65.7933C88.2593 65.5731 88.0302 65.2428 87.8801 64.8506L83.7701 53.7927H77.4094C77.7152 54.074 78.5959 54.8324 78.4695 55.652C78.3496 56.3859 76.1796 64.2422 76.0475 64.6222C75.864 65.1604 74.9222 65.7598 74.543 66.0779H78.4695C78.0781 65.6375 77.76 65.2094 77.8334 64.7201L77.8171 64.7291ZM79.8558 57.2267L81.6662 61.7118H78.4858L79.8558 57.2267ZM99.9883 59.8753L96.1963 62.3748C96.7933 62.6643 97.2687 63.0272 97.3135 63.4977C97.3984 64.38 95.6255 64.8065 94.0231 64.623C93.7026 64.5863 93.387 64.5024 93.0877 64.3898L92.0782 65.0389L90.8305 65.852V67.1184C91.1567 66.4946 91.8441 65.936 92.384 65.9074C92.6164 65.8952 93.4237 66.6414 96.7509 66.4579C98.3655 66.3763 101.485 64.6475 101.436 62.6659C101.406 61.4949 100.795 60.5815 99.9867 59.8753H99.9883ZM90.8321 62.935V64.2251L91.7014 63.6543C91.2529 63.3427 90.9365 63.0508 90.8321 62.9423V62.935ZM98.8515 59.0656C98.5511 58.8892 98.2425 58.727 97.9268 58.5795C96.3611 57.8456 94.722 57.7111 94.3795 56.7203C94.1381 56.0214 94.8198 55.3747 96.4834 55.3992C98.147 55.4236 99.6882 56.4144 100.104 56.7692V53.6133C99.9818 53.7356 99.4452 54.3513 98.9624 54.2494C97.5216 53.9531 96.0543 53.8056 94.5833 53.809C92.4794 53.8212 90.669 55.44 90.6079 57.5031C90.5223 60.3777 92.8219 61.1605 94.1185 61.6131L94.5703 61.7623L97.3641 59.9993L98.8507 59.0664L98.8515 59.0656Z" fill="white"/>
</g>
<defs>
<clipPath id="clip0_11105_18761">
<rect width="80" height="80" fill="white" transform="translate(50 20)"/>
</clipPath>
</defs>
</svg>
