<svg width="300" height="75" viewBox="0 0 300 75" fill="none" xmlns="http://www.w3.org/2000/svg">
<path d="M1 36.2832V39.5252C3.37332 55.7193 40.9465 69.2164 91.5976 73.4297H91.6128C56.0778 67.9859 18.4056 56.0621 18.4056 42.7518C18.4056 22.4281 74.6528 5.94058 143.376 5.94058C190.721 5.94058 236.713 17.1519 254.903 28.6642C237.425 13.8872 183.704 0.999672 125.788 0.999672C58.9272 0.999672 3.8876 16.6643 1 36.2832Z" fill="url(#paint0_linear_11091_17338)"/>
<path d="M18.4062 42.5118V42.9423C18.7605 56.1803 56.2613 68.0164 91.6325 73.4297C65.7355 66.7859 38.8709 57.1555 38.8709 44.6413C38.8709 26.0204 88.6534 10.9501 149.388 10.9501C191.236 10.9501 234.809 18.2948 254.904 28.6642C236.714 17.1519 190.721 5.94058 143.377 5.94058C74.924 5.94058 18.852 22.2948 18.4062 42.5118Z" fill="url(#paint1_linear_11091_17338)"/>
<path d="M53.1106 32.1355H64.8438L65.6134 46.5278H65.6515L68.6876 32.1355H75.4076L71.1409 52.543H59.6058L58.741 37.7393H58.6648L55.5753 52.543H48.8516" fill="#0E357F"/>
<path d="M97.7787 38.1525H91.0435L88.0302 52.541H80.1979L83.2112 38.1525H76.4531L77.7255 32.1373H99.0358" fill="#0E357F"/>
<path d="M121.2 38.1525H114.446L111.425 52.541H103.6L106.587 38.1525H99.8672L101.128 32.1373H122.465" fill="#0E357F"/>
<mask id="mask0_11091_17338" style="mask-type:luminance" maskUnits="userSpaceOnUse" x="1" y="0" width="299" height="74">
<path d="M1 73.6113H299.813V0.118492H1V73.6113Z" fill="white"/>
</mask>
<g mask="url(#mask0_11091_17338)">
<path d="M149.776 45.1365C149.776 49.5821 146.805 52.8164 142.538 52.8164C139.053 52.8164 136.969 50.6183 136.969 47.0298C136.969 42.805 140.093 39.5708 144.188 39.5708C147.494 39.5708 149.776 41.6317 149.776 45.1365ZM146.477 45.1441C146.477 43.4946 145.902 42.1079 144.043 42.1079C141.54 42.1079 140.306 44.9955 140.306 47.2736C140.306 48.9612 140.961 50.2755 142.786 50.2755C145.224 50.2755 146.477 47.3117 146.477 45.1441Z" fill="#0E357F"/>
<path d="M152.221 41.244C152.336 40.7602 152.431 40.2497 152.48 39.8383H155.452L155.174 41.5449H155.231C156.046 40.2497 157.452 39.5716 158.964 39.5716C160.397 39.5716 161.894 40.4326 162.042 41.9716H162.099C162.915 40.3107 164.659 39.5716 166.389 39.5716C168.206 39.5716 169.756 41.0992 169.756 43.0268C169.756 44.1545 169.486 45.4497 169.235 46.463L167.958 52.543H164.789L166.046 46.3678C166.225 45.5754 166.461 44.4097 166.461 43.6249C166.461 42.7145 165.76 42.1011 164.983 42.1011C162.77 42.1011 162.221 44.7716 161.81 46.4897L160.564 52.543H157.402L158.678 46.3678C158.85 45.5754 159.082 44.4097 159.082 43.6249C159.082 42.7145 158.37 42.1011 157.585 42.1011C155.433 42.1011 154.842 44.7868 154.419 46.4897L153.189 52.543H150.016" fill="#0E357F"/>
<path d="M172.327 41.244C172.418 40.7602 172.517 40.2497 172.574 39.8383H175.55L175.256 41.5449H175.321C176.155 40.2497 177.55 39.5716 179.043 39.5716C180.494 39.5716 181.98 40.4326 182.148 41.9716H182.197C183.02 40.3107 184.772 39.5716 186.46 39.5716C188.308 39.5716 189.858 41.0992 189.858 43.0268C189.858 44.1545 189.584 45.4497 189.313 46.463L188.041 52.543H184.852L186.14 46.3678C186.296 45.5754 186.559 44.4097 186.559 43.6249C186.559 42.7145 185.873 42.1011 185.077 42.1011C182.856 42.1011 182.296 44.7716 181.923 46.4897L180.643 52.543H177.492L178.746 46.3678C178.921 45.5754 179.169 44.4097 179.169 43.6249C179.169 42.7145 178.464 42.1011 177.679 42.1011C175.523 42.1011 174.929 44.7868 174.513 46.4897L173.271 52.543H170.117" fill="#0E357F"/>
<path d="M201.647 50.7079C201.491 51.485 201.369 52.1479 201.342 52.5441H198.23L198.451 51.3136H198.401C197.529 52.1479 196.318 52.8184 194.969 52.8184C192.569 52.8184 190.984 51.306 190.984 48.7612C190.984 47.8127 191.202 46.8222 191.377 46.0184L192.661 39.8356H195.83L194.645 45.8317C194.459 46.7194 194.295 47.5651 194.295 48.4755C194.295 49.5612 195.003 50.2736 196.005 50.2736C198.215 50.2736 199.011 48.1403 199.426 46.2317L200.702 39.8356H203.88" fill="#0E357F"/>
<path d="M205.935 41.6784C206.08 40.905 206.195 40.246 206.248 39.8346H209.349L209.143 41.0765H209.181C210.057 40.246 211.265 39.5717 212.625 39.5717C215.036 39.5717 216.606 41.0993 216.606 43.6174C216.606 44.5774 216.362 45.5755 216.187 46.3641L214.926 52.5469H211.737L212.93 46.5469C213.097 45.6936 213.295 44.825 213.295 43.8955C213.295 42.825 212.579 42.105 211.562 42.105C209.368 42.105 208.56 44.2422 208.168 46.1355L206.846 52.5469H203.703" fill="#0E357F"/>
<path d="M220.133 39.8363H223.303L220.716 52.541H217.539L220.133 39.8363ZM221.291 34.3849H224.457L223.813 37.5354H220.621" fill="#0E357F"/>
<path d="M233.69 42.7537C233.085 42.3422 232.266 42.1137 231.378 42.1137C228.837 42.1137 227.42 44.5784 227.42 46.9632C227.42 48.6165 227.95 50.2736 230.132 50.2736C230.921 50.2736 231.866 50.0374 232.696 49.6336L232.353 52.2393C231.378 52.746 230.323 52.8184 229.298 52.8184C226.144 52.8184 224.117 50.6241 224.117 47.3365C224.117 42.9213 226.948 39.5689 231.313 39.5689C232.487 39.5689 233.622 39.767 234.475 40.0413" fill="#0E357F"/>
<path d="M241.995 50.5803H241.938C240.871 52.0241 239.763 52.8203 238.029 52.8203C235.827 52.8203 234.258 51.5403 234.258 49.2013C234.258 45.0375 238.745 44.6947 241.736 44.6947H242.848L242.936 43.628C242.936 42.3404 241.614 41.9709 240.513 41.9709C239.107 41.9709 237.763 42.3404 236.513 42.9423L236.959 40.3137C238.296 39.8223 239.679 39.5747 241.096 39.5747C243.53 39.5747 245.831 40.4852 245.831 43.468C245.831 45.1746 244.623 50.1422 244.326 52.5422H241.667L241.995 50.5803ZM238.898 50.4089C241.26 50.4089 241.995 48.7213 242.49 46.668H241.378C239.85 46.668 237.279 46.9232 237.279 49.0832C237.279 49.9822 238.079 50.4089 238.898 50.4089Z" fill="#0E357F"/>
<path d="M247.718 39.8357H250L250.556 37.2414L253.965 36.0871L253.177 39.8357H256.019L255.527 42.27H252.685L251.516 47.8128C251.463 48.0947 251.394 48.548 251.394 49.0356C251.394 49.7937 251.878 50.2737 252.586 50.2737C253.154 50.2737 253.725 50.1404 254.122 49.9804L253.565 52.5404C253.043 52.6585 252.419 52.8223 251.878 52.8223C249.733 52.8223 248.213 51.9347 248.213 49.5004C248.213 48.529 248.384 47.5652 248.617 46.548L249.508 42.27H247.219" fill="#0E357F"/>
<path d="M258.559 39.8363H261.729L259.154 52.541H255.977L258.559 39.8363ZM259.729 34.3849H262.902L262.251 37.5354H259.074" fill="#0E357F"/>
<path d="M275.104 45.1365C275.104 49.5821 272.14 52.8164 267.828 52.8164C264.369 52.8164 262.273 50.6183 262.273 47.0298C262.273 42.805 265.416 39.5708 269.481 39.5708C272.78 39.5708 275.104 41.6317 275.104 45.1365ZM271.771 45.1441C271.771 43.4946 271.23 42.1079 269.359 42.1079C266.856 42.1079 265.603 44.9955 265.603 47.2736C265.603 48.9612 266.277 50.2755 268.102 50.2755C270.548 50.2755 271.771 47.3117 271.771 45.1441Z" fill="#0E357F"/>
<path d="M277.791 41.6784C277.935 40.905 278.065 40.246 278.103 39.8346H281.193L280.987 41.0765H281.036C281.901 40.246 283.12 39.5717 284.499 39.5717C286.88 39.5717 288.453 41.0993 288.453 43.6174C288.453 44.5774 288.225 45.5755 288.042 46.3641L286.785 52.5469H283.615L284.804 46.5469C284.953 45.6936 285.154 44.825 285.154 43.8955C285.154 42.825 284.434 42.105 283.417 42.105C281.219 42.105 280.438 44.2422 280.019 46.1355L278.713 52.5469H275.547" fill="#0E357F"/>
<path d="M298.325 42.5479C297.502 42.2318 296.614 41.9689 295.712 41.9689C294.774 41.9689 293.597 42.2318 293.597 43.2527C293.597 44.8641 297.719 45.447 297.719 48.5479C297.719 51.8546 294.931 52.8184 292.214 52.8184C290.942 52.8184 289.658 52.6393 288.508 52.0679L289.174 49.4127C290.089 49.9422 290.984 50.4031 292.214 50.4031C293.277 50.4031 294.39 50.0298 294.39 48.9974C294.39 46.9746 290.272 46.7841 290.272 43.5918C290.272 40.6203 293.045 39.5689 295.563 39.5689C296.713 39.5689 297.898 39.7746 298.999 40.0565" fill="#0E357F"/>
<path d="M137.013 38.7556C136.266 38.1995 135.025 37.7728 133.242 37.7728C131.642 37.7728 128.232 38.7899 127.067 42.8889C125.596 48.1118 128.552 50.1232 131.455 50.1232C132.842 50.1232 133.996 49.6622 134.967 49.0489L134.366 52.367C133.139 52.6946 131.867 52.8203 130.617 52.8203C125.642 52.8203 122.148 48.9994 123.634 42.8889C124.948 37.4376 129.002 35.0414 133.07 35.0414C134.731 35.0414 136.476 35.2699 137.908 35.8833" fill="#0E357F"/>
</g>
<defs>
<linearGradient id="paint0_linear_11091_17338" x1="127.943" y1="1.88119" x2="127.943" y2="76.0001" gradientUnits="userSpaceOnUse">
<stop stop-color="#FEEABE"/>
<stop offset="0.5" stop-color="#FDD000"/>
<stop offset="1" stop-color="#AF7900"/>
</linearGradient>
<linearGradient id="paint1_linear_11091_17338" x1="136.726" y1="71.1774" x2="136.726" y2="4.4665" gradientUnits="userSpaceOnUse">
<stop stop-color="#FEEABE"/>
<stop offset="0.25" stop-color="#FDD000"/>
<stop offset="1" stop-color="#B67100"/>
</linearGradient>
</defs>
</svg>
