<svg width="180" height="120" viewBox="0 0 180 120" fill="none" xmlns="http://www.w3.org/2000/svg">
<path d="M20.4668 59.5654V61.0783C21.5743 68.6356 39.1085 74.9342 62.7457 76.9004H62.7528C46.1698 74.36 28.5894 68.7955 28.5894 62.584C28.5894 53.0996 54.8381 45.4055 86.909 45.4055C109.003 45.4055 130.466 50.6374 138.955 56.0098C130.799 49.1139 105.728 43.0997 78.7011 43.0997C47.4995 43.0997 21.8143 50.4099 20.4668 59.5654Z" fill="url(#paint0_linear_11105_18670)"/>
<path d="M28.5898 62.472V62.6729C28.7552 68.8507 46.2555 74.3742 62.7621 76.9004C50.6768 73.8 38.14 69.3058 38.14 63.4658C38.14 54.7761 61.3718 47.7432 89.7148 47.7432C109.244 47.7432 129.578 51.1708 138.955 56.0098C130.467 50.6374 109.004 45.4055 86.9095 45.4055C54.9648 45.4055 28.7978 53.0374 28.5898 62.472Z" fill="url(#paint1_linear_11105_18670)"/>
<path d="M44.7864 57.6288H50.2619L50.621 64.3453H50.6388L52.0557 57.6288H55.1916L53.2005 67.1523H47.8175L47.4139 60.2439H47.3784L45.9366 67.1523H42.7988" fill="#0E357F"/>
<path d="M65.6297 60.4377H62.4866L61.0804 67.1523H57.4253L58.8315 60.4377H55.6777L56.2715 57.6306H66.2163" fill="#0E357F"/>
<path d="M76.5629 60.4377H73.4109L72.0012 67.1523H68.3496L69.7434 60.4377H66.6074L67.1959 57.6306H77.1531" fill="#0E357F"/>
<mask id="mask0_11105_18670" style="mask-type:luminance" maskUnits="userSpaceOnUse" x="20" y="42" width="140" height="35">
<path d="M20.4668 76.9863H159.913V42.6897H20.4668V76.9863Z" fill="white"/>
</mask>
<g mask="url(#mask0_11105_18670)">
<path d="M89.8968 63.6973C89.8968 65.7719 88.5101 67.2812 86.519 67.2812C84.8924 67.2812 83.9199 66.2555 83.9199 64.5808C83.9199 62.6093 85.3777 61.1 87.2888 61.1C88.8319 61.1 89.8968 62.0617 89.8968 63.6973ZM88.3572 63.7008C88.3572 62.9311 88.0888 62.2839 87.2212 62.2839C86.0532 62.2839 85.4772 63.6315 85.4772 64.6946C85.4772 65.4822 85.783 66.0955 86.6346 66.0955C87.7723 66.0955 88.3572 64.7124 88.3572 63.7008Z" fill="#0E357F"/>
<path d="M91.0371 61.8814C91.0905 61.6557 91.1349 61.4174 91.158 61.2254H92.5447L92.4149 62.0219H92.4416C92.822 61.4174 93.478 61.101 94.1838 61.101C94.8522 61.101 95.5509 61.5028 95.6202 62.221H95.6469C96.0273 61.4459 96.8415 61.101 97.6487 61.101C98.4966 61.101 99.2202 61.8139 99.2202 62.7134C99.2202 63.2397 99.094 63.8441 98.9766 64.317L98.3811 67.1543H96.902L97.4887 64.2725C97.5722 63.9028 97.6824 63.3588 97.6824 62.9925C97.6824 62.5677 97.3553 62.2814 96.9927 62.2814C95.9598 62.2814 95.7038 63.5277 95.5118 64.3294L94.9304 67.1543H93.4549L94.0505 64.2725C94.1305 63.9028 94.2389 63.3588 94.2389 62.9925C94.2389 62.5677 93.9065 62.2814 93.5402 62.2814C92.5358 62.2814 92.2602 63.5348 92.0629 64.3294L91.4887 67.1543H90.0078" fill="#0E357F"/>
<path d="M100.42 61.8814C100.462 61.6557 100.509 61.4174 100.535 61.2254H101.924L101.787 62.0219H101.817C102.206 61.4174 102.857 61.101 103.554 61.101C104.231 61.101 104.925 61.5028 105.003 62.221H105.026C105.41 61.4459 106.228 61.101 107.015 61.101C107.878 61.101 108.601 61.8139 108.601 62.7134C108.601 63.2397 108.473 63.8441 108.347 64.317L107.753 67.1543H106.265L106.866 64.2725C106.939 63.9028 107.062 63.3588 107.062 62.9925C107.062 62.5677 106.742 62.2814 106.37 62.2814C105.334 62.2814 105.072 63.5277 104.898 64.3294L104.301 67.1543H102.83L103.415 64.2725C103.497 63.9028 103.613 63.3588 103.613 62.9925C103.613 62.5677 103.284 62.2814 102.918 62.2814C101.911 62.2814 101.634 63.5348 101.44 64.3294L100.861 67.1543H99.3887" fill="#0E357F"/>
<path d="M114.103 66.2983C114.03 66.661 113.973 66.9703 113.961 67.1552H112.508L112.611 66.581H112.588C112.181 66.9703 111.616 67.2832 110.986 67.2832C109.867 67.2832 109.127 66.5774 109.127 65.3899C109.127 64.9472 109.228 64.485 109.31 64.1099L109.909 61.2246H111.388L110.835 64.0228C110.748 64.437 110.672 64.8317 110.672 65.2565C110.672 65.7632 111.002 66.0957 111.47 66.0957C112.501 66.0957 112.873 65.1001 113.066 64.2094L113.662 61.2246H115.145" fill="#0E357F"/>
<path d="M116.104 62.0843C116.172 61.7234 116.225 61.4158 116.25 61.2238H117.697L117.601 61.8034H117.619C118.028 61.4158 118.591 61.1012 119.226 61.1012C120.351 61.1012 121.084 61.8141 121.084 62.9892C121.084 63.4372 120.97 63.9029 120.888 64.2709L120.3 67.1562H118.812L119.368 64.3563C119.446 63.958 119.539 63.5527 119.539 63.1189C119.539 62.6194 119.205 62.2834 118.73 62.2834C117.706 62.2834 117.329 63.2807 117.146 64.1643L116.529 67.1562H115.062" fill="#0E357F"/>
<path d="M122.73 61.2235H124.209L123.002 67.1523H121.52L122.73 61.2235ZM123.271 58.6795H124.748L124.448 60.1497H122.958" fill="#0E357F"/>
<path d="M129.057 62.5863C128.775 62.3943 128.392 62.2877 127.978 62.2877C126.792 62.2877 126.131 63.4379 126.131 64.5508C126.131 65.3223 126.378 66.0957 127.397 66.0957C127.765 66.0957 128.206 65.9854 128.593 65.797L128.433 67.013C127.978 67.2494 127.486 67.2832 127.008 67.2832C125.536 67.2832 124.59 66.2592 124.59 64.725C124.59 62.6646 125.911 61.1001 127.948 61.1001C128.496 61.1001 129.025 61.1926 129.424 61.3206" fill="#0E357F"/>
<path d="M132.931 66.2379H132.904C132.407 66.9116 131.889 67.2832 131.08 67.2832C130.053 67.2832 129.32 66.6859 129.32 65.5943C129.32 63.6512 131.415 63.4912 132.81 63.4912H133.329L133.37 62.9935C133.37 62.3926 132.753 62.2201 132.239 62.2201C131.583 62.2201 130.956 62.3926 130.373 62.6735L130.581 61.4468C131.205 61.2175 131.85 61.1019 132.511 61.1019C133.647 61.1019 134.721 61.5268 134.721 62.9188C134.721 63.7152 134.158 66.0334 134.019 67.1534H132.778L132.931 66.2379ZM131.486 66.1579C132.588 66.1579 132.931 65.3703 133.162 64.4121H132.643C131.93 64.4121 130.73 64.5312 130.73 65.5392C130.73 65.9588 131.103 66.1579 131.486 66.1579Z" fill="#0E357F"/>
<path d="M135.602 61.2248H136.667L136.926 60.0141L138.518 59.4754L138.15 61.2248H139.476L139.246 62.3607H137.92L137.374 64.9474C137.35 65.0789 137.318 65.2905 137.318 65.5181C137.318 65.8718 137.543 66.0958 137.874 66.0958C138.139 66.0958 138.406 66.0336 138.59 65.9589L138.331 67.1536C138.087 67.2087 137.796 67.2852 137.543 67.2852C136.542 67.2852 135.833 66.8709 135.833 65.7349C135.833 65.2816 135.913 64.8318 136.022 64.3572L136.438 62.3607H135.369" fill="#0E357F"/>
<path d="M140.66 61.2235H142.14L140.938 67.1523H139.455L140.66 61.2235ZM141.206 58.6795H142.687L142.383 60.1497H140.9" fill="#0E357F"/>
<path d="M148.384 63.6973C148.384 65.7719 147.001 67.2812 144.988 67.2812C143.374 67.2812 142.396 66.2555 142.396 64.5808C142.396 62.6093 143.863 61.1 145.76 61.1C147.3 61.1 148.384 62.0617 148.384 63.6973ZM146.828 63.7008C146.828 62.9311 146.576 62.2839 145.703 62.2839C144.535 62.2839 143.95 63.6315 143.95 64.6946C143.95 65.4822 144.265 66.0955 145.116 66.0955C146.258 66.0955 146.828 64.7124 146.828 63.7008Z" fill="#0E357F"/>
<path d="M149.635 62.0843C149.703 61.7234 149.763 61.4158 149.781 61.2238H151.223L151.127 61.8034H151.15C151.553 61.4158 152.122 61.1012 152.766 61.1012C153.877 61.1012 154.611 61.8141 154.611 62.9892C154.611 63.4372 154.504 63.9029 154.419 64.2709L153.832 67.1562H152.353L152.908 64.3563C152.977 63.958 153.071 63.5527 153.071 63.1189C153.071 62.6194 152.735 62.2834 152.261 62.2834C151.235 62.2834 150.871 63.2807 150.675 64.1643L150.065 67.1562H148.588" fill="#0E357F"/>
<path d="M159.218 62.4903C158.834 62.3428 158.42 62.2201 157.998 62.2201C157.561 62.2201 157.012 62.3428 157.012 62.8192C157.012 63.5712 158.935 63.8432 158.935 65.2903C158.935 66.8334 157.634 67.2832 156.366 67.2832C155.773 67.2832 155.174 67.1996 154.637 66.933L154.948 65.6939C155.374 65.941 155.792 66.1561 156.366 66.1561C156.862 66.1561 157.382 65.9819 157.382 65.5001C157.382 64.5561 155.46 64.4672 155.46 62.9775C155.46 61.5908 156.754 61.1001 157.929 61.1001C158.466 61.1001 159.019 61.1961 159.533 61.3277" fill="#0E357F"/>
<path d="M83.9397 60.7197C83.5913 60.4601 83.0117 60.261 82.1797 60.261C81.4331 60.261 79.842 60.7357 79.298 62.6486C78.6118 65.0859 79.9913 66.0245 81.346 66.0245C81.9931 66.0245 82.5317 65.8094 82.9851 65.5232L82.7042 67.0716C82.1317 67.2245 81.538 67.2832 80.9549 67.2832C78.6331 67.2832 77.0029 65.5001 77.6962 62.6486C78.3095 60.1046 80.2011 58.9864 82.0997 58.9864C82.8749 58.9864 83.6891 59.093 84.3575 59.3793" fill="#0E357F"/>
</g>
<defs>
<linearGradient id="paint0_linear_11105_18670" x1="79.707" y1="43.5111" x2="79.707" y2="78.0999" gradientUnits="userSpaceOnUse">
<stop stop-color="#FEEABE"/>
<stop offset="0.5" stop-color="#FDD000"/>
<stop offset="1" stop-color="#AF7900"/>
</linearGradient>
<linearGradient id="paint1_linear_11105_18670" x1="83.8055" y1="75.8493" x2="83.8055" y2="44.7176" gradientUnits="userSpaceOnUse">
<stop stop-color="#FEEABE"/>
<stop offset="0.25" stop-color="#FDD000"/>
<stop offset="1" stop-color="#B67100"/>
</linearGradient>
</defs>
</svg>
