<svg width="140" height="35" viewBox="0 0 140 35" fill="none" xmlns="http://www.w3.org/2000/svg">
<path d="M0.466797 16.9326V18.4455C1.57435 26.0028 19.1085 32.3014 42.7457 34.2676H42.7528C26.1698 31.7271 8.58941 26.1627 8.58941 19.9512C8.58941 10.4668 34.8381 2.77266 66.909 2.77266C89.0031 2.77266 110.466 8.00462 118.955 13.377C110.799 6.48108 85.7285 0.466903 58.7011 0.466903C27.4995 0.466903 1.81434 7.77707 0.466797 16.9326Z" fill="url(#paint0_linear_11105_19483)"/>
<path d="M8.58984 19.8392V20.0401C8.75518 26.2179 26.2555 31.7414 42.7621 34.2676C30.6768 31.1672 18.14 26.6729 18.14 20.833C18.14 12.1433 41.3718 5.11043 69.7148 5.11043C89.2435 5.11043 109.578 8.53795 118.955 13.377C110.467 8.00462 89.0035 2.77266 66.9095 2.77266C34.9648 2.77266 8.79784 10.4046 8.58984 19.8392Z" fill="url(#paint1_linear_11105_19483)"/>
<path d="M24.7864 14.996H30.2619L30.621 21.7124H30.6388L32.0557 14.996H35.1916L33.2005 24.5195H27.8175L27.4139 17.6111H27.3784L25.9366 24.5195H22.7988" fill="#0E357F"/>
<path d="M45.6297 17.8049H42.4866L41.0804 24.5195H37.4253L38.8315 17.8049H35.6777L36.2715 14.9978H46.2163" fill="#0E357F"/>
<path d="M56.5629 17.8049H53.4109L52.0012 24.5195H48.3496L49.7434 17.8049H46.6074L47.1959 14.9978H57.1531" fill="#0E357F"/>
<mask id="mask0_11105_19483" style="mask-type:luminance" maskUnits="userSpaceOnUse" x="0" y="0" width="140" height="35">
<path d="M0.466797 34.3535H139.913V0.0568588H0.466797V34.3535Z" fill="white"/>
</mask>
<g mask="url(#mask0_11105_19483)">
<path d="M69.8968 21.0645C69.8968 23.1391 68.5101 24.6484 66.519 24.6484C64.8924 24.6484 63.9199 23.6227 63.9199 21.948C63.9199 19.9765 65.3777 18.4671 67.2888 18.4671C68.8319 18.4671 69.8968 19.4289 69.8968 21.0645ZM68.3572 21.068C68.3572 20.2982 68.0888 19.6511 67.2212 19.6511C66.0532 19.6511 65.4772 20.9987 65.4772 22.0618C65.4772 22.8493 65.783 23.4627 66.6346 23.4627C67.7723 23.4627 68.3572 22.0796 68.3572 21.068Z" fill="#0E357F"/>
<path d="M71.0371 19.2486C71.0905 19.0229 71.1349 18.7846 71.158 18.5926H72.5447L72.4149 19.3891H72.4416C72.822 18.7846 73.478 18.4682 74.1838 18.4682C74.8522 18.4682 75.5509 18.87 75.6202 19.5882H75.6469C76.0273 18.8131 76.8415 18.4682 77.6487 18.4682C78.4966 18.4682 79.2202 19.1811 79.2202 20.0806C79.2202 20.6068 79.094 21.2113 78.9766 21.6842L78.3811 24.5215H76.902L77.4887 21.6397C77.5722 21.2699 77.6824 20.726 77.6824 20.3597C77.6824 19.9348 77.3553 19.6486 76.9927 19.6486C75.9598 19.6486 75.7038 20.8948 75.5118 21.6966L74.9304 24.5215H73.4549L74.0505 21.6397C74.1305 21.2699 74.2389 20.726 74.2389 20.3597C74.2389 19.9348 73.9065 19.6486 73.5402 19.6486C72.5358 19.6486 72.2602 20.902 72.0629 21.6966L71.4887 24.5215H70.0078" fill="#0E357F"/>
<path d="M80.4198 19.2486C80.4624 19.0229 80.5087 18.7846 80.5353 18.5926H81.9238L81.7869 19.3891H81.8171C82.2064 18.7846 82.8571 18.4682 83.554 18.4682C84.2313 18.4682 84.9246 18.87 85.0029 19.5882H85.026C85.41 18.8131 86.2277 18.4682 87.0153 18.4682C87.8775 18.4682 88.6011 19.1811 88.6011 20.0806C88.6011 20.6068 88.4731 21.2113 88.3468 21.6842L87.7531 24.5215H86.2651L86.866 21.6397C86.9388 21.2699 87.0615 20.726 87.0615 20.3597C87.0615 19.9348 86.7415 19.6486 86.37 19.6486C85.3335 19.6486 85.0722 20.8948 84.898 21.6966L84.3006 24.5215H82.8304L83.4153 21.6397C83.4971 21.2699 83.6126 20.726 83.6126 20.3597C83.6126 19.9348 83.2838 19.6486 82.9175 19.6486C81.9113 19.6486 81.634 20.902 81.4402 21.6966L80.8607 24.5215H79.3887" fill="#0E357F"/>
<path d="M94.1029 23.6655C94.03 24.0282 93.9731 24.3375 93.9607 24.5224H92.5083L92.6114 23.9482H92.5883C92.1812 24.3375 91.6158 24.6504 90.9865 24.6504C89.8665 24.6504 89.127 23.9446 89.127 22.7571C89.127 22.3144 89.2283 21.8522 89.3101 21.4771L89.9092 18.5918H91.3883L90.8354 21.39C90.7483 21.8042 90.6718 22.1989 90.6718 22.6237C90.6718 23.1304 91.0025 23.4628 91.47 23.4628C92.5012 23.4628 92.8727 22.4673 93.0665 21.5766L93.662 18.5918H95.1447" fill="#0E357F"/>
<path d="M96.1043 19.4515C96.1718 19.0906 96.2252 18.783 96.25 18.591H97.6972L97.6012 19.1706H97.6189C98.0278 18.783 98.5914 18.4684 99.226 18.4684C100.351 18.4684 101.084 19.1812 101.084 20.3564C101.084 20.8044 100.97 21.2701 100.888 21.6381L100.3 24.5234H98.8118L99.3683 21.7235C99.4465 21.3252 99.5389 20.9199 99.5389 20.4861C99.5389 19.9866 99.2047 19.6506 98.73 19.6506C97.706 19.6506 97.3292 20.6479 97.146 21.5315L96.5292 24.5234H95.0625" fill="#0E357F"/>
<path d="M102.73 18.5907H104.209L103.002 24.5195H101.52L102.73 18.5907ZM103.271 16.0467H104.748L104.448 17.5169H102.958" fill="#0E357F"/>
<path d="M109.057 19.9535C108.775 19.7615 108.392 19.6549 107.978 19.6549C106.792 19.6549 106.131 20.8051 106.131 21.918C106.131 22.6895 106.378 23.4628 107.397 23.4628C107.765 23.4628 108.206 23.3526 108.593 23.1642L108.433 24.3802C107.978 24.6166 107.486 24.6504 107.008 24.6504C105.536 24.6504 104.59 23.6264 104.59 22.0922C104.59 20.0318 105.911 18.4673 107.948 18.4673C108.496 18.4673 109.025 18.5598 109.424 18.6878" fill="#0E357F"/>
<path d="M112.931 23.6051H112.904C112.407 24.2788 111.889 24.6504 111.08 24.6504C110.053 24.6504 109.32 24.0531 109.32 22.9615C109.32 21.0184 111.415 20.8584 112.81 20.8584H113.329L113.37 20.3606C113.37 19.7598 112.753 19.5873 112.239 19.5873C111.583 19.5873 110.956 19.7598 110.373 20.0406L110.581 18.814C111.205 18.5847 111.85 18.4691 112.511 18.4691C113.647 18.4691 114.721 18.894 114.721 20.286C114.721 21.0824 114.158 23.4006 114.019 24.5206H112.778L112.931 23.6051ZM111.486 23.5251C112.588 23.5251 112.931 22.7375 113.162 21.7793H112.643C111.93 21.7793 110.73 21.8984 110.73 22.9064C110.73 23.326 111.103 23.5251 111.486 23.5251Z" fill="#0E357F"/>
<path d="M115.602 18.5919H116.667L116.926 17.3813L118.518 16.8426L118.15 18.5919H119.476L119.246 19.7279H117.92L117.374 22.3146C117.35 22.4461 117.318 22.6577 117.318 22.8852C117.318 23.239 117.543 23.463 117.874 23.463C118.139 23.463 118.406 23.4008 118.59 23.3261L118.331 24.5208C118.087 24.5759 117.796 24.6523 117.543 24.6523C116.542 24.6523 115.833 24.2381 115.833 23.1021C115.833 22.6488 115.913 22.199 116.022 21.7244L116.438 19.7279H115.369" fill="#0E357F"/>
<path d="M120.66 18.5907H122.14L120.938 24.5195H119.455L120.66 18.5907ZM121.206 16.0467H122.687L122.383 17.5169H120.9" fill="#0E357F"/>
<path d="M128.384 21.0645C128.384 23.1391 127.001 24.6484 124.988 24.6484C123.374 24.6484 122.396 23.6227 122.396 21.948C122.396 19.9765 123.863 18.4671 125.76 18.4671C127.3 18.4671 128.384 19.4289 128.384 21.0645ZM126.828 21.068C126.828 20.2982 126.576 19.6511 125.703 19.6511C124.535 19.6511 123.95 20.9987 123.95 22.0618C123.95 22.8493 124.265 23.4627 125.116 23.4627C126.258 23.4627 126.828 22.0796 126.828 21.068Z" fill="#0E357F"/>
<path d="M129.635 19.4515C129.703 19.0906 129.763 18.783 129.781 18.591H131.223L131.127 19.1706H131.15C131.553 18.783 132.122 18.4684 132.766 18.4684C133.877 18.4684 134.611 19.1812 134.611 20.3564C134.611 20.8044 134.504 21.2701 134.419 21.6381L133.832 24.5234H132.353L132.908 21.7235C132.977 21.3252 133.071 20.9199 133.071 20.4861C133.071 19.9866 132.735 19.6506 132.261 19.6506C131.235 19.6506 130.871 20.6479 130.675 21.5315L130.065 24.5234H128.588" fill="#0E357F"/>
<path d="M139.218 19.8575C138.834 19.71 138.42 19.5873 137.998 19.5873C137.561 19.5873 137.012 19.71 137.012 20.1864C137.012 20.9384 138.935 21.2104 138.935 22.6575C138.935 24.2006 137.634 24.6504 136.366 24.6504C135.773 24.6504 135.174 24.5668 134.637 24.3002L134.948 23.0611C135.374 23.3082 135.792 23.5233 136.366 23.5233C136.862 23.5233 137.382 23.3491 137.382 22.8673C137.382 21.9233 135.46 21.8344 135.46 20.3446C135.46 18.958 136.754 18.4673 137.929 18.4673C138.466 18.4673 139.019 18.5633 139.533 18.6949" fill="#0E357F"/>
<path d="M63.9397 18.0869C63.5913 17.8273 63.0117 17.6282 62.1797 17.6282C61.4331 17.6282 59.842 18.1029 59.298 20.0158C58.6118 22.4531 59.9913 23.3917 61.346 23.3917C61.9931 23.3917 62.5317 23.1766 62.9851 22.8904L62.7042 24.4388C62.1317 24.5917 61.538 24.6504 60.9549 24.6504C58.6331 24.6504 57.0029 22.8673 57.6962 20.0158C58.3095 17.4718 60.2011 16.3536 62.0997 16.3536C62.8749 16.3536 63.6891 16.4602 64.3575 16.7464" fill="#0E357F"/>
</g>
<defs>
<linearGradient id="paint0_linear_11105_19483" x1="59.707" y1="0.878278" x2="59.707" y2="35.4671" gradientUnits="userSpaceOnUse">
<stop stop-color="#FEEABE"/>
<stop offset="0.5" stop-color="#FDD000"/>
<stop offset="1" stop-color="#AF7900"/>
</linearGradient>
<linearGradient id="paint1_linear_11105_19483" x1="63.8055" y1="33.2165" x2="63.8055" y2="2.08476" gradientUnits="userSpaceOnUse">
<stop stop-color="#FEEABE"/>
<stop offset="0.25" stop-color="#FDD000"/>
<stop offset="1" stop-color="#B67100"/>
</linearGradient>
</defs>
</svg>
