<svg width="70" height="30" viewBox="0 0 70 30" fill="none" xmlns="http://www.w3.org/2000/svg">
<g clip-path="url(#clip0_10196_746)">
<g clip-path="url(#clip1_10196_746)">
<g clip-path="url(#clip2_10196_746)">
<path opacity="0.6" fill-rule="evenodd" clip-rule="evenodd" d="M21.2326 23.4875C20.6676 23.4015 20.1056 23.3063 19.5436 23.208C19.2887 23.1619 19.0338 23.1159 18.7789 23.0667C18.5363 23.0207 18.2968 22.9746 18.0541 22.9255C17.397 22.7965 16.7398 22.6552 16.0856 22.5047C15.3271 22.3328 14.5747 22.1454 13.8254 21.9458C13.4907 21.8568 13.1559 21.7646 12.8212 21.6664C12.6615 21.6203 12.5049 21.5742 12.3483 21.5251C12.1947 21.479 12.0412 21.433 11.8907 21.3838C11.7433 21.3378 11.5959 21.2917 11.4515 21.2426C11.1721 21.1535 10.8926 21.0583 10.6162 20.9631C10.4842 20.917 10.3521 20.871 10.2201 20.8218C10.0911 20.7758 9.96518 20.7297 9.83927 20.6806C9.71643 20.6345 9.59359 20.5884 9.47382 20.5393C9.02238 20.3643 8.57709 20.1769 8.13794 19.9804C8.0366 19.9343 7.93833 19.8883 7.83698 19.8391C7.30263 19.5904 6.78671 19.3078 6.28307 18.9977C5.84699 18.7244 5.46926 18.4449 5.15294 18.1593C4.85199 17.886 4.60938 17.6034 4.43741 17.3209C4.2685 17.0445 4.16409 16.7651 4.13338 16.4825C4.12417 16.418 4.12109 16.3536 4.12109 16.2891C4.12109 16.071 4.14873 15.8561 4.20401 15.6442C4.28078 15.3493 4.40055 15.0668 4.55717 14.8058C4.72608 14.5202 4.94105 14.2407 5.20208 13.9674C5.49689 13.6603 5.81935 13.3808 6.16023 13.126C6.54717 12.8373 6.98325 12.5578 7.46847 12.2876C8.02431 11.9805 8.59245 11.6979 9.17593 11.4492C9.89761 11.139 10.6316 10.8596 11.3778 10.6108C12.2653 10.3129 13.2204 10.0304 14.24 9.76937C15.5206 9.44385 16.8135 9.16439 18.1125 8.93099C20.0073 8.59011 22.0434 8.30758 24.19 8.09568C27.1074 7.80701 30.2245 7.65039 33.4613 7.65039C36.2098 7.65039 38.9368 7.81008 41.5502 8.09568C43.5372 8.31065 45.4565 8.59625 47.2715 8.93406C48.6227 9.18588 49.9156 9.46841 51.1317 9.77244C52.1359 10.0212 53.1309 10.3037 54.1167 10.6139C54.9213 10.8657 55.7167 11.1452 56.4998 11.4523C57.1447 11.7041 57.7804 11.9835 58.4007 12.2906C58.8276 12.4995 59.2422 12.7329 59.6445 12.9847C59.1408 12.7298 58.628 12.4964 58.0998 12.2906C57.2952 11.9743 56.4783 11.6949 55.6491 11.4523C54.5681 11.1329 53.4749 10.8534 52.3724 10.6139C50.8492 10.2822 49.3137 9.99969 47.769 9.77244C45.0573 9.36707 42.1429 9.0784 39.1856 8.93406C37.7484 8.86343 36.3081 8.82658 34.8678 8.82658C33.4152 8.82658 31.9903 8.86343 30.5991 8.93406C27.7431 9.0784 25.0437 9.36707 22.5777 9.77244C21.1958 9.99662 19.8261 10.2792 18.4687 10.6139C17.4952 10.8534 16.534 11.1329 15.582 11.4523C14.848 11.6979 14.1264 11.9774 13.417 12.2906C12.855 12.5394 12.3083 12.8189 11.7771 13.129C11.3502 13.3778 10.9417 13.6603 10.5579 13.9705C10.2446 14.2223 9.95596 14.5018 9.698 14.8089C9.48303 15.0637 9.30491 15.3463 9.16365 15.6472C9.04081 15.9144 8.96096 16.1969 8.93025 16.4887C8.89647 16.7712 8.92104 17.0568 9.00396 17.3271C9.08687 17.6127 9.22814 17.8952 9.42468 18.1654C9.63044 18.4541 9.89454 18.7336 10.2109 19.0038C10.5456 19.2925 10.9387 19.5719 11.3778 19.8453C11.4546 19.8913 11.5314 19.9374 11.6082 19.9865C11.688 20.0326 11.7709 20.0787 11.8508 20.1278C12.0227 20.223 12.1947 20.3182 12.3698 20.4073C12.5571 20.5025 12.7475 20.5977 12.9348 20.6867C13.0331 20.7328 13.1344 20.7788 13.2327 20.828C13.334 20.874 13.4385 20.9201 13.5429 20.9692C13.6504 21.0153 13.7578 21.0614 13.8653 21.1105C13.9759 21.1566 14.0864 21.2026 14.2001 21.2518C14.4335 21.347 14.6699 21.4391 14.9064 21.5312C15.0292 21.5773 15.1521 21.6234 15.278 21.6725C15.4039 21.7186 15.5329 21.7646 15.6618 21.8138L16.058 21.955C16.1931 22.0011 16.3313 22.0502 16.4695 22.0963C16.6077 22.1424 16.7459 22.1884 16.8872 22.2345C17.1789 22.3297 17.4737 22.4249 17.7685 22.514C18.0787 22.6092 18.3889 22.7044 18.6991 22.7934C18.8587 22.8395 19.0215 22.8855 19.1843 22.9347L19.6818 23.0759C20.0257 23.1711 20.3697 23.2633 20.7167 23.3554C20.8948 23.4015 21.076 23.4475 21.2541 23.4967L21.3032 23.509L21.2326 23.4875Z" fill="#E6E7F5"/>
<path opacity="0.6" fill-rule="evenodd" clip-rule="evenodd" d="M21.8715 6.7817C24.3529 6.59129 26.8404 6.49609 29.331 6.49609C32.8442 6.49609 36.3512 6.69571 39.8429 7.09186C41.3262 7.26077 42.8064 7.46652 44.2774 7.7122C44.8671 7.81047 45.4475 7.91489 46.0156 8.02237C46.9922 8.2097 47.9657 8.41546 48.9331 8.64271C49.7377 8.83311 50.5392 9.04194 51.3346 9.26305C51.6939 9.36439 52.047 9.46881 52.391 9.57322C53.0175 9.76669 53.6409 9.97245 54.2581 10.1936C54.7956 10.387 55.3268 10.5928 55.852 10.8139C56.3096 11.0074 56.761 11.2131 57.2063 11.4373C57.5932 11.6277 57.971 11.8365 58.3395 12.0576C58.5115 12.159 58.6711 12.2634 58.8278 12.3678C58.9813 12.4722 59.1287 12.5736 59.27 12.678C59.4051 12.7793 59.531 12.8776 59.6508 12.9789C59.485 12.8745 59.3161 12.7732 59.1441 12.678C58.9537 12.5705 58.7602 12.4661 58.5667 12.3678C58.3579 12.2603 58.146 12.1559 57.931 12.0576C57.452 11.8365 56.9667 11.6277 56.4754 11.4373C55.9073 11.2131 55.333 11.0074 54.7526 10.8139C54.4393 10.7095 54.1138 10.6051 53.7852 10.5037C53.0574 10.2795 52.3203 10.0738 51.5833 9.88339C51.1657 9.7759 50.7449 9.67149 50.3242 9.57322C49.3476 9.3429 48.368 9.13714 47.3822 8.95288C46.7926 8.84233 46.1999 8.73791 45.6041 8.64271C44.0195 8.38475 42.4287 8.17899 40.8349 8.02237C39.3669 7.87804 37.8622 7.77055 36.3451 7.7122C35.3839 7.67535 34.4257 7.65385 33.4645 7.65385C32.319 7.65385 31.1889 7.67535 30.0741 7.7122C28.3268 7.77055 26.6254 7.87804 24.9855 8.02237C24.0089 8.10836 23.0354 8.21277 22.065 8.33254C21.3096 8.42774 20.5725 8.53216 19.8508 8.64271C19.2366 8.73791 18.6224 8.84233 18.0082 8.95288C17.4708 9.05115 16.9457 9.15557 16.4328 9.26305C15.5545 9.44731 14.6793 9.65614 13.8102 9.88646C13.1008 10.0738 12.3976 10.2826 11.7035 10.5068C11.12 10.6972 10.5396 10.906 9.96534 11.1271C9.71352 11.2285 9.4617 11.3298 9.20988 11.4373C8.97341 11.5386 8.74616 11.6431 8.52505 11.7475C8.11968 11.9409 7.72045 12.1467 7.33044 12.3678C7.15846 12.4692 6.98649 12.5705 6.81758 12.678C6.65789 12.7793 6.50434 12.8837 6.35694 12.9882C6.2126 13.0895 6.07133 13.1939 5.93928 13.2983C5.69667 13.4918 5.46635 13.7006 5.24831 13.9187C5.06098 14.1121 4.88901 14.321 4.72931 14.539C4.59112 14.7355 4.47442 14.9444 4.37615 15.1593C4.29938 15.3344 4.23796 15.5156 4.19496 15.7029C4.15504 15.881 4.13047 16.0653 4.1274 16.2465C4.1274 16.2588 4.12433 16.271 4.12433 16.2833C4.12433 16.4522 4.15197 16.6211 4.20111 16.79C4.25638 16.9743 4.3393 17.1555 4.45293 17.3336C4.56655 17.5179 4.70782 17.699 4.87672 17.8772C5.0487 18.0614 5.24831 18.2426 5.47249 18.4207C5.70282 18.605 5.96078 18.7862 6.24331 18.9643C6.55041 19.1578 6.86672 19.3389 7.18917 19.5079C7.56076 19.7013 7.93542 19.8825 8.31622 20.0514C8.7523 20.2449 9.19145 20.4261 9.63675 20.595C10.125 20.7823 10.6379 20.9635 11.1692 21.1385C11.7373 21.3259 12.3269 21.5071 12.935 21.6821C13.5983 21.8725 14.2801 22.0537 14.9772 22.2257C15.7572 22.4191 16.5587 22.6003 17.3664 22.7692C18.6777 23.0426 19.9952 23.279 21.3218 23.4817C20.723 23.4326 20.1211 23.3773 19.5222 23.3128C18.082 23.1623 16.6939 22.9811 15.3672 22.7692C14.3753 22.6126 13.3895 22.4284 12.4068 22.2257C11.6237 22.0629 10.8436 21.8817 10.0667 21.6821C9.42178 21.5163 8.77994 21.3351 8.14118 21.1385C7.59761 20.9696 7.05405 20.7885 6.5197 20.595C6.05598 20.4261 5.60147 20.2449 5.14697 20.0514C4.75388 19.8825 4.36387 19.7013 3.98307 19.5079C3.63297 19.3297 3.30438 19.1485 2.99728 18.9643C2.71475 18.7954 2.43836 18.6142 2.17119 18.4207C1.93472 18.2518 1.71054 18.0706 1.4925 17.8772C1.3021 17.7083 1.11784 17.524 0.948934 17.3336C0.792314 17.1555 0.651049 16.9712 0.53128 16.79C0.417654 16.6181 0.319382 16.4369 0.239537 16.2465C0.162762 16.0714 0.104413 15.8902 0.0644907 15.7029C0.0214969 15.5401 0 15.3559 0 15.1747V15.1624C0 15.0641 0.00921295 14.9628 0.0184259 14.8645C0.0307098 14.7601 0.0491357 14.6557 0.0737036 14.5544C0.0982715 14.4499 0.128981 14.3486 0.165833 14.2442C0.202685 14.1398 0.24875 14.0354 0.297885 13.934C0.347021 13.8296 0.402299 13.7252 0.463719 13.6238C0.528209 13.5194 0.598842 13.415 0.675616 13.3137C0.752391 13.2093 0.835308 13.1049 0.924366 13.0035C1.0165 12.8991 1.11477 12.7947 1.21918 12.6933C1.44336 12.4692 1.6829 12.2634 1.93472 12.073C2.06984 11.9686 2.21418 11.8642 2.36159 11.7628C2.51514 11.6584 2.67176 11.554 2.83759 11.4527C3.00649 11.3482 3.18461 11.2438 3.36887 11.1425C3.5562 11.0381 3.74967 10.9337 3.95236 10.8323C4.39458 10.6081 4.84294 10.4024 5.30052 10.212C5.55541 10.1045 5.81337 10.0001 6.07133 9.90181C6.35387 9.79433 6.6364 9.68992 6.922 9.59165C7.23217 9.48416 7.54234 9.37975 7.85558 9.28148C8.19646 9.17399 8.53734 9.06958 8.88128 8.97131C9.67667 8.74098 10.4813 8.53523 11.2889 8.35097C11.7557 8.24348 12.2348 8.13907 12.7262 8.0408C13.2605 7.93024 13.8102 7.8289 14.3691 7.73063C14.9956 7.62007 15.6374 7.51566 16.2916 7.42046C17.0624 7.30683 17.8516 7.20242 18.6562 7.11029C19.7034 6.96903 20.7752 6.86768 21.8715 6.7817Z" fill="#E6E7F5"/>
<path opacity="0.6" fill-rule="evenodd" clip-rule="evenodd" d="M36.6026 6.7817H21.8711C24.3524 6.59129 26.8399 6.49609 29.3305 6.49609C31.8027 6.49609 34.241 6.59744 36.6026 6.7817Z" fill="#E6E7F5"/>
<path opacity="0.6" fill-rule="evenodd" clip-rule="evenodd" d="M39.8407 7.09142H18.6602C19.7043 6.97165 20.7761 6.86724 21.8724 6.78125H36.6008C37.7003 6.86724 38.7812 6.97165 39.8407 7.09142Z" fill="#E6E7F5"/>
<path opacity="0.6" fill-rule="evenodd" clip-rule="evenodd" d="M42.2693 7.40197H16.2949C17.0657 7.28834 17.855 7.18393 18.6596 7.0918H39.8402C40.6632 7.18393 41.4739 7.28834 42.2693 7.40197Z" fill="#E6E7F5"/>
<path opacity="0.6" fill-rule="evenodd" clip-rule="evenodd" d="M44.2783 7.71251H36.3459C35.3847 7.67566 34.4266 7.65416 33.4654 7.65416C32.3199 7.65416 31.1898 7.67566 30.075 7.71251H14.373C14.9995 7.60196 15.6414 7.49754 16.2955 7.40234H42.2699C42.9516 7.50062 43.6211 7.60196 44.2783 7.71251Z" fill="#E6E7F5"/>
<path opacity="0.6" fill-rule="evenodd" clip-rule="evenodd" d="M46.0157 8.02501H40.8319C39.364 7.88068 37.8592 7.77319 36.3421 7.71484H44.2745C44.8672 7.81004 45.4476 7.91446 46.0157 8.02501ZM24.9826 8.02501H12.7324C13.2668 7.91446 13.8165 7.81312 14.3754 7.71484H30.0743C28.3238 7.77319 26.6225 7.87761 24.9826 8.02501Z" fill="#E6E7F5"/>
<path opacity="0.6" fill-rule="evenodd" clip-rule="evenodd" d="M47.554 8.33556H43.5095C42.619 8.21579 41.7253 8.11138 40.8316 8.02539H46.0155C46.5375 8.12366 47.0504 8.22808 47.554 8.33556ZM22.0587 8.33556H11.2949C11.7617 8.22808 12.2408 8.12366 12.7321 8.02539H24.9823C23.9842 8.11445 23.0107 8.21579 22.0587 8.33556Z" fill="#E6E7F5"/>
<path opacity="0.6" fill-rule="evenodd" clip-rule="evenodd" d="M48.9336 8.64611H45.6047C44.9199 8.53555 44.2197 8.43114 43.5134 8.33594H47.5578C48.0246 8.43728 48.4822 8.53862 48.9336 8.64611ZM19.8483 8.64611H10.0273C10.4389 8.53862 10.8627 8.43728 11.2926 8.33594H22.0564C21.3224 8.42807 20.5823 8.53248 19.8483 8.64611Z" fill="#E6E7F5"/>
<path opacity="0.6" fill-rule="evenodd" clip-rule="evenodd" d="M50.1884 8.95568H47.3784C46.7888 8.84512 46.1961 8.74071 45.6003 8.64551H48.9293C49.3592 8.74685 49.7769 8.85126 50.1884 8.95568ZM18.0045 8.95568H8.88672C9.26445 8.84819 9.64525 8.74378 10.0261 8.64551H19.844C19.2298 8.74071 18.6156 8.84512 18.0045 8.95568Z" fill="#E6E7F5"/>
<path opacity="0.6" fill-rule="evenodd" clip-rule="evenodd" d="M51.3342 9.26622H48.9296C48.4229 9.15874 47.907 9.05433 47.3787 8.95605H50.1887C50.5787 9.0574 50.9595 9.16181 51.3342 9.26622ZM16.4263 9.26622H7.86133C8.20221 9.15874 8.54309 9.05433 8.88704 8.95605H18.0048C17.4674 9.05433 16.9422 9.15874 16.4263 9.26622Z" fill="#E6E7F5"/>
<path opacity="0.6" fill-rule="evenodd" clip-rule="evenodd" d="M52.3906 9.5797H50.3207C49.8662 9.47222 49.4025 9.3678 48.9296 9.26953H51.3342C51.6935 9.37087 52.0436 9.47222 52.3906 9.5797ZM15.0413 9.5797H6.92773C7.2379 9.47222 7.54807 9.3678 7.86131 9.26953H16.4263C15.9534 9.3678 15.4927 9.47222 15.0413 9.5797Z" fill="#E6E7F5"/>
<path opacity="0.6" fill-rule="evenodd" clip-rule="evenodd" d="M53.3621 9.88927H51.5809C51.1632 9.78179 50.7425 9.67737 50.3218 9.5791H52.3916C52.7233 9.68044 53.0457 9.78486 53.3621 9.88927ZM13.8047 9.88927H6.07812C6.36066 9.78179 6.64319 9.67737 6.92879 9.5791H15.0423C14.6216 9.67737 14.207 9.78179 13.8047 9.88927Z" fill="#E6E7F5"/>
<path opacity="0.6" fill-rule="evenodd" clip-rule="evenodd" d="M54.2573 10.1998H52.7249C52.3502 10.0954 51.9694 9.99099 51.5794 9.88965H53.3606C53.6677 9.99099 53.9655 10.0954 54.2573 10.1998ZM12.6977 10.1998H5.30273C5.55763 10.0923 5.81559 9.98792 6.07355 9.88965H13.8001C13.4255 9.99099 13.057 10.0923 12.6977 10.1998Z" fill="#E6E7F5"/>
<path opacity="0.6" fill-rule="evenodd" clip-rule="evenodd" d="M55.0877 10.5094H53.7825C53.4324 10.4019 53.0793 10.2975 52.7261 10.1992H54.2585C54.5441 10.3006 54.8205 10.405 55.0877 10.5094ZM11.6947 10.5094H4.59766C4.83105 10.4019 5.06752 10.2975 5.30398 10.1992H12.6989C12.355 10.3006 12.0233 10.405 11.6947 10.5094Z" fill="#E6E7F5"/>
<path opacity="0.6" fill-rule="evenodd" clip-rule="evenodd" d="M55.8494 10.8229H54.75C54.4367 10.7185 54.1112 10.614 53.7826 10.5127H55.0878C55.3458 10.611 55.5976 10.7154 55.8494 10.8229ZM10.7889 10.8229H3.95898C4.17088 10.7154 4.38278 10.611 4.59775 10.5127H11.6948C11.3846 10.611 11.0837 10.7154 10.7889 10.8229Z" fill="#E6E7F5"/>
<path opacity="0.6" fill-rule="evenodd" clip-rule="evenodd" d="M56.5552 11.1334H55.6493C55.3514 11.0259 55.0535 10.9215 54.7526 10.8232H55.852C56.0915 10.9246 56.328 11.029 56.5552 11.1334ZM9.95919 11.1334H3.375C3.56233 11.029 3.7558 10.9246 3.95849 10.8232H10.7884C10.5028 10.9246 10.2264 11.0259 9.95919 11.1334Z" fill="#E6E7F5"/>
<path opacity="0.6" fill-rule="evenodd" clip-rule="evenodd" d="M57.2032 11.443H56.4754C56.2021 11.3355 55.9257 11.2311 55.6493 11.1328H56.5553C56.7794 11.2342 56.9944 11.3386 57.2032 11.443ZM9.20376 11.443H2.84375C3.01265 11.3386 3.19077 11.2342 3.37503 11.1328H9.95922C9.69818 11.2342 9.44636 11.3386 9.20376 11.443Z" fill="#E6E7F5"/>
<path opacity="0.6" fill-rule="evenodd" clip-rule="evenodd" d="M57.7954 11.7535H57.2334C56.9816 11.646 56.7297 11.5447 56.4748 11.4434H57.2057C57.4084 11.5478 57.605 11.6491 57.7954 11.7535ZM8.51837 11.7535H2.36719C2.52074 11.6491 2.67736 11.5447 2.84319 11.4434H9.2032C8.96673 11.5447 8.73948 11.6491 8.51837 11.7535Z" fill="#E6E7F5"/>
<path opacity="0.6" fill-rule="evenodd" clip-rule="evenodd" d="M58.337 12.067H57.9285C57.6982 11.9595 57.4648 11.8551 57.2314 11.7568H57.7934C57.9838 11.8582 58.165 11.9626 58.337 12.067ZM7.89297 12.067H1.94141C2.07653 11.9626 2.22087 11.8582 2.36827 11.7568H8.51945C8.30756 11.8551 8.09873 11.9595 7.89297 12.067Z" fill="#E6E7F5"/>
<path opacity="0.6" fill-rule="evenodd" clip-rule="evenodd" d="M58.8243 12.3766H58.5633C58.3545 12.2691 58.1426 12.1647 57.9276 12.0664H58.3361C58.508 12.1677 58.6708 12.2722 58.8243 12.3766ZM7.32395 12.3766H1.55664C1.67641 12.2722 1.80539 12.1677 1.94051 12.0664H7.89208C7.69554 12.1677 7.50514 12.2691 7.32395 12.3766Z" fill="#E6E7F5"/>
<path opacity="0.6" fill-rule="evenodd" clip-rule="evenodd" d="M59.2673 12.6871H59.1445C58.9541 12.5796 58.7606 12.4752 58.5671 12.377H58.8282C58.9817 12.4783 59.1291 12.5827 59.2673 12.6871ZM6.81185 12.6871H1.22266C1.32707 12.5827 1.43763 12.4783 1.55739 12.377H7.3247C7.14658 12.4783 6.97768 12.5827 6.81185 12.6871Z" fill="#E6E7F5"/>
<path opacity="0.6" fill-rule="evenodd" clip-rule="evenodd" d="M6.35109 12.9977H0.927734C1.01986 12.8933 1.11814 12.7888 1.22255 12.6875H6.81174C6.65205 12.7888 6.4985 12.8933 6.35109 12.9977ZM59.1413 12.6875H59.2641C59.3993 12.7888 59.5252 12.8871 59.6449 12.9885C59.4822 12.884 59.3133 12.7827 59.1413 12.6875Z" fill="#E6E7F5"/>
<path opacity="0.6" fill-rule="evenodd" clip-rule="evenodd" d="M5.93219 13.3072H0.677734C0.754509 13.2028 0.837426 13.0984 0.926484 12.9971H6.34677C6.20243 13.0984 6.06424 13.2028 5.93219 13.3072Z" fill="#E6E7F5"/>
<path opacity="0.6" fill-rule="evenodd" clip-rule="evenodd" d="M5.56463 13.6207H0.466797C0.531288 13.5163 0.60192 13.4119 0.678695 13.3105H5.93315C5.80417 13.4119 5.68133 13.5163 5.56463 13.6207Z" fill="#E6E7F5"/>
<path opacity="0.6" fill-rule="evenodd" clip-rule="evenodd" d="M5.24311 13.9313H0.298828C0.347964 13.8268 0.403242 13.7224 0.464661 13.6211H5.56557C5.45194 13.7224 5.34445 13.8268 5.24311 13.9313Z" fill="#E6E7F5"/>
<path opacity="0.6" fill-rule="evenodd" clip-rule="evenodd" d="M4.96289 14.2408H0.166016C0.202867 14.1364 0.248932 14.032 0.298068 13.9307H5.24235C5.14101 14.032 5.04888 14.1364 4.96289 14.2408Z" fill="#E6E7F5"/>
<path opacity="0.6" fill-rule="evenodd" clip-rule="evenodd" d="M4.72369 14.5514H0.0742188C0.0987866 14.447 0.129496 14.3456 0.166348 14.2412H4.96323C4.87724 14.3456 4.79739 14.447 4.72369 14.5514Z" fill="#E6E7F5"/>
<path opacity="0.6" fill-rule="evenodd" clip-rule="evenodd" d="M4.52662 14.8619H0.0214844C0.0337683 14.7575 0.0521942 14.6531 0.0767621 14.5518H4.72623C4.64946 14.6562 4.58804 14.7575 4.52662 14.8619Z" fill="#E6E7F5"/>
<path opacity="0.6" fill-rule="evenodd" clip-rule="evenodd" d="M4.37085 15.1715H0.00390625V15.1592C0.00390625 15.0609 0.0131192 14.9596 0.0223322 14.8613H4.53054C4.46912 14.9627 4.41691 15.0671 4.37085 15.1715ZM4.18966 15.7181H0.0622549C0.0223322 15.54 0.00390625 15.3558 0.00390625 15.1746H4.37085C4.291 15.3496 4.22958 15.5308 4.18966 15.7181Z" fill="#E6E7F5"/>
<path opacity="0.6" fill-rule="evenodd" clip-rule="evenodd" d="M4.12039 16.2613H0.235593C0.158818 16.0863 0.10047 15.9051 0.0605469 15.7178H4.18795C4.14496 15.8959 4.12346 16.0771 4.12039 16.2613Z" fill="#E6E7F5"/>
<path opacity="0.6" fill-rule="evenodd" clip-rule="evenodd" d="M4.1979 16.8053H0.528072C0.414445 16.6333 0.316174 16.4521 0.236328 16.2617H4.12112C4.12112 16.274 4.11805 16.2863 4.11805 16.2986C4.11805 16.4705 4.14569 16.6364 4.1979 16.8053Z" fill="#E6E7F5"/>
<path opacity="0.6" fill-rule="evenodd" clip-rule="evenodd" d="M4.44704 17.3492H0.943044C0.786424 17.1711 0.645159 16.9869 0.525391 16.8057H4.19522C4.25357 16.9899 4.33648 17.1711 4.44704 17.3492Z" fill="#E6E7F5"/>
<path opacity="0.6" fill-rule="evenodd" clip-rule="evenodd" d="M4.87115 17.8922H1.48692C1.29652 17.7233 1.11226 17.539 0.943359 17.3486H4.44735C4.57019 17.5452 4.71146 17.7264 4.87115 17.8922Z" fill="#E6E7F5"/>
<path opacity="0.6" fill-rule="evenodd" clip-rule="evenodd" d="M5.46632 18.4361H2.16502C1.92855 18.2672 1.70437 18.0861 1.48633 17.8926H4.87055C5.04253 18.0768 5.24214 18.258 5.46632 18.4361Z" fill="#E6E7F5"/>
<path opacity="0.6" fill-rule="evenodd" clip-rule="evenodd" d="M6.23814 18.983H2.99211C2.70958 18.8141 2.43319 18.6329 2.16602 18.4395H5.46732C5.69765 18.6206 5.95561 18.8049 6.23814 18.983Z" fill="#E6E7F5"/>
<path opacity="0.6" fill-rule="evenodd" clip-rule="evenodd" d="M7.18296 19.526H3.97993C3.62983 19.3479 3.30124 19.1667 2.99414 18.9824H6.2371C6.52577 19.1667 6.84208 19.3479 7.18296 19.526Z" fill="#E6E7F5"/>
<path opacity="0.6" fill-rule="evenodd" clip-rule="evenodd" d="M8.31056 20.0699H5.14437C4.75129 19.901 4.36127 19.7198 3.98047 19.5264H7.1835C7.5336 19.7106 7.91133 19.8918 8.31056 20.0699Z" fill="#E6E7F5"/>
<path opacity="0.6" fill-rule="evenodd" clip-rule="evenodd" d="M9.63124 20.6139H6.51726C6.05354 20.445 5.59904 20.2638 5.14453 20.0703H8.31072C8.7468 20.2638 9.18595 20.445 9.63124 20.6139Z" fill="#E6E7F5"/>
<path opacity="0.6" fill-rule="evenodd" clip-rule="evenodd" d="M11.164 21.1568H8.13906C7.59549 20.9879 7.05193 20.8068 6.51758 20.6133H9.63463C10.1229 20.8006 10.6327 20.9818 11.164 21.1568Z" fill="#E6E7F5"/>
<path opacity="0.6" fill-rule="evenodd" clip-rule="evenodd" d="M12.9286 21.7008H10.0603C9.41537 21.535 8.77353 21.3538 8.13477 21.1572H11.1628C11.7309 21.3446 12.3205 21.5288 12.9286 21.7008Z" fill="#E6E7F5"/>
<path opacity="0.6" fill-rule="evenodd" clip-rule="evenodd" d="M14.971 22.2438H12.4006C11.6175 22.081 10.8375 21.8998 10.0605 21.7002H12.9288C13.5922 21.8906 14.2739 22.0718 14.971 22.2438Z" fill="#E6E7F5"/>
<path opacity="0.6" fill-rule="evenodd" clip-rule="evenodd" d="M17.36 22.7877H15.3608C14.3689 22.6311 13.3831 22.4468 12.4004 22.2441H14.9708C15.7539 22.4376 16.5524 22.6188 17.36 22.7877Z" fill="#E6E7F5"/>
<path opacity="0.6" fill-rule="evenodd" clip-rule="evenodd" d="M20.2626 23.3346H19.5164C18.0761 23.1841 16.688 23.0029 15.3613 22.791H17.3605C18.3218 22.9906 19.2922 23.1718 20.2626 23.3346Z" fill="#E6E7F5"/>
<path opacity="0.6" fill-rule="evenodd" clip-rule="evenodd" d="M19.5156 23.334H20.2619C20.612 23.3923 20.9651 23.4476 21.3122 23.5029C20.7133 23.4507 20.1145 23.3954 19.5156 23.334Z" fill="#E6E7F5"/>
<path opacity="0.6" fill-rule="evenodd" clip-rule="evenodd" d="M21.2324 23.4883H21.2662L21.3153 23.5006C21.2877 23.4975 21.2601 23.4944 21.2324 23.4883Z" fill="#E6E7F5"/>
<path opacity="0.6" fill-rule="evenodd" clip-rule="evenodd" d="M20.3574 23.3496H20.7259C20.9041 23.3957 21.0852 23.4417 21.2634 23.4909H21.2296C20.9409 23.4448 20.6492 23.3987 20.3574 23.3496Z" fill="#E6E7F5"/>
<path opacity="0.6" fill-rule="evenodd" clip-rule="evenodd" d="M19.543 23.208H20.2032C20.3783 23.2541 20.5533 23.3032 20.7284 23.3493H20.3598C20.0865 23.3032 19.8132 23.2571 19.543 23.208Z" fill="#E6E7F5"/>
<path opacity="0.6" fill-rule="evenodd" clip-rule="evenodd" d="M18.7793 23.0703H19.6944L20.2042 23.2116H19.544C19.2891 23.1655 19.0311 23.1164 18.7793 23.0703Z" fill="#E6E7F5"/>
<path opacity="0.6" fill-rule="evenodd" clip-rule="evenodd" d="M18.0547 22.9287H19.1971L19.6946 23.07H18.7794C18.5368 23.0239 18.2942 22.9778 18.0547 22.9287Z" fill="#E6E7F5"/>
<path opacity="0.6" fill-rule="evenodd" clip-rule="evenodd" d="M17.3672 22.791H18.7123C18.872 22.8371 19.0347 22.8831 19.1975 22.9323H18.0551C17.8248 22.8831 17.5944 22.8371 17.3672 22.791Z" fill="#E6E7F5"/>
<path opacity="0.6" fill-rule="evenodd" clip-rule="evenodd" d="M16.7129 22.6494H18.2422C18.3989 22.6955 18.5555 22.7415 18.7152 22.7907H17.3701C17.149 22.7446 16.9309 22.6985 16.7129 22.6494Z" fill="#E6E7F5"/>
<path opacity="0.6" fill-rule="evenodd" clip-rule="evenodd" d="M16.0859 22.5078H17.7811C17.9347 22.5539 18.0851 22.603 18.2387 22.6491H16.7093C16.5036 22.603 16.2948 22.5569 16.0859 22.5078Z" fill="#E6E7F5"/>
<path opacity="0.6" fill-rule="evenodd" clip-rule="evenodd" d="M15.4863 22.3701H17.3351C17.4825 22.4162 17.6329 22.4622 17.7804 22.5114H16.0852C15.8856 22.4653 15.6859 22.4162 15.4863 22.3701Z" fill="#E6E7F5"/>
<path opacity="0.6" fill-rule="evenodd" clip-rule="evenodd" d="M14.9062 22.2285H16.8993C17.0437 22.2746 17.188 22.3237 17.3354 22.3698H15.4867C15.2932 22.3237 15.0997 22.2777 14.9062 22.2285Z" fill="#E6E7F5"/>
<path opacity="0.6" fill-rule="evenodd" clip-rule="evenodd" d="M14.3594 22.0908H16.4845C16.6227 22.1369 16.7609 22.1829 16.9022 22.229H14.9091C14.7248 22.1829 14.5406 22.1369 14.3594 22.0908Z" fill="#E6E7F5"/>
<path opacity="0.6" fill-rule="evenodd" clip-rule="evenodd" d="M13.8262 21.9492H16.0741C16.2093 21.9953 16.3474 22.0444 16.4856 22.0905H14.3605C14.1793 22.0444 14.0012 21.9984 13.8262 21.9492Z" fill="#E6E7F5"/>
<path opacity="0.6" fill-rule="evenodd" clip-rule="evenodd" d="M13.3125 21.8115H15.6772L16.0733 21.9528H13.8254C13.6534 21.9037 13.4814 21.8576 13.3125 21.8115Z" fill="#E6E7F5"/>
<path opacity="0.6" fill-rule="evenodd" clip-rule="evenodd" d="M12.8223 21.6699H15.2944C15.4203 21.716 15.5493 21.7621 15.6783 21.8112H13.3136C13.1478 21.7621 12.985 21.716 12.8223 21.6699Z" fill="#E6E7F5"/>
<path opacity="0.6" fill-rule="evenodd" clip-rule="evenodd" d="M12.3477 21.5283H14.9242C15.0471 21.5744 15.1699 21.6205 15.2958 21.6696H12.8237C12.6609 21.6235 12.5012 21.5775 12.3477 21.5283Z" fill="#E6E7F5"/>
<path opacity="0.6" fill-rule="evenodd" clip-rule="evenodd" d="M11.8887 21.3906H14.5635C14.6833 21.4367 14.8 21.4828 14.9228 21.5319H12.3462C12.1927 21.4828 12.0422 21.4367 11.8887 21.3906Z" fill="#E6E7F5"/>
<path opacity="0.6" fill-rule="evenodd" clip-rule="evenodd" d="M11.4492 21.249H14.2192C14.3329 21.2951 14.4496 21.3412 14.5663 21.3903H11.8914C11.741 21.3442 11.5966 21.2982 11.4492 21.249Z" fill="#E6E7F5"/>
<path opacity="0.6" fill-rule="evenodd" clip-rule="evenodd" d="M11.0254 21.1113H13.8814C13.992 21.1574 14.1025 21.2035 14.2161 21.2526H11.4461C11.3049 21.2035 11.1636 21.1574 11.0254 21.1113Z" fill="#E6E7F5"/>
<path opacity="0.6" fill-rule="evenodd" clip-rule="evenodd" d="M10.6133 20.9697H13.5584C13.6658 21.0158 13.7733 21.0619 13.8808 21.111H11.0217C10.8866 21.0649 10.7484 21.0189 10.6133 20.9697Z" fill="#E6E7F5"/>
<path opacity="0.6" fill-rule="evenodd" clip-rule="evenodd" d="M10.2168 20.8311H13.2479C13.3492 20.8771 13.4536 20.9232 13.558 20.9723H10.613C10.4778 20.9232 10.3458 20.8771 10.2168 20.8311Z" fill="#E6E7F5"/>
<path opacity="0.6" fill-rule="evenodd" clip-rule="evenodd" d="M9.83594 20.6904H12.9468C13.0451 20.7365 13.1465 20.7826 13.2447 20.8317H10.2137C10.0908 20.7856 9.96185 20.7396 9.83594 20.6904Z" fill="#E6E7F5"/>
<path opacity="0.6" fill-rule="evenodd" clip-rule="evenodd" d="M9.4707 20.5518H12.6584C12.7536 20.5978 12.8488 20.6439 12.9471 20.693H9.83615C9.71331 20.6439 9.59047 20.5978 9.4707 20.5518Z" fill="#E6E7F5"/>
<path opacity="0.6" fill-rule="evenodd" clip-rule="evenodd" d="M9.11719 20.4111H12.3816C12.4738 20.4572 12.5659 20.5033 12.658 20.5524H9.47035C9.35058 20.5033 9.23388 20.4572 9.11719 20.4111Z" fill="#E6E7F5"/>
<path opacity="0.6" fill-rule="evenodd" clip-rule="evenodd" d="M8.77734 20.2695H12.1155C12.2015 20.3156 12.2905 20.3617 12.3796 20.4108H9.11822C9.0046 20.3647 8.89097 20.3187 8.77734 20.2695Z" fill="#E6E7F5"/>
<path opacity="0.6" fill-rule="evenodd" clip-rule="evenodd" d="M8.45117 20.1309H11.863C11.946 20.1769 12.0319 20.223 12.1179 20.2721H8.7767C8.66921 20.2261 8.55866 20.1769 8.45117 20.1309Z" fill="#E6E7F5"/>
<path opacity="0.6" fill-rule="evenodd" clip-rule="evenodd" d="M8.13477 19.9902H11.6173C11.6971 20.0363 11.78 20.0824 11.8599 20.1315H8.45108C8.34359 20.0854 8.23918 20.0394 8.13477 19.9902Z" fill="#E6E7F5"/>
<path opacity="0.6" fill-rule="evenodd" clip-rule="evenodd" d="M7.83405 19.8522H11.3841C11.4609 19.8983 11.5377 19.9443 11.6144 19.9935H8.13501C8.03673 19.9474 7.93539 19.8983 7.83405 19.8522ZM6.2832 19.0107H10.2202C10.5549 19.2994 10.948 19.5789 11.3872 19.8522H7.83405C7.30277 19.6034 6.78377 19.3209 6.2832 19.0107Z" fill="#E6E7F5"/>
<path opacity="0.6" fill-rule="evenodd" clip-rule="evenodd" d="M5.15234 18.1719H9.43022C9.63598 18.4605 9.90008 18.74 10.2164 19.0103H6.28247C5.84639 18.7369 5.46558 18.4575 5.15234 18.1719Z" fill="#E6E7F5"/>
<path opacity="0.6" fill-rule="evenodd" clip-rule="evenodd" d="M4.4375 17.334H9.01327C9.09618 17.6196 9.23745 17.9021 9.43399 18.1724H5.15304C4.85208 17.896 4.60948 17.6165 4.4375 17.334Z" fill="#E6E7F5"/>
<path opacity="0.6" fill-rule="evenodd" clip-rule="evenodd" d="M4.13086 16.4951H8.93695C8.90317 16.7776 8.92774 17.0632 9.01065 17.3335H4.43489C4.26905 17.0571 4.16464 16.7776 4.13086 16.4951Z" fill="#E6E7F5"/>
<path opacity="0.6" fill-rule="evenodd" clip-rule="evenodd" d="M4.20206 15.6533H9.17398C9.05114 15.9205 8.97129 16.203 8.94059 16.4948H4.13142C4.12221 16.4303 4.11914 16.3658 4.11914 16.3013C4.11914 16.0802 4.14678 15.8652 4.20206 15.6533Z" fill="#E6E7F5"/>
<path opacity="0.6" fill-rule="evenodd" clip-rule="evenodd" d="M4.55433 14.8154H9.70745C9.49248 15.0703 9.31436 15.3529 9.17309 15.6538H4.20117C4.27795 15.359 4.39771 15.0765 4.55433 14.8154Z" fill="#E6E7F5"/>
<path opacity="0.6" fill-rule="evenodd" clip-rule="evenodd" d="M5.19959 13.9736H10.5646C10.2514 14.2255 9.96269 14.5049 9.70473 14.812H4.55469C4.72359 14.5295 4.93856 14.25 5.19959 13.9736Z" fill="#E6E7F5"/>
<path opacity="0.6" fill-rule="evenodd" clip-rule="evenodd" d="M6.15737 13.1357H11.7865C11.3596 13.3845 10.9512 13.667 10.5673 13.9772H5.19922C5.49403 13.667 5.81649 13.3876 6.15737 13.1357Z" fill="#E6E7F5"/>
<path opacity="0.6" fill-rule="evenodd" clip-rule="evenodd" d="M7.46951 12.2939H13.4303C12.8683 12.5427 12.3217 12.8222 11.7904 13.1323H6.1582C6.57586 12.8283 7.01501 12.5458 7.46951 12.2939ZM58.107 12.2939H58.4079C58.8348 12.5028 59.2494 12.7362 59.6517 12.988C59.145 12.7331 58.6321 12.4997 58.107 12.2939Z" fill="#E6E7F5"/>
<path opacity="0.6" fill-rule="evenodd" clip-rule="evenodd" d="M9.17622 11.4561H15.5915C14.8575 11.7017 14.1359 11.9812 13.4265 12.2944H7.46875C8.02153 11.9873 8.59273 11.7079 9.17622 11.4561ZM55.6556 11.4561H56.5062C57.1511 11.7079 57.7868 11.9873 58.4072 12.2944H58.1062C57.3016 11.9812 56.4847 11.7017 55.6556 11.4561Z" fill="#E6E7F5"/>
<path opacity="0.6" fill-rule="evenodd" clip-rule="evenodd" d="M11.3777 10.6172H18.4778C17.5043 10.8567 16.5431 11.1362 15.5911 11.4556H9.17578C9.89746 11.1454 10.6314 10.8659 11.3777 10.6172ZM52.3784 10.6172H54.1227C54.9273 10.869 55.7227 11.1485 56.5058 11.4556H55.6551C54.5741 11.1362 53.4809 10.8567 52.3784 10.6172Z" fill="#E6E7F5"/>
<path opacity="0.6" fill-rule="evenodd" clip-rule="evenodd" d="M14.238 9.77637H22.5849C21.203 10.0005 19.8333 10.2831 18.4759 10.6178H11.3789C12.3217 10.3015 13.2737 10.022 14.238 9.77637ZM47.7762 9.77637H51.1359C52.1401 10.0251 53.1351 10.3076 54.1209 10.6178H52.3765C50.8564 10.2862 49.3209 10.0036 47.7762 9.77637Z" fill="#E6E7F5"/>
<path opacity="0.6" fill-rule="evenodd" clip-rule="evenodd" d="M18.1088 8.9375H30.6047C27.7487 9.08184 25.0493 9.37051 22.5833 9.77588H14.2363C15.5169 9.45035 16.8098 9.17089 18.1088 8.9375ZM39.1911 8.9375H47.274C48.6252 9.18932 49.9181 9.47185 51.1342 9.77588H47.7745C45.0629 9.37358 42.1485 9.08491 39.1911 8.9375Z" fill="#E6E7F5"/>
<path opacity="0.6" fill-rule="evenodd" clip-rule="evenodd" d="M24.1899 8.09959H41.5502C43.5371 8.31456 45.4565 8.60016 47.2714 8.93797H39.1886C37.7514 8.86734 36.3111 8.83048 34.8708 8.83048C33.4182 8.83048 31.9933 8.86734 30.6021 8.93797H18.1094C20.0072 8.59402 22.0433 8.31149 24.1899 8.09959ZM41.5502 8.09959H24.1899C27.1074 7.81092 30.2244 7.6543 33.4612 7.6543C36.2098 7.6543 38.9368 7.81706 41.5502 8.09959Z" fill="#E6E7F5"/>
<path fill-rule="evenodd" clip-rule="evenodd" d="M12.2687 13.8047H15.0234L15.2015 17.1858H15.2138L15.9263 13.8047H17.5047L16.5005 18.5985H13.7919L13.5862 15.1221H13.5739L12.8461 18.5985H11.2676L12.2687 13.8047ZM22.7592 15.2173H21.1746L20.4652 18.5985H18.6257L19.332 15.2173H17.7504L18.0483 13.8047H23.054L22.7592 15.2173ZM28.2532 15.2173H26.6686L25.9622 18.5985H24.1227L24.829 15.2173H23.2444L23.5423 13.8047H28.5511L28.2532 15.2173ZM34.9633 16.8572C34.9633 17.8983 34.2692 18.663 33.262 18.663C32.4482 18.663 31.9599 18.144 31.9599 17.3025C31.9599 16.3075 32.6908 15.549 33.652 15.549C34.4289 15.5521 34.9633 16.0342 34.9633 16.8572ZM34.1894 16.8603C34.1894 16.4734 34.0604 16.1478 33.6182 16.1478C33.0316 16.1478 32.7399 16.8235 32.7399 17.364C32.7399 17.757 32.8965 18.0641 33.3234 18.0641C33.8977 18.0611 34.1894 17.3701 34.1894 16.8603ZM35.5406 15.9482C35.5621 15.8315 35.5867 15.7118 35.6021 15.6166H36.2961L36.2285 16.0158H36.2408C36.4404 15.7118 36.769 15.5521 37.1191 15.5521C37.46 15.5521 37.807 15.7578 37.85 16.1171H37.8592C38.0496 15.7271 38.4642 15.5521 38.8665 15.5521C39.2934 15.5521 39.6558 15.9145 39.6558 16.3628C39.6558 16.63 39.5913 16.9279 39.5268 17.1705L39.2258 18.5924H38.4857L38.7805 17.1428C38.8204 16.9617 38.8757 16.6822 38.8757 16.5041C38.8757 16.286 38.716 16.1448 38.5287 16.1448C38.0097 16.1448 37.8838 16.7713 37.7886 17.1736L37.4968 18.5954H36.7537L37.0485 17.1459C37.0884 16.9647 37.1468 16.6853 37.1468 16.5072C37.1468 16.2891 36.984 16.1478 36.7967 16.1478C36.293 16.1478 36.1518 16.7805 36.0566 17.1766L35.7617 18.5924H35.0186L35.5406 15.9482ZM40.2607 15.9482C40.2792 15.8315 40.3037 15.7118 40.3191 15.6166H41.0131L40.9486 16.0158H40.9609C41.1605 15.7118 41.4891 15.5521 41.8362 15.5521C42.1801 15.5521 42.5271 15.7578 42.567 16.1171H42.5763C42.7667 15.7271 43.1812 15.5521 43.5805 15.5521C44.0104 15.5521 44.3759 15.9145 44.3759 16.3628C44.3759 16.63 44.3114 16.9279 44.2499 17.1705L43.9459 18.5954H43.2027L43.5037 17.1459C43.5405 16.9647 43.5989 16.6853 43.5989 16.5072C43.5989 16.2891 43.4392 16.1478 43.2488 16.1478C42.7298 16.1478 42.6039 16.7743 42.5087 17.1766L42.2169 18.5924H41.4738L41.7747 17.1428C41.8147 16.9617 41.8699 16.6822 41.8699 16.5041C41.8699 16.286 41.7072 16.1448 41.5198 16.1448C41.0162 16.1448 40.878 16.7774 40.7828 17.1736L40.488 18.5893H39.7448L40.2607 15.9482ZM47.1397 18.1655C47.106 18.3497 47.0783 18.5064 47.0691 18.5954H46.3413L46.3935 18.3098H46.3812C46.1785 18.5064 45.8929 18.663 45.5735 18.663C45.0115 18.663 44.64 18.3006 44.64 17.711C44.64 17.4837 44.6952 17.2503 44.7321 17.0599L45.033 15.6135H45.7762L45.4998 17.02C45.4599 17.2258 45.4169 17.4223 45.4169 17.6434C45.4169 17.8922 45.5827 18.0611 45.8223 18.0611C46.3413 18.0611 46.5286 17.5574 46.6207 17.1121L46.9248 15.6135H47.6741L47.1397 18.1655ZM48.1501 16.0434C48.1869 15.8653 48.2115 15.7087 48.2238 15.6135H48.9516L48.9025 15.9052H48.9117C49.1175 15.7087 49.4031 15.5521 49.7224 15.5521C50.2844 15.5521 50.656 15.9145 50.656 16.501C50.656 16.7283 50.5977 16.9647 50.5577 17.149L50.2568 18.5954H49.5136L49.79 17.192C49.8299 16.9924 49.8729 16.7897 49.8729 16.5686C49.8729 16.3168 49.7009 16.1478 49.4645 16.1478C48.9485 16.1478 48.7612 16.6515 48.666 17.0968L48.3589 18.5954H47.6188L48.1501 16.0434ZM51.4852 15.6166H52.2314L51.6234 18.5954H50.8771L51.4852 15.6166ZM51.7585 14.3329H52.5047L52.3481 15.073H51.6049L51.7585 14.3329ZM54.6667 16.2983C54.5255 16.2001 54.332 16.1478 54.1232 16.1478C53.5274 16.1478 53.1957 16.7252 53.1957 17.2872C53.1957 17.6772 53.3186 18.0641 53.8283 18.0641C54.0126 18.0641 54.2368 18.0119 54.4333 17.9167L54.3504 18.5309C54.1232 18.6476 53.8775 18.6661 53.6318 18.6661C52.8948 18.6661 52.4157 18.1501 52.4157 17.3824C52.4157 16.3444 53.076 15.5551 54.1047 15.5551C54.3811 15.5551 54.6483 15.6012 54.8479 15.6688L54.6667 16.2983ZM56.6137 18.1378H56.6045C56.3465 18.4757 56.0917 18.663 55.6832 18.663C55.1673 18.663 54.7988 18.362 54.7988 17.8123C54.7988 16.8296 55.8552 16.7528 56.5523 16.7528H56.8133C56.8379 16.673 56.8379 16.587 56.8379 16.4979C56.8379 16.2001 56.5247 16.1141 56.2667 16.1141C55.9381 16.1141 55.6218 16.2001 55.327 16.3413L55.4314 15.721C55.7508 15.6043 56.0702 15.5459 56.4018 15.5459C56.9761 15.5459 57.5166 15.7609 57.5166 16.458C57.5166 16.8603 57.2341 18.0273 57.1634 18.5893H56.5369L56.6137 18.1378ZM55.889 18.0979C56.4417 18.0979 56.6137 17.7018 56.7304 17.2196H56.4694C56.1101 17.2196 55.5051 17.281 55.5051 17.7847C55.5082 17.9966 55.6986 18.0979 55.889 18.0979ZM57.9619 15.6166H58.4993L58.6283 15.0054L59.4298 14.7321L59.2456 15.6166H59.912L59.7953 16.1847H59.1319L58.8586 17.4868C58.8371 17.582 58.8279 17.6772 58.8248 17.7755C58.8248 17.9536 58.9415 18.0641 59.1043 18.0641C59.2394 18.0641 59.3745 18.0365 59.4667 17.9966L59.3377 18.5954C59.2118 18.6261 59.0674 18.6661 58.9385 18.6661C58.4317 18.6661 58.0786 18.4603 58.0786 17.886C58.0786 17.6588 58.1216 17.4284 58.1707 17.192L58.3826 16.1878H57.8421L57.9619 15.6166ZM60.5077 15.6166H61.2509L60.6429 18.5954H59.8966L60.5077 15.6166ZM60.781 14.3329H61.5273L61.3707 15.073H60.6244L60.781 14.3329ZM64.3864 16.8572C64.3864 17.8983 63.6954 18.663 62.682 18.663C61.8712 18.663 61.383 18.144 61.383 17.3025C61.383 16.3075 62.1169 15.549 63.0751 15.549C63.849 15.5521 64.3864 16.0342 64.3864 16.8572ZM63.6094 16.8603C63.6094 16.4734 63.4804 16.1478 63.0444 16.1478C62.4547 16.1478 62.1599 16.8235 62.1599 17.364C62.1599 17.757 62.3135 18.0641 62.7403 18.0641C63.3208 18.0611 63.6094 17.3701 63.6094 16.8603ZM65.019 16.0434C65.0528 15.8653 65.0804 15.7087 65.0927 15.6135H65.8205L65.7745 15.9052H65.7837C65.9894 15.7087 66.275 15.5521 66.5944 15.5521C67.1564 15.5521 67.5249 15.9145 67.5249 16.501C67.5249 16.7283 67.4697 16.9647 67.4328 17.149L67.1318 18.5954H66.3887L66.6681 17.192C66.705 16.9924 66.751 16.7897 66.751 16.5686C66.751 16.3168 66.5852 16.1478 66.3457 16.1478C65.8267 16.1478 65.6424 16.6515 65.5441 17.0968L65.2401 18.5954H64.4908L65.019 16.0434ZM69.8435 16.2523C69.647 16.1786 69.4412 16.1141 69.2293 16.1141C69.0051 16.1141 68.7288 16.1786 68.7288 16.415C68.7288 16.7897 69.6961 16.9279 69.6961 17.6588C69.6961 18.4327 69.0451 18.663 68.4063 18.663C68.1084 18.663 67.8075 18.6169 67.5341 18.4849L67.6938 17.8676C67.9057 17.9874 68.1146 18.0979 68.4032 18.0979C68.655 18.0979 68.913 18.0089 68.913 17.7663C68.913 17.2872 67.9457 17.2442 67.9457 16.4949C67.9457 15.7978 68.5967 15.5521 69.1863 15.5521C69.4596 15.5521 69.736 15.5981 69.9971 15.6688L69.8435 16.2523ZM31.966 15.3586C31.794 15.2327 31.5023 15.1252 31.0816 15.1252C30.713 15.1252 29.9084 15.3678 29.6321 16.3321C29.2881 17.5544 29.9791 18.0273 30.6608 18.0273C30.9894 18.0273 31.2597 17.9198 31.4839 17.7755L31.3487 18.5555C31.0601 18.6353 30.7622 18.6599 30.4704 18.6599C29.2973 18.6599 28.4774 17.7601 28.8275 16.329C29.1376 15.0454 30.0896 14.4803 31.0447 14.4803C31.4347 14.4803 31.8462 14.5356 32.181 14.6799L31.966 15.3586Z" fill="#E6E7F5"/>
</g>
</g>
</g>
<defs>
<clipPath id="clip0_10196_746">
<rect width="70" height="30" fill="white"/>
</clipPath>
<clipPath id="clip1_10196_746">
<rect width="70" height="30" fill="white"/>
</clipPath>
<clipPath id="clip2_10196_746">
<rect width="70" height="17.0071" fill="white" transform="translate(0 6.49609)"/>
</clipPath>
</defs>
</svg>
