<svg width="70" height="30" viewBox="0 0 70 30" fill="none" xmlns="http://www.w3.org/2000/svg">
<g clip-path="url(#clip0_10196_1013)">
<g clip-path="url(#clip1_10196_1013)">
<g clip-path="url(#clip2_10196_1013)">
<path d="M1.65259 12.1781C2.46739 9.19893 5.86099 8.49053 8.98579 8.40373C11.5534 8.33093 14.4178 8.67253 14.4178 8.67253L13.071 13.5921C13.071 13.5921 10.2066 13.2533 7.63899 13.3233C4.51699 13.4101 1.12339 14.1185 0.308594 17.0977L1.65259 12.1781Z" fill="#E6E7F5"/>
<path d="M30.3468 9.74968L27.166 21.3753H29.8372L31.016 17.0689H33.3372C35.8992 17.0689 37.5988 15.6549 38.058 13.6893C38.4864 11.8553 37.4168 9.74688 34.544 9.74688L30.3468 9.74968ZM32.6456 11.1161H33.6732C34.7484 11.1161 35.6024 11.9785 35.3952 13.4765C35.2048 14.8653 33.6956 15.6997 32.3796 15.6997H31.3912L32.6456 11.1161ZM57.9884 13.3673C55.7428 13.3673 54.1216 15.2993 53.7324 17.2313C53.36 19.0877 54.424 21.5545 57.3528 21.5545C59.436 21.5545 60.4832 20.6361 60.4832 20.6361L60.0044 19.4517C60.0044 19.4517 59.128 20.1657 57.9072 20.1657C56.6864 20.1657 55.922 19.2025 56.09 17.6681H61.074C61.4296 16.7665 61.6256 13.3673 57.9884 13.3673ZM57.9772 14.6525C59.3716 14.6525 59.0524 16.4921 59.0524 16.4921L56.2608 16.4865C56.2608 16.4865 56.7256 14.6525 57.9772 14.6525ZM39.1304 13.0761L34.7372 29.1369H37.2992L41.194 14.8961H43.8568L42.0844 21.3753H44.6464L46.7716 13.6025H41.5468C41.8156 12.6225 42.1012 11.5809 42.3336 10.7297C42.762 9.15888 43.4648 8.01648 44.4868 8.05568C45.6152 8.09768 45.0412 8.83968 44.8872 9.40528C44.6744 10.1865 45.2512 10.9733 46.262 10.9733C48.4572 10.9733 49.0004 6.93848 44.8872 6.93848C40.774 6.93848 39.7212 10.9201 39.1304 13.0761Z" fill="#E6E7F5"/>
<path d="M47.743 13.6057L47.3902 14.8965H50.6382L45.531 21.3757H52.7438L53.0966 20.0849H49.4314L54.5386 13.6057H47.743ZM67.9198 13.4741C66.2482 13.4741 65.2626 15.1989 65.2626 15.1989L65.6994 13.6029H63.1374L61.0122 21.3729H63.5742C63.5742 21.3729 64.1902 19.1021 64.5066 17.9681C64.991 16.1957 65.9794 15.0869 66.4554 15.0421C67.0042 14.9889 66.951 16.3133 68.0234 16.3133C69.6502 16.3161 70.0002 13.4741 67.9198 13.4741ZM21.1514 21.3953C11.959 20.8213 1.27704 16.0781 1.65224 12.1777L0.383837 16.8145C0.00023675 20.7961 9.90944 25.5225 19.8046 26.3149L21.1514 21.3953Z" fill="#E6E7F5"/>
<path d="M24.4918 14.9997C23.677 17.9789 20.2834 18.6873 17.1586 18.7741C14.591 18.8469 11.7266 18.5053 11.7266 18.5053L13.0734 13.5857C13.0734 13.5857 15.9378 13.9245 18.5054 13.8545C21.6302 13.7677 25.0238 13.0593 25.8386 10.0801L24.4918 14.9997Z" fill="#E6E7F5"/>
<path d="M4.99219 5.78288C14.1874 6.35688 24.8694 11.0973 24.4914 15.0005L25.7598 10.3637C26.1434 6.38208 16.2342 1.65568 6.33899 0.863281L4.99219 5.78288Z" fill="#E6E7F5"/>
<path d="M1.65259 12.1781C2.46739 9.19893 5.86099 8.49053 8.98579 8.40373C11.5534 8.33093 14.4178 8.67253 14.4178 8.67253L13.071 13.5921C13.071 13.5921 10.2066 13.2533 7.63899 13.3233C4.51699 13.4101 1.12339 14.1185 0.308594 17.0977L1.65259 12.1781Z" fill="#E6E7F5"/>
<path d="M21.1514 21.3953C11.959 20.8213 1.27704 16.0781 1.65224 12.1777L0.383837 16.8145C0.00023675 20.7961 9.90944 25.5225 19.8046 26.3149L21.1514 21.3953Z" fill="#E6E7F5"/>
<path d="M24.4918 14.9997C23.677 17.9789 20.2834 18.6873 17.1586 18.7741C14.591 18.8469 11.7266 18.5053 11.7266 18.5053L13.0734 13.5857C13.0734 13.5857 15.9378 13.9245 18.5054 13.8545C21.6302 13.7677 25.0238 13.0593 25.8386 10.0801L24.4918 14.9997Z" fill="#E6E7F5"/>
<path d="M4.99219 5.78288C14.1874 6.35688 24.8694 11.0973 24.4914 15.0005L25.7598 10.3637C26.1434 6.38208 16.2342 1.65568 6.33899 0.863281L4.99219 5.78288Z" fill="#E6E7F5"/>
</g>
</g>
</g>
<defs>
<clipPath id="clip0_10196_1013">
<rect width="70" height="30" fill="white"/>
</clipPath>
<clipPath id="clip1_10196_1013">
<rect width="70" height="30" fill="white"/>
</clipPath>
<clipPath id="clip2_10196_1013">
<rect width="70" height="28.672" fill="white" transform="translate(0 0.664062)"/>
</clipPath>
</defs>
</svg>
