<svg width="48" height="29" viewBox="0 0 48 29" fill="none" xmlns="http://www.w3.org/2000/svg">
<g clip-path="url(#clip0_11094_17139)">
<path d="M10.7601 9.53015C10.7601 8.65164 10.3036 8.33449 9.45954 8.33449H8.93177L7.17394 14.3128L7.77135 14.348C9.88158 14.3833 10.7601 11.2888 10.7601 9.53015ZM35.3059 12.5197C35.3059 12.0272 34.9543 11.7108 34.497 11.7108C33.4071 11.7108 33.0203 13.5039 32.8088 14.3128H34.9191C35.0592 13.7154 35.3059 13.1171 35.3059 12.5197ZM13.8201 10.3038C13.8201 14.1726 11.042 15.2273 7.73612 15.2273H6.92727L5.80208 18.7086H2.84859L5.83732 8.36973V8.33449H4.53595L4.78262 7.45598L4.81786 7.42074H10.2331C12.2024 7.42074 13.8201 8.08864 13.8201 10.3038ZM30.3126 11.1478L25.7406 17.8293L28.4483 17.8645L28.1672 18.7086H21.6267L26.1979 12.0624H23.5255L23.8066 11.1478H30.3126ZM37.9783 13.6801C37.9783 14.2071 37.8726 14.7348 37.7316 15.2273H32.5278C32.3163 15.86 32.0705 16.6336 32.0705 17.3023C32.0705 17.8645 32.3868 18.1456 32.9146 18.1456C33.8636 18.1456 34.2159 16.7393 34.4618 16.0362H37.4858C36.9236 17.935 34.8838 19.0954 32.985 19.0954C30.9805 19.0954 29.4333 18.0759 29.4333 15.9305C29.4333 13.1171 31.6837 10.7963 34.5323 10.7963C36.3253 10.7963 37.9783 11.6404 37.9783 13.6801ZM48 14.2071C48 3.7633 32.1762 0.000952109 23.9476 0.000952109C15.8943 0.000952109 0 3.72806 0 14.1022C0 19.9043 5.30956 23.8428 10.1627 25.8473H10.1979L14.8043 9.98743C15.7894 6.61189 17.2309 3.0954 21.3448 3.0954C22.7871 3.0954 24.6859 3.72806 24.6859 5.48671C24.6859 6.47094 23.9476 7.38551 22.9273 7.38551C22.084 7.38551 21.38 6.71761 21.38 5.87352C21.38 4.85324 22.1537 4.36154 23.0682 4.3263C22.7871 3.7633 22.1184 3.55268 21.521 3.55268C18.7076 3.55268 18.075 9.24906 17.512 11.1478H22.6109L20.4311 18.7086H17.4767L19.4108 12.0977H17.2309L14.2774 22.1194C13.8201 23.7018 13.2219 25.2138 12.9408 26.8315C16.4573 27.9215 20.1844 28.4492 23.8771 28.4492C32.0705 28.4492 48 24.8622 48 14.2071ZM46.629 12.4492C46.629 13.3285 45.9258 14.0669 45.0465 14.0669C44.3081 14.0669 43.6394 13.3982 43.6394 12.6598C43.6394 12.5197 43.6747 12.3435 43.7099 12.2026H43.6394C42.1274 13.3285 41.4243 17.3367 41.0023 18.7086H38.0488L39.9828 12.0977L38.8224 12.0624L39.1387 11.1478H43.1477L42.7609 12.4845C43.2879 11.6756 44.1319 11.0077 45.1522 11.0077C45.9611 11.0077 46.629 11.6404 46.629 12.4492Z" fill="#007CC2"/>
</g>
<defs>
<clipPath id="clip0_11094_17139">
<rect width="48" height="28.4483" fill="white"/>
</clipPath>
</defs>
</svg>
