<svg width="140" height="58" viewBox="0 0 140 58" fill="none" xmlns="http://www.w3.org/2000/svg">
<g clip-path="url(#clip0_11105_18940)">
<path d="M3.30519 23.0262C4.93479 17.0678 11.722 15.651 17.9716 15.4774C23.1068 15.3318 28.8356 16.015 28.8356 16.015L26.142 25.8542C26.142 25.8542 20.4132 25.1766 15.278 25.3166C9.03399 25.4902 2.24679 26.907 0.617188 32.8654L3.30519 23.0262Z" fill="#007CC2"/>
<path d="M60.6897 18.1732L54.3281 41.4244H59.6705L62.0281 32.8116H66.6705C71.7945 32.8116 75.1937 29.9836 76.1121 26.0524C76.9689 22.3844 74.8297 18.1676 69.0841 18.1676L60.6897 18.1732ZM65.2873 20.906H67.3425C69.4929 20.906 71.2009 22.6308 70.7865 25.6268C70.4057 28.4044 67.3873 30.0732 64.7553 30.0732H62.7785L65.2873 20.906ZM115.973 25.4084C111.482 25.4084 108.239 29.2724 107.461 33.1364C106.716 36.8492 108.844 41.7828 114.702 41.7828C118.868 41.7828 120.963 39.946 120.963 39.946L120.005 37.5772C120.005 37.5772 118.252 39.0052 115.811 39.0052C113.369 39.0052 111.84 37.0788 112.176 34.01H122.144C122.855 32.2068 123.247 25.4084 115.973 25.4084ZM115.951 27.9788C118.739 27.9788 118.101 31.658 118.101 31.658L112.518 31.6468C112.518 31.6468 113.447 27.9788 115.951 27.9788ZM78.2569 24.826L69.4705 56.9476H74.5945L82.3841 28.466H87.7097L84.1649 41.4244H89.2889L93.5393 25.8788H83.0897C83.6273 23.9188 84.1985 21.8356 84.6633 20.1332C85.5201 16.9916 86.9257 14.7068 88.9697 14.7852C91.2265 14.8692 90.0785 16.3532 89.7705 17.4844C89.3449 19.0468 90.4985 20.6204 92.5201 20.6204C96.9105 20.6204 97.9969 12.5508 89.7705 12.5508C81.5441 12.5508 79.4385 20.514 78.2569 24.826Z" fill="#007CC2"/>
<path d="M95.4822 25.8833L94.7766 28.4649H101.273L91.0582 41.4233H105.484L106.189 38.8417H98.859L109.073 25.8833H95.4822ZM135.836 25.6201C132.493 25.6201 130.521 29.0697 130.521 29.0697L131.395 25.8777H126.271L122.021 41.4177H127.145C127.145 41.4177 128.377 36.8761 129.009 34.6081C129.978 31.0633 131.955 28.8457 132.907 28.7561C134.005 28.6497 133.898 31.2985 136.043 31.2985C139.297 31.3041 139.997 25.6201 135.836 25.6201ZM42.299 41.4625C23.9142 40.3145 2.55017 30.8281 3.30057 23.0273L0.763767 32.3009C-0.00343278 40.2641 19.815 49.7169 39.6054 51.3017L42.299 41.4625Z" fill="#007CC2"/>
<path d="M48.9835 28.6732C47.3539 34.6316 40.5667 36.0484 34.3171 36.222C29.1819 36.3676 23.4531 35.6844 23.4531 35.6844L26.1467 25.8452C26.1467 25.8452 31.8755 26.5228 37.0107 26.3828C43.2603 26.2092 50.0475 24.7924 51.6771 18.834L48.9835 28.6732Z" fill="#007CC2"/>
<path d="M9.98438 10.2376C28.3748 11.3856 49.7388 20.8664 48.9828 28.6728L51.5196 19.3992C52.2868 11.436 32.4684 1.98324 12.678 0.398438L9.98438 10.2376Z" fill="#007CC2"/>
<path d="M3.30519 23.0262C4.93479 17.0678 11.722 15.651 17.9716 15.4774C23.1068 15.3318 28.8356 16.015 28.8356 16.015L26.142 25.8542C26.142 25.8542 20.4132 25.1766 15.278 25.3166C9.03399 25.4902 2.24679 26.907 0.617188 32.8654L3.30519 23.0262Z" fill="#007CC2"/>
<path d="M42.299 41.4625C23.9142 40.3145 2.55017 30.8281 3.30057 23.0273L0.763767 32.3009C-0.00343278 40.2641 19.815 49.7169 39.6054 51.3017L42.299 41.4625Z" fill="#007CC2"/>
<path d="M48.9835 28.6712C47.3539 34.6296 40.5667 36.0464 34.3171 36.22C29.1819 36.3656 23.4531 35.6824 23.4531 35.6824L26.1467 25.8432C26.1467 25.8432 31.8755 26.5208 37.0107 26.3808C43.2603 26.2072 50.0475 24.7904 51.6771 18.832L48.9835 28.6712Z" fill="#007CC2"/>
<path d="M9.98438 10.2376C28.3748 11.3856 49.7388 20.8664 48.9828 28.6728L51.5196 19.3992C52.2868 11.436 32.4684 1.98324 12.678 0.398438L9.98438 10.2376Z" fill="#007CC2"/>
</g>
<defs>
<clipPath id="clip0_11105_18940">
<rect width="140" height="57.344" fill="white"/>
</clipPath>
</defs>
</svg>
