<svg width="180" height="120" viewBox="0 0 180 120" fill="none" xmlns="http://www.w3.org/2000/svg">
<g clip-path="url(#clip0_11105_18936)">
<g clip-path="url(#clip1_11105_18936)">
<path d="M23.3052 54.3543C24.9348 48.3959 31.722 46.9791 37.9716 46.8055C43.1068 46.6599 48.8356 47.3431 48.8356 47.3431L46.142 57.1823C46.142 57.1823 40.4132 56.5047 35.278 56.6447C29.034 56.8183 22.2468 58.2351 20.6172 64.1935L23.3052 54.3543Z" fill="#007CC2"/>
<path d="M80.6897 49.5013L74.3281 72.7525H79.6705L82.0281 64.1397H86.6705C91.7945 64.1397 95.1937 61.3117 96.1121 57.3805C96.9689 53.7125 94.8297 49.4957 89.0841 49.4957L80.6897 49.5013ZM85.2873 52.2341H87.3425C89.4929 52.2341 91.2009 53.9589 90.7865 56.9549C90.4057 59.7325 87.3873 61.4013 84.7553 61.4013H82.7785L85.2873 52.2341ZM135.973 56.7365C131.482 56.7365 128.239 60.6005 127.461 64.4645C126.716 68.1773 128.844 73.1109 134.702 73.1109C138.868 73.1109 140.963 71.2741 140.963 71.2741L140.005 68.9053C140.005 68.9053 138.252 70.3333 135.811 70.3333C133.369 70.3333 131.84 68.4069 132.176 65.3381H142.144C142.855 63.5349 143.247 56.7365 135.973 56.7365ZM135.951 59.3069C138.739 59.3069 138.101 62.9861 138.101 62.9861L132.518 62.9749C132.518 62.9749 133.447 59.3069 135.951 59.3069ZM98.2569 56.1541L89.4705 88.2757H94.5945L102.384 59.7941H107.71L104.165 72.7525H109.289L113.539 57.2069H103.09C103.627 55.2469 104.199 53.1637 104.663 51.4613C105.52 48.3197 106.926 46.0349 108.97 46.1133C111.227 46.1973 110.079 47.6813 109.771 48.8125C109.345 50.3749 110.499 51.9485 112.52 51.9485C116.911 51.9485 117.997 43.8789 109.771 43.8789C101.544 43.8789 99.4385 51.8421 98.2569 56.1541Z" fill="#007CC2"/>
<path d="M115.482 57.2115L114.777 59.7931H121.273L111.058 72.7515H125.484L126.189 70.1699H118.859L129.073 57.2115H115.482ZM155.836 56.9483C152.493 56.9483 150.521 60.3979 150.521 60.3979L151.395 57.2059H146.271L142.021 72.7459H147.145C147.145 72.7459 148.377 68.2043 149.009 65.9363C149.978 62.3915 151.955 60.1739 152.907 60.0843C154.005 59.9779 153.898 62.6267 156.043 62.6267C159.297 62.6323 159.997 56.9483 155.836 56.9483ZM62.299 72.7907C43.9142 71.6427 22.5502 62.1563 23.3006 54.3555L20.7638 63.6291C19.9966 71.5923 39.815 81.0451 59.6054 82.6299L62.299 72.7907Z" fill="#007CC2"/>
<path d="M68.9835 60.0013C67.3539 65.9597 60.5667 67.3765 54.3171 67.5501C49.1819 67.6957 43.4531 67.0125 43.4531 67.0125L46.1467 57.1733C46.1467 57.1733 51.8755 57.8509 57.0107 57.7109C63.2603 57.5373 70.0475 56.1205 71.6771 50.1621L68.9835 60.0013Z" fill="#007CC2"/>
<path d="M29.9844 41.5658C48.3748 42.7138 69.7388 52.1946 68.9828 60.001L71.5196 50.7274C72.2868 42.7642 52.4684 33.3114 32.678 31.7266L29.9844 41.5658Z" fill="#007CC2"/>
<path d="M23.3052 54.3543C24.9348 48.3959 31.722 46.9791 37.9716 46.8055C43.1068 46.6599 48.8356 47.3431 48.8356 47.3431L46.142 57.1823C46.142 57.1823 40.4132 56.5047 35.278 56.6447C29.034 56.8183 22.2468 58.2351 20.6172 64.1935L23.3052 54.3543Z" fill="#007CC2"/>
<path d="M62.299 72.7907C43.9142 71.6427 22.5502 62.1563 23.3006 54.3555L20.7638 63.6291C19.9966 71.5923 39.815 81.0451 59.6054 82.6299L62.299 72.7907Z" fill="#007CC2"/>
<path d="M68.9835 59.9994C67.3539 65.9578 60.5667 67.3746 54.3171 67.5482C49.1819 67.6938 43.4531 67.0106 43.4531 67.0106L46.1467 57.1714C46.1467 57.1714 51.8755 57.849 57.0107 57.709C63.2603 57.5354 70.0475 56.1186 71.6771 50.1602L68.9835 59.9994Z" fill="#007CC2"/>
<path d="M29.9844 41.5658C48.3748 42.7138 69.7388 52.1946 68.9828 60.001L71.5196 50.7274C72.2868 42.7642 52.4684 33.3114 32.678 31.7266L29.9844 41.5658Z" fill="#007CC2"/>
</g>
</g>
<defs>
<clipPath id="clip0_11105_18936">
<rect width="140" height="60" fill="white" transform="translate(20 30)"/>
</clipPath>
<clipPath id="clip1_11105_18936">
<rect width="140" height="57.344" fill="white" transform="translate(20 31.3281)"/>
</clipPath>
</defs>
</svg>
