<svg width="360" height="312" viewBox="0 0 360 312" fill="none" xmlns="http://www.w3.org/2000/svg">
<rect width="360" height="312" fill="white"/>
<mask id="mask0_11278_202622" style="mask-type:luminance" maskUnits="userSpaceOnUse" x="31" y="121" width="321" height="71">
<path d="M31.002 121.485H351.422V191.81H31.002V121.485Z" fill="white"/>
</mask>
<g mask="url(#mask0_11278_202622)">
<path d="M18.2832 138.534L31.0929 181.346L43.9026 153.85L56.7124 154.019L69.522 140.888L82.3318 166.021L95.1415 143.009L107.951 151.17L120.761 146.192L133.571 154.484L146.38 151.999L159.19 142.777L172 151.492L184.809 150.87L197.619 131.856L210.429 132.706L223.239 149.725L236.048 149.307L248.862 151.17L261.672 153.182L274.482 149.138L287.291 147.109L300.101 151.766L312.911 157.907L325.721 149.471L338.53 153.808L351.34 153.613" stroke="#5E81B5" stroke-width="2.16383" stroke-miterlimit="3.25" stroke-linecap="square"/>
</g>
<mask id="mask1_11278_202622" style="mask-type:luminance" maskUnits="userSpaceOnUse" x="31" y="164" width="321" height="68">
<path d="M31.002 164.763H351.422V231.841H31.002V164.763Z" fill="white"/>
</mask>
<g mask="url(#mask1_11278_202622)">
<path d="M18.2832 213.935L31.0929 205.453L43.9026 221.787L56.7124 175.561L69.522 195.086L82.3318 194.562L95.1415 186.599L107.951 190.373L120.761 195.868L133.571 201.97L146.38 195.086L159.19 184.089L172 176.233L184.809 194.253L197.619 197.178L210.429 202.773L223.239 192.728L236.048 191.717L248.862 200.428L261.672 197.748L274.482 190.961L287.291 201.683L300.101 197.985L312.911 191.417L325.721 196.43L338.53 184.034L351.34 193.349" stroke="#8778B3" stroke-width="2.16383" stroke-miterlimit="3.25" stroke-linecap="square"/>
</g>
<mask id="mask2_11278_202622" style="mask-type:luminance" maskUnits="userSpaceOnUse" x="31" y="127" width="321" height="112">
<path d="M31.002 127.977H351.422V238.332H31.002V127.977Z" fill="white"/>
</mask>
<g mask="url(#mask2_11278_202622)">
<path d="M18.2832 138.533L31.0929 184.713L43.9026 228.07L56.7124 202.489L69.522 218.646L82.3318 193.512L95.1415 190.372L107.951 187.798L120.761 180.943L133.571 188.196L146.38 206.529L159.19 207.336L172 144.425L184.809 188.707L197.619 171.519L210.429 197.81L223.239 167.749L236.048 183.64L248.862 185.229L261.672 213.726L274.482 169.165L287.291 202.81L300.101 196.893L312.911 155.81L325.721 196.428L338.53 189.396L351.34 163.979" stroke="#88A731" stroke-width="2.16383" stroke-miterlimit="3.25" stroke-linecap="square"/>
</g>
<mask id="mask3_11278_202622" style="mask-type:luminance" maskUnits="userSpaceOnUse" x="31" y="117" width="321" height="112">
<path d="M31.002 117.157H351.422V228.595H31.002V117.157Z" fill="white"/>
</mask>
<g mask="url(#mask3_11278_202622)">
<path d="M18.2832 176.231L31.0929 128.166L43.9026 199.796L56.7124 178.251L69.522 204.509L82.3318 168.379L95.1415 212.991L107.951 198.081L120.761 218.645L133.571 175.145L146.38 174.211L159.19 184.713L172 211.575L184.809 195.359L197.619 187.228L210.429 215.67L223.239 201.681L236.048 170.175L248.862 190.372L261.672 179.308L274.482 185.655L287.291 205.071L300.101 183.847L312.911 193.512L325.721 192.388L338.53 208.896L351.34 165.864" stroke="#EB6235" stroke-width="2.16383" stroke-miterlimit="3.25" stroke-linecap="square"/>
</g>
<path d="M152.264 163.105H182.329V148.871H152.264V163.105Z" fill="#FF5454" fill-opacity="0.0800031"/>
<path d="M152.912 162.455H181.68V149.519H152.912V162.455Z" stroke="#E19C24" stroke-width="1.08192" stroke-miterlimit="10" stroke-linecap="square"/>
<mask id="mask4_11278_202622" style="mask-type:luminance" maskUnits="userSpaceOnUse" x="31" y="217" width="321" height="3">
<path d="M31.002 217.775H351.422V219.939H31.002V217.775Z" fill="white"/>
</mask>
<g mask="url(#mask4_11278_202622)">
<path d="M740.913 218.646H-32.957" stroke="#808080" stroke-width="1.08192" stroke-miterlimit="3.25" stroke-dasharray="3.2 3.2"/>
<path d="M740.913 218.646H-32.957" stroke="#808080" stroke-width="1.08192" stroke-miterlimit="3.25" stroke-dasharray="3.2 3.2"/>
</g>
<mask id="mask5_11278_202622" style="mask-type:luminance" maskUnits="userSpaceOnUse" x="31" y="161" width="321" height="3">
<path d="M31.002 161.517H351.422V163.68H31.002V161.517Z" fill="white"/>
</mask>
<g mask="url(#mask5_11278_202622)">
<path d="M740.913 162.095H-32.957" stroke="#808080" stroke-width="1.08192" stroke-miterlimit="3.25" stroke-dasharray="3.2 3.2"/>
<path d="M740.913 162.095H-32.957" stroke="#808080" stroke-width="1.08192" stroke-miterlimit="3.25" stroke-dasharray="3.2 3.2"/>
</g>
<mask id="mask6_11278_202622" style="mask-type:luminance" maskUnits="userSpaceOnUse" x="31" y="189" width="321" height="3">
<path d="M31.002 189.646H351.422V191.81H31.002V189.646Z" fill="white"/>
</mask>
<g mask="url(#mask6_11278_202622)">
<path d="M740.913 190.374H-32.957" stroke="#8778B3" stroke-width="1.08192" stroke-miterlimit="3.25" stroke-dasharray="3.2 3.2"/>
<path d="M740.913 190.374H-32.957" stroke="#8778B3" stroke-width="1.08192" stroke-miterlimit="3.25" stroke-dasharray="3.2 3.2"/>
</g>
<path d="M351.339 246.92H31.0918" stroke="#CCCCCC" stroke-width="0.540958" stroke-miterlimit="3.25" stroke-linecap="square"/>
<path d="M31.0918 246.919V48.9961" stroke="#CCCCCC" stroke-width="0.540958" stroke-miterlimit="3.25" stroke-linecap="square"/>
<path d="M31.0918 48.9961H351.339" stroke="#CCCCCC" stroke-width="0.540958" stroke-miterlimit="3.25" stroke-linecap="square"/>
<path d="M351.338 48.9961V246.919" stroke="#CCCCCC" stroke-width="0.540958" stroke-miterlimit="3.25" stroke-linecap="square"/>
<path d="M31.0918 246.921V243.146" stroke="#CCCCCC" stroke-width="0.540958" stroke-miterlimit="3.25"/>
<path d="M26.9922 263.209L29.3589 262.963C29.4265 263.5 29.6251 263.923 29.959 264.236C30.2929 264.548 30.6732 264.705 31.1085 264.705C31.603 264.705 32.0256 264.502 32.368 264.1C32.7103 263.699 32.8836 263.09 32.8836 262.279C32.8836 261.518 32.7145 260.948 32.3722 260.567C32.0299 260.187 31.5861 259.997 31.0409 259.997C30.3605 259.997 29.7477 260.297 29.2067 260.901L27.2796 260.622L28.4967 254.173H34.7769V256.396H30.2971L29.9252 258.501C30.4535 258.234 30.9944 258.103 31.5481 258.103C32.6004 258.103 33.4964 258.488 34.2275 259.253C34.9586 260.018 35.3263 261.015 35.3263 262.237C35.3263 263.255 35.0305 264.168 34.4388 264.967C33.6316 266.061 32.5159 266.606 31.0832 266.606C29.9379 266.606 29.0081 266.298 28.2854 265.685C27.5627 265.072 27.1317 264.244 26.9922 263.209Z" fill="#CCCCCC"/>
<path d="M43.9004 246.92V244.654" stroke="#CCCCCC" stroke-width="0.540958" stroke-miterlimit="3.25"/>
<path d="M56.7109 246.92V244.654" stroke="#CCCCCC" stroke-width="0.540958" stroke-miterlimit="3.25"/>
<path d="M69.5195 246.92V244.654" stroke="#CCCCCC" stroke-width="0.540958" stroke-miterlimit="3.25"/>
<path d="M82.3281 246.92V244.654" stroke="#CCCCCC" stroke-width="0.540958" stroke-miterlimit="3.25"/>
<path d="M95.1387 246.921V243.146" stroke="#CCCCCC" stroke-width="0.540958" stroke-miterlimit="3.25"/>
<path d="M92.2129 266.395H89.8378V257.444C88.9714 258.255 87.9487 258.856 86.7695 259.244V257.089C87.3908 256.886 88.0628 256.502 88.7897 255.935C89.5166 255.369 90.0153 254.71 90.2858 253.953H92.2129V266.395Z" fill="#CCCCCC"/>
<path d="M99.7773 253.953C100.978 253.953 101.916 254.38 102.592 255.238C103.399 256.252 103.801 257.934 103.801 260.284C103.801 262.63 103.395 264.312 102.584 265.339C101.912 266.184 100.978 266.606 99.7773 266.606C98.5728 266.606 97.6008 266.142 96.8612 265.216C96.1216 264.29 95.7539 262.638 95.7539 260.259C95.7539 257.926 96.1596 256.248 96.9711 255.221C97.643 254.376 98.577 253.953 99.7773 253.953ZM99.7773 255.923C99.4899 255.923 99.2321 256.016 99.0081 256.197C98.7841 256.379 98.6066 256.709 98.4841 257.182C98.3192 257.795 98.2389 258.83 98.2389 260.284C98.2389 261.738 98.3108 262.735 98.4587 263.28C98.6066 263.826 98.7883 264.185 99.0123 264.367C99.2363 264.548 99.4899 264.637 99.7773 264.637C100.065 264.637 100.322 264.544 100.546 264.362C100.77 264.181 100.948 263.851 101.071 263.378C101.235 262.769 101.316 261.738 101.316 260.284C101.316 258.83 101.244 257.833 101.096 257.288C100.948 256.742 100.766 256.379 100.542 256.197C100.318 256.016 100.065 255.923 99.7773 255.923Z" fill="#CCCCCC"/>
<path d="M107.949 246.92V244.654" stroke="#CCCCCC" stroke-width="0.540958" stroke-miterlimit="3.25"/>
<path d="M120.756 246.92V244.654" stroke="#CCCCCC" stroke-width="0.540958" stroke-miterlimit="3.25"/>
<path d="M133.568 246.92V244.654" stroke="#CCCCCC" stroke-width="0.540958" stroke-miterlimit="3.25"/>
<path d="M146.379 246.92V244.654" stroke="#CCCCCC" stroke-width="0.540958" stroke-miterlimit="3.25"/>
<path d="M159.188 246.921V243.146" stroke="#CCCCCC" stroke-width="0.540958" stroke-miterlimit="3.25"/>
<path d="M156.266 266.395H153.891V257.444C153.024 258.255 152.001 258.856 150.822 259.244V257.089C151.444 256.886 152.115 256.502 152.842 255.935C153.569 255.369 154.068 254.71 154.338 253.953H156.266V266.395Z" fill="#CCCCCC"/>
<path d="M159.848 263.208L162.214 262.962C162.282 263.499 162.481 263.922 162.814 264.235C163.148 264.547 163.529 264.704 163.964 264.704C164.458 264.704 164.881 264.501 165.223 264.099C165.566 263.698 165.739 263.089 165.739 262.278C165.739 261.517 165.57 260.947 165.228 260.566C164.885 260.186 164.442 259.996 163.896 259.996C163.216 259.996 162.603 260.296 162.062 260.9L160.135 260.621L161.352 254.172H167.632V256.395H163.153L162.781 258.5C163.309 258.233 163.85 258.102 164.404 258.102C165.456 258.102 166.352 258.487 167.083 259.252C167.814 260.017 168.182 261.014 168.182 262.236C168.182 263.254 167.886 264.167 167.294 264.966C166.487 266.06 165.371 266.605 163.939 266.605C162.793 266.605 161.864 266.297 161.141 265.684C160.418 265.071 159.987 264.243 159.848 263.208Z" fill="#CCCCCC"/>
<path d="M171.998 246.92V244.654" stroke="#CCCCCC" stroke-width="0.540958" stroke-miterlimit="3.25"/>
<path d="M184.809 246.92V244.654" stroke="#CCCCCC" stroke-width="0.540958" stroke-miterlimit="3.25"/>
<path d="M197.617 246.92V244.654" stroke="#CCCCCC" stroke-width="0.540958" stroke-miterlimit="3.25"/>
<path d="M210.426 246.92V244.654" stroke="#CCCCCC" stroke-width="0.540958" stroke-miterlimit="3.25"/>
<path d="M223.236 246.921V243.146" stroke="#CCCCCC" stroke-width="0.540958" stroke-miterlimit="3.25"/>
<path d="M222.257 264.189V266.395H213.932C214.02 265.563 214.291 264.772 214.743 264.024C215.195 263.276 216.083 262.287 217.414 261.053C218.483 260.056 219.143 259.38 219.383 259.025C219.709 258.534 219.874 258.048 219.874 257.571C219.874 257.043 219.73 256.633 219.447 256.349C219.164 256.066 218.771 255.923 218.268 255.923C217.773 255.923 217.376 256.07 217.084 256.371C216.793 256.671 216.624 257.165 216.577 257.858L214.211 257.621C214.35 256.316 214.794 255.377 215.538 254.807C216.281 254.236 217.211 253.953 218.327 253.953C219.548 253.953 220.512 254.283 221.209 254.942C221.907 255.601 222.257 256.421 222.257 257.402C222.257 257.96 222.156 258.492 221.957 258.995C221.759 259.498 221.442 260.026 221.006 260.58C220.719 260.948 220.199 261.472 219.451 262.16C218.703 262.849 218.225 263.306 218.027 263.53C217.828 263.754 217.663 263.974 217.541 264.189H222.257Z" fill="#CCCCCC"/>
<path d="M227.877 253.953C229.077 253.953 230.015 254.38 230.692 255.238C231.499 256.252 231.9 257.934 231.9 260.284C231.9 262.63 231.495 264.312 230.683 265.339C230.011 266.184 229.077 266.606 227.877 266.606C226.672 266.606 225.7 266.142 224.961 265.216C224.221 264.29 223.854 262.638 223.854 260.259C223.854 257.926 224.259 256.248 225.071 255.221C225.743 254.376 226.677 253.953 227.877 253.953ZM227.877 255.923C227.59 255.923 227.332 256.016 227.108 256.197C226.884 256.379 226.706 256.709 226.584 257.182C226.419 257.795 226.339 258.83 226.339 260.284C226.339 261.738 226.41 262.735 226.558 263.28C226.706 263.826 226.888 264.185 227.112 264.367C227.336 264.548 227.59 264.637 227.877 264.637C228.164 264.637 228.422 264.544 228.646 264.362C228.87 264.181 229.048 263.851 229.17 263.378C229.335 262.769 229.415 261.738 229.415 260.284C229.415 258.83 229.343 257.833 229.195 257.288C229.048 256.742 228.866 256.379 228.642 256.197C228.418 256.016 228.164 255.923 227.877 255.923Z" fill="#CCCCCC"/>
<path d="M236.047 246.92V244.654" stroke="#CCCCCC" stroke-width="0.540958" stroke-miterlimit="3.25"/>
<path d="M248.859 246.92V244.654" stroke="#CCCCCC" stroke-width="0.540958" stroke-miterlimit="3.25"/>
<path d="M261.668 246.92V244.654" stroke="#CCCCCC" stroke-width="0.540958" stroke-miterlimit="3.25"/>
<path d="M274.479 246.92V244.654" stroke="#CCCCCC" stroke-width="0.540958" stroke-miterlimit="3.25"/>
<path d="M287.289 246.921V243.146" stroke="#CCCCCC" stroke-width="0.540958" stroke-miterlimit="3.25"/>
<path d="M286.31 264.189V266.395H277.984C278.073 265.563 278.344 264.772 278.796 264.024C279.248 263.276 280.136 262.287 281.467 261.053C282.536 260.056 283.195 259.38 283.436 259.025C283.762 258.534 283.926 258.048 283.926 257.571C283.926 257.043 283.783 256.633 283.5 256.349C283.216 256.066 282.823 255.923 282.32 255.923C281.826 255.923 281.429 256.07 281.137 256.371C280.846 256.671 280.676 257.165 280.63 257.858L278.263 257.621C278.403 256.316 278.847 255.377 279.59 254.807C280.334 254.236 281.264 253.953 282.38 253.953C283.601 253.953 284.565 254.283 285.262 254.942C285.959 255.601 286.31 256.421 286.31 257.402C286.31 257.96 286.209 258.492 286.01 258.995C285.811 259.498 285.494 260.026 285.059 260.58C284.772 260.948 284.252 261.472 283.504 262.16C282.756 262.849 282.278 263.306 282.08 263.53C281.881 263.754 281.716 263.974 281.594 264.189H286.31Z" fill="#CCCCCC"/>
<path d="M287.949 263.208L290.316 262.962C290.384 263.499 290.582 263.922 290.916 264.235C291.25 264.547 291.63 264.704 292.066 264.704C292.56 264.704 292.983 264.501 293.325 264.099C293.667 263.698 293.841 263.089 293.841 262.278C293.841 261.517 293.672 260.947 293.329 260.566C292.987 260.186 292.543 259.996 291.998 259.996C291.318 259.996 290.705 260.296 290.164 260.9L288.237 260.621L289.454 254.172H295.734V256.395H291.254L290.882 258.5C291.411 258.233 291.951 258.102 292.505 258.102C293.557 258.102 294.453 258.487 295.185 259.252C295.916 260.017 296.283 261.014 296.283 262.236C296.283 263.254 295.988 264.167 295.396 264.966C294.589 266.06 293.473 266.605 292.04 266.605C290.895 266.605 289.965 266.297 289.242 265.684C288.52 265.071 288.089 264.243 287.949 263.208Z" fill="#CCCCCC"/>
<path d="M300.098 246.92V244.654" stroke="#CCCCCC" stroke-width="0.540958" stroke-miterlimit="3.25"/>
<path d="M312.908 246.92V244.654" stroke="#CCCCCC" stroke-width="0.540958" stroke-miterlimit="3.25"/>
<path d="M325.719 246.92V244.654" stroke="#CCCCCC" stroke-width="0.540958" stroke-miterlimit="3.25"/>
<path d="M338.527 246.92V244.654" stroke="#CCCCCC" stroke-width="0.540958" stroke-miterlimit="3.25"/>
<path d="M351.338 246.921V243.146" stroke="#CCCCCC" stroke-width="0.540958" stroke-miterlimit="3.25"/>
<path d="M342.25 263.107L344.549 262.828C344.621 263.416 344.82 263.864 345.141 264.172C345.462 264.481 345.851 264.637 346.307 264.637C346.797 264.637 347.212 264.451 347.545 264.079C347.879 263.707 348.048 263.204 348.048 262.575C348.048 261.979 347.888 261.505 347.567 261.155C347.245 260.804 346.852 260.631 346.392 260.631C346.087 260.631 345.724 260.69 345.301 260.808L345.563 258.872C346.206 258.889 346.696 258.75 347.034 258.454C347.372 258.158 347.541 257.765 347.541 257.275C347.541 256.857 347.419 256.527 347.169 256.278C346.92 256.028 346.59 255.906 346.18 255.906C345.775 255.906 345.428 256.045 345.141 256.328C344.853 256.611 344.68 257.021 344.617 257.562L342.428 257.19C342.58 256.442 342.808 255.842 343.116 255.394C343.425 254.946 343.852 254.596 344.401 254.338C344.951 254.08 345.568 253.953 346.248 253.953C347.414 253.953 348.348 254.325 349.054 255.069C349.633 255.677 349.925 256.366 349.925 257.131C349.925 258.217 349.329 259.088 348.141 259.735C348.851 259.887 349.418 260.229 349.845 260.757C350.271 261.286 350.483 261.928 350.483 262.676C350.483 263.762 350.085 264.692 349.291 265.457C348.496 266.222 347.507 266.606 346.324 266.606C345.204 266.606 344.274 266.285 343.535 265.639C342.795 264.992 342.368 264.151 342.25 263.107Z" fill="#CCCCCC"/>
<path d="M355.977 253.953C357.177 253.953 358.115 254.38 358.791 255.238C359.598 256.252 360 257.934 360 260.284C360 262.63 359.594 264.312 358.783 265.339C358.111 266.184 357.177 266.606 355.977 266.606C354.772 266.606 353.8 266.142 353.06 265.216C352.321 264.29 351.953 262.638 351.953 260.259C351.953 257.926 352.359 256.248 353.17 255.221C353.842 254.376 354.776 253.953 355.977 253.953ZM355.977 255.923C355.689 255.923 355.431 256.016 355.207 256.197C354.983 256.379 354.806 256.709 354.683 257.182C354.518 257.795 354.438 258.83 354.438 260.284C354.438 261.738 354.51 262.735 354.658 263.28C354.806 263.826 354.988 264.185 355.212 264.367C355.436 264.548 355.689 264.637 355.977 264.637C356.264 264.637 356.522 264.544 356.746 264.362C356.97 264.181 357.147 263.851 357.27 263.378C357.435 262.769 357.515 261.738 357.515 260.284C357.515 258.83 357.443 257.833 357.295 257.288C357.147 256.742 356.965 256.379 356.741 256.197C356.517 256.016 356.264 255.923 355.977 255.923Z" fill="#CCCCCC"/>
<path d="M31.0918 246.92H34.8658" stroke="#CCCCCC" stroke-width="0.540958" stroke-miterlimit="3.25"/>
<path d="M9.01953 250.124L11.3186 249.845C11.3904 250.432 11.5891 250.88 11.9103 251.189C12.2315 251.497 12.6203 251.654 13.0767 251.654C13.567 251.654 13.9811 251.468 14.315 251.096C14.6489 250.724 14.8179 250.221 14.8179 249.591C14.8179 248.995 14.6573 248.522 14.3361 248.171C14.0149 247.82 13.6219 247.647 13.1612 247.647C12.857 247.647 12.4935 247.706 12.0709 247.825L12.3329 245.889C12.9753 245.906 13.4655 245.767 13.8036 245.471C14.1417 245.175 14.3108 244.782 14.3108 244.292C14.3108 243.873 14.1882 243.544 13.9389 243.294C13.6895 243.045 13.3599 242.922 12.9499 242.922C12.5442 242.922 12.1977 243.062 11.9103 243.345C11.6229 243.628 11.4496 244.038 11.3862 244.579L9.19703 244.207C9.34918 243.459 9.5774 242.859 9.88591 242.411C10.1944 241.963 10.6213 241.612 11.1707 241.354C11.7201 241.097 12.3371 240.97 13.0175 240.97C14.184 240.97 15.118 241.342 15.8238 242.085C16.4028 242.694 16.6944 243.383 16.6944 244.148C16.6944 245.234 16.0985 246.105 14.9109 246.751C15.6209 246.903 16.1872 247.246 16.6141 247.774C17.0409 248.302 17.2522 248.945 17.2522 249.693C17.2522 250.779 16.855 251.709 16.0604 252.474C15.2659 253.238 14.277 253.623 13.0936 253.623C11.9737 253.623 11.0439 253.302 10.3043 252.655C9.56472 252.009 9.13787 251.168 9.01953 250.124Z" fill="#CCCCCC"/>
<path d="M22.748 240.97C23.9482 240.97 24.8865 241.397 25.5627 242.255C26.3699 243.269 26.7714 244.951 26.7714 247.301C26.7714 249.646 26.3656 251.328 25.5542 252.355C24.8822 253.2 23.9482 253.623 22.748 253.623C21.5435 253.623 20.5715 253.158 19.8319 252.233C19.0923 251.307 18.7246 249.655 18.7246 247.275C18.7246 244.942 19.1303 243.265 19.9418 242.238C20.6137 241.392 21.5477 240.97 22.748 240.97ZM22.748 242.939C22.4606 242.939 22.2028 243.032 21.9788 243.214C21.7548 243.396 21.5773 243.725 21.4548 244.199C21.2899 244.811 21.2096 245.847 21.2096 247.301C21.2096 248.754 21.2815 249.752 21.4294 250.297C21.5773 250.842 21.759 251.201 21.983 251.383C22.207 251.565 22.4606 251.654 22.748 251.654C23.0354 251.654 23.2932 251.561 23.5172 251.379C23.7411 251.197 23.9187 250.868 24.0412 250.394C24.206 249.786 24.2863 248.754 24.2863 247.301C24.2863 245.847 24.2145 244.849 24.0666 244.304C23.9187 243.759 23.7369 243.396 23.5129 243.214C23.2889 243.032 23.0354 242.939 22.748 242.939Z" fill="#CCCCCC"/>
<path d="M31.0918 241.265H33.3571" stroke="#CCCCCC" stroke-width="0.540958" stroke-miterlimit="3.25"/>
<path d="M31.0918 235.61H33.3571" stroke="#CCCCCC" stroke-width="0.540958" stroke-miterlimit="3.25"/>
<path d="M31.0918 229.956H33.3571" stroke="#CCCCCC" stroke-width="0.540958" stroke-miterlimit="3.25"/>
<path d="M31.0918 224.301H33.3571" stroke="#CCCCCC" stroke-width="0.540958" stroke-miterlimit="3.25"/>
<path d="M31.0918 218.646H34.8658" stroke="#CCCCCC" stroke-width="0.540958" stroke-miterlimit="3.25"/>
<path d="M13.7629 225.137V222.644H8.69141V220.565L14.0672 212.695H16.062V220.556H17.6003V222.644H16.062V225.137H13.7629ZM13.7629 220.556V216.321L10.9144 220.556H13.7629Z" fill="#CCCCCC"/>
<path d="M22.748 212.695C23.9482 212.695 24.8865 213.122 25.5627 213.98C26.3699 214.994 26.7714 216.676 26.7714 219.026C26.7714 221.372 26.3656 223.054 25.5542 224.081C24.8822 224.926 23.9482 225.349 22.748 225.349C21.5435 225.349 20.5715 224.884 19.8319 223.958C19.0923 223.033 18.7246 221.38 18.7246 219.001C18.7246 216.668 19.1303 214.99 19.9418 213.963C20.6137 213.118 21.5477 212.695 22.748 212.695ZM22.748 214.665C22.4606 214.665 22.2028 214.758 21.9788 214.939C21.7548 215.121 21.5773 215.451 21.4548 215.924C21.2899 216.537 21.2096 217.572 21.2096 219.026C21.2096 220.48 21.2815 221.477 21.4294 222.023C21.5773 222.568 21.759 222.927 21.983 223.109C22.207 223.29 22.4606 223.379 22.748 223.379C23.0354 223.379 23.2932 223.286 23.5172 223.105C23.7411 222.923 23.9187 222.593 24.0412 222.12C24.206 221.511 24.2863 220.48 24.2863 219.026C24.2863 217.572 24.2145 216.575 24.0666 216.03C23.9187 215.485 23.7369 215.121 23.5129 214.939C23.2889 214.758 23.0354 214.665 22.748 214.665Z" fill="#CCCCCC"/>
<path d="M31.0918 212.991H33.3571" stroke="#CCCCCC" stroke-width="0.540958" stroke-miterlimit="3.25"/>
<path d="M31.0918 207.337H33.3571" stroke="#CCCCCC" stroke-width="0.540958" stroke-miterlimit="3.25"/>
<path d="M31.0918 201.683H33.3571" stroke="#CCCCCC" stroke-width="0.540958" stroke-miterlimit="3.25"/>
<path d="M31.0918 196.028H33.3571" stroke="#CCCCCC" stroke-width="0.540958" stroke-miterlimit="3.25"/>
<path d="M31.0918 190.374H34.8658" stroke="#CCCCCC" stroke-width="0.540958" stroke-miterlimit="3.25"/>
<path d="M9.13867 193.675L11.5054 193.43C11.573 193.967 11.7716 194.39 12.1055 194.702C12.4394 195.015 12.8197 195.171 13.255 195.171C13.7495 195.171 14.1721 194.969 14.5144 194.567C14.8568 194.166 15.03 193.557 15.03 192.746C15.03 191.985 14.861 191.414 14.5187 191.034C14.1763 190.654 13.7326 190.463 13.1874 190.463C12.507 190.463 11.8942 190.763 11.3532 191.368L9.42605 191.089L10.6432 184.64H16.9234V186.863H12.4436L12.0717 188.967C12.6 188.701 13.1409 188.57 13.6946 188.57C14.7469 188.57 15.6428 188.955 16.374 189.72C17.1051 190.485 17.4728 191.482 17.4728 192.703C17.4728 193.722 17.177 194.635 16.5853 195.433C15.7781 196.528 14.6624 197.073 13.2297 197.073C12.0844 197.073 11.1546 196.765 10.4319 196.152C9.70921 195.539 9.27814 194.711 9.13867 193.675Z" fill="#CCCCCC"/>
<path d="M22.748 184.42C23.9482 184.42 24.8865 184.847 25.5627 185.705C26.3699 186.719 26.7714 188.401 26.7714 190.751C26.7714 193.096 26.3656 194.778 25.5542 195.805C24.8822 196.651 23.9482 197.073 22.748 197.073C21.5435 197.073 20.5715 196.608 19.8319 195.683C19.0923 194.757 18.7246 193.105 18.7246 190.725C18.7246 188.393 19.1303 186.715 19.9418 185.688C20.6137 184.843 21.5477 184.42 22.748 184.42ZM22.748 186.389C22.4606 186.389 22.2028 186.482 21.9788 186.664C21.7548 186.846 21.5773 187.175 21.4548 187.649C21.2899 188.262 21.2096 189.297 21.2096 190.751C21.2096 192.205 21.2815 193.202 21.4294 193.747C21.5773 194.292 21.759 194.652 21.983 194.833C22.207 195.015 22.4606 195.104 22.748 195.104C23.0354 195.104 23.2932 195.011 23.5172 194.829C23.7411 194.647 23.9187 194.318 24.0412 193.844C24.206 193.236 24.2863 192.205 24.2863 190.751C24.2863 189.297 24.2145 188.3 24.0666 187.754C23.9187 187.209 23.7369 186.846 23.5129 186.664C23.2889 186.482 23.0354 186.389 22.748 186.389Z" fill="#CCCCCC"/>
<path d="M31.0918 184.714H33.3571" stroke="#CCCCCC" stroke-width="0.540958" stroke-miterlimit="3.25"/>
<path d="M31.0918 179.06H33.3571" stroke="#CCCCCC" stroke-width="0.540958" stroke-miterlimit="3.25"/>
<path d="M31.0918 173.405H33.3571" stroke="#CCCCCC" stroke-width="0.540958" stroke-miterlimit="3.25"/>
<path d="M31.0918 167.75H33.3571" stroke="#CCCCCC" stroke-width="0.540958" stroke-miterlimit="3.25"/>
<path d="M31.0918 162.095H34.8658" stroke="#CCCCCC" stroke-width="0.540958" stroke-miterlimit="3.25"/>
<path d="M17.1522 159.231L14.8531 159.484C14.7982 159.011 14.6503 158.66 14.4136 158.436C14.1769 158.212 13.8684 158.098 13.4923 158.098C12.9894 158.098 12.5668 158.322 12.2202 158.774C11.8737 159.226 11.6539 160.165 11.5651 161.589C12.1568 160.892 12.8922 160.541 13.7712 160.541C14.7644 160.541 15.6139 160.917 16.3196 161.673C17.0254 162.43 17.3804 163.402 17.3804 164.598C17.3804 165.866 17.0085 166.884 16.2647 167.649C15.5209 168.414 14.5658 168.799 13.3993 168.799C12.1484 168.799 11.1214 168.313 10.3142 167.341C9.50696 166.369 9.10547 164.775 9.10547 162.561C9.10547 160.291 9.52387 158.652 10.3649 157.65C11.2059 156.648 12.2963 156.146 13.636 156.146C14.5784 156.146 15.3561 156.408 15.9731 156.936C16.5901 157.464 16.9832 158.229 17.1522 159.231ZM11.768 164.412C11.768 165.185 11.9455 165.781 12.3005 166.2C12.6555 166.618 13.0612 166.829 13.5177 166.829C13.9572 166.829 14.3249 166.656 14.6165 166.314C14.9081 165.972 15.056 165.405 15.056 164.623C15.056 163.816 14.8996 163.229 14.5827 162.853C14.2657 162.476 13.8727 162.29 13.3993 162.29C12.9429 162.29 12.5583 162.468 12.2413 162.827C11.9244 163.186 11.768 163.715 11.768 164.412Z" fill="#CCCCCC"/>
<path d="M22.748 156.146C23.9482 156.146 24.8865 156.572 25.5627 157.43C26.3699 158.445 26.7714 160.127 26.7714 162.476C26.7714 164.822 26.3656 166.504 25.5542 167.531C24.8822 168.376 23.9482 168.799 22.748 168.799C21.5435 168.799 20.5715 168.334 19.8319 167.408C19.0923 166.483 18.7246 164.83 18.7246 162.451C18.7246 160.118 19.1303 158.44 19.9418 157.413C20.6137 156.568 21.5477 156.146 22.748 156.146ZM22.748 158.115C22.4606 158.115 22.2028 158.208 21.9788 158.39C21.7548 158.571 21.5773 158.901 21.4548 159.374C21.2899 159.987 21.2096 161.023 21.2096 162.476C21.2096 163.93 21.2815 164.928 21.4294 165.473C21.5773 166.018 21.759 166.377 21.983 166.559C22.207 166.741 22.4606 166.829 22.748 166.829C23.0354 166.829 23.2932 166.736 23.5172 166.555C23.7411 166.373 23.9187 166.043 24.0412 165.57C24.206 164.961 24.2863 163.93 24.2863 162.476C24.2863 161.023 24.2145 160.025 24.0666 159.48C23.9187 158.935 23.7369 158.571 23.5129 158.39C23.2889 158.208 23.0354 158.115 22.748 158.115Z" fill="#CCCCCC"/>
<path d="M31.0918 156.44H33.3571" stroke="#CCCCCC" stroke-width="0.540958" stroke-miterlimit="3.25"/>
<path d="M31.0918 150.786H33.3571" stroke="#CCCCCC" stroke-width="0.540958" stroke-miterlimit="3.25"/>
<path d="M31.0918 145.131H33.3571" stroke="#CCCCCC" stroke-width="0.540958" stroke-miterlimit="3.25"/>
<path d="M31.0918 139.477H33.3571" stroke="#CCCCCC" stroke-width="0.540958" stroke-miterlimit="3.25"/>
<path d="M31.0918 133.822H34.8658" stroke="#CCCCCC" stroke-width="0.540958" stroke-miterlimit="3.25"/>
<path d="M9.10547 130.297V128.091H17.2283V129.815C16.5563 130.474 15.8759 131.421 15.1828 132.655C14.4897 133.889 13.9614 135.199 13.598 136.59C13.2345 137.98 13.057 139.218 13.0612 140.313H10.7706C10.8086 138.601 11.1636 136.852 11.8314 135.073C12.4991 133.293 13.3909 131.7 14.5066 130.297H9.10547Z" fill="#CCCCCC"/>
<path d="M22.748 127.871C23.9482 127.871 24.8865 128.298 25.5627 129.156C26.3699 130.17 26.7714 131.852 26.7714 134.202C26.7714 136.548 26.3656 138.23 25.5542 139.257C24.8822 140.102 23.9482 140.524 22.748 140.524C21.5435 140.524 20.5715 140.06 19.8319 139.134C19.0923 138.208 18.7246 136.556 18.7246 134.177C18.7246 131.844 19.1303 130.166 19.9418 129.139C20.6137 128.294 21.5477 127.871 22.748 127.871ZM22.748 129.841C22.4606 129.841 22.2028 129.933 21.9788 130.115C21.7548 130.297 21.5773 130.627 21.4548 131.1C21.2899 131.713 21.2096 132.748 21.2096 134.202C21.2096 135.656 21.2815 136.653 21.4294 137.198C21.5773 137.744 21.759 138.103 21.983 138.285C22.207 138.466 22.4606 138.555 22.748 138.555C23.0354 138.555 23.2932 138.462 23.5172 138.28C23.7411 138.099 23.9187 137.769 24.0412 137.296C24.206 136.687 24.2863 135.656 24.2863 134.202C24.2863 132.748 24.2145 131.751 24.0666 131.206C23.9187 130.66 23.7369 130.297 23.5129 130.115C23.2889 129.933 23.0354 129.841 22.748 129.841Z" fill="#CCCCCC"/>
<path d="M31.0918 128.166H33.3571" stroke="#CCCCCC" stroke-width="0.540958" stroke-miterlimit="3.25"/>
<path d="M31.0918 122.513H33.3571" stroke="#CCCCCC" stroke-width="0.540958" stroke-miterlimit="3.25"/>
<path d="M31.0918 116.858H33.3571" stroke="#CCCCCC" stroke-width="0.540958" stroke-miterlimit="3.25"/>
<path d="M31.0918 111.203H33.3571" stroke="#CCCCCC" stroke-width="0.540958" stroke-miterlimit="3.25"/>
<path d="M31.0918 105.549H34.8658" stroke="#CCCCCC" stroke-width="0.540958" stroke-miterlimit="3.25"/>
<path d="M11.1412 105.352C10.5284 105.094 10.0804 104.735 9.80145 104.283C9.52252 103.83 9.38305 103.332 9.38305 102.791C9.38305 101.865 9.70425 101.104 10.3509 100.5C10.9975 99.8958 11.9146 99.5957 13.1021 99.5957C14.2813 99.5957 15.1941 99.8958 15.845 100.5C16.4958 101.104 16.8212 101.865 16.8212 102.791C16.8212 103.366 16.6733 103.877 16.3732 104.325C16.0732 104.773 15.6548 105.115 15.1138 105.352C15.8027 105.627 16.3225 106.032 16.6818 106.561C17.041 107.089 17.2185 107.702 17.2185 108.395C17.2185 109.54 16.855 110.47 16.1239 111.184C15.3928 111.898 14.425 112.258 13.212 112.258C12.0836 112.258 11.1454 111.962 10.3973 111.37C9.51407 110.673 9.07031 109.713 9.07031 108.496C9.07031 107.824 9.23513 107.211 9.56901 106.649C9.90288 106.087 10.4269 105.656 11.1412 105.352ZM11.6314 102.96C11.6314 103.433 11.7666 103.801 12.0329 104.067C12.2992 104.333 12.6584 104.464 13.1021 104.464C13.5543 104.464 13.9136 104.329 14.1841 104.063C14.4545 103.797 14.5898 103.425 14.5898 102.951C14.5898 102.508 14.4545 102.148 14.1883 101.882C13.922 101.616 13.567 101.481 13.1275 101.481C12.6711 101.481 12.3076 101.616 12.0371 101.886C11.7666 102.157 11.6314 102.516 11.6314 102.96ZM11.4116 108.268C11.4116 108.923 11.5807 109.43 11.9146 109.798C12.2484 110.166 12.6668 110.347 13.1698 110.347C13.66 110.347 14.0657 110.17 14.3869 109.819C14.7081 109.468 14.8687 108.957 14.8687 108.293C14.8687 107.714 14.7039 107.245 14.3785 106.894C14.053 106.544 13.6389 106.366 13.1359 106.366C12.557 106.366 12.1217 106.565 11.8385 106.966C11.5553 107.368 11.4116 107.799 11.4116 108.268Z" fill="#CCCCCC"/>
<path d="M22.748 99.5957C23.9482 99.5957 24.8865 100.023 25.5627 100.88C26.3699 101.895 26.7714 103.577 26.7714 105.927C26.7714 108.272 26.3656 109.954 25.5542 110.981C24.8822 111.826 23.9482 112.249 22.748 112.249C21.5435 112.249 20.5715 111.784 19.8319 110.859C19.0923 109.933 18.7246 108.281 18.7246 105.901C18.7246 103.568 19.1303 101.891 19.9418 100.864C20.6137 100.018 21.5477 99.5957 22.748 99.5957ZM22.748 101.565C22.4606 101.565 22.2028 101.658 21.9788 101.84C21.7548 102.022 21.5773 102.351 21.4548 102.825C21.2899 103.437 21.2096 104.473 21.2096 105.927C21.2096 107.38 21.2815 108.378 21.4294 108.923C21.5773 109.468 21.759 109.827 21.983 110.009C22.207 110.191 22.4606 110.28 22.748 110.28C23.0354 110.28 23.2932 110.187 23.5172 110.005C23.7411 109.823 23.9187 109.494 24.0412 109.02C24.206 108.412 24.2863 107.38 24.2863 105.927C24.2863 104.473 24.2145 103.475 24.0666 102.93C23.9187 102.385 23.7369 102.022 23.5129 101.84C23.2889 101.658 23.0354 101.565 22.748 101.565Z" fill="#CCCCCC"/>
<path d="M31.0918 99.8945H33.3571" stroke="#CCCCCC" stroke-width="0.540958" stroke-miterlimit="3.25"/>
<path d="M31.0918 94.2344H33.3571" stroke="#CCCCCC" stroke-width="0.540958" stroke-miterlimit="3.25"/>
<path d="M31.0918 88.5791H33.3571" stroke="#CCCCCC" stroke-width="0.540958" stroke-miterlimit="3.25"/>
<path d="M31.0918 82.9248H33.3571" stroke="#CCCCCC" stroke-width="0.540958" stroke-miterlimit="3.25"/>
<path d="M31.0918 77.2705H34.8658" stroke="#CCCCCC" stroke-width="0.540958" stroke-miterlimit="3.25"/>
<path d="M9.15464 80.8979L11.4537 80.6444C11.5087 81.1135 11.6566 81.46 11.8932 81.684C12.1299 81.908 12.4426 82.0221 12.8315 82.0221C13.3217 82.0221 13.7401 81.7981 14.0824 81.3459C14.4248 80.8937 14.6445 79.9597 14.7417 78.5397C14.1458 79.2328 13.3978 79.5794 12.5018 79.5794C11.5256 79.5794 10.6845 79.2032 9.97875 78.4509C9.27297 77.6987 8.91797 76.7182 8.91797 75.5137C8.91797 74.2585 9.28988 73.2442 10.0379 72.4751C10.786 71.7059 11.7369 71.3213 12.8906 71.3213C14.1458 71.3213 15.177 71.8073 15.9842 72.7793C16.7914 73.7514 17.1929 75.3489 17.1929 77.5761C17.1929 79.8414 16.7745 81.4769 15.9335 82.4785C15.0925 83.4802 14.0021 83.9831 12.654 83.9831C11.6862 83.9831 10.9001 83.7253 10.3042 83.2097C9.70827 82.6941 9.32369 81.9249 9.15464 80.8979ZM14.5304 75.7081C14.5304 74.9432 14.3529 74.3473 14.0021 73.9246C13.6514 73.502 13.2414 73.2907 12.7807 73.2907C12.3412 73.2907 11.9778 73.464 11.6862 73.8105C11.3945 74.1571 11.2509 74.7234 11.2509 75.5137C11.2509 76.3125 11.4072 76.8999 11.7242 77.2761C12.0412 77.6522 12.4342 77.8381 12.9075 77.8381C13.364 77.8381 13.7486 77.6564 14.0613 77.2972C14.374 76.938 14.5304 76.4054 14.5304 75.7081Z" fill="#CCCCCC"/>
<path d="M22.748 71.3213C23.9482 71.3213 24.8865 71.7481 25.5627 72.6061C26.3699 73.6204 26.7714 75.3024 26.7714 77.6522C26.7714 79.9977 26.3656 81.6798 25.5542 82.7068C24.8822 83.552 23.9482 83.9746 22.748 83.9746C21.5435 83.9746 20.5715 83.5097 19.8319 82.5842C19.0923 81.6587 18.7246 80.0062 18.7246 77.6268C18.7246 75.2939 19.1303 73.6161 19.9418 72.5892C20.6137 71.7439 21.5477 71.3213 22.748 71.3213ZM22.748 73.2907C22.4606 73.2907 22.2028 73.3837 21.9788 73.5654C21.7548 73.7471 21.5773 74.0768 21.4548 74.5501C21.2899 75.1629 21.2096 76.1984 21.2096 77.6522C21.2096 79.106 21.2815 80.1034 21.4294 80.6486C21.5773 81.1938 21.759 81.553 21.983 81.7347C22.207 81.9165 22.4606 82.0052 22.748 82.0052C23.0354 82.0052 23.2932 81.9122 23.5172 81.7305C23.7411 81.5488 23.9187 81.2191 24.0412 80.7458C24.206 80.1372 24.2863 79.106 24.2863 77.6522C24.2863 76.1984 24.2145 75.201 24.0666 74.6558C23.9187 74.1106 23.7369 73.7471 23.5129 73.5654C23.2889 73.3837 23.0354 73.2907 22.748 73.2907Z" fill="#CCCCCC"/>
<path d="M31.0918 71.6152H33.3571" stroke="#CCCCCC" stroke-width="0.540958" stroke-miterlimit="3.25"/>
<path d="M31.0918 65.9609H33.3571" stroke="#CCCCCC" stroke-width="0.540958" stroke-miterlimit="3.25"/>
<path d="M31.0918 60.3057H33.3571" stroke="#CCCCCC" stroke-width="0.540958" stroke-miterlimit="3.25"/>
<path d="M31.0918 54.6504H33.3571" stroke="#CCCCCC" stroke-width="0.540958" stroke-miterlimit="3.25"/>
<path d="M31.0918 48.9961H34.8658" stroke="#CCCCCC" stroke-width="0.540958" stroke-miterlimit="3.25"/>
<path d="M5.44339 55.4889H3.06825V46.5377C2.20187 47.3492 1.17912 47.9493 0 48.3381V46.1827C0.621257 45.9799 1.29323 45.5953 2.02014 45.029C2.74705 44.4627 3.24575 43.8034 3.51623 43.0469H5.44339V55.4889Z" fill="#CCCCCC"/>
<path d="M13.0078 43.0469C14.208 43.0469 15.1462 43.4737 15.8224 44.3317C16.6296 45.3459 17.0311 47.028 17.0311 49.3778C17.0311 51.7233 16.6254 53.4054 15.814 54.4324C15.142 55.2776 14.208 55.7002 13.0078 55.7002C11.8033 55.7002 10.8312 55.2353 10.0916 54.3098C9.35206 53.3842 8.98438 51.7318 8.98438 49.3524C8.98438 47.0195 9.39009 45.3417 10.2015 44.3147C10.8735 43.4695 11.8075 43.0469 13.0078 43.0469ZM13.0078 45.0163C12.7204 45.0163 12.4626 45.1093 12.2386 45.291C12.0146 45.4727 11.8371 45.8024 11.7145 46.2757C11.5497 46.8885 11.4694 47.9239 11.4694 49.3778C11.4694 50.8316 11.5412 51.829 11.6892 52.3742C11.8371 52.9194 12.0188 53.2786 12.2428 53.4603C12.4668 53.642 12.7204 53.7308 13.0078 53.7308C13.2951 53.7308 13.5529 53.6378 13.7769 53.4561C14.0009 53.2744 14.1784 52.9447 14.301 52.4714C14.4658 51.8628 14.5461 50.8316 14.5461 49.3778C14.5461 47.9239 14.4743 46.9266 14.3263 46.3814C14.1784 45.8362 13.9967 45.4727 13.7727 45.291C13.5487 45.1093 13.2951 45.0163 13.0078 45.0163Z" fill="#CCCCCC"/>
<path d="M22.6347 43.0469C23.835 43.0469 24.7732 43.4737 25.4494 44.3317C26.2566 45.3459 26.6581 47.028 26.6581 49.3778C26.6581 51.7233 26.2524 53.4054 25.4409 54.4324C24.769 55.2776 23.835 55.7002 22.6347 55.7002C21.4302 55.7002 20.4582 55.2353 19.7186 54.3098C18.979 53.3842 18.6113 51.7318 18.6113 49.3524C18.6113 47.0195 19.017 45.3417 19.8285 44.3147C20.5005 43.4695 21.4345 43.0469 22.6347 43.0469ZM22.6347 45.0163C22.3473 45.0163 22.0895 45.1093 21.8655 45.291C21.6415 45.4727 21.464 45.8024 21.3415 46.2757C21.1767 46.8885 21.0964 47.9239 21.0964 49.3778C21.0964 50.8316 21.1682 51.829 21.3161 52.3742C21.464 52.9194 21.6458 53.2786 21.8698 53.4603C22.0937 53.642 22.3473 53.7308 22.6347 53.7308C22.9221 53.7308 23.1799 53.6378 23.4039 53.4561C23.6279 53.2744 23.8054 52.9447 23.9279 52.4714C24.0928 51.8628 24.1731 50.8316 24.1731 49.3778C24.1731 47.9239 24.1012 46.9266 23.9533 46.3814C23.8054 45.8362 23.6236 45.4727 23.3997 45.291C23.1757 45.1093 22.9221 45.0163 22.6347 45.0163Z" fill="#CCCCCC"/>
<path d="M31.0918 48.9961V52.7743" stroke="#CCCCCC" stroke-width="0.540958" stroke-miterlimit="3.25"/>
<path d="M43.9004 48.9961V51.2614" stroke="#CCCCCC" stroke-width="0.540958" stroke-miterlimit="3.25"/>
<path d="M56.7109 48.9961V51.2614" stroke="#CCCCCC" stroke-width="0.540958" stroke-miterlimit="3.25"/>
<path d="M69.5195 48.9961V51.2614" stroke="#CCCCCC" stroke-width="0.540958" stroke-miterlimit="3.25"/>
<path d="M82.3281 48.9961V51.2614" stroke="#CCCCCC" stroke-width="0.540958" stroke-miterlimit="3.25"/>
<path d="M95.1387 48.9961V52.7743" stroke="#CCCCCC" stroke-width="0.540958" stroke-miterlimit="3.25"/>
<path d="M107.949 48.9961V51.2614" stroke="#CCCCCC" stroke-width="0.540958" stroke-miterlimit="3.25"/>
<path d="M120.756 48.9961V51.2614" stroke="#CCCCCC" stroke-width="0.540958" stroke-miterlimit="3.25"/>
<path d="M133.568 48.9961V51.2614" stroke="#CCCCCC" stroke-width="0.540958" stroke-miterlimit="3.25"/>
<path d="M146.379 48.9961V51.2614" stroke="#CCCCCC" stroke-width="0.540958" stroke-miterlimit="3.25"/>
<path d="M159.188 48.9961V52.7743" stroke="#CCCCCC" stroke-width="0.540958" stroke-miterlimit="3.25"/>
<path d="M171.998 48.9961V51.2614" stroke="#CCCCCC" stroke-width="0.540958" stroke-miterlimit="3.25"/>
<path d="M184.809 48.9961V51.2614" stroke="#CCCCCC" stroke-width="0.540958" stroke-miterlimit="3.25"/>
<path d="M197.617 48.9961V51.2614" stroke="#CCCCCC" stroke-width="0.540958" stroke-miterlimit="3.25"/>
<path d="M210.426 48.9961V51.2614" stroke="#CCCCCC" stroke-width="0.540958" stroke-miterlimit="3.25"/>
<path d="M223.236 48.9961V52.7743" stroke="#CCCCCC" stroke-width="0.540958" stroke-miterlimit="3.25"/>
<path d="M236.047 48.9961V51.2614" stroke="#CCCCCC" stroke-width="0.540958" stroke-miterlimit="3.25"/>
<path d="M248.859 48.9961V51.2614" stroke="#CCCCCC" stroke-width="0.540958" stroke-miterlimit="3.25"/>
<path d="M261.668 48.9961V51.2614" stroke="#CCCCCC" stroke-width="0.540958" stroke-miterlimit="3.25"/>
<path d="M274.479 48.9961V51.2614" stroke="#CCCCCC" stroke-width="0.540958" stroke-miterlimit="3.25"/>
<path d="M287.289 48.9961V52.7743" stroke="#CCCCCC" stroke-width="0.540958" stroke-miterlimit="3.25"/>
<path d="M300.098 48.9961V51.2614" stroke="#CCCCCC" stroke-width="0.540958" stroke-miterlimit="3.25"/>
<path d="M312.908 48.9961V51.2614" stroke="#CCCCCC" stroke-width="0.540958" stroke-miterlimit="3.25"/>
<path d="M325.719 48.9961V51.2614" stroke="#CCCCCC" stroke-width="0.540958" stroke-miterlimit="3.25"/>
<path d="M338.527 48.9961V51.2614" stroke="#CCCCCC" stroke-width="0.540958" stroke-miterlimit="3.25"/>
<path d="M351.338 48.9961V52.7743" stroke="#CCCCCC" stroke-width="0.540958" stroke-miterlimit="3.25"/>
<path d="M351.339 246.92H347.561" stroke="#CCCCCC" stroke-width="0.540958" stroke-miterlimit="3.25"/>
<path d="M351.338 241.265H349.072" stroke="#CCCCCC" stroke-width="0.540958" stroke-miterlimit="3.25"/>
<path d="M351.338 235.61H349.072" stroke="#CCCCCC" stroke-width="0.540958" stroke-miterlimit="3.25"/>
<path d="M351.338 229.956H349.072" stroke="#CCCCCC" stroke-width="0.540958" stroke-miterlimit="3.25"/>
<path d="M351.338 224.301H349.072" stroke="#CCCCCC" stroke-width="0.540958" stroke-miterlimit="3.25"/>
<path d="M351.339 218.646H347.561" stroke="#CCCCCC" stroke-width="0.540958" stroke-miterlimit="3.25"/>
<path d="M351.338 212.991H349.072" stroke="#CCCCCC" stroke-width="0.540958" stroke-miterlimit="3.25"/>
<path d="M351.338 207.337H349.072" stroke="#CCCCCC" stroke-width="0.540958" stroke-miterlimit="3.25"/>
<path d="M351.338 201.683H349.072" stroke="#CCCCCC" stroke-width="0.540958" stroke-miterlimit="3.25"/>
<path d="M351.338 196.028H349.072" stroke="#CCCCCC" stroke-width="0.540958" stroke-miterlimit="3.25"/>
<path d="M351.339 190.374H347.561" stroke="#CCCCCC" stroke-width="0.540958" stroke-miterlimit="3.25"/>
<path d="M351.338 184.714H349.072" stroke="#CCCCCC" stroke-width="0.540958" stroke-miterlimit="3.25"/>
<path d="M351.338 179.06H349.072" stroke="#CCCCCC" stroke-width="0.540958" stroke-miterlimit="3.25"/>
<path d="M351.338 173.405H349.072" stroke="#CCCCCC" stroke-width="0.540958" stroke-miterlimit="3.25"/>
<path d="M351.338 167.75H349.072" stroke="#CCCCCC" stroke-width="0.540958" stroke-miterlimit="3.25"/>
<path d="M351.339 162.095H347.561" stroke="#CCCCCC" stroke-width="0.540958" stroke-miterlimit="3.25"/>
<path d="M351.338 156.44H349.072" stroke="#CCCCCC" stroke-width="0.540958" stroke-miterlimit="3.25"/>
<path d="M351.338 150.786H349.072" stroke="#CCCCCC" stroke-width="0.540958" stroke-miterlimit="3.25"/>
<path d="M351.338 145.131H349.072" stroke="#CCCCCC" stroke-width="0.540958" stroke-miterlimit="3.25"/>
<path d="M351.338 139.477H349.072" stroke="#CCCCCC" stroke-width="0.540958" stroke-miterlimit="3.25"/>
<path d="M351.339 133.822H347.561" stroke="#CCCCCC" stroke-width="0.540958" stroke-miterlimit="3.25"/>
<path d="M351.338 128.166H349.072" stroke="#CCCCCC" stroke-width="0.540958" stroke-miterlimit="3.25"/>
<path d="M351.338 122.513H349.072" stroke="#CCCCCC" stroke-width="0.540958" stroke-miterlimit="3.25"/>
<path d="M351.338 116.858H349.072" stroke="#CCCCCC" stroke-width="0.540958" stroke-miterlimit="3.25"/>
<path d="M351.338 111.203H349.072" stroke="#CCCCCC" stroke-width="0.540958" stroke-miterlimit="3.25"/>
<path d="M351.339 105.549H347.561" stroke="#CCCCCC" stroke-width="0.540958" stroke-miterlimit="3.25"/>
<path d="M351.338 99.8945H349.072" stroke="#CCCCCC" stroke-width="0.540958" stroke-miterlimit="3.25"/>
<path d="M351.338 94.2344H349.072" stroke="#CCCCCC" stroke-width="0.540958" stroke-miterlimit="3.25"/>
<path d="M351.338 88.5791H349.072" stroke="#CCCCCC" stroke-width="0.540958" stroke-miterlimit="3.25"/>
<path d="M351.338 82.9248H349.072" stroke="#CCCCCC" stroke-width="0.540958" stroke-miterlimit="3.25"/>
<path d="M351.339 77.2705H347.561" stroke="#CCCCCC" stroke-width="0.540958" stroke-miterlimit="3.25"/>
<path d="M351.338 71.6152H349.072" stroke="#CCCCCC" stroke-width="0.540958" stroke-miterlimit="3.25"/>
<path d="M351.338 65.9609H349.072" stroke="#CCCCCC" stroke-width="0.540958" stroke-miterlimit="3.25"/>
<path d="M351.338 60.3057H349.072" stroke="#CCCCCC" stroke-width="0.540958" stroke-miterlimit="3.25"/>
<path d="M351.338 54.6504H349.072" stroke="#CCCCCC" stroke-width="0.540958" stroke-miterlimit="3.25"/>
<path d="M351.339 48.9961H347.561" stroke="#CCCCCC" stroke-width="0.540958" stroke-miterlimit="3.25"/>
<path d="M112.007 292.361L109.049 279.97H111.61L113.478 288.481L115.743 279.97H118.718L120.891 288.625L122.793 279.97H125.311L122.302 292.361H119.648L117.18 283.097L114.72 292.361H112.007Z" fill="#CCCCCC"/>
<path d="M126.457 282.167V279.97H128.832V282.167H126.457ZM126.457 292.361V283.385H128.832V292.361H126.457Z" fill="#CCCCCC"/>
<path d="M139.539 292.361H137.333V291.042C136.965 291.554 136.534 291.938 136.035 292.188C135.536 292.437 135.033 292.564 134.526 292.564C133.495 292.564 132.612 292.15 131.876 291.317C131.141 290.485 130.773 289.327 130.773 287.839C130.773 286.318 131.133 285.16 131.847 284.369C132.561 283.579 133.466 283.182 134.56 283.182C135.562 283.182 136.432 283.6 137.164 284.433V279.97H139.539V292.361ZM133.199 287.678C133.199 288.638 133.33 289.331 133.597 289.758C133.981 290.379 134.514 290.687 135.203 290.687C135.748 290.687 136.213 290.455 136.597 289.99C136.982 289.525 137.172 288.832 137.172 287.907C137.172 286.875 136.986 286.132 136.614 285.679C136.242 285.227 135.765 284.999 135.186 284.999C134.624 284.999 134.15 285.223 133.77 285.671C133.389 286.119 133.199 286.787 133.199 287.678Z" fill="#CCCCCC"/>
<path d="M146.032 283.384V285.277H144.41V288.895C144.41 289.626 144.426 290.053 144.456 290.175C144.486 290.298 144.557 290.395 144.667 290.475C144.777 290.555 144.912 290.593 145.069 290.593C145.289 290.593 145.606 290.517 146.024 290.365L146.227 292.208C145.673 292.445 145.048 292.563 144.35 292.563C143.923 292.563 143.535 292.491 143.192 292.347C142.85 292.204 142.596 292.018 142.436 291.79C142.275 291.561 142.165 291.253 142.102 290.864C142.051 290.589 142.026 290.031 142.026 289.19V285.277H140.936V283.384H142.026V281.6L144.41 280.214V283.384H146.032Z" fill="#CCCCCC"/>
<path d="M150.086 279.97V284.526C150.851 283.63 151.768 283.182 152.833 283.182C153.378 283.182 153.873 283.283 154.312 283.486C154.752 283.689 155.081 283.947 155.305 284.264C155.529 284.581 155.682 284.927 155.762 285.312C155.842 285.696 155.884 286.288 155.884 287.095V292.361H153.509V287.619C153.509 286.677 153.463 286.081 153.374 285.827C153.285 285.574 153.125 285.371 152.897 285.223C152.668 285.075 152.381 284.999 152.039 284.999C151.646 284.999 151.291 285.096 150.982 285.286C150.674 285.477 150.445 285.768 150.302 286.153C150.158 286.537 150.086 287.108 150.086 287.864V292.361H147.711V279.97H150.086Z" fill="#CCCCCC"/>
<path d="M161.613 287.746C161.613 286.956 161.808 286.195 162.197 285.455C162.585 284.716 163.135 284.154 163.849 283.765C164.563 283.376 165.358 283.182 166.237 283.182C167.593 283.182 168.709 283.621 169.576 284.504C170.442 285.388 170.877 286.499 170.877 287.847C170.877 289.204 170.438 290.332 169.563 291.224C168.688 292.116 167.585 292.564 166.254 292.564C165.43 292.564 164.648 292.378 163.9 292.006C163.152 291.634 162.585 291.089 162.197 290.37C161.808 289.652 161.613 288.777 161.613 287.746ZM164.048 287.873C164.048 288.764 164.259 289.445 164.682 289.918C165.104 290.392 165.624 290.628 166.245 290.628C166.866 290.628 167.386 290.392 167.805 289.918C168.223 289.445 168.434 288.756 168.434 287.856C168.434 286.977 168.223 286.301 167.805 285.827C167.386 285.354 166.866 285.117 166.245 285.117C165.624 285.117 165.104 285.354 164.682 285.827C164.259 286.301 164.048 286.981 164.048 287.873Z" fill="#CCCCCC"/>
<path d="M171.697 283.385H173.016V282.709C173.016 281.952 173.096 281.39 173.257 281.018C173.417 280.646 173.713 280.342 174.144 280.11C174.575 279.877 175.121 279.759 175.78 279.759C176.456 279.759 177.12 279.86 177.766 280.063L177.445 281.72C177.069 281.631 176.705 281.585 176.355 281.585C176.012 281.585 175.763 281.665 175.615 281.825C175.467 281.986 175.391 282.295 175.391 282.751V283.385H177.166V285.253H175.391V292.361H173.016V285.253H171.697V283.385Z" fill="#CCCCCC"/>
<path d="M194.992 292.361H192.27L191.189 289.546H186.235L185.213 292.361H182.559L187.385 279.97H190.031L194.992 292.361ZM190.386 287.459L188.678 282.86L187.005 287.459H190.386Z" fill="#CCCCCC"/>
<path d="M202.211 292.36V291.016C201.886 291.494 201.454 291.874 200.922 292.149C200.389 292.424 199.827 292.563 199.236 292.563C198.631 292.563 198.09 292.432 197.613 292.166C197.135 291.9 196.789 291.528 196.573 291.05C196.358 290.573 196.252 289.909 196.252 289.064V283.384H198.627V287.509C198.627 288.772 198.669 289.546 198.758 289.829C198.847 290.112 199.003 290.34 199.236 290.505C199.468 290.67 199.76 290.754 200.115 290.754C200.52 290.754 200.884 290.644 201.205 290.42C201.526 290.196 201.746 289.922 201.864 289.592C201.983 289.262 202.042 288.455 202.042 287.17V283.384H204.417V292.36H202.211Z" fill="#CCCCCC"/>
<path d="M210.993 283.384V285.277H209.37V288.895C209.37 289.626 209.387 290.053 209.417 290.175C209.447 290.298 209.518 290.395 209.628 290.475C209.738 290.555 209.873 290.593 210.03 290.593C210.25 290.593 210.566 290.517 210.985 290.365L211.188 292.208C210.634 292.445 210.009 292.563 209.311 292.563C208.884 292.563 208.496 292.491 208.153 292.347C207.811 292.204 207.557 292.018 207.397 291.79C207.236 291.561 207.126 291.253 207.063 290.864C207.012 290.589 206.987 290.031 206.987 289.19V285.277H205.896V283.384H206.987V281.6L209.37 280.214V283.384H210.993Z" fill="#CCCCCC"/>
<path d="M212.094 287.745C212.094 286.955 212.288 286.194 212.677 285.454C213.066 284.715 213.615 284.153 214.329 283.764C215.044 283.375 215.838 283.181 216.717 283.181C218.074 283.181 219.19 283.62 220.056 284.503C220.922 285.387 221.358 286.498 221.358 287.846C221.358 289.203 220.918 290.331 220.043 291.223C219.168 292.115 218.065 292.563 216.734 292.563C215.91 292.563 215.128 292.377 214.38 292.005C213.632 291.633 213.066 291.088 212.677 290.369C212.288 289.651 212.094 288.776 212.094 287.745ZM214.528 287.872C214.528 288.764 214.739 289.444 215.162 289.917C215.585 290.391 216.104 290.627 216.726 290.627C217.347 290.627 217.867 290.391 218.285 289.917C218.704 289.444 218.915 288.755 218.915 287.855C218.915 286.976 218.704 286.3 218.285 285.826C217.867 285.353 217.347 285.116 216.726 285.116C216.104 285.116 215.585 285.353 215.162 285.826C214.739 286.3 214.528 286.98 214.528 287.872Z" fill="#CCCCCC"/>
<path d="M223.039 283.384H225.228V284.609C226.01 283.658 226.944 283.181 228.026 283.181C228.601 283.181 229.099 283.299 229.522 283.536C229.945 283.772 230.291 284.132 230.562 284.609C230.955 284.132 231.382 283.772 231.838 283.536C232.295 283.299 232.781 283.181 233.3 283.181C233.96 283.181 234.518 283.316 234.974 283.582C235.43 283.848 235.773 284.241 235.997 284.761C236.162 285.146 236.242 285.763 236.242 286.621V292.36H233.867V287.229C233.867 286.338 233.786 285.763 233.622 285.505C233.402 285.167 233.064 284.998 232.607 284.998C232.273 284.998 231.961 285.099 231.669 285.302C231.377 285.505 231.166 285.801 231.035 286.194C230.904 286.587 230.841 287.204 230.841 288.049V292.36H228.466V287.441C228.466 286.566 228.423 286.004 228.339 285.75C228.254 285.497 228.123 285.306 227.946 285.184C227.768 285.061 227.527 284.998 227.223 284.998C226.855 284.998 226.526 285.095 226.234 285.294C225.942 285.492 225.731 285.776 225.604 286.147C225.478 286.519 225.414 287.136 225.414 287.999V292.36H223.039V283.384Z" fill="#CCCCCC"/>
<path d="M240.385 286.122L238.229 285.733C238.47 284.867 238.889 284.225 239.48 283.806C240.072 283.388 240.951 283.181 242.118 283.181C243.178 283.181 243.964 283.307 244.484 283.557C245.004 283.806 245.368 284.127 245.579 284.512C245.79 284.897 245.896 285.607 245.896 286.638L245.871 289.41C245.871 290.2 245.909 290.779 245.985 291.156C246.061 291.532 246.204 291.933 246.411 292.36H244.062C243.998 292.204 243.922 291.967 243.833 291.658C243.795 291.519 243.766 291.426 243.749 291.38C243.343 291.773 242.908 292.068 242.447 292.267C241.987 292.466 241.492 292.563 240.968 292.563C240.043 292.563 239.316 292.314 238.783 291.811C238.251 291.308 237.984 290.674 237.984 289.909C237.984 289.402 238.107 288.949 238.348 288.552C238.589 288.155 238.931 287.851 239.366 287.639C239.802 287.428 240.431 287.242 241.255 287.086C242.367 286.879 243.136 286.684 243.563 286.502V286.266C243.563 285.809 243.449 285.484 243.225 285.29C243.001 285.095 242.574 284.998 241.949 284.998C241.526 284.998 241.196 285.082 240.96 285.247C240.723 285.412 240.533 285.704 240.385 286.122ZM243.563 288.049C243.259 288.151 242.777 288.273 242.118 288.413C241.458 288.552 241.027 288.692 240.824 288.827C240.516 289.047 240.36 289.326 240.36 289.664C240.36 289.998 240.482 290.285 240.731 290.526C240.981 290.767 241.294 290.889 241.678 290.889C242.105 290.889 242.515 290.75 242.904 290.467C243.191 290.251 243.381 289.989 243.47 289.681C243.533 289.478 243.563 289.093 243.563 288.523V288.049Z" fill="#CCCCCC"/>
<path d="M252.353 283.384V285.277H250.73V288.895C250.73 289.626 250.747 290.053 250.776 290.175C250.806 290.298 250.878 290.395 250.988 290.475C251.098 290.555 251.233 290.593 251.389 290.593C251.609 290.593 251.926 290.517 252.344 290.365L252.547 292.208C251.993 292.445 251.368 292.563 250.671 292.563C250.244 292.563 249.855 292.491 249.513 292.347C249.17 292.204 248.917 292.018 248.756 291.79C248.596 291.561 248.486 291.253 248.422 290.864C248.372 290.589 248.346 290.031 248.346 289.19V285.277H247.256V283.384H248.346V281.6L250.73 280.214V283.384H252.353Z" fill="#CCCCCC"/>
<path d="M253.451 287.745C253.451 286.955 253.646 286.194 254.034 285.454C254.423 284.715 254.973 284.153 255.687 283.764C256.401 283.375 257.196 283.181 258.075 283.181C259.431 283.181 260.547 283.62 261.413 284.503C262.28 285.387 262.715 286.498 262.715 287.846C262.715 289.203 262.276 290.331 261.401 291.223C260.526 292.115 259.423 292.563 258.092 292.563C257.267 292.563 256.486 292.377 255.738 292.005C254.99 291.633 254.423 291.088 254.034 290.369C253.646 289.651 253.451 288.776 253.451 287.745ZM255.885 287.872C255.885 288.764 256.097 289.444 256.519 289.917C256.942 290.391 257.462 290.627 258.083 290.627C258.704 290.627 259.224 290.391 259.643 289.917C260.061 289.444 260.272 288.755 260.272 287.855C260.272 286.976 260.061 286.3 259.643 285.826C259.224 285.353 258.704 285.116 258.083 285.116C257.462 285.116 256.942 285.353 256.519 285.826C256.097 286.3 255.885 286.98 255.885 287.872Z" fill="#CCCCCC"/>
<path d="M272.739 292.36H270.363V287.779C270.363 286.811 270.313 286.181 270.211 285.898C270.11 285.615 269.945 285.391 269.717 285.235C269.489 285.078 269.214 284.998 268.893 284.998C268.483 284.998 268.111 285.112 267.785 285.336C267.46 285.56 267.236 285.86 267.114 286.232C266.991 286.604 266.932 287.293 266.932 288.294V292.36H264.557V283.384H266.763V284.702C267.545 283.688 268.534 283.181 269.721 283.181C270.245 283.181 270.723 283.274 271.158 283.464C271.593 283.654 271.919 283.895 272.143 284.187C272.367 284.478 272.519 284.812 272.608 285.184C272.696 285.556 272.739 286.088 272.739 286.781V292.36Z" fill="#CCCCCC"/>
<path d="M128.608 35.6415L131.867 36.0388C131.922 36.4149 132.044 36.677 132.243 36.8164C132.513 37.0193 132.936 37.1207 133.519 37.1207C134.263 37.1207 134.821 37.0108 135.193 36.7869C135.442 36.6389 135.632 36.398 135.759 36.0684C135.848 35.8317 135.894 35.3964 135.894 34.7583V33.1861C135.041 34.3483 133.967 34.9315 132.665 34.9315C131.22 34.9315 130.075 34.3187 129.229 33.0974C128.566 32.1295 128.236 30.9251 128.236 29.4839C128.236 27.6793 128.667 26.3016 129.538 25.3464C130.409 24.3913 131.486 23.918 132.78 23.918C134.111 23.918 135.21 24.5012 136.076 25.6719V24.1589H138.743V33.8243C138.743 35.0964 138.637 36.0473 138.43 36.677C138.219 37.3067 137.923 37.7969 137.547 38.1562C137.166 38.5154 136.663 38.7943 136.03 38.9972C135.396 39.2 134.597 39.3015 133.629 39.3015C131.803 39.3015 130.51 38.9887 129.745 38.3632C128.98 37.7378 128.6 36.9474 128.6 35.9881C128.6 35.8909 128.604 35.7768 128.608 35.6415ZM131.157 29.3233C131.157 30.4644 131.376 31.3012 131.82 31.8337C132.264 32.362 132.809 32.6282 133.46 32.6282C134.157 32.6282 134.745 32.3578 135.222 31.8126C135.704 31.2674 135.945 30.4602 135.945 29.3952C135.945 28.2794 135.713 27.4511 135.252 26.9101C134.791 26.3692 134.212 26.0987 133.511 26.0987C132.826 26.0987 132.264 26.3607 131.82 26.8932C131.376 27.4257 131.157 28.233 131.157 29.3233Z" fill="#CCCCCC"/>
<path d="M141.482 24.1589H144.136V25.7437C144.483 25.2027 144.948 24.7632 145.54 24.4251C146.127 24.087 146.778 23.918 147.496 23.918C148.747 23.918 149.808 24.4082 150.679 25.3887C151.554 26.3692 151.989 27.7343 151.989 29.4839C151.989 31.2843 151.549 32.6832 150.67 33.6806C149.791 34.678 148.726 35.1767 147.475 35.1767C146.879 35.1767 146.343 35.0583 145.857 34.8217C145.375 34.585 144.863 34.1793 144.331 33.6045V39.031H141.482V24.1589ZM144.301 29.3614C144.301 30.5743 144.542 31.466 145.02 32.045C145.502 32.624 146.085 32.9114 146.774 32.9114C147.437 32.9114 147.991 32.6494 148.43 32.1169C148.87 31.5844 149.09 30.7138 149.09 29.5051C149.09 28.3766 148.861 27.5356 148.409 26.9904C147.957 26.441 147.395 26.1663 146.723 26.1663C146.026 26.1663 145.451 26.4368 144.99 26.9735C144.53 27.5103 144.301 28.309 144.301 29.3614Z" fill="#CCCCCC"/>
<path d="M159.19 24.1581V26.4318H157.242V30.7722C157.242 31.6512 157.259 32.1626 157.297 32.3105C157.335 32.4542 157.419 32.5725 157.55 32.6697C157.681 32.7627 157.842 32.8092 158.032 32.8092C158.294 32.8092 158.679 32.7205 159.177 32.5387L159.422 34.749C158.759 35.0322 158.007 35.1759 157.17 35.1759C156.654 35.1759 156.193 35.0871 155.779 34.9139C155.369 34.7406 155.065 34.5208 154.871 34.2461C154.681 33.9714 154.545 33.6037 154.473 33.1346C154.41 32.805 154.38 32.133 154.38 31.1272V26.4318H153.07V24.1581H154.38V22.0196L157.242 20.3545V24.1581H159.19Z" fill="#CCCCCC"/>
<path d="M170.395 31.0902H160.658V28.6348H170.395V31.0902Z" fill="#CCCCCC"/>
<path d="M178.211 34.9313V31.9391H172.125V29.4456L178.578 20H180.971V29.433H182.817V31.9391H180.971V34.9313H178.211ZM178.211 29.433V24.353L174.792 29.433H178.211Z" fill="#CCCCCC"/>
<path d="M184.783 34.9325V32.084H187.632V34.9325H184.783Z" fill="#CCCCCC"/>
<path d="M197.237 34.9313H194.388V24.1882C193.348 25.1645 192.119 25.8829 190.707 26.352V23.7656C191.451 23.5205 192.258 23.0598 193.129 22.3794C194.003 21.6989 194.599 20.9086 194.925 20H197.237V34.9313Z" fill="#CCCCCC"/>
<path d="M211.507 31.0902H201.77V28.6348H211.507V31.0902Z" fill="#CCCCCC"/>
<path d="M214.129 24.1589H216.758V25.6296C217.696 24.4885 218.816 23.918 220.113 23.918C220.802 23.918 221.402 24.0574 221.909 24.3406C222.417 24.6238 222.835 25.0548 223.156 25.6296C223.629 25.0548 224.141 24.628 224.69 24.3406C225.235 24.0574 225.823 23.918 226.444 23.918C227.234 23.918 227.906 24.0786 228.452 24.3998C229.001 24.721 229.411 25.1901 229.681 25.8113C229.876 26.272 229.973 27.0158 229.973 28.0428V34.9315H227.125V28.7739C227.125 27.7047 227.027 27.0158 226.829 26.7073C226.567 26.3016 226.161 26.0987 225.612 26.0987C225.214 26.0987 224.838 26.217 224.487 26.4622C224.137 26.7073 223.883 27.0623 223.727 27.5314C223.57 28.0005 223.494 28.7443 223.494 29.7586V34.9315H220.642V29.0275C220.642 27.9794 220.591 27.3032 220.489 26.9989C220.388 26.6946 220.232 26.4706 220.02 26.3185C219.805 26.1706 219.517 26.0987 219.15 26.0987C218.71 26.0987 218.317 26.217 217.966 26.4537C217.616 26.6904 217.362 27.0285 217.21 27.4765C217.058 27.9244 216.982 28.664 216.982 29.6995V34.9315H214.129V24.1589Z" fill="#CCCCCC"/>
<path d="M232.812 22.7006V20.0635H235.661V22.7006H232.812ZM232.812 34.9314V24.1587H235.661V34.9314H232.812Z" fill="#CCCCCC"/>
<path d="M248.38 34.9315H245.532V29.4332C245.532 28.271 245.468 27.5187 245.35 27.1764C245.227 26.8341 245.029 26.572 244.754 26.3819C244.479 26.1917 244.15 26.0987 243.765 26.0987C243.271 26.0987 242.831 26.2339 242.438 26.5044C242.045 26.7749 241.774 27.1299 241.631 27.5779C241.487 28.0259 241.411 28.85 241.411 30.0545V34.9315H238.562V24.1589H241.208V25.7437C242.151 24.5265 243.334 23.918 244.758 23.918C245.388 23.918 245.963 24.0279 246.482 24.2561C247.002 24.4843 247.4 24.7717 247.666 25.1224C247.932 25.4732 248.118 25.8747 248.224 26.3185C248.329 26.7665 248.38 27.4046 248.38 28.2372V34.9315Z" fill="#CCCCCC"/>
<path d="M251.273 22.7006V20.0635H254.122V22.7006H251.273ZM251.273 34.9314V24.1587H254.122V34.9314H251.273Z" fill="#CCCCCC"/>
</svg>
