<svg width="360" height="312" viewBox="0 0 360 312" fill="none" xmlns="http://www.w3.org/2000/svg">
<rect width="360" height="312" fill="white"/>
<mask id="mask0_11278_203243" style="mask-type:luminance" maskUnits="userSpaceOnUse" x="31" y="148" width="321" height="48">
<path d="M31.0059 148.551H351.426V195.073H31.0059V148.551Z" fill="white"/>
</mask>
<g mask="url(#mask0_11278_203243)">
<path d="M18.2832 184.52L31.0929 169.441L43.9026 180.987L56.7124 168.029L69.5221 178.633L82.3318 171.169L95.1415 158.837L107.951 169.956L120.761 162.725L133.571 177.272L146.38 176.612L159.19 168.498L172 170.235L184.81 165.531L197.619 168.811L210.429 160.587L223.239 170.501L236.048 163.317L248.862 166.744L261.672 170.793L274.482 169.5L287.291 172.551L300.101 167.754L312.911 164.885L325.721 176.612L338.53 167.298L351.34 167.201" stroke="#5E81B5" stroke-width="2.16383" stroke-miterlimit="3.25" stroke-linecap="square"/>
</g>
<mask id="mask1_11278_203243" style="mask-type:luminance" maskUnits="userSpaceOnUse" x="31" y="174" width="321" height="52">
<path d="M31.0059 174.517H351.426V225.367H31.0059V174.517Z" fill="white"/>
</mask>
<g mask="url(#mask1_11278_203243)">
<path d="M18.2832 184.52L31.0929 190.174L43.9026 208.085L56.7124 196.64L69.5221 204.548L82.3318 208.605L95.1415 205.258L107.951 214.509L120.761 192.376L133.571 207.722L146.38 204.717L159.19 196.459L172 205.727L184.81 188.957L197.619 212.797L210.429 203.373L223.239 197.245L236.048 197.984L248.862 204.658L261.672 213.82L274.482 192.177L287.291 192.625L300.101 201.741L312.911 197.612L325.721 206.906L338.53 201.906L351.34 206.513" stroke="#8778B3" stroke-width="2.16383" stroke-miterlimit="3.25" stroke-linecap="square"/>
</g>
<mask id="mask2_11278_203243" style="mask-type:luminance" maskUnits="userSpaceOnUse" x="31" y="140" width="321" height="98">
<path d="M31.0059 140.978H351.426V237.268H31.0059V140.978Z" fill="white"/>
</mask>
<g mask="url(#mask2_11278_203243)">
<path d="M18.2832 151.535L31.0929 178.866L43.9026 209.654L56.7124 207.41L69.5221 223.567L82.3318 193.945L95.1415 209.029L107.951 180.24L120.761 212.799L133.571 175.096L146.38 203.374L159.19 205.259L172 182.167L184.81 205.035L197.619 209.654L210.429 207.837L223.239 220.338L236.048 212.799L248.862 205.944L261.672 199.685L274.482 203.374L287.291 211.29L300.101 227.299L312.911 198.138L325.721 187.213L338.53 216.049L351.34 205.259" stroke="#88A731" stroke-width="2.16383" stroke-miterlimit="3.25" stroke-linecap="square"/>
</g>
<mask id="mask3_11278_203243" style="mask-type:luminance" maskUnits="userSpaceOnUse" x="31" y="136" width="321" height="121">
<path d="M31.0059 136.649H351.426V256.742H31.0059V136.649Z" fill="white"/>
</mask>
<g mask="url(#mask3_11278_203243)">
<path d="M18.2832 146.823L31.0929 175.097L43.9026 156.248L56.7124 215.491L69.5221 245.785L82.3318 225.364L95.1415 237.303L107.951 221.366L120.761 222.223L133.571 209.896L146.38 235.688L159.19 201.49L172 206.908L184.81 211.687L197.619 215.939L210.429 207.837L223.239 220.339L236.048 207.411L248.862 211.083L261.672 214.435L274.482 208.087L287.291 195.455L300.101 199.021L312.911 214.891L325.721 221.547L338.53 200.446L351.34 180.751" stroke="#EB6235" stroke-width="2.16383" stroke-miterlimit="3.25" stroke-linecap="square"/>
</g>
<path d="M152.266 176.106H182.331V161.872H152.266V176.106Z" fill="#FF5454" fill-opacity="0.0800031"/>
<path d="M152.91 175.456H181.678V162.52H152.91V175.456Z" stroke="#E19C24" stroke-width="1.08192" stroke-miterlimit="10" stroke-linecap="square"/>
<mask id="mask4_11278_203243" style="mask-type:luminance" maskUnits="userSpaceOnUse" x="31" y="230" width="321" height="3">
<path d="M31.0059 230.776H351.426V232.94H31.0059V230.776Z" fill="white"/>
</mask>
<g mask="url(#mask4_11278_203243)">
<path d="M740.915 231.647H-32.9551" stroke="#808080" stroke-width="1.08192" stroke-miterlimit="3.25" stroke-dasharray="3.2 3.2"/>
<path d="M740.915 231.647H-32.9551" stroke="#808080" stroke-width="1.08192" stroke-miterlimit="3.25" stroke-dasharray="3.2 3.2"/>
</g>
<mask id="mask5_11278_203243" style="mask-type:luminance" maskUnits="userSpaceOnUse" x="31" y="174" width="321" height="3">
<path d="M31.0059 174.517H351.426V176.68H31.0059V174.517Z" fill="white"/>
</mask>
<g mask="url(#mask5_11278_203243)">
<path d="M740.915 175.095H-32.9551" stroke="#808080" stroke-width="1.08192" stroke-miterlimit="3.25" stroke-dasharray="3.2 3.2"/>
<path d="M740.915 175.095H-32.9551" stroke="#808080" stroke-width="1.08192" stroke-miterlimit="3.25" stroke-dasharray="3.2 3.2"/>
</g>
<mask id="mask6_11278_203243" style="mask-type:luminance" maskUnits="userSpaceOnUse" x="31" y="202" width="321" height="3">
<path d="M31.0059 202.647H351.426V204.811H31.0059V202.647Z" fill="white"/>
</mask>
<g mask="url(#mask6_11278_203243)">
<path d="M740.915 203.375H-32.9551" stroke="#8778B3" stroke-width="1.08192" stroke-miterlimit="3.25" stroke-dasharray="3.2 3.2"/>
<path d="M740.915 203.375H-32.9551" stroke="#8778B3" stroke-width="1.08192" stroke-miterlimit="3.25" stroke-dasharray="3.2 3.2"/>
</g>
<path d="M351.337 259.92H31.0898" stroke="#CCCCCC" stroke-width="0.540958" stroke-miterlimit="3.25" stroke-linecap="square"/>
<path d="M31.0898 259.92V61.9971" stroke="#CCCCCC" stroke-width="0.540958" stroke-miterlimit="3.25" stroke-linecap="square"/>
<path d="M31.0898 61.9971H351.337" stroke="#CCCCCC" stroke-width="0.540958" stroke-miterlimit="3.25" stroke-linecap="square"/>
<path d="M351.338 61.9971V259.92" stroke="#CCCCCC" stroke-width="0.540958" stroke-miterlimit="3.25" stroke-linecap="square"/>
<path d="M31.0898 259.921V256.146" stroke="#CCCCCC" stroke-width="0.540958" stroke-miterlimit="3.25"/>
<path d="M26.9902 276.209L29.3569 275.963C29.4245 276.5 29.6232 276.923 29.9571 277.236C30.2909 277.548 30.6713 277.705 31.1066 277.705C31.6011 277.705 32.0237 277.502 32.366 277.1C32.7083 276.699 32.8816 276.09 32.8816 275.279C32.8816 274.518 32.7126 273.948 32.3702 273.567C32.0279 273.187 31.5842 272.997 31.039 272.997C30.3585 272.997 29.7457 273.297 29.2048 273.901L27.2776 273.622L28.4948 267.173H34.775V269.396H30.2951L29.9232 271.501C30.4515 271.234 30.9925 271.103 31.5461 271.103C32.5984 271.103 33.4944 271.488 34.2255 272.253C34.9567 273.018 35.3244 274.015 35.3244 275.237C35.3244 276.255 35.0285 277.168 34.4369 277.967C33.6296 279.061 32.5139 279.606 31.0812 279.606C29.9359 279.606 29.0061 279.298 28.2835 278.685C27.5608 278.072 27.1297 277.244 26.9902 276.209Z" fill="#CCCCCC"/>
<path d="M43.8984 259.921V257.655" stroke="#CCCCCC" stroke-width="0.540958" stroke-miterlimit="3.25"/>
<path d="M56.709 259.921V257.655" stroke="#CCCCCC" stroke-width="0.540958" stroke-miterlimit="3.25"/>
<path d="M69.5176 259.921V257.655" stroke="#CCCCCC" stroke-width="0.540958" stroke-miterlimit="3.25"/>
<path d="M82.3281 259.921V257.655" stroke="#CCCCCC" stroke-width="0.540958" stroke-miterlimit="3.25"/>
<path d="M95.1387 259.921V256.146" stroke="#CCCCCC" stroke-width="0.540958" stroke-miterlimit="3.25"/>
<path d="M92.2149 279.396H89.8397V270.445C88.9734 271.256 87.9506 271.857 86.7715 272.245V270.09C87.3927 269.887 88.0647 269.503 88.7916 268.936C89.5185 268.37 90.0172 267.711 90.2877 266.954H92.2149V279.396Z" fill="#CCCCCC"/>
<path d="M99.7773 266.954C100.978 266.954 101.916 267.381 102.592 268.239C103.399 269.253 103.801 270.935 103.801 273.285C103.801 275.631 103.395 277.313 102.584 278.34C101.912 279.185 100.978 279.607 99.7773 279.607C98.5728 279.607 97.6008 279.143 96.8612 278.217C96.1216 277.291 95.7539 275.639 95.7539 273.26C95.7539 270.927 96.1596 269.249 96.9711 268.222C97.643 267.377 98.577 266.954 99.7773 266.954ZM99.7773 268.924C99.4899 268.924 99.2321 269.017 99.0081 269.198C98.7841 269.38 98.6066 269.71 98.4841 270.183C98.3192 270.796 98.2389 271.831 98.2389 273.285C98.2389 274.739 98.3108 275.736 98.4587 276.281C98.6066 276.827 98.7883 277.186 99.0123 277.368C99.2363 277.549 99.4899 277.638 99.7773 277.638C100.065 277.638 100.322 277.545 100.546 277.363C100.77 277.182 100.948 276.852 101.071 276.379C101.235 275.77 101.316 274.739 101.316 273.285C101.316 271.831 101.244 270.834 101.096 270.289C100.948 269.743 100.766 269.38 100.542 269.198C100.318 269.017 100.065 268.924 99.7773 268.924Z" fill="#CCCCCC"/>
<path d="M107.951 259.921V257.655" stroke="#CCCCCC" stroke-width="0.540958" stroke-miterlimit="3.25"/>
<path d="M120.758 259.921V257.655" stroke="#CCCCCC" stroke-width="0.540958" stroke-miterlimit="3.25"/>
<path d="M133.568 259.921V257.655" stroke="#CCCCCC" stroke-width="0.540958" stroke-miterlimit="3.25"/>
<path d="M146.379 259.921V257.655" stroke="#CCCCCC" stroke-width="0.540958" stroke-miterlimit="3.25"/>
<path d="M159.186 259.921V256.146" stroke="#CCCCCC" stroke-width="0.540958" stroke-miterlimit="3.25"/>
<path d="M156.264 279.396H153.889V270.445C153.022 271.256 151.999 271.857 150.82 272.245V270.09C151.442 269.887 152.114 269.503 152.84 268.936C153.567 268.37 154.066 267.711 154.337 266.954H156.264V279.396Z" fill="#CCCCCC"/>
<path d="M159.848 276.209L162.214 275.963C162.282 276.5 162.481 276.923 162.814 277.236C163.148 277.548 163.529 277.705 163.964 277.705C164.458 277.705 164.881 277.502 165.223 277.1C165.566 276.699 165.739 276.09 165.739 275.279C165.739 274.518 165.57 273.948 165.228 273.567C164.885 273.187 164.442 272.997 163.896 272.997C163.216 272.997 162.603 273.297 162.062 273.901L160.135 273.622L161.352 267.173H167.632V269.396H163.153L162.781 271.501C163.309 271.234 163.85 271.103 164.404 271.103C165.456 271.103 166.352 271.488 167.083 272.253C167.814 273.018 168.182 274.015 168.182 275.237C168.182 276.255 167.886 277.168 167.294 277.967C166.487 279.061 165.371 279.606 163.939 279.606C162.793 279.606 161.864 279.298 161.141 278.685C160.418 278.072 159.987 277.244 159.848 276.209Z" fill="#CCCCCC"/>
<path d="M171.996 259.921V257.655" stroke="#CCCCCC" stroke-width="0.540958" stroke-miterlimit="3.25"/>
<path d="M184.807 259.921V257.655" stroke="#CCCCCC" stroke-width="0.540958" stroke-miterlimit="3.25"/>
<path d="M197.617 259.921V257.655" stroke="#CCCCCC" stroke-width="0.540958" stroke-miterlimit="3.25"/>
<path d="M210.426 259.921V257.655" stroke="#CCCCCC" stroke-width="0.540958" stroke-miterlimit="3.25"/>
<path d="M223.236 259.921V256.146" stroke="#CCCCCC" stroke-width="0.540958" stroke-miterlimit="3.25"/>
<path d="M222.257 277.19V279.396H213.932C214.02 278.564 214.291 277.773 214.743 277.025C215.195 276.277 216.083 275.288 217.414 274.054C218.483 273.057 219.143 272.381 219.383 272.026C219.709 271.535 219.874 271.049 219.874 270.572C219.874 270.043 219.73 269.634 219.447 269.35C219.164 269.067 218.771 268.924 218.268 268.924C217.773 268.924 217.376 269.071 217.084 269.372C216.793 269.672 216.624 270.166 216.577 270.859L214.211 270.622C214.35 269.317 214.794 268.378 215.538 267.808C216.281 267.237 217.211 266.954 218.327 266.954C219.548 266.954 220.512 267.284 221.209 267.943C221.907 268.602 222.257 269.422 222.257 270.403C222.257 270.961 222.156 271.493 221.957 271.996C221.759 272.499 221.442 273.027 221.006 273.581C220.719 273.949 220.199 274.473 219.451 275.161C218.703 275.85 218.225 276.307 218.027 276.531C217.828 276.755 217.663 276.975 217.541 277.19H222.257Z" fill="#CCCCCC"/>
<path d="M227.877 266.954C229.077 266.954 230.015 267.381 230.692 268.239C231.499 269.253 231.9 270.935 231.9 273.285C231.9 275.631 231.495 277.313 230.683 278.34C230.011 279.185 229.077 279.607 227.877 279.607C226.672 279.607 225.7 279.143 224.961 278.217C224.221 277.291 223.854 275.639 223.854 273.26C223.854 270.927 224.259 269.249 225.071 268.222C225.743 267.377 226.677 266.954 227.877 266.954ZM227.877 268.924C227.59 268.924 227.332 269.017 227.108 269.198C226.884 269.38 226.706 269.71 226.584 270.183C226.419 270.796 226.339 271.831 226.339 273.285C226.339 274.739 226.41 275.736 226.558 276.281C226.706 276.827 226.888 277.186 227.112 277.368C227.336 277.549 227.59 277.638 227.877 277.638C228.164 277.638 228.422 277.545 228.646 277.363C228.87 277.182 229.048 276.852 229.17 276.379C229.335 275.77 229.415 274.739 229.415 273.285C229.415 271.831 229.343 270.834 229.195 270.289C229.048 269.743 228.866 269.38 228.642 269.198C228.418 269.017 228.164 268.924 227.877 268.924Z" fill="#CCCCCC"/>
<path d="M236.045 259.921V257.655" stroke="#CCCCCC" stroke-width="0.540958" stroke-miterlimit="3.25"/>
<path d="M248.859 259.921V257.655" stroke="#CCCCCC" stroke-width="0.540958" stroke-miterlimit="3.25"/>
<path d="M261.668 259.921V257.655" stroke="#CCCCCC" stroke-width="0.540958" stroke-miterlimit="3.25"/>
<path d="M274.479 259.921V257.655" stroke="#CCCCCC" stroke-width="0.540958" stroke-miterlimit="3.25"/>
<path d="M287.289 259.921V256.146" stroke="#CCCCCC" stroke-width="0.540958" stroke-miterlimit="3.25"/>
<path d="M286.308 277.19V279.396H277.982C278.071 278.564 278.342 277.773 278.794 277.025C279.246 276.277 280.134 275.288 281.465 274.054C282.534 273.057 283.193 272.381 283.434 272.026C283.76 271.535 283.925 271.049 283.925 270.572C283.925 270.043 283.781 269.634 283.498 269.35C283.214 269.067 282.821 268.924 282.319 268.924C281.824 268.924 281.427 269.071 281.135 269.372C280.844 269.672 280.675 270.166 280.628 270.859L278.261 270.622C278.401 269.317 278.845 268.378 279.588 267.808C280.332 267.237 281.262 266.954 282.378 266.954C283.599 266.954 284.563 267.284 285.26 267.943C285.957 268.602 286.308 269.422 286.308 270.403C286.308 270.961 286.207 271.493 286.008 271.996C285.809 272.499 285.492 273.027 285.057 273.581C284.77 273.949 284.25 274.473 283.502 275.161C282.754 275.85 282.276 276.307 282.078 276.531C281.879 276.755 281.714 276.975 281.592 277.19H286.308Z" fill="#CCCCCC"/>
<path d="M287.949 276.209L290.316 275.963C290.384 276.5 290.582 276.923 290.916 277.236C291.25 277.548 291.63 277.705 292.066 277.705C292.56 277.705 292.983 277.502 293.325 277.1C293.667 276.699 293.841 276.09 293.841 275.279C293.841 274.518 293.672 273.948 293.329 273.567C292.987 273.187 292.543 272.997 291.998 272.997C291.318 272.997 290.705 273.297 290.164 273.901L288.237 273.622L289.454 267.173H295.734V269.396H291.254L290.882 271.501C291.411 271.234 291.951 271.103 292.505 271.103C293.557 271.103 294.453 271.488 295.185 272.253C295.916 273.018 296.283 274.015 296.283 275.237C296.283 276.255 295.988 277.168 295.396 277.967C294.589 279.061 293.473 279.606 292.04 279.606C290.895 279.606 289.965 279.298 289.242 278.685C288.52 278.072 288.089 277.244 287.949 276.209Z" fill="#CCCCCC"/>
<path d="M300.098 259.921V257.655" stroke="#CCCCCC" stroke-width="0.540958" stroke-miterlimit="3.25"/>
<path d="M312.908 259.921V257.655" stroke="#CCCCCC" stroke-width="0.540958" stroke-miterlimit="3.25"/>
<path d="M325.719 259.921V257.655" stroke="#CCCCCC" stroke-width="0.540958" stroke-miterlimit="3.25"/>
<path d="M338.527 259.921V257.655" stroke="#CCCCCC" stroke-width="0.540958" stroke-miterlimit="3.25"/>
<path d="M351.338 259.921V256.146" stroke="#CCCCCC" stroke-width="0.540958" stroke-miterlimit="3.25"/>
<path d="M342.25 276.108L344.549 275.829C344.621 276.417 344.82 276.865 345.141 277.173C345.462 277.482 345.851 277.638 346.307 277.638C346.797 277.638 347.212 277.452 347.545 277.08C347.879 276.708 348.048 276.205 348.048 275.576C348.048 274.98 347.888 274.506 347.567 274.156C347.245 273.805 346.852 273.632 346.392 273.632C346.087 273.632 345.724 273.691 345.301 273.809L345.563 271.873C346.206 271.89 346.696 271.751 347.034 271.455C347.372 271.159 347.541 270.766 347.541 270.276C347.541 269.858 347.419 269.528 347.169 269.279C346.92 269.029 346.59 268.907 346.18 268.907C345.775 268.907 345.428 269.046 345.141 269.329C344.853 269.612 344.68 270.022 344.617 270.563L342.428 270.191C342.58 269.443 342.808 268.843 343.116 268.395C343.425 267.947 343.852 267.596 344.401 267.339C344.951 267.081 345.568 266.954 346.248 266.954C347.414 266.954 348.348 267.326 349.054 268.07C349.633 268.678 349.925 269.367 349.925 270.132C349.925 271.218 349.329 272.089 348.141 272.736C348.851 272.888 349.418 273.23 349.845 273.758C350.271 274.287 350.483 274.929 350.483 275.677C350.483 276.763 350.085 277.693 349.291 278.458C348.496 279.223 347.507 279.607 346.324 279.607C345.204 279.607 344.274 279.286 343.535 278.64C342.795 277.993 342.368 277.152 342.25 276.108Z" fill="#CCCCCC"/>
<path d="M355.977 266.954C357.177 266.954 358.115 267.381 358.791 268.239C359.598 269.253 360 270.935 360 273.285C360 275.631 359.594 277.313 358.783 278.34C358.111 279.185 357.177 279.607 355.977 279.607C354.772 279.607 353.8 279.143 353.06 278.217C352.321 277.291 351.953 275.639 351.953 273.26C351.953 270.927 352.359 269.249 353.17 268.222C353.842 267.377 354.776 266.954 355.977 266.954ZM355.977 268.924C355.689 268.924 355.431 269.017 355.207 269.198C354.983 269.38 354.806 269.71 354.683 270.183C354.518 270.796 354.438 271.831 354.438 273.285C354.438 274.739 354.51 275.736 354.658 276.281C354.806 276.827 354.988 277.186 355.212 277.368C355.436 277.549 355.689 277.638 355.977 277.638C356.264 277.638 356.522 277.545 356.746 277.363C356.97 277.182 357.147 276.852 357.27 276.379C357.435 275.77 357.515 274.739 357.515 273.285C357.515 271.831 357.443 270.834 357.295 270.289C357.147 269.743 356.965 269.38 356.741 269.198C356.517 269.017 356.264 268.924 355.977 268.924Z" fill="#CCCCCC"/>
<path d="M31.0898 259.92H34.8639" stroke="#CCCCCC" stroke-width="0.540958" stroke-miterlimit="3.25"/>
<path d="M9.02148 263.125L11.3206 262.846C11.3924 263.433 11.591 263.881 11.9122 264.19C12.2334 264.498 12.6222 264.655 13.0787 264.655C13.5689 264.655 13.9831 264.469 14.317 264.097C14.6508 263.725 14.8199 263.222 14.8199 262.592C14.8199 261.996 14.6593 261.523 14.3381 261.172C14.0169 260.821 13.6239 260.648 13.1632 260.648C12.8589 260.648 12.4954 260.707 12.0728 260.826L12.3349 258.89C12.9772 258.907 13.4675 258.767 13.8056 258.472C14.1437 258.176 14.3127 257.783 14.3127 257.293C14.3127 256.874 14.1902 256.544 13.9408 256.295C13.6915 256.046 13.3618 255.923 12.9519 255.923C12.5462 255.923 12.1996 256.063 11.9122 256.346C11.6248 256.629 11.4516 257.039 11.3882 257.58L9.19899 257.208C9.35113 256.46 9.57935 255.86 9.88786 255.412C10.1964 254.964 10.6232 254.613 11.1726 254.355C11.722 254.097 12.3391 253.971 13.0195 253.971C14.1859 253.971 15.1199 254.343 15.8257 255.086C16.4047 255.695 16.6963 256.384 16.6963 257.149C16.6963 258.235 16.1004 259.106 14.9129 259.752C15.6229 259.904 16.1892 260.247 16.616 260.775C17.0429 261.303 17.2542 261.946 17.2542 262.694C17.2542 263.78 16.8569 264.71 16.0624 265.475C15.2679 266.239 14.2789 266.624 13.0956 266.624C11.9756 266.624 11.0459 266.303 10.3063 265.656C9.56667 265.01 9.13982 264.169 9.02148 263.125Z" fill="#CCCCCC"/>
<path d="M22.746 253.971C23.9463 253.971 24.8845 254.398 25.5607 255.255C26.3679 256.27 26.7694 257.952 26.7694 260.302C26.7694 262.647 26.3637 264.329 25.5523 265.356C24.8803 266.201 23.9463 266.624 22.746 266.624C21.5416 266.624 20.5695 266.159 19.8299 265.234C19.0903 264.308 18.7227 262.656 18.7227 260.276C18.7227 257.943 19.1284 256.266 19.9398 255.239C20.6118 254.393 21.5458 253.971 22.746 253.971ZM22.746 255.94C22.4586 255.94 22.2008 256.033 21.9769 256.215C21.7529 256.397 21.5754 256.726 21.4528 257.2C21.288 257.812 21.2077 258.848 21.2077 260.302C21.2077 261.755 21.2795 262.753 21.4274 263.298C21.5754 263.843 21.7571 264.202 21.9811 264.384C22.2051 264.566 22.4586 264.655 22.746 264.655C23.0334 264.655 23.2912 264.562 23.5152 264.38C23.7392 264.198 23.9167 263.869 24.0393 263.395C24.2041 262.787 24.2844 261.755 24.2844 260.302C24.2844 258.848 24.2125 257.85 24.0646 257.305C23.9167 256.76 23.735 256.397 23.511 256.215C23.287 256.033 23.0334 255.94 22.746 255.94Z" fill="#CCCCCC"/>
<path d="M31.0898 254.266H33.3551" stroke="#CCCCCC" stroke-width="0.540958" stroke-miterlimit="3.25"/>
<path d="M31.0898 248.611H33.3551" stroke="#CCCCCC" stroke-width="0.540958" stroke-miterlimit="3.25"/>
<path d="M31.0898 242.957H33.3551" stroke="#CCCCCC" stroke-width="0.540958" stroke-miterlimit="3.25"/>
<path d="M31.0898 237.302H33.3551" stroke="#CCCCCC" stroke-width="0.540958" stroke-miterlimit="3.25"/>
<path d="M31.0898 231.646H34.8639" stroke="#CCCCCC" stroke-width="0.540958" stroke-miterlimit="3.25"/>
<path d="M13.7629 238.137V235.644H8.69141V233.565L14.0672 225.695H16.062V233.556H17.6003V235.644H16.062V238.137H13.7629ZM13.7629 233.556V229.321L10.9144 233.556H13.7629Z" fill="#CCCCCC"/>
<path d="M22.746 225.695C23.9463 225.695 24.8845 226.122 25.5607 226.98C26.3679 227.994 26.7694 229.676 26.7694 232.026C26.7694 234.372 26.3637 236.054 25.5523 237.081C24.8803 237.926 23.9463 238.349 22.746 238.349C21.5416 238.349 20.5695 237.884 19.8299 236.958C19.0903 236.033 18.7227 234.38 18.7227 232.001C18.7227 229.668 19.1284 227.99 19.9398 226.963C20.6118 226.118 21.5458 225.695 22.746 225.695ZM22.746 227.665C22.4586 227.665 22.2008 227.758 21.9769 227.939C21.7529 228.121 21.5754 228.451 21.4528 228.924C21.288 229.537 21.2077 230.572 21.2077 232.026C21.2077 233.48 21.2795 234.477 21.4274 235.023C21.5754 235.568 21.7571 235.927 21.9811 236.109C22.2051 236.29 22.4586 236.379 22.746 236.379C23.0334 236.379 23.2912 236.286 23.5152 236.105C23.7392 235.923 23.9167 235.593 24.0393 235.12C24.2041 234.511 24.2844 233.48 24.2844 232.026C24.2844 230.572 24.2125 229.575 24.0646 229.03C23.9167 228.485 23.735 228.121 23.511 227.939C23.287 227.758 23.0334 227.665 22.746 227.665Z" fill="#CCCCCC"/>
<path d="M31.0898 225.992H33.3551" stroke="#CCCCCC" stroke-width="0.540958" stroke-miterlimit="3.25"/>
<path d="M31.0898 220.338H33.3551" stroke="#CCCCCC" stroke-width="0.540958" stroke-miterlimit="3.25"/>
<path d="M31.0898 214.683H33.3551" stroke="#CCCCCC" stroke-width="0.540958" stroke-miterlimit="3.25"/>
<path d="M31.0898 209.028H33.3551" stroke="#CCCCCC" stroke-width="0.540958" stroke-miterlimit="3.25"/>
<path d="M31.0898 203.374H34.8639" stroke="#CCCCCC" stroke-width="0.540958" stroke-miterlimit="3.25"/>
<path d="M9.13867 206.675L11.5054 206.43C11.573 206.967 11.7716 207.39 12.1055 207.702C12.4394 208.015 12.8197 208.171 13.255 208.171C13.7495 208.171 14.1721 207.969 14.5144 207.567C14.8568 207.166 15.03 206.557 15.03 205.746C15.03 204.985 14.861 204.414 14.5187 204.034C14.1763 203.654 13.7326 203.463 13.1874 203.463C12.507 203.463 11.8942 203.763 11.3532 204.368L9.42605 204.089L10.6432 197.64H16.9234V199.863H12.4436L12.0717 201.967C12.6 201.701 13.1409 201.57 13.6946 201.57C14.7469 201.57 15.6428 201.955 16.374 202.72C17.1051 203.485 17.4728 204.482 17.4728 205.703C17.4728 206.722 17.177 207.635 16.5853 208.433C15.7781 209.528 14.6624 210.073 13.2297 210.073C12.0844 210.073 11.1546 209.765 10.4319 209.152C9.70921 208.539 9.27814 207.711 9.13867 206.675Z" fill="#CCCCCC"/>
<path d="M22.746 197.42C23.9463 197.42 24.8845 197.847 25.5607 198.705C26.3679 199.719 26.7694 201.401 26.7694 203.751C26.7694 206.096 26.3637 207.778 25.5523 208.805C24.8803 209.651 23.9463 210.073 22.746 210.073C21.5416 210.073 20.5695 209.608 19.8299 208.683C19.0903 207.757 18.7227 206.105 18.7227 203.725C18.7227 201.393 19.1284 199.715 19.9398 198.688C20.6118 197.843 21.5458 197.42 22.746 197.42ZM22.746 199.389C22.4586 199.389 22.2008 199.482 21.9769 199.664C21.7529 199.846 21.5754 200.175 21.4528 200.649C21.288 201.262 21.2077 202.297 21.2077 203.751C21.2077 205.205 21.2795 206.202 21.4274 206.747C21.5754 207.292 21.7571 207.652 21.9811 207.833C22.2051 208.015 22.4586 208.104 22.746 208.104C23.0334 208.104 23.2912 208.011 23.5152 207.829C23.7392 207.647 23.9167 207.318 24.0393 206.844C24.2041 206.236 24.2844 205.205 24.2844 203.751C24.2844 202.297 24.2125 201.3 24.0646 200.754C23.9167 200.209 23.735 199.846 23.511 199.664C23.287 199.482 23.0334 199.389 22.746 199.389Z" fill="#CCCCCC"/>
<path d="M31.0898 197.714H33.3551" stroke="#CCCCCC" stroke-width="0.540958" stroke-miterlimit="3.25"/>
<path d="M31.0898 192.06H33.3551" stroke="#CCCCCC" stroke-width="0.540958" stroke-miterlimit="3.25"/>
<path d="M31.0898 186.405H33.3551" stroke="#CCCCCC" stroke-width="0.540958" stroke-miterlimit="3.25"/>
<path d="M31.0898 180.75H33.3551" stroke="#CCCCCC" stroke-width="0.540958" stroke-miterlimit="3.25"/>
<path d="M31.0898 175.096H34.8639" stroke="#CCCCCC" stroke-width="0.540958" stroke-miterlimit="3.25"/>
<path d="M17.1503 172.232L14.8512 172.485C14.7963 172.012 14.6483 171.661 14.4117 171.437C14.175 171.213 13.8665 171.099 13.4903 171.099C12.9874 171.099 12.5648 171.323 12.2183 171.775C11.8717 172.227 11.6519 173.166 11.5632 174.59C12.1549 173.893 12.8902 173.542 13.7693 173.542C14.7624 173.542 15.6119 173.918 16.3177 174.674C17.0235 175.431 17.3785 176.403 17.3785 177.599C17.3785 178.867 17.0066 179.885 16.2628 180.65C15.5189 181.415 14.5638 181.8 13.3974 181.8C12.1464 181.8 11.1194 181.314 10.3122 180.342C9.50501 179.37 9.10352 177.776 9.10352 175.562C9.10352 173.292 9.52191 171.653 10.3629 170.651C11.204 169.649 12.2943 169.146 13.634 169.146C14.5765 169.146 15.3541 169.409 15.9711 169.937C16.5882 170.465 16.9812 171.23 17.1503 172.232ZM11.766 177.413C11.766 178.186 11.9435 178.782 12.2985 179.201C12.6536 179.619 13.0593 179.83 13.5157 179.83C13.9552 179.83 14.3229 179.657 14.6145 179.315C14.9061 178.972 15.0541 178.406 15.0541 177.624C15.0541 176.817 14.8977 176.23 14.5807 175.854C14.2637 175.477 13.8707 175.291 13.3974 175.291C12.9409 175.291 12.5563 175.469 12.2394 175.828C11.9224 176.187 11.766 176.716 11.766 177.413Z" fill="#CCCCCC"/>
<path d="M22.746 169.146C23.9463 169.146 24.8845 169.573 25.5607 170.431C26.3679 171.446 26.7694 173.128 26.7694 175.477C26.7694 177.823 26.3637 179.505 25.5523 180.532C24.8803 181.377 23.9463 181.8 22.746 181.8C21.5416 181.8 20.5695 181.335 19.8299 180.409C19.0903 179.484 18.7227 177.831 18.7227 175.452C18.7227 173.119 19.1284 171.441 19.9398 170.414C20.6118 169.569 21.5458 169.146 22.746 169.146ZM22.746 171.116C22.4586 171.116 22.2008 171.209 21.9769 171.391C21.7529 171.572 21.5754 171.902 21.4528 172.375C21.288 172.988 21.2077 174.024 21.2077 175.477C21.2077 176.931 21.2795 177.929 21.4274 178.474C21.5754 179.019 21.7571 179.378 21.9811 179.56C22.2051 179.742 22.4586 179.83 22.746 179.83C23.0334 179.83 23.2912 179.737 23.5152 179.556C23.7392 179.374 23.9167 179.044 24.0393 178.571C24.2041 177.962 24.2844 176.931 24.2844 175.477C24.2844 174.024 24.2125 173.026 24.0646 172.481C23.9167 171.936 23.735 171.572 23.511 171.391C23.287 171.209 23.0334 171.116 22.746 171.116Z" fill="#CCCCCC"/>
<path d="M31.0898 169.441H33.3551" stroke="#CCCCCC" stroke-width="0.540958" stroke-miterlimit="3.25"/>
<path d="M31.0898 163.787H33.3551" stroke="#CCCCCC" stroke-width="0.540958" stroke-miterlimit="3.25"/>
<path d="M31.0898 158.132H33.3551" stroke="#CCCCCC" stroke-width="0.540958" stroke-miterlimit="3.25"/>
<path d="M31.0898 152.478H33.3551" stroke="#CCCCCC" stroke-width="0.540958" stroke-miterlimit="3.25"/>
<path d="M31.0898 146.823H34.8639" stroke="#CCCCCC" stroke-width="0.540958" stroke-miterlimit="3.25"/>
<path d="M9.10352 143.297V141.091H17.2263V142.815C16.5544 143.474 15.8739 144.421 15.1808 145.655C14.4877 146.889 13.9595 148.199 13.596 149.59C13.2325 150.98 13.055 152.218 13.0593 153.313H10.7687C10.8067 151.601 11.1617 149.852 11.8294 148.073C12.4972 146.293 13.3889 144.7 14.5046 143.297H9.10352Z" fill="#CCCCCC"/>
<path d="M22.746 140.871C23.9463 140.871 24.8845 141.298 25.5607 142.156C26.3679 143.17 26.7694 144.852 26.7694 147.202C26.7694 149.548 26.3637 151.23 25.5523 152.257C24.8803 153.102 23.9463 153.524 22.746 153.524C21.5416 153.524 20.5695 153.06 19.8299 152.134C19.0903 151.208 18.7227 149.556 18.7227 147.177C18.7227 144.844 19.1284 143.166 19.9398 142.139C20.6118 141.294 21.5458 140.871 22.746 140.871ZM22.746 142.841C22.4586 142.841 22.2008 142.933 21.9769 143.115C21.7529 143.297 21.5754 143.627 21.4528 144.1C21.288 144.713 21.2077 145.748 21.2077 147.202C21.2077 148.656 21.2795 149.653 21.4274 150.198C21.5754 150.744 21.7571 151.103 21.9811 151.285C22.2051 151.466 22.4586 151.555 22.746 151.555C23.0334 151.555 23.2912 151.462 23.5152 151.28C23.7392 151.099 23.9167 150.769 24.0393 150.296C24.2041 149.687 24.2844 148.656 24.2844 147.202C24.2844 145.748 24.2125 144.751 24.0646 144.206C23.9167 143.66 23.735 143.297 23.511 143.115C23.287 142.933 23.0334 142.841 22.746 142.841Z" fill="#CCCCCC"/>
<path d="M31.0898 141.167H33.3551" stroke="#CCCCCC" stroke-width="0.540958" stroke-miterlimit="3.25"/>
<path d="M31.0898 135.513H33.3551" stroke="#CCCCCC" stroke-width="0.540958" stroke-miterlimit="3.25"/>
<path d="M31.0898 129.858H33.3551" stroke="#CCCCCC" stroke-width="0.540958" stroke-miterlimit="3.25"/>
<path d="M31.0898 124.203H33.3551" stroke="#CCCCCC" stroke-width="0.540958" stroke-miterlimit="3.25"/>
<path d="M31.0898 118.549H34.8639" stroke="#CCCCCC" stroke-width="0.540958" stroke-miterlimit="3.25"/>
<path d="M11.1412 118.352C10.5284 118.094 10.0804 117.735 9.80145 117.283C9.52252 116.83 9.38305 116.332 9.38305 115.791C9.38305 114.865 9.70425 114.104 10.3509 113.5C10.9975 112.896 11.9146 112.596 13.1021 112.596C14.2813 112.596 15.1941 112.896 15.845 113.5C16.4958 114.104 16.8212 114.865 16.8212 115.791C16.8212 116.366 16.6733 116.877 16.3732 117.325C16.0732 117.773 15.6548 118.115 15.1138 118.352C15.8027 118.627 16.3225 119.032 16.6818 119.561C17.041 120.089 17.2185 120.702 17.2185 121.395C17.2185 122.54 16.855 123.47 16.1239 124.184C15.3928 124.898 14.425 125.258 13.212 125.258C12.0836 125.258 11.1454 124.962 10.3973 124.37C9.51407 123.673 9.07031 122.713 9.07031 121.496C9.07031 120.824 9.23513 120.211 9.56901 119.649C9.90288 119.087 10.4269 118.656 11.1412 118.352ZM11.6314 115.96C11.6314 116.433 11.7666 116.801 12.0329 117.067C12.2992 117.333 12.6584 117.464 13.1021 117.464C13.5543 117.464 13.9136 117.329 14.1841 117.063C14.4545 116.797 14.5898 116.425 14.5898 115.951C14.5898 115.508 14.4545 115.148 14.1883 114.882C13.922 114.616 13.567 114.481 13.1275 114.481C12.6711 114.481 12.3076 114.616 12.0371 114.886C11.7666 115.157 11.6314 115.516 11.6314 115.96ZM11.4116 121.268C11.4116 121.923 11.5807 122.43 11.9146 122.798C12.2484 123.166 12.6668 123.347 13.1698 123.347C13.66 123.347 14.0657 123.17 14.3869 122.819C14.7081 122.468 14.8687 121.957 14.8687 121.293C14.8687 120.714 14.7039 120.245 14.3785 119.894C14.053 119.544 13.6389 119.366 13.1359 119.366C12.557 119.366 12.1217 119.565 11.8385 119.966C11.5553 120.368 11.4116 120.799 11.4116 121.268Z" fill="#CCCCCC"/>
<path d="M22.746 112.596C23.9463 112.596 24.8845 113.023 25.5607 113.88C26.3679 114.895 26.7694 116.577 26.7694 118.927C26.7694 121.272 26.3637 122.954 25.5523 123.981C24.8803 124.826 23.9463 125.249 22.746 125.249C21.5416 125.249 20.5695 124.784 19.8299 123.859C19.0903 122.933 18.7227 121.281 18.7227 118.901C18.7227 116.568 19.1284 114.891 19.9398 113.864C20.6118 113.018 21.5458 112.596 22.746 112.596ZM22.746 114.565C22.4586 114.565 22.2008 114.658 21.9769 114.84C21.7529 115.022 21.5754 115.351 21.4528 115.825C21.288 116.437 21.2077 117.473 21.2077 118.927C21.2077 120.38 21.2795 121.378 21.4274 121.923C21.5754 122.468 21.7571 122.827 21.9811 123.009C22.2051 123.191 22.4586 123.28 22.746 123.28C23.0334 123.28 23.2912 123.187 23.5152 123.005C23.7392 122.823 23.9167 122.494 24.0393 122.02C24.2041 121.412 24.2844 120.38 24.2844 118.927C24.2844 117.473 24.2125 116.475 24.0646 115.93C23.9167 115.385 23.735 115.022 23.511 114.84C23.287 114.658 23.0334 114.565 22.746 114.565Z" fill="#CCCCCC"/>
<path d="M31.0898 112.895H33.3551" stroke="#CCCCCC" stroke-width="0.540958" stroke-miterlimit="3.25"/>
<path d="M31.0898 107.234H33.3551" stroke="#CCCCCC" stroke-width="0.540958" stroke-miterlimit="3.25"/>
<path d="M31.0898 101.579H33.3551" stroke="#CCCCCC" stroke-width="0.540958" stroke-miterlimit="3.25"/>
<path d="M31.0898 95.9248H33.3551" stroke="#CCCCCC" stroke-width="0.540958" stroke-miterlimit="3.25"/>
<path d="M31.0898 90.2715H34.8639" stroke="#CCCCCC" stroke-width="0.540958" stroke-miterlimit="3.25"/>
<path d="M9.15464 93.8989L11.4537 93.6453C11.5087 94.1144 11.6566 94.461 11.8932 94.685C12.1299 94.909 12.4426 95.0231 12.8315 95.0231C13.3217 95.0231 13.7401 94.7991 14.0824 94.3469C14.4248 93.8947 14.6445 92.9607 14.7417 91.5407C14.1458 92.2338 13.3978 92.5803 12.5018 92.5803C11.5256 92.5803 10.6845 92.2042 9.97875 91.4519C9.27297 90.6997 8.91797 89.7192 8.91797 88.5147C8.91797 87.2595 9.28988 86.2452 10.0379 85.476C10.786 84.7069 11.7369 84.3223 12.8906 84.3223C14.1458 84.3223 15.177 84.8083 15.9842 85.7803C16.7914 86.7524 17.1929 88.3499 17.1929 90.5771C17.1929 92.8424 16.7745 94.4779 15.9335 95.4795C15.0925 96.4811 14.0021 96.9841 12.654 96.9841C11.6862 96.9841 10.9001 96.7263 10.3042 96.2107C9.70827 95.6951 9.32369 94.9259 9.15464 93.8989ZM14.5304 88.7091C14.5304 87.9441 14.3529 87.3482 14.0021 86.9256C13.6514 86.503 13.2414 86.2917 12.7807 86.2917C12.3412 86.2917 11.9778 86.465 11.6862 86.8115C11.3945 87.1581 11.2509 87.7244 11.2509 88.5147C11.2509 89.3134 11.4072 89.9009 11.7242 90.277C12.0412 90.6532 12.4342 90.8391 12.9075 90.8391C13.364 90.8391 13.7486 90.6574 14.0613 90.2982C14.374 89.9389 14.5304 89.4064 14.5304 88.7091Z" fill="#CCCCCC"/>
<path d="M22.746 84.3223C23.9463 84.3223 24.8845 84.7491 25.5607 85.607C26.3679 86.6213 26.7694 88.3034 26.7694 90.6532C26.7694 92.9987 26.3637 94.6808 25.5523 95.7077C24.8803 96.553 23.9463 96.9756 22.746 96.9756C21.5416 96.9756 20.5695 96.5107 19.8299 95.5852C19.0903 94.6596 18.7227 93.0072 18.7227 90.6278C18.7227 88.2949 19.1284 86.6171 19.9398 85.5901C20.6118 84.7449 21.5458 84.3223 22.746 84.3223ZM22.746 86.2917C22.4586 86.2917 22.2008 86.3847 21.9769 86.5664C21.7529 86.7481 21.5754 87.0778 21.4528 87.5511C21.288 88.1639 21.2077 89.1993 21.2077 90.6532C21.2077 92.107 21.2795 93.1044 21.4274 93.6496C21.5754 94.1947 21.7571 94.554 21.9811 94.7357C22.2051 94.9174 22.4586 95.0062 22.746 95.0062C23.0334 95.0062 23.2912 94.9132 23.5152 94.7315C23.7392 94.5498 23.9167 94.2201 24.0393 93.7468C24.2041 93.1382 24.2844 92.107 24.2844 90.6532C24.2844 89.1993 24.2125 88.2019 24.0646 87.6568C23.9167 87.1116 23.735 86.7481 23.511 86.5664C23.287 86.3847 23.0334 86.2917 22.746 86.2917Z" fill="#CCCCCC"/>
<path d="M31.0898 84.6162H33.3551" stroke="#CCCCCC" stroke-width="0.540958" stroke-miterlimit="3.25"/>
<path d="M31.0898 78.9619H33.3551" stroke="#CCCCCC" stroke-width="0.540958" stroke-miterlimit="3.25"/>
<path d="M31.0898 73.3066H33.3551" stroke="#CCCCCC" stroke-width="0.540958" stroke-miterlimit="3.25"/>
<path d="M31.0898 67.6514H33.3551" stroke="#CCCCCC" stroke-width="0.540958" stroke-miterlimit="3.25"/>
<path d="M31.0898 61.9971H34.8639" stroke="#CCCCCC" stroke-width="0.540958" stroke-miterlimit="3.25"/>
<path d="M5.44339 68.4889H3.06825V59.5377C2.20187 60.3492 1.17912 60.9493 0 61.3381V59.1827C0.621257 58.9799 1.29323 58.5953 2.02014 58.029C2.74705 57.4627 3.24575 56.8034 3.51623 56.0469H5.44339V68.4889Z" fill="#CCCCCC"/>
<path d="M13.0078 56.0469C14.208 56.0469 15.1462 56.4737 15.8224 57.3317C16.6296 58.3459 17.0311 60.028 17.0311 62.3778C17.0311 64.7233 16.6254 66.4054 15.814 67.4324C15.142 68.2776 14.208 68.7002 13.0078 68.7002C11.8033 68.7002 10.8312 68.2353 10.0916 67.3098C9.35206 66.3842 8.98438 64.7318 8.98438 62.3524C8.98438 60.0195 9.39009 58.3417 10.2015 57.3147C10.8735 56.4695 11.8075 56.0469 13.0078 56.0469ZM13.0078 58.0163C12.7204 58.0163 12.4626 58.1093 12.2386 58.291C12.0146 58.4727 11.8371 58.8024 11.7145 59.2757C11.5497 59.8885 11.4694 60.9239 11.4694 62.3778C11.4694 63.8316 11.5412 64.829 11.6892 65.3742C11.8371 65.9194 12.0188 66.2786 12.2428 66.4603C12.4668 66.642 12.7204 66.7308 13.0078 66.7308C13.2951 66.7308 13.5529 66.6378 13.7769 66.4561C14.0009 66.2744 14.1784 65.9447 14.301 65.4714C14.4658 64.8628 14.5461 63.8316 14.5461 62.3778C14.5461 60.9239 14.4743 59.9266 14.3263 59.3814C14.1784 58.8362 13.9967 58.4727 13.7727 58.291C13.5487 58.1093 13.2951 58.0163 13.0078 58.0163Z" fill="#CCCCCC"/>
<path d="M22.6367 56.0469C23.8369 56.0469 24.7751 56.4737 25.4513 57.3317C26.2585 58.3459 26.66 60.028 26.66 62.3778C26.66 64.7233 26.2543 66.4054 25.4429 67.4324C24.7709 68.2776 23.8369 68.7002 22.6367 68.7002C21.4322 68.7002 20.4601 68.2353 19.7206 67.3098C18.981 66.3842 18.6133 64.7318 18.6133 62.3524C18.6133 60.0195 19.019 58.3417 19.8304 57.3147C20.5024 56.4695 21.4364 56.0469 22.6367 56.0469ZM22.6367 58.0163C22.3493 58.0163 22.0915 58.1093 21.8675 58.291C21.6435 58.4727 21.466 58.8024 21.3434 59.2757C21.1786 59.8885 21.0983 60.9239 21.0983 62.3778C21.0983 63.8316 21.1702 64.829 21.3181 65.3742C21.466 65.9194 21.6477 66.2786 21.8717 66.4603C22.0957 66.642 22.3493 66.7308 22.6367 66.7308C22.924 66.7308 23.1818 66.6378 23.4058 66.4561C23.6298 66.2744 23.8073 65.9447 23.9299 65.4714C24.0947 64.8628 24.175 63.8316 24.175 62.3778C24.175 60.9239 24.1032 59.9266 23.9552 59.3814C23.8073 58.8362 23.6256 58.4727 23.4016 58.291C23.1776 58.1093 22.924 58.0163 22.6367 58.0163Z" fill="#CCCCCC"/>
<path d="M31.0898 61.9971V65.7753" stroke="#CCCCCC" stroke-width="0.540958" stroke-miterlimit="3.25"/>
<path d="M43.8984 61.9971V64.2623" stroke="#CCCCCC" stroke-width="0.540958" stroke-miterlimit="3.25"/>
<path d="M56.709 61.9971V64.2623" stroke="#CCCCCC" stroke-width="0.540958" stroke-miterlimit="3.25"/>
<path d="M69.5176 61.9971V64.2623" stroke="#CCCCCC" stroke-width="0.540958" stroke-miterlimit="3.25"/>
<path d="M82.3281 61.9971V64.2623" stroke="#CCCCCC" stroke-width="0.540958" stroke-miterlimit="3.25"/>
<path d="M95.1387 61.9971V65.7753" stroke="#CCCCCC" stroke-width="0.540958" stroke-miterlimit="3.25"/>
<path d="M107.951 61.9971V64.2623" stroke="#CCCCCC" stroke-width="0.540958" stroke-miterlimit="3.25"/>
<path d="M120.758 61.9971V64.2623" stroke="#CCCCCC" stroke-width="0.540958" stroke-miterlimit="3.25"/>
<path d="M133.568 61.9971V64.2623" stroke="#CCCCCC" stroke-width="0.540958" stroke-miterlimit="3.25"/>
<path d="M146.379 61.9971V64.2623" stroke="#CCCCCC" stroke-width="0.540958" stroke-miterlimit="3.25"/>
<path d="M159.186 61.9971V65.7753" stroke="#CCCCCC" stroke-width="0.540958" stroke-miterlimit="3.25"/>
<path d="M171.996 61.9971V64.2623" stroke="#CCCCCC" stroke-width="0.540958" stroke-miterlimit="3.25"/>
<path d="M184.807 61.9971V64.2623" stroke="#CCCCCC" stroke-width="0.540958" stroke-miterlimit="3.25"/>
<path d="M197.617 61.9971V64.2623" stroke="#CCCCCC" stroke-width="0.540958" stroke-miterlimit="3.25"/>
<path d="M210.426 61.9971V64.2623" stroke="#CCCCCC" stroke-width="0.540958" stroke-miterlimit="3.25"/>
<path d="M223.236 61.9971V65.7753" stroke="#CCCCCC" stroke-width="0.540958" stroke-miterlimit="3.25"/>
<path d="M236.045 61.9971V64.2623" stroke="#CCCCCC" stroke-width="0.540958" stroke-miterlimit="3.25"/>
<path d="M248.859 61.9971V64.2623" stroke="#CCCCCC" stroke-width="0.540958" stroke-miterlimit="3.25"/>
<path d="M261.668 61.9971V64.2623" stroke="#CCCCCC" stroke-width="0.540958" stroke-miterlimit="3.25"/>
<path d="M274.479 61.9971V64.2623" stroke="#CCCCCC" stroke-width="0.540958" stroke-miterlimit="3.25"/>
<path d="M287.289 61.9971V65.7753" stroke="#CCCCCC" stroke-width="0.540958" stroke-miterlimit="3.25"/>
<path d="M300.098 61.9971V64.2623" stroke="#CCCCCC" stroke-width="0.540958" stroke-miterlimit="3.25"/>
<path d="M312.908 61.9971V64.2623" stroke="#CCCCCC" stroke-width="0.540958" stroke-miterlimit="3.25"/>
<path d="M325.719 61.9971V64.2623" stroke="#CCCCCC" stroke-width="0.540958" stroke-miterlimit="3.25"/>
<path d="M338.527 61.9971V64.2623" stroke="#CCCCCC" stroke-width="0.540958" stroke-miterlimit="3.25"/>
<path d="M351.338 61.9971V65.7753" stroke="#CCCCCC" stroke-width="0.540958" stroke-miterlimit="3.25"/>
<path d="M351.339 259.92H347.561" stroke="#CCCCCC" stroke-width="0.540958" stroke-miterlimit="3.25"/>
<path d="M351.338 254.266H349.072" stroke="#CCCCCC" stroke-width="0.540958" stroke-miterlimit="3.25"/>
<path d="M351.338 248.611H349.072" stroke="#CCCCCC" stroke-width="0.540958" stroke-miterlimit="3.25"/>
<path d="M351.338 242.957H349.072" stroke="#CCCCCC" stroke-width="0.540958" stroke-miterlimit="3.25"/>
<path d="M351.338 237.302H349.072" stroke="#CCCCCC" stroke-width="0.540958" stroke-miterlimit="3.25"/>
<path d="M351.339 231.646H347.561" stroke="#CCCCCC" stroke-width="0.540958" stroke-miterlimit="3.25"/>
<path d="M351.338 225.992H349.072" stroke="#CCCCCC" stroke-width="0.540958" stroke-miterlimit="3.25"/>
<path d="M351.338 220.338H349.072" stroke="#CCCCCC" stroke-width="0.540958" stroke-miterlimit="3.25"/>
<path d="M351.338 214.683H349.072" stroke="#CCCCCC" stroke-width="0.540958" stroke-miterlimit="3.25"/>
<path d="M351.338 209.028H349.072" stroke="#CCCCCC" stroke-width="0.540958" stroke-miterlimit="3.25"/>
<path d="M351.339 203.374H347.561" stroke="#CCCCCC" stroke-width="0.540958" stroke-miterlimit="3.25"/>
<path d="M351.338 197.714H349.072" stroke="#CCCCCC" stroke-width="0.540958" stroke-miterlimit="3.25"/>
<path d="M351.338 192.06H349.072" stroke="#CCCCCC" stroke-width="0.540958" stroke-miterlimit="3.25"/>
<path d="M351.338 186.405H349.072" stroke="#CCCCCC" stroke-width="0.540958" stroke-miterlimit="3.25"/>
<path d="M351.338 180.75H349.072" stroke="#CCCCCC" stroke-width="0.540958" stroke-miterlimit="3.25"/>
<path d="M351.339 175.096H347.561" stroke="#CCCCCC" stroke-width="0.540958" stroke-miterlimit="3.25"/>
<path d="M351.338 169.441H349.072" stroke="#CCCCCC" stroke-width="0.540958" stroke-miterlimit="3.25"/>
<path d="M351.338 163.787H349.072" stroke="#CCCCCC" stroke-width="0.540958" stroke-miterlimit="3.25"/>
<path d="M351.338 158.132H349.072" stroke="#CCCCCC" stroke-width="0.540958" stroke-miterlimit="3.25"/>
<path d="M351.338 152.478H349.072" stroke="#CCCCCC" stroke-width="0.540958" stroke-miterlimit="3.25"/>
<path d="M351.339 146.823H347.561" stroke="#CCCCCC" stroke-width="0.540958" stroke-miterlimit="3.25"/>
<path d="M351.338 141.167H349.072" stroke="#CCCCCC" stroke-width="0.540958" stroke-miterlimit="3.25"/>
<path d="M351.338 135.513H349.072" stroke="#CCCCCC" stroke-width="0.540958" stroke-miterlimit="3.25"/>
<path d="M351.338 129.858H349.072" stroke="#CCCCCC" stroke-width="0.540958" stroke-miterlimit="3.25"/>
<path d="M351.338 124.203H349.072" stroke="#CCCCCC" stroke-width="0.540958" stroke-miterlimit="3.25"/>
<path d="M351.339 118.549H347.561" stroke="#CCCCCC" stroke-width="0.540958" stroke-miterlimit="3.25"/>
<path d="M351.338 112.895H349.072" stroke="#CCCCCC" stroke-width="0.540958" stroke-miterlimit="3.25"/>
<path d="M351.338 107.234H349.072" stroke="#CCCCCC" stroke-width="0.540958" stroke-miterlimit="3.25"/>
<path d="M351.338 101.579H349.072" stroke="#CCCCCC" stroke-width="0.540958" stroke-miterlimit="3.25"/>
<path d="M351.338 95.9248H349.072" stroke="#CCCCCC" stroke-width="0.540958" stroke-miterlimit="3.25"/>
<path d="M351.339 90.2715H347.561" stroke="#CCCCCC" stroke-width="0.540958" stroke-miterlimit="3.25"/>
<path d="M351.338 84.6162H349.072" stroke="#CCCCCC" stroke-width="0.540958" stroke-miterlimit="3.25"/>
<path d="M351.338 78.9619H349.072" stroke="#CCCCCC" stroke-width="0.540958" stroke-miterlimit="3.25"/>
<path d="M351.338 73.3066H349.072" stroke="#CCCCCC" stroke-width="0.540958" stroke-miterlimit="3.25"/>
<path d="M351.338 67.6514H349.072" stroke="#CCCCCC" stroke-width="0.540958" stroke-miterlimit="3.25"/>
<path d="M351.339 61.9971H347.561" stroke="#CCCCCC" stroke-width="0.540958" stroke-miterlimit="3.25"/>
<path d="M155.653 48.6425L158.912 49.0398C158.967 49.4159 159.089 49.6779 159.288 49.8174C159.558 50.0203 159.981 50.1217 160.564 50.1217C161.308 50.1217 161.866 50.0118 162.238 49.7878C162.487 49.6399 162.677 49.399 162.804 49.0694C162.893 48.8327 162.939 48.3974 162.939 47.7592V46.1871C162.085 47.3493 161.012 47.9325 159.71 47.9325C158.265 47.9325 157.12 47.3197 156.274 46.0983C155.611 45.1305 155.281 43.926 155.281 42.4849C155.281 40.6803 155.712 39.3025 156.583 38.3474C157.454 37.3923 158.531 36.9189 159.824 36.9189C161.156 36.9189 162.255 37.5022 163.121 38.6728V37.1598H165.788V46.8252C165.788 48.0973 165.682 49.0482 165.475 49.6779C165.264 50.3077 164.968 50.7979 164.592 51.1571C164.211 51.5164 163.708 51.7953 163.074 51.9981C162.44 52.201 161.642 52.3024 160.674 52.3024C158.848 52.3024 157.555 51.9897 156.79 51.3642C156.025 50.7387 155.645 49.9484 155.645 48.9891C155.645 48.8919 155.649 48.7778 155.653 48.6425ZM158.202 42.3243C158.202 43.4654 158.421 44.3022 158.865 44.8347C159.309 45.363 159.854 45.6292 160.505 45.6292C161.202 45.6292 161.79 45.3587 162.267 44.8136C162.749 44.2684 162.99 43.4612 162.99 42.3961C162.99 41.2804 162.757 40.4521 162.297 39.9111C161.836 39.3702 161.257 39.0997 160.556 39.0997C159.871 39.0997 159.309 39.3617 158.865 39.8942C158.421 40.4267 158.202 41.2339 158.202 42.3243Z" fill="#CCCCCC"/>
<path d="M168.527 37.1598H171.181V38.7447C171.528 38.2037 171.993 37.7642 172.585 37.4261C173.172 37.088 173.823 36.9189 174.541 36.9189C175.792 36.9189 176.853 37.4092 177.724 38.3897C178.598 39.3702 179.034 40.7352 179.034 42.4849C179.034 44.2853 178.594 45.6842 177.715 46.6815C176.836 47.6789 175.771 48.1776 174.52 48.1776C173.924 48.1776 173.388 48.0593 172.901 47.8226C172.42 47.586 171.908 47.1802 171.376 46.6055V52.032H168.527V37.1598ZM171.346 42.3623C171.346 43.5753 171.587 44.467 172.065 45.046C172.546 45.625 173.13 45.9124 173.819 45.9124C174.482 45.9124 175.036 45.6503 175.475 45.1178C175.915 44.5853 176.135 43.7147 176.135 42.506C176.135 41.3776 175.906 40.5366 175.454 39.9914C175.002 39.442 174.44 39.1673 173.768 39.1673C173.071 39.1673 172.496 39.4378 172.035 39.9745C171.574 40.5112 171.346 41.31 171.346 42.3623Z" fill="#CCCCCC"/>
<path d="M186.237 37.1591V39.4328H184.288V43.7731C184.288 44.6522 184.305 45.1636 184.343 45.3115C184.381 45.4552 184.466 45.5735 184.597 45.6707C184.728 45.7637 184.889 45.8102 185.079 45.8102C185.341 45.8102 185.725 45.7214 186.224 45.5397L186.469 47.75C185.806 48.0332 185.053 48.1769 184.217 48.1769C183.701 48.1769 183.24 48.0881 182.826 47.9148C182.416 47.7416 182.112 47.5218 181.918 47.2471C181.727 46.9724 181.592 46.6047 181.52 46.1356C181.457 45.806 181.427 45.134 181.427 44.1281V39.4328H180.117V37.1591H181.427V35.0206L184.288 33.3555V37.1591H186.237Z" fill="#CCCCCC"/>
<path d="M197.442 44.0902H187.705V41.6348H197.442V44.0902Z" fill="#CCCCCC"/>
<path d="M205.258 47.9323V44.9401H199.172V42.4466L205.625 33.001H208.017V42.4339H209.864V44.9401H208.017V47.9323H205.258ZM205.258 42.4339V37.354L201.839 42.4339H205.258Z" fill="#CCCCCC"/>
<path d="M211.83 47.9334V45.085H214.679V47.9334H211.83Z" fill="#CCCCCC"/>
<path d="M224.287 47.9323H221.439V37.1892C220.399 38.1654 219.169 38.8839 217.758 39.353V36.7666C218.502 36.5214 219.309 36.0608 220.179 35.3803C221.054 34.6999 221.65 33.9096 221.976 33.001H224.287V47.9323Z" fill="#CCCCCC"/>
</svg>
