<svg width="1096" height="160" viewBox="0 0 1096 160" fill="none" xmlns="http://www.w3.org/2000/svg">
<path d="M1025.58 20.5117H33.4213C18.9338 20.5117 7.18945 32.2561 7.18945 46.7435V113.628C7.18945 128.115 18.9338 139.86 33.4213 139.86H1025.58C1040.07 139.86 1051.81 128.115 1051.81 113.628V46.7435C1051.81 32.2561 1040.07 20.5117 1025.58 20.5117Z" fill="#82C2FF" fill-opacity="0.15"/>
<path d="M40.0949 94V63.8177H44.9259L50.6311 79.9671C51.3672 82.0835 52.0113 84.0159 52.6555 86.2704H52.8395C53.5297 84.0159 54.0818 82.0835 54.8179 79.9671L60.5231 63.8177H65.3541V94H61.7194V77.3445C61.7194 74.676 62.0414 70.9492 62.2715 68.3266H62.0875L59.741 75.3661L54.0818 90.9634H51.2752L45.662 75.3661L43.2695 68.3266H43.0855C43.3155 70.9492 43.6376 74.676 43.6376 77.3445V94H40.0949ZM78.3547 94.5521C74.628 94.5521 71.8214 92.2516 71.8214 88.2028C71.8214 83.2337 75.9622 80.8412 85.5322 79.783C85.4862 76.9764 84.566 74.2619 80.9313 74.2619C78.3547 74.2619 76.0082 75.4121 74.2599 76.5624L72.7876 73.9858C74.858 72.6055 77.9867 71.0872 81.5754 71.0872C87.0045 71.0872 89.351 74.722 89.351 80.2431V94H86.2224L85.8543 91.3314H85.7163C83.5998 93.1258 81.1613 94.5521 78.3547 94.5521ZM79.413 91.4235C81.5754 91.4235 83.3698 90.4573 85.5322 88.5709V82.4976C77.9867 83.3718 75.5481 85.0741 75.5481 87.9727C75.5481 90.4573 77.2505 91.4235 79.413 91.4235ZM96.3862 94V61.2412H100.159V83.3258H100.297L109.729 71.6393H114.008L106.554 80.6572L114.974 94H110.833L104.3 83.2798L100.159 88.1108V94H96.3862ZM127.375 94.5521C121.394 94.5521 116.701 90.2272 116.701 82.8197C116.701 75.5501 121.624 71.0872 126.731 71.0872C132.437 71.0872 135.703 75.1361 135.703 81.5774C135.703 82.4056 135.657 83.0957 135.519 83.8319H120.474C120.796 88.4328 123.603 91.4695 127.836 91.4695C129.998 91.4695 131.884 90.8713 133.449 89.8131L134.783 92.2516C132.851 93.6319 130.458 94.5521 127.375 94.5521ZM120.474 80.8873H132.298C132.298 76.4703 130.228 74.1238 126.823 74.1238C123.695 74.1238 120.934 76.6084 120.474 80.8873ZM155.547 94.5521C151.82 94.5521 149.013 92.2516 149.013 88.2028C149.013 83.2337 153.154 80.8412 162.724 79.783C162.678 76.9764 161.758 74.2619 158.123 74.2619C155.547 74.2619 153.2 75.4121 151.452 76.5624L149.979 73.9858C152.05 72.6055 155.179 71.0872 158.767 71.0872C164.196 71.0872 166.543 74.722 166.543 80.2431V94H163.414L163.046 91.3314H162.908C160.792 93.1258 158.353 94.5521 155.547 94.5521ZM156.605 91.4235C158.767 91.4235 160.562 90.4573 162.724 88.5709V82.4976C155.179 83.3718 152.74 85.0741 152.74 87.9727C152.74 90.4573 154.442 91.4235 156.605 91.4235ZM191.623 94.5521C185.688 94.5521 181.133 90.2732 181.133 82.8657C181.133 75.3661 186.148 71.0872 191.899 71.0872C194.844 71.0872 196.868 72.2375 198.432 73.7098L196.546 76.1023C195.304 74.952 193.877 74.2619 192.083 74.2619C188.034 74.2619 185.089 77.7126 185.089 82.8657C185.089 87.9727 187.85 91.3775 191.945 91.3775C194.015 91.3775 195.856 90.4573 197.19 89.261L198.846 91.6995C196.822 93.5399 194.291 94.5521 191.623 94.5521ZM211.479 94.5521C206.004 94.5521 201.127 90.2732 201.127 82.8657C201.127 75.3661 206.004 71.0872 211.479 71.0872C216.954 71.0872 221.877 75.3661 221.877 82.8657C221.877 90.2732 216.954 94.5521 211.479 94.5521ZM211.479 91.3775C215.344 91.3775 217.921 87.9727 217.921 82.8657C217.921 77.7126 215.344 74.2619 211.479 74.2619C207.66 74.2619 205.084 77.7126 205.084 82.8657C205.084 87.9727 207.66 91.3775 211.479 91.3775ZM227.72 94V71.6393H230.849L231.171 74.86H231.309C233.425 72.7436 235.726 71.0872 238.809 71.0872C243.548 71.0872 245.664 74.1238 245.664 79.829V94H241.845V80.3351C241.845 76.1483 240.557 74.3999 237.612 74.3999C235.358 74.3999 233.748 75.5501 231.539 77.8046V94H227.72ZM258.725 94.5521C255.458 94.5521 252.468 93.3559 250.397 91.3314L252.146 89.123C254.078 90.7333 256.102 91.5615 258.863 91.5615C261.808 91.5615 263.234 90.0432 263.234 88.1108C263.234 85.8103 260.749 84.8441 258.219 83.9239C254.86 82.7276 251.64 81.1173 251.64 77.4365C251.64 73.8478 254.492 71.0872 259.369 71.0872C262.176 71.0872 264.568 72.1454 266.317 73.6177L264.568 75.8262C263.004 74.676 261.394 74.0318 259.415 74.0318C256.563 74.0318 255.32 75.5962 255.32 77.2525C255.32 79.2769 257.253 80.1051 260.059 81.0713C263.556 82.3136 266.915 83.8319 266.915 87.8807C266.915 91.5155 264.016 94.5521 258.725 94.5521ZM278.298 94.5521C273.513 94.5521 271.903 91.5155 271.903 87.0525V74.722H268.59V71.8694L272.087 71.6393L272.547 64.4618H275.722V71.6393H281.795V74.722H275.722V87.1446C275.722 89.8591 276.642 91.4235 279.172 91.4235C280.001 91.4235 280.829 91.2854 281.749 90.8713L282.531 93.5859C281.335 94.138 279.816 94.5521 278.298 94.5521ZM286.85 94V71.6393H289.978L290.301 75.6882H290.439C292.003 72.8816 294.303 71.0872 296.788 71.0872C297.8 71.0872 298.49 71.2252 299.18 71.5473L298.352 74.814C297.708 74.6299 297.202 74.5379 296.328 74.5379C294.441 74.5379 292.187 75.8722 290.669 79.645V94H286.85ZM309.379 94.5521C304.64 94.5521 302.523 91.5155 302.523 85.8103V71.6393H306.342V85.3042C306.342 89.445 307.63 91.2394 310.575 91.2394C312.829 91.2394 314.44 90.0892 316.51 87.4666V71.6393H320.329V94H317.2L316.878 90.5033H316.74C314.67 92.9418 312.461 94.5521 309.379 94.5521ZM336.706 94.5521C330.771 94.5521 326.216 90.2732 326.216 82.8657C326.216 75.3661 331.231 71.0872 336.982 71.0872C339.927 71.0872 341.951 72.2375 343.515 73.7098L341.629 76.1023C340.387 74.952 338.96 74.2619 337.166 74.2619C333.117 74.2619 330.173 77.7126 330.173 82.8657C330.173 87.9727 332.933 91.3775 337.028 91.3775C339.098 91.3775 340.939 90.4573 342.273 89.261L343.929 91.6995C341.905 93.5399 339.374 94.5521 336.706 94.5521ZM355.445 94.5521C350.66 94.5521 349.05 91.5155 349.05 87.0525V74.722H345.737V71.8694L349.234 71.6393L349.694 64.4618H352.869V71.6393H358.942V74.722H352.869V87.1446C352.869 89.8591 353.789 91.4235 356.319 91.4235C357.147 91.4235 357.976 91.2854 358.896 90.8713L359.678 93.5859C358.482 94.138 356.963 94.5521 355.445 94.5521ZM363.997 94V71.6393H367.816V94H363.997ZM365.929 67.0384C364.457 67.0384 363.399 66.0722 363.399 64.5538C363.399 63.0815 364.457 62.0693 365.929 62.0693C367.402 62.0693 368.46 63.0815 368.46 64.5538C368.46 66.0722 367.402 67.0384 365.929 67.0384ZM384.06 94.5521C378.585 94.5521 373.708 90.2732 373.708 82.8657C373.708 75.3661 378.585 71.0872 384.06 71.0872C389.535 71.0872 394.458 75.3661 394.458 82.8657C394.458 90.2732 389.535 94.5521 384.06 94.5521ZM384.06 91.3775C387.925 91.3775 390.502 87.9727 390.502 82.8657C390.502 77.7126 387.925 74.2619 384.06 74.2619C380.241 74.2619 377.665 77.7126 377.665 82.8657C377.665 87.9727 380.241 91.3775 384.06 91.3775ZM400.301 94V71.6393H403.43L403.752 74.86H403.89C406.006 72.7436 408.307 71.0872 411.39 71.0872C416.129 71.0872 418.245 74.1238 418.245 79.829V94H414.426V80.3351C414.426 76.1483 413.138 74.3999 410.193 74.3999C407.939 74.3999 406.329 75.5501 404.12 77.8046V94H400.301ZM443.37 94.5521C437.894 94.5521 433.017 90.2732 433.017 82.8657C433.017 75.3661 437.894 71.0872 443.37 71.0872C448.845 71.0872 453.768 75.3661 453.768 82.8657C453.768 90.2732 448.845 94.5521 443.37 94.5521ZM443.37 91.3775C447.234 91.3775 449.811 87.9727 449.811 82.8657C449.811 77.7126 447.234 74.2619 443.37 74.2619C439.551 74.2619 436.974 77.7126 436.974 82.8657C436.974 87.9727 439.551 91.3775 443.37 91.3775ZM460.255 94V74.722H457.218V71.8694L460.255 71.6393V68.1426C460.255 63.5876 462.325 60.689 466.788 60.689C468.168 60.689 469.595 61.0111 470.515 61.4252L469.687 64.2318C468.812 63.9557 467.984 63.7717 467.202 63.7717C465.086 63.7717 464.073 65.29 464.073 68.1426V71.6393H468.766V74.722H464.073V94H460.255ZM489.341 94.5521C484.648 94.5521 481.658 92.5737 479.679 90.4112L481.612 87.9267C483.36 89.7671 485.661 91.3775 489.111 91.3775C492.654 91.3775 495.185 89.307 495.185 86.0403C495.185 82.5436 492.792 80.1971 485.799 80.1971V77.2985C492.01 77.2985 494.126 74.906 494.126 71.8234C494.126 69.0168 492.194 67.2224 489.065 67.2224C486.627 67.2224 484.556 68.4647 482.808 70.167L480.784 67.7745C483.038 65.6581 485.753 64.0937 489.203 64.0937C494.31 64.0937 497.991 66.8083 497.991 71.5473C497.991 75.09 495.875 77.3445 492.7 78.5408V78.7248C496.243 79.553 499.049 82.1295 499.049 86.1784C499.049 91.3775 494.725 94.5521 489.341 94.5521ZM523.171 94.5521C517.235 94.5521 512.68 90.2732 512.68 82.8657C512.68 75.3661 517.696 71.0872 523.447 71.0872C526.391 71.0872 528.416 72.2375 529.98 73.7098L528.094 76.1023C526.851 74.952 525.425 74.2619 523.631 74.2619C519.582 74.2619 516.637 77.7126 516.637 82.8657C516.637 87.9727 519.398 91.3775 523.493 91.3775C525.563 91.3775 527.404 90.4573 528.738 89.261L530.394 91.6995C528.37 93.5399 525.839 94.5521 523.171 94.5521ZM535.32 94V71.6393H539.139V94H535.32ZM537.252 67.0384C535.78 67.0384 534.722 66.0722 534.722 64.5538C534.722 63.0815 535.78 62.0693 537.252 62.0693C538.724 62.0693 539.783 63.0815 539.783 64.5538C539.783 66.0722 538.724 67.0384 537.252 67.0384ZM546.687 94V71.6393H549.816L550.138 75.6882H550.276C551.84 72.8816 554.141 71.0872 556.625 71.0872C557.638 71.0872 558.328 71.2252 559.018 71.5473L558.19 74.814C557.546 74.6299 557.04 74.5379 556.165 74.5379C554.279 74.5379 552.024 75.8722 550.506 79.645V94H546.687ZM571.067 94.5521C565.132 94.5521 560.577 90.2732 560.577 82.8657C560.577 75.3661 565.592 71.0872 571.343 71.0872C574.288 71.0872 576.312 72.2375 577.877 73.7098L575.99 76.1023C574.748 74.952 573.322 74.2619 571.527 74.2619C567.479 74.2619 564.534 77.7126 564.534 82.8657C564.534 87.9727 567.295 91.3775 571.389 91.3775C573.46 91.3775 575.3 90.4573 576.635 89.261L578.291 91.6995C576.266 93.5399 573.736 94.5521 571.067 94.5521ZM587.219 94.5521C584.367 94.5521 583.216 92.7117 583.216 89.4911V61.2412H587.035V89.7671C587.035 90.9634 587.541 91.3775 588.139 91.3775C588.37 91.3775 588.554 91.3775 588.922 91.2854L589.428 94.138C588.876 94.4141 588.185 94.5521 587.219 94.5521ZM603.961 94.5521C597.98 94.5521 593.287 90.2272 593.287 82.8197C593.287 75.5501 598.21 71.0872 603.317 71.0872C609.022 71.0872 612.289 75.1361 612.289 81.5774C612.289 82.4056 612.243 83.0957 612.105 83.8319H597.06C597.382 88.4328 600.189 91.4695 604.421 91.4695C606.584 91.4695 608.47 90.8713 610.035 89.8131L611.369 92.2516C609.437 93.6319 607.044 94.5521 603.961 94.5521ZM597.06 80.8873H608.884C608.884 76.4703 606.814 74.1238 603.409 74.1238C600.281 74.1238 597.52 76.6084 597.06 80.8873ZM623.612 94.5521C620.345 94.5521 617.354 93.3559 615.284 91.3314L617.032 89.123C618.965 90.7333 620.989 91.5615 623.75 91.5615C626.694 91.5615 628.121 90.0432 628.121 88.1108C628.121 85.8103 625.636 84.8441 623.106 83.9239C619.747 82.7276 616.526 81.1173 616.526 77.4365C616.526 73.8478 619.379 71.0872 624.256 71.0872C627.063 71.0872 629.455 72.1454 631.203 73.6177L629.455 75.8262C627.891 74.676 626.28 74.0318 624.302 74.0318C621.449 74.0318 620.207 75.5962 620.207 77.2525C620.207 79.2769 622.139 80.1051 624.946 81.0713C628.443 82.3136 631.802 83.8319 631.802 87.8807C631.802 91.5155 628.903 94.5521 623.612 94.5521ZM646.255 94V71.6393H649.384L649.706 74.86H649.844C651.822 72.7436 654.123 71.0872 656.791 71.0872C660.242 71.0872 662.082 72.6975 663.003 75.3201C665.303 72.8356 667.65 71.0872 670.364 71.0872C674.965 71.0872 677.173 74.1238 677.173 79.829V94H673.355V80.3351C673.355 76.1483 672.02 74.3999 669.214 74.3999C667.465 74.3999 665.671 75.5041 663.601 77.8046V94H659.782V80.3351C659.782 76.1483 658.494 74.3999 655.641 74.3999C653.985 74.3999 652.144 75.5041 650.074 77.8046V94H646.255ZM693.42 94.5521C687.438 94.5521 682.745 90.2272 682.745 82.8197C682.745 75.5501 687.668 71.0872 692.775 71.0872C698.481 71.0872 701.747 75.1361 701.747 81.5774C701.747 82.4056 701.701 83.0957 701.563 83.8319H686.518C686.84 88.4328 689.647 91.4695 693.88 91.4695C696.042 91.4695 697.929 90.8713 699.493 89.8131L700.827 92.2516C698.895 93.6319 696.502 94.5521 693.42 94.5521ZM686.518 80.8873H698.343C698.343 76.4703 696.272 74.1238 692.867 74.1238C689.739 74.1238 686.978 76.6084 686.518 80.8873ZM716.245 94.5521C710.263 94.5521 705.57 90.2272 705.57 82.8197C705.57 75.5501 710.493 71.0872 715.601 71.0872C721.306 71.0872 724.572 75.1361 724.572 81.5774C724.572 82.4056 724.526 83.0957 724.388 83.8319H709.343C709.665 88.4328 712.472 91.4695 716.705 91.4695C718.867 91.4695 720.754 90.8713 722.318 89.8131L723.652 92.2516C721.72 93.6319 719.327 94.5521 716.245 94.5521ZM709.343 80.8873H721.168C721.168 76.4703 719.097 74.1238 715.693 74.1238C712.564 74.1238 709.803 76.6084 709.343 80.8873ZM736.642 94.5521C731.857 94.5521 730.247 91.5155 730.247 87.0525V74.722H726.934V71.8694L730.431 71.6393L730.891 64.4618H734.065V71.6393H740.139V74.722H734.065V87.1446C734.065 89.8591 734.986 91.4235 737.516 91.4235C738.344 91.4235 739.173 91.2854 740.093 90.8713L740.875 93.5859C739.679 94.138 738.16 94.5521 736.642 94.5521ZM745.194 94V71.6393H749.012V94H745.194ZM747.126 67.0384C745.654 67.0384 744.596 66.0722 744.596 64.5538C744.596 63.0815 745.654 62.0693 747.126 62.0693C748.598 62.0693 749.657 63.0815 749.657 64.5538C749.657 66.0722 748.598 67.0384 747.126 67.0384ZM756.561 94V71.6393H759.69L760.012 74.86H760.15C762.266 72.7436 764.567 71.0872 767.65 71.0872C772.389 71.0872 774.505 74.1238 774.505 79.829V94H770.686V80.3351C770.686 76.1483 769.398 74.3999 766.453 74.3999C764.199 74.3999 762.589 75.5501 760.38 77.8046V94H756.561ZM789.268 104.306C783.793 104.306 780.02 102.144 780.02 98.2789C780.02 96.3925 781.263 94.5981 783.287 93.2178V93.0338C782.183 92.3437 781.309 91.1474 781.309 89.399C781.309 87.5126 782.597 86.0403 783.747 85.2582V85.0741C782.275 83.8779 780.849 81.7154 780.849 79.0469C780.849 74.1699 784.713 71.0872 789.268 71.0872C790.511 71.0872 791.615 71.3173 792.443 71.6393H800.219V74.5839H795.664C796.722 75.5962 797.458 77.2525 797.458 79.1389C797.458 83.9239 793.823 86.9145 789.268 86.9145C788.164 86.9145 786.968 86.6385 785.956 86.1324C785.128 86.8225 784.529 87.5587 784.529 88.8009C784.529 90.1812 785.45 91.1934 788.44 91.1934H792.765C797.964 91.1934 800.587 92.8498 800.587 96.5305C800.587 100.717 796.216 104.306 789.268 104.306ZM789.268 84.338C791.845 84.338 794.007 82.3136 794.007 79.0469C794.007 75.8262 791.891 73.8478 789.268 73.8478C786.646 73.8478 784.529 75.7802 784.529 79.0469C784.529 82.3136 786.692 84.338 789.268 84.338ZM789.82 101.638C794.053 101.638 796.86 99.4291 796.86 97.1287C796.86 95.0582 795.296 94.3681 792.351 94.3681H788.532C787.658 94.3681 786.6 94.2761 785.634 94C784.023 95.1502 783.333 96.4845 783.333 97.7728C783.333 100.165 785.772 101.638 789.82 101.638ZM819.316 94.5521C815.589 94.5521 812.783 92.2516 812.783 88.2028C812.783 83.2337 816.924 80.8412 826.494 79.783C826.448 76.9764 825.528 74.2619 821.893 74.2619C819.316 74.2619 816.97 75.4121 815.221 76.5624L813.749 73.9858C815.82 72.6055 818.948 71.0872 822.537 71.0872C827.966 71.0872 830.313 74.722 830.313 80.2431V94H827.184L826.816 91.3314H826.678C824.561 93.1258 822.123 94.5521 819.316 94.5521ZM820.374 91.4235C822.537 91.4235 824.331 90.4573 826.494 88.5709V82.4976C818.948 83.3718 816.51 85.0741 816.51 87.9727C816.51 90.4573 818.212 91.4235 820.374 91.4235ZM843.758 94.5521C838.973 94.5521 837.363 91.5155 837.363 87.0525V74.722H834.05V71.8694L837.547 71.6393L838.007 64.4618H841.182V71.6393H847.255V74.722H841.182V87.1446C841.182 89.8591 842.102 91.4235 844.632 91.4235C845.46 91.4235 846.289 91.2854 847.209 90.8713L847.991 93.5859C846.795 94.138 845.276 94.5521 843.758 94.5521ZM866.674 94.5521C862.947 94.5521 860.14 92.2516 860.14 88.2028C860.14 83.2337 864.281 80.8412 873.851 79.783C873.805 76.9764 872.885 74.2619 869.25 74.2619C866.674 74.2619 864.327 75.4121 862.579 76.5624L861.107 73.9858C863.177 72.6055 866.306 71.0872 869.894 71.0872C875.324 71.0872 877.67 74.722 877.67 80.2431V94H874.541L874.173 91.3314H874.035C871.919 93.1258 869.48 94.5521 866.674 94.5521ZM867.732 91.4235C869.894 91.4235 871.689 90.4573 873.851 88.5709V82.4976C866.306 83.3718 863.867 85.0741 863.867 87.9727C863.867 90.4573 865.57 91.4235 867.732 91.4235ZM893.916 103.432V71.6393H897.045L897.367 74.2159H897.505C899.529 72.5135 902.06 71.0872 904.636 71.0872C910.388 71.0872 913.516 75.5501 913.516 82.4976C913.516 90.0892 908.915 94.5521 903.808 94.5521C901.784 94.5521 899.667 93.5859 897.643 91.9756L897.735 95.8864V103.432H893.916ZM903.164 91.3314C906.845 91.3314 909.559 88.0187 909.559 82.4976C909.559 77.5746 907.857 74.3079 903.67 74.3079C901.784 74.3079 899.897 75.3201 897.735 77.3445V89.031C899.759 90.7333 901.692 91.3314 903.164 91.3314ZM928.133 94.5521C922.658 94.5521 917.781 90.2732 917.781 82.8657C917.781 75.3661 922.658 71.0872 928.133 71.0872C933.608 71.0872 938.531 75.3661 938.531 82.8657C938.531 90.2732 933.608 94.5521 928.133 94.5521ZM928.133 91.3775C931.998 91.3775 934.574 87.9727 934.574 82.8657C934.574 77.7126 931.998 74.2619 928.133 74.2619C924.314 74.2619 921.738 77.7126 921.738 82.8657C921.738 87.9727 924.314 91.3775 928.133 91.3775ZM944.374 94V71.6393H948.193V94H944.374ZM946.306 67.0384C944.834 67.0384 943.776 66.0722 943.776 64.5538C943.776 63.0815 944.834 62.0693 946.306 62.0693C947.779 62.0693 948.837 63.0815 948.837 64.5538C948.837 66.0722 947.779 67.0384 946.306 67.0384ZM955.742 94V71.6393H958.87L959.192 74.86H959.33C961.447 72.7436 963.747 71.0872 966.83 71.0872C971.569 71.0872 973.685 74.1238 973.685 79.829V94H969.867V80.3351C969.867 76.1483 968.578 74.3999 965.634 74.3999C963.379 74.3999 961.769 75.5501 959.56 77.8046V94H955.742ZM987.943 94.5521C983.158 94.5521 981.547 91.5155 981.547 87.0525V74.722H978.235V71.8694L981.731 71.6393L982.191 64.4618H985.366V71.6393H991.439V74.722H985.366V87.1446C985.366 89.8591 986.286 91.4235 988.817 91.4235C989.645 91.4235 990.473 91.2854 991.393 90.8713L992.175 93.5859C990.979 94.138 989.461 94.5521 987.943 94.5521Z" fill="white"/>
<path d="M1025.58 20.5117H33.4213C18.9338 20.5117 7.18945 32.2561 7.18945 46.7435V113.628C7.18945 128.115 18.9338 139.86 33.4213 139.86H1025.58C1040.07 139.86 1051.81 128.115 1051.81 113.628V46.7435C1051.81 32.2561 1040.07 20.5117 1025.58 20.5117Z" stroke="#3AA1D4" stroke-width="5.3791"/>
<mask id="mask0_11299_2" style="mask-type:luminance" maskUnits="userSpaceOnUse" x="1016" y="38" width="79" height="84">
<path d="M1094.75 38.8516H1016.67V121.52H1094.75V38.8516Z" fill="white"/>
</mask>
<g mask="url(#mask0_11299_2)">
<mask id="mask1_11299_2" style="mask-type:luminance" maskUnits="userSpaceOnUse" x="1016" y="38" width="79" height="84">
<path d="M1094.75 38.8516H1016.67V121.52H1094.75V38.8516Z" fill="white"/>
</mask>
<g mask="url(#mask1_11299_2)">
<path d="M1055.71 114.991C1035.37 114.991 1018.84 98.4144 1018.84 78.0084C1018.84 57.6025 1035.37 41.0254 1055.71 41.0254C1076.06 41.0254 1092.59 57.6025 1092.59 78.0084C1092.59 98.4144 1076.06 114.991 1055.71 114.991Z" fill="#2A3C4F"/>
<path d="M1055.71 43.2025C1074.84 43.2025 1090.42 58.8224 1090.42 78.0101C1090.42 97.1977 1074.84 112.818 1055.71 112.818C1036.58 112.818 1021 97.1977 1021 78.0101C1021 58.8224 1036.58 43.2025 1055.71 43.2025ZM1055.71 38.8516C1034.15 38.8516 1016.67 56.3859 1016.67 78.0101C1016.67 99.6343 1034.15 117.169 1055.71 117.169C1077.27 117.169 1094.75 99.6343 1094.75 78.0101C1094.75 56.3859 1077.27 38.8516 1055.71 38.8516Z" fill="#3AA1D4"/>
<path d="M1033.7 119.429C1032.66 119.429 1031.62 118.951 1030.84 118.037C1029.93 116.993 1029.49 115.601 1029.67 114.295C1030.19 110.118 1031.84 102.678 1036.48 100.198C1038 99.4151 1039.56 98.8059 1041.08 98.2403C1044.81 96.848 1049.06 95.2817 1049.06 90.3216C1048.54 86.5798 1047.5 84.8829 1046.37 83.0555C1044.9 80.706 1043.25 78.0084 1041.95 69.6981C1041.56 67.2616 1042.16 61.9969 1045.42 58.2551C1047.85 55.427 1051.23 53.9912 1055.52 53.9912C1058.82 53.9912 1061.51 55.253 1063.77 57.7765C1067.32 61.6924 1068.8 67.5662 1068.5 70.3073C1067.84 76.4856 1066.28 79.5313 1064.81 82.4899C1063.68 84.6654 1062.55 86.9279 1061.9 90.2346C1061.86 95.5862 1066.2 97.1526 1070.06 98.5449C1071.66 99.1105 1073.31 99.7196 1074.83 100.546C1079.47 103.026 1081.25 110.249 1081.86 114.295C1082.07 115.601 1081.64 116.993 1080.77 118.037C1079.99 118.951 1078.95 119.473 1077.87 119.473H1033.83L1033.7 119.429Z" fill="#19222B"/>
<path d="M1055.71 56.1189C1058.14 56.1189 1060.22 57.1196 1062.09 59.208C1065.3 62.7758 1066.51 68.1275 1066.3 70.0854C1065.69 75.8721 1064.3 78.6132 1062.83 81.5284C1061.65 83.8344 1060.4 86.2274 1059.7 89.7952L1059.62 90.1868V90.5783C1059.62 97.0177 1065.17 98.9757 1069.2 100.455C1070.72 100.977 1072.33 101.586 1073.71 102.326C1076.58 103.849 1078.7 108.2 1079.66 114.552C1079.79 115.248 1079.53 116.031 1079.05 116.597C1078.83 116.858 1078.36 117.293 1077.71 117.293H1033.67C1033.07 117.293 1032.63 116.858 1032.37 116.597C1031.85 116.031 1031.59 115.205 1031.68 114.509C1032.5 108.069 1034.58 103.501 1037.36 102.021C1038.75 101.282 1040.27 100.716 1041.7 100.194C1045.65 98.7146 1051.03 96.7132 1051.03 90.3173V89.7081C1050.42 85.8358 1049.16 83.7473 1047.99 81.9199C1046.64 79.7445 1045.08 77.2644 1043.87 69.3892C1043.52 67.1703 1044.22 62.6888 1046.82 59.5996C1048.86 57.2501 1051.63 56.0753 1055.32 56.0753H1055.62L1055.71 56.1189ZM1055.71 51.8984H1055.41C1041.79 51.8984 1038.97 64.8207 1039.79 70.0419C1042.09 84.9221 1045.86 83.0947 1046.86 90.3173C1046.86 95.3209 1040.92 95.4079 1035.41 98.323C1030.16 101.108 1028.21 108.591 1027.51 113.986C1027.04 117.728 1029.9 121.514 1033.63 121.514H1077.66C1081.44 121.514 1084.34 117.685 1083.78 113.899C1082.96 108.504 1080.87 101.369 1075.62 98.6276C1070.11 95.7124 1063.74 95.5819 1063.74 90.6218C1065.17 83.3993 1069.2 81.7894 1070.37 70.564C1070.94 65.2994 1066.34 51.9419 1055.62 51.9419" fill="#3AA1D4"/>
</g>
</g>
</svg>
