<svg width="1096" height="160" viewBox="0 0 1096 160" fill="none" xmlns="http://www.w3.org/2000/svg">
<rect x="7.18955" y="20.5118" width="1044.62" height="119.348" rx="26.2318" fill="#82C2FF" fill-opacity="0.15"/>
<rect x="7.18955" y="20.5118" width="1044.62" height="119.348" rx="26.2318" stroke="#3AA1D4" stroke-width="5.3791"/>
<g opacity="0.9">
<path d="M52.0012 94.6855V64.3297H56.86L62.598 80.5719C63.3384 82.7005 63.9862 84.6441 64.6341 86.9115H64.8192C65.5133 84.6441 66.0686 82.7005 66.8089 80.5719L72.5469 64.3297H77.4057V94.6855H73.7501V77.9343C73.7501 75.2504 74.074 71.5022 74.3054 68.8646H74.1203L71.7603 75.9445L66.0686 91.6315H63.2458L57.6004 75.9445L55.1941 68.8646H55.009C55.2404 71.5022 55.5643 75.2504 55.5643 77.9343V94.6855H52.0012ZM90.4811 95.2408C86.7329 95.2408 83.9101 92.9271 83.9101 88.855C83.9101 83.8574 88.0748 81.4511 97.6998 80.3868C97.6536 77.5641 96.7281 74.8339 93.0724 74.8339C90.4811 74.8339 88.1211 75.9908 86.3627 77.1476L84.8819 74.5563C86.9642 73.1681 90.1109 71.641 93.7203 71.641C99.1806 71.641 101.541 75.2967 101.541 80.8496V94.6855H98.3939L98.0238 92.0016H97.8849C95.7563 93.8063 93.3038 95.2408 90.4811 95.2408ZM91.5454 92.0942C93.7203 92.0942 95.5249 91.1224 97.6998 89.2252V83.117C90.1109 83.9962 87.6583 85.7084 87.6583 88.6236C87.6583 91.1224 89.3705 92.0942 91.5454 92.0942ZM108.616 94.6855V61.7383H112.411V83.9499H112.55L122.036 72.1963H126.339L118.843 81.266L127.311 94.6855H123.146L116.575 83.9037L112.411 88.7625V94.6855H108.616ZM139.784 95.2408C133.768 95.2408 129.048 90.8911 129.048 83.4409C129.048 76.1296 133.999 71.641 139.136 71.641C144.874 71.641 148.159 75.7131 148.159 82.1915C148.159 83.0245 148.113 83.7186 147.974 84.459H132.843C133.166 89.0864 135.989 92.1405 140.246 92.1405C142.421 92.1405 144.319 91.5389 145.892 90.4746L147.234 92.9271C145.29 94.3154 142.884 95.2408 139.784 95.2408ZM132.843 81.4974H144.735C144.735 77.0551 142.653 74.6951 139.228 74.6951C136.082 74.6951 133.305 77.1939 132.843 81.4974ZM168.117 95.2408C164.369 95.2408 161.546 92.9271 161.546 88.855C161.546 83.8574 165.711 81.4511 175.336 80.3868C175.289 77.5641 174.364 74.8339 170.708 74.8339C168.117 74.8339 165.757 75.9908 163.998 77.1476L162.518 74.5563C164.6 73.1681 167.747 71.641 171.356 71.641C176.816 71.641 179.176 75.2967 179.176 80.8496V94.6855H176.03L175.66 92.0016H175.521C173.392 93.8063 170.94 95.2408 168.117 95.2408ZM169.181 92.0942C171.356 92.0942 173.161 91.1224 175.336 89.2252V83.117C167.747 83.9962 165.294 85.7084 165.294 88.6236C165.294 91.1224 167.006 92.0942 169.181 92.0942ZM204.4 95.2408C198.431 95.2408 193.85 90.9373 193.85 83.4872C193.85 75.9445 198.894 71.641 204.678 71.641C207.64 71.641 209.676 72.7979 211.249 74.2786L209.352 76.6849C208.102 75.528 206.668 74.8339 204.863 74.8339C200.791 74.8339 197.83 78.3045 197.83 83.4872C197.83 88.6236 200.606 92.0479 204.724 92.0479C206.807 92.0479 208.658 91.1224 210 89.9193L211.665 92.3718C209.629 94.2228 207.084 95.2408 204.4 95.2408ZM224.371 95.2408C218.864 95.2408 213.959 90.9373 213.959 83.4872C213.959 75.9445 218.864 71.641 224.371 71.641C229.878 71.641 234.829 75.9445 234.829 83.4872C234.829 90.9373 229.878 95.2408 224.371 95.2408ZM224.371 92.0479C228.258 92.0479 230.849 88.6236 230.849 83.4872C230.849 78.3045 228.258 74.8339 224.371 74.8339C220.53 74.8339 217.939 78.3045 217.939 83.4872C217.939 88.6236 220.53 92.0479 224.371 92.0479ZM240.705 94.6855V72.1963H243.852L244.176 75.4355H244.315C246.443 73.3069 248.757 71.641 251.857 71.641C256.624 71.641 258.752 74.6951 258.752 80.4331V94.6855H254.912V80.9421C254.912 76.7312 253.616 74.9728 250.654 74.9728C248.387 74.9728 246.767 76.1296 244.546 78.397V94.6855H240.705ZM271.888 95.2408C268.603 95.2408 265.595 94.0377 263.513 92.0016L265.271 89.7805C267.215 91.4001 269.251 92.233 272.027 92.233C274.989 92.233 276.423 90.706 276.423 88.7625C276.423 86.4487 273.924 85.477 271.379 84.5515C268.001 83.3484 264.762 81.7288 264.762 78.0268C264.762 74.4175 267.631 71.641 272.536 71.641C275.359 71.641 277.765 72.7053 279.524 74.1861L277.765 76.4073C276.192 75.2504 274.572 74.6026 272.583 74.6026C269.714 74.6026 268.464 76.1759 268.464 77.8418C268.464 79.8778 270.408 80.7108 273.23 81.6825C276.747 82.9319 280.125 84.459 280.125 88.5311C280.125 92.1867 277.21 95.2408 271.888 95.2408ZM291.574 95.2408C286.762 95.2408 285.142 92.1867 285.142 87.6981V75.2967H281.81V72.4277L285.327 72.1963L285.79 64.9775H288.983V72.1963H295.091V75.2967H288.983V87.7907C288.983 90.5209 289.908 92.0942 292.453 92.0942C293.286 92.0942 294.119 91.9554 295.045 91.5389L295.831 94.2691C294.628 94.8244 293.101 95.2408 291.574 95.2408ZM300.175 94.6855V72.1963H303.322L303.646 76.2684H303.784C305.358 73.4457 307.671 71.641 310.17 71.641C311.188 71.641 311.882 71.7798 312.576 72.1038L311.743 75.3892C311.096 75.2041 310.587 75.1116 309.707 75.1116C307.81 75.1116 305.543 76.4535 304.016 80.248V94.6855H300.175ZM322.833 95.2408C318.067 95.2408 315.939 92.1867 315.939 86.4487V72.1963H319.779V85.9397C319.779 90.1044 321.075 91.9091 324.036 91.9091C326.304 91.9091 327.924 90.7522 330.006 88.1146V72.1963H333.847V94.6855H330.7L330.376 91.1687H330.237C328.155 93.6212 325.934 95.2408 322.833 95.2408ZM350.318 95.2408C344.348 95.2408 339.767 90.9373 339.767 83.4872C339.767 75.9445 344.811 71.641 350.595 71.641C353.557 71.641 355.593 72.7979 357.166 74.2786L355.269 76.6849C354.02 75.528 352.585 74.8339 350.78 74.8339C346.708 74.8339 343.747 78.3045 343.747 83.4872C343.747 88.6236 346.523 92.0479 350.642 92.0479C352.724 92.0479 354.575 91.1224 355.917 89.9193L357.583 92.3718C355.547 94.2228 353.002 95.2408 350.318 95.2408ZM369.165 95.2408C364.352 95.2408 362.733 92.1867 362.733 87.6981V75.2967H359.401V72.4277L362.918 72.1963L363.38 64.9775H366.573V72.1963H372.681V75.2967H366.573V87.7907C366.573 90.5209 367.499 92.0942 370.044 92.0942C370.877 92.0942 371.71 91.9554 372.635 91.5389L373.422 94.2691C372.219 94.8244 370.692 95.2408 369.165 95.2408ZM377.765 94.6855V72.1963H381.606V94.6855H377.765ZM379.709 67.5689C378.228 67.5689 377.164 66.5971 377.164 65.0701C377.164 63.5893 378.228 62.5713 379.709 62.5713C381.19 62.5713 382.254 63.5893 382.254 65.0701C382.254 66.5971 381.19 67.5689 379.709 67.5689ZM397.944 95.2408C392.438 95.2408 387.533 90.9373 387.533 83.4872C387.533 75.9445 392.438 71.641 397.944 71.641C403.451 71.641 408.402 75.9445 408.402 83.4872C408.402 90.9373 403.451 95.2408 397.944 95.2408ZM397.944 92.0479C401.831 92.0479 404.423 88.6236 404.423 83.4872C404.423 78.3045 401.831 74.8339 397.944 74.8339C394.104 74.8339 391.512 78.3045 391.512 83.4872C391.512 88.6236 394.104 92.0479 397.944 92.0479ZM414.279 94.6855V72.1963H417.425L417.749 75.4355H417.888C420.017 73.3069 422.33 71.641 425.431 71.641C430.197 71.641 432.326 74.6951 432.326 80.4331V94.6855H428.485V80.9421C428.485 76.7312 427.189 74.9728 424.228 74.9728C421.96 74.9728 420.341 76.1296 418.119 78.397V94.6855H414.279ZM457.595 95.2408C452.088 95.2408 447.183 90.9373 447.183 83.4872C447.183 75.9445 452.088 71.641 457.595 71.641C463.101 71.641 468.053 75.9445 468.053 83.4872C468.053 90.9373 463.101 95.2408 457.595 95.2408ZM457.595 92.0479C461.482 92.0479 464.073 88.6236 464.073 83.4872C464.073 78.3045 461.482 74.8339 457.595 74.8339C453.754 74.8339 451.162 78.3045 451.162 83.4872C451.162 88.6236 453.754 92.0479 457.595 92.0479ZM474.577 94.6855V75.2967H471.523V72.4277L474.577 72.1963V68.6795C474.577 64.0983 476.659 61.1831 481.148 61.1831C482.536 61.1831 483.97 61.507 484.896 61.9234L484.063 64.7462C483.184 64.4685 482.351 64.2834 481.564 64.2834C479.436 64.2834 478.418 65.8105 478.418 68.6795V72.1963H483.138V75.2967H478.418V94.6855H474.577ZM503.831 95.2408C499.111 95.2408 496.103 93.251 494.113 91.0762L496.057 88.5774C497.815 90.4283 500.129 92.0479 503.599 92.0479C507.163 92.0479 509.708 89.9656 509.708 86.6801C509.708 83.1633 507.301 80.8033 500.268 80.8033V77.888C506.515 77.888 508.643 75.4818 508.643 72.3814C508.643 69.5587 506.7 67.754 503.553 67.754C501.101 67.754 499.018 69.0034 497.26 70.7155L495.224 68.3093C497.491 66.1807 500.221 64.6073 503.692 64.6073C508.828 64.6073 512.53 67.3375 512.53 72.1038C512.53 75.6669 510.402 77.9343 507.209 79.1374V79.3225C510.772 80.1555 513.595 82.7468 513.595 86.8189C513.595 92.0479 509.245 95.2408 503.831 95.2408ZM537.855 95.2408C531.885 95.2408 527.304 90.9373 527.304 83.4872C527.304 75.9445 532.348 71.641 538.132 71.641C541.094 71.641 543.13 72.7979 544.703 74.2786L542.806 76.6849C541.556 75.528 540.122 74.8339 538.317 74.8339C534.245 74.8339 531.284 78.3045 531.284 83.4872C531.284 88.6236 534.06 92.0479 538.178 92.0479C540.261 92.0479 542.112 91.1224 543.454 89.9193L545.12 92.3718C543.084 94.2228 540.538 95.2408 537.855 95.2408ZM550.073 94.6855V72.1963H553.914V94.6855H550.073ZM552.017 67.5689C550.536 67.5689 549.472 66.5971 549.472 65.0701C549.472 63.5893 550.536 62.5713 552.017 62.5713C553.498 62.5713 554.562 63.5893 554.562 65.0701C554.562 66.5971 553.498 67.5689 552.017 67.5689ZM561.506 94.6855V72.1963H564.653L564.977 76.2684H565.116C566.689 73.4457 569.003 71.641 571.502 71.641C572.52 71.641 573.214 71.7798 573.908 72.1038L573.075 75.3892C572.427 75.2041 571.918 75.1116 571.039 75.1116C569.142 75.1116 566.874 76.4535 565.347 80.248V94.6855H561.506ZM586.027 95.2408C580.057 95.2408 575.476 90.9373 575.476 83.4872C575.476 75.9445 580.52 71.641 586.304 71.641C589.266 71.641 591.302 72.7979 592.875 74.2786L590.978 76.6849C589.729 75.528 588.294 74.8339 586.489 74.8339C582.417 74.8339 579.456 78.3045 579.456 83.4872C579.456 88.6236 582.232 92.0479 586.351 92.0479C588.433 92.0479 590.284 91.1224 591.626 89.9193L593.292 92.3718C591.256 94.2228 588.711 95.2408 586.027 95.2408ZM602.271 95.2408C599.402 95.2408 598.246 93.3899 598.246 90.1507V61.7383H602.086V90.4283C602.086 91.6315 602.595 92.0479 603.197 92.0479C603.428 92.0479 603.613 92.0479 603.984 91.9554L604.493 94.8244C603.937 95.102 603.243 95.2408 602.271 95.2408ZM619.11 95.2408C613.094 95.2408 608.374 90.8911 608.374 83.4409C608.374 76.1296 613.326 71.641 618.462 71.641C624.2 71.641 627.485 75.7131 627.485 82.1915C627.485 83.0245 627.439 83.7186 627.3 84.459H612.169C612.493 89.0864 615.315 92.1405 619.573 92.1405C621.747 92.1405 623.645 91.5389 625.218 90.4746L626.56 92.9271C624.616 94.3154 622.21 95.2408 619.11 95.2408ZM612.169 81.4974H624.061C624.061 77.0551 621.979 74.6951 618.555 74.6951C615.408 74.6951 612.631 77.1939 612.169 81.4974ZM638.873 95.2408C635.588 95.2408 632.58 94.0377 630.498 92.0016L632.256 89.7805C634.2 91.4001 636.236 92.233 639.012 92.233C641.974 92.233 643.408 90.706 643.408 88.7625C643.408 86.4487 640.909 85.477 638.364 84.5515C634.986 83.3484 631.747 81.7288 631.747 78.0268C631.747 74.4175 634.616 71.641 639.521 71.641C642.344 71.641 644.75 72.7053 646.508 74.1861L644.75 76.4073C643.177 75.2504 641.557 74.6026 639.567 74.6026C636.698 74.6026 635.449 76.1759 635.449 77.8418C635.449 79.8778 637.392 80.7108 640.215 81.6825C643.732 82.9319 647.11 84.459 647.11 88.5311C647.11 92.1867 644.195 95.2408 638.873 95.2408ZM661.647 94.6855V72.1963H664.793L665.117 75.4355H665.256C667.246 73.3069 669.559 71.641 672.243 71.641C675.714 71.641 677.565 73.2606 678.49 75.8982C680.804 73.3994 683.164 71.641 685.894 71.641C690.522 71.641 692.743 74.6951 692.743 80.4331V94.6855H688.902V80.9421C688.902 76.7312 687.56 74.9728 684.737 74.9728C682.979 74.9728 681.174 76.0833 679.092 78.397V94.6855H675.251V80.9421C675.251 76.7312 673.956 74.9728 671.087 74.9728C669.421 74.9728 667.57 76.0833 665.487 78.397V94.6855H661.647ZM709.082 95.2408C703.067 95.2408 698.347 90.8911 698.347 83.4409C698.347 76.1296 703.298 71.641 708.435 71.641C714.173 71.641 717.458 75.7131 717.458 82.1915C717.458 83.0245 717.412 83.7186 717.273 84.459H702.141C702.465 89.0864 705.288 92.1405 709.545 92.1405C711.72 92.1405 713.617 91.5389 715.191 90.4746L716.532 92.9271C714.589 94.3154 712.183 95.2408 709.082 95.2408ZM702.141 81.4974H714.034C714.034 77.0551 711.951 74.6951 708.527 74.6951C705.38 74.6951 702.604 77.1939 702.141 81.4974ZM732.039 95.2408C726.023 95.2408 721.303 90.8911 721.303 83.4409C721.303 76.1296 726.254 71.641 731.391 71.641C737.129 71.641 740.414 75.7131 740.414 82.1915C740.414 83.0245 740.368 83.7186 740.229 84.459H725.098C725.421 89.0864 728.244 92.1405 732.501 92.1405C734.676 92.1405 736.574 91.5389 738.147 90.4746L739.489 92.9271C737.545 94.3154 735.139 95.2408 732.039 95.2408ZM725.098 81.4974H736.99C736.99 77.0551 734.908 74.6951 731.483 74.6951C728.337 74.6951 725.56 77.1939 725.098 81.4974ZM752.553 95.2408C747.741 95.2408 746.121 92.1867 746.121 87.6981V75.2967H742.789V72.4277L746.306 72.1963L746.769 64.9775H749.962V72.1963H756.07V75.2967H749.962V87.7907C749.962 90.5209 750.887 92.0942 753.432 92.0942C754.265 92.0942 755.098 91.9554 756.024 91.5389L756.81 94.2691C755.607 94.8244 754.08 95.2408 752.553 95.2408ZM761.154 94.6855V72.1963H764.995V94.6855H761.154ZM763.098 67.5689C761.617 67.5689 760.553 66.5971 760.553 65.0701C760.553 63.5893 761.617 62.5713 763.098 62.5713C764.578 62.5713 765.643 63.5893 765.643 65.0701C765.643 66.5971 764.578 67.5689 763.098 67.5689ZM772.587 94.6855V72.1963H775.734L776.058 75.4355H776.196C778.325 73.3069 780.639 71.641 783.739 71.641C788.505 71.641 790.634 74.6951 790.634 80.4331V94.6855H786.793V80.9421C786.793 76.7312 785.498 74.9728 782.536 74.9728C780.269 74.9728 778.649 76.1296 776.428 78.397V94.6855H772.587ZM805.482 105.051C799.976 105.051 796.181 102.876 796.181 98.989C796.181 97.0918 797.431 95.2871 799.467 93.8989V93.7138C798.356 93.0197 797.477 91.8165 797.477 90.0581C797.477 88.1609 798.773 86.6801 799.929 85.8935V85.7084C798.449 84.5052 797.014 82.3303 797.014 79.6464C797.014 74.7414 800.901 71.641 805.482 71.641C806.732 71.641 807.842 71.8724 808.675 72.1963H816.496V75.1579H811.914C812.979 76.1759 813.719 77.8418 813.719 79.739C813.719 84.5515 810.063 87.5593 805.482 87.5593C804.372 87.5593 803.169 87.2817 802.151 86.7727C801.318 87.4668 800.716 88.2072 800.716 89.4566C800.716 90.8448 801.642 91.8628 804.649 91.8628H808.999C814.228 91.8628 816.866 93.5287 816.866 97.2306C816.866 101.442 812.47 105.051 805.482 105.051ZM805.482 84.968C808.074 84.968 810.248 82.9319 810.248 79.6464C810.248 76.4073 808.12 74.4175 805.482 74.4175C802.845 74.4175 800.716 76.361 800.716 79.6464C800.716 82.9319 802.891 84.968 805.482 84.968ZM806.038 102.367C810.295 102.367 813.117 100.146 813.117 97.8322C813.117 95.7499 811.544 95.0557 808.583 95.0557H804.742C803.863 95.0557 802.798 94.9632 801.827 94.6855C800.207 95.8424 799.513 97.1844 799.513 98.48C799.513 100.886 801.965 102.367 806.038 102.367ZM835.703 95.2408C831.955 95.2408 829.132 92.9271 829.132 88.855C829.132 83.8574 833.297 81.4511 842.922 80.3868C842.875 77.5641 841.95 74.8339 838.294 74.8339C835.703 74.8339 833.343 75.9908 831.584 77.1476L830.104 74.5563C832.186 73.1681 835.333 71.641 838.942 71.641C844.402 71.641 846.762 75.2967 846.762 80.8496V94.6855H843.616L843.246 92.0016H843.107C840.978 93.8063 838.526 95.2408 835.703 95.2408ZM836.767 92.0942C838.942 92.0942 840.747 91.1224 842.922 89.2252V83.117C835.333 83.9962 832.88 85.7084 832.88 88.6236C832.88 91.1224 834.592 92.0942 836.767 92.0942ZM860.285 95.2408C855.473 95.2408 853.853 92.1867 853.853 87.6981V75.2967H850.521V72.4277L854.038 72.1963L854.501 64.9775H857.694V72.1963H863.802V75.2967H857.694V87.7907C857.694 90.5209 858.619 92.0942 861.165 92.0942C861.997 92.0942 862.83 91.9554 863.756 91.5389L864.543 94.2691C863.339 94.8244 861.812 95.2408 860.285 95.2408ZM883.333 95.2408C879.585 95.2408 876.762 92.9271 876.762 88.855C876.762 83.8574 880.926 81.4511 890.551 80.3868C890.505 77.5641 889.58 74.8339 885.924 74.8339C883.333 74.8339 880.973 75.9908 879.214 77.1476L877.734 74.5563C879.816 73.1681 882.963 71.641 886.572 71.641C892.032 71.641 894.392 75.2967 894.392 80.8496V94.6855H891.246L890.875 92.0016H890.737C888.608 93.8063 886.155 95.2408 883.333 95.2408ZM884.397 92.0942C886.572 92.0942 888.377 91.1224 890.551 89.2252V83.117C882.963 83.9962 880.51 85.7084 880.51 88.6236C880.51 91.1224 882.222 92.0942 884.397 92.0942ZM910.732 104.172V72.1963H913.878L914.202 74.7877H914.341C916.377 73.0755 918.922 71.641 921.514 71.641C927.298 71.641 930.445 76.1296 930.445 83.117C930.445 90.7522 925.817 95.2408 920.681 95.2408C918.645 95.2408 916.516 94.2691 914.48 92.6495L914.572 96.5828V104.172H910.732ZM920.033 92.0016C923.735 92.0016 926.465 88.6699 926.465 83.117C926.465 78.1657 924.753 74.8802 920.542 74.8802C918.645 74.8802 916.747 75.8982 914.572 77.9343V89.6879C916.609 91.4001 918.552 92.0016 920.033 92.0016ZM945.145 95.2408C939.639 95.2408 934.734 90.9373 934.734 83.4872C934.734 75.9445 939.639 71.641 945.145 71.641C950.652 71.641 955.603 75.9445 955.603 83.4872C955.603 90.9373 950.652 95.2408 945.145 95.2408ZM945.145 92.0479C949.032 92.0479 951.624 88.6236 951.624 83.4872C951.624 78.3045 949.032 74.8339 945.145 74.8339C941.305 74.8339 938.713 78.3045 938.713 83.4872C938.713 88.6236 941.305 92.0479 945.145 92.0479ZM961.48 94.6855V72.1963H965.32V94.6855H961.48ZM963.423 67.5689C961.942 67.5689 960.878 66.5971 960.878 65.0701C960.878 63.5893 961.942 62.5713 963.423 62.5713C964.904 62.5713 965.968 63.5893 965.968 65.0701C965.968 66.5971 964.904 67.5689 963.423 67.5689ZM972.913 94.6855V72.1963H976.059L976.383 75.4355H976.522C978.651 73.3069 980.964 71.641 984.065 71.641C988.831 71.641 990.96 74.6951 990.96 80.4331V94.6855H987.119V80.9421C987.119 76.7312 985.823 74.9728 982.862 74.9728C980.594 74.9728 978.975 76.1296 976.753 78.397V94.6855H972.913ZM1005.3 95.2408C1000.49 95.2408 998.867 92.1867 998.867 87.6981V75.2967H995.535V72.4277L999.052 72.1963L999.514 64.9775H1002.71V72.1963H1008.82V75.2967H1002.71V87.7907C1002.71 90.5209 1003.63 92.0942 1006.18 92.0942C1007.01 92.0942 1007.84 91.9554 1008.77 91.5389L1009.56 94.2691C1008.35 94.8244 1006.83 95.2408 1005.3 95.2408Z" fill="white"/>
</g>
<mask id="mask0_11283_205041" style="mask-type:luminance" maskUnits="userSpaceOnUse" x="1016" y="38" width="79" height="84">
<path d="M1094.75 38.8516H1016.67V121.52H1094.75V38.8516Z" fill="white"/>
</mask>
<g mask="url(#mask0_11283_205041)">
<mask id="mask1_11283_205041" style="mask-type:luminance" maskUnits="userSpaceOnUse" x="1016" y="38" width="79" height="84">
<path d="M1094.75 38.8516H1016.67V121.52H1094.75V38.8516Z" fill="white"/>
</mask>
<g mask="url(#mask1_11283_205041)">
<path d="M1055.71 114.991C1035.37 114.991 1018.84 98.4144 1018.84 78.0084C1018.84 57.6025 1035.37 41.0254 1055.71 41.0254C1076.06 41.0254 1092.59 57.6025 1092.59 78.0084C1092.59 98.4144 1076.06 114.991 1055.71 114.991Z" fill="#2A3C4F"/>
<path d="M1055.71 43.2025C1074.84 43.2025 1090.42 58.8224 1090.42 78.0101C1090.42 97.1977 1074.84 112.818 1055.71 112.818C1036.58 112.818 1021 97.1977 1021 78.0101C1021 58.8224 1036.58 43.2025 1055.71 43.2025ZM1055.71 38.8516C1034.15 38.8516 1016.67 56.3859 1016.67 78.0101C1016.67 99.6343 1034.15 117.169 1055.71 117.169C1077.27 117.169 1094.75 99.6343 1094.75 78.0101C1094.75 56.3859 1077.27 38.8516 1055.71 38.8516Z" fill="#3AA1D4"/>
<path d="M1033.7 119.429C1032.66 119.429 1031.62 118.951 1030.84 118.037C1029.93 116.993 1029.49 115.601 1029.67 114.295C1030.19 110.118 1031.84 102.678 1036.48 100.198C1038 99.4151 1039.56 98.8059 1041.08 98.2403C1044.81 96.848 1049.06 95.2817 1049.06 90.3216C1048.54 86.5798 1047.5 84.8829 1046.37 83.0555C1044.9 80.706 1043.25 78.0084 1041.95 69.6981C1041.56 67.2616 1042.16 61.9969 1045.42 58.2551C1047.85 55.427 1051.23 53.9912 1055.52 53.9912C1058.82 53.9912 1061.51 55.253 1063.77 57.7765C1067.32 61.6924 1068.8 67.5662 1068.5 70.3073C1067.84 76.4856 1066.28 79.5313 1064.81 82.4899C1063.68 84.6654 1062.55 86.9279 1061.9 90.2346C1061.86 95.5862 1066.2 97.1526 1070.06 98.5449C1071.66 99.1105 1073.31 99.7196 1074.83 100.546C1079.47 103.026 1081.25 110.249 1081.86 114.295C1082.07 115.601 1081.64 116.993 1080.77 118.037C1079.99 118.951 1078.95 119.473 1077.87 119.473H1033.83L1033.7 119.429Z" fill="#19222B"/>
<path d="M1055.71 56.1189C1058.14 56.1189 1060.22 57.1196 1062.09 59.208C1065.3 62.7758 1066.51 68.1275 1066.3 70.0854C1065.69 75.8721 1064.3 78.6132 1062.83 81.5284C1061.65 83.8344 1060.4 86.2274 1059.7 89.7952L1059.62 90.1868V90.5783C1059.62 97.0177 1065.17 98.9757 1069.2 100.455C1070.72 100.977 1072.33 101.586 1073.71 102.326C1076.58 103.849 1078.7 108.2 1079.66 114.552C1079.79 115.248 1079.53 116.031 1079.05 116.597C1078.83 116.858 1078.36 117.293 1077.71 117.293H1033.67C1033.07 117.293 1032.63 116.858 1032.37 116.597C1031.85 116.031 1031.59 115.205 1031.68 114.509C1032.5 108.069 1034.58 103.501 1037.36 102.021C1038.75 101.282 1040.27 100.716 1041.7 100.194C1045.65 98.7146 1051.03 96.7132 1051.03 90.3173V89.7081C1050.42 85.8358 1049.16 83.7473 1047.99 81.9199C1046.64 79.7445 1045.08 77.2644 1043.87 69.3892C1043.52 67.1703 1044.22 62.6888 1046.82 59.5996C1048.86 57.2501 1051.63 56.0753 1055.32 56.0753H1055.62L1055.71 56.1189ZM1055.71 51.8984H1055.41C1041.79 51.8984 1038.97 64.8207 1039.79 70.0419C1042.09 84.9221 1045.86 83.0947 1046.86 90.3173C1046.86 95.3209 1040.92 95.4079 1035.41 98.323C1030.16 101.108 1028.21 108.591 1027.51 113.986C1027.04 117.728 1029.9 121.514 1033.63 121.514H1077.66C1081.44 121.514 1084.34 117.685 1083.78 113.899C1082.96 108.504 1080.87 101.369 1075.62 98.6276C1070.11 95.7124 1063.74 95.5819 1063.74 90.6218C1065.17 83.3993 1069.2 81.7894 1070.37 70.564C1070.94 65.2994 1066.34 51.9419 1055.62 51.9419" fill="#3AA1D4"/>
</g>
</g>
</svg>
