<svg width="360" height="312" viewBox="0 0 360 312" fill="none" xmlns="http://www.w3.org/2000/svg">
<g clip-path="url(#clip0_11278_202304)">
<rect width="360" height="312" fill="white"/>
<mask id="mask0_11278_202304" style="mask-type:luminance" maskUnits="userSpaceOnUse" x="53" y="173" width="299" height="53">
<path d="M53.9746 173.472H351.73V225.123H53.9746V173.472Z" fill="white"/>
</mask>
<g mask="url(#mask0_11278_202304)">
<path d="M42.2246 199.591L54.1365 182.939L66.0445 196.22L77.9565 198.649L89.8684 203.697L101.776 214.925L113.688 190.389L125.596 194.211L137.508 199.041L149.416 195.544L161.328 193.957L173.236 197.838L185.148 193.839L197.06 193.791L208.968 196.667L220.88 189.768L232.788 191.702L244.7 195.833L256.608 196.901L268.52 193.874L280.428 197.063L292.34 192.49L304.252 195.037L316.16 194.222L328.072 195.599L339.98 193.471L351.892 199.152" stroke="#5E81B5" stroke-width="2.02554" stroke-miterlimit="3.25" stroke-linecap="square"/>
</g>
<mask id="mask1_11278_202304" style="mask-type:luminance" maskUnits="userSpaceOnUse" x="53" y="178" width="299" height="48">
<path d="M53.9746 178.536H351.73V225.124H53.9746V178.536Z" fill="white"/>
</mask>
<g mask="url(#mask1_11278_202304)">
<path d="M42.2246 210.541L54.1365 202.308L66.0445 201.05L77.9565 199.59L89.8684 198.495L101.776 200.564L113.688 204.12L125.596 188.434L137.508 197.323L149.416 215.767L161.328 203.345L173.236 203.677L185.148 196.849L197.06 200.105L208.968 195.207L220.88 200.512L232.788 198.273L244.7 195.488L256.608 203.97L268.52 204.702L280.428 199.04L292.34 188.244L304.252 201.612L316.16 201.537L328.072 197.711L339.98 199.59L351.892 200.049" stroke="#8778B3" stroke-width="2.02554" stroke-miterlimit="3.25" stroke-linecap="square"/>
</g>
<mask id="mask2_11278_202304" style="mask-type:luminance" maskUnits="userSpaceOnUse" x="53" y="169" width="299" height="67">
<path d="M53.9746 169.422H351.73V235.252H53.9746V169.422Z" fill="white"/>
</mask>
<g mask="url(#mask2_11278_202304)">
<path d="M42.2246 195.207L54.1365 183.814L66.0445 196.667L77.9565 225.879L89.8684 182.061L101.776 196.667L113.688 199.591L125.596 201.98L137.508 203.97L149.416 193.522L161.328 199.591L173.236 201.343L185.148 206.162L197.06 210.415L208.968 179.142L220.88 199.741L232.788 217.991L244.7 218.367L256.608 187.639L268.52 212.164L280.428 203.97L292.34 200.639L304.252 191.501L316.16 181.088L328.072 184.565L339.98 193.245L351.892 194.329" stroke="#88A731" stroke-width="2.02554" stroke-miterlimit="3.25" stroke-linecap="square"/>
</g>
<mask id="mask3_11278_202304" style="mask-type:luminance" maskUnits="userSpaceOnUse" x="53" y="163" width="299" height="90">
<path d="M53.9746 163.345H351.73V252.306H53.9746V163.345Z" fill="white"/>
</mask>
<g mask="url(#mask3_11278_202304)">
<path d="M42.2246 239.022L54.1365 173.299L66.0445 199.591L77.9565 210.854L89.8684 245.593L101.776 190.825L113.688 215.364L125.596 178.082L137.508 199.591L149.416 213.746L161.328 177.057L173.236 204.849L185.148 206.162L197.06 207.322L208.968 199.591L220.88 195.437L232.788 196.961L244.7 218.367L256.608 201.981L268.52 189.301L280.428 195.208L292.34 198.539L304.252 201.613L316.16 216.14L328.072 188.324L339.98 191.43L351.892 187.319" stroke="#EB6235" stroke-width="2.02554" stroke-miterlimit="3.25" stroke-linecap="square"/>
</g>
<path d="M165.541 174.335H193.685V161.007H165.541V174.335Z" fill="#FF5454" fill-opacity="0.0800031"/>
<path d="M166.146 173.724H193.076V161.614H166.146V173.724Z" stroke="#E19C24" stroke-width="1.01277" stroke-miterlimit="10" stroke-linecap="square"/>
<mask id="mask4_11278_202304" style="mask-type:luminance" maskUnits="userSpaceOnUse" x="53" y="225" width="299" height="3">
<path d="M53.9746 225.123H351.73V227.149H53.9746V225.123Z" fill="white"/>
</mask>
<g mask="url(#mask4_11278_202304)">
<path d="M716.327 225.879H-5.41602" stroke="#808080" stroke-width="1.01277" stroke-miterlimit="3.25" stroke-dasharray="2.98 2.98"/>
<path d="M716.327 225.879H-5.41602" stroke="#808080" stroke-width="1.01277" stroke-miterlimit="3.25" stroke-dasharray="2.98 2.98"/>
</g>
<mask id="mask5_11278_202304" style="mask-type:luminance" maskUnits="userSpaceOnUse" x="53" y="172" width="299" height="3">
<path d="M53.9746 172.46H351.73V174.486H53.9746V172.46Z" fill="white"/>
</mask>
<g mask="url(#mask5_11278_202304)">
<path d="M716.327 173.299H-5.41602" stroke="#808080" stroke-width="1.01277" stroke-miterlimit="3.25" stroke-dasharray="2.98 2.98"/>
<path d="M716.327 173.299H-5.41602" stroke="#808080" stroke-width="1.01277" stroke-miterlimit="3.25" stroke-dasharray="2.98 2.98"/>
</g>
<mask id="mask6_11278_202304" style="mask-type:luminance" maskUnits="userSpaceOnUse" x="53" y="198" width="299" height="3">
<path d="M53.9746 198.791H351.73V200.817H53.9746V198.791Z" fill="white"/>
</mask>
<g mask="url(#mask6_11278_202304)">
<path d="M716.327 199.589H-5.41602" stroke="#8778B3" stroke-width="1.01277" stroke-miterlimit="3.25" stroke-dasharray="2.98 2.98"/>
<path d="M716.327 199.589H-5.41602" stroke="#8778B3" stroke-width="1.01277" stroke-miterlimit="3.25" stroke-dasharray="2.98 2.98"/>
</g>
<path d="M351.892 252.167H54.1367" stroke="#CCCCCC" stroke-width="0.506386" stroke-miterlimit="3.25" stroke-linecap="square"/>
<path d="M54.1367 252.166V68.1426" stroke="#CCCCCC" stroke-width="0.506386" stroke-miterlimit="3.25" stroke-linecap="square"/>
<path d="M54.1367 68.1426H351.892" stroke="#CCCCCC" stroke-width="0.506386" stroke-miterlimit="3.25" stroke-linecap="square"/>
<path d="M351.893 68.1426V252.166" stroke="#CCCCCC" stroke-width="0.506386" stroke-miterlimit="3.25" stroke-linecap="square"/>
<path d="M54.1367 252.168V248.655" stroke="#CCCCCC" stroke-width="0.506386" stroke-miterlimit="3.25"/>
<path d="M50.2969 267.413L52.5123 267.184C52.5756 267.686 52.7616 268.082 53.0741 268.375C53.3866 268.667 53.7427 268.814 54.1502 268.814C54.613 268.814 55.0086 268.624 55.3291 268.248C55.6495 267.872 55.8117 267.303 55.8117 266.543C55.8117 265.831 55.6535 265.297 55.333 264.941C55.0126 264.585 54.5972 264.407 54.0869 264.407C53.4499 264.407 52.8763 264.688 52.3699 265.253L50.5659 264.992L51.7053 258.955H57.5841V261.036H53.3906L53.0424 263.006C53.537 262.757 54.0433 262.634 54.5616 262.634C55.5467 262.634 56.3854 262.994 57.0698 263.71C57.7542 264.426 58.0984 265.36 58.0984 266.503C58.0984 267.457 57.8215 268.311 57.2676 269.059C56.512 270.084 55.4676 270.594 54.1264 270.594C53.0543 270.594 52.184 270.305 51.5075 269.732C50.831 269.158 50.4274 268.383 50.2969 267.413Z" fill="#CCCCCC"/>
<path d="M66.0449 252.167V250.059" stroke="#CCCCCC" stroke-width="0.506386" stroke-miterlimit="3.25"/>
<path d="M77.9551 252.167V250.059" stroke="#CCCCCC" stroke-width="0.506386" stroke-miterlimit="3.25"/>
<path d="M89.8672 252.167V250.059" stroke="#CCCCCC" stroke-width="0.506386" stroke-miterlimit="3.25"/>
<path d="M101.775 252.167V250.059" stroke="#CCCCCC" stroke-width="0.506386" stroke-miterlimit="3.25"/>
<path d="M113.688 252.168V248.655" stroke="#CCCCCC" stroke-width="0.506386" stroke-miterlimit="3.25"/>
<path d="M110.949 270.398H108.726V262.019C107.915 262.778 106.957 263.34 105.854 263.704V261.686C106.435 261.497 107.064 261.137 107.745 260.606C108.425 260.076 108.892 259.459 109.145 258.751H110.949V270.398Z" fill="#CCCCCC"/>
<path d="M118.03 258.751C119.153 258.751 120.032 259.151 120.665 259.954C121.42 260.903 121.796 262.478 121.796 264.677C121.796 266.873 121.416 268.447 120.657 269.409C120.028 270.2 119.153 270.596 118.03 270.596C116.902 270.596 115.993 270.16 115.3 269.294C114.608 268.428 114.264 266.881 114.264 264.654C114.264 262.47 114.643 260.899 115.403 259.938C116.032 259.147 116.906 258.751 118.03 258.751ZM118.03 260.595C117.761 260.595 117.52 260.682 117.31 260.852C117.1 261.022 116.934 261.33 116.819 261.773C116.665 262.347 116.59 263.316 116.59 264.677C116.59 266.038 116.657 266.972 116.796 267.482C116.934 267.993 117.104 268.329 117.314 268.499C117.524 268.669 117.761 268.752 118.03 268.752C118.299 268.752 118.54 268.665 118.75 268.495C118.96 268.325 119.126 268.016 119.24 267.573C119.395 267.003 119.47 266.038 119.47 264.677C119.47 263.316 119.403 262.383 119.264 261.872C119.126 261.362 118.956 261.022 118.746 260.852C118.536 260.682 118.299 260.595 118.03 260.595Z" fill="#CCCCCC"/>
<path d="M125.594 252.167V250.059" stroke="#CCCCCC" stroke-width="0.506386" stroke-miterlimit="3.25"/>
<path d="M137.508 252.167V250.059" stroke="#CCCCCC" stroke-width="0.506386" stroke-miterlimit="3.25"/>
<path d="M149.416 252.167V250.059" stroke="#CCCCCC" stroke-width="0.506386" stroke-miterlimit="3.25"/>
<path d="M161.326 252.167V250.059" stroke="#CCCCCC" stroke-width="0.506386" stroke-miterlimit="3.25"/>
<path d="M173.236 252.168V248.655" stroke="#CCCCCC" stroke-width="0.506386" stroke-miterlimit="3.25"/>
<path d="M170.5 270.398H168.276V262.019C167.465 262.778 166.508 263.34 165.404 263.704V261.686C165.986 261.497 166.615 261.137 167.295 260.606C167.976 260.076 168.443 259.459 168.696 258.751H170.5V270.398Z" fill="#CCCCCC"/>
<path d="M173.855 267.415L176.071 267.186C176.134 267.688 176.32 268.084 176.633 268.377C176.945 268.669 177.301 268.816 177.709 268.816C178.172 268.816 178.567 268.626 178.888 268.25C179.208 267.874 179.37 267.304 179.37 266.545C179.37 265.833 179.212 265.299 178.892 264.943C178.571 264.587 178.156 264.409 177.645 264.409C177.009 264.409 176.435 264.689 175.928 265.255L174.124 264.994L175.264 258.957H181.143V261.038H176.949L176.601 263.008C177.096 262.759 177.602 262.636 178.12 262.636C179.105 262.636 179.944 262.996 180.628 263.712C181.313 264.428 181.657 265.362 181.657 266.505C181.657 267.459 181.38 268.313 180.826 269.061C180.071 270.086 179.026 270.596 177.685 270.596C176.613 270.596 175.743 270.307 175.066 269.734C174.39 269.16 173.986 268.385 173.855 267.415Z" fill="#CCCCCC"/>
<path d="M185.15 252.167V250.059" stroke="#CCCCCC" stroke-width="0.506386" stroke-miterlimit="3.25"/>
<path d="M197.061 252.167V250.059" stroke="#CCCCCC" stroke-width="0.506386" stroke-miterlimit="3.25"/>
<path d="M208.969 252.167V250.059" stroke="#CCCCCC" stroke-width="0.506386" stroke-miterlimit="3.25"/>
<path d="M220.879 252.167V250.059" stroke="#CCCCCC" stroke-width="0.506386" stroke-miterlimit="3.25"/>
<path d="M232.787 252.168V248.655" stroke="#CCCCCC" stroke-width="0.506386" stroke-miterlimit="3.25"/>
<path d="M231.872 268.333V270.398H224.078C224.161 269.618 224.414 268.879 224.838 268.178C225.261 267.478 226.092 266.552 227.338 265.397C228.339 264.464 228.956 263.831 229.182 263.498C229.486 263.039 229.64 262.584 229.64 262.137C229.64 261.643 229.506 261.259 229.241 260.994C228.976 260.729 228.608 260.595 228.137 260.595C227.674 260.595 227.302 260.733 227.029 261.014C226.756 261.295 226.598 261.758 226.555 262.406L224.339 262.185C224.47 260.962 224.885 260.084 225.581 259.55C226.278 259.016 227.148 258.751 228.193 258.751C229.336 258.751 230.238 259.06 230.891 259.677C231.543 260.294 231.872 261.061 231.872 261.979C231.872 262.501 231.777 263 231.591 263.471C231.405 263.941 231.108 264.436 230.701 264.954C230.432 265.298 229.945 265.789 229.245 266.434C228.545 267.079 228.098 267.506 227.912 267.716C227.726 267.925 227.571 268.131 227.457 268.333H231.872Z" fill="#CCCCCC"/>
<path d="M237.133 258.751C238.257 258.751 239.135 259.151 239.768 259.954C240.524 260.903 240.9 262.478 240.9 264.677C240.9 266.873 240.52 268.447 239.76 269.409C239.131 270.2 238.257 270.596 237.133 270.596C236.006 270.596 235.096 270.16 234.404 269.294C233.711 268.428 233.367 266.881 233.367 264.654C233.367 262.47 233.747 260.899 234.507 259.938C235.136 259.147 236.01 258.751 237.133 258.751ZM237.133 260.595C236.864 260.595 236.623 260.682 236.413 260.852C236.204 261.022 236.038 261.33 235.923 261.773C235.769 262.347 235.693 263.316 235.693 264.677C235.693 266.038 235.761 266.972 235.899 267.482C236.038 267.993 236.208 268.329 236.417 268.499C236.627 268.669 236.864 268.752 237.133 268.752C237.402 268.752 237.644 268.665 237.853 268.495C238.063 268.325 238.229 268.016 238.344 267.573C238.498 267.003 238.573 266.038 238.573 264.677C238.573 263.316 238.506 262.383 238.368 261.872C238.229 261.362 238.059 261.022 237.849 260.852C237.64 260.682 237.402 260.595 237.133 260.595Z" fill="#CCCCCC"/>
<path d="M244.699 252.167V250.059" stroke="#CCCCCC" stroke-width="0.506386" stroke-miterlimit="3.25"/>
<path d="M256.609 252.167V250.059" stroke="#CCCCCC" stroke-width="0.506386" stroke-miterlimit="3.25"/>
<path d="M268.521 252.167V250.059" stroke="#CCCCCC" stroke-width="0.506386" stroke-miterlimit="3.25"/>
<path d="M280.428 252.167V250.059" stroke="#CCCCCC" stroke-width="0.506386" stroke-miterlimit="3.25"/>
<path d="M292.34 252.168V248.655" stroke="#CCCCCC" stroke-width="0.506386" stroke-miterlimit="3.25"/>
<path d="M291.421 268.333V270.398H283.627C283.71 269.618 283.963 268.879 284.387 268.178C284.81 267.478 285.641 266.552 286.887 265.397C287.888 264.464 288.505 263.831 288.73 263.498C289.035 263.039 289.189 262.584 289.189 262.137C289.189 261.643 289.055 261.259 288.79 260.994C288.525 260.729 288.157 260.595 287.686 260.595C287.223 260.595 286.851 260.733 286.578 261.014C286.305 261.295 286.147 261.758 286.103 262.406L283.888 262.185C284.019 260.962 284.434 260.084 285.13 259.55C285.827 259.016 286.697 258.751 287.741 258.751C288.885 258.751 289.787 259.06 290.439 259.677C291.092 260.294 291.421 261.061 291.421 261.979C291.421 262.501 291.326 263 291.14 263.471C290.954 263.941 290.657 264.436 290.25 264.954C289.981 265.298 289.494 265.789 288.794 266.434C288.093 267.079 287.646 267.506 287.46 267.716C287.275 267.925 287.12 268.131 287.005 268.333H291.421Z" fill="#CCCCCC"/>
<path d="M292.957 267.415L295.172 267.186C295.236 267.688 295.422 268.084 295.734 268.377C296.047 268.669 296.403 268.816 296.81 268.816C297.273 268.816 297.669 268.626 297.989 268.25C298.31 267.874 298.472 267.304 298.472 266.545C298.472 265.833 298.314 265.299 297.993 264.943C297.673 264.587 297.257 264.409 296.747 264.409C296.11 264.409 295.536 264.689 295.03 265.255L293.226 264.994L294.365 258.957H300.244V261.038H296.051L295.703 263.008C296.197 262.759 296.703 262.636 297.222 262.636C298.207 262.636 299.046 262.996 299.73 263.712C300.414 264.428 300.759 265.362 300.759 266.505C300.759 267.459 300.482 268.313 299.928 269.061C299.172 270.086 298.128 270.596 296.787 270.596C295.714 270.596 294.844 270.307 294.168 269.734C293.491 269.16 293.088 268.385 292.957 267.415Z" fill="#CCCCCC"/>
<path d="M304.25 252.167V250.059" stroke="#CCCCCC" stroke-width="0.506386" stroke-miterlimit="3.25"/>
<path d="M316.16 252.167V250.059" stroke="#CCCCCC" stroke-width="0.506386" stroke-miterlimit="3.25"/>
<path d="M328.07 252.167V250.059" stroke="#CCCCCC" stroke-width="0.506386" stroke-miterlimit="3.25"/>
<path d="M339.98 252.167V250.059" stroke="#CCCCCC" stroke-width="0.506386" stroke-miterlimit="3.25"/>
<path d="M351.893 252.168V248.655" stroke="#CCCCCC" stroke-width="0.506386" stroke-miterlimit="3.25"/>
<path d="M343.387 267.32L345.539 267.059C345.606 267.609 345.792 268.028 346.093 268.317C346.393 268.606 346.757 268.752 347.185 268.752C347.644 268.752 348.031 268.578 348.344 268.23C348.656 267.882 348.815 267.411 348.815 266.822C348.815 266.264 348.664 265.821 348.364 265.492C348.063 265.164 347.695 265.002 347.264 265.002C346.979 265.002 346.639 265.057 346.243 265.168L346.488 263.356C347.09 263.372 347.549 263.241 347.865 262.964C348.182 262.687 348.34 262.319 348.34 261.861C348.34 261.469 348.225 261.16 347.992 260.927C347.758 260.693 347.45 260.579 347.066 260.579C346.686 260.579 346.362 260.709 346.093 260.974C345.824 261.239 345.662 261.623 345.602 262.13L343.553 261.781C343.695 261.081 343.909 260.519 344.198 260.1C344.487 259.681 344.886 259.352 345.4 259.111C345.915 258.87 346.492 258.751 347.129 258.751C348.221 258.751 349.095 259.099 349.756 259.795C350.298 260.365 350.571 261.01 350.571 261.726C350.571 262.743 350.013 263.558 348.902 264.163C349.566 264.305 350.096 264.626 350.496 265.12C350.895 265.615 351.093 266.216 351.093 266.916C351.093 267.933 350.721 268.804 349.978 269.52C349.234 270.236 348.308 270.596 347.2 270.596C346.152 270.596 345.282 270.295 344.589 269.69C343.897 269.084 343.497 268.297 343.387 267.32Z" fill="#CCCCCC"/>
<path d="M356.235 258.751C357.359 258.751 358.237 259.151 358.87 259.954C359.625 260.903 360.001 262.478 360.001 264.677C360.001 266.873 359.621 268.447 358.862 269.409C358.233 270.2 357.359 270.596 356.235 270.596C355.107 270.596 354.198 270.16 353.505 269.294C352.813 268.428 352.469 266.881 352.469 264.654C352.469 262.47 352.849 260.899 353.608 259.938C354.237 259.147 355.111 258.751 356.235 258.751ZM356.235 260.595C355.966 260.595 355.725 260.682 355.515 260.852C355.305 261.022 355.139 261.33 355.024 261.773C354.87 262.347 354.795 263.316 354.795 264.677C354.795 266.038 354.862 266.972 355.001 267.482C355.139 267.993 355.309 268.329 355.519 268.499C355.729 268.669 355.966 268.752 356.235 268.752C356.504 268.752 356.745 268.665 356.955 268.495C357.165 268.325 357.331 268.016 357.446 267.573C357.6 267.003 357.675 266.038 357.675 264.677C357.675 263.316 357.608 262.383 357.469 261.872C357.331 261.362 357.161 261.022 356.951 260.852C356.741 260.682 356.504 260.595 356.235 260.595Z" fill="#CCCCCC"/>
<path d="M54.1367 252.167H57.6458" stroke="#CCCCCC" stroke-width="0.506386" stroke-miterlimit="3.25"/>
<path d="M33.4766 255.165L35.6287 254.904C35.696 255.454 35.8819 255.873 36.1826 256.162C36.4832 256.45 36.8472 256.597 37.2745 256.597C37.7334 256.597 38.1211 256.423 38.4336 256.075C38.7461 255.726 38.9044 255.256 38.9044 254.666C38.9044 254.108 38.7541 253.665 38.4534 253.337C38.1527 253.009 37.7848 252.846 37.3536 252.846C37.0687 252.846 36.7285 252.902 36.3329 253.013L36.5782 251.201C37.1795 251.216 37.6384 251.086 37.9549 250.809C38.2714 250.532 38.4297 250.164 38.4297 249.705C38.4297 249.314 38.3149 249.005 38.0815 248.772C37.8481 248.538 37.5395 248.423 37.1558 248.423C36.776 248.423 36.4516 248.554 36.1826 248.819C35.9135 249.084 35.7513 249.468 35.692 249.974L33.6427 249.626C33.7851 248.926 33.9988 248.364 34.2876 247.945C34.5764 247.525 34.9759 247.197 35.4902 246.956C36.0045 246.714 36.5821 246.596 37.2191 246.596C38.311 246.596 39.1853 246.944 39.846 247.64C40.3879 248.21 40.6609 248.855 40.6609 249.571C40.6609 250.587 40.1031 251.402 38.9914 252.008C39.6561 252.15 40.1862 252.471 40.5857 252.965C40.9853 253.46 41.1831 254.061 41.1831 254.761C41.1831 255.778 40.8112 256.648 40.0675 257.364C39.3237 258.08 38.398 258.44 37.2903 258.44C36.2419 258.44 35.3716 258.14 34.6792 257.534C33.9869 256.929 33.5873 256.142 33.4766 255.165Z" fill="#CCCCCC"/>
<path d="M46.3248 246.596C47.4484 246.596 48.3266 246.995 48.9596 247.798C49.7153 248.748 50.0911 250.322 50.0911 252.522C50.0911 254.718 49.7113 256.292 48.9517 257.254C48.3227 258.045 47.4484 258.44 46.3248 258.44C45.1973 258.44 44.2874 258.005 43.5951 257.139C42.9028 256.272 42.5586 254.726 42.5586 252.498C42.5586 250.314 42.9384 248.744 43.698 247.783C44.327 246.991 45.2013 246.596 46.3248 246.596ZM46.3248 248.439C46.0558 248.439 45.8145 248.526 45.6048 248.696C45.3951 248.867 45.229 249.175 45.1143 249.618C44.96 250.192 44.8848 251.161 44.8848 252.522C44.8848 253.883 44.9521 254.817 45.0905 255.327C45.229 255.837 45.3991 256.174 45.6088 256.344C45.8185 256.514 46.0558 256.597 46.3248 256.597C46.5939 256.597 46.8352 256.51 47.0449 256.34C47.2545 256.17 47.4207 255.861 47.5354 255.418C47.6897 254.848 47.7649 253.883 47.7649 252.522C47.7649 251.161 47.6976 250.227 47.5592 249.717C47.4207 249.207 47.2506 248.867 47.0409 248.696C46.8312 248.526 46.5939 248.439 46.3248 248.439Z" fill="#CCCCCC"/>
<path d="M54.1367 246.909H56.2414" stroke="#CCCCCC" stroke-width="0.506386" stroke-miterlimit="3.25"/>
<path d="M54.1367 241.653H56.2414" stroke="#CCCCCC" stroke-width="0.506386" stroke-miterlimit="3.25"/>
<path d="M54.1367 236.394H56.2414" stroke="#CCCCCC" stroke-width="0.506386" stroke-miterlimit="3.25"/>
<path d="M54.1367 231.138H56.2414" stroke="#CCCCCC" stroke-width="0.506386" stroke-miterlimit="3.25"/>
<path d="M54.1367 225.879H57.6458" stroke="#CCCCCC" stroke-width="0.506386" stroke-miterlimit="3.25"/>
<path d="M37.9153 231.953V229.618H33.168V227.672L38.2002 220.306H40.0675V227.664H41.5075V229.618H40.0675V231.953H37.9153ZM37.9153 227.664V223.7L35.2489 227.664H37.9153Z" fill="#CCCCCC"/>
<path d="M46.3248 220.306C47.4484 220.306 48.3266 220.705 48.9596 221.508C49.7153 222.458 50.0911 224.032 50.0911 226.232C50.0911 228.428 49.7113 230.002 48.9517 230.964C48.3227 231.755 47.4484 232.15 46.3248 232.15C45.1973 232.15 44.2874 231.715 43.5951 230.849C42.9028 229.982 42.5586 228.436 42.5586 226.208C42.5586 224.024 42.9384 222.454 43.698 221.493C44.327 220.701 45.2013 220.306 46.3248 220.306ZM46.3248 222.149C46.0558 222.149 45.8145 222.236 45.6048 222.406C45.3951 222.576 45.229 222.885 45.1143 223.328C44.96 223.902 44.8848 224.871 44.8848 226.232C44.8848 227.593 44.9521 228.527 45.0905 229.037C45.229 229.547 45.3991 229.883 45.6088 230.054C45.8185 230.224 46.0558 230.307 46.3248 230.307C46.5939 230.307 46.8352 230.22 47.0449 230.05C47.2545 229.88 47.4207 229.571 47.5354 229.128C47.6897 228.558 47.7649 227.593 47.7649 226.232C47.7649 224.871 47.6976 223.937 47.5592 223.427C47.4207 222.917 47.2506 222.576 47.0409 222.406C46.8312 222.236 46.5939 222.149 46.3248 222.149Z" fill="#CCCCCC"/>
<path d="M54.1367 220.622H56.2414" stroke="#CCCCCC" stroke-width="0.506386" stroke-miterlimit="3.25"/>
<path d="M54.1367 215.364H56.2414" stroke="#CCCCCC" stroke-width="0.506386" stroke-miterlimit="3.25"/>
<path d="M54.1367 210.106H56.2414" stroke="#CCCCCC" stroke-width="0.506386" stroke-miterlimit="3.25"/>
<path d="M54.1367 204.849H56.2414" stroke="#CCCCCC" stroke-width="0.506386" stroke-miterlimit="3.25"/>
<path d="M54.1367 199.591H57.6458" stroke="#CCCCCC" stroke-width="0.506386" stroke-miterlimit="3.25"/>
<path d="M33.5879 202.683L35.8033 202.453C35.8666 202.956 36.0526 203.351 36.3651 203.644C36.6776 203.937 37.0337 204.083 37.4412 204.083C37.904 204.083 38.2997 203.893 38.6201 203.518C38.9405 203.142 39.1028 202.572 39.1028 201.812C39.1028 201.1 38.9445 200.566 38.6241 200.21C38.3036 199.854 37.8882 199.676 37.3779 199.676C36.7409 199.676 36.1673 199.957 35.6609 200.523L33.8569 200.262L34.9963 194.225H40.8751V196.306H36.6816L36.3335 198.276C36.828 198.026 37.3344 197.904 37.8526 197.904C38.8377 197.904 39.6764 198.264 40.3608 198.98C41.0452 199.696 41.3894 200.63 41.3894 201.773C41.3894 202.726 41.1125 203.581 40.5586 204.329C39.803 205.353 38.7586 205.864 37.4174 205.864C36.3453 205.864 35.475 205.575 34.7985 205.001C34.122 204.427 33.7184 203.652 33.5879 202.683Z" fill="#CCCCCC"/>
<path d="M46.3248 194.018C47.4484 194.018 48.3266 194.417 48.9596 195.22C49.7153 196.17 50.0911 197.744 50.0911 199.944C50.0911 202.14 49.7113 203.714 48.9517 204.675C48.3227 205.467 47.4484 205.862 46.3248 205.862C45.1973 205.862 44.2874 205.427 43.5951 204.561C42.9028 203.694 42.5586 202.147 42.5586 199.92C42.5586 197.736 42.9384 196.166 43.698 195.204C44.327 194.413 45.2013 194.018 46.3248 194.018ZM46.3248 195.861C46.0558 195.861 45.8145 195.948 45.6048 196.118C45.3951 196.288 45.229 196.597 45.1143 197.04C44.96 197.614 44.8848 198.583 44.8848 199.944C44.8848 201.305 44.9521 202.238 45.0905 202.749C45.229 203.259 45.3991 203.595 45.6088 203.766C45.8185 203.936 46.0558 204.019 46.3248 204.019C46.5939 204.019 46.8352 203.932 47.0449 203.762C47.2545 203.591 47.4207 203.283 47.5354 202.84C47.6897 202.27 47.7649 201.305 47.7649 199.944C47.7649 198.583 47.6976 197.649 47.5592 197.139C47.4207 196.629 47.2506 196.288 47.0409 196.118C46.8312 195.948 46.5939 195.861 46.3248 195.861Z" fill="#CCCCCC"/>
<path d="M54.1367 194.327H56.2414" stroke="#CCCCCC" stroke-width="0.506386" stroke-miterlimit="3.25"/>
<path d="M54.1367 189.071H56.2414" stroke="#CCCCCC" stroke-width="0.506386" stroke-miterlimit="3.25"/>
<path d="M54.1367 183.813H56.2414" stroke="#CCCCCC" stroke-width="0.506386" stroke-miterlimit="3.25"/>
<path d="M54.1367 178.556H56.2414" stroke="#CCCCCC" stroke-width="0.506386" stroke-miterlimit="3.25"/>
<path d="M54.1367 173.298H57.6458" stroke="#CCCCCC" stroke-width="0.506386" stroke-miterlimit="3.25"/>
<path d="M41.0911 170.616L38.9389 170.854C38.8875 170.411 38.7491 170.082 38.5275 169.873C38.306 169.663 38.0172 169.556 37.6651 169.556C37.1943 169.556 36.7987 169.766 36.4743 170.189C36.1499 170.613 35.9441 171.491 35.8611 172.824C36.4149 172.171 37.1033 171.843 37.9262 171.843C38.8559 171.843 39.6511 172.195 40.3117 172.903C40.9724 173.611 41.3047 174.521 41.3047 175.641C41.3047 176.828 40.9566 177.781 40.2603 178.497C39.564 179.213 38.6699 179.573 37.578 179.573C36.407 179.573 35.4457 179.118 34.69 178.208C33.9344 177.298 33.5586 175.807 33.5586 173.734C33.5586 171.609 33.9503 170.075 34.7375 169.137C35.5248 168.199 36.5455 167.729 37.7996 167.729C38.6818 167.729 39.4097 167.974 39.9873 168.468C40.5649 168.963 40.9328 169.679 41.0911 170.616ZM36.051 175.467C36.051 176.191 36.2171 176.749 36.5494 177.14C36.8818 177.532 37.2615 177.73 37.6888 177.73C38.1002 177.73 38.4444 177.567 38.7174 177.247C38.9904 176.927 39.1288 176.396 39.1288 175.665C39.1288 174.909 38.9825 174.359 38.6858 174.007C38.389 173.655 38.0211 173.481 37.578 173.481C37.1508 173.481 36.7908 173.647 36.4941 173.983C36.1973 174.319 36.051 174.814 36.051 175.467Z" fill="#CCCCCC"/>
<path d="M46.3248 167.729C47.4484 167.729 48.3266 168.128 48.9596 168.931C49.7153 169.881 50.0911 171.455 50.0911 173.655C50.0911 175.85 49.7113 177.425 48.9517 178.386C48.3227 179.178 47.4484 179.573 46.3248 179.573C45.1973 179.573 44.2874 179.138 43.5951 178.272C42.9028 177.405 42.5586 175.858 42.5586 173.631C42.5586 171.447 42.9384 169.877 43.698 168.915C44.327 168.124 45.2013 167.729 46.3248 167.729ZM46.3248 169.572C46.0558 169.572 45.8145 169.659 45.6048 169.829C45.3951 169.999 45.229 170.308 45.1143 170.751C44.96 171.325 44.8848 172.294 44.8848 173.655C44.8848 175.016 44.9521 175.949 45.0905 176.46C45.229 176.97 45.3991 177.306 45.6088 177.476C45.8185 177.647 46.0558 177.73 46.3248 177.73C46.5939 177.73 46.8352 177.643 47.0449 177.472C47.2545 177.302 47.4207 176.994 47.5354 176.551C47.6897 175.981 47.7649 175.016 47.7649 173.655C47.7649 172.294 47.6976 171.36 47.5592 170.85C47.4207 170.34 47.2506 169.999 47.0409 169.829C46.8312 169.659 46.5939 169.572 46.3248 169.572Z" fill="#CCCCCC"/>
<path d="M54.1367 168.039H56.2414" stroke="#CCCCCC" stroke-width="0.506386" stroke-miterlimit="3.25"/>
<path d="M54.1367 162.783H56.2414" stroke="#CCCCCC" stroke-width="0.506386" stroke-miterlimit="3.25"/>
<path d="M54.1367 157.524H56.2414" stroke="#CCCCCC" stroke-width="0.506386" stroke-miterlimit="3.25"/>
<path d="M54.1367 152.267H56.2414" stroke="#CCCCCC" stroke-width="0.506386" stroke-miterlimit="3.25"/>
<path d="M54.1367 147.009H57.6458" stroke="#CCCCCC" stroke-width="0.506386" stroke-miterlimit="3.25"/>
<path d="M33.5586 143.711V141.646H41.1623V143.26C40.5333 143.877 39.8963 144.763 39.2475 145.918C38.5987 147.073 38.1042 148.3 37.764 149.601C37.4237 150.903 37.2576 152.062 37.2615 153.087H35.1173C35.1529 151.484 35.4852 149.847 36.1103 148.181C36.7354 146.516 37.5701 145.024 38.6145 143.711H33.5586Z" fill="#CCCCCC"/>
<path d="M46.3248 141.44C47.4484 141.44 48.3266 141.84 48.9596 142.643C49.7153 143.593 50.0911 145.167 50.0911 147.367C50.0911 149.562 49.7113 151.137 48.9517 152.098C48.3227 152.89 47.4484 153.285 46.3248 153.285C45.1973 153.285 44.2874 152.85 43.5951 151.984C42.9028 151.117 42.5586 149.57 42.5586 147.343C42.5586 145.159 42.9384 143.589 43.698 142.627C44.327 141.836 45.2013 141.44 46.3248 141.44ZM46.3248 143.284C46.0558 143.284 45.8145 143.371 45.6048 143.541C45.3951 143.711 45.229 144.02 45.1143 144.463C44.96 145.037 44.8848 146.006 44.8848 147.367C44.8848 148.728 44.9521 149.661 45.0905 150.172C45.229 150.682 45.3991 151.018 45.6088 151.188C45.8185 151.358 46.0558 151.442 46.3248 151.442C46.5939 151.442 46.8352 151.355 47.0449 151.184C47.2545 151.014 47.4207 150.706 47.5354 150.263C47.6897 149.693 47.7649 148.728 47.7649 147.367C47.7649 146.006 47.6976 145.072 47.5592 144.562C47.4207 144.051 47.2506 143.711 47.0409 143.541C46.8312 143.371 46.5939 143.284 46.3248 143.284Z" fill="#CCCCCC"/>
<path d="M54.1367 141.751H56.2414" stroke="#CCCCCC" stroke-width="0.506386" stroke-miterlimit="3.25"/>
<path d="M54.1367 136.494H56.2414" stroke="#CCCCCC" stroke-width="0.506386" stroke-miterlimit="3.25"/>
<path d="M54.1367 131.236H56.2414" stroke="#CCCCCC" stroke-width="0.506386" stroke-miterlimit="3.25"/>
<path d="M54.1367 125.979H56.2414" stroke="#CCCCCC" stroke-width="0.506386" stroke-miterlimit="3.25"/>
<path d="M54.1367 120.721H57.6458" stroke="#CCCCCC" stroke-width="0.506386" stroke-miterlimit="3.25"/>
<path d="M35.4639 120.54C34.8903 120.298 34.4709 119.962 34.2098 119.539C33.9487 119.115 33.8181 118.649 33.8181 118.142C33.8181 117.276 34.1188 116.564 34.7241 115.998C35.3294 115.432 36.1879 115.151 37.2995 115.151C38.4033 115.151 39.2578 115.432 39.8671 115.998C40.4763 116.564 40.781 117.276 40.781 118.142C40.781 118.68 40.6425 119.159 40.3616 119.578C40.0807 119.998 39.6891 120.318 39.1827 120.54C39.8275 120.797 40.3141 121.177 40.6504 121.671C40.9867 122.166 41.1528 122.739 41.1528 123.388C41.1528 124.46 40.8126 125.331 40.1282 125.999C39.4438 126.668 38.5378 127.004 37.4024 127.004C36.3461 127.004 35.4679 126.727 34.7676 126.173C33.9408 125.52 33.5254 124.622 33.5254 123.483C33.5254 122.854 33.6797 122.28 33.9922 121.754C34.3048 121.228 34.7953 120.824 35.4639 120.54ZM35.9228 118.3C35.9228 118.744 36.0494 119.088 36.2986 119.337C36.5479 119.586 36.8842 119.709 37.2995 119.709C37.7229 119.709 38.0591 119.582 38.3123 119.333C38.5655 119.084 38.6921 118.736 38.6921 118.293C38.6921 117.877 38.5655 117.541 38.3163 117.292C38.067 117.042 37.7347 116.916 37.3233 116.916C36.896 116.916 36.5558 117.042 36.3026 117.296C36.0494 117.549 35.9228 117.885 35.9228 118.3ZM35.7171 123.269C35.7171 123.883 35.8753 124.357 36.1879 124.701C36.5004 125.046 36.8921 125.216 37.3628 125.216C37.8218 125.216 38.2015 125.05 38.5022 124.721C38.8029 124.393 38.9532 123.914 38.9532 123.293C38.9532 122.751 38.7989 122.312 38.4943 121.984C38.1897 121.655 37.802 121.489 37.3312 121.489C36.7892 121.489 36.3817 121.675 36.1167 122.051C35.8516 122.427 35.7171 122.83 35.7171 123.269Z" fill="#CCCCCC"/>
<path d="M46.3248 115.151C47.4484 115.151 48.3266 115.551 48.9596 116.354C49.7153 117.304 50.0911 118.878 50.0911 121.078C50.0911 123.273 49.7113 124.848 48.9517 125.809C48.3227 126.6 47.4484 126.996 46.3248 126.996C45.1973 126.996 44.2874 126.561 43.5951 125.694C42.9028 124.828 42.5586 123.281 42.5586 121.054C42.5586 118.87 42.9384 117.3 43.698 116.338C44.327 115.547 45.2013 115.151 46.3248 115.151ZM46.3248 116.995C46.0558 116.995 45.8145 117.082 45.6048 117.252C45.3951 117.422 45.229 117.731 45.1143 118.174C44.96 118.747 44.8848 119.717 44.8848 121.078C44.8848 122.439 44.9521 123.372 45.0905 123.883C45.229 124.393 45.3991 124.729 45.6088 124.899C45.8185 125.069 46.0558 125.152 46.3248 125.152C46.5939 125.152 46.8352 125.065 47.0449 124.895C47.2545 124.725 47.4207 124.417 47.5354 123.974C47.6897 123.404 47.7649 122.439 47.7649 121.078C47.7649 119.717 47.6976 118.783 47.5592 118.273C47.4207 117.762 47.2506 117.422 47.0409 117.252C46.8312 117.082 46.5939 116.995 46.3248 116.995Z" fill="#CCCCCC"/>
<path d="M54.1367 115.462H56.2414" stroke="#CCCCCC" stroke-width="0.506386" stroke-miterlimit="3.25"/>
<path d="M54.1367 110.205H56.2414" stroke="#CCCCCC" stroke-width="0.506386" stroke-miterlimit="3.25"/>
<path d="M54.1367 104.947H56.2414" stroke="#CCCCCC" stroke-width="0.506386" stroke-miterlimit="3.25"/>
<path d="M54.1367 99.6895H56.2414" stroke="#CCCCCC" stroke-width="0.506386" stroke-miterlimit="3.25"/>
<path d="M54.1367 94.4316H57.6458" stroke="#CCCCCC" stroke-width="0.506386" stroke-miterlimit="3.25"/>
<path d="M33.6044 97.8269L35.7565 97.5896C35.8079 98.0287 35.9464 98.3531 36.1679 98.5628C36.3895 98.7724 36.6822 98.8793 37.0462 98.8793C37.5051 98.8793 37.8968 98.6696 38.2172 98.2463C38.5377 97.823 38.7434 96.9487 38.8344 95.6194C38.2766 96.2682 37.5763 96.5926 36.7376 96.5926C35.8238 96.5926 35.0365 96.2405 34.3758 95.5363C33.7151 94.8321 33.3828 93.9143 33.3828 92.7868C33.3828 91.6118 33.731 90.6623 34.4312 89.9423C35.1314 89.2223 36.0216 88.8623 37.1016 88.8623C38.2766 88.8623 39.2419 89.3173 39.9975 90.2272C40.7531 91.1371 41.1289 92.6325 41.1289 94.7174C41.1289 96.8379 40.7373 98.3689 39.95 99.3065C39.1627 100.244 38.1421 100.715 36.88 100.715C35.9741 100.715 35.2382 100.474 34.6804 99.9909C34.1226 99.5083 33.7626 98.7883 33.6044 97.8269ZM38.6366 92.9688C38.6366 92.2527 38.4704 91.6949 38.1421 91.2993C37.8137 90.9037 37.4299 90.7059 36.9987 90.7059C36.5873 90.7059 36.2471 90.8681 35.9741 91.1925C35.7011 91.5169 35.5666 92.047 35.5666 92.7868C35.5666 93.5345 35.713 94.0844 36.0097 94.4365C36.3064 94.7886 36.6743 94.9627 37.1174 94.9627C37.5447 94.9627 37.9047 94.7926 38.1974 94.4563C38.4902 94.12 38.6366 93.6215 38.6366 92.9688Z" fill="#CCCCCC"/>
<path d="M46.3248 88.8623C47.4484 88.8623 48.3266 89.2619 48.9596 90.065C49.7153 91.0144 50.0911 92.589 50.0911 94.7886C50.0911 96.9843 49.7113 98.5588 48.9517 99.5202C48.3227 100.311 47.4484 100.707 46.3248 100.707C45.1973 100.707 44.2874 100.272 43.5951 99.4054C42.9028 98.539 42.5586 96.9922 42.5586 94.7649C42.5586 92.5811 42.9384 91.0105 43.698 90.0491C44.327 89.2579 45.2013 88.8623 46.3248 88.8623ZM46.3248 90.7059C46.0558 90.7059 45.8145 90.7929 45.6048 90.963C45.3951 91.1331 45.229 91.4417 45.1143 91.8848C44.96 92.4584 44.8848 93.4277 44.8848 94.7886C44.8848 96.1495 44.9521 97.0832 45.0905 97.5935C45.229 98.1039 45.3991 98.4401 45.6088 98.6102C45.8185 98.7804 46.0558 98.8634 46.3248 98.8634C46.5939 98.8634 46.8352 98.7764 47.0449 98.6063C47.2545 98.4362 47.4207 98.1276 47.5354 97.6845C47.6897 97.1148 47.7649 96.1495 47.7649 94.7886C47.7649 93.4277 47.6976 92.494 47.5592 91.9837C47.4207 91.4734 47.2506 91.1331 47.0409 90.963C46.8312 90.7929 46.5939 90.7059 46.3248 90.7059Z" fill="#CCCCCC"/>
<path d="M54.1367 89.1738H56.2414" stroke="#CCCCCC" stroke-width="0.506386" stroke-miterlimit="3.25"/>
<path d="M54.1367 83.916H56.2414" stroke="#CCCCCC" stroke-width="0.506386" stroke-miterlimit="3.25"/>
<path d="M54.1367 78.6582H56.2414" stroke="#CCCCCC" stroke-width="0.506386" stroke-miterlimit="3.25"/>
<path d="M54.1367 73.4014H56.2414" stroke="#CCCCCC" stroke-width="0.506386" stroke-miterlimit="3.25"/>
<path d="M54.1367 68.1426H57.6458" stroke="#CCCCCC" stroke-width="0.506386" stroke-miterlimit="3.25"/>
<path d="M30.1307 74.2201H27.9073V65.841C27.0963 66.6006 26.1389 67.1624 25.0352 67.5263V65.5087C25.6167 65.3188 26.2457 64.9588 26.9262 64.4287C27.6066 63.8986 28.0735 63.2814 28.3267 62.5732H30.1307V74.2201Z" fill="#CCCCCC"/>
<path d="M37.2116 62.5732C38.3351 62.5732 39.2134 62.9728 39.8464 63.7759C40.602 64.7254 40.9778 66.2999 40.9778 68.4995C40.9778 70.6952 40.598 72.2697 39.8384 73.2311C39.2094 74.0223 38.3351 74.4179 37.2116 74.4179C36.0841 74.4179 35.1741 73.9828 34.4818 73.1164C33.7895 72.25 33.4453 70.7031 33.4453 68.4758C33.4453 66.292 33.8251 64.7214 34.5847 63.7601C35.2137 62.9689 36.088 62.5732 37.2116 62.5732ZM37.2116 64.4168C36.9425 64.4168 36.7012 64.5038 36.4915 64.674C36.2819 64.8441 36.1157 65.1526 36.001 65.5957C35.8467 66.1694 35.7715 67.1386 35.7715 68.4995C35.7715 69.8605 35.8388 70.7941 35.9772 71.3044C36.1157 71.8148 36.2858 72.1511 36.4955 72.3212C36.7052 72.4913 36.9425 72.5744 37.2116 72.5744C37.4806 72.5744 37.7219 72.4873 37.9316 72.3172C38.1413 72.1471 38.3074 71.8385 38.4221 71.3954C38.5764 70.8258 38.6516 69.8605 38.6516 68.4995C38.6516 67.1386 38.5843 66.205 38.4459 65.6946C38.3074 65.1843 38.1373 64.8441 37.9276 64.674C37.7179 64.5038 37.4806 64.4168 37.2116 64.4168Z" fill="#CCCCCC"/>
<path d="M46.2233 62.5732C47.3468 62.5732 48.2251 62.9728 48.8581 63.7759C49.6137 64.7254 49.9895 66.2999 49.9895 68.4995C49.9895 70.6952 49.6097 72.2697 48.8502 73.2311C48.2211 74.0223 47.3468 74.4179 46.2233 74.4179C45.0958 74.4179 44.1859 73.9828 43.4935 73.1164C42.8012 72.25 42.457 70.7031 42.457 68.4758C42.457 66.292 42.8368 64.7214 43.5964 63.7601C44.2254 62.9689 45.0997 62.5732 46.2233 62.5732ZM46.2233 64.4168C45.9543 64.4168 45.7129 64.5038 45.5033 64.674C45.2936 64.8441 45.1274 65.1526 45.0127 65.5957C44.8584 66.1694 44.7832 67.1386 44.7832 68.4995C44.7832 69.8605 44.8505 70.7941 44.989 71.3044C45.1274 71.8148 45.2975 72.1511 45.5072 72.3212C45.7169 72.4913 45.9543 72.5744 46.2233 72.5744C46.4923 72.5744 46.7336 72.4873 46.9433 72.3172C47.153 72.1471 47.3191 71.8385 47.4339 71.3954C47.5881 70.8258 47.6633 69.8605 47.6633 68.4995C47.6633 67.1386 47.5961 66.205 47.4576 65.6946C47.3191 65.1843 47.149 64.8441 46.9393 64.674C46.7297 64.5038 46.4923 64.4168 46.2233 64.4168Z" fill="#CCCCCC"/>
<path d="M54.1367 68.1426V71.6556" stroke="#CCCCCC" stroke-width="0.506386" stroke-miterlimit="3.25"/>
<path d="M66.0449 68.1426V70.2512" stroke="#CCCCCC" stroke-width="0.506386" stroke-miterlimit="3.25"/>
<path d="M77.9551 68.1426V70.2512" stroke="#CCCCCC" stroke-width="0.506386" stroke-miterlimit="3.25"/>
<path d="M89.8672 68.1426V70.2512" stroke="#CCCCCC" stroke-width="0.506386" stroke-miterlimit="3.25"/>
<path d="M101.775 68.1426V70.2512" stroke="#CCCCCC" stroke-width="0.506386" stroke-miterlimit="3.25"/>
<path d="M113.688 68.1426V71.6556" stroke="#CCCCCC" stroke-width="0.506386" stroke-miterlimit="3.25"/>
<path d="M125.594 68.1426V70.2512" stroke="#CCCCCC" stroke-width="0.506386" stroke-miterlimit="3.25"/>
<path d="M137.508 68.1426V70.2512" stroke="#CCCCCC" stroke-width="0.506386" stroke-miterlimit="3.25"/>
<path d="M149.416 68.1426V70.2512" stroke="#CCCCCC" stroke-width="0.506386" stroke-miterlimit="3.25"/>
<path d="M161.326 68.1426V70.2512" stroke="#CCCCCC" stroke-width="0.506386" stroke-miterlimit="3.25"/>
<path d="M173.236 68.1426V71.6556" stroke="#CCCCCC" stroke-width="0.506386" stroke-miterlimit="3.25"/>
<path d="M185.15 68.1426V70.2512" stroke="#CCCCCC" stroke-width="0.506386" stroke-miterlimit="3.25"/>
<path d="M197.061 68.1426V70.2512" stroke="#CCCCCC" stroke-width="0.506386" stroke-miterlimit="3.25"/>
<path d="M208.969 68.1426V70.2512" stroke="#CCCCCC" stroke-width="0.506386" stroke-miterlimit="3.25"/>
<path d="M220.879 68.1426V70.2512" stroke="#CCCCCC" stroke-width="0.506386" stroke-miterlimit="3.25"/>
<path d="M232.787 68.1426V71.6556" stroke="#CCCCCC" stroke-width="0.506386" stroke-miterlimit="3.25"/>
<path d="M244.699 68.1426V70.2512" stroke="#CCCCCC" stroke-width="0.506386" stroke-miterlimit="3.25"/>
<path d="M256.609 68.1426V70.2512" stroke="#CCCCCC" stroke-width="0.506386" stroke-miterlimit="3.25"/>
<path d="M268.521 68.1426V70.2512" stroke="#CCCCCC" stroke-width="0.506386" stroke-miterlimit="3.25"/>
<path d="M280.428 68.1426V70.2512" stroke="#CCCCCC" stroke-width="0.506386" stroke-miterlimit="3.25"/>
<path d="M292.34 68.1426V71.6556" stroke="#CCCCCC" stroke-width="0.506386" stroke-miterlimit="3.25"/>
<path d="M304.25 68.1426V70.2512" stroke="#CCCCCC" stroke-width="0.506386" stroke-miterlimit="3.25"/>
<path d="M316.16 68.1426V70.2512" stroke="#CCCCCC" stroke-width="0.506386" stroke-miterlimit="3.25"/>
<path d="M328.07 68.1426V70.2512" stroke="#CCCCCC" stroke-width="0.506386" stroke-miterlimit="3.25"/>
<path d="M339.98 68.1426V70.2512" stroke="#CCCCCC" stroke-width="0.506386" stroke-miterlimit="3.25"/>
<path d="M351.893 68.1426V71.6556" stroke="#CCCCCC" stroke-width="0.506386" stroke-miterlimit="3.25"/>
<path d="M351.892 252.167H348.379" stroke="#CCCCCC" stroke-width="0.506386" stroke-miterlimit="3.25"/>
<path d="M351.892 246.909H349.783" stroke="#CCCCCC" stroke-width="0.506386" stroke-miterlimit="3.25"/>
<path d="M351.892 241.653H349.783" stroke="#CCCCCC" stroke-width="0.506386" stroke-miterlimit="3.25"/>
<path d="M351.892 236.394H349.783" stroke="#CCCCCC" stroke-width="0.506386" stroke-miterlimit="3.25"/>
<path d="M351.892 231.138H349.783" stroke="#CCCCCC" stroke-width="0.506386" stroke-miterlimit="3.25"/>
<path d="M351.892 225.879H348.379" stroke="#CCCCCC" stroke-width="0.506386" stroke-miterlimit="3.25"/>
<path d="M351.892 220.622H349.783" stroke="#CCCCCC" stroke-width="0.506386" stroke-miterlimit="3.25"/>
<path d="M351.892 215.364H349.783" stroke="#CCCCCC" stroke-width="0.506386" stroke-miterlimit="3.25"/>
<path d="M351.892 210.106H349.783" stroke="#CCCCCC" stroke-width="0.506386" stroke-miterlimit="3.25"/>
<path d="M351.892 204.849H349.783" stroke="#CCCCCC" stroke-width="0.506386" stroke-miterlimit="3.25"/>
<path d="M351.892 199.591H348.379" stroke="#CCCCCC" stroke-width="0.506386" stroke-miterlimit="3.25"/>
<path d="M351.892 194.327H349.783" stroke="#CCCCCC" stroke-width="0.506386" stroke-miterlimit="3.25"/>
<path d="M351.892 189.071H349.783" stroke="#CCCCCC" stroke-width="0.506386" stroke-miterlimit="3.25"/>
<path d="M351.892 183.813H349.783" stroke="#CCCCCC" stroke-width="0.506386" stroke-miterlimit="3.25"/>
<path d="M351.892 178.556H349.783" stroke="#CCCCCC" stroke-width="0.506386" stroke-miterlimit="3.25"/>
<path d="M351.892 173.298H348.379" stroke="#CCCCCC" stroke-width="0.506386" stroke-miterlimit="3.25"/>
<path d="M351.892 168.039H349.783" stroke="#CCCCCC" stroke-width="0.506386" stroke-miterlimit="3.25"/>
<path d="M351.892 162.783H349.783" stroke="#CCCCCC" stroke-width="0.506386" stroke-miterlimit="3.25"/>
<path d="M351.892 157.524H349.783" stroke="#CCCCCC" stroke-width="0.506386" stroke-miterlimit="3.25"/>
<path d="M351.892 152.267H349.783" stroke="#CCCCCC" stroke-width="0.506386" stroke-miterlimit="3.25"/>
<path d="M351.892 147.009H348.379" stroke="#CCCCCC" stroke-width="0.506386" stroke-miterlimit="3.25"/>
<path d="M351.892 141.751H349.783" stroke="#CCCCCC" stroke-width="0.506386" stroke-miterlimit="3.25"/>
<path d="M351.892 136.494H349.783" stroke="#CCCCCC" stroke-width="0.506386" stroke-miterlimit="3.25"/>
<path d="M351.892 131.236H349.783" stroke="#CCCCCC" stroke-width="0.506386" stroke-miterlimit="3.25"/>
<path d="M351.892 125.979H349.783" stroke="#CCCCCC" stroke-width="0.506386" stroke-miterlimit="3.25"/>
<path d="M351.892 120.721H348.379" stroke="#CCCCCC" stroke-width="0.506386" stroke-miterlimit="3.25"/>
<path d="M351.892 115.462H349.783" stroke="#CCCCCC" stroke-width="0.506386" stroke-miterlimit="3.25"/>
<path d="M351.892 110.205H349.783" stroke="#CCCCCC" stroke-width="0.506386" stroke-miterlimit="3.25"/>
<path d="M351.892 104.947H349.783" stroke="#CCCCCC" stroke-width="0.506386" stroke-miterlimit="3.25"/>
<path d="M351.892 99.6895H349.783" stroke="#CCCCCC" stroke-width="0.506386" stroke-miterlimit="3.25"/>
<path d="M351.892 94.4316H348.379" stroke="#CCCCCC" stroke-width="0.506386" stroke-miterlimit="3.25"/>
<path d="M351.892 89.1738H349.783" stroke="#CCCCCC" stroke-width="0.506386" stroke-miterlimit="3.25"/>
<path d="M351.892 83.916H349.783" stroke="#CCCCCC" stroke-width="0.506386" stroke-miterlimit="3.25"/>
<path d="M351.892 78.6582H349.783" stroke="#CCCCCC" stroke-width="0.506386" stroke-miterlimit="3.25"/>
<path d="M351.892 73.4014H349.783" stroke="#CCCCCC" stroke-width="0.506386" stroke-miterlimit="3.25"/>
<path d="M351.892 68.1426H348.379" stroke="#CCCCCC" stroke-width="0.506386" stroke-miterlimit="3.25"/>
<path d="M11.5994 230.55V233.098L8.96462 234.11V238.747L11.5994 239.704V242.189L0 237.671V235.194L11.5994 230.55ZM7.01028 234.862L2.706 236.46L7.01028 238.027V234.862Z" fill="#CCCCCC"/>
<path d="M5.68021 221.997L6.07583 224.189C5.63669 224.264 5.30833 224.431 5.08679 224.692C4.86525 224.953 4.75447 225.293 4.75447 225.708C4.75447 226.262 4.94437 226.705 5.32811 227.034C5.71186 227.362 6.3488 227.528 7.24684 227.528C8.24379 227.528 8.94798 227.362 9.35942 227.026C9.77086 226.689 9.97658 226.242 9.97658 225.677C9.97658 225.253 9.8579 224.909 9.61657 224.64C9.37525 224.371 8.96381 224.181 8.3783 224.071L8.75018 221.887C9.75108 222.112 10.5107 222.547 11.021 223.192C11.5313 223.837 11.7885 224.7 11.7885 225.78C11.7885 227.01 11.4008 227.987 10.6254 228.719C9.84998 229.451 8.77787 229.815 7.40509 229.815C6.01648 229.815 4.93646 229.447 4.16501 228.715C3.39356 227.983 3.00586 226.99 3.00586 225.74C3.00586 224.715 3.2274 223.904 3.66654 223.299C4.10567 222.694 4.77821 222.263 5.68021 221.997Z" fill="#CCCCCC"/>
<path d="M5.68021 212.985L6.07583 215.176C5.63669 215.252 5.30833 215.418 5.08679 215.679C4.86525 215.94 4.75447 216.28 4.75447 216.696C4.75447 217.25 4.94437 217.693 5.32811 218.021C5.71186 218.349 6.3488 218.515 7.24684 218.515C8.24379 218.515 8.94798 218.349 9.35942 218.013C9.77086 217.677 9.97658 217.23 9.97658 216.664C9.97658 216.241 9.8579 215.897 9.61657 215.627C9.37525 215.358 8.96381 215.169 8.3783 215.058L8.75018 212.874C9.75108 213.1 10.5107 213.535 11.021 214.18C11.5313 214.824 11.7885 215.687 11.7885 216.767C11.7885 217.997 11.4008 218.974 10.6254 219.706C9.84998 220.438 8.77787 220.802 7.40509 220.802C6.01648 220.802 4.93646 220.434 4.16501 219.702C3.39356 218.97 3.00586 217.977 3.00586 216.727C3.00586 215.703 3.2274 214.892 3.66654 214.286C4.10567 213.681 4.77821 213.25 5.68021 212.985Z" fill="#CCCCCC"/>
<path d="M11.6001 205.769H10.3421C10.7891 206.074 11.1452 206.477 11.4023 206.976C11.6595 207.474 11.79 208 11.79 208.554C11.79 209.12 11.6674 209.626 11.4181 210.073C11.1689 210.521 10.8208 210.845 10.3737 211.047C9.92666 211.248 9.30555 211.347 8.51432 211.347H3.19727V209.124H7.05846C8.24135 209.124 8.96532 209.084 9.23038 209.001C9.49544 208.918 9.70907 208.772 9.86336 208.554C10.0177 208.337 10.0968 208.064 10.0968 207.731C10.0968 207.352 9.99392 207.011 9.78424 206.711C9.57457 206.41 9.31742 206.204 9.00884 206.094C8.70026 205.983 7.94464 205.927 6.74197 205.927H3.19727V203.704H11.6001V205.769Z" fill="#CCCCCC"/>
<path d="M11.5986 199.275V201.498H3.19575V199.433H4.39051C3.82478 199.081 3.4529 198.761 3.27488 198.48C3.09685 198.199 3.00586 197.878 3.00586 197.518C3.00586 197.012 3.14433 196.525 3.42521 196.055L5.36372 196.743C5.1224 197.119 4.99975 197.467 4.99975 197.787C4.99975 198.1 5.08679 198.361 5.2569 198.579C5.42702 198.796 5.73955 198.966 6.1866 199.089C6.63364 199.212 7.5752 199.275 9.00337 199.275H11.5986Z" fill="#CCCCCC"/>
<path d="M5.75933 193.434L5.39537 195.452C4.58436 195.227 3.98303 194.835 3.59137 194.281C3.19971 193.727 3.00586 192.904 3.00586 191.812C3.00586 190.819 3.12454 190.084 3.35796 189.597C3.59137 189.11 3.89204 188.77 4.25204 188.572C4.61205 188.375 5.27668 188.276 6.24198 188.276L8.83721 188.299C9.57701 188.299 10.119 188.264 10.4711 188.193C10.8232 188.121 11.199 187.987 11.5986 187.793V189.993C11.4522 190.052 11.2307 190.123 10.9419 190.206C10.8113 190.242 10.7243 190.27 10.6808 190.285C11.0487 190.665 11.3256 191.073 11.5116 191.504C11.6975 191.935 11.7885 192.398 11.7885 192.888C11.7885 193.755 11.5551 194.435 11.0843 194.934C10.6135 195.432 10.0201 195.682 9.30404 195.682C8.8293 195.682 8.40599 195.567 8.03412 195.341C7.66224 195.116 7.3774 194.795 7.17959 194.388C6.98178 193.98 6.80771 193.391 6.66133 192.619C6.46748 191.579 6.2855 190.859 6.11539 190.459H5.89384C5.46658 190.459 5.16196 190.566 4.97997 190.776C4.79799 190.986 4.707 191.385 4.707 191.971C4.707 192.366 4.78612 192.675 4.94041 192.896C5.0947 193.118 5.36768 193.296 5.75933 193.434ZM7.56333 190.459C7.65828 190.744 7.77301 191.195 7.90356 191.812C8.03412 192.43 8.16467 192.833 8.29126 193.023C8.49698 193.312 8.75809 193.458 9.07458 193.458C9.38712 193.458 9.65613 193.343 9.88163 193.11C10.1071 192.877 10.2219 192.584 10.2219 192.224C10.2219 191.824 10.0913 191.441 9.82625 191.077C9.62448 190.808 9.3792 190.63 9.09041 190.546C8.90051 190.487 8.5405 190.459 8.00642 190.459H7.56333Z" fill="#CCCCCC"/>
<path d="M5.68021 178.756L6.07583 180.948C5.63669 181.023 5.30833 181.189 5.08679 181.45C4.86525 181.712 4.75447 182.052 4.75447 182.467C4.75447 183.021 4.94437 183.464 5.32811 183.792C5.71186 184.121 6.3488 184.287 7.24684 184.287C8.24379 184.287 8.94798 184.121 9.35942 183.785C9.77086 183.448 9.97658 183.001 9.97658 182.435C9.97658 182.012 9.8579 181.668 9.61657 181.399C9.37525 181.13 8.96381 180.94 8.3783 180.829L8.75018 178.646C9.75108 178.871 10.5107 179.306 11.021 179.951C11.5313 180.596 11.7885 181.458 11.7885 182.538C11.7885 183.769 11.4008 184.746 10.6254 185.478C9.84998 186.21 8.77787 186.574 7.40509 186.574C6.01648 186.574 4.93646 186.206 4.16501 185.474C3.39356 184.742 3.00586 183.749 3.00586 182.499C3.00586 181.474 3.2274 180.663 3.66654 180.058C4.10567 179.453 4.77821 179.021 5.68021 178.756Z" fill="#CCCCCC"/>
<path d="M3.19727 178.124V175.758L9.16313 173.748L3.19727 171.786V169.483L11.2836 172.451L12.7474 172.981C13.238 173.174 13.6138 173.36 13.8709 173.538C14.1281 173.716 14.3378 173.918 14.5 174.148C14.6622 174.377 14.7848 174.658 14.8758 174.994C14.9668 175.331 15.0103 175.706 15.0103 176.13C15.0103 176.557 14.9668 176.976 14.8758 177.388L13.1351 177.586C13.2023 177.237 13.238 176.925 13.238 176.644C13.238 176.126 13.0876 175.746 12.783 175.497C12.4784 175.247 12.0946 175.058 11.6238 174.927L3.19727 178.124Z" fill="#CCCCCC"/>
<path d="M0.537109 160.649C1.13053 160.922 1.71604 161.168 2.28968 161.385C2.86332 161.603 3.44092 161.785 4.02643 161.939C4.60798 162.093 5.2014 162.212 5.81065 162.295C6.41593 162.378 7.04892 162.422 7.71355 162.422C8.34653 162.422 8.96369 162.382 9.56502 162.299C10.1703 162.22 10.7637 162.101 11.3453 161.947C11.9308 161.793 12.5084 161.611 13.0781 161.397C13.6478 161.183 14.2174 160.946 14.7871 160.677V162.101C14.2649 162.453 13.719 162.774 13.1493 163.059C12.5796 163.348 11.9941 163.593 11.3928 163.795C10.7914 163.996 10.1822 164.155 9.55711 164.265C8.936 164.376 8.30697 164.431 7.66608 164.431C7.02914 164.431 6.39615 164.38 5.76713 164.269C5.1381 164.159 4.5249 164.004 3.92357 163.799C3.32223 163.593 2.74068 163.348 2.171 163.055C1.60131 162.766 1.05932 162.442 0.537109 162.074V160.649Z" fill="#CCCCCC"/>
<path d="M3.19771 159.056V156.983H4.43202C4.00872 156.713 3.66849 156.35 3.40343 155.891C3.13836 155.432 3.00781 154.921 3.00781 154.364C3.00781 153.386 3.39156 152.56 4.15509 151.879C4.91863 151.199 5.98679 150.858 7.35166 150.858C8.75609 150.858 9.84403 151.203 10.6234 151.887C11.4027 152.571 11.7904 153.402 11.7904 154.379C11.7904 154.842 11.6995 155.266 11.5135 155.641C11.3276 156.017 11.0111 156.417 10.564 156.832H14.7971V159.056H3.19771ZM7.25671 156.856C8.20223 156.856 8.89851 156.67 9.34951 156.294C9.80051 155.918 10.026 155.463 10.026 154.925C10.026 154.407 9.82029 153.98 9.40489 153.636C8.9895 153.291 8.313 153.121 7.36748 153.121C6.48526 153.121 5.8325 153.299 5.40523 153.651C4.97797 154.004 4.76434 154.443 4.76434 154.965C4.76434 155.507 4.97401 155.958 5.39337 156.318C5.81272 156.678 6.43383 156.856 7.25671 156.856Z" fill="#CCCCCC"/>
<path d="M8.9262 144.228L9.29808 142.012C10.1091 142.297 10.7302 142.748 11.1535 143.361C11.5768 143.975 11.7904 144.746 11.7904 145.668C11.7904 147.128 11.3118 148.212 10.3583 148.912C9.59479 149.466 8.62949 149.743 7.46243 149.743C6.06987 149.743 4.97797 149.379 4.1907 148.651C3.40343 147.923 3.00781 147.001 3.00781 145.889C3.00781 144.639 3.41925 143.654 4.24608 142.93C5.07292 142.206 6.33493 141.862 8.04002 141.894V147.464C8.7007 147.448 9.21104 147.27 9.57896 146.926C9.94689 146.582 10.1289 146.154 10.1289 145.644C10.1289 145.296 10.0339 145.003 9.84402 144.766C9.65413 144.528 9.34951 144.35 8.9262 144.228ZM6.67911 144.101C6.03426 144.117 5.54766 144.283 5.21138 144.6C4.87511 144.916 4.70895 145.3 4.70895 145.755C4.70895 146.241 4.88698 146.641 5.23908 146.957C5.59117 147.274 6.07382 147.428 6.67911 147.424V144.101Z" fill="#CCCCCC"/>
<path d="M11.6006 137.953V140.176H3.19771V138.111H4.39246C3.82673 137.759 3.45486 137.438 3.27683 137.158C3.0988 136.877 3.00781 136.556 3.00781 136.196C3.00781 135.69 3.14628 135.203 3.42716 134.732L5.36567 135.421C5.12435 135.797 5.00171 136.145 5.00171 136.465C5.00171 136.778 5.08874 137.039 5.25886 137.256C5.42897 137.474 5.74151 137.644 6.18855 137.767C6.63559 137.889 7.57716 137.953 9.00532 137.953H11.6006Z" fill="#CCCCCC"/>
<path d="M11.5994 129.716H0V127.492H4.17769C3.39833 126.808 3.00667 125.993 3.00667 125.055C3.00667 124.031 3.37854 123.184 4.11834 122.516C4.85814 121.847 5.92234 121.511 7.31095 121.511C8.74703 121.511 9.85079 121.851 10.6262 122.535C11.4016 123.22 11.7893 124.047 11.7893 125.024C11.7893 125.502 11.6706 125.977 11.4293 126.444C11.188 126.911 10.8359 127.314 10.3651 127.651H11.5994V129.716ZM7.216 127.508C8.08635 127.508 8.7312 127.37 9.1466 127.097C9.73606 126.713 10.0328 126.199 10.0328 125.562C10.0328 125.071 9.8231 124.652 9.40375 124.308C8.9844 123.964 8.32372 123.789 7.42172 123.789C6.46038 123.789 5.76805 123.964 5.34475 124.312C4.92144 124.66 4.70781 125.107 4.70781 125.649C4.70781 126.183 4.91353 126.626 5.32892 126.978C5.74432 127.33 6.37334 127.508 7.216 127.508Z" fill="#CCCCCC"/>
<path d="M2.05719 119.722H0V117.499H2.05719V119.722ZM11.5994 119.722H3.19656V117.499H11.5994V119.722Z" fill="#CCCCCC"/>
<path d="M3.19757 111.368H4.96993V112.887H8.35638C9.04079 112.887 9.44037 112.871 9.55509 112.843C9.66982 112.815 9.76081 112.748 9.83598 112.645C9.91115 112.543 9.94675 112.416 9.94675 112.27C9.94675 112.064 9.87554 111.767 9.73312 111.375L11.458 111.186C11.6795 111.704 11.7903 112.289 11.7903 112.942C11.7903 113.342 11.7231 113.706 11.5885 114.026C11.454 114.347 11.28 114.584 11.0663 114.734C10.8527 114.885 10.5639 114.987 10.1999 115.047C9.9428 115.094 9.42058 115.118 8.63331 115.118H4.96993V116.139H3.19757V115.118H1.52808L0.230469 112.887H3.19757V111.368Z" fill="#CCCCCC"/>
<path d="M7.53948 106.264C8.18829 106.264 8.82918 106.319 9.46216 106.426C10.0951 106.537 10.7202 106.691 11.3295 106.893C11.9427 107.094 12.54 107.34 13.1176 107.625C13.6952 107.909 14.2531 108.23 14.7871 108.586V110.01C14.2333 109.749 13.6675 109.508 13.0939 109.294C12.5163 109.08 11.9348 108.895 11.3413 108.744C10.7519 108.594 10.1545 108.475 9.5492 108.392C8.94391 108.309 8.33071 108.265 7.71355 108.265C7.04892 108.265 6.41593 108.305 5.81065 108.388C5.20536 108.471 4.60798 108.586 4.03038 108.736C3.44883 108.887 2.87123 109.073 2.29759 109.29C1.72395 109.508 1.13844 109.753 0.537109 110.022V108.614C1.04745 108.254 1.58153 107.929 2.13539 107.64C2.69321 107.352 3.26685 107.102 3.86027 106.901C4.45369 106.699 5.05898 106.541 5.67614 106.43C6.28934 106.319 6.91441 106.264 7.53948 106.264Z" fill="#CCCCCC"/>
<path d="M0.537109 96.8457C1.13053 97.1187 1.71604 97.364 2.28968 97.5815C2.86332 97.7991 3.44092 97.9811 4.02643 98.1354C4.60798 98.2897 5.2014 98.4084 5.81065 98.4915C6.41593 98.5745 7.04892 98.6181 7.71355 98.6181C8.34653 98.6181 8.96369 98.5785 9.56502 98.4954C10.1703 98.4163 10.7637 98.2976 11.3453 98.1433C11.9308 97.989 12.5084 97.807 13.0781 97.5934C13.6478 97.3798 14.2174 97.1424 14.7871 96.8734V98.2976C14.2649 98.6497 13.719 98.9702 13.1493 99.255C12.5796 99.5438 11.9941 99.7891 11.3928 99.9908C10.7914 100.193 10.1822 100.351 9.55711 100.462C8.936 100.572 8.30697 100.628 7.66608 100.628C7.02914 100.628 6.39615 100.576 5.76713 100.466C5.1381 100.355 4.5249 100.201 3.92357 99.9948C3.32223 99.7891 2.74068 99.5438 2.171 99.251C1.60131 98.9622 1.05932 98.6378 0.537109 98.2699V96.8457Z" fill="#CCCCCC"/>
<path d="M9.14963 83.5635C9.54129 83.5635 9.90921 83.603 10.2613 83.6822C10.6094 83.7652 10.9141 83.8997 11.1791 84.0896C11.4442 84.2756 11.6539 84.5209 11.8042 84.8215C11.9585 85.1222 12.0376 85.4941 12.0376 85.9293C12.0376 86.3723 11.9624 86.7482 11.8082 87.0607C11.6578 87.3693 11.4521 87.6185 11.195 87.8124C10.9338 88.0062 10.6292 88.1447 10.2771 88.2317C9.92503 88.3188 9.5492 88.3623 9.14963 88.3623C8.75797 88.3623 8.39005 88.3188 8.04191 88.2317C7.69377 88.1447 7.38915 88.0062 7.12408 87.8124C6.86298 87.6185 6.65726 87.3693 6.50693 87.0647C6.35659 86.76 6.28143 86.3921 6.28143 85.9569C6.28143 85.5218 6.35659 85.1499 6.50693 84.8453C6.65726 84.5367 6.86298 84.2914 7.12408 84.1015C7.38915 83.9156 7.69377 83.7771 8.04191 83.6901C8.39005 83.603 8.75797 83.5635 9.14963 83.5635ZM0.537109 85.9728L12.006 91.7131V93.2639L0.537109 87.4801V85.9728ZM3.40927 90.8982C3.79697 90.8982 4.16093 90.9377 4.50907 91.0248C4.85722 91.1078 5.16579 91.2423 5.4269 91.4283C5.688 91.6142 5.89768 91.8556 6.05197 92.1602C6.2023 92.4608 6.28143 92.8288 6.28143 93.2639C6.28143 93.707 6.20626 94.0868 6.05593 94.3954C5.90955 94.704 5.70779 94.9572 5.45064 95.1471C5.19349 95.3409 4.88886 95.4794 4.53677 95.5664C4.18467 95.6534 3.80884 95.697 3.40927 95.697C3.01761 95.697 2.64969 95.6534 2.3055 95.5664C1.95736 95.4794 1.65274 95.3409 1.39164 95.151C1.13053 94.9611 0.920855 94.7158 0.766567 94.4152C0.616233 94.1106 0.537109 93.7426 0.537109 93.3075C0.537109 92.8644 0.612277 92.4885 0.762609 92.18C0.908986 91.8753 1.11471 91.6261 1.37186 91.4362C1.63296 91.2463 1.93758 91.1078 2.28572 91.0248C2.63387 90.9417 3.0097 90.8982 3.40927 90.8982ZM9.42656 85.2171H8.92017C8.79358 85.2171 8.64324 85.2211 8.47708 85.233C8.30697 85.2448 8.14872 85.2804 8.00235 85.3319C7.85201 85.3833 7.72542 85.4585 7.62256 85.5574C7.5197 85.6563 7.46827 85.7947 7.46827 85.9728C7.46827 86.1548 7.5197 86.2972 7.62651 86.4C7.73333 86.4989 7.85993 86.5741 8.01026 86.6255C8.16059 86.673 8.32279 86.7047 8.49291 86.7165C8.66302 86.7284 8.81731 86.7363 8.95182 86.7363H9.29996C9.42656 86.7363 9.58085 86.7323 9.75887 86.7205C9.9369 86.7126 10.107 86.6809 10.2653 86.6334C10.4275 86.582 10.562 86.5068 10.6767 86.404C10.7875 86.3011 10.8429 86.1548 10.8429 85.9728C10.8429 85.7987 10.7914 85.6602 10.6925 85.5613C10.5936 85.4585 10.471 85.3833 10.3246 85.3319C10.1782 85.2804 10.0239 85.2448 9.86173 85.233C9.69953 85.2211 9.55315 85.2171 9.42656 85.2171ZM3.58729 92.5518H3.23124C3.10069 92.5518 2.95036 92.5558 2.77628 92.5677C2.59826 92.5756 2.4321 92.6072 2.27386 92.6547C2.11561 92.7061 1.9811 92.7813 1.87429 92.8802C1.76351 92.983 1.71208 93.1255 1.71208 93.3075C1.71208 93.5013 1.77538 93.6516 1.89802 93.7545C2.02462 93.8574 2.17495 93.9325 2.35298 93.98C2.52705 94.0275 2.71299 94.0552 2.90288 94.0631C3.09673 94.071 3.25893 94.071 3.39344 94.071C3.52795 94.071 3.69015 94.067 3.884 94.0631C4.07786 94.0552 4.26379 94.0275 4.44182 93.98C4.61985 93.9325 4.77018 93.8574 4.89282 93.7545C5.01546 93.6516 5.07876 93.5013 5.07876 93.3075C5.07876 93.1294 5.02337 92.991 4.92051 92.8881C4.8137 92.7892 4.68314 92.714 4.52886 92.6626C4.37457 92.6151 4.21236 92.5835 4.03829 92.5716C3.86818 92.5597 3.71785 92.5518 3.58729 92.5518Z" fill="#CCCCCC"/>
<path d="M7.53948 78.9189C8.18829 78.9189 8.82918 78.9743 9.46216 79.0811C10.0951 79.1919 10.7202 79.3462 11.3295 79.548C11.9427 79.7497 12.54 79.995 13.1176 80.2799C13.6952 80.5647 14.2531 80.8851 14.7871 81.2412V82.6654C14.2333 82.4043 13.6675 82.163 13.0939 81.9494C12.5163 81.7357 11.9348 81.5498 11.3413 81.3994C10.7519 81.2491 10.1545 81.1304 9.5492 81.0473C8.94391 80.9643 8.33071 80.9208 7.71355 80.9208C7.04892 80.9208 6.41593 80.9603 5.81065 81.0434C5.20536 81.1265 4.60798 81.2412 4.03038 81.3915C3.44883 81.5419 2.87123 81.7278 2.29759 81.9454C1.72395 82.163 1.13844 82.4083 0.537109 82.6773V81.2689C1.04745 80.9089 1.58153 80.5845 2.13539 80.2957C2.69321 80.0069 3.26685 79.7576 3.86027 79.5559C4.45369 79.3541 5.05898 79.1959 5.67614 79.0851C6.28934 78.9743 6.91441 78.9189 7.53948 78.9189Z" fill="#CCCCCC"/>
<path d="M140.864 55.6413L143.914 56.0132C143.965 56.3653 144.08 56.6106 144.266 56.7411C144.519 56.931 144.915 57.026 145.461 57.026C146.157 57.026 146.679 56.9231 147.027 56.7134C147.261 56.575 147.439 56.3495 147.558 56.0409C147.641 55.8194 147.684 55.4119 147.684 54.8145V53.3428C146.885 54.4308 145.88 54.9767 144.662 54.9767C143.309 54.9767 142.237 54.4031 141.445 53.2597C140.824 52.3538 140.516 51.2263 140.516 49.8772C140.516 48.188 140.919 46.8983 141.734 46.0042C142.549 45.1101 143.558 44.667 144.768 44.667C146.015 44.667 147.043 45.2129 147.854 46.3088V44.8925H150.351V53.9402C150.351 55.131 150.252 56.0211 150.058 56.6106C149.86 57.2 149.583 57.659 149.231 57.9952C148.875 58.3315 148.404 58.5926 147.811 58.7825C147.217 58.9724 146.47 59.0673 145.564 59.0673C143.855 59.0673 142.644 58.7746 141.928 58.1891C141.212 57.6036 140.856 56.8638 140.856 55.9657C140.856 55.8747 140.86 55.7679 140.864 55.6413ZM143.249 49.7269C143.249 50.7951 143.455 51.5784 143.87 52.0768C144.286 52.5714 144.796 52.8206 145.405 52.8206C146.058 52.8206 146.608 52.5674 147.055 52.0571C147.506 51.5467 147.732 50.7911 147.732 49.7942C147.732 48.7497 147.514 47.9743 147.083 47.4679C146.652 46.9616 146.11 46.7084 145.453 46.7084C144.812 46.7084 144.286 46.9536 143.87 47.4521C143.455 47.9506 143.249 48.7062 143.249 49.7269Z" fill="#CCCCCC"/>
<path d="M152.916 44.8925H155.4V46.376C155.725 45.8697 156.16 45.4582 156.714 45.1417C157.264 44.8252 157.873 44.667 158.546 44.667C159.717 44.667 160.71 45.1259 161.525 46.0437C162.344 46.9616 162.751 48.2394 162.751 49.8772C162.751 51.5625 162.34 52.872 161.517 53.8057C160.694 54.7393 159.697 55.2062 158.526 55.2062C157.968 55.2062 157.466 55.0954 157.011 54.8738C156.56 54.6523 156.081 54.2725 155.582 53.7345V58.8142H152.916V44.8925ZM155.555 49.7625C155.555 50.8979 155.78 51.7327 156.227 52.2747C156.678 52.8166 157.224 53.0857 157.869 53.0857C158.49 53.0857 159.008 52.8404 159.42 52.3419C159.831 51.8434 160.037 51.0285 160.037 49.897C160.037 48.8407 159.823 48.0534 159.4 47.5431C158.977 47.0288 158.451 46.7717 157.822 46.7717C157.169 46.7717 156.631 47.0249 156.2 47.5273C155.768 48.0297 155.555 48.7774 155.555 49.7625Z" fill="#CCCCCC"/>
<path d="M169.494 44.8916V47.02H167.67V51.0829C167.67 51.9058 167.686 52.3845 167.722 52.523C167.757 52.6575 167.836 52.7683 167.959 52.8593C168.082 52.9463 168.232 52.9898 168.41 52.9898C168.655 52.9898 169.015 52.9067 169.482 52.7366L169.712 54.8057C169.091 55.0707 168.386 55.2052 167.603 55.2052C167.12 55.2052 166.689 55.1222 166.302 54.96C165.918 54.7978 165.633 54.592 165.451 54.3349C165.273 54.0777 165.146 53.7336 165.079 53.2944C165.02 52.9858 164.992 52.3568 164.992 51.4153V47.02H163.766V44.8916H164.992V42.8898L167.67 41.3311V44.8916H169.494Z" fill="#CCCCCC"/>
<path d="M179.978 51.3805H170.863V49.082H179.978V51.3805Z" fill="#CCCCCC"/>
<path d="M187.294 54.977V52.1761H181.598V49.842L187.639 41H189.878V49.8301H191.607V52.1761H189.878V54.977H187.294ZM187.294 49.8301V45.0748L184.094 49.8301H187.294Z" fill="#CCCCCC"/>
<path d="M193.449 54.978V52.3115H196.116V54.978H193.449Z" fill="#CCCCCC"/>
<path d="M205.106 54.977H202.44V44.9205C201.467 45.8344 200.315 46.5069 198.994 46.9461V44.5249C199.69 44.2955 200.446 43.8642 201.261 43.2273C202.08 42.5904 202.638 41.8506 202.942 41H205.106V54.977Z" fill="#CCCCCC"/>
<path d="M218.467 51.3805H209.352V49.082H218.467V51.3805Z" fill="#CCCCCC"/>
<path d="M230.292 54.9777H227.625V49.8307C227.625 48.7428 227.566 48.0386 227.455 47.7182C227.34 47.3977 227.154 47.1524 226.897 46.9744C226.64 46.7964 226.332 46.7093 225.972 46.7093C225.509 46.7093 225.097 46.8359 224.729 47.0891C224.361 47.3423 224.108 47.6746 223.974 48.094C223.839 48.5133 223.768 49.2848 223.768 50.4123V54.9777H221.102V44.8935H223.578V46.377C224.46 45.2377 225.568 44.668 226.901 44.668C227.491 44.668 228.029 44.7708 228.515 44.9845C229.002 45.1981 229.374 45.4671 229.623 45.7955C229.872 46.1238 230.046 46.4997 230.145 46.9151C230.244 47.3344 230.292 47.9318 230.292 48.7111V54.9777Z" fill="#CCCCCC"/>
<path d="M234.995 47.9713L232.574 47.5322C232.847 46.559 233.314 45.839 233.978 45.3682C234.643 44.9014 235.632 44.668 236.941 44.668C238.132 44.668 239.018 44.8064 239.6 45.0873C240.181 45.3682 240.593 45.7282 240.83 46.1634C241.068 46.5946 241.186 47.3898 241.186 48.5489L241.155 51.6624C241.155 52.5486 241.198 53.2053 241.285 53.6247C241.368 54.044 241.531 54.495 241.764 54.9777H239.125C239.054 54.7996 238.971 54.5385 238.868 54.1904C238.825 54.0322 238.793 53.9253 238.773 53.8779C238.318 54.321 237.832 54.6533 237.309 54.8748C236.791 55.0964 236.237 55.2071 235.648 55.2071C234.611 55.2071 233.792 54.9223 233.195 54.3605C232.598 53.7987 232.297 53.0866 232.297 52.2242C232.297 51.6545 232.435 51.1481 232.704 50.7011C232.977 50.254 233.361 49.9138 233.852 49.6764C234.342 49.4391 235.046 49.2294 235.972 49.0514C237.218 48.818 238.085 48.6004 238.563 48.3986V48.1336C238.563 47.6193 238.437 47.2553 238.184 47.0337C237.93 46.8162 237.452 46.7093 236.751 46.7093C236.277 46.7093 235.905 46.8003 235.64 46.9863C235.375 47.1722 235.157 47.5006 234.995 47.9713ZM238.563 50.1354C238.223 50.2501 237.681 50.3846 236.941 50.5428C236.202 50.7011 235.715 50.8554 235.489 51.0097C235.141 51.2549 234.967 51.5675 234.967 51.9473C234.967 52.3231 235.106 52.6436 235.383 52.9165C235.664 53.1895 236.016 53.324 236.447 53.324C236.93 53.324 237.388 53.1658 237.824 52.8493C238.148 52.6079 238.358 52.3152 238.461 51.9671C238.528 51.7416 238.563 51.3064 238.563 50.6655V50.1354Z" fill="#CCCCCC"/>
<path d="M252.987 54.9777H250.321V49.8307C250.321 48.7428 250.261 48.0386 250.15 47.7182C250.036 47.3977 249.85 47.1524 249.593 46.9744C249.335 46.7964 249.027 46.7093 248.667 46.7093C248.204 46.7093 247.793 46.8359 247.425 47.0891C247.057 47.3423 246.804 47.6746 246.669 48.094C246.535 48.5133 246.463 49.2848 246.463 50.4123V54.9777H243.797V44.8935H246.273V46.377C247.156 45.2377 248.263 44.668 249.597 44.668C250.186 44.668 250.724 44.7708 251.211 44.9845C251.697 45.1981 252.069 45.4671 252.318 45.7955C252.568 46.1238 252.742 46.4997 252.841 46.9151C252.94 47.3344 252.987 47.9318 252.987 48.7111V54.9777Z" fill="#CCCCCC"/>
<path d="M255.078 49.7951C255.078 48.909 255.296 48.0505 255.731 47.2197C256.17 46.3928 256.787 45.7599 257.59 45.3207C258.389 44.8856 259.284 44.668 260.273 44.668C261.796 44.668 263.046 45.1625 264.023 46.1515C264.996 47.1445 265.483 48.3947 265.483 49.9059C265.483 51.433 264.992 52.6989 264.007 53.6998C263.022 54.7047 261.784 55.2071 260.288 55.2071C259.367 55.2071 258.484 54.9975 257.646 54.5781C256.807 54.1627 256.17 53.5495 255.731 52.7425C255.296 51.9354 255.078 50.9503 255.078 49.7951ZM257.812 49.9376C257.812 50.9385 258.049 51.702 258.524 52.2321C258.999 52.7662 259.584 53.0313 260.28 53.0313C260.977 53.0313 261.562 52.7662 262.033 52.2321C262.504 51.702 262.741 50.9305 262.741 49.9178C262.741 48.9287 262.504 48.1692 262.033 47.639C261.562 47.105 260.977 46.8399 260.28 46.8399C259.584 46.8399 258.999 47.105 258.524 47.639C258.049 48.1692 257.812 48.9366 257.812 49.9376Z" fill="#CCCCCC"/>
</g>
<defs>
<clipPath id="clip0_11278_202304">
<rect width="360" height="312" fill="white"/>
</clipPath>
</defs>
</svg>
