<svg width="360" height="312" viewBox="0 0 360 312" fill="none" xmlns="http://www.w3.org/2000/svg">
<g clip-path="url(#clip0_11278_204063)">
<rect width="360" height="312" fill="white"/>
<path d="M351.338 61.9971V259.92" stroke="#CCCCCC" stroke-width="0.540958" stroke-miterlimit="3.25" stroke-linecap="square"/>
<path d="M325.719 259.921V257.655" stroke="#CCCCCC" stroke-width="0.540958" stroke-miterlimit="3.25"/>
<path d="M338.527 259.921V257.655" stroke="#CCCCCC" stroke-width="0.540958" stroke-miterlimit="3.25"/>
<path d="M351.338 259.921V256.146" stroke="#CCCCCC" stroke-width="0.540958" stroke-miterlimit="3.25"/>
<path d="M342.25 276.108L344.549 275.829C344.621 276.417 344.82 276.865 345.141 277.173C345.462 277.482 345.851 277.638 346.307 277.638C346.797 277.638 347.212 277.452 347.545 277.08C347.879 276.708 348.048 276.205 348.048 275.576C348.048 274.98 347.888 274.506 347.567 274.156C347.245 273.805 346.852 273.632 346.392 273.632C346.087 273.632 345.724 273.691 345.301 273.809L345.563 271.873C346.206 271.89 346.696 271.751 347.034 271.455C347.372 271.159 347.541 270.766 347.541 270.276C347.541 269.858 347.419 269.528 347.169 269.279C346.92 269.029 346.59 268.907 346.18 268.907C345.775 268.907 345.428 269.046 345.141 269.329C344.853 269.612 344.68 270.022 344.617 270.563L342.428 270.191C342.58 269.443 342.808 268.843 343.116 268.395C343.425 267.947 343.852 267.596 344.401 267.339C344.951 267.081 345.568 266.954 346.248 266.954C347.414 266.954 348.348 267.326 349.054 268.07C349.633 268.678 349.925 269.367 349.925 270.132C349.925 271.218 349.329 272.089 348.141 272.736C348.851 272.888 349.418 273.23 349.845 273.758C350.271 274.287 350.483 274.929 350.483 275.677C350.483 276.763 350.085 277.693 349.291 278.458C348.496 279.223 347.507 279.607 346.324 279.607C345.204 279.607 344.274 279.286 343.535 278.64C342.795 277.993 342.368 277.152 342.25 276.108Z" fill="#CCCCCC"/>
<path d="M355.977 266.954C357.177 266.954 358.115 267.381 358.791 268.239C359.598 269.253 360 270.935 360 273.285C360 275.631 359.594 277.313 358.783 278.34C358.111 279.185 357.177 279.607 355.977 279.607C354.772 279.607 353.8 279.143 353.06 278.217C352.321 277.291 351.953 275.639 351.953 273.26C351.953 270.927 352.359 269.249 353.17 268.222C353.842 267.377 354.776 266.954 355.977 266.954ZM355.977 268.924C355.689 268.924 355.431 269.017 355.207 269.198C354.983 269.38 354.806 269.71 354.683 270.183C354.518 270.796 354.438 271.831 354.438 273.285C354.438 274.739 354.51 275.736 354.658 276.281C354.806 276.827 354.988 277.186 355.212 277.368C355.436 277.549 355.689 277.638 355.977 277.638C356.264 277.638 356.522 277.545 356.746 277.363C356.97 277.182 357.147 276.852 357.27 276.379C357.435 275.77 357.515 274.739 357.515 273.285C357.515 271.831 357.443 270.834 357.295 270.289C357.147 269.743 356.965 269.38 356.741 269.198C356.517 269.017 356.264 268.924 355.977 268.924Z" fill="#CCCCCC"/>
<path d="M325.719 61.9971V64.2623" stroke="#CCCCCC" stroke-width="0.540958" stroke-miterlimit="3.25"/>
<path d="M338.527 61.9971V64.2623" stroke="#CCCCCC" stroke-width="0.540958" stroke-miterlimit="3.25"/>
<path d="M351.338 61.9971V65.7753" stroke="#CCCCCC" stroke-width="0.540958" stroke-miterlimit="3.25"/>
<path d="M351.339 259.92H347.561" stroke="#CCCCCC" stroke-width="0.540958" stroke-miterlimit="3.25"/>
<path d="M351.338 254.266H349.072" stroke="#CCCCCC" stroke-width="0.540958" stroke-miterlimit="3.25"/>
<path d="M351.338 248.611H349.072" stroke="#CCCCCC" stroke-width="0.540958" stroke-miterlimit="3.25"/>
<path d="M351.338 242.957H349.072" stroke="#CCCCCC" stroke-width="0.540958" stroke-miterlimit="3.25"/>
<path d="M351.338 237.302H349.072" stroke="#CCCCCC" stroke-width="0.540958" stroke-miterlimit="3.25"/>
<path d="M351.339 231.646H347.561" stroke="#CCCCCC" stroke-width="0.540958" stroke-miterlimit="3.25"/>
<path d="M351.338 225.992H349.072" stroke="#CCCCCC" stroke-width="0.540958" stroke-miterlimit="3.25"/>
<path d="M351.338 220.338H349.072" stroke="#CCCCCC" stroke-width="0.540958" stroke-miterlimit="3.25"/>
<path d="M351.338 214.683H349.072" stroke="#CCCCCC" stroke-width="0.540958" stroke-miterlimit="3.25"/>
<path d="M351.338 209.028H349.072" stroke="#CCCCCC" stroke-width="0.540958" stroke-miterlimit="3.25"/>
<path d="M351.339 203.374H347.561" stroke="#CCCCCC" stroke-width="0.540958" stroke-miterlimit="3.25"/>
<path d="M351.338 197.714H349.072" stroke="#CCCCCC" stroke-width="0.540958" stroke-miterlimit="3.25"/>
<path d="M351.338 192.06H349.072" stroke="#CCCCCC" stroke-width="0.540958" stroke-miterlimit="3.25"/>
<path d="M351.338 186.405H349.072" stroke="#CCCCCC" stroke-width="0.540958" stroke-miterlimit="3.25"/>
<path d="M351.338 180.75H349.072" stroke="#CCCCCC" stroke-width="0.540958" stroke-miterlimit="3.25"/>
<path d="M351.339 175.096H347.561" stroke="#CCCCCC" stroke-width="0.540958" stroke-miterlimit="3.25"/>
<path d="M351.338 169.441H349.072" stroke="#CCCCCC" stroke-width="0.540958" stroke-miterlimit="3.25"/>
<path d="M351.338 163.787H349.072" stroke="#CCCCCC" stroke-width="0.540958" stroke-miterlimit="3.25"/>
<path d="M351.338 158.132H349.072" stroke="#CCCCCC" stroke-width="0.540958" stroke-miterlimit="3.25"/>
<path d="M351.338 152.478H349.072" stroke="#CCCCCC" stroke-width="0.540958" stroke-miterlimit="3.25"/>
<path d="M351.339 146.823H347.561" stroke="#CCCCCC" stroke-width="0.540958" stroke-miterlimit="3.25"/>
<path d="M351.338 141.167H349.072" stroke="#CCCCCC" stroke-width="0.540958" stroke-miterlimit="3.25"/>
<path d="M351.338 135.513H349.072" stroke="#CCCCCC" stroke-width="0.540958" stroke-miterlimit="3.25"/>
<path d="M351.338 129.858H349.072" stroke="#CCCCCC" stroke-width="0.540958" stroke-miterlimit="3.25"/>
<path d="M351.338 124.203H349.072" stroke="#CCCCCC" stroke-width="0.540958" stroke-miterlimit="3.25"/>
<path d="M351.339 118.549H347.561" stroke="#CCCCCC" stroke-width="0.540958" stroke-miterlimit="3.25"/>
<path d="M351.338 112.895H349.072" stroke="#CCCCCC" stroke-width="0.540958" stroke-miterlimit="3.25"/>
<path d="M351.338 107.234H349.072" stroke="#CCCCCC" stroke-width="0.540958" stroke-miterlimit="3.25"/>
<path d="M351.338 101.579H349.072" stroke="#CCCCCC" stroke-width="0.540958" stroke-miterlimit="3.25"/>
<path d="M351.338 95.9248H349.072" stroke="#CCCCCC" stroke-width="0.540958" stroke-miterlimit="3.25"/>
<path d="M351.339 90.2715H347.561" stroke="#CCCCCC" stroke-width="0.540958" stroke-miterlimit="3.25"/>
<path d="M351.338 84.6162H349.072" stroke="#CCCCCC" stroke-width="0.540958" stroke-miterlimit="3.25"/>
<path d="M351.338 78.9619H349.072" stroke="#CCCCCC" stroke-width="0.540958" stroke-miterlimit="3.25"/>
<path d="M351.338 73.3066H349.072" stroke="#CCCCCC" stroke-width="0.540958" stroke-miterlimit="3.25"/>
<path d="M351.338 67.6514H349.072" stroke="#CCCCCC" stroke-width="0.540958" stroke-miterlimit="3.25"/>
<path d="M351.339 61.9971H347.561" stroke="#CCCCCC" stroke-width="0.540958" stroke-miterlimit="3.25"/>
<mask id="mask0_11278_204063" style="mask-type:luminance" maskUnits="userSpaceOnUse" x="26" y="58" width="332" height="28">
<path d="M26.9375 58.7871H357.045V85.6252H26.9375V58.7871Z" fill="white"/>
</mask>
<g mask="url(#mask0_11278_204063)">
<path d="M13.8301 63.7287L40.2241 58.874H436.138L541.714 74.7618" stroke="#5E81B5" stroke-width="2.22925" stroke-miterlimit="3.25" stroke-linecap="square"/>
</g>
<mask id="mask1_11278_204063" style="mask-type:luminance" maskUnits="userSpaceOnUse" x="26" y="58" width="332" height="19">
<path d="M26.9375 58.7871H357.045V76.7082H26.9375V58.7871Z" fill="white"/>
</mask>
<g mask="url(#mask1_11278_204063)">
<path d="M13.8301 66.1583L40.2241 58.874H198.588L224.982 61.7869L251.38 58.874H304.168L330.562 59.9146L356.956 58.874H541.714" stroke="#8778B3" stroke-width="2.22925" stroke-miterlimit="3.25" stroke-linecap="square"/>
</g>
<mask id="mask2_11278_204063" style="mask-type:luminance" maskUnits="userSpaceOnUse" x="26" y="58" width="332" height="29">
<path d="M26.9375 58.7871H357.045V86.7398H26.9375V58.7871Z" fill="white"/>
</mask>
<g mask="url(#mask2_11278_204063)">
<path d="M13.8301 58.874H330.562L436.138 67.1989L541.714 75.8111" stroke="#88A731" stroke-width="2.22925" stroke-miterlimit="3.25" stroke-linecap="square"/>
</g>
<mask id="mask3_11278_204063" style="mask-type:luminance" maskUnits="userSpaceOnUse" x="26" y="58" width="332" height="122">
<path d="M26.9375 58.7871H357.045V179.254H26.9375V58.7871Z" fill="white"/>
</mask>
<g mask="url(#mask3_11278_204063)">
<path d="M13.8301 68.5835L40.2241 58.874H93.012L119.406 68.209L145.8 58.874L172.194 69.7982L198.588 58.874L224.982 67.6125L330.562 60.9552L436.138 84.7673L541.714 168.112" stroke="#EB6235" stroke-width="2.22925" stroke-miterlimit="3.25" stroke-linecap="square"/>
</g>
<path d="M151.865 176.432H182.84V161.768H151.865V176.432Z" fill="#FF5454" fill-opacity="0.0800031"/>
<path d="M152.531 175.762H182.169V162.435H152.531V175.762Z" stroke="#E19C24" stroke-width="1.11463" stroke-miterlimit="10" stroke-linecap="square"/>
<mask id="mask4_11278_204063" style="mask-type:luminance" maskUnits="userSpaceOnUse" x="26" y="232" width="332" height="3">
<path d="M26.9375 232.755H357.045V234.984H26.9375V232.755Z" fill="white"/>
</mask>
<g mask="url(#mask4_11278_204063)">
<path d="M758.311 233.651H-38.9551" stroke="#808080" stroke-width="1.11463" stroke-miterlimit="3.25" stroke-dasharray="3.3 3.3"/>
<path d="M758.311 233.651H-38.9551" stroke="#808080" stroke-width="1.11463" stroke-miterlimit="3.25" stroke-dasharray="3.3 3.3"/>
</g>
<mask id="mask5_11278_204063" style="mask-type:luminance" maskUnits="userSpaceOnUse" x="26" y="174" width="332" height="4">
<path d="M26.9375 174.795H357.045V177.024H26.9375V174.795Z" fill="white"/>
</mask>
<g mask="url(#mask5_11278_204063)">
<path d="M758.311 175.391H-38.9551" stroke="#808080" stroke-width="1.11463" stroke-miterlimit="3.25" stroke-dasharray="3.3 3.3"/>
<path d="M758.311 175.391H-38.9551" stroke="#808080" stroke-width="1.11463" stroke-miterlimit="3.25" stroke-dasharray="3.3 3.3"/>
</g>
<mask id="mask6_11278_204063" style="mask-type:luminance" maskUnits="userSpaceOnUse" x="26" y="203" width="332" height="4">
<path d="M26.9375 203.775H357.045V206.005H26.9375V203.775Z" fill="white"/>
</mask>
<g mask="url(#mask6_11278_204063)">
<path d="M758.311 204.524H-38.9551" stroke="#8778B3" stroke-width="1.11463" stroke-miterlimit="3.25" stroke-dasharray="3.3 3.3"/>
<path d="M758.311 204.524H-38.9551" stroke="#8778B3" stroke-width="1.11463" stroke-miterlimit="3.25" stroke-dasharray="3.3 3.3"/>
</g>
<path d="M356.956 262.78H27.0273" stroke="#CCCCCC" stroke-width="0.557313" stroke-miterlimit="3.25" stroke-linecap="square"/>
<path d="M27.0273 262.78V58.873" stroke="#CCCCCC" stroke-width="0.557313" stroke-miterlimit="3.25" stroke-linecap="square"/>
<path d="M27.0273 58.873H356.956" stroke="#CCCCCC" stroke-width="0.557313" stroke-miterlimit="3.25" stroke-linecap="square"/>
<path d="M356.959 58.873V262.78" stroke="#CCCCCC" stroke-width="0.557313" stroke-miterlimit="3.25" stroke-linecap="square"/>
<path d="M27.0273 262.781V258.893" stroke="#CCCCCC" stroke-width="0.557313" stroke-miterlimit="3.25"/>
<path d="M22.8066 279.561L25.2449 279.308C25.3145 279.861 25.5192 280.297 25.8632 280.619C26.2071 280.941 26.599 281.102 27.0474 281.102C27.5569 281.102 27.9923 280.893 28.3449 280.48C28.6976 280.066 28.8761 279.439 28.8761 278.603C28.8761 277.819 28.702 277.231 28.3493 276.84C27.9966 276.448 27.5394 276.252 26.9778 276.252C26.2768 276.252 25.6455 276.561 25.0881 277.184L23.1027 276.896L24.3567 270.252H30.8267V272.542H26.2115L25.8283 274.71C26.3726 274.436 26.9299 274.301 27.5003 274.301C28.5844 274.301 29.5075 274.697 30.2607 275.485C31.0139 276.274 31.3927 277.301 31.3927 278.559C31.3927 279.609 31.088 280.549 30.4784 281.372C29.6468 282.5 28.4973 283.061 27.0213 283.061C25.8414 283.061 24.8835 282.744 24.139 282.112C23.3944 281.481 22.9503 280.628 22.8066 279.561Z" fill="#CCCCCC"/>
<path d="M40.2246 262.78V260.446" stroke="#CCCCCC" stroke-width="0.557313" stroke-miterlimit="3.25"/>
<path d="M53.4219 262.78V260.446" stroke="#CCCCCC" stroke-width="0.557313" stroke-miterlimit="3.25"/>
<path d="M66.6211 262.78V260.446" stroke="#CCCCCC" stroke-width="0.557313" stroke-miterlimit="3.25"/>
<path d="M79.8164 262.78V260.446" stroke="#CCCCCC" stroke-width="0.557313" stroke-miterlimit="3.25"/>
<path d="M93.0137 262.781V258.893" stroke="#CCCCCC" stroke-width="0.557313" stroke-miterlimit="3.25"/>
<path d="M90.0005 282.845H87.5536V273.623C86.661 274.459 85.6073 275.077 84.3926 275.478V273.257C85.0326 273.048 85.7249 272.652 86.4738 272.068C87.2227 271.485 87.7365 270.806 88.0151 270.026H90.0005V282.845Z" fill="#CCCCCC"/>
<path d="M97.7935 270.026C99.03 270.026 99.9966 270.466 100.693 271.35C101.525 272.395 101.938 274.128 101.938 276.549C101.938 278.965 101.52 280.698 100.685 281.756C99.9922 282.627 99.03 283.062 97.7935 283.062C96.5526 283.062 95.5511 282.583 94.7892 281.63C94.0272 280.676 93.6484 278.974 93.6484 276.523C93.6484 274.119 94.0664 272.391 94.9024 271.333C95.5947 270.462 96.5569 270.026 97.7935 270.026ZM97.7935 272.055C97.4974 272.055 97.2318 272.151 97.001 272.338C96.7703 272.526 96.5874 272.865 96.4611 273.353C96.2913 273.984 96.2086 275.051 96.2086 276.549C96.2086 278.046 96.2826 279.074 96.435 279.636C96.5874 280.197 96.7746 280.567 97.0054 280.755C97.2361 280.942 97.4974 281.033 97.7935 281.033C98.0895 281.033 98.3551 280.938 98.5859 280.75C98.8166 280.563 98.9995 280.223 99.1258 279.736C99.2956 279.109 99.3783 278.046 99.3783 276.549C99.3783 275.051 99.3043 274.023 99.1519 273.462C98.9995 272.9 98.8123 272.526 98.5815 272.338C98.3508 272.151 98.0895 272.055 97.7935 272.055Z" fill="#CCCCCC"/>
<path d="M106.211 262.78V260.446" stroke="#CCCCCC" stroke-width="0.557313" stroke-miterlimit="3.25"/>
<path d="M119.406 262.78V260.446" stroke="#CCCCCC" stroke-width="0.557313" stroke-miterlimit="3.25"/>
<path d="M132.604 262.78V260.446" stroke="#CCCCCC" stroke-width="0.557313" stroke-miterlimit="3.25"/>
<path d="M145.803 262.78V260.446" stroke="#CCCCCC" stroke-width="0.557313" stroke-miterlimit="3.25"/>
<path d="M158.998 262.781V258.893" stroke="#CCCCCC" stroke-width="0.557313" stroke-miterlimit="3.25"/>
<path d="M155.985 282.845H153.538V273.623C152.645 274.459 151.592 275.077 150.377 275.478V273.257C151.017 273.048 151.709 272.652 152.458 272.068C153.207 271.485 153.721 270.806 153.999 270.026H155.985V282.845Z" fill="#CCCCCC"/>
<path d="M159.678 279.56L162.116 279.307C162.186 279.86 162.39 280.296 162.734 280.618C163.078 280.94 163.47 281.101 163.919 281.101C164.428 281.101 164.863 280.892 165.216 280.479C165.569 280.065 165.747 279.438 165.747 278.602C165.747 277.818 165.573 277.23 165.22 276.839C164.868 276.447 164.411 276.251 163.849 276.251C163.148 276.251 162.517 276.56 161.959 277.183L159.974 276.895L161.228 270.251H167.698V272.541H163.083L162.699 274.709C163.244 274.435 163.801 274.3 164.371 274.3C165.455 274.3 166.379 274.696 167.132 275.484C167.885 276.273 168.264 277.3 168.264 278.558C168.264 279.608 167.959 280.548 167.349 281.371C166.518 282.499 165.368 283.06 163.892 283.06C162.712 283.06 161.755 282.743 161.01 282.111C160.266 281.48 159.821 280.627 159.678 279.56Z" fill="#CCCCCC"/>
<path d="M172.195 262.78V260.446" stroke="#CCCCCC" stroke-width="0.557313" stroke-miterlimit="3.25"/>
<path d="M185.393 262.78V260.446" stroke="#CCCCCC" stroke-width="0.557313" stroke-miterlimit="3.25"/>
<path d="M198.588 262.78V260.446" stroke="#CCCCCC" stroke-width="0.557313" stroke-miterlimit="3.25"/>
<path d="M211.787 262.78V260.446" stroke="#CCCCCC" stroke-width="0.557313" stroke-miterlimit="3.25"/>
<path d="M224.984 262.781V258.893" stroke="#CCCCCC" stroke-width="0.557313" stroke-miterlimit="3.25"/>
<path d="M223.978 280.572V282.845H215.4C215.492 281.987 215.77 281.173 216.236 280.402C216.702 279.631 217.617 278.612 218.988 277.341C220.09 276.314 220.769 275.617 221.017 275.251C221.352 274.746 221.522 274.245 221.522 273.753C221.522 273.209 221.374 272.787 221.082 272.495C220.791 272.203 220.386 272.055 219.868 272.055C219.358 272.055 218.949 272.208 218.648 272.517C218.348 272.826 218.174 273.335 218.126 274.049L215.688 273.806C215.831 272.46 216.289 271.494 217.055 270.906C217.821 270.318 218.779 270.026 219.929 270.026C221.187 270.026 222.18 270.366 222.898 271.045C223.616 271.724 223.978 272.569 223.978 273.579C223.978 274.154 223.873 274.703 223.669 275.221C223.464 275.739 223.137 276.283 222.689 276.853C222.393 277.232 221.857 277.772 221.087 278.482C220.316 279.192 219.824 279.662 219.619 279.893C219.415 280.123 219.245 280.35 219.119 280.572H223.978Z" fill="#CCCCCC"/>
<path d="M229.768 270.026C231.005 270.026 231.971 270.466 232.668 271.35C233.499 272.395 233.913 274.128 233.913 276.549C233.913 278.965 233.495 280.698 232.659 281.756C231.967 282.627 231.005 283.062 229.768 283.062C228.527 283.062 227.526 282.583 226.764 281.63C226.002 280.676 225.623 278.974 225.623 276.523C225.623 274.119 226.041 272.391 226.877 271.333C227.569 270.462 228.532 270.026 229.768 270.026ZM229.768 272.055C229.472 272.055 229.206 272.151 228.976 272.338C228.745 272.526 228.562 272.865 228.436 273.353C228.266 273.984 228.183 275.051 228.183 276.549C228.183 278.046 228.257 279.074 228.41 279.636C228.562 280.197 228.749 280.567 228.98 280.755C229.211 280.942 229.472 281.033 229.768 281.033C230.064 281.033 230.33 280.938 230.56 280.75C230.791 280.563 230.974 280.223 231.1 279.736C231.27 279.109 231.353 278.046 231.353 276.549C231.353 275.051 231.279 274.023 231.127 273.462C230.974 272.9 230.787 272.526 230.556 272.338C230.325 272.151 230.064 272.055 229.768 272.055Z" fill="#CCCCCC"/>
<path d="M238.18 262.78V260.446" stroke="#CCCCCC" stroke-width="0.557313" stroke-miterlimit="3.25"/>
<path d="M251.383 262.78V260.446" stroke="#CCCCCC" stroke-width="0.557313" stroke-miterlimit="3.25"/>
<path d="M264.578 262.78V260.446" stroke="#CCCCCC" stroke-width="0.557313" stroke-miterlimit="3.25"/>
<path d="M277.777 262.78V260.446" stroke="#CCCCCC" stroke-width="0.557313" stroke-miterlimit="3.25"/>
<path d="M290.973 262.781V258.893" stroke="#CCCCCC" stroke-width="0.557313" stroke-miterlimit="3.25"/>
<path d="M289.96 280.572V282.845H281.383C281.474 281.987 281.753 281.173 282.219 280.402C282.685 279.631 283.599 278.612 284.971 277.341C286.072 276.314 286.751 275.617 286.999 275.251C287.335 274.746 287.505 274.245 287.505 273.753C287.505 273.209 287.357 272.787 287.065 272.495C286.773 272.203 286.368 272.055 285.85 272.055C285.341 272.055 284.931 272.208 284.631 272.517C284.33 272.826 284.156 273.335 284.108 274.049L281.67 273.806C281.814 272.46 282.271 271.494 283.037 270.906C283.804 270.318 284.762 270.026 285.911 270.026C287.169 270.026 288.162 270.366 288.88 271.045C289.599 271.724 289.96 272.569 289.96 273.579C289.96 274.154 289.856 274.703 289.651 275.221C289.446 275.739 289.12 276.283 288.671 276.853C288.375 277.232 287.84 277.772 287.069 278.482C286.298 279.192 285.806 279.662 285.602 279.893C285.397 280.123 285.227 280.35 285.101 280.572H289.96Z" fill="#CCCCCC"/>
<path d="M291.648 279.56L294.087 279.307C294.156 279.86 294.361 280.296 294.705 280.618C295.049 280.94 295.441 281.101 295.889 281.101C296.399 281.101 296.834 280.892 297.187 280.479C297.539 280.065 297.718 279.438 297.718 278.602C297.718 277.818 297.544 277.23 297.191 276.839C296.838 276.447 296.381 276.251 295.82 276.251C295.119 276.251 294.487 276.56 293.93 277.183L291.945 276.895L293.198 270.251H299.669V272.541H295.053L294.67 274.709C295.214 274.435 295.772 274.3 296.342 274.3C297.426 274.3 298.349 274.696 299.102 275.484C299.856 276.273 300.235 277.3 300.235 278.558C300.235 279.608 299.93 280.548 299.32 281.371C298.489 282.499 297.339 283.06 295.863 283.06C294.683 283.06 293.725 282.743 292.981 282.111C292.236 281.48 291.792 280.627 291.648 279.56Z" fill="#CCCCCC"/>
<path d="M304.17 262.78V260.446" stroke="#CCCCCC" stroke-width="0.557313" stroke-miterlimit="3.25"/>
<path d="M317.369 262.78V260.446" stroke="#CCCCCC" stroke-width="0.557313" stroke-miterlimit="3.25"/>
<path d="M330.564 262.78V260.446" stroke="#CCCCCC" stroke-width="0.557313" stroke-miterlimit="3.25"/>
<path d="M343.76 262.78V260.446" stroke="#CCCCCC" stroke-width="0.557313" stroke-miterlimit="3.25"/>
<path d="M356.959 262.781V258.893" stroke="#CCCCCC" stroke-width="0.557313" stroke-miterlimit="3.25"/>
<path d="M347.598 279.457L349.966 279.17C350.04 279.775 350.245 280.237 350.576 280.554C350.907 280.872 351.307 281.033 351.778 281.033C352.283 281.033 352.709 280.842 353.053 280.459C353.397 280.075 353.571 279.557 353.571 278.909C353.571 278.295 353.406 277.807 353.075 277.446C352.744 277.084 352.339 276.906 351.865 276.906C351.551 276.906 351.177 276.967 350.741 277.089L351.011 275.094C351.673 275.112 352.178 274.968 352.526 274.663C352.875 274.359 353.049 273.954 353.049 273.449C353.049 273.018 352.923 272.678 352.666 272.421C352.409 272.164 352.069 272.038 351.647 272.038C351.229 272.038 350.872 272.182 350.576 272.473C350.28 272.765 350.101 273.187 350.036 273.745L347.781 273.362C347.937 272.591 348.172 271.973 348.49 271.511C348.808 271.05 349.248 270.688 349.814 270.423C350.38 270.157 351.016 270.026 351.717 270.026C352.918 270.026 353.88 270.41 354.608 271.176C355.204 271.803 355.505 272.513 355.505 273.301C355.505 274.42 354.891 275.316 353.667 275.983C354.399 276.139 354.982 276.492 355.422 277.036C355.862 277.581 356.079 278.242 356.079 279.013C356.079 280.132 355.67 281.09 354.851 281.878C354.033 282.666 353.014 283.062 351.795 283.062C350.641 283.062 349.683 282.731 348.921 282.065C348.159 281.399 347.72 280.533 347.598 279.457Z" fill="#CCCCCC"/>
<path d="M361.737 270.026C362.973 270.026 363.94 270.466 364.637 271.35C365.468 272.395 365.882 274.128 365.882 276.549C365.882 278.965 365.464 280.698 364.628 281.756C363.936 282.627 362.973 283.062 361.737 283.062C360.496 283.062 359.494 282.583 358.733 281.63C357.971 280.676 357.592 278.974 357.592 276.523C357.592 274.119 358.01 272.391 358.846 271.333C359.538 270.462 360.5 270.026 361.737 270.026ZM361.737 272.055C361.441 272.055 361.175 272.151 360.944 272.338C360.714 272.526 360.531 272.865 360.404 273.353C360.235 273.984 360.152 275.051 360.152 276.549C360.152 278.046 360.226 279.074 360.378 279.636C360.531 280.197 360.718 280.567 360.949 280.755C361.179 280.942 361.441 281.033 361.737 281.033C362.033 281.033 362.298 280.938 362.529 280.75C362.76 280.563 362.943 280.223 363.069 279.736C363.239 279.109 363.322 278.046 363.322 276.549C363.322 275.051 363.248 274.023 363.095 273.462C362.943 272.9 362.756 272.526 362.525 272.338C362.294 272.151 362.033 272.055 361.737 272.055Z" fill="#CCCCCC"/>
<path d="M27.0273 262.78H30.9155" stroke="#CCCCCC" stroke-width="0.557313" stroke-miterlimit="3.25"/>
<path d="M4.29102 266.081L6.65959 265.794C6.73361 266.399 6.93825 266.861 7.26916 267.178C7.60006 267.496 8.00063 267.657 8.47086 267.657C8.97593 267.657 9.40262 267.466 9.74659 267.083C10.0906 266.699 10.2647 266.181 10.2647 265.533C10.2647 264.919 10.0993 264.431 9.76835 264.07C9.43745 263.708 9.03253 263.53 8.55794 263.53C8.24445 263.53 7.87001 263.591 7.43461 263.713L7.70456 261.718C8.36636 261.736 8.87143 261.592 9.21975 261.287C9.56807 260.983 9.74223 260.578 9.74223 260.073C9.74223 259.642 9.61596 259.302 9.35908 259.045C9.10219 258.788 8.76258 258.662 8.34024 258.662C7.92226 258.662 7.56523 258.806 7.26916 259.097C6.97308 259.389 6.79457 259.811 6.72926 260.369L4.47388 259.986C4.63063 259.215 4.86575 258.597 5.18359 258.135C5.50143 257.674 5.94118 257.312 6.50721 257.047C7.07323 256.781 7.70891 256.65 8.40991 256.65C9.61161 256.65 10.5738 257.034 11.301 257.8C11.8975 258.427 12.1979 259.137 12.1979 259.925C12.1979 261.044 11.584 261.941 10.3605 262.607C11.092 262.763 11.6754 263.116 12.1152 263.66C12.5549 264.205 12.7726 264.866 12.7726 265.637C12.7726 266.756 12.3633 267.714 11.5448 268.502C10.7262 269.29 9.7074 269.686 8.48828 269.686C7.33447 269.686 6.37658 269.355 5.61463 268.689C4.85268 268.023 4.41293 267.157 4.29102 266.081Z" fill="#CCCCCC"/>
<path d="M18.4341 256.65C19.6706 256.65 20.6372 257.09 21.3338 257.974C22.1655 259.019 22.5791 260.752 22.5791 263.173C22.5791 265.589 22.1611 267.322 21.3251 268.38C20.6328 269.251 19.6706 269.686 18.4341 269.686C17.1932 269.686 16.1918 269.207 15.4298 268.254C14.6679 267.3 14.2891 265.598 14.2891 263.147C14.2891 260.743 14.707 259.015 15.543 257.957C16.2353 257.086 17.1975 256.65 18.4341 256.65ZM18.4341 258.679C18.138 258.679 17.8724 258.775 17.6416 258.962C17.4109 259.15 17.228 259.489 17.1017 259.977C16.9319 260.608 16.8492 261.675 16.8492 263.173C16.8492 264.67 16.9232 265.698 17.0756 266.26C17.228 266.821 17.4152 267.191 17.646 267.379C17.8768 267.566 18.138 267.657 18.4341 267.657C18.7301 267.657 18.9957 267.562 19.2265 267.374C19.4573 267.187 19.6401 266.847 19.7664 266.36C19.9362 265.733 20.0189 264.67 20.0189 263.173C20.0189 261.675 19.9449 260.647 19.7925 260.086C19.6401 259.524 19.4529 259.15 19.2221 258.962C18.9914 258.775 18.7301 258.679 18.4341 258.679Z" fill="#CCCCCC"/>
<path d="M27.0273 256.954H29.3611" stroke="#CCCCCC" stroke-width="0.557313" stroke-miterlimit="3.25"/>
<path d="M27.0273 251.129H29.3611" stroke="#CCCCCC" stroke-width="0.557313" stroke-miterlimit="3.25"/>
<path d="M27.0273 245.304H29.3611" stroke="#CCCCCC" stroke-width="0.557313" stroke-miterlimit="3.25"/>
<path d="M27.0273 239.478H29.3611" stroke="#CCCCCC" stroke-width="0.557313" stroke-miterlimit="3.25"/>
<path d="M27.0273 233.651H30.9155" stroke="#CCCCCC" stroke-width="0.557313" stroke-miterlimit="3.25"/>
<path d="M9.17598 240.339V237.77H3.95117V235.628L9.48947 227.521H11.5446V235.619H13.1294V237.77H11.5446V240.339H9.17598ZM9.17598 235.619V231.256L6.24138 235.619H9.17598Z" fill="#CCCCCC"/>
<path d="M18.4341 227.521C19.6706 227.521 20.6372 227.96 21.3338 228.844C22.1655 229.889 22.5791 231.622 22.5791 234.043C22.5791 236.459 22.1611 238.192 21.3251 239.25C20.6328 240.121 19.6706 240.556 18.4341 240.556C17.1932 240.556 16.1918 240.077 15.4298 239.124C14.6679 238.17 14.2891 236.468 14.2891 234.017C14.2891 231.613 14.707 229.885 15.543 228.827C16.2353 227.956 17.1975 227.521 18.4341 227.521ZM18.4341 229.549C18.138 229.549 17.8724 229.645 17.6416 229.832C17.4109 230.02 17.228 230.359 17.1017 230.847C16.9319 231.478 16.8492 232.545 16.8492 234.043C16.8492 235.541 16.9232 236.568 17.0756 237.13C17.228 237.691 17.4152 238.062 17.646 238.249C17.8768 238.436 18.138 238.527 18.4341 238.527C18.7301 238.527 18.9957 238.432 19.2265 238.244C19.4573 238.057 19.6401 237.718 19.7664 237.23C19.9362 236.603 20.0189 235.541 20.0189 234.043C20.0189 232.545 19.9449 231.517 19.7925 230.956C19.6401 230.394 19.4529 230.02 19.2221 229.832C18.9914 229.645 18.7301 229.549 18.4341 229.549Z" fill="#CCCCCC"/>
<path d="M27.0273 227.826H29.3611" stroke="#CCCCCC" stroke-width="0.557313" stroke-miterlimit="3.25"/>
<path d="M27.0273 222.001H29.3611" stroke="#CCCCCC" stroke-width="0.557313" stroke-miterlimit="3.25"/>
<path d="M27.0273 216.175H29.3611" stroke="#CCCCCC" stroke-width="0.557313" stroke-miterlimit="3.25"/>
<path d="M27.0273 210.35H29.3611" stroke="#CCCCCC" stroke-width="0.557313" stroke-miterlimit="3.25"/>
<path d="M27.0273 204.524H30.9155" stroke="#CCCCCC" stroke-width="0.557313" stroke-miterlimit="3.25"/>
<path d="M4.41406 207.926L6.85231 207.674C6.92197 208.226 7.12661 208.662 7.47057 208.984C7.81454 209.306 8.2064 209.467 8.65486 209.467C9.16428 209.467 9.59968 209.258 9.95236 208.845C10.305 208.431 10.4835 207.804 10.4835 206.968C10.4835 206.184 10.3094 205.597 9.95671 205.205C9.60404 204.813 9.14686 204.617 8.5852 204.617C7.8842 204.617 7.25287 204.926 6.69556 205.549L4.71013 205.261L5.96409 198.617H12.4341V200.907H7.81889L7.43574 203.076C7.97999 202.801 8.5373 202.666 9.10768 202.666C10.1918 202.666 11.1149 203.063 11.8681 203.851C12.6214 204.639 13.0002 205.666 13.0002 206.925C13.0002 207.974 12.6954 208.914 12.0858 209.737C11.2542 210.865 10.1047 211.427 8.62874 211.427C7.4488 211.427 6.49092 211.109 5.74639 210.477C5.00185 209.846 4.55774 208.993 4.41406 207.926Z" fill="#CCCCCC"/>
<path d="M18.4341 198.391C19.6706 198.391 20.6372 198.83 21.3338 199.714C22.1655 200.759 22.5791 202.492 22.5791 204.913C22.5791 207.329 22.1611 209.062 21.3251 210.12C20.6328 210.991 19.6706 211.427 18.4341 211.427C17.1932 211.427 16.1918 210.948 15.4298 209.994C14.6679 209.041 14.2891 207.338 14.2891 204.887C14.2891 202.483 14.707 200.755 15.543 199.697C16.2353 198.826 17.1975 198.391 18.4341 198.391ZM18.4341 200.42C18.138 200.42 17.8724 200.515 17.6416 200.703C17.4109 200.89 17.228 201.229 17.1017 201.717C16.9319 202.348 16.8492 203.415 16.8492 204.913C16.8492 206.411 16.9232 207.438 17.0756 208C17.228 208.562 17.4152 208.932 17.646 209.119C17.8768 209.306 18.138 209.398 18.4341 209.398C18.7301 209.398 18.9957 209.302 19.2265 209.115C19.4573 208.927 19.6401 208.588 19.7664 208.1C19.9362 207.473 20.0189 206.411 20.0189 204.913C20.0189 203.415 19.9449 202.388 19.7925 201.826C19.6401 201.264 19.4529 200.89 19.2221 200.703C18.9914 200.515 18.7301 200.42 18.4341 200.42Z" fill="#CCCCCC"/>
<path d="M27.0273 198.693H29.3611" stroke="#CCCCCC" stroke-width="0.557313" stroke-miterlimit="3.25"/>
<path d="M27.0273 192.868H29.3611" stroke="#CCCCCC" stroke-width="0.557313" stroke-miterlimit="3.25"/>
<path d="M27.0273 187.043H29.3611" stroke="#CCCCCC" stroke-width="0.557313" stroke-miterlimit="3.25"/>
<path d="M27.0273 181.217H29.3611" stroke="#CCCCCC" stroke-width="0.557313" stroke-miterlimit="3.25"/>
<path d="M27.0273 175.391H30.9155" stroke="#CCCCCC" stroke-width="0.557313" stroke-miterlimit="3.25"/>
<path d="M12.6689 172.44L10.3004 172.701C10.2437 172.214 10.0914 171.852 9.84754 171.622C9.60371 171.391 9.28587 171.273 8.89836 171.273C8.38024 171.273 7.94484 171.504 7.58781 171.97C7.23078 172.436 7.00437 173.402 6.91294 174.87C7.5225 174.151 8.28009 173.79 9.18573 173.79C10.2089 173.79 11.0841 174.177 11.8112 174.957C12.5383 175.736 12.904 176.738 12.904 177.97C12.904 179.276 12.5209 180.325 11.7546 181.113C10.9883 181.901 10.0043 182.298 8.80258 182.298C7.51379 182.298 6.45577 181.797 5.62415 180.795C4.79254 179.794 4.37891 178.153 4.37891 175.871C4.37891 173.533 4.80995 171.844 5.6764 170.812C6.54285 169.78 7.66618 169.262 9.0464 169.262C10.0173 169.262 10.8185 169.532 11.4542 170.076C12.0898 170.62 12.4948 171.408 12.6689 172.44ZM7.12193 177.778C7.12193 178.575 7.3048 179.189 7.67053 179.62C8.03627 180.051 8.45425 180.269 8.92449 180.269C9.3773 180.269 9.7561 180.09 10.0565 179.737C10.357 179.385 10.5093 178.801 10.5093 177.996C10.5093 177.164 10.3482 176.559 10.0217 176.172C9.69515 175.784 9.29022 175.592 8.80258 175.592C8.33234 175.592 7.93613 175.775 7.60958 176.145C7.28303 176.515 7.12193 177.06 7.12193 177.778Z" fill="#CCCCCC"/>
<path d="M18.4321 169.262C19.6687 169.262 20.6352 169.701 21.3319 170.585C22.1635 171.63 22.5771 173.363 22.5771 175.784C22.5771 178.2 22.1592 179.933 21.3232 180.991C20.6309 181.862 19.6687 182.298 18.4321 182.298C17.1912 182.298 16.1898 181.819 15.4279 180.865C14.6659 179.912 14.2871 178.209 14.2871 175.758C14.2871 173.354 14.7051 171.626 15.5411 170.568C16.2333 169.697 17.1956 169.262 18.4321 169.262ZM18.4321 171.291C18.136 171.291 17.8705 171.386 17.6397 171.574C17.4089 171.761 17.2261 172.101 17.0998 172.588C16.93 173.22 16.8473 174.286 16.8473 175.784C16.8473 177.282 16.9213 178.309 17.0737 178.871C17.2261 179.433 17.4133 179.803 17.644 179.99C17.8748 180.177 18.136 180.269 18.4321 180.269C18.7282 180.269 18.9938 180.173 19.2246 179.986C19.4553 179.798 19.6382 179.459 19.7644 178.971C19.9343 178.344 20.017 177.282 20.017 175.784C20.017 174.286 19.943 173.259 19.7906 172.697C19.6382 172.135 19.451 171.761 19.2202 171.574C18.9894 171.386 18.7282 171.291 18.4321 171.291Z" fill="#CCCCCC"/>
<path d="M27.0273 169.565H29.3611" stroke="#CCCCCC" stroke-width="0.557313" stroke-miterlimit="3.25"/>
<path d="M27.0273 163.74H29.3611" stroke="#CCCCCC" stroke-width="0.557313" stroke-miterlimit="3.25"/>
<path d="M27.0273 157.914H29.3611" stroke="#CCCCCC" stroke-width="0.557313" stroke-miterlimit="3.25"/>
<path d="M27.0273 152.089H29.3611" stroke="#CCCCCC" stroke-width="0.557313" stroke-miterlimit="3.25"/>
<path d="M27.0273 146.264H30.9155" stroke="#CCCCCC" stroke-width="0.557313" stroke-miterlimit="3.25"/>
<path d="M4.37891 142.631V140.358H12.7473V142.135C12.055 142.814 11.354 143.789 10.64 145.061C9.92591 146.332 9.38166 147.682 9.00721 149.114C8.63277 150.547 8.4499 151.822 8.45425 152.95H6.09438C6.13357 151.187 6.49931 149.384 7.18724 147.551C7.87517 145.718 8.79387 144.077 9.94332 142.631H4.37891Z" fill="#CCCCCC"/>
<path d="M18.4321 140.132C19.6687 140.132 20.6352 140.572 21.3319 141.455C22.1635 142.5 22.5771 144.233 22.5771 146.654C22.5771 149.071 22.1592 150.804 21.3232 151.862C20.6309 152.732 19.6687 153.168 18.4321 153.168C17.1912 153.168 16.1898 152.689 15.4279 151.735C14.6659 150.782 14.2871 149.079 14.2871 146.628C14.2871 144.225 14.7051 142.496 15.5411 141.438C16.2333 140.567 17.1956 140.132 18.4321 140.132ZM18.4321 142.161C18.136 142.161 17.8705 142.257 17.6397 142.444C17.4089 142.631 17.2261 142.971 17.0998 143.458C16.93 144.09 16.8473 145.156 16.8473 146.654C16.8473 148.152 16.9213 149.179 17.0737 149.741C17.2261 150.303 17.4133 150.673 17.644 150.86C17.8748 151.047 18.136 151.139 18.4321 151.139C18.7282 151.139 18.9938 151.043 19.2246 150.856C19.4553 150.669 19.6382 150.329 19.7644 149.841C19.9343 149.214 20.017 148.152 20.017 146.654C20.017 145.156 19.943 144.129 19.7906 143.567C19.6382 143.005 19.451 142.631 19.2202 142.444C18.9894 142.257 18.7282 142.161 18.4321 142.161Z" fill="#CCCCCC"/>
<path d="M27.0273 140.437H29.3611" stroke="#CCCCCC" stroke-width="0.557313" stroke-miterlimit="3.25"/>
<path d="M27.0273 134.611H29.3611" stroke="#CCCCCC" stroke-width="0.557313" stroke-miterlimit="3.25"/>
<path d="M27.0273 128.786H29.3611" stroke="#CCCCCC" stroke-width="0.557313" stroke-miterlimit="3.25"/>
<path d="M27.0273 122.96H29.3611" stroke="#CCCCCC" stroke-width="0.557313" stroke-miterlimit="3.25"/>
<path d="M27.0273 117.135H30.9155" stroke="#CCCCCC" stroke-width="0.557313" stroke-miterlimit="3.25"/>
<path d="M6.47721 116.932C5.84588 116.667 5.38436 116.296 5.09699 115.831C4.80963 115.365 4.66595 114.851 4.66595 114.294C4.66595 113.34 4.99685 112.556 5.66301 111.934C6.32918 111.311 7.274 111.002 8.49747 111.002C9.71224 111.002 10.6527 111.311 11.3232 111.934C11.9937 112.556 12.329 113.34 12.329 114.294C12.329 114.886 12.1766 115.413 11.8675 115.874C11.5583 116.336 11.1273 116.688 10.57 116.932C11.2797 117.215 11.8152 117.633 12.1853 118.177C12.5554 118.722 12.7383 119.353 12.7383 120.067C12.7383 121.247 12.3638 122.205 11.6106 122.941C10.8573 123.676 9.86027 124.047 8.61067 124.047C7.44816 124.047 6.48157 123.742 5.71091 123.132C4.80092 122.414 4.34375 121.425 4.34375 120.171C4.34375 119.479 4.51356 118.848 4.85752 118.269C5.20149 117.69 5.74139 117.246 6.47721 116.932ZM6.98228 114.468C6.98228 114.955 7.1216 115.334 7.39591 115.608C7.67021 115.883 8.0403 116.018 8.49747 116.018C8.96335 116.018 9.33344 115.878 9.6121 115.604C9.89075 115.33 10.0301 114.947 10.0301 114.459C10.0301 114.002 9.89075 113.632 9.61645 113.357C9.34215 113.083 8.97641 112.944 8.5236 112.944C8.05336 112.944 7.67892 113.083 7.40026 113.362C7.1216 113.64 6.98228 114.011 6.98228 114.468ZM6.75587 119.936C6.75587 120.611 6.93003 121.134 7.274 121.513C7.61796 121.891 8.04901 122.079 8.56713 122.079C9.0722 122.079 9.49018 121.896 9.82109 121.534C10.152 121.173 10.3174 120.646 10.3174 119.962C10.3174 119.366 10.1476 118.883 9.81238 118.521C9.47712 118.16 9.05043 117.977 8.5323 117.977C7.9358 117.977 7.48734 118.182 7.19562 118.595C6.9039 119.009 6.75587 119.453 6.75587 119.936Z" fill="#CCCCCC"/>
<path d="M18.4341 111.002C19.6706 111.002 20.6372 111.442 21.3338 112.326C22.1655 113.371 22.5791 115.103 22.5791 117.524C22.5791 119.941 22.1611 121.674 21.3251 122.732C20.6328 123.602 19.6706 124.038 18.4341 124.038C17.1932 124.038 16.1918 123.559 15.4298 122.605C14.6679 121.652 14.2891 119.949 14.2891 117.498C14.2891 115.095 14.707 113.366 15.543 112.308C16.2353 111.437 17.1975 111.002 18.4341 111.002ZM18.4341 113.031C18.138 113.031 17.8724 113.127 17.6416 113.314C17.4109 113.501 17.228 113.841 17.1017 114.328C16.9319 114.96 16.8492 116.026 16.8492 117.524C16.8492 119.022 16.9232 120.05 17.0756 120.611C17.228 121.173 17.4152 121.543 17.646 121.73C17.8768 121.917 18.138 122.009 18.4341 122.009C18.7301 122.009 18.9957 121.913 19.2265 121.726C19.4573 121.539 19.6401 121.199 19.7664 120.711C19.9362 120.084 20.0189 119.022 20.0189 117.524C20.0189 116.026 19.9449 114.999 19.7925 114.437C19.6401 113.876 19.4529 113.501 19.2221 113.314C18.9914 113.127 18.7301 113.031 18.4341 113.031Z" fill="#CCCCCC"/>
<path d="M27.0273 111.31H29.3611" stroke="#CCCCCC" stroke-width="0.557313" stroke-miterlimit="3.25"/>
<path d="M27.0273 105.479H29.3611" stroke="#CCCCCC" stroke-width="0.557313" stroke-miterlimit="3.25"/>
<path d="M27.0273 99.6523H29.3611" stroke="#CCCCCC" stroke-width="0.557313" stroke-miterlimit="3.25"/>
<path d="M27.0273 93.8271H29.3611" stroke="#CCCCCC" stroke-width="0.557313" stroke-miterlimit="3.25"/>
<path d="M27.0273 88.002H30.9155" stroke="#CCCCCC" stroke-width="0.557313" stroke-miterlimit="3.25"/>
<path d="M4.43132 91.7392L6.7999 91.478C6.85651 91.9613 7.0089 92.3183 7.25272 92.5491C7.49654 92.7798 7.81874 92.8974 8.21931 92.8974C8.72437 92.8974 9.15542 92.6666 9.50809 92.2007C9.86077 91.7349 10.0872 90.7726 10.1873 89.3097C9.57341 90.0237 8.80275 90.3808 7.8797 90.3808C6.87392 90.3808 6.00747 89.9933 5.28036 89.2183C4.55324 88.4432 4.1875 87.4331 4.1875 86.1922C4.1875 84.8991 4.57065 83.8541 5.34131 83.0617C6.11197 82.2693 7.09162 81.873 8.28027 81.873C9.57341 81.873 10.6358 82.3738 11.4674 83.3752C12.299 84.3766 12.7126 86.0224 12.7126 88.317C12.7126 90.6507 12.2816 92.3357 11.4151 93.3676C10.5487 94.3995 9.42537 94.9176 8.03644 94.9176C7.03937 94.9176 6.22953 94.6521 5.61561 94.1209C5.0017 93.5897 4.60548 92.7972 4.43132 91.7392ZM9.96962 86.3925C9.96962 85.6044 9.78675 84.9905 9.42537 84.5551C9.06399 84.1197 8.64165 83.902 8.16706 83.902C7.71424 83.902 7.3398 84.0805 7.03937 84.4376C6.73895 84.7946 6.59091 85.378 6.59091 86.1922C6.59091 87.0151 6.75201 87.6203 7.07856 88.0078C7.40511 88.3953 7.81003 88.5869 8.29768 88.5869C8.76791 88.5869 9.16413 88.3997 9.48633 88.0296C9.80852 87.6595 9.96962 87.1109 9.96962 86.3925Z" fill="#CCCCCC"/>
<path d="M18.4341 81.873C19.6706 81.873 20.6372 82.3128 21.3338 83.1967C22.1655 84.2416 22.5791 85.9745 22.5791 88.3953C22.5791 90.8118 22.1611 92.5447 21.3251 93.6027C20.6328 94.4735 19.6706 94.9089 18.4341 94.9089C17.1932 94.9089 16.1918 94.43 15.4298 93.4765C14.6679 92.5229 14.2891 90.8205 14.2891 88.3692C14.2891 85.9658 14.707 84.2373 15.543 83.1792C16.2353 82.3084 17.1975 81.873 18.4341 81.873ZM18.4341 83.902C18.138 83.902 17.8724 83.9978 17.6416 84.185C17.4109 84.3722 17.228 84.7119 17.1017 85.1995C16.9319 85.8308 16.8492 86.8976 16.8492 88.3953C16.8492 89.8931 16.9232 90.9207 17.0756 91.4823C17.228 92.044 17.4152 92.4141 17.646 92.6013C17.8768 92.7885 18.138 92.88 18.4341 92.88C18.7301 92.88 18.9957 92.7842 19.2265 92.597C19.4573 92.4097 19.6401 92.0701 19.7664 91.5825C19.9362 90.9555 20.0189 89.8931 20.0189 88.3953C20.0189 86.8976 19.9449 85.87 19.7925 85.3084C19.6401 84.7467 19.4529 84.3722 19.2221 84.185C18.9914 83.9978 18.7301 83.902 18.4341 83.902Z" fill="#CCCCCC"/>
<path d="M27.0273 82.1758H29.3611" stroke="#CCCCCC" stroke-width="0.557313" stroke-miterlimit="3.25"/>
<path d="M27.0273 76.3506H29.3611" stroke="#CCCCCC" stroke-width="0.557313" stroke-miterlimit="3.25"/>
<path d="M27.0273 70.5244H29.3611" stroke="#CCCCCC" stroke-width="0.557313" stroke-miterlimit="3.25"/>
<path d="M27.0273 64.6982H29.3611" stroke="#CCCCCC" stroke-width="0.557313" stroke-miterlimit="3.25"/>
<path d="M27.0273 58.873H30.9155" stroke="#CCCCCC" stroke-width="0.557313" stroke-miterlimit="3.25"/>
<path d="M0.607958 65.5614H-1.83899V56.3396C-2.73156 57.1755 -3.78523 57.7938 -5 58.1944V55.9738C-4.35996 55.7648 -3.66767 55.3686 -2.91879 54.7852C-2.1699 54.2018 -1.65612 53.5225 -1.37747 52.7432H0.607958V65.5614Z" fill="#CCCCCC"/>
<path d="M8.39892 52.7432C9.63546 52.7432 10.602 53.1829 11.2987 54.0668C12.1303 55.1117 12.5439 56.8446 12.5439 59.2655C12.5439 61.6819 12.1259 63.4148 11.29 64.4729C10.5977 65.3437 9.63546 65.7791 8.39892 65.7791C7.15803 65.7791 6.15661 65.3001 5.39466 64.3466C4.63271 63.3931 4.25391 61.6906 4.25391 59.2393C4.25391 56.8359 4.67189 55.1074 5.50786 54.0494C6.20015 53.1786 7.16238 52.7432 8.39892 52.7432ZM8.39892 54.7721C8.10285 54.7721 7.83725 54.8679 7.60649 55.0551C7.37573 55.2424 7.19286 55.582 7.06659 56.0696C6.89679 56.701 6.81406 57.7677 6.81406 59.2655C6.81406 60.7632 6.88808 61.7908 7.04047 62.3525C7.19286 62.9141 7.38008 63.2842 7.61084 63.4714C7.84161 63.6587 8.10285 63.7501 8.39892 63.7501C8.69499 63.7501 8.96059 63.6543 9.19135 63.4671C9.42211 63.2799 9.60498 62.9402 9.73125 62.4526C9.90105 61.8256 9.98378 60.7632 9.98378 59.2655C9.98378 57.7677 9.90976 56.7401 9.75737 56.1785C9.60498 55.6168 9.41776 55.2424 9.18699 55.0551C8.95623 54.8679 8.69499 54.7721 8.39892 54.7721Z" fill="#CCCCCC"/>
<path d="M18.3188 52.7432C19.5554 52.7432 20.522 53.1829 21.2186 54.0668C22.0502 55.1117 22.4639 56.8446 22.4639 59.2655C22.4639 61.6819 22.0459 63.4148 21.2099 64.4729C20.5176 65.3437 19.5554 65.7791 18.3188 65.7791C17.0779 65.7791 16.0765 65.3001 15.3146 64.3466C14.5526 63.3931 14.1738 61.6906 14.1738 59.2393C14.1738 56.8359 14.5918 55.1074 15.4278 54.0494C16.1201 53.1786 17.0823 52.7432 18.3188 52.7432ZM18.3188 54.7721C18.0228 54.7721 17.7572 54.8679 17.5264 55.0551C17.2956 55.2424 17.1128 55.582 16.9865 56.0696C16.8167 56.701 16.734 57.7677 16.734 59.2655C16.734 60.7632 16.808 61.7908 16.9604 62.3525C17.1128 62.9141 17.3 63.2842 17.5308 63.4714C17.7615 63.6587 18.0228 63.7501 18.3188 63.7501C18.6149 63.7501 18.8805 63.6543 19.1113 63.4671C19.342 63.2799 19.5249 62.9402 19.6512 62.4526C19.821 61.8256 19.9037 60.7632 19.9037 59.2655C19.9037 57.7677 19.8297 56.7401 19.6773 56.1785C19.5249 55.6168 19.3377 55.2424 19.1069 55.0551C18.8762 54.8679 18.6149 54.7721 18.3188 54.7721Z" fill="#CCCCCC"/>
<path d="M27.0273 58.873V62.7655" stroke="#CCCCCC" stroke-width="0.557313" stroke-miterlimit="3.25"/>
<path d="M40.2246 58.873V61.2068" stroke="#CCCCCC" stroke-width="0.557313" stroke-miterlimit="3.25"/>
<path d="M53.4219 58.873V61.2068" stroke="#CCCCCC" stroke-width="0.557313" stroke-miterlimit="3.25"/>
<path d="M66.6211 58.873V61.2068" stroke="#CCCCCC" stroke-width="0.557313" stroke-miterlimit="3.25"/>
<path d="M79.8164 58.873V61.2068" stroke="#CCCCCC" stroke-width="0.557313" stroke-miterlimit="3.25"/>
<path d="M93.0137 58.873V62.7655" stroke="#CCCCCC" stroke-width="0.557313" stroke-miterlimit="3.25"/>
<path d="M106.211 58.873V61.2068" stroke="#CCCCCC" stroke-width="0.557313" stroke-miterlimit="3.25"/>
<path d="M119.406 58.873V61.2068" stroke="#CCCCCC" stroke-width="0.557313" stroke-miterlimit="3.25"/>
<path d="M132.604 58.873V61.2068" stroke="#CCCCCC" stroke-width="0.557313" stroke-miterlimit="3.25"/>
<path d="M145.803 58.873V61.2068" stroke="#CCCCCC" stroke-width="0.557313" stroke-miterlimit="3.25"/>
<path d="M158.998 58.873V62.7655" stroke="#CCCCCC" stroke-width="0.557313" stroke-miterlimit="3.25"/>
<path d="M172.195 58.873V61.2068" stroke="#CCCCCC" stroke-width="0.557313" stroke-miterlimit="3.25"/>
<path d="M185.393 58.873V61.2068" stroke="#CCCCCC" stroke-width="0.557313" stroke-miterlimit="3.25"/>
<path d="M198.588 58.873V61.2068" stroke="#CCCCCC" stroke-width="0.557313" stroke-miterlimit="3.25"/>
<path d="M211.787 58.873V61.2068" stroke="#CCCCCC" stroke-width="0.557313" stroke-miterlimit="3.25"/>
<path d="M224.984 58.873V62.7655" stroke="#CCCCCC" stroke-width="0.557313" stroke-miterlimit="3.25"/>
<path d="M238.18 58.873V61.2068" stroke="#CCCCCC" stroke-width="0.557313" stroke-miterlimit="3.25"/>
<path d="M251.383 58.873V61.2068" stroke="#CCCCCC" stroke-width="0.557313" stroke-miterlimit="3.25"/>
<path d="M264.578 58.873V61.2068" stroke="#CCCCCC" stroke-width="0.557313" stroke-miterlimit="3.25"/>
<path d="M277.777 58.873V61.2068" stroke="#CCCCCC" stroke-width="0.557313" stroke-miterlimit="3.25"/>
<path d="M290.973 58.873V62.7655" stroke="#CCCCCC" stroke-width="0.557313" stroke-miterlimit="3.25"/>
<path d="M304.17 58.873V61.2068" stroke="#CCCCCC" stroke-width="0.557313" stroke-miterlimit="3.25"/>
<path d="M317.369 58.873V61.2068" stroke="#CCCCCC" stroke-width="0.557313" stroke-miterlimit="3.25"/>
<path d="M330.564 58.873V61.2068" stroke="#CCCCCC" stroke-width="0.557313" stroke-miterlimit="3.25"/>
<path d="M343.76 58.873V61.2068" stroke="#CCCCCC" stroke-width="0.557313" stroke-miterlimit="3.25"/>
<path d="M356.959 58.873V62.7655" stroke="#CCCCCC" stroke-width="0.557313" stroke-miterlimit="3.25"/>
<path d="M356.959 262.78H353.066" stroke="#CCCCCC" stroke-width="0.557313" stroke-miterlimit="3.25"/>
<path d="M356.959 256.954H354.625" stroke="#CCCCCC" stroke-width="0.557313" stroke-miterlimit="3.25"/>
<path d="M356.959 251.129H354.625" stroke="#CCCCCC" stroke-width="0.557313" stroke-miterlimit="3.25"/>
<path d="M356.959 245.304H354.625" stroke="#CCCCCC" stroke-width="0.557313" stroke-miterlimit="3.25"/>
<path d="M356.959 239.478H354.625" stroke="#CCCCCC" stroke-width="0.557313" stroke-miterlimit="3.25"/>
<path d="M356.959 233.651H353.066" stroke="#CCCCCC" stroke-width="0.557313" stroke-miterlimit="3.25"/>
<path d="M356.959 227.826H354.625" stroke="#CCCCCC" stroke-width="0.557313" stroke-miterlimit="3.25"/>
<path d="M356.959 222.001H354.625" stroke="#CCCCCC" stroke-width="0.557313" stroke-miterlimit="3.25"/>
<path d="M356.959 216.175H354.625" stroke="#CCCCCC" stroke-width="0.557313" stroke-miterlimit="3.25"/>
<path d="M356.959 210.35H354.625" stroke="#CCCCCC" stroke-width="0.557313" stroke-miterlimit="3.25"/>
<path d="M356.959 204.524H353.066" stroke="#CCCCCC" stroke-width="0.557313" stroke-miterlimit="3.25"/>
<path d="M356.959 198.693H354.625" stroke="#CCCCCC" stroke-width="0.557313" stroke-miterlimit="3.25"/>
<path d="M356.959 192.868H354.625" stroke="#CCCCCC" stroke-width="0.557313" stroke-miterlimit="3.25"/>
<path d="M356.959 187.043H354.625" stroke="#CCCCCC" stroke-width="0.557313" stroke-miterlimit="3.25"/>
<path d="M356.959 181.217H354.625" stroke="#CCCCCC" stroke-width="0.557313" stroke-miterlimit="3.25"/>
<path d="M356.959 175.391H353.066" stroke="#CCCCCC" stroke-width="0.557313" stroke-miterlimit="3.25"/>
<path d="M356.959 169.565H354.625" stroke="#CCCCCC" stroke-width="0.557313" stroke-miterlimit="3.25"/>
<path d="M356.959 163.74H354.625" stroke="#CCCCCC" stroke-width="0.557313" stroke-miterlimit="3.25"/>
<path d="M356.959 157.914H354.625" stroke="#CCCCCC" stroke-width="0.557313" stroke-miterlimit="3.25"/>
<path d="M356.959 152.089H354.625" stroke="#CCCCCC" stroke-width="0.557313" stroke-miterlimit="3.25"/>
<path d="M356.959 146.264H353.066" stroke="#CCCCCC" stroke-width="0.557313" stroke-miterlimit="3.25"/>
<path d="M356.959 140.437H354.625" stroke="#CCCCCC" stroke-width="0.557313" stroke-miterlimit="3.25"/>
<path d="M356.959 134.611H354.625" stroke="#CCCCCC" stroke-width="0.557313" stroke-miterlimit="3.25"/>
<path d="M356.959 128.786H354.625" stroke="#CCCCCC" stroke-width="0.557313" stroke-miterlimit="3.25"/>
<path d="M356.959 122.96H354.625" stroke="#CCCCCC" stroke-width="0.557313" stroke-miterlimit="3.25"/>
<path d="M356.959 117.135H353.066" stroke="#CCCCCC" stroke-width="0.557313" stroke-miterlimit="3.25"/>
<path d="M356.959 111.31H354.625" stroke="#CCCCCC" stroke-width="0.557313" stroke-miterlimit="3.25"/>
<path d="M356.959 105.479H354.625" stroke="#CCCCCC" stroke-width="0.557313" stroke-miterlimit="3.25"/>
<path d="M356.959 99.6523H354.625" stroke="#CCCCCC" stroke-width="0.557313" stroke-miterlimit="3.25"/>
<path d="M356.959 93.8271H354.625" stroke="#CCCCCC" stroke-width="0.557313" stroke-miterlimit="3.25"/>
<path d="M356.959 88.002H353.066" stroke="#CCCCCC" stroke-width="0.557313" stroke-miterlimit="3.25"/>
<path d="M356.959 82.1758H354.625" stroke="#CCCCCC" stroke-width="0.557313" stroke-miterlimit="3.25"/>
<path d="M356.959 76.3506H354.625" stroke="#CCCCCC" stroke-width="0.557313" stroke-miterlimit="3.25"/>
<path d="M356.959 70.5244H354.625" stroke="#CCCCCC" stroke-width="0.557313" stroke-miterlimit="3.25"/>
<path d="M356.959 64.6982H354.625" stroke="#CCCCCC" stroke-width="0.557313" stroke-miterlimit="3.25"/>
<path d="M356.959 58.873H353.066" stroke="#CCCCCC" stroke-width="0.557313" stroke-miterlimit="3.25"/>
<path d="M152.727 38.6789C152.727 37.7036 152.966 36.7588 153.445 35.8445C153.928 34.9345 154.607 34.2378 155.491 33.7545C156.371 33.2756 157.355 33.0361 158.443 33.0361C160.12 33.0361 161.496 33.5804 162.571 34.6689C163.642 35.7617 164.178 37.1376 164.178 38.8008C164.178 40.4815 163.638 41.8748 162.554 42.9763C161.469 44.0822 160.107 44.6352 158.461 44.6352C157.446 44.6352 156.475 44.4044 155.552 43.9429C154.629 43.4857 153.928 42.8109 153.445 41.9227C152.966 41.0344 152.727 39.9503 152.727 38.6789ZM155.735 38.8357C155.735 39.9372 155.996 40.7776 156.519 41.361C157.041 41.9488 157.686 42.2405 158.452 42.2405C159.218 42.2405 159.863 41.9488 160.381 41.361C160.899 40.7776 161.16 39.9285 161.16 38.8139C161.16 37.7254 160.899 36.8894 160.381 36.306C159.863 35.7182 159.218 35.4265 158.452 35.4265C157.686 35.4265 157.041 35.7182 156.519 36.306C155.996 36.8894 155.735 37.7341 155.735 38.8357Z" fill="#CCCCCC"/>
<path d="M173.36 44.3827H170.425V33.3148C169.354 34.3206 168.087 35.0608 166.633 35.5441V32.8794C167.399 32.6269 168.231 32.1523 169.128 31.4513C170.029 30.7503 170.643 29.9361 170.978 29H173.36V44.3827Z" fill="#CCCCCC"/>
<path d="M187.264 40.4252H177.232V37.8955H187.264V40.4252Z" fill="#CCCCCC"/>
<path d="M189.963 33.2843H192.671V34.7995C193.638 33.6239 194.791 33.0361 196.128 33.0361C196.838 33.0361 197.456 33.1798 197.979 33.4715C198.501 33.7633 198.932 34.2074 199.263 34.7995C199.751 34.2074 200.278 33.7676 200.844 33.4715C201.405 33.1798 202.01 33.0361 202.65 33.0361C203.465 33.0361 204.157 33.2016 204.719 33.5325C205.285 33.8634 205.707 34.3467 205.986 34.9867C206.186 35.4613 206.286 36.2276 206.286 37.2856V44.3827H203.351V38.0389C203.351 36.9373 203.251 36.2276 203.047 35.9098C202.777 35.4918 202.359 35.2828 201.793 35.2828C201.383 35.2828 200.996 35.4047 200.635 35.6572C200.273 35.9098 200.012 36.2755 199.851 36.7588C199.69 37.2421 199.611 38.0084 199.611 39.0534V44.3827H196.672V38.3001C196.672 37.2203 196.62 36.5237 196.516 36.2102C196.411 35.8967 196.25 35.666 196.032 35.5092C195.81 35.3568 195.514 35.2828 195.135 35.2828C194.683 35.2828 194.278 35.4047 193.916 35.6485C193.555 35.8924 193.294 36.2407 193.137 36.7022C192.98 37.1637 192.902 37.9257 192.902 38.9924V44.3827H189.963V33.2843Z" fill="#CCCCCC"/>
<path d="M209.215 31.7823V29.0654H212.149V31.7823H209.215ZM209.215 44.3828V33.2845H212.149V44.3828H209.215Z" fill="#CCCCCC"/>
<path d="M225.253 44.3827H222.318V38.7181C222.318 37.5208 222.253 36.7457 222.131 36.3931C222.005 36.0404 221.8 35.7704 221.517 35.5745C221.234 35.3786 220.895 35.2828 220.498 35.2828C219.989 35.2828 219.536 35.4221 219.131 35.7008C218.726 35.9794 218.448 36.3452 218.3 36.8067C218.152 37.2682 218.073 38.1173 218.073 39.3581V44.3827H215.139V33.2843H217.864V34.9171C218.835 33.6631 220.054 33.0361 221.522 33.0361C222.17 33.0361 222.763 33.1493 223.298 33.3845C223.834 33.6196 224.243 33.9156 224.517 34.277C224.792 34.6384 224.983 35.052 225.092 35.5092C225.201 35.9707 225.253 36.6282 225.253 37.4859V44.3827Z" fill="#CCCCCC"/>
<path d="M228.234 31.7823V29.0654H231.169V31.7823H228.234ZM228.234 44.3828V33.2845H231.169V44.3828H228.234Z" fill="#CCCCCC"/>
</g>
<defs>
<clipPath id="clip0_11278_204063">
<rect width="360" height="312" fill="white"/>
</clipPath>
</defs>
</svg>
