<svg width="752" height="480" viewBox="0 0 752 480" fill="none" xmlns="http://www.w3.org/2000/svg">
<g clip-path="url(#clip0_11281_204582)">
<rect width="752" height="480" fill="white"/>
<path d="M0 480H752V0H0V480Z" fill="#EB6235" fill-opacity="0.06"/>
<path fill-rule="evenodd" clip-rule="evenodd" d="M337.906 54.6891C337.906 52.9041 338.004 51.1191 338.2 49.3191C338.395 47.5191 338.682 45.8766 339.066 44.3991C339.442 42.9216 339.932 41.3991 340.534 39.8241C341.13 38.2566 341.792 36.6591 342.523 35.0391H340.911C340.12 36.5541 339.397 38.1066 338.734 39.6966C338.079 41.2866 337.507 42.9066 337.032 44.5566C336.558 46.2066 336.188 47.8791 335.925 49.5741C335.661 51.2691 335.533 52.9791 335.533 54.6891V65.4966C335.533 67.2141 335.661 68.9241 335.925 70.6191C336.188 72.3141 336.558 73.9866 337.032 75.6366C337.507 77.2866 338.079 78.9066 338.734 80.4966C339.397 82.0866 340.12 83.6391 340.911 85.1541H342.523C341.792 83.5266 341.13 81.9291 340.534 80.3616C339.932 78.8016 339.442 77.2791 339.058 75.7941C338.87 75.0666 338.704 74.2866 338.561 73.4541C338.418 72.6216 338.297 71.7591 338.2 70.8741C338.102 69.9891 338.026 69.0891 337.981 68.1816C337.928 67.2666 337.906 66.3741 337.906 65.4966V54.6891Z" fill="#CCCCCC" fill-opacity="0.8"/>
<path d="M355.72 48.4838H353.686V35.5838C353.197 36.0488 352.557 36.5138 351.766 36.9788C350.967 37.4438 350.252 37.7888 349.619 38.0213V36.0638C350.756 35.5313 351.758 34.8863 352.602 34.1288C353.453 33.3713 354.063 32.6363 354.41 31.9238H355.72V48.4838Z" fill="#CCCCCC" fill-opacity="0.8"/>
<path d="M376.99 40.3538C376.99 38.4038 377.186 36.8288 377.593 35.6438C377.992 34.4513 378.595 33.5363 379.385 32.8913C380.184 32.2463 381.178 31.9238 382.383 31.9238C383.272 31.9238 384.055 32.1038 384.726 32.4563C385.396 32.8163 385.953 33.3263 386.39 34.0013C386.827 34.6688 387.166 35.4863 387.415 36.4538C387.663 37.4138 387.791 38.7188 387.791 40.3538C387.791 42.2888 387.588 43.8488 387.189 45.0338C386.789 46.2263 386.194 47.1413 385.396 47.7938C384.605 48.4388 383.603 48.7688 382.383 48.7688C380.786 48.7688 379.536 48.1988 378.625 47.0588C377.533 45.6863 376.99 43.4438 376.99 40.3538ZM379.077 40.3538C379.077 43.0613 379.393 44.8613 380.033 45.7538C380.666 46.6538 381.449 47.1038 382.383 47.1038C383.317 47.1038 384.108 46.6538 384.741 45.7538C385.381 44.8538 385.697 43.0538 385.697 40.3538C385.697 37.6388 385.381 35.8313 384.741 34.9388C384.108 34.0463 383.317 33.6038 382.368 33.6038C381.434 33.6038 380.681 33.9938 380.124 34.7813C379.423 35.7863 379.077 37.6388 379.077 40.3538Z" fill="#CCCCCC" fill-opacity="0.8"/>
<path d="M348.062 72.9905C348.062 71.0405 348.258 69.4655 348.665 68.2805C349.064 67.088 349.667 66.173 350.458 65.528C351.256 64.883 352.25 64.5605 353.455 64.5605C354.344 64.5605 355.128 64.7405 355.798 65.093C356.468 65.453 357.026 65.963 357.463 66.638C357.899 67.3055 358.238 68.123 358.487 69.0905C358.735 70.0505 358.863 71.3555 358.863 72.9905C358.863 74.9255 358.66 76.4855 358.261 77.6705C357.862 78.863 357.267 79.778 356.468 80.4305C355.677 81.0755 354.676 81.4055 353.455 81.4055C351.859 81.4055 350.608 80.8355 349.697 79.6955C348.605 78.323 348.062 76.0805 348.062 72.9905ZM350.149 72.9905C350.149 75.698 350.465 77.498 351.105 78.3905C351.738 79.2905 352.521 79.7405 353.455 79.7405C354.389 79.7405 355.18 79.2905 355.813 78.3905C356.453 77.4905 356.77 75.6905 356.77 72.9905C356.77 70.2755 356.453 68.468 355.813 67.5755C355.18 66.683 354.389 66.2405 353.44 66.2405C352.506 66.2405 351.753 66.6305 351.196 67.418C350.495 68.423 350.149 70.2755 350.149 72.9905Z" fill="#CCCCCC" fill-opacity="0.8"/>
<path d="M384.644 81.1205H382.61V68.2205C382.121 68.6855 381.48 69.1505 380.69 69.6155C379.891 70.0805 379.176 70.4255 378.543 70.658V68.7005C379.68 68.168 380.682 67.523 381.526 66.7655C382.377 66.008 382.987 65.273 383.333 64.5605H384.644V81.1205Z" fill="#CCCCCC" fill-opacity="0.8"/>
<path fill-rule="evenodd" clip-rule="evenodd" d="M402.292 54.6891C402.292 52.9791 402.164 51.2691 401.901 49.5741C401.637 47.8791 401.268 46.2066 400.794 44.5566C400.319 42.9066 399.754 41.2866 399.091 39.6966C398.436 38.1066 397.705 36.5541 396.915 35.0391H395.303C396.033 36.6666 396.696 38.2641 397.291 39.8241C397.886 41.3916 398.376 42.9141 398.76 44.3991C398.948 45.1266 399.114 45.9066 399.257 46.7391C399.4 47.5716 399.521 48.4341 399.619 49.3191C399.717 50.2041 399.792 51.0966 399.845 52.0116C399.897 52.9191 399.92 53.8191 399.92 54.6891V65.4966C399.92 66.8166 399.875 68.0616 399.784 69.2391C399.694 70.4091 399.566 71.5416 399.385 72.6291C399.212 73.7166 398.993 74.7741 398.73 75.7941C398.474 76.8216 398.172 77.8416 397.826 78.8541C397.487 79.8741 397.103 80.9016 396.681 81.9366C396.259 82.9716 395.8 84.0441 395.303 85.1541H396.915C397.705 83.6391 398.436 82.0866 399.091 80.4966C399.754 78.9066 400.319 77.2866 400.794 75.6366C401.268 73.9866 401.637 72.3141 401.901 70.6191C402.164 68.9241 402.292 67.2141 402.292 65.4966V54.6891Z" fill="#CCCCCC" fill-opacity="0.8"/>
<path fill-rule="evenodd" clip-rule="evenodd" d="M359.645 109.93V117.829H351.7H343.754V125.727V133.626H335.881H328.008L327.574 141.884L327.141 150.141L318.834 150.572L310.527 151.003V158.83V166.657H302.582H294.636V174.555V182.454H286.691H278.745V190.353V198.251H270.8H262.854V206.15V214.049H254.909H246.963V221.875V229.702L238.656 230.133L230.35 230.564L229.916 238.822L229.483 247.079H221.61H213.736V254.978V262.877H205.791H197.845V270.775V278.674H189.972H182.099L181.665 286.932L181.232 295.189L173.647 295.623L166.063 296.058V303.881V311.705H157.395H148.727V319.603V327.502H140.782H132.836V335.401V343.299H124.891H116.945V351.198V359.097H109.072H101.198L100.765 367.354L100.332 375.612L92.8209 376.044L85.3088 376.475L84.8754 383.943L84.4405 391.409L76.1338 391.84L67.8271 392.271V400.098V407.925H59.8816H51.936V415.823V423.722H43.9905H36.0449V431.621V439.519H51.936H67.8271V431.621V423.722H76.495H85.1629V415.823V407.925H93.1084H101.054V423.722V439.519H108.999H116.945V431.621V423.722H141.504H166.063V431.621V439.519H189.9H213.736V431.621V423.722H221.682H229.627V407.925V392.127H238.295H246.963V415.823V439.519H278.745H310.527V431.621V423.722H351.7H392.872V431.621V439.519H425.452H458.033L457.595 431.98L457.159 424.44L448.852 424.009L440.546 423.578V415.752V407.925H457.159H473.772V400.026V392.127H481.718H489.663V407.925V423.722H481.718H473.772V431.621V439.519H497.609H521.446V431.621V423.722H513.5H505.555V415.823V407.925H530.114H554.672V415.752V423.578L546.366 424.009L538.059 424.44L537.623 431.98L537.185 439.519H553.875H570.564V431.621V423.722H586.455H602.346V415.823V407.925H610.291H618.237V423.722V439.519H626.905H635.573V431.621V423.722H659.409H683.246V431.621V439.519H691.989H700.733L700.296 431.98L699.859 424.44L691.553 424.009L683.246 423.578V415.752V407.925H675.3H667.355V400.026V392.127H659.409H651.464V384.229V376.33H643.59H635.717L635.284 368.072L634.85 359.815L627.34 359.382L619.827 358.952L619.394 351.484L618.959 344.017L610.652 343.587L602.346 343.156V335.329V327.502H594.4H586.455V319.603V311.705H578.509H570.564V303.806V295.907H562.69H554.817L554.384 287.65L553.95 279.392L546.366 278.958L538.781 278.523V270.701V262.877H530.114H521.446V254.978V247.079H513.5H505.555V238.463V229.846H497.609H489.663V221.947V214.049H481.718H473.772V206.15V198.251H465.827H457.881V190.353V182.454H449.213H440.546V174.555V166.657H432.6H424.654V158.758V150.859H416.709H408.763V142.243V133.626H400.818H392.872V125.727V117.829H384.927H376.981V109.93V102.031H368.313H359.645V109.93ZM392.15 142.243V150.141L375.898 150.548L359.645 150.954V166.704V182.454H343.754H327.863V198.251V214.049H311.25H294.636V230.564V247.079H278.745H262.854V262.877V278.674H246.241H229.627V270.775V262.877H238.295H246.963V254.978V247.079H254.909H262.854V239.181V231.282H270.8H278.745V222.665V214.049H286.691H294.636V206.15V198.251H302.582H310.527V190.353V182.454H319.195H327.863V174.555V166.657H335.809H343.754V158.758V150.859H351.7H359.645V142.195V133.531L375.898 133.938L392.15 134.344V142.243ZM424.654 174.555V182.454H416.709H408.763V198.251V214.049H400.818H392.872V221.947V229.846H376.259H359.645V221.947V214.049H351.7H343.754V206.15V198.251H368.313H392.872V190.353V182.454H384.927H376.981V174.555V166.657H400.818H424.654V174.555ZM456.437 206.15V214.049H440.546H424.654V206.15V198.251H440.546H456.437V206.15ZM359.645 239.181V247.079H351.7H343.754V262.877V278.674H335.881H328.008L327.574 286.932L327.141 295.189H311.25H295.359L294.925 286.932L294.492 278.674H286.619H278.745V270.775V262.877H303.304H327.863V255.05V247.223L319.557 246.792L311.25 246.361L310.814 238.822L310.376 231.282H335.011H359.645V239.181ZM489.663 239.181V247.079H481.718H473.772V254.978V262.877H465.105H456.437V279.392V295.907H448.491H440.546V303.806V311.705H424.654H408.763V327.502V343.299H400.818H392.872V367.713V392.127H384.204H375.537V400.026V407.925H359.645H343.754V400.026V392.127H335.809H327.863V400.026V407.925H311.25H294.636V415.823V423.722H278.745H262.854V415.823V407.925H278.745H294.636V400.026V392.127H311.25H327.863V384.263V376.399L352.061 376.005L376.259 375.612V359.815V344.017L367.952 343.587L359.645 343.156V351.126V359.097H343.754H327.863V351.198V343.299H343.754H359.645V335.401V327.502H376.259H392.872V319.603V311.705H400.818H408.763V303.806V295.907H400.818H392.872V288.009V280.11H416.709H440.546V271.493V262.877H432.6H424.654V254.978V247.079H416.709H408.763V254.978V262.877H392.872H376.981V254.978V247.079H392.872H408.763V239.181V231.282H449.213H489.663V239.181ZM375.537 287.291V311.705H359.645H343.754V319.603V327.502H327.141H310.527V351.916V376.33H294.636H278.745V384.229V392.127H262.854H246.963V384.229V376.33H262.854H278.745V367.713V359.097H286.691H294.636V343.299V327.502H302.582H310.527V319.603V311.705H327.141H343.754V303.806V295.907H351.7H359.645V279.392V262.877H367.591H375.537V287.291ZM521.446 270.775V278.674H505.555H489.663V270.775V262.877H505.555H521.446V270.775ZM229.627 295.907V311.705H213.736H197.845V327.502V343.299H182.002H166.158L165.749 359.456L165.341 375.612H149.45H133.558V367.713V359.815L141.069 359.382L148.581 358.952L149.015 351.484L149.45 344.017L157.756 343.587L166.063 343.156V335.329V327.502H174.009H181.954V319.603V311.705H189.9H197.845V303.806V295.907H205.791H213.736V288.009V280.11H221.682H229.627V295.907ZM489.663 303.806V327.502H473.772H457.881V319.603V311.705H465.827H473.772V295.907V280.11H481.718H489.663V303.806ZM294.636 303.806V311.705H286.691H278.745V327.502V343.299H270.8H262.854V351.198V359.097H246.241H229.627V367.713V376.33H221.682H213.736V392.127V407.925H205.791H197.845V415.823V423.722H181.954H166.063V415.823V407.925H157.395H148.727V400.026V392.127H173.286H197.845V384.229V376.33H189.9H181.954V367.713V359.097H205.791H229.627V351.198V343.299H221.682H213.736V335.401V327.502H238.295H262.854V319.603V311.705H254.909H246.963V303.806V295.907H270.8H294.636V303.806ZM554.672 303.806V311.705H546.005H537.337V327.502V343.299H521.446H505.555V351.198V359.097H489.663H473.772V351.198V343.299H489.663H505.555V335.401V327.502H513.5H521.446V319.603V311.705H513.5H505.555V303.806V295.907H530.114H554.672V303.806ZM456.437 335.401V343.299H440.546H424.654V335.401V327.502H440.546H456.437V335.401ZM586.455 335.401V343.299H570.564H554.672V335.401V327.502H570.564H586.455V335.401ZM473.05 367.713V375.612L464.743 376.043L456.437 376.474V384.301V392.127H440.546H424.654V407.925V423.722H408.763H392.872V415.823V407.925H400.818H408.763V400.026V392.127H416.709H424.654V384.229V376.33H416.709H408.763V367.686V359.042L440.907 359.428L473.05 359.815V367.713ZM618.237 367.713V376.33H610.291H602.346V384.229V392.127H594.4H586.455V400.026V407.925H570.564H554.672V400.026V392.127H546.727H538.781V384.301V376.474L530.475 376.043L522.168 375.612L521.716 369.345C520.924 358.376 517.493 359.097 570.519 359.097H618.237V367.713ZM132.836 392.127V407.925H116.945H101.054V400.026V392.127H108.999H116.945V384.229V376.33H124.891H132.836V392.127ZM521.446 384.229V392.127H505.555H489.663V384.229V376.33H505.555H521.446V384.229ZM651.464 400.026V407.925H635.573H619.682V400.026V392.127H635.573H651.464V400.026Z" fill="#EB6235"/>
</g>
<defs>
<clipPath id="clip0_11281_204582">
<rect width="752" height="480" fill="white"/>
</clipPath>
</defs>
</svg>
