<svg width="112" height="60" viewBox="0 0 112 60" fill="none" xmlns="http://www.w3.org/2000/svg">
<g clip-path="url(#clip0_11105_18926)">
<path fill-rule="evenodd" clip-rule="evenodd" d="M57.8134 22.1661C52.4034 22.1661 52.4034 28.0338 52.4034 28.0338C52.4034 28.0338 51.9686 31.3018 52.4034 34.1396C52.6185 36.9544 53.2685 40.4375 58.2482 40.4375C63.466 40.4375 63.8963 35.4348 63.8963 34.3547V33.9153H60.4086C60.4086 36.0802 59.9738 37.3755 57.8134 37.3755C55.4334 37.3755 55.6256 33.4576 55.6256 33.4576C55.6256 33.4576 55.4288 31.0775 55.6256 28.2398C55.8407 24.775 58.0286 24.9947 58.0286 24.9947C60.6237 24.9947 60.6237 28.9126 60.6237 28.9126H63.8917V28.0247C63.6812 25.8643 63.2463 22.1661 57.8134 22.1661ZM73.2471 21.9464C71.0593 21.9464 69.764 23.4614 69.764 23.4614V15.6484H66.5189V40.2132H69.9837V27.3793C69.9837 27.3793 69.9837 24.9993 72.1715 24.9993C74.3364 24.9993 74.5516 26.7294 74.5516 27.3793V40.2132H77.6044V27.1642C77.5998 27.1642 77.5998 21.9464 73.2471 21.9464ZM83.8978 35.65C83.6827 33.0319 83.8978 32.1669 83.8978 32.1669H92.5987C92.5987 30.867 92.5987 30.4368 92.3836 28.0338C92.1685 25.8689 91.2805 22.1661 86.5159 22.1661C81.0601 22.1661 80.6298 28.2489 80.6298 28.2489C80.6298 28.2489 80.4147 31.3018 80.6298 34.135C81.0646 36.9498 81.4949 40.6481 86.7127 40.6481C91.9488 40.6481 92.3836 35.4303 92.3836 34.3501H88.6808C88.6808 38.9179 84.328 38.4831 83.8978 35.65ZM86.5159 24.9993C89.111 24.9993 88.6808 29.352 88.6808 29.352H84.1129C84.1129 24.5644 86.5159 24.9993 86.5159 24.9993ZM43.2723 22.1661C37.8394 22.1661 37.6243 28.2489 37.6243 28.2489C37.6243 28.2489 37.4091 31.0821 37.6243 34.135C37.8394 36.9498 38.2742 40.4329 43.7071 40.4329C49.14 40.4329 49.14 35.4303 49.3551 34.3501V28.2444C49.3505 26.084 48.7006 22.1661 43.2723 22.1661ZM45.6523 33.4622C45.6523 36.0802 45.4372 37.3801 43.4874 37.3801C40.8693 37.3801 41.0845 33.7002 41.0845 33.7002V28.2489C41.0845 25.0038 43.4874 25.0038 43.4874 25.0038C45.8674 25.0038 45.8674 28.4869 45.8674 28.4869C45.8674 28.4869 45.6523 32.382 45.6523 33.4622ZM32.4019 27.3793C32.4019 27.3793 34.997 26.5143 34.997 21.7313C34.997 16.2984 29.1293 15.8636 27.834 15.8636H22.8359V40.2132H26.319V28.9172H28.0491C31.0791 28.9172 31.3171 31.5123 31.3171 31.5123L31.752 40.2132H35.2167C35.2167 40.2132 35.0016 35.6454 34.7819 31.7275C34.3517 27.8141 32.4019 27.3793 32.4019 27.3793ZM26.3236 26.084V19.1315C27.1887 19.1315 31.5414 18.6967 31.5414 22.1615C31.5368 26.7294 26.3236 26.084 26.3236 26.084Z" fill="#0078C1"/>
<path fill-rule="evenodd" clip-rule="evenodd" d="M86.5146 0H24.9996L0 29.7826L24.9996 60H86.5146L111.061 29.7826L86.5146 0ZM85.1964 57.1623H26.3224L3.48768 29.7826L26.3224 3.02998H85.1964L107.601 29.7826L85.1964 57.1623Z" fill="#0078C1"/>
</g>
<defs>
<clipPath id="clip0_11105_18926">
<rect width="111.061" height="60" fill="white"/>
</clipPath>
</defs>
</svg>
