<svg width="180" height="120" viewBox="0 0 180 120" fill="none" xmlns="http://www.w3.org/2000/svg">
<g clip-path="url(#clip0_11105_18922)">
<g clip-path="url(#clip1_11105_18922)">
<path fill-rule="evenodd" clip-rule="evenodd" d="M92.2822 52.1661C86.8722 52.1661 86.8722 58.0338 86.8722 58.0338C86.8722 58.0338 86.4373 61.3018 86.8722 64.1396C87.0873 66.9544 87.7372 70.4375 92.717 70.4375C97.9348 70.4375 98.365 65.4348 98.365 64.3547V63.9153H94.8773C94.8773 66.0802 94.4425 67.3755 92.2822 67.3755C89.9021 67.3755 90.0944 63.4576 90.0944 63.4576C90.0944 63.4576 89.8976 61.0775 90.0944 58.2398C90.3095 54.775 92.4973 54.9947 92.4973 54.9947C95.0925 54.9947 95.0925 58.9126 95.0925 58.9126H98.3605V58.0247C98.1499 55.8643 97.7151 52.1661 92.2822 52.1661ZM107.716 51.9464C105.528 51.9464 104.233 53.4614 104.233 53.4614V45.6484H100.988V70.2132H104.452V57.3793C104.452 57.3793 104.452 54.9993 106.64 54.9993C108.805 54.9993 109.02 56.7294 109.02 57.3793V70.2132H112.073V57.1642C112.069 57.1642 112.069 51.9464 107.716 51.9464ZM118.367 65.65C118.151 63.0319 118.367 62.1669 118.367 62.1669H127.067C127.067 60.867 127.067 60.4368 126.852 58.0338C126.637 55.8689 125.749 52.1661 120.985 52.1661C115.529 52.1661 115.099 58.2489 115.099 58.2489C115.099 58.2489 114.883 61.3018 115.099 64.135C115.533 66.9498 115.964 70.6481 121.181 70.6481C126.418 70.6481 126.852 65.4303 126.852 64.3501H123.15C123.15 68.9179 118.797 68.4831 118.367 65.65ZM120.985 54.9993C123.58 54.9993 123.15 59.352 123.15 59.352H118.582C118.582 54.5644 120.985 54.9993 120.985 54.9993ZM77.741 52.1661C72.3081 52.1661 72.093 58.2489 72.093 58.2489C72.093 58.2489 71.8779 61.0821 72.093 64.135C72.3081 66.9498 72.7429 70.4329 78.1758 70.4329C83.6088 70.4329 83.6088 65.4303 83.8239 64.3501V58.2444C83.8193 56.084 83.1694 52.1661 77.741 52.1661ZM80.1211 63.4622C80.1211 66.0802 79.906 67.3801 77.9561 67.3801C75.3381 67.3801 75.5532 63.7002 75.5532 63.7002V58.2489C75.5532 55.0038 77.9561 55.0038 77.9561 55.0038C80.3362 55.0038 80.3362 58.4869 80.3362 58.4869C80.3362 58.4869 80.1211 62.382 80.1211 63.4622ZM66.8706 57.3793C66.8706 57.3793 69.4658 56.5143 69.4658 51.7313C69.4658 46.2984 63.5981 45.8636 62.3028 45.8636H57.3047V70.2132H60.7878V58.9172H62.5179C65.5479 58.9172 65.7859 61.5123 65.7859 61.5123L66.2207 70.2132H69.6855C69.6855 70.2132 69.4704 65.6454 69.2507 61.7275C68.8204 57.8141 66.8706 57.3793 66.8706 57.3793ZM60.7924 56.084V49.1315C61.6574 49.1315 66.0102 48.6967 66.0102 52.1615C66.0056 56.7294 60.7924 56.084 60.7924 56.084Z" fill="#0078C1"/>
<path fill-rule="evenodd" clip-rule="evenodd" d="M120.983 30H59.4684L34.4688 59.7826L59.4684 90H120.983L145.53 59.7826L120.983 30ZM119.665 87.1623H60.7911L37.9564 59.7826L60.7911 33.03H119.665L142.07 59.7826L119.665 87.1623Z" fill="#0078C1"/>
</g>
</g>
<defs>
<clipPath id="clip0_11105_18922">
<rect width="140" height="60" fill="white" transform="translate(20 30)"/>
</clipPath>
<clipPath id="clip1_11105_18922">
<rect width="111.061" height="60" fill="white" transform="translate(34.4688 30)"/>
</clipPath>
</defs>
</svg>
