<svg width="70" height="30" viewBox="0 0 70 30" fill="none" xmlns="http://www.w3.org/2000/svg">
<g clip-path="url(#clip0_10196_999)">
<g clip-path="url(#clip1_10196_999)">
<g clip-path="url(#clip2_10196_999)">
<path fill-rule="evenodd" clip-rule="evenodd" d="M36.1411 11.083C33.4361 11.083 33.4361 14.0169 33.4361 14.0169C33.4361 14.0169 33.2187 15.6509 33.4361 17.0698C33.5436 18.4772 33.8686 20.2188 36.3585 20.2188C38.9674 20.2188 39.1825 17.7174 39.1825 17.1773V16.9576H37.4387C37.4387 18.0401 37.2213 18.6877 36.1411 18.6877C34.9511 18.6877 35.0472 16.7288 35.0472 16.7288C35.0472 16.7288 34.9488 15.5388 35.0472 14.1199C35.1547 12.3875 36.2487 12.4973 36.2487 12.4973C37.5462 12.4973 37.5462 14.4563 37.5462 14.4563H39.1802V14.0123C39.075 12.9322 38.8575 11.083 36.1411 11.083ZM43.8579 10.9732C42.764 10.9732 42.1164 11.7307 42.1164 11.7307V7.82422H40.4938V20.1066H42.2262V13.6897C42.2262 13.6897 42.2262 12.4996 43.3201 12.4996C44.4026 12.4996 44.5102 13.3647 44.5102 13.6897V20.1066H46.0366V13.5821C46.0343 13.5821 46.0343 10.9732 43.8579 10.9732ZM49.1833 17.825C49.0757 16.516 49.1833 16.0834 49.1833 16.0834H53.5337C53.5337 15.4335 53.5337 15.2184 53.4262 14.0169C53.3186 12.9344 52.8746 11.083 50.4923 11.083C47.7644 11.083 47.5493 14.1245 47.5493 14.1245C47.5493 14.1245 47.4417 15.6509 47.5493 17.0675C47.7667 18.4749 47.9818 20.324 50.5907 20.324C53.2088 20.324 53.4262 17.7151 53.4262 17.175H51.5748C51.5748 19.459 49.3984 19.2416 49.1833 17.825ZM50.4923 12.4996C51.7899 12.4996 51.5748 14.676 51.5748 14.676H49.2908C49.2908 12.2822 50.4923 12.4996 50.4923 12.4996ZM28.8705 11.083C26.1541 11.083 26.0465 14.1245 26.0465 14.1245C26.0465 14.1245 25.9389 15.5411 26.0465 17.0675C26.1541 18.4749 26.3715 20.2165 29.0879 20.2165C31.8044 20.2165 31.8044 17.7151 31.9119 17.175V14.1222C31.9096 13.042 31.5847 11.083 28.8705 11.083ZM30.0605 16.7311C30.0605 18.0401 29.953 18.69 28.9781 18.69C27.669 18.69 27.7766 16.8501 27.7766 16.8501V14.1245C27.7766 12.5019 28.9781 12.5019 28.9781 12.5019C30.1681 12.5019 30.1681 14.2435 30.1681 14.2435C30.1681 14.2435 30.0605 16.191 30.0605 16.7311ZM23.4353 13.6897C23.4353 13.6897 24.7329 13.2571 24.7329 10.8656C24.7329 8.14919 21.799 7.93178 21.1514 7.93178H18.6523V20.1066H20.3939V14.4586H21.2589C22.7739 14.4586 22.8929 15.7562 22.8929 15.7562L23.1104 20.1066H24.8427C24.8427 20.1066 24.7352 17.8227 24.6253 15.8637C24.4102 13.9071 23.4353 13.6897 23.4353 13.6897ZM20.3962 13.042V9.56577C20.8287 9.56577 23.0051 9.34836 23.0051 11.0808C23.0028 13.3647 20.3962 13.042 20.3962 13.042Z" fill="#E6E7F5"/>
<path fill-rule="evenodd" clip-rule="evenodd" d="M50.4917 0H19.7342L7.23438 14.8913L19.7342 30H50.4917L62.7649 14.8913L50.4917 0ZM49.8326 28.5811H20.3956L8.97822 14.8913L20.3956 1.51499H49.8326L61.0348 14.8913L49.8326 28.5811Z" fill="#E6E7F5"/>
</g>
</g>
</g>
<defs>
<clipPath id="clip0_10196_999">
<rect width="70" height="30" fill="white"/>
</clipPath>
<clipPath id="clip1_10196_999">
<rect width="70" height="30" fill="white"/>
</clipPath>
<clipPath id="clip2_10196_999">
<rect width="55.5306" height="30" fill="white" transform="translate(7.23438)"/>
</clipPath>
</defs>
</svg>
