<svg width="48" height="27" viewBox="0 0 48 27" fill="none" xmlns="http://www.w3.org/2000/svg">
<path d="M32.065 10.2457C31.7804 10.0364 31.3283 9.9025 30.893 9.91087C30.4159 9.91924 29.9638 10.0699 29.6457 10.3211V7.32422H28.1641V17.1016H29.6457V11.9953C29.6457 11.6437 29.9471 11.2502 30.4996 11.2251C30.7423 11.2168 31.0856 11.3256 31.2614 11.5851C31.4455 11.853 31.4371 12.2213 31.4371 12.6147L31.4288 17.1016H32.9104V12.5645C32.9104 11.2251 32.743 10.748 32.065 10.2457Z" fill="#0078C1"/>
<path d="M20.0136 13.6037C20.0136 14.558 19.9801 14.8259 19.9717 14.9096C19.9215 15.4454 19.6955 16.0062 19.076 16.0062C18.4649 16.0062 18.2138 15.4035 18.1887 14.8845C18.1803 14.8845 18.1468 14.558 18.1468 13.6037C18.1468 12.6494 18.1803 12.2476 18.1887 12.2476C18.1887 11.7035 18.4733 11.1678 19.076 11.1678C19.6871 11.1678 19.9634 11.7035 19.9717 12.2393C19.9717 12.2476 20.0136 12.6494 20.0136 13.6037ZM21.445 12.4485C21.2358 10.3642 20.0471 9.91211 19.076 9.91211C17.6948 9.91211 16.8577 10.7911 16.707 12.4485C16.6903 12.5825 16.6735 12.8252 16.6652 13.6037C16.6568 14.173 16.6987 14.6418 16.707 14.7589C16.7991 16.3076 17.6864 17.2535 19.076 17.2535C20.4656 17.2535 21.353 16.2909 21.4534 14.7589C21.4618 14.6501 21.4869 14.173 21.4869 13.6037C21.4869 13.3442 21.4701 12.6494 21.445 12.4485Z" fill="#0078C1"/>
<path d="M35.3863 12.7248C35.3946 12.3983 35.3946 12.3313 35.403 12.2393C35.4448 11.6533 35.7044 11.1678 36.3071 11.1678C37.0186 11.1594 37.186 11.8542 37.2111 12.2393C37.2279 12.4485 37.2363 12.5825 37.2363 12.7248H35.3863ZM37.2195 14.6836C37.2195 14.6836 37.2195 14.7924 37.2028 14.9264C37.1609 15.2696 37.027 16.0062 36.3071 16.0062C35.6876 16.0062 35.4532 15.4454 35.4114 14.8929C35.403 14.7338 35.3779 14.558 35.3779 13.9553H38.6844C38.6844 13.9553 38.6844 13.4614 38.6761 13.1684C38.6761 13.0513 38.6677 12.8587 38.6426 12.4485C38.5924 11.8207 38.358 11.1343 37.998 10.699C37.5878 10.18 37.0019 9.91211 36.3071 9.91211C34.9677 9.91211 34.1306 10.7827 33.9715 12.4485C33.9548 12.5992 33.9297 12.8085 33.9297 13.6037C33.9297 14.173 33.9632 14.6501 33.9715 14.7589C34.0553 16.2825 34.9593 17.2535 36.3071 17.2535C37.6464 17.2535 38.5421 16.3076 38.6426 14.6836H37.2195Z" fill="#0078C1"/>
<path d="M11.9728 2.33573H36.0646L45.2728 13.1176L36.0646 23.7489H11.9728L2.72275 13.0842L11.9728 2.33573ZM36.6422 1.13867H11.3868L1.14062 13.0423L11.3952 24.8706H36.6422L46.8549 13.0842L36.6422 1.13867Z" fill="#0078C1"/>
<path d="M12.2774 8.65605H12.9722C13.734 8.65605 14.1525 9.05786 14.1693 9.77777C14.1693 9.83636 14.1777 9.89496 14.1777 10.0038C14.1777 10.1377 14.1777 10.1796 14.1693 10.2382C14.1274 10.6651 13.9349 11.4101 13.0476 11.4101H12.2774V8.65605ZM15.7849 16.4913L15.6342 14.0972C15.5673 13.0257 15.291 12.3895 14.7301 12.0631C15.132 11.8203 15.651 11.226 15.6426 9.97867C15.6426 8.08681 14.4623 7.41713 13.0727 7.40039H10.8125V17.1024H12.2691L12.2774 12.6658H13.0894C13.5582 12.6658 14.0856 13.076 14.1693 14.2312L14.32 16.4997C14.3367 16.8262 14.3953 17.1024 14.3953 17.1024H15.8602C15.8602 17.1024 15.7933 16.8346 15.7849 16.4913Z" fill="#0078C1"/>
<path d="M25.7697 14.6166C25.7697 14.7255 25.7613 14.8175 25.753 14.8845C25.7111 15.4286 25.527 16.0062 24.8573 16.0062C24.2462 16.0062 24.0034 15.3784 23.9532 14.918C23.9281 14.6418 23.9365 14.4241 23.9281 13.6037C23.9197 12.6494 23.9532 12.3983 23.9699 12.2476C24.0202 11.6365 24.2546 11.1678 24.8573 11.1678C25.4851 11.1594 25.7446 11.7035 25.753 12.2393C25.753 12.2476 25.7697 12.3732 25.7781 12.6578H27.243C27.243 12.5574 27.2347 12.4737 27.2347 12.4318C27.0672 10.406 25.8283 9.91211 24.8573 9.91211C23.4761 9.91211 22.6389 10.7911 22.4883 12.4485C22.4715 12.5825 22.4548 12.8252 22.4464 13.6037C22.438 14.173 22.4799 14.6418 22.4883 14.7589C22.5803 16.3076 23.4677 17.2535 24.8573 17.2535C26.2971 17.2619 27.0923 16.3829 27.2347 14.7589C27.2347 14.7004 27.243 14.6585 27.243 14.6166H25.7697Z" fill="#0078C1"/>
</svg>
