<svg width="176" height="152" viewBox="0 0 176 152" fill="none" xmlns="http://www.w3.org/2000/svg">
<path d="M153.312 7.64936V144.294H23.6494V7.64936H153.312ZM159.961 1H17V150.943H159.961V1Z" fill="#EB6235"/>
<path d="M153.312 7.64936V144.294H23.6494V7.64936H153.312Z" fill="#EB6235" fill-opacity="0.17"/>
<path d="M54.3066 37.3706H110.494" stroke="#EB6235" stroke-width="6.71586" stroke-miterlimit="10"/>
<path d="M41.7456 43.2559C44.8304 43.2559 47.3311 40.7552 47.3311 37.6704C47.3311 34.5857 44.8304 32.085 41.7456 32.085C38.6609 32.085 36.1602 34.5857 36.1602 37.6704C36.1602 40.7552 38.6609 43.2559 41.7456 43.2559Z" fill="#EB6235"/>
<path d="M142.479 29.7253L139.719 26.9658L126.919 39.7326L118.441 31.1549L115.648 33.9144L126.952 45.2848L142.479 29.7253Z" fill="#EB6235"/>
<path d="M54.3066 64.5352H110.494" stroke="#EB6235" stroke-width="6.71586" stroke-miterlimit="10"/>
<path d="M41.7456 70.3848C44.8304 70.3848 47.3311 67.8841 47.3311 64.7993C47.3311 61.7146 44.8304 59.2139 41.7456 59.2139C38.6609 59.2139 36.1602 61.7146 36.1602 64.7993C36.1602 67.8841 38.6609 70.3848 41.7456 70.3848Z" fill="#EB6235"/>
<path d="M142.479 56.8884L139.719 54.1289L126.919 66.8957L118.441 58.318L115.648 61.0775L126.952 72.4147L142.479 56.8884Z" fill="#EB6235"/>
<path d="M54.3066 91.0991H110.494" stroke="#EB6235" stroke-width="6.71586" stroke-miterlimit="10"/>
<path d="M41.7456 96.9493C44.8304 96.9493 47.3311 94.4486 47.3311 91.3638C47.3311 88.279 44.8304 85.7783 41.7456 85.7783C38.6609 85.7783 36.1602 88.279 36.1602 91.3638C36.1602 94.4486 38.6609 96.9493 41.7456 96.9493Z" fill="#EB6235"/>
<path d="M142.479 83.4533L139.719 80.6938L126.919 93.4606L118.441 84.8829L115.648 87.6424L126.952 98.9796L142.479 83.4533Z" fill="#EB6235"/>
<path d="M54.3066 117.93H110.494" stroke="#EB6235" stroke-width="6.71586" stroke-miterlimit="10"/>
<path d="M41.7456 123.814C44.8304 123.814 47.3311 121.314 47.3311 118.229C47.3311 115.144 44.8304 112.644 41.7456 112.644C38.6609 112.644 36.1602 115.144 36.1602 118.229C36.1602 121.314 38.6609 123.814 41.7456 123.814Z" fill="#EB6235"/>
<path d="M142.479 110.28L139.719 107.521L126.919 120.288L118.441 111.71L115.648 114.47L126.952 125.84L142.479 110.28Z" fill="#EB6235"/>
</svg>
