<svg width="504" height="328" viewBox="0 0 504 328" fill="none" xmlns="http://www.w3.org/2000/svg">
<g clip-path="url(#clip0_11284_209063)">
<rect width="504" height="328" rx="13.0626" fill="white" fill-opacity="0.19"/>
<path d="M40.5676 61.5607C38.5544 61.5607 36.7884 61.231 35.2932 60.5835C33.7979 59.9242 32.6088 59.0177 31.7376 57.8639C30.8664 56.7101 30.3484 55.3797 30.2071 53.8963L30.1953 53.6843H33.6331L33.6567 53.8963C33.7508 54.8146 34.104 55.6034 34.7163 56.2745C35.3402 56.9455 36.1644 57.4636 37.2004 57.8285C38.2483 58.2053 39.4256 58.3937 40.756 58.3937C42.0039 58.3937 43.1224 58.1817 44.0878 57.7815C45.065 57.3812 45.842 56.8278 46.3954 56.1096C46.9605 55.3915 47.2431 54.5791 47.2431 53.6373V53.6255C47.2431 52.4717 46.8192 51.5063 45.9833 50.7292C45.1356 49.9404 43.7699 49.34 41.8627 48.9162L38.8016 48.2451C36.965 47.8448 35.4698 47.2797 34.2924 46.5733C33.1269 45.8669 32.2674 45.0074 31.7141 43.9949C31.1607 42.9824 30.8782 41.8051 30.8782 40.4747V40.4629C30.8899 38.9324 31.3138 37.5785 32.1379 36.4011C32.962 35.2356 34.104 34.3173 35.5639 33.6462C37.0238 32.9869 38.6956 32.6572 40.6029 32.6572C42.4395 32.6572 44.0643 32.9869 45.4771 33.6462C46.8899 34.3055 48.0201 35.1767 48.856 36.2952C49.6919 37.4019 50.1511 38.6381 50.2452 40.0273L50.2688 40.2863H46.8192L46.7839 40.0391C46.6544 39.2267 46.3247 38.4968 45.7832 37.8728C45.2534 37.237 44.5352 36.7426 43.6404 36.3658C42.7456 36.0008 41.7096 35.8242 40.5087 35.836C39.3549 35.836 38.3307 36.0126 37.4123 36.3658C36.494 36.719 35.7523 37.237 35.2107 37.9081C34.6692 38.5792 34.3984 39.3916 34.3984 40.3687V40.3805C34.3984 41.1105 34.5868 41.7698 34.94 42.3467C35.2932 42.9235 35.8583 43.4298 36.6353 43.8419C37.4006 44.2657 38.4131 44.6189 39.661 44.9015L42.7221 45.5843C44.6529 46.0082 46.1952 46.5615 47.3726 47.2326C48.5499 47.9154 49.4093 48.7396 49.9509 49.7167C50.4925 50.6939 50.7633 51.8359 50.7633 53.1663V53.1899C50.7633 54.9088 50.3394 56.3922 49.4918 57.6402C48.6558 58.8881 47.4667 59.8536 45.9362 60.5364C44.4057 61.2193 42.6161 61.5607 40.5676 61.5607Z" fill="white"/>
<path d="M63.4181 60.9121V36.4001H54.5293V33.3037H75.7566V36.4001H66.8677V60.9121H63.4181Z" fill="white"/>
<path d="M80.8457 60.9121V33.3037H97.9523V36.4001H84.2953V45.2654H97.2459V48.3264H84.2953V57.8157H97.9523V60.9121H80.8457Z" fill="white"/>
<path d="M105.684 51.0579V47.9968H113.489C115.467 47.9968 116.998 47.4905 118.081 46.4545C119.164 45.4302 119.706 44.0174 119.706 42.2043V42.169C119.706 40.3441 119.164 38.9196 118.081 37.8953C116.998 36.871 115.467 36.3648 113.489 36.3648H105.684V33.3037H114.372C116.103 33.3037 117.634 33.6805 118.964 34.4104C120.294 35.1521 121.33 36.1882 122.096 37.5186C122.849 38.8372 123.226 40.3795 123.226 42.1219V42.169C123.226 43.9115 122.849 45.4538 122.096 46.7959C121.33 48.1381 120.294 49.1741 118.964 49.9276C117.634 50.6811 116.103 51.0579 114.372 51.0579H105.684ZM103.965 60.9121V33.3037H107.414V60.9121H103.965Z" fill="white"/>
<path d="M139.581 60.9132V58.5349L148.917 48.4335C150.083 47.1619 151.001 46.1141 151.672 45.2782C152.331 44.4423 152.791 43.677 153.061 43.006C153.332 42.3349 153.462 41.5932 153.462 40.7808V40.7455C153.462 39.7801 153.262 38.9089 152.838 38.1436C152.414 37.3783 151.813 36.7779 151.036 36.3305C150.259 35.8831 149.329 35.6594 148.246 35.6594C147.151 35.6594 146.186 35.8831 145.35 36.3423C144.526 36.7897 143.878 37.4254 143.419 38.2378C142.96 39.0384 142.736 39.992 142.736 41.0751L142.713 41.1105L139.428 41.0869L139.381 41.0751C139.393 39.4386 139.793 37.9905 140.57 36.719C141.347 35.4475 142.418 34.4585 143.784 33.7404C145.15 33.0222 146.716 32.6572 148.47 32.6572C150.083 32.6572 151.531 32.9869 152.814 33.658C154.109 34.329 155.122 35.2474 155.863 36.4011C156.617 37.5667 156.982 38.8971 156.982 40.3805V40.4276C156.982 41.4754 156.805 42.4762 156.44 43.4416C156.075 44.4188 155.44 45.4901 154.521 46.6675C153.603 47.8448 152.308 49.3047 150.636 51.0236L143.502 58.3937L144.361 56.8043V58.3937L143.513 57.8168H157.441V60.9132H139.581Z" fill="white"/>
<path d="M39.0571 157.663C39.0571 159.029 38.5862 160.183 37.6208 161.136C36.6671 162.09 35.5133 162.561 34.1594 162.561C32.7819 162.561 31.6282 162.09 30.6863 161.136C29.7444 160.183 29.2617 159.029 29.2617 157.663C29.2617 156.298 29.7327 155.144 30.6863 154.19C31.6282 153.237 32.7819 152.766 34.1594 152.766C35.5133 152.766 36.6671 153.248 37.6208 154.202C38.5744 155.156 39.0571 156.309 39.0571 157.663Z" fill="#F5F5F5"/>
<path d="M49.9634 168.836C51.2349 168.707 52.1061 168.46 52.5535 168.059C53.0009 167.671 53.2364 166.906 53.2364 165.764V145.631C53.2364 144.725 53.1539 144.101 53.0009 143.759C52.7301 143.182 52.1768 142.9 51.3409 142.9C51.1407 142.9 50.9406 142.923 50.7051 142.959C50.4814 142.994 50.1988 143.065 49.8574 143.147V142.464C51.7058 141.97 53.9428 141.31 56.5564 140.486C56.6506 140.486 56.7095 140.522 56.7213 140.616C56.7448 140.698 56.7566 140.875 56.7566 141.146V165.846C56.7566 167.047 56.9567 167.812 57.3806 168.165C57.7926 168.519 58.6403 168.742 59.9236 168.836V169.413H49.9634V168.836Z" fill="#F5F5F5"/>
<path d="M64.2739 142.82C64.2739 142.231 64.4859 141.713 64.8861 141.289C65.2982 140.865 65.8162 140.653 66.4167 140.653C67.0053 140.653 67.5116 140.865 67.9354 141.277C68.3475 141.701 68.5594 142.207 68.5594 142.82C68.5594 143.408 68.3475 143.915 67.9354 144.327C67.5116 144.75 67.0053 144.962 66.4167 144.962C65.8162 144.962 65.31 144.75 64.8861 144.327C64.4741 143.915 64.2739 143.408 64.2739 142.82ZM61.6367 168.839C63.1084 168.697 64.0385 168.45 64.4152 168.085C64.8037 167.72 64.9921 166.731 64.9921 165.13V155.299C64.9921 154.405 64.9332 153.792 64.8155 153.451C64.6036 152.886 64.168 152.603 63.5087 152.603C63.3556 152.603 63.2143 152.615 63.0731 152.65C62.9318 152.674 62.5079 152.78 61.8251 152.98V152.332L62.7081 152.05C65.1098 151.261 66.7934 150.672 67.7353 150.272C68.1238 150.107 68.371 150.025 68.477 150.025C68.5006 150.119 68.5123 150.225 68.5123 150.343V165.13C68.5123 166.696 68.7125 167.673 69.0892 168.073C69.466 168.474 70.3136 168.733 71.644 168.839V169.415H61.6367V168.839Z" fill="#F5F5F5"/>
<path d="M73.2188 168.873C74.2901 168.779 74.9965 168.602 75.3615 168.343C75.9031 167.943 76.1856 167.154 76.1856 165.953V155.298C76.1856 154.286 76.0443 153.615 75.7853 153.309C75.5145 152.991 75.0672 152.826 74.4549 152.826C74.1606 152.826 73.9487 152.838 73.8074 152.873C73.6661 152.897 73.4895 152.944 73.3012 153.014V152.296L74.7846 151.802C75.3144 151.625 76.1974 151.295 77.4218 150.836C78.6462 150.365 79.282 150.13 79.3526 150.13C79.4233 150.13 79.4704 150.165 79.4821 150.236C79.4939 150.306 79.5057 150.436 79.5057 150.624V153.403C80.8596 152.167 82.037 151.319 83.0259 150.836C84.0149 150.365 85.0274 150.13 86.0752 150.13C87.488 150.13 88.6182 150.613 89.4541 151.566C89.8897 152.096 90.2547 152.802 90.549 153.697C91.5616 152.661 92.4446 151.896 93.198 151.401C94.5049 150.554 95.8353 150.13 97.201 150.13C99.4143 150.13 100.886 151.025 101.628 152.826C102.052 153.85 102.263 155.451 102.263 157.653V166.2C102.263 167.178 102.487 167.837 102.911 168.19C103.347 168.543 104.124 168.767 105.254 168.873V169.415H95.9648V168.838C97.1539 168.732 97.9427 168.484 98.3194 168.119C98.6962 167.743 98.8846 166.989 98.8846 165.847V156.97C98.8846 155.64 98.7433 154.651 98.4607 154.027C97.9427 152.897 96.9537 152.331 95.4703 152.331C94.5755 152.331 93.6925 152.626 92.8095 153.214C92.3033 153.568 91.6793 154.109 90.9376 154.863V165.412C90.9376 166.53 91.1259 167.378 91.5262 167.955C91.9148 168.532 92.7389 168.838 94.0104 168.873V169.415H84.5447V168.873C85.8515 168.708 86.6874 168.402 87.0406 167.931C87.3938 167.46 87.5822 166.318 87.5822 164.493V158.724C87.5822 156.605 87.4409 155.145 87.1583 154.356C86.711 153.003 85.7455 152.331 84.2857 152.331C83.438 152.331 82.6138 152.567 81.8133 153.026C81.0009 153.485 80.2827 154.086 79.6705 154.827V166.094C79.6705 167.142 79.8471 167.86 80.2121 168.261C80.5771 168.661 81.3659 168.861 82.5903 168.873V169.415H73.2188V168.873Z" fill="#F5F5F5"/>
<path d="M105.521 175.146C105.521 174.757 105.639 174.487 105.875 174.334C106.11 174.169 106.346 174.086 106.593 174.086C106.711 174.086 106.828 174.098 106.946 174.133C107.064 174.169 107.182 174.228 107.323 174.31L107.829 174.581C107.9 174.628 107.97 174.652 108.029 174.663C108.1 174.675 108.17 174.687 108.241 174.687C108.488 174.687 108.677 174.628 108.806 174.498C108.936 174.381 109.277 173.957 109.819 173.227C110.184 172.744 111.008 171.579 112.279 169.73C112.279 169.66 112.173 169.13 111.95 168.153C111.726 167.175 111.514 166.34 111.326 165.657C111.149 164.962 110.984 164.515 110.831 164.291C110.69 164.067 110.419 163.961 110.019 163.961C109.878 163.961 109.607 164.008 109.207 164.114C108.959 164.173 108.689 164.232 108.394 164.315L108.265 163.867L109.878 163.302C110.301 163.161 110.69 163.043 111.043 162.961C111.396 162.866 111.702 162.819 111.961 162.819C112.374 162.819 112.68 162.949 112.88 163.184C113.198 163.573 113.457 164.35 113.669 165.504L113.975 167.164C114.858 165.822 115.541 164.88 116.023 164.326C116.459 163.832 116.883 163.467 117.271 163.22C117.66 162.972 118.037 162.855 118.378 162.855C118.708 162.855 118.978 162.902 119.19 162.996C119.555 163.173 119.744 163.502 119.744 163.997C119.744 164.326 119.649 164.585 119.461 164.774C119.273 164.95 119.037 165.044 118.743 165.044C118.637 165.044 118.543 165.033 118.437 165.009C118.343 164.986 118.237 164.95 118.131 164.903L117.754 164.738C117.648 164.691 117.542 164.644 117.448 164.621C117.354 164.585 117.271 164.562 117.224 164.562C116.789 164.562 116.176 165.127 115.399 166.269C114.622 167.399 114.222 168.058 114.222 168.235C114.222 168.376 114.316 168.859 114.493 169.66C114.681 170.46 114.881 171.32 115.093 172.214C115.282 173.062 115.446 173.651 115.588 173.969C115.811 174.498 116.07 174.757 116.353 174.757C116.612 174.757 116.883 174.616 117.154 174.322C117.424 174.028 117.836 173.498 118.378 172.744L118.79 172.991C118.366 173.757 117.942 174.404 117.495 174.934C116.647 175.947 115.835 176.453 115.058 176.453C114.575 176.453 114.187 176.217 113.904 175.758C113.739 175.487 113.574 175.028 113.421 174.404L112.515 170.79L109.513 174.734C108.936 175.417 108.477 175.876 108.159 176.111C107.841 176.347 107.452 176.453 106.981 176.453C106.357 176.453 105.934 176.264 105.71 175.876C105.58 175.664 105.521 175.429 105.521 175.146Z" fill="#F5F5F5"/>
<path d="M120.098 168.461H136.145L132.86 164.517L133.708 163.634L139.017 169.191L133.708 174.736L132.86 173.853L136.145 169.874H120.098V168.461Z" fill="#F5F5F5"/>
<path d="M146.682 175.595C148.119 175.595 149.096 174.806 149.638 173.24C150.167 171.674 150.438 169.402 150.438 166.423C150.438 164.057 150.273 162.161 149.955 160.749C149.355 158.111 148.225 156.793 146.565 156.793C144.905 156.793 143.774 158.158 143.15 160.866C142.833 162.303 142.668 164.21 142.668 166.565C142.668 168.778 142.833 170.556 143.174 171.874C143.798 174.358 144.964 175.595 146.682 175.595ZM146.635 156.004C148.884 156.004 150.615 157.181 151.863 159.536C152.84 161.431 153.334 163.621 153.334 166.082C153.334 168.024 153.028 169.861 152.428 171.568C151.286 174.794 149.308 176.419 146.506 176.419C144.587 176.419 143.009 175.536 141.761 173.793C140.443 171.933 139.771 169.402 139.771 166.2C139.771 163.692 140.219 161.526 141.102 159.712C142.303 157.24 144.151 156.004 146.635 156.004Z" fill="#F5F5F5"/>
<path d="M178.04 175.362L177.569 176.08C174.119 173.89 171.718 171.359 170.34 168.475C169.175 166.026 168.598 162.871 168.598 158.985C168.598 155.748 169.245 152.875 170.552 150.379C171.506 148.519 172.812 146.871 174.473 145.446C175.485 144.681 176.509 143.916 177.534 143.162L177.969 143.833C173.813 146.988 171.729 152.051 171.729 159.033C171.729 163.553 172.306 167.156 173.448 169.84C174.437 172.148 175.968 173.985 178.04 175.362Z" fill="#F5F5F5"/>
<path d="M180.875 162.926H181.546C181.864 164.492 182.288 165.693 182.83 166.529C183.795 168.071 185.196 168.837 187.044 168.837C188.08 168.837 188.893 168.554 189.493 167.977C190.094 167.412 190.388 166.67 190.388 165.764C190.388 165.187 190.211 164.634 189.87 164.092C189.529 163.562 188.928 163.044 188.057 162.538L185.749 161.219C184.066 160.313 182.818 159.394 182.029 158.476C181.228 157.558 180.828 156.463 180.828 155.215C180.828 153.684 181.381 152.413 182.476 151.424C183.571 150.435 184.961 149.94 186.621 149.94C187.351 149.94 188.151 150.082 189.022 150.352C189.894 150.623 190.376 150.765 190.494 150.765C190.741 150.765 190.918 150.729 191.024 150.67C191.142 150.6 191.236 150.482 191.318 150.341H191.813L191.954 156.086H191.318C191.047 154.756 190.671 153.708 190.2 152.978C189.352 151.6 188.128 150.906 186.515 150.906C185.549 150.906 184.796 151.212 184.242 151.801C183.701 152.389 183.418 153.084 183.418 153.873C183.418 155.144 184.372 156.274 186.267 157.263L188.987 158.723C191.919 160.313 193.378 162.173 193.378 164.28C193.378 165.905 192.766 167.224 191.554 168.26C190.341 169.296 188.752 169.802 186.785 169.802C185.961 169.802 185.019 169.672 183.983 169.39C182.936 169.119 182.323 168.978 182.123 168.978C181.958 168.978 181.817 169.037 181.699 169.154C181.57 169.272 181.476 169.413 181.405 169.578H180.875V162.926Z" fill="#F5F5F5"/>
<path d="M198.567 142.82C198.567 142.231 198.779 141.713 199.179 141.289C199.591 140.865 200.109 140.653 200.71 140.653C201.298 140.653 201.805 140.865 202.228 141.277C202.64 141.701 202.852 142.207 202.852 142.82C202.852 143.408 202.64 143.915 202.228 144.327C201.805 144.75 201.298 144.962 200.71 144.962C200.109 144.962 199.603 144.75 199.179 144.327C198.767 143.915 198.567 143.408 198.567 142.82ZM195.93 168.839C197.401 168.697 198.331 168.45 198.708 168.085C199.097 167.72 199.285 166.731 199.285 165.13V155.299C199.285 154.405 199.226 153.792 199.108 153.451C198.897 152.886 198.461 152.603 197.802 152.603C197.649 152.603 197.507 152.615 197.366 152.65C197.225 152.674 196.801 152.78 196.118 152.98V152.332L197.001 152.05C199.403 151.261 201.086 150.672 202.028 150.272C202.417 150.107 202.664 150.025 202.77 150.025C202.794 150.119 202.805 150.225 202.805 150.343V165.13C202.805 166.696 203.005 167.673 203.382 168.073C203.759 168.474 204.607 168.733 205.937 168.839V169.415H195.93V168.839Z" fill="#F5F5F5"/>
<path d="M207.594 168.837C208.571 168.708 209.254 168.472 209.643 168.107C210.031 167.742 210.231 166.93 210.231 165.67V155.216C210.231 154.344 210.149 153.72 209.984 153.367C209.725 152.837 209.184 152.578 208.371 152.578C208.253 152.578 208.124 152.59 207.994 152.602C207.865 152.614 207.7 152.637 207.512 152.661V151.943C208.077 151.778 209.407 151.354 211.503 150.671L213.445 150.023C213.54 150.023 213.599 150.059 213.622 150.129C213.634 150.2 213.646 150.294 213.646 150.412V153.45C214.905 152.272 215.906 151.46 216.612 151.012C217.684 150.341 218.802 150.012 219.956 150.012C220.886 150.012 221.734 150.271 222.511 150.812C223.994 151.848 224.736 153.709 224.736 156.393V166.012C224.736 167.001 224.936 167.719 225.336 168.154C225.737 168.59 226.396 168.825 227.326 168.837V169.414H218.532V168.837C219.532 168.696 220.239 168.425 220.627 168.001C221.027 167.577 221.228 166.671 221.228 165.27V156.475C221.228 155.298 221.016 154.321 220.568 153.544C220.133 152.767 219.32 152.378 218.143 152.378C217.331 152.378 216.507 152.649 215.671 153.202C215.2 153.52 214.599 154.038 213.858 154.768V166.306C213.858 167.295 214.069 167.954 214.517 168.296C214.952 168.625 215.647 168.814 216.601 168.837V169.414H207.594V168.837Z" fill="#F5F5F5"/>
<path d="M238.3 175.362L237.829 176.08C234.379 173.89 231.977 171.359 230.6 168.475C229.434 166.026 228.857 162.871 228.857 158.985C228.857 155.748 229.505 152.875 230.812 150.379C231.765 148.519 233.072 146.871 234.732 145.446C235.745 144.681 236.769 143.916 237.793 143.162L238.229 143.833C234.073 146.988 231.989 152.051 231.989 159.033C231.989 163.553 232.566 167.156 233.708 169.84C234.697 172.148 236.228 173.985 238.3 175.362Z" fill="#F5F5F5"/>
<path d="M237.795 168.015C237.795 167.485 237.96 167.097 238.289 166.873C238.619 166.649 238.96 166.531 239.302 166.531C239.467 166.531 239.632 166.555 239.796 166.602C239.961 166.649 240.138 166.732 240.338 166.838L241.056 167.226C241.15 167.285 241.244 167.32 241.327 167.344C241.421 167.367 241.515 167.379 241.633 167.379C241.974 167.379 242.233 167.285 242.422 167.12C242.61 166.944 243.081 166.343 243.858 165.319C244.364 164.648 245.518 162.999 247.32 160.398C247.32 160.303 247.155 159.562 246.837 158.172C246.531 156.795 246.236 155.629 245.977 154.664C245.718 153.687 245.483 153.051 245.283 152.733C245.071 152.427 244.682 152.274 244.129 152.274C243.929 152.274 243.552 152.345 242.987 152.486C242.634 152.568 242.245 152.663 241.833 152.768L241.657 152.133L243.941 151.344C244.529 151.144 245.071 150.979 245.577 150.849C246.083 150.732 246.507 150.673 246.86 150.673C247.437 150.673 247.873 150.838 248.155 151.179C248.603 151.732 248.968 152.816 249.274 154.44L249.71 156.783C250.946 154.888 251.899 153.557 252.594 152.792C253.206 152.086 253.795 151.568 254.348 151.226C254.89 150.885 255.408 150.708 255.902 150.708C256.373 150.708 256.75 150.779 257.044 150.908C257.562 151.156 257.821 151.626 257.821 152.321C257.821 152.78 257.692 153.145 257.433 153.404C257.174 153.663 256.832 153.805 256.42 153.805C256.267 153.805 256.126 153.781 255.996 153.746C255.855 153.71 255.714 153.663 255.561 153.593L255.019 153.369C254.866 153.298 254.725 153.239 254.584 153.192C254.454 153.145 254.348 153.122 254.278 153.122C253.665 153.122 252.806 153.922 251.711 155.523C250.604 157.125 250.063 158.043 250.063 158.29C250.063 158.49 250.18 159.161 250.439 160.303C250.698 161.434 250.969 162.635 251.275 163.894C251.546 165.083 251.782 165.908 251.97 166.367C252.288 167.108 252.641 167.485 253.041 167.485C253.418 167.485 253.795 167.273 254.183 166.861C254.56 166.449 255.137 165.707 255.902 164.636L256.491 164.989C255.902 166.061 255.278 166.967 254.654 167.721C253.453 169.157 252.311 169.863 251.228 169.863C250.545 169.863 250.004 169.534 249.604 168.874C249.368 168.498 249.144 167.862 248.921 166.991L247.649 161.893L243.423 167.438C242.598 168.403 241.963 169.039 241.515 169.369C241.068 169.699 240.515 169.863 239.855 169.863C238.972 169.863 238.384 169.593 238.066 169.039C237.889 168.757 237.795 168.415 237.795 168.015Z" fill="#F5F5F5"/>
<path d="M267.671 158.985C267.671 162.871 267.094 166.026 265.928 168.475C264.563 171.359 262.149 173.89 258.7 176.08L258.217 175.362C260.301 173.985 261.831 172.148 262.832 169.84C263.962 167.156 264.527 163.553 264.527 159.033C264.527 152.051 262.455 146.988 258.311 143.833L258.735 143.162C259.759 143.916 260.772 144.681 261.796 145.446C263.468 146.871 264.775 148.519 265.74 150.379C267.023 152.875 267.671 155.748 267.671 158.985Z" fill="#F5F5F5"/>
<path d="M300.8 160.445H280.727V158.243H300.8V160.445Z" fill="#F5F5F5"/>
<path d="M310.145 168.015C310.145 167.485 310.309 167.097 310.639 166.873C310.969 166.649 311.31 166.531 311.652 166.531C311.816 166.531 311.981 166.555 312.146 166.602C312.311 166.649 312.487 166.732 312.688 166.838L313.406 167.226C313.5 167.285 313.594 167.32 313.677 167.344C313.771 167.367 313.865 167.379 313.983 167.379C314.324 167.379 314.583 167.285 314.771 167.12C314.96 166.944 315.431 166.343 316.208 165.319C316.714 164.648 317.868 162.999 319.669 160.398C319.669 160.303 319.504 159.562 319.186 158.172C318.88 156.795 318.586 155.629 318.327 154.664C318.068 153.687 317.832 153.051 317.632 152.733C317.42 152.427 317.032 152.274 316.479 152.274C316.278 152.274 315.902 152.345 315.337 152.486C314.983 152.568 314.595 152.663 314.183 152.768L314.006 152.133L316.29 151.344C316.879 151.144 317.42 150.979 317.927 150.849C318.433 150.732 318.857 150.673 319.21 150.673C319.787 150.673 320.222 150.838 320.505 151.179C320.952 151.732 321.317 152.816 321.624 154.44L322.059 156.783C323.295 154.888 324.249 153.557 324.944 152.792C325.556 152.086 326.144 151.568 326.698 151.226C327.239 150.885 327.757 150.708 328.252 150.708C328.723 150.708 329.1 150.779 329.394 150.908C329.912 151.156 330.171 151.626 330.171 152.321C330.171 152.78 330.041 153.145 329.782 153.404C329.523 153.663 329.182 153.805 328.77 153.805C328.617 153.805 328.476 153.781 328.346 153.746C328.205 153.71 328.063 153.663 327.91 153.593L327.369 153.369C327.216 153.298 327.075 153.239 326.933 153.192C326.804 153.145 326.698 153.122 326.627 153.122C326.015 153.122 325.155 153.922 324.061 155.523C322.954 157.125 322.412 158.043 322.412 158.29C322.412 158.49 322.53 159.161 322.789 160.303C323.048 161.434 323.319 162.635 323.625 163.894C323.896 165.083 324.131 165.908 324.32 166.367C324.637 167.108 324.991 167.485 325.391 167.485C325.768 167.485 326.144 167.273 326.533 166.861C326.91 166.449 327.487 165.707 328.252 164.636L328.841 164.989C328.252 166.061 327.628 166.967 327.004 167.721C325.803 169.157 324.661 169.863 323.578 169.863C322.895 169.863 322.353 169.534 321.953 168.874C321.718 168.498 321.494 167.862 321.27 166.991L319.999 161.893L315.772 167.438C314.948 168.403 314.312 169.039 313.865 169.369C313.418 169.699 312.864 169.863 312.205 169.863C311.322 169.863 310.733 169.593 310.415 169.039C310.239 168.757 310.145 168.415 310.145 168.015Z" fill="#F5F5F5"/>
<path d="M340.007 158.985C340.007 162.871 339.43 166.026 338.264 168.475C336.899 171.359 334.485 173.89 331.035 176.08L330.553 175.362C332.637 173.985 334.167 172.148 335.168 169.84C336.298 167.156 336.863 163.553 336.863 159.033C336.863 152.051 334.791 146.988 330.647 143.833L331.071 143.162C332.095 143.916 333.108 144.681 334.132 145.446C335.804 146.871 337.11 148.519 338.076 150.379C339.359 152.875 340.007 155.748 340.007 158.985Z" fill="#F5F5F5"/>
<path d="M377.625 156.71H351.982V154.449H377.625V156.71ZM377.625 164.668H351.982V162.396H377.625V164.668Z" fill="#F5F5F5"/>
<path d="M399.77 168.651C401.783 168.651 403.172 167.545 403.926 165.343C404.679 163.13 405.056 159.927 405.056 155.736C405.056 152.392 404.832 149.732 404.385 147.742C403.525 144.033 401.936 142.173 399.605 142.173C397.262 142.173 395.661 144.092 394.801 147.907C394.342 149.943 394.118 152.616 394.118 155.948C394.118 159.056 394.354 161.552 394.825 163.424C395.696 166.909 397.344 168.651 399.77 168.651ZM399.699 141.066C402.854 141.066 405.315 142.726 407.057 146.035C408.447 148.707 409.141 151.792 409.141 155.265C409.141 157.996 408.717 160.575 407.858 162.988C406.257 167.533 403.466 169.805 399.511 169.805C396.803 169.805 394.589 168.581 392.847 166.12C390.975 163.495 390.045 159.927 390.045 155.43C390.045 151.886 390.669 148.837 391.917 146.282C393.6 142.809 396.202 141.066 399.699 141.066Z" fill="#F5F5F5"/>
<path d="M39.0571 236.03C39.0571 237.395 38.5862 238.549 37.6208 239.503C36.6671 240.456 35.5133 240.927 34.1594 240.927C32.7819 240.927 31.6282 240.456 30.6863 239.503C29.7444 238.549 29.2617 237.395 29.2617 236.03C29.2617 234.664 29.7327 233.51 30.6863 232.556C31.6282 231.603 32.7819 231.132 34.1594 231.132C35.5133 231.132 36.6671 231.615 37.6208 232.568C38.5744 233.522 39.0571 234.676 39.0571 236.03Z" fill="#F5F5F5"/>
<path d="M49.9634 247.203C51.2349 247.073 52.1061 246.826 52.5535 246.426C53.0009 246.037 53.2364 245.272 53.2364 244.13V223.997C53.2364 223.091 53.1539 222.467 53.0009 222.126C52.7301 221.549 52.1768 221.266 51.3409 221.266C51.1407 221.266 50.9406 221.29 50.7051 221.325C50.4814 221.36 50.1988 221.431 49.8574 221.513V220.83C51.7058 220.336 53.9428 219.677 56.5564 218.853C56.6506 218.853 56.7095 218.888 56.7213 218.982C56.7448 219.064 56.7566 219.241 56.7566 219.512V244.212C56.7566 245.413 56.9567 246.178 57.3806 246.532C57.7926 246.885 58.6403 247.108 59.9236 247.203V247.78H49.9634V247.203Z" fill="#F5F5F5"/>
<path d="M64.2739 221.184C64.2739 220.595 64.4859 220.077 64.8861 219.653C65.2982 219.229 65.8162 219.018 66.4167 219.018C67.0053 219.018 67.5116 219.229 67.9354 219.642C68.3475 220.065 68.5594 220.572 68.5594 221.184C68.5594 221.773 68.3475 222.279 67.9354 222.691C67.5116 223.115 67.0053 223.327 66.4167 223.327C65.8162 223.327 65.31 223.115 64.8861 222.691C64.4741 222.279 64.2739 221.773 64.2739 221.184ZM61.6367 247.203C63.1084 247.062 64.0385 246.814 64.4152 246.449C64.8037 246.084 64.9921 245.095 64.9921 243.494V233.664C64.9921 232.769 64.9332 232.157 64.8155 231.815C64.6036 231.25 64.168 230.967 63.5087 230.967C63.3556 230.967 63.2143 230.979 63.0731 231.015C62.9318 231.038 62.5079 231.144 61.8251 231.344V230.697L62.7081 230.414C65.1098 229.625 66.7934 229.037 67.7353 228.636C68.1238 228.472 68.371 228.389 68.477 228.389C68.5006 228.483 68.5123 228.589 68.5123 228.707V243.494C68.5123 245.06 68.7125 246.037 69.0892 246.438C69.466 246.838 70.3136 247.097 71.644 247.203V247.78H61.6367V247.203Z" fill="#F5F5F5"/>
<path d="M73.2188 247.237C74.2901 247.143 74.9965 246.966 75.3615 246.707C75.9031 246.307 76.1856 245.518 76.1856 244.317V233.663C76.1856 232.65 76.0443 231.979 75.7853 231.673C75.5145 231.355 75.0672 231.19 74.4549 231.19C74.1606 231.19 73.9487 231.202 73.8074 231.237C73.6661 231.261 73.4895 231.308 73.3012 231.379V230.66L74.7846 230.166C75.3144 229.989 76.1974 229.66 77.4218 229.201C78.6462 228.73 79.282 228.494 79.3526 228.494C79.4233 228.494 79.4704 228.529 79.4821 228.6C79.4939 228.671 79.5057 228.8 79.5057 228.989V231.767C80.8596 230.531 82.037 229.683 83.0259 229.201C84.0149 228.73 85.0274 228.494 86.0752 228.494C87.488 228.494 88.6182 228.977 89.4541 229.93C89.8897 230.46 90.2547 231.167 90.549 232.061C91.5616 231.025 92.4446 230.26 93.198 229.766C94.5049 228.918 95.8353 228.494 97.201 228.494C99.4143 228.494 100.886 229.389 101.628 231.19C102.052 232.215 102.263 233.816 102.263 236.017V244.565C102.263 245.542 102.487 246.201 102.911 246.554C103.347 246.908 104.124 247.131 105.254 247.237V247.779H95.9648V247.202C97.1539 247.096 97.9427 246.849 98.3194 246.484C98.6962 246.107 98.8846 245.354 98.8846 244.211V235.334C98.8846 234.004 98.7433 233.015 98.4607 232.391C97.9427 231.261 96.9537 230.696 95.4703 230.696C94.5755 230.696 93.6925 230.99 92.8095 231.579C92.3033 231.932 91.6793 232.474 90.9376 233.227V243.776C90.9376 244.894 91.1259 245.742 91.5262 246.319C91.9148 246.896 92.7389 247.202 94.0104 247.237V247.779H84.5447V247.237C85.8515 247.072 86.6874 246.766 87.0406 246.295C87.3938 245.824 87.5822 244.682 87.5822 242.858V237.089C87.5822 234.969 87.4409 233.51 87.1583 232.721C86.711 231.367 85.7455 230.696 84.2857 230.696C83.438 230.696 82.6138 230.931 81.8133 231.39C81.0009 231.85 80.2827 232.45 79.6705 233.192V244.459C79.6705 245.507 79.8471 246.225 80.2121 246.625C80.5771 247.025 81.3659 247.225 82.5903 247.237V247.779H73.2188V247.237Z" fill="#F5F5F5"/>
<path d="M105.521 253.512C105.521 253.124 105.639 252.853 105.875 252.7C106.11 252.535 106.346 252.453 106.593 252.453C106.711 252.453 106.828 252.464 106.946 252.5C107.064 252.535 107.182 252.594 107.323 252.676L107.829 252.947C107.9 252.994 107.97 253.018 108.029 253.029C108.1 253.041 108.17 253.053 108.241 253.053C108.488 253.053 108.677 252.994 108.806 252.865C108.936 252.747 109.277 252.323 109.819 251.593C110.184 251.11 111.008 249.945 112.279 248.096C112.279 248.026 112.173 247.496 111.95 246.519C111.726 245.542 111.514 244.706 111.326 244.023C111.149 243.328 110.984 242.881 110.831 242.657C110.69 242.434 110.419 242.328 110.019 242.328C109.878 242.328 109.607 242.375 109.207 242.481C108.959 242.539 108.689 242.598 108.394 242.681L108.265 242.233L109.878 241.668C110.301 241.527 110.69 241.409 111.043 241.327C111.396 241.233 111.702 241.186 111.961 241.186C112.374 241.186 112.68 241.315 112.88 241.551C113.198 241.939 113.457 242.716 113.669 243.87L113.975 245.53C114.858 244.188 115.541 243.246 116.023 242.693C116.459 242.198 116.883 241.833 117.271 241.586C117.66 241.339 118.037 241.221 118.378 241.221C118.708 241.221 118.978 241.268 119.19 241.362C119.555 241.539 119.744 241.868 119.744 242.363C119.744 242.693 119.649 242.952 119.461 243.14C119.273 243.317 119.037 243.411 118.743 243.411C118.637 243.411 118.543 243.399 118.437 243.375C118.343 243.352 118.237 243.317 118.131 243.269L117.754 243.105C117.648 243.058 117.542 243.01 117.448 242.987C117.354 242.952 117.271 242.928 117.224 242.928C116.789 242.928 116.176 243.493 115.399 244.635C114.622 245.765 114.222 246.425 114.222 246.601C114.222 246.743 114.316 247.225 114.493 248.026C114.681 248.826 114.881 249.686 115.093 250.581C115.282 251.428 115.446 252.017 115.588 252.335C115.811 252.865 116.07 253.124 116.353 253.124C116.612 253.124 116.883 252.982 117.154 252.688C117.424 252.394 117.836 251.864 118.378 251.11L118.79 251.358C118.366 252.123 117.942 252.77 117.495 253.3C116.647 254.313 115.835 254.819 115.058 254.819C114.575 254.819 114.187 254.584 113.904 254.124C113.739 253.854 113.574 253.394 113.421 252.77L112.515 249.156L109.513 253.1C108.936 253.783 108.477 254.242 108.159 254.478C107.841 254.713 107.452 254.819 106.981 254.819C106.357 254.819 105.934 254.631 105.71 254.242C105.58 254.03 105.521 253.795 105.521 253.512Z" fill="#F5F5F5"/>
<path d="M120.098 246.82H136.145L132.86 242.876L133.708 241.993L139.017 247.55L133.708 253.095L132.86 252.212L136.145 248.233H120.098V246.82Z" fill="#F5F5F5"/>
<path d="M146.682 253.96C148.119 253.96 149.096 253.171 149.638 251.605C150.167 250.039 150.438 247.767 150.438 244.789C150.438 242.422 150.273 240.527 149.955 239.114C149.355 236.477 148.225 235.158 146.565 235.158C144.905 235.158 143.774 236.524 143.15 239.232C142.833 240.668 142.668 242.575 142.668 244.93C142.668 247.143 142.833 248.921 143.174 250.24C143.798 252.724 144.964 253.96 146.682 253.96ZM146.635 234.369C148.884 234.369 150.615 235.546 151.863 237.901C152.84 239.797 153.334 241.986 153.334 244.447C153.334 246.39 153.028 248.226 152.428 249.933C151.286 253.159 149.308 254.784 146.506 254.784C144.587 254.784 143.009 253.901 141.761 252.159C140.443 250.298 139.771 247.767 139.771 244.565C139.771 242.057 140.219 239.891 141.102 238.078C142.303 235.605 144.151 234.369 146.635 234.369Z" fill="#F5F5F5"/>
<path d="M165.461 246.378C165.461 245.848 165.626 245.46 165.955 245.236C166.285 245.013 166.626 244.895 166.968 244.895C167.133 244.895 167.298 244.918 167.462 244.965C167.627 245.013 167.804 245.095 168.004 245.201L168.722 245.589C168.816 245.648 168.911 245.684 168.993 245.707C169.087 245.731 169.181 245.742 169.299 245.742C169.64 245.742 169.899 245.648 170.088 245.483C170.276 245.307 170.747 244.706 171.524 243.682C172.03 243.011 173.184 241.363 174.986 238.761C174.986 238.667 174.821 237.925 174.503 236.536C174.197 235.158 173.902 233.993 173.643 233.027C173.384 232.05 173.149 231.414 172.949 231.096C172.737 230.79 172.348 230.637 171.795 230.637C171.595 230.637 171.218 230.708 170.653 230.849C170.3 230.932 169.911 231.026 169.499 231.132L169.323 230.496L171.607 229.707C172.195 229.507 172.737 229.342 173.243 229.213C173.749 229.095 174.173 229.036 174.526 229.036C175.103 229.036 175.539 229.201 175.821 229.542C176.269 230.096 176.634 231.179 176.94 232.804L177.376 235.146C178.612 233.251 179.565 231.921 180.26 231.155C180.872 230.449 181.461 229.931 182.014 229.589C182.556 229.248 183.074 229.071 183.568 229.071C184.039 229.071 184.416 229.142 184.71 229.272C185.228 229.519 185.487 229.99 185.487 230.684C185.487 231.144 185.358 231.509 185.099 231.768C184.84 232.027 184.498 232.168 184.086 232.168C183.933 232.168 183.792 232.144 183.662 232.109C183.521 232.074 183.38 232.027 183.227 231.956L182.685 231.732C182.532 231.662 182.391 231.603 182.25 231.556C182.12 231.509 182.014 231.485 181.944 231.485C181.331 231.485 180.472 232.286 179.377 233.887C178.27 235.488 177.729 236.406 177.729 236.653C177.729 236.854 177.846 237.525 178.105 238.667C178.364 239.797 178.635 240.998 178.941 242.258C179.212 243.447 179.448 244.271 179.636 244.73C179.954 245.472 180.307 245.848 180.707 245.848C181.084 245.848 181.461 245.636 181.849 245.224C182.226 244.812 182.803 244.071 183.568 242.999L184.157 243.352C183.568 244.424 182.944 245.33 182.32 246.084C181.119 247.52 179.977 248.227 178.894 248.227C178.211 248.227 177.67 247.897 177.27 247.238C177.034 246.861 176.81 246.225 176.587 245.354L175.315 240.256L171.089 245.801C170.264 246.767 169.629 247.402 169.181 247.732C168.734 248.062 168.181 248.227 167.521 248.227C166.638 248.227 166.05 247.956 165.732 247.402C165.555 247.12 165.461 246.778 165.461 246.378Z" fill="#F5F5F5"/>
<path d="M187.044 230.09C187.574 230.09 188.28 230.361 189.163 230.926C190.046 231.479 190.799 231.75 191.412 231.75C192.777 231.75 193.79 231.291 194.461 230.373C195.12 229.454 195.45 228.453 195.45 227.37C195.45 226.323 195.179 225.404 194.649 224.615C193.743 223.285 192.212 222.614 190.058 222.614C189.928 222.614 189.799 222.614 189.681 222.626C189.563 222.626 189.434 222.637 189.281 222.661L189.245 222.272C190.811 221.707 192.036 221.06 192.93 220.33C193.825 219.6 194.284 218.635 194.284 217.434C194.284 216.374 193.931 215.562 193.225 215.008C192.518 214.455 191.706 214.172 190.799 214.172C189.728 214.172 188.774 214.573 187.962 215.362C187.515 215.785 187.032 216.445 186.514 217.351L186.055 217.245C186.443 215.762 187.173 214.573 188.233 213.69C189.304 212.807 190.529 212.359 191.93 212.359C193.413 212.359 194.567 212.771 195.379 213.584C196.192 214.408 196.604 215.35 196.604 216.421C196.604 217.375 196.274 218.234 195.591 219.023C195.214 219.47 194.626 219.977 193.825 220.53C194.767 220.93 195.509 221.401 196.074 221.943C197.145 222.967 197.675 224.262 197.675 225.828C197.675 227.688 196.945 229.313 195.485 230.726C194.025 232.139 191.953 232.857 189.257 232.857C188.056 232.857 187.22 232.68 186.738 232.315C186.255 231.962 186.02 231.585 186.02 231.173C186.02 230.914 186.09 230.679 186.255 230.443C186.42 230.208 186.679 230.09 187.044 230.09Z" fill="#F5F5F5"/>
<path d="M238.994 235.075H213.352V232.814H238.994V235.075ZM238.994 243.034H213.352V240.761H238.994V243.034Z" fill="#F5F5F5"/>
<path d="M261.133 247.012C263.146 247.012 264.535 245.905 265.289 243.703C266.042 241.49 266.419 238.288 266.419 234.096C266.419 230.753 266.195 228.092 265.748 226.102C264.889 222.394 263.299 220.533 260.968 220.533C258.625 220.533 257.024 222.452 256.165 226.267C255.705 228.304 255.482 230.976 255.482 234.308C255.482 237.416 255.717 239.912 256.188 241.784C257.059 245.269 258.708 247.012 261.133 247.012ZM261.062 219.427C264.218 219.427 266.678 221.087 268.421 224.395C269.81 227.068 270.505 230.152 270.505 233.625C270.505 236.357 270.081 238.935 269.221 241.349C267.62 245.893 264.83 248.165 260.874 248.165C258.166 248.165 255.953 246.941 254.21 244.48C252.338 241.855 251.408 238.288 251.408 233.79C251.408 230.246 252.032 227.197 253.28 224.642C254.964 221.169 257.566 219.427 261.062 219.427Z" fill="#F5F5F5"/>
<path d="M27.2148 85.3926H476.787V88.566H27.2148V85.3926Z" fill="#DEDEDE" fill-opacity="0.12"/>
</g>
<defs>
<clipPath id="clip0_11284_209063">
<rect width="504" height="328" fill="white"/>
</clipPath>
</defs>
</svg>
