<svg width="504" height="328" viewBox="0 0 504 328" fill="none" xmlns="http://www.w3.org/2000/svg">
<g clip-path="url(#clip0_11284_209062)">
<rect x="-0.476562" y="-0.658203" width="504" height="328.896" rx="14.1475" fill="white" fill-opacity="0.19"/>
<path d="M42.2133 63.3238C40.2203 63.3238 38.4721 62.9974 36.9919 62.3564C35.5117 61.7037 34.3346 60.8063 33.4721 59.6641C32.6096 58.5219 32.0968 57.2049 31.957 55.7364L31.9453 55.5266H35.3485L35.3719 55.7364C35.4651 56.6455 35.8147 57.4264 36.4208 58.0907C37.0385 58.755 37.8544 59.2679 38.88 59.6292C39.9173 60.0021 41.0828 60.1886 42.3998 60.1886C43.6352 60.1886 44.7424 59.9788 45.6981 59.5825C46.6655 59.1863 47.4347 58.6385 47.9825 57.9275C48.5419 57.2166 48.8216 56.4124 48.8216 55.48V55.4684C48.8216 54.3262 48.4021 53.3705 47.5746 52.6012C46.7354 51.8204 45.3834 51.226 43.4953 50.8064L40.4651 50.1421C38.6469 49.7458 37.1667 49.1864 36.0012 48.4871C34.8474 47.7878 33.9966 46.937 33.4488 45.9346C32.901 44.9323 32.6213 43.7668 32.6213 42.4498V42.4382C32.633 40.923 33.0525 39.5827 33.8684 38.4172C34.6842 37.2634 35.8147 36.3543 37.26 35.69C38.7052 35.0373 40.3602 34.7109 42.2483 34.7109C44.0664 34.7109 45.6748 35.0373 47.0734 35.69C48.472 36.3426 49.5909 37.2051 50.4184 38.3123C51.2459 39.4079 51.7004 40.6316 51.7936 42.0069L51.817 42.2633H48.4021L48.3671 42.0186C48.2389 41.2144 47.9126 40.4918 47.3764 39.8741C46.852 39.2447 46.141 38.7552 45.2552 38.3822C44.3695 38.0209 43.3438 37.8461 42.155 37.8578C41.0128 37.8578 39.9989 38.0326 39.0898 38.3822C38.1807 38.7319 37.4464 39.2447 36.9103 39.909C36.3742 40.5734 36.1061 41.3776 36.1061 42.3449V42.3566C36.1061 43.0792 36.2926 43.7319 36.6422 44.3029C36.9919 44.874 37.5513 45.3752 38.3206 45.7831C39.0781 46.2027 40.0804 46.5523 41.3159 46.8321L44.3462 47.508C46.2576 47.9276 47.7843 48.4754 48.9498 49.1397C50.1153 49.8157 50.9661 50.6316 51.5023 51.5989C52.0384 52.5663 52.3065 53.6968 52.3065 55.0138V55.0371C52.3065 56.7387 51.8869 58.2073 51.0477 59.4427C50.2202 60.6781 49.0431 61.6338 47.5279 62.3098C46.0128 62.9858 44.2413 63.3238 42.2133 63.3238Z" fill="white"/>
<path d="M64.8346 62.6824V38.4168H56.0352V35.3516H77.049V38.4168H68.2495V62.6824H64.8346Z" fill="white"/>
<path d="M82.0898 62.6824V35.3516H99.0245V38.4168H85.5047V47.193H98.3252V50.2232H85.5047V59.6171H99.0245V62.6824H82.0898Z" fill="white"/>
<path d="M106.678 52.9272V49.8969H114.405C116.363 49.8969 117.879 49.3957 118.951 48.3701C120.023 47.3561 120.559 45.9575 120.559 44.1627V44.1277C120.559 42.3212 120.023 40.911 118.951 39.897C117.879 38.883 116.363 38.3818 114.405 38.3818H106.678V35.3516H115.28C116.993 35.3516 118.508 35.7245 119.825 36.4471C121.142 37.1814 122.168 38.207 122.925 39.524C123.671 40.8294 124.044 42.3562 124.044 44.0811V44.1277C124.044 45.8526 123.671 47.3794 122.925 48.7081C122.168 50.0368 121.142 51.0624 119.825 51.8083C118.508 52.5542 116.993 52.9272 115.28 52.9272H106.678ZM104.977 62.6824V35.3516H108.391V62.6824H104.977Z" fill="white"/>
<path d="M146.917 62.6833V39.1404H146.614L139.668 44.1753V40.5856L146.941 35.3525H150.332V62.6833H146.917Z" fill="white"/>
<mask id="mask0_11284_209062" style="mask-type:luminance" maskUnits="userSpaceOnUse" x="30" y="128" width="403" height="42">
<path d="M30.0898 128.325H432.884V169.98H30.0898V128.325Z" fill="white"/>
</mask>
<g mask="url(#mask0_11284_209062)">
<path d="M30.2266 157.406C31.8699 157.231 32.8955 156.928 33.3035 156.496C33.6997 156.065 33.8979 154.958 33.8979 153.152V135.051C33.8979 133.571 33.6764 132.604 33.2335 132.149C32.779 131.695 31.7767 131.415 30.2266 131.299V130.529H52.4875L52.6273 136.52H51.4618C51.1821 134.609 50.6343 133.396 49.8535 132.884C49.0609 132.371 47.4992 132.114 45.1798 132.114H39.4689C38.9095 132.114 38.5598 132.208 38.3967 132.406C38.2452 132.592 38.1636 132.965 38.1636 133.525V142.849H44.2008C45.984 142.849 47.1145 142.58 47.6041 142.056C48.0936 141.52 48.4898 140.448 48.7929 138.828H49.7719V148.49H48.7929C48.4782 146.881 48.0819 145.809 47.5924 145.284C47.1029 144.76 45.9724 144.504 44.2008 144.504H38.1636V153.641C38.1636 155.179 38.3967 156.158 38.8629 156.578C39.3407 157.009 40.3547 157.289 41.9398 157.406V158.163H30.2266V157.406Z" fill="#F5F5F5"/>
<path d="M56.4271 131.832C56.4271 131.249 56.6369 130.736 57.0332 130.317C57.4411 129.897 57.9539 129.688 58.5483 129.688C59.1311 129.688 59.6322 129.897 60.0518 130.305C60.4597 130.725 60.6695 131.226 60.6695 131.832C60.6695 132.415 60.4597 132.916 60.0518 133.324C59.6322 133.743 59.1311 133.953 58.5483 133.953C57.9539 133.953 57.4527 133.743 57.0332 133.324C56.6252 132.916 56.4271 132.415 56.4271 131.832ZM53.8164 157.589C55.2733 157.45 56.194 157.205 56.567 156.843C56.9516 156.482 57.1381 155.503 57.1381 153.918V144.186C57.1381 143.3 57.0798 142.694 56.9632 142.356C56.7534 141.797 56.3222 141.517 55.6695 141.517C55.518 141.517 55.3782 141.529 55.2383 141.564C55.0984 141.587 54.6789 141.692 54.0029 141.89V141.249L54.877 140.969C57.2546 140.189 58.9213 139.606 59.8537 139.21C60.2383 139.046 60.483 138.965 60.5879 138.965C60.6112 139.058 60.6229 139.163 60.6229 139.28V153.918C60.6229 155.468 60.821 156.436 61.194 156.832C61.5669 157.228 62.4061 157.484 63.7231 157.589V158.16H53.8164V157.589Z" fill="#F5F5F5"/>
<path d="M65.3628 157.591C66.3302 157.463 67.0062 157.23 67.3908 156.869C67.7754 156.507 67.9735 155.703 67.9735 154.456V144.107C67.9735 143.244 67.892 142.626 67.7288 142.277C67.4724 141.752 66.9363 141.496 66.1321 141.496C66.0155 141.496 65.8873 141.508 65.7591 141.519C65.6309 141.531 65.4677 141.554 65.2812 141.577V140.866C65.8407 140.703 67.1577 140.284 69.2323 139.608L71.1553 138.967C71.2486 138.967 71.3068 139.002 71.3302 139.072C71.3418 139.142 71.3535 139.235 71.3535 139.351V142.358C72.6005 141.193 73.5912 140.389 74.2905 139.946C75.3511 139.281 76.4583 138.955 77.6005 138.955C78.5212 138.955 79.3604 139.211 80.1296 139.748C81.5981 140.773 82.3324 142.615 82.3324 145.272V154.794C82.3324 155.773 82.5305 156.484 82.9268 156.915C83.3231 157.347 83.9757 157.58 84.8965 157.591V158.162H76.1903V157.591C77.1809 157.451 77.8802 157.183 78.2648 156.764C78.6611 156.344 78.8592 155.447 78.8592 154.06V145.354C78.8592 144.188 78.6494 143.221 78.2066 142.452C77.7753 141.682 76.9711 141.298 75.8056 141.298C75.0015 141.298 74.1856 141.566 73.3581 142.114C72.8919 142.428 72.2975 142.941 71.5633 143.664V155.085C71.5633 156.065 71.773 156.717 72.2159 157.055C72.6472 157.382 73.3348 157.568 74.2789 157.591V158.162H65.3628V157.591Z" fill="#F5F5F5"/>
<path d="M95.3849 138.883C96.3756 138.883 97.2846 139.104 98.1121 139.536C98.6599 139.827 99.1844 140.223 99.6856 140.725V134.233C99.6856 133.405 99.5923 132.834 99.4058 132.519C99.2194 132.205 98.7881 132.053 98.1005 132.053C97.9373 132.053 97.7858 132.065 97.6693 132.077C97.5411 132.088 97.273 132.112 96.8534 132.158V131.482L98.5201 131.051C99.1378 130.888 99.7438 130.725 100.362 130.538C100.968 130.363 101.504 130.2 101.97 130.037C102.191 129.967 102.553 129.839 103.054 129.652L103.17 129.687L103.135 131.832C103.124 132.601 103.1 133.405 103.089 134.221C103.077 135.049 103.065 135.864 103.065 136.669L103.031 153.323C103.031 154.209 103.135 154.827 103.357 155.177C103.578 155.538 104.149 155.713 105.093 155.713C105.245 155.713 105.385 155.713 105.536 155.701C105.688 155.689 105.839 155.678 105.991 155.654V156.319C105.909 156.354 104.919 156.692 103.031 157.344L99.8254 158.545L99.6856 158.37V155.853C98.928 156.68 98.2637 157.275 97.7042 157.624C96.7136 158.242 95.5597 158.545 94.2544 158.545C91.9467 158.545 90.0702 157.659 88.6367 155.864C87.2031 154.081 86.4922 152.006 86.4922 149.652C86.4922 146.703 87.3547 144.174 89.0679 142.053C90.7929 139.944 92.8907 138.883 95.3849 138.883ZM96.1425 156.342C97.2031 156.342 98.0539 156.027 98.7065 155.41C99.3592 154.78 99.6856 154.186 99.6856 153.638V144.885C99.6856 143.114 99.2077 141.867 98.2637 141.144C97.3196 140.41 96.3989 140.049 95.5014 140.049C93.7882 140.049 92.4595 140.806 91.5038 142.321C90.5481 143.836 90.0819 145.701 90.0819 147.927C90.0819 150.118 90.5831 152.065 91.597 153.778C92.611 155.491 94.1262 156.342 96.1425 156.342Z" fill="#F5F5F5"/>
<path d="M127.443 139.349V140.817H123.282L123.235 152.565C123.235 153.603 123.328 154.383 123.503 154.92C123.83 155.852 124.471 156.318 125.415 156.318C125.904 156.318 126.335 156.213 126.697 155.98C127.058 155.747 127.466 155.374 127.932 154.873L128.457 155.327L128.014 155.934C127.303 156.889 126.557 157.565 125.764 157.95C124.972 158.346 124.214 158.544 123.48 158.544C121.872 158.544 120.788 157.833 120.217 156.411C119.902 155.63 119.75 154.558 119.75 153.183V140.817H117.524C117.454 140.782 117.408 140.747 117.373 140.701C117.338 140.654 117.326 140.607 117.326 140.537C117.326 140.398 117.349 140.293 117.419 140.223C117.478 140.141 117.676 139.978 118.002 139.698C118.935 138.929 119.611 138.3 120.03 137.81C120.438 137.332 121.417 136.062 122.956 133.987C123.13 133.987 123.235 133.999 123.27 134.034C123.305 134.057 123.317 134.162 123.317 134.337V139.349H127.443Z" fill="#F5F5F5"/>
<path d="M128.799 157.589C129.906 157.438 130.64 157.17 130.99 156.762C131.34 156.366 131.503 155.41 131.503 153.918V134.338C131.503 133.58 131.41 133.021 131.211 132.66C131.013 132.298 130.535 132.112 129.778 132.112C129.626 132.112 129.475 132.123 129.335 132.147C129.195 132.17 129.032 132.193 128.857 132.217V131.482C129.452 131.308 130.186 131.086 131.072 130.841C131.946 130.585 132.552 130.41 132.89 130.305L134.848 129.688L134.894 129.827V142.356C135.745 141.377 136.514 140.655 137.179 140.189C138.379 139.373 139.661 138.965 141.048 138.965C143.251 138.965 144.754 139.897 145.559 141.739C145.99 142.718 146.211 144.011 146.211 145.596V153.918C146.211 155.363 146.374 156.296 146.712 156.739C147.05 157.17 147.726 157.45 148.764 157.589V158.16H139.929V157.589C141.106 157.426 141.876 157.146 142.214 156.75C142.552 156.354 142.726 155.41 142.726 153.918V145.655C142.726 144.338 142.505 143.265 142.062 142.45C141.619 141.634 140.78 141.238 139.568 141.238C138.507 141.238 137.47 141.61 136.479 142.38C135.489 143.137 134.999 143.627 134.999 143.86V153.918C134.999 155.445 135.174 156.389 135.524 156.774C135.873 157.158 136.631 157.426 137.785 157.589V158.16H128.799V157.589Z" fill="#F5F5F5"/>
<path d="M158.874 139.022C160.785 139.022 162.464 139.687 163.909 141.015C165.354 142.344 166.065 144.221 166.065 146.656H153.116C153.256 149.815 153.967 152.111 155.261 153.544C156.555 154.99 158.081 155.712 159.853 155.712C161.275 155.712 162.475 155.339 163.454 154.593C164.433 153.848 165.342 152.787 166.17 151.412L166.881 151.656C166.321 153.381 165.284 154.978 163.757 156.447C162.231 157.915 160.354 158.649 158.14 158.649C155.576 158.649 153.606 157.682 152.207 155.759C150.82 153.824 150.121 151.598 150.121 149.081C150.121 146.353 150.925 143.987 152.545 142.006C154.165 140.025 156.275 139.022 158.874 139.022ZM157.685 140.514C156.135 140.514 154.958 141.202 154.142 142.577C153.711 143.311 153.396 144.232 153.198 145.351H161.811C161.659 143.987 161.403 142.973 161.03 142.309C160.366 141.12 159.247 140.514 157.685 140.514Z" fill="#F5F5F5"/>
<path d="M179.096 157.589C180.541 157.519 181.485 157.251 181.94 156.785C182.394 156.319 182.627 155.328 182.627 153.813V140.725H179.142V139.349H182.627C182.627 137.205 182.919 135.387 183.501 133.906C184.62 131.063 186.66 129.652 189.643 129.652C190.844 129.652 191.904 129.885 192.849 130.363C193.793 130.841 194.27 131.471 194.27 132.275C194.27 132.729 194.107 133.126 193.781 133.475C193.455 133.836 193.058 134.011 192.592 134.011C192.196 134.011 191.869 133.895 191.578 133.65C191.287 133.417 190.949 132.997 190.564 132.403L190.214 131.867C190.028 131.587 189.795 131.342 189.539 131.144C189.282 130.946 188.921 130.853 188.455 130.853C187.417 130.853 186.718 131.354 186.357 132.38C186.159 132.927 186.054 133.638 186.054 134.524V139.349H191.17V140.725H186.089V153.813C186.089 155.351 186.298 156.33 186.718 156.762C187.126 157.193 188.21 157.461 189.97 157.589V158.16H179.096V157.589Z" fill="#F5F5F5"/>
<path d="M193.266 148.696C193.266 145.992 194.128 143.708 195.841 141.831C197.566 139.967 199.781 139.022 202.485 139.022C205.177 139.022 207.403 139.908 209.175 141.68C210.946 143.451 211.832 145.806 211.832 148.743C211.832 151.447 210.969 153.801 209.256 155.794C207.543 157.787 205.328 158.789 202.601 158.789C199.991 158.789 197.788 157.834 195.981 155.922C194.175 153.999 193.266 151.586 193.266 148.696ZM201.914 140.258C200.841 140.258 199.909 140.608 199.116 141.307C197.753 142.542 197.077 144.687 197.077 147.717C197.077 150.141 197.625 152.391 198.72 154.489C199.816 156.586 201.331 157.624 203.277 157.624C204.804 157.624 205.981 156.924 206.797 155.526C207.624 154.127 208.032 152.297 208.032 150.025C208.032 147.67 207.508 145.456 206.459 143.37C205.41 141.295 203.895 140.258 201.914 140.258Z" fill="#F5F5F5"/>
<path d="M213.949 157.588C215.207 157.459 216.07 157.215 216.513 156.818C216.956 156.434 217.189 155.676 217.189 154.546V134.616C217.189 133.718 217.107 133.101 216.956 132.763C216.688 132.191 216.14 131.912 215.312 131.912C215.114 131.912 214.916 131.935 214.683 131.97C214.461 132.005 214.182 132.075 213.844 132.156V131.48C215.674 130.991 217.888 130.338 220.475 129.522C220.569 129.522 220.627 129.557 220.639 129.651C220.662 129.732 220.674 129.907 220.674 130.175V154.627C220.674 155.816 220.872 156.574 221.291 156.923C221.699 157.273 222.538 157.494 223.809 157.588V158.159H213.949V157.588Z" fill="#F5F5F5"/>
<path d="M225.55 157.588C226.809 157.459 227.671 157.215 228.114 156.818C228.557 156.434 228.79 155.676 228.79 154.546V134.616C228.79 133.718 228.709 133.101 228.557 132.763C228.289 132.191 227.741 131.912 226.914 131.912C226.716 131.912 226.518 131.935 226.284 131.97C226.063 132.005 225.783 132.075 225.445 132.156V131.48C227.275 130.991 229.49 130.338 232.077 129.522C232.17 129.522 232.228 129.557 232.24 129.651C232.263 129.732 232.275 129.907 232.275 130.175V154.627C232.275 155.816 232.473 156.574 232.893 156.923C233.301 157.273 234.14 157.494 235.41 157.588V158.159H225.55V157.588Z" fill="#F5F5F5"/>
<path d="M237.35 148.696C237.35 145.992 238.212 143.708 239.925 141.831C241.65 139.967 243.865 139.022 246.569 139.022C249.261 139.022 251.487 139.908 253.259 141.68C255.03 143.451 255.916 145.806 255.916 148.743C255.916 151.447 255.053 153.801 253.34 155.794C251.627 157.787 249.412 158.789 246.685 158.789C244.074 158.789 241.872 157.834 240.065 155.922C238.259 153.999 237.35 151.586 237.35 148.696ZM245.998 140.258C244.925 140.258 243.993 140.608 243.2 141.307C241.837 142.542 241.161 144.687 241.161 147.717C241.161 150.141 241.709 152.391 242.804 154.489C243.9 156.586 245.415 157.624 247.361 157.624C248.888 157.624 250.065 156.924 250.881 155.526C251.708 154.127 252.116 152.297 252.116 150.025C252.116 147.67 251.592 145.456 250.543 143.37C249.494 141.295 247.979 140.258 245.998 140.258Z" fill="#F5F5F5"/>
<path d="M276.592 139.839C275.776 139.933 275.17 140.072 274.774 140.259C274.377 140.434 274.191 140.783 274.191 141.308C274.191 141.599 274.226 141.891 274.319 142.205C274.401 142.508 274.529 142.87 274.68 143.266L278.387 152.963L282.023 144.105C282.186 143.732 282.361 143.231 282.547 142.613C282.734 141.995 282.839 141.529 282.839 141.215C282.839 140.713 282.676 140.364 282.361 140.189C282.046 140.014 281.592 139.886 280.997 139.804V139.21H286.172V139.804C285.834 139.874 285.554 140.037 285.345 140.294C285.123 140.55 284.82 141.168 284.424 142.124L277.897 158.219C277.839 158.347 277.792 158.429 277.757 158.487C277.711 158.545 277.652 158.569 277.571 158.569C277.408 158.487 277.314 158.417 277.291 158.371L272.676 146.96L267.314 158.324C267.291 158.394 267.244 158.452 267.198 158.499C267.151 158.545 267.093 158.569 267.023 158.569C266.86 158.487 266.767 158.417 266.743 158.371L260.648 143.336C259.972 141.692 259.529 140.713 259.319 140.422C259.098 140.131 258.666 139.944 258.037 139.839V139.21H265.578V139.839C264.948 139.898 264.471 140.014 264.144 140.177C263.806 140.352 263.643 140.713 263.643 141.273C263.643 141.669 263.923 142.637 264.471 144.175C264.797 145.061 265.217 146.133 265.718 147.392L268.049 153.184L271.72 145.317L271.755 145.061C271.755 144.793 271.615 144.292 271.324 143.546C271.032 142.8 270.741 142.147 270.473 141.564C270.205 140.947 269.89 140.527 269.541 140.282C269.203 140.049 268.713 139.898 268.084 139.839V139.21H276.592V139.839Z" fill="#F5F5F5"/>
<path d="M290.781 131.832C290.781 131.249 290.99 130.736 291.387 130.317C291.795 129.897 292.307 129.688 292.902 129.688C293.485 129.688 293.986 129.897 294.405 130.305C294.813 130.725 295.023 131.226 295.023 131.832C295.023 132.415 294.813 132.916 294.405 133.324C293.986 133.743 293.485 133.953 292.902 133.953C292.307 133.953 291.806 133.743 291.387 133.324C290.979 132.916 290.781 132.415 290.781 131.832ZM288.17 157.589C289.627 157.45 290.548 157.205 290.92 156.843C291.305 156.482 291.492 155.503 291.492 153.918V144.186C291.492 143.3 291.433 142.694 291.317 142.356C291.107 141.797 290.676 141.517 290.023 141.517C289.872 141.517 289.732 141.529 289.592 141.564C289.452 141.587 289.032 141.692 288.356 141.89V141.249L289.231 140.969C291.608 140.189 293.275 139.606 294.207 139.21C294.592 139.046 294.837 138.965 294.941 138.965C294.965 139.058 294.976 139.163 294.976 139.28V153.918C294.976 155.468 295.175 156.436 295.547 156.832C295.92 157.228 296.76 157.484 298.077 157.589V158.16H288.17V157.589Z" fill="#F5F5F5"/>
<path d="M299.705 157.591C300.672 157.463 301.348 157.23 301.733 156.869C302.117 156.507 302.315 155.703 302.315 154.456V144.107C302.315 143.244 302.234 142.626 302.071 142.277C301.814 141.752 301.278 141.496 300.474 141.496C300.357 141.496 300.229 141.508 300.101 141.519C299.973 141.531 299.81 141.554 299.623 141.577V140.866C300.182 140.703 301.499 140.284 303.574 139.608L305.497 138.967C305.59 138.967 305.649 139.002 305.672 139.072C305.684 139.142 305.695 139.235 305.695 139.351V142.358C306.942 141.193 307.933 140.389 308.632 139.946C309.693 139.281 310.8 138.955 311.942 138.955C312.863 138.955 313.702 139.211 314.471 139.748C315.94 140.773 316.674 142.615 316.674 145.272V154.794C316.674 155.773 316.872 156.484 317.269 156.915C317.665 157.347 318.318 157.58 319.238 157.591V158.162H310.532V157.591C311.523 157.451 312.222 157.183 312.607 156.764C313.003 156.344 313.201 155.447 313.201 154.06V145.354C313.201 144.188 312.991 143.221 312.548 142.452C312.117 141.682 311.313 141.298 310.147 141.298C309.343 141.298 308.527 141.566 307.7 142.114C307.234 142.428 306.639 142.941 305.905 143.664V155.085C305.905 156.065 306.115 156.717 306.558 157.055C306.989 157.382 307.677 157.568 308.621 157.591V158.162H299.705V157.591Z" fill="#F5F5F5"/>
<path d="M323.941 161.937C323.941 163.079 324.582 163.86 325.864 164.302C327.146 164.734 328.626 164.955 330.281 164.955C332.542 164.955 334.372 164.559 335.782 163.778C337.204 162.997 337.903 162.03 337.903 160.888C337.903 159.978 337.344 159.372 336.202 159.081C335.491 158.906 334.15 158.801 332.181 158.766C331.679 158.755 331.143 158.743 330.584 158.72C330.024 158.696 329.523 158.673 329.057 158.65C328.754 158.638 328.276 158.58 327.612 158.487C326.948 158.393 326.446 158.312 326.12 158.242C325.957 158.242 325.561 158.673 324.92 159.524C324.267 160.398 323.941 161.202 323.941 161.937ZM326.586 151.307C325.351 150.899 324.395 150.177 323.707 149.128C323.02 148.079 322.67 146.902 322.67 145.596C322.67 144.011 323.311 142.496 324.57 141.074C325.829 139.641 327.624 138.93 329.931 138.93C330.922 138.93 332.017 139.163 333.218 139.629C334.418 140.095 335.561 140.328 336.668 140.328C336.947 140.328 337.379 140.328 337.961 140.305C338.533 140.282 338.952 140.27 339.209 140.27H339.465V141.925H335.933C336.178 142.496 336.365 142.997 336.505 143.417C336.738 144.198 336.854 144.955 336.854 145.655C336.854 147.205 336.202 148.627 334.92 149.932C333.637 151.226 331.901 151.878 329.733 151.878C329.395 151.878 328.777 151.82 327.892 151.692C327.495 151.692 326.982 152.03 326.33 152.694C325.689 153.358 325.362 153.906 325.362 154.326C325.362 154.757 325.84 155.083 326.796 155.282C327.414 155.421 328.113 155.491 328.871 155.491C332.367 155.491 334.745 155.689 335.992 156.086C338.043 156.715 339.069 158.09 339.069 160.2C339.069 162.344 337.868 164.058 335.467 165.34C333.066 166.622 330.654 167.251 328.206 167.251C325.969 167.251 324.197 166.808 322.892 165.899C321.586 164.99 320.934 164.046 320.934 163.055C320.934 162.566 321.108 162.088 321.458 161.622C321.808 161.144 322.495 160.456 323.509 159.524L324.85 158.323L325.106 158.079C324.477 157.834 324.01 157.601 323.696 157.368C323.148 156.948 322.88 156.459 322.88 155.923C322.88 155.41 323.113 154.862 323.579 154.256C324.045 153.65 325.048 152.671 326.586 151.307ZM330.467 150.899C331.213 150.899 331.843 150.701 332.344 150.282C333.16 149.629 333.568 148.498 333.568 146.878C333.568 145.585 333.23 144.139 332.577 142.519C331.913 140.899 330.817 140.095 329.279 140.095C327.95 140.095 327.029 140.725 326.528 141.983C326.272 142.648 326.143 143.475 326.143 144.454C326.143 146.109 326.54 147.601 327.344 148.918C328.148 150.235 329.185 150.899 330.467 150.899Z" fill="#F5F5F5"/>
<path d="M352.021 157.588C353.28 157.459 354.142 157.215 354.585 156.818C355.028 156.434 355.261 155.676 355.261 154.546V134.616C355.261 133.718 355.179 133.101 355.028 132.763C354.76 132.191 354.212 131.912 353.385 131.912C353.186 131.912 352.988 131.935 352.755 131.97C352.534 132.005 352.254 132.075 351.916 132.156V131.48C353.746 130.991 355.96 130.338 358.548 129.522C358.641 129.522 358.699 129.557 358.711 129.651C358.734 129.732 358.746 129.907 358.746 130.175V154.627C358.746 155.816 358.944 156.574 359.364 156.923C359.771 157.273 360.611 157.494 361.881 157.588V158.159H352.021V157.588Z" fill="#F5F5F5"/>
<path d="M366.183 131.832C366.183 131.249 366.393 130.736 366.789 130.317C367.197 129.897 367.71 129.688 368.304 129.688C368.887 129.688 369.388 129.897 369.808 130.305C370.216 130.725 370.425 131.226 370.425 131.832C370.425 132.415 370.216 132.916 369.808 133.324C369.388 133.743 368.887 133.953 368.304 133.953C367.71 133.953 367.209 133.743 366.789 133.324C366.381 132.916 366.183 132.415 366.183 131.832ZM363.572 157.589C365.029 157.45 365.95 157.205 366.323 156.843C366.707 156.482 366.894 155.503 366.894 153.918V144.186C366.894 143.3 366.836 142.694 366.719 142.356C366.509 141.797 366.078 141.517 365.425 141.517C365.274 141.517 365.134 141.529 364.994 141.564C364.854 141.587 364.435 141.692 363.759 141.89V141.249L364.633 140.969C367.01 140.189 368.677 139.606 369.61 139.21C369.994 139.046 370.239 138.965 370.344 138.965C370.367 139.058 370.379 139.163 370.379 139.28V153.918C370.379 155.468 370.577 156.436 370.95 156.832C371.323 157.228 372.162 157.484 373.479 157.589V158.16H363.572V157.589Z" fill="#F5F5F5"/>
<path d="M375.053 157.626C376.113 157.533 376.813 157.358 377.174 157.101C377.71 156.705 377.99 155.924 377.99 154.736V144.188C377.99 143.185 377.85 142.521 377.594 142.218C377.325 141.903 376.883 141.74 376.277 141.74C375.985 141.74 375.775 141.752 375.635 141.787C375.496 141.81 375.321 141.857 375.134 141.927V141.216L376.603 140.726C377.127 140.551 378.001 140.225 379.214 139.771C380.426 139.304 381.055 139.071 381.125 139.071C381.195 139.071 381.241 139.106 381.253 139.176C381.265 139.246 381.276 139.374 381.276 139.561V142.311C382.617 141.088 383.782 140.248 384.761 139.771C385.74 139.304 386.743 139.071 387.78 139.071C389.179 139.071 390.297 139.549 391.125 140.493C391.556 141.018 391.917 141.717 392.209 142.603C393.211 141.577 394.085 140.82 394.831 140.33C396.125 139.491 397.442 139.071 398.794 139.071C400.985 139.071 402.442 139.957 403.176 141.74C403.596 142.754 403.805 144.339 403.805 146.519V154.98C403.805 155.948 404.027 156.6 404.446 156.95C404.878 157.3 405.647 157.521 406.766 157.626V158.162H397.57V157.591C398.747 157.486 399.528 157.241 399.901 156.88C400.274 156.507 400.46 155.761 400.46 154.631V145.843C400.46 144.526 400.321 143.547 400.041 142.929C399.528 141.81 398.549 141.251 397.081 141.251C396.195 141.251 395.321 141.542 394.447 142.125C393.945 142.475 393.328 143.011 392.593 143.757V154.199C392.593 155.307 392.78 156.146 393.176 156.717C393.561 157.288 394.377 157.591 395.635 157.626V158.162H386.265V157.626C387.558 157.463 388.386 157.16 388.736 156.694C389.085 156.227 389.272 155.097 389.272 153.29V147.579C389.272 145.481 389.132 144.036 388.852 143.255C388.409 141.915 387.454 141.251 386.008 141.251C385.169 141.251 384.353 141.484 383.561 141.938C382.757 142.393 382.046 142.987 381.44 143.722V154.875C381.44 155.913 381.614 156.624 381.976 157.02C382.337 157.416 383.118 157.614 384.33 157.626V158.162H375.053V157.626Z" fill="#F5F5F5"/>
<path d="M410.298 131.832C410.298 131.249 410.508 130.736 410.904 130.317C411.312 129.897 411.825 129.688 412.419 129.688C413.002 129.688 413.503 129.897 413.923 130.305C414.331 130.725 414.541 131.226 414.541 131.832C414.541 132.415 414.331 132.916 413.923 133.324C413.503 133.743 413.002 133.953 412.419 133.953C411.825 133.953 411.324 133.743 410.904 133.324C410.496 132.916 410.298 132.415 410.298 131.832ZM407.688 157.589C409.144 157.45 410.065 157.205 410.438 156.843C410.823 156.482 411.009 155.503 411.009 153.918V144.186C411.009 143.3 410.951 142.694 410.834 142.356C410.625 141.797 410.193 141.517 409.541 141.517C409.389 141.517 409.249 141.529 409.109 141.564C408.97 141.587 408.55 141.692 407.874 141.89V141.249L408.748 140.969C411.126 140.189 412.792 139.606 413.725 139.21C414.109 139.046 414.354 138.965 414.459 138.965C414.482 139.058 414.494 139.163 414.494 139.28V153.918C414.494 155.468 414.692 156.436 415.065 156.832C415.438 157.228 416.277 157.484 417.594 157.589V158.16H407.688V157.589Z" fill="#F5F5F5"/>
<path d="M429.101 139.349V140.817H424.94L424.893 152.565C424.893 153.603 424.987 154.383 425.161 154.92C425.488 155.852 426.129 156.318 427.073 156.318C427.562 156.318 427.994 156.213 428.355 155.98C428.716 155.747 429.124 155.374 429.59 154.873L430.115 155.327L429.672 155.934C428.961 156.889 428.215 157.565 427.423 157.95C426.63 158.346 425.872 158.544 425.138 158.544C423.53 158.544 422.446 157.833 421.875 156.411C421.56 155.63 421.409 154.558 421.409 153.183V140.817H419.183C419.113 140.782 419.066 140.747 419.031 140.701C418.996 140.654 418.984 140.607 418.984 140.537C418.984 140.398 419.008 140.293 419.078 140.223C419.136 140.141 419.334 139.978 419.66 139.698C420.593 138.929 421.269 138.3 421.688 137.81C422.096 137.332 423.075 136.062 424.614 133.987C424.789 133.987 424.893 133.999 424.928 134.034C424.963 134.057 424.975 134.162 424.975 134.337V139.349H429.101Z" fill="#F5F5F5"/>
</g>
<path d="M30.64 250.085C31.8988 249.956 32.7612 249.712 33.2041 249.315C33.647 248.931 33.8801 248.173 33.8801 247.043V227.113C33.8801 226.215 33.7985 225.598 33.647 225.26C33.379 224.689 32.8312 224.409 32.0037 224.409C31.8055 224.409 31.6074 224.432 31.3743 224.467C31.1529 224.502 30.8732 224.572 30.5352 224.654V223.978C32.365 223.488 34.5794 222.835 37.1668 222.02C37.26 222.02 37.3183 222.054 37.33 222.148C37.3533 222.229 37.3649 222.404 37.3649 222.672V247.124C37.3649 248.313 37.5631 249.071 37.9827 249.42C38.3906 249.77 39.2297 249.991 40.5001 250.085V250.656H30.64V250.085Z" fill="white"/>
<path d="M44.806 224.328C44.806 223.745 45.0158 223.233 45.4121 222.813C45.82 222.393 46.3328 222.184 46.9272 222.184C47.51 222.184 48.0111 222.393 48.4307 222.801C48.8386 223.221 49.0484 223.722 49.0484 224.328C49.0484 224.911 48.8386 225.412 48.4307 225.82C48.0111 226.24 47.51 226.449 46.9272 226.449C46.3328 226.449 45.8316 226.24 45.4121 225.82C45.0041 225.412 44.806 224.911 44.806 224.328ZM42.1953 250.085C43.6522 249.946 44.5729 249.701 44.9459 249.34C45.3305 248.978 45.517 247.999 45.517 246.414V236.682C45.517 235.797 45.4587 235.19 45.3421 234.852C45.1324 234.293 44.7011 234.013 44.0484 234.013C43.8969 234.013 43.7571 234.025 43.6172 234.06C43.4774 234.083 43.0578 234.188 42.3818 234.386V233.745L43.2559 233.466C45.6335 232.685 47.3002 232.102 48.2326 231.706C48.6172 231.542 48.8619 231.461 48.9668 231.461C48.9901 231.554 49.0018 231.659 49.0018 231.776V246.414C49.0018 247.964 49.1999 248.932 49.5729 249.328C49.9458 249.724 50.785 249.981 52.102 250.085V250.657H42.1953V250.085Z" fill="white"/>
<path d="M53.6641 250.119C54.7247 250.026 55.424 249.851 55.7853 249.595C56.3214 249.198 56.6011 248.417 56.6011 247.229V236.681C56.6011 235.679 56.4612 235.014 56.2048 234.711C55.9368 234.397 55.4939 234.233 54.8878 234.233C54.5965 234.233 54.3867 234.245 54.2468 234.28C54.107 234.303 53.9321 234.35 53.7456 234.42V233.709L55.2142 233.219C55.7386 233.045 56.6128 232.718 57.8249 232.264C59.037 231.798 59.6663 231.564 59.7363 231.564C59.8062 231.564 59.8528 231.599 59.8645 231.669C59.8761 231.739 59.8878 231.867 59.8878 232.054V234.805C61.2281 233.581 62.3936 232.742 63.3726 232.264C64.3516 231.798 65.354 231.564 66.3912 231.564C67.7898 231.564 68.9087 232.042 69.7362 232.986C70.1674 233.511 70.5287 234.21 70.8201 235.096C71.8224 234.07 72.6966 233.313 73.4425 232.823C74.7362 231.984 76.0532 231.564 77.4051 231.564C79.5963 231.564 81.0531 232.45 81.7874 234.233C82.207 235.247 82.4168 236.832 82.4168 239.012V247.473C82.4168 248.441 82.6382 249.093 83.0578 249.443C83.489 249.793 84.2582 250.014 85.3771 250.119V250.655H76.1814V250.084C77.3585 249.979 78.1394 249.734 78.5124 249.373C78.8853 249 79.0718 248.254 79.0718 247.124V238.336C79.0718 237.019 78.9319 236.04 78.6522 235.422C78.1394 234.303 77.1604 233.744 75.6919 233.744C74.8061 233.744 73.932 234.035 73.0579 234.618C72.5567 234.968 71.939 235.504 71.2047 236.25V246.693C71.2047 247.8 71.3912 248.639 71.7875 249.21C72.1721 249.781 72.9879 250.084 74.2467 250.119V250.655H64.8761V250.119C66.1698 249.956 66.9973 249.653 67.3469 249.187C67.6966 248.721 67.8831 247.59 67.8831 245.783V240.073C67.8831 237.975 67.7432 236.529 67.4635 235.749C67.0206 234.408 66.0649 233.744 64.6197 233.744C63.7805 233.744 62.9647 233.977 62.1722 234.432C61.368 234.886 60.657 235.481 60.051 236.215V247.369C60.051 248.406 60.2258 249.117 60.5871 249.513C60.9484 249.909 61.7293 250.107 62.9414 250.119V250.655H53.6641V250.119Z" fill="white"/>
<path d="M33.4102 279.343C33.4102 278.959 33.5267 278.691 33.7598 278.539C33.9929 278.376 34.226 278.294 34.4708 278.294C34.5873 278.294 34.7039 278.306 34.8204 278.341C34.937 278.376 35.0535 278.434 35.1934 278.516L35.6945 278.784C35.7645 278.831 35.8344 278.854 35.8927 278.865C35.9626 278.877 36.0325 278.889 36.1024 278.889C36.3472 278.889 36.5337 278.831 36.6619 278.702C36.7901 278.586 37.1281 278.166 37.6642 277.444C38.0255 276.966 38.8414 275.812 40.1001 273.982C40.1001 273.912 39.9952 273.388 39.7737 272.42C39.5523 271.453 39.3425 270.625 39.156 269.949C38.9812 269.262 38.818 268.819 38.6665 268.597C38.5267 268.376 38.2586 268.271 37.8623 268.271C37.7225 268.271 37.4544 268.318 37.0581 268.423C36.8134 268.481 36.5453 268.539 36.254 268.621L36.1258 268.178L37.7225 267.618C38.1421 267.479 38.5267 267.362 38.8763 267.28C39.226 267.187 39.529 267.141 39.7854 267.141C40.1933 267.141 40.4964 267.269 40.6945 267.502C41.0092 267.887 41.2656 268.656 41.4754 269.798L41.7784 271.441C42.6525 270.113 43.3285 269.18 43.8063 268.632C44.2376 268.143 44.6572 267.782 45.0418 267.537C45.4264 267.292 45.7993 267.176 46.1373 267.176C46.4637 267.176 46.7317 267.222 46.9415 267.315C47.3028 267.49 47.4893 267.817 47.4893 268.306C47.4893 268.632 47.3961 268.889 47.2096 269.075C47.0231 269.25 46.79 269.343 46.4986 269.343C46.3937 269.343 46.3005 269.332 46.1956 269.308C46.1024 269.285 45.9975 269.25 45.8926 269.204L45.5196 269.04C45.4147 268.994 45.3098 268.947 45.2166 268.924C45.1234 268.889 45.0418 268.866 44.9952 268.866C44.5639 268.866 43.9579 269.425 43.1886 270.556C42.4194 271.674 42.0231 272.327 42.0231 272.502C42.0231 272.642 42.1164 273.12 42.2912 273.912C42.4777 274.705 42.6758 275.555 42.8856 276.441C43.0721 277.28 43.2353 277.863 43.3751 278.178C43.5966 278.702 43.853 278.959 44.1327 278.959C44.3891 278.959 44.6572 278.819 44.9252 278.527C45.1933 278.236 45.6012 277.712 46.1373 276.966L46.5453 277.21C46.1257 277.968 45.7061 278.609 45.2632 279.134C44.4241 280.136 43.6199 280.637 42.8506 280.637C42.3728 280.637 41.9882 280.404 41.7085 279.949C41.5453 279.681 41.3821 279.227 41.2306 278.609L40.3332 275.031L37.3612 278.935C36.7901 279.611 36.3355 280.066 36.0209 280.299C35.7062 280.532 35.3216 280.637 34.8554 280.637C34.2377 280.637 33.8181 280.451 33.5966 280.066C33.4684 279.856 33.4102 279.623 33.4102 279.343Z" fill="white"/>
<path d="M47.8477 272.725H63.7333L60.4816 268.82L61.3208 267.946L66.5771 273.447L61.3208 278.937L60.4816 278.063L63.7333 274.123H47.8477V272.725Z" fill="white"/>
<path d="M74.1598 279.786C75.5817 279.786 76.5491 279.005 77.0852 277.455C77.6097 275.905 77.8777 273.656 77.8777 270.707C77.8777 268.365 77.7146 266.488 77.3999 265.09C76.8055 262.479 75.6866 261.173 74.0433 261.173C72.3999 261.173 71.281 262.525 70.6633 265.206C70.3486 266.628 70.1855 268.516 70.1855 270.847C70.1855 273.038 70.3486 274.798 70.6866 276.103C71.3043 278.563 72.4582 279.786 74.1598 279.786ZM74.1132 260.393C76.3393 260.393 78.0525 261.558 79.288 263.889C80.2553 265.766 80.7448 267.933 80.7448 270.369C80.7448 272.292 80.4418 274.11 79.8474 275.8C78.7169 278.994 76.7588 280.602 73.985 280.602C72.0852 280.602 70.5235 279.728 69.288 278.003C67.9827 276.162 67.3184 273.656 67.3184 270.486C67.3184 268.003 67.7612 265.859 68.6354 264.064C69.8242 261.616 71.654 260.393 74.1132 260.393Z" fill="white"/>
<path d="M102.467 239.185H249.47" stroke="white" stroke-width="2.17801" stroke-miterlimit="10" stroke-linecap="square"/>
<path d="M105.041 211.414H105.705C106.02 212.964 106.439 214.153 106.975 214.98C107.931 216.507 109.318 217.265 111.148 217.265C112.174 217.265 112.978 216.985 113.572 216.414C114.167 215.855 114.458 215.12 114.458 214.223C114.458 213.652 114.283 213.104 113.945 212.568C113.607 212.043 113.013 211.531 112.15 211.029L109.866 209.724C108.199 208.827 106.964 207.917 106.183 207.008C105.39 206.099 104.994 205.015 104.994 203.78C104.994 202.265 105.542 201.006 106.626 200.027C107.71 199.048 109.085 198.559 110.728 198.559C111.451 198.559 112.244 198.698 113.106 198.967C113.968 199.235 114.446 199.374 114.563 199.374C114.808 199.374 114.982 199.339 115.087 199.281C115.204 199.211 115.297 199.095 115.379 198.955H115.868L116.008 204.642H115.379C115.111 203.325 114.738 202.288 114.271 201.566C113.432 200.202 112.22 199.514 110.623 199.514C109.668 199.514 108.922 199.817 108.374 200.4C107.838 200.983 107.558 201.67 107.558 202.451C107.558 203.71 108.502 204.829 110.379 205.808L113.071 207.253C115.973 208.827 117.418 210.668 117.418 212.754C117.418 214.363 116.812 215.668 115.612 216.694C114.411 217.719 112.838 218.22 110.892 218.22C110.076 218.22 109.143 218.092 108.118 217.813C107.08 217.544 106.474 217.405 106.276 217.405C106.113 217.405 105.973 217.463 105.857 217.579C105.728 217.696 105.635 217.836 105.565 217.999H105.041V211.414Z" fill="white"/>
<path d="M122.546 191.506C122.546 190.923 122.756 190.41 123.152 189.991C123.56 189.571 124.073 189.361 124.667 189.361C125.25 189.361 125.751 189.571 126.171 189.979C126.579 190.399 126.789 190.9 126.789 191.506C126.789 192.089 126.579 192.59 126.171 192.998C125.751 193.417 125.25 193.627 124.667 193.627C124.073 193.627 123.572 193.417 123.152 192.998C122.744 192.59 122.546 192.089 122.546 191.506ZM119.936 217.263C121.392 217.123 122.313 216.879 122.686 216.517C123.071 216.156 123.257 215.177 123.257 213.592V203.86C123.257 202.974 123.199 202.368 123.082 202.03C122.873 201.471 122.441 201.191 121.789 201.191C121.637 201.191 121.497 201.203 121.357 201.238C121.218 201.261 120.798 201.366 120.122 201.564V200.923L120.996 200.643C123.374 199.862 125.04 199.28 125.973 198.883C126.357 198.72 126.602 198.639 126.707 198.639C126.73 198.732 126.742 198.837 126.742 198.953V213.592C126.742 215.142 126.94 216.109 127.313 216.506C127.686 216.902 128.525 217.158 129.842 217.263V217.834H119.936V217.263Z" fill="white"/>
<path d="M131.49 217.26C132.457 217.132 133.133 216.899 133.518 216.538C133.902 216.176 134.1 215.372 134.1 214.125V203.775C134.1 202.913 134.019 202.295 133.856 201.946C133.599 201.421 133.063 201.165 132.259 201.165C132.142 201.165 132.014 201.176 131.886 201.188C131.758 201.2 131.595 201.223 131.408 201.246V200.535C131.968 200.372 133.285 199.953 135.359 199.277L137.282 198.636C137.376 198.636 137.434 198.671 137.457 198.741C137.469 198.811 137.48 198.904 137.48 199.02V202.027C138.727 200.862 139.718 200.058 140.417 199.615C141.478 198.95 142.585 198.624 143.727 198.624C144.648 198.624 145.487 198.88 146.257 199.417C147.725 200.442 148.459 202.284 148.459 204.941V214.463C148.459 215.442 148.657 216.153 149.054 216.584C149.45 217.015 150.103 217.249 151.023 217.26V217.831H142.317V217.26C143.308 217.12 144.007 216.852 144.392 216.433C144.788 216.013 144.986 215.116 144.986 213.729V205.023C144.986 203.857 144.776 202.89 144.334 202.121C143.902 201.351 143.098 200.967 141.933 200.967C141.128 200.967 140.313 201.235 139.485 201.783C139.019 202.097 138.424 202.61 137.69 203.333V214.754C137.69 215.733 137.9 216.386 138.343 216.724C138.774 217.05 139.462 217.237 140.406 217.26V217.831H131.49V217.26Z" fill="white"/>
<path d="M161.882 223.719L161.416 224.43C158.001 222.262 155.624 219.756 154.26 216.901C153.106 214.477 152.535 211.353 152.535 207.507C152.535 204.302 153.176 201.458 154.47 198.987C155.414 197.146 156.708 195.514 158.351 194.104C159.353 193.346 160.367 192.589 161.381 191.843L161.812 192.507C157.698 195.631 155.635 200.642 155.635 207.554C155.635 212.029 156.206 215.596 157.337 218.253C158.316 220.537 159.831 222.355 161.882 223.719Z" fill="white"/>
<path d="M161.383 216.446C161.383 215.922 161.546 215.537 161.872 215.315C162.199 215.094 162.537 214.978 162.875 214.978C163.038 214.978 163.201 215.001 163.364 215.047C163.527 215.094 163.702 215.176 163.9 215.281L164.611 215.665C164.704 215.723 164.798 215.758 164.879 215.782C164.973 215.805 165.066 215.817 165.182 215.817C165.52 215.817 165.777 215.723 165.963 215.56C166.15 215.385 166.616 214.791 167.385 213.777C167.886 213.113 169.028 211.481 170.812 208.905C170.812 208.812 170.648 208.078 170.334 206.703C170.031 205.339 169.739 204.185 169.483 203.229C169.227 202.262 168.993 201.633 168.795 201.318C168.586 201.015 168.201 200.863 167.653 200.863C167.455 200.863 167.082 200.933 166.523 201.073C166.173 201.155 165.788 201.248 165.38 201.353L165.206 200.724L167.467 199.943C168.049 199.745 168.586 199.581 169.087 199.453C169.588 199.337 170.007 199.278 170.357 199.278C170.928 199.278 171.359 199.441 171.639 199.779C172.082 200.327 172.443 201.4 172.746 203.008L173.178 205.327C174.401 203.451 175.345 202.134 176.033 201.376C176.639 200.677 177.222 200.164 177.77 199.826C178.306 199.488 178.819 199.313 179.308 199.313C179.774 199.313 180.147 199.383 180.439 199.511C180.951 199.756 181.208 200.222 181.208 200.91C181.208 201.365 181.08 201.726 180.823 201.982C180.567 202.239 180.229 202.379 179.821 202.379C179.669 202.379 179.53 202.355 179.401 202.32C179.261 202.285 179.122 202.239 178.97 202.169L178.434 201.947C178.282 201.877 178.143 201.819 178.003 201.772C177.875 201.726 177.77 201.703 177.7 201.703C177.094 201.703 176.243 202.495 175.159 204.08C174.063 205.665 173.527 206.574 173.527 206.819C173.527 207.017 173.644 207.682 173.9 208.812C174.157 209.931 174.425 211.12 174.728 212.367C174.996 213.544 175.229 214.36 175.415 214.814C175.73 215.549 176.08 215.922 176.476 215.922C176.849 215.922 177.222 215.712 177.606 215.304C177.979 214.896 178.551 214.162 179.308 213.101L179.891 213.451C179.308 214.511 178.69 215.409 178.073 216.155C176.884 217.577 175.753 218.276 174.681 218.276C174.005 218.276 173.469 217.95 173.073 217.297C172.84 216.924 172.618 216.295 172.397 215.432L171.138 210.385L166.954 215.875C166.138 216.831 165.509 217.46 165.066 217.786C164.623 218.113 164.075 218.276 163.422 218.276C162.548 218.276 161.966 218.008 161.651 217.46C161.476 217.18 161.383 216.842 161.383 216.446Z" fill="white"/>
<path d="M190.953 207.507C190.953 211.353 190.382 214.477 189.228 216.901C187.876 219.756 185.486 222.262 182.072 224.43L181.594 223.719C183.657 222.355 185.172 220.537 186.162 218.253C187.281 215.596 187.841 212.029 187.841 207.554C187.841 200.642 185.79 195.631 181.687 192.507L182.107 191.843C183.121 192.589 184.123 193.346 185.137 194.104C186.792 195.514 188.086 197.146 189.041 198.987C190.312 201.458 190.953 204.302 190.953 207.507Z" fill="white"/>
<path d="M223.766 208.954H203.895V206.774H223.766V208.954Z" fill="white"/>
<path d="M232.977 216.446C232.977 215.922 233.14 215.537 233.466 215.315C233.792 215.094 234.13 214.978 234.468 214.978C234.632 214.978 234.795 215.001 234.958 215.047C235.121 215.094 235.296 215.176 235.494 215.281L236.205 215.665C236.298 215.723 236.391 215.758 236.473 215.782C236.566 215.805 236.66 215.817 236.776 215.817C237.114 215.817 237.37 215.723 237.557 215.56C237.743 215.385 238.21 214.791 238.979 213.777C239.48 213.113 240.622 211.481 242.405 208.905C242.405 208.812 242.242 208.078 241.928 206.703C241.625 205.339 241.333 204.185 241.077 203.229C240.82 202.262 240.587 201.633 240.389 201.318C240.179 201.015 239.795 200.863 239.247 200.863C239.049 200.863 238.676 200.933 238.116 201.073C237.767 201.155 237.382 201.248 236.974 201.353L236.799 200.724L239.06 199.943C239.643 199.745 240.179 199.581 240.68 199.453C241.182 199.337 241.601 199.278 241.951 199.278C242.522 199.278 242.953 199.441 243.233 199.779C243.676 200.327 244.037 201.4 244.34 203.008L244.771 205.327C245.995 203.451 246.939 202.134 247.627 201.376C248.233 200.677 248.816 200.164 249.363 199.826C249.9 199.488 250.412 199.313 250.902 199.313C251.368 199.313 251.741 199.383 252.032 199.511C252.545 199.756 252.802 200.222 252.802 200.91C252.802 201.365 252.673 201.726 252.417 201.982C252.161 202.239 251.823 202.379 251.415 202.379C251.263 202.379 251.123 202.355 250.995 202.32C250.855 202.285 250.715 202.239 250.564 202.169L250.028 201.947C249.876 201.877 249.736 201.819 249.596 201.772C249.468 201.726 249.363 201.703 249.293 201.703C248.687 201.703 247.837 202.495 246.753 204.08C245.657 205.665 245.121 206.574 245.121 206.819C245.121 207.017 245.238 207.682 245.494 208.812C245.75 209.931 246.018 211.12 246.321 212.367C246.59 213.544 246.823 214.36 247.009 214.814C247.324 215.549 247.673 215.922 248.07 215.922C248.443 215.922 248.816 215.712 249.2 215.304C249.573 214.896 250.144 214.162 250.902 213.101L251.485 213.451C250.902 214.511 250.284 215.409 249.666 216.155C248.478 217.577 247.347 218.276 246.275 218.276C245.599 218.276 245.063 217.95 244.666 217.297C244.433 216.924 244.212 216.295 243.99 215.432L242.732 210.385L238.548 215.875C237.732 216.831 237.102 217.46 236.66 217.786C236.217 218.113 235.669 218.276 235.016 218.276C234.142 218.276 233.559 218.008 233.245 217.46C233.07 217.18 232.977 216.842 232.977 216.446Z" fill="white"/>
<path d="M158.402 291.04C158.402 290.515 158.566 290.131 158.892 289.909C159.218 289.688 159.556 289.571 159.894 289.571C160.057 289.571 160.221 289.595 160.384 289.641C160.547 289.688 160.722 289.769 160.92 289.874L161.631 290.259C161.724 290.317 161.817 290.352 161.899 290.375C161.992 290.399 162.085 290.41 162.202 290.41C162.54 290.41 162.796 290.317 162.983 290.154C163.169 289.979 163.635 289.385 164.405 288.371C164.906 287.706 166.048 286.075 167.831 283.499C167.831 283.406 167.668 282.672 167.353 281.296C167.05 279.933 166.759 278.779 166.503 277.823C166.246 276.856 166.013 276.226 165.815 275.912C165.605 275.609 165.22 275.457 164.673 275.457C164.475 275.457 164.102 275.527 163.542 275.667C163.193 275.749 162.808 275.842 162.4 275.947L162.225 275.317L164.486 274.536C165.069 274.338 165.605 274.175 166.106 274.047C166.607 273.93 167.027 273.872 167.377 273.872C167.948 273.872 168.379 274.035 168.659 274.373C169.102 274.921 169.463 275.993 169.766 277.602L170.197 279.921C171.421 278.045 172.365 276.728 173.053 275.97C173.659 275.271 174.241 274.758 174.789 274.42C175.325 274.082 175.838 273.907 176.328 273.907C176.794 273.907 177.167 273.977 177.458 274.105C177.971 274.35 178.227 274.816 178.227 275.504C178.227 275.958 178.099 276.32 177.843 276.576C177.586 276.832 177.248 276.972 176.84 276.972C176.689 276.972 176.549 276.949 176.421 276.914C176.281 276.879 176.141 276.832 175.99 276.762L175.453 276.541C175.302 276.471 175.162 276.413 175.022 276.366C174.894 276.32 174.789 276.296 174.719 276.296C174.113 276.296 173.262 277.089 172.178 278.674C171.083 280.259 170.547 281.168 170.547 281.413C170.547 281.611 170.663 282.275 170.92 283.406C171.176 284.525 171.444 285.713 171.747 286.961C172.015 288.138 172.248 288.954 172.435 289.408C172.75 290.142 173.099 290.515 173.495 290.515C173.868 290.515 174.241 290.306 174.626 289.898C174.999 289.49 175.57 288.755 176.328 287.695L176.91 288.044C176.328 289.105 175.71 290.002 175.092 290.748C173.903 292.17 172.773 292.87 171.701 292.87C171.025 292.87 170.488 292.543 170.092 291.891C169.859 291.518 169.638 290.888 169.416 290.026L168.158 284.979L163.973 290.469C163.158 291.424 162.528 292.054 162.085 292.38C161.642 292.706 161.095 292.87 160.442 292.87C159.568 292.87 158.985 292.602 158.67 292.054C158.496 291.774 158.402 291.436 158.402 291.04Z" fill="white"/>
<path d="M179.758 274.915C180.283 274.915 180.982 275.183 181.856 275.742C182.73 276.29 183.476 276.558 184.082 276.558C185.434 276.558 186.436 276.103 187.101 275.194C187.753 274.285 188.08 273.295 188.08 272.222C188.08 271.185 187.812 270.276 187.287 269.495C186.39 268.178 184.875 267.514 182.742 267.514C182.614 267.514 182.485 267.514 182.369 267.525C182.252 267.525 182.124 267.537 181.973 267.56L181.938 267.176C183.488 266.616 184.7 265.975 185.586 265.253C186.471 264.53 186.926 263.574 186.926 262.386C186.926 261.337 186.576 260.532 185.877 259.985C185.178 259.437 184.373 259.157 183.476 259.157C182.415 259.157 181.471 259.553 180.667 260.334C180.224 260.754 179.746 261.407 179.234 262.304L178.779 262.199C179.164 260.731 179.886 259.553 180.935 258.679C181.996 257.805 183.208 257.362 184.595 257.362C186.063 257.362 187.206 257.77 188.01 258.574C188.814 259.39 189.222 260.323 189.222 261.383C189.222 262.327 188.896 263.178 188.22 263.959C187.847 264.402 187.264 264.903 186.471 265.451C187.404 265.847 188.138 266.313 188.697 266.849C189.758 267.863 190.283 269.145 190.283 270.696C190.283 272.537 189.56 274.145 188.115 275.544C186.669 276.943 184.618 277.654 181.949 277.654C180.76 277.654 179.933 277.479 179.455 277.117C178.977 276.768 178.744 276.395 178.744 275.987C178.744 275.73 178.814 275.497 178.977 275.264C179.14 275.031 179.397 274.915 179.758 274.915Z" fill="white"/>
<path d="M28.998 86.0312H474.05V90.22H28.998V86.0312Z" fill="#DEDEDE" fill-opacity="0.12"/>
</g>
<defs>
<clipPath id="clip0_11284_209062">
<rect width="504" height="328" fill="white"/>
</clipPath>
</defs>
</svg>
