<svg width="180" height="120" viewBox="0 0 180 120" fill="none" xmlns="http://www.w3.org/2000/svg">
<g clip-path="url(#clip0_11105_19304)">
<g clip-path="url(#clip1_11105_19304)">
<path fill-rule="evenodd" clip-rule="evenodd" d="M30.295 47.6766C30.295 46.6897 29.8016 45.9465 27.6147 45.9465C25.4277 45.9465 24.9343 46.6897 24.9343 47.6766V50.3569C24.9343 51.1671 25.2145 51.9773 25.9943 52.6474L33.3957 58.995C34.4557 59.8783 35.0892 60.9687 35.0892 62.0957V66.1162C35.0892 68.5163 32.2687 69.8504 27.6147 69.8504C22.4671 69.8504 20 68.6869 20 66.1162V62.6196H24.6541V65.97C24.6541 67.1701 25.5678 67.8706 27.6147 67.8706C29.5153 67.8706 30.4351 67.164 30.4351 65.97V62.4124C30.4351 61.5291 30.0818 60.8591 29.0949 59.9818L22.26 54.018C20.9869 52.9276 20.2863 52.0809 20.2863 50.7772V47.707C20.2863 45.2094 22.8936 43.9728 27.6147 43.9728C32.8353 43.9728 34.9491 45.2094 34.9491 47.5304V50.7712H30.295V47.6766ZM75.1667 48.2187C75.1667 45.715 77.0673 43.918 83.3478 43.918C89.6223 43.918 91.5229 45.715 91.5229 48.2187V65.4888C91.5229 67.9925 89.6223 69.7895 83.3478 69.7895C77.0734 69.7895 75.1727 67.9925 75.1727 65.4888L75.1667 48.2187ZM79.8207 65.4218C79.8207 66.8289 80.3812 67.8158 83.3478 67.8158C86.3084 67.8158 86.875 66.8289 86.875 65.4218V48.2918C86.875 46.8785 86.3084 45.8917 83.3478 45.8917C80.3873 45.8917 79.8207 46.8785 79.8207 48.2918V65.4218ZM94.0936 44.1312H101.495C107.489 44.1312 109.25 45.118 109.25 48.0116V54.2495C109.25 57.137 107.489 58.13 101.495 58.13H98.7477V69.5824H94.0936V44.1312ZM101.002 56.1502C103.115 56.1502 104.596 55.8699 104.596 54.5663V47.6887C104.596 46.3851 103.115 46.1049 101.002 46.1049H98.7477V56.1502H101.002ZM120.873 47.6217C120.873 46.6349 120.379 45.8917 118.193 45.8917C116.006 45.8917 115.512 46.6349 115.512 47.6217V50.3021C115.512 51.1123 115.792 51.9225 116.572 52.5926L123.974 58.9402C125.034 59.8235 125.667 60.9139 125.667 62.0408V66.0614C125.667 68.4554 122.847 69.7956 118.193 69.7956C113.045 69.7956 110.578 68.6321 110.578 66.0614V62.5708H115.232V65.9152C115.232 67.1153 116.146 67.8219 118.193 67.8219C120.093 67.8219 121.013 67.1153 121.013 65.9213V62.3637C121.013 61.4804 120.66 60.8103 119.673 59.9331L112.838 53.9632C111.571 52.8728 110.864 52.0261 110.864 50.7224V47.6522C110.864 45.1485 113.471 43.918 118.193 43.918C123.413 43.918 125.521 45.1485 125.521 47.4755V50.7163H120.867L120.873 47.6217ZM155.212 47.6217C155.212 46.6349 154.718 45.8917 152.532 45.8917C150.345 45.8917 149.851 46.6349 149.851 47.6217V50.3021C149.851 51.1123 150.131 51.9225 150.911 52.5926L158.313 58.9402C159.373 59.8235 160.006 60.9139 160.006 62.0408V66.0614C160.006 68.4615 157.186 69.7956 152.532 69.7956C147.384 69.7956 144.917 68.6321 144.917 66.0614V62.5708H149.571V65.9213C149.571 67.1213 150.485 67.828 152.532 67.828C154.438 67.828 155.352 67.1213 155.352 65.9213V62.3637C155.352 61.4804 154.999 60.8103 154.012 59.9331L147.177 53.9754C145.91 52.885 145.203 52.0382 145.203 50.7346V47.6522C145.203 45.1485 147.81 43.918 152.532 43.918C157.752 43.918 159.86 45.1546 159.86 47.4755V50.7163H155.206L155.212 47.6217ZM49.49 44.1312H54.1502L43.9527 76.0823H39.2925L49.49 44.1312ZM42.1373 63.978L35.8324 44.186H40.4926L44.4644 56.6619L42.1373 63.978ZM140.013 44.1312H144.673L134.476 76.0823H129.816L140.013 44.1312ZM132.685 63.9232L126.386 44.1312H131.046L135.018 56.607L132.685 63.9232ZM72.2975 69.5763H72.3157V48.0116C72.3157 45.1241 70.5552 44.1373 64.561 44.1312H55.5939V69.5824H60.2419L60.248 69.5763V46.111H64.0736C66.1875 46.111 67.6677 46.3912 67.6677 47.6948V69.5763H72.2975Z" fill="#573885"/>
</g>
</g>
<defs>
<clipPath id="clip0_11105_19304">
<rect width="140" height="60" fill="white" transform="translate(20 30)"/>
</clipPath>
<clipPath id="clip1_11105_19304">
<rect width="140" height="32.1643" fill="white" transform="translate(20 43.918)"/>
</clipPath>
</defs>
</svg>
