<svg width="335" height="76" viewBox="0 0 335 76" fill="none" xmlns="http://www.w3.org/2000/svg">
<path d="M24.9412 10.2421C24.9412 8.03374 23.8372 6.37568 18.9582 6.37568C14.0675 6.37568 12.9677 8.03185 12.9677 10.2421V16.2251C12.9677 18.0378 13.5977 19.8501 15.3322 21.3464L31.8676 35.5272C34.2374 37.4959 35.6547 39.9379 35.6547 42.4589V51.4389C35.6547 56.8021 29.3467 59.7918 18.953 59.7918C7.45186 59.7918 1.93372 57.1929 1.9375 51.4389V43.6456H12.3388L12.3335 51.1253C12.3335 53.8077 14.3854 55.381 18.9514 55.381C23.2072 55.381 25.2519 53.808 25.2519 51.1253V43.1656C25.2519 41.1968 24.4654 39.6968 22.2623 37.7345L6.97411 24.423C4.1406 21.975 2.56341 20.0841 2.56341 17.1738V10.3215C2.56341 4.72783 8.39521 1.96875 18.9552 1.96875C30.6151 1.96875 35.3357 4.72933 35.3357 9.92845V17.1775H24.9382L24.9412 10.2421Z" fill="#573885"/>
<path d="M135.683 49.9281C135.683 53.0791 136.938 55.2875 143.559 55.2875C150.177 55.2875 151.439 53.0791 151.439 49.9281V11.6416C151.439 8.49585 150.179 6.28594 143.563 6.28594C136.945 6.28594 135.683 8.49434 135.683 11.6416V49.9281ZM125.285 11.4903C125.285 5.89664 129.533 1.88281 143.563 1.88281C157.585 1.88281 161.841 5.89664 161.841 11.4903L161.837 50.0793C161.837 55.673 157.589 59.6945 143.559 59.6945C129.537 59.6945 125.281 55.673 125.281 50.0793L125.285 11.4903Z" fill="#573885"/>
<path d="M183.307 29.1402C188.035 29.1402 191.342 28.5102 191.342 25.5936V10.2335C191.342 7.31687 188.035 6.68682 183.307 6.68682H178.268V29.141L183.307 29.1402ZM167.867 2.27539H184.414C197.809 2.27539 201.747 4.47847 201.747 10.9418L201.736 24.8844C201.736 31.3437 197.797 33.5509 184.414 33.5509H178.268V59.1535H167.867V2.27539Z" fill="#573885"/>
<path d="M227.523 10.2438C227.523 8.03544 226.418 6.38118 221.54 6.38118C216.649 6.38118 215.545 8.03733 215.545 10.2438V16.2268C215.545 18.0395 216.175 19.8518 217.91 21.3481L234.457 35.5289C236.816 37.4976 238.233 39.9396 238.233 42.4606V51.4444C238.233 56.8038 231.936 59.7935 221.535 59.7935C210.034 59.7935 204.516 57.1946 204.516 51.4406V43.6435H214.917V51.127C214.917 53.8094 216.969 55.3827 221.535 55.3827C225.791 55.3827 227.835 53.8097 227.835 51.127V43.1673C227.835 41.1985 227.054 39.7038 224.84 37.7362L209.56 24.417C206.716 21.9743 205.149 20.082 205.149 17.1717V10.3119C205.149 4.71816 210.977 1.96289 221.541 1.96289C233.197 1.96289 237.921 4.71815 237.921 9.92634V17.1717H227.524L227.523 10.2438Z" fill="#573885"/>
<path d="M304.245 10.2439C304.245 8.03554 303.141 6.38128 298.262 6.38128C293.375 6.38128 292.272 8.03743 292.272 10.2439V16.2344C292.272 18.0418 292.902 19.8542 294.636 21.3482L311.179 35.5366C313.544 37.5053 314.955 39.9434 314.955 42.4644V51.4484C314.955 56.8077 308.659 59.7973 298.261 59.7973C286.756 59.7973 281.234 57.1985 281.234 51.4484V43.6474H291.639L291.636 51.1308C291.636 53.8131 293.688 55.3866 298.261 55.3866C302.506 55.3866 304.558 53.8135 304.558 51.1308V43.1712C304.558 41.2024 303.771 39.7076 301.563 37.74L286.282 24.4209C283.444 21.9835 281.872 20.0934 281.872 17.1756V10.3158C281.872 4.73341 287.7 1.9668 298.263 1.9668C309.919 1.9668 314.648 4.73226 314.648 9.93024V17.1756H304.246L304.245 10.2439Z" fill="#573885"/>
<path d="M68.029 2.30664H78.4453L55.6548 73.7019H45.2422L68.029 2.30664Z" fill="#573885"/>
<path d="M51.3948 46.9041L37.3047 2.68359H47.7173L56.5992 30.5652L51.3948 46.9041Z" fill="#573885"/>
<path d="M270.236 2.30664H280.648L257.858 73.7397H247.445L270.236 2.30664Z" fill="#573885"/>
<path d="M253.981 46.5271L239.891 2.30664H250.303L259.189 30.192L253.981 46.5271Z" fill="#573885"/>
<path d="M119.05 59.3768H119.102V11.1878C119.102 4.72479 115.16 2.51758 101.773 2.51758H81.7147L81.7109 59.3995H92.1084L92.1122 59.3768V6.91695H100.669C105.393 6.91695 108.701 7.55229 108.701 10.4637V59.3708L119.05 59.3768Z" fill="#573885"/>
<path d="M325.792 9.10993C326.772 9.10993 327.647 9.04226 327.647 7.87023C327.647 6.91704 326.793 6.75032 325.985 6.75032H324.407V9.10953L325.792 9.10993ZM324.407 13.4034H323.245V5.76882H326.157C327.964 5.76882 328.86 6.43025 328.86 7.93563C328.86 9.31062 327.995 9.90435 326.876 10.0449L329.047 13.4042H327.756L325.735 10.0971H324.407L324.407 13.4034ZM325.813 15.1066C328.808 15.1066 331.169 12.7575 331.169 9.5657C331.169 6.43021 328.809 4.06648 325.813 4.06648C322.771 4.06648 320.412 6.43096 320.412 9.5657C320.412 12.7583 322.771 15.1066 325.813 15.1066ZM319.078 9.5657C319.078 5.76728 322.161 2.96289 325.813 2.96289C329.417 2.96289 332.495 5.7703 332.495 9.5657C332.495 13.4057 329.417 16.2102 325.813 16.2102C322.162 16.2102 319.078 13.4027 319.078 9.5657Z" fill="#573885"/>
</svg>
