<svg width="70" height="30" viewBox="0 0 70 30" fill="none" xmlns="http://www.w3.org/2000/svg">
<g clip-path="url(#clip0_10196_1381)">
<g clip-path="url(#clip1_10196_1381)">
<g clip-path="url(#clip2_10196_1381)">
<path fill-rule="evenodd" clip-rule="evenodd" d="M5.14751 8.83828C5.14751 8.34485 4.90079 7.97326 3.80733 7.97326C2.71386 7.97326 2.46715 8.34485 2.46715 8.83828V10.1785C2.46715 10.5836 2.60726 10.9887 2.99713 11.3237L6.69785 14.4975C7.22783 14.9391 7.5446 15.4844 7.5446 16.0478V18.0581C7.5446 19.2582 6.13437 19.9252 3.80733 19.9252C1.23357 19.9252 0 19.3435 0 18.0581V16.3098H2.32704V17.985C2.32704 18.585 2.78392 18.9353 3.80733 18.9353C4.75764 18.9353 5.21756 18.582 5.21756 17.985V16.2062C5.21756 15.7646 5.0409 15.4295 4.54747 14.9909L1.13001 12.009C0.49343 11.4638 0.143156 11.0404 0.143156 10.3886V8.85351C0.143156 7.60471 1.44678 6.9864 3.80733 6.9864C6.41763 6.9864 7.47455 7.60471 7.47455 8.76518V10.3856H5.14751V8.83828ZM27.5833 9.10936C27.5833 7.85751 28.5336 6.95898 31.6739 6.95898C34.8112 6.95898 35.7615 7.85751 35.7615 9.10936V17.7444C35.7615 18.9962 34.8112 19.8948 31.6739 19.8948C28.5367 19.8948 27.5864 18.9962 27.5864 17.7444L27.5833 9.10936ZM29.9104 17.7109C29.9104 18.4145 30.1906 18.9079 31.6739 18.9079C33.1542 18.9079 33.4375 18.4145 33.4375 17.7109V9.14591C33.4375 8.43927 33.1542 7.94584 31.6739 7.94584C30.1936 7.94584 29.9104 8.43927 29.9104 9.14591V17.7109ZM37.0468 7.06559H40.7475C43.7447 7.06559 44.6249 7.55902 44.6249 9.0058V12.1248C44.6249 13.5685 43.7447 14.065 40.7475 14.065H39.3739V19.7912H37.0468V7.06559ZM40.5008 13.0751C41.5577 13.0751 42.2979 12.935 42.2979 12.2832V8.84437C42.2979 8.19256 41.5577 8.05245 40.5008 8.05245H39.3739V13.0751H40.5008ZM50.4364 8.81087C50.4364 8.31744 50.1897 7.94584 49.0963 7.94584C48.0028 7.94584 47.7561 8.31744 47.7561 8.81087V10.151C47.7561 10.5561 47.8962 10.9612 48.2861 11.2963L51.9868 14.4701C52.5168 14.9117 52.8335 15.4569 52.8335 16.0204V18.0307C52.8335 19.2277 51.4233 19.8978 49.0963 19.8978C46.5225 19.8978 45.2889 19.316 45.2889 18.0307V16.2854H47.616V17.9576C47.616 18.5576 48.0728 18.9109 49.0963 18.9109C50.0466 18.9109 50.5065 18.5576 50.5065 17.9606V16.1819C50.5065 15.7402 50.3298 15.4052 49.8364 14.9666L46.4189 11.9816C45.7854 11.4364 45.4321 11.013 45.4321 10.3612V8.8261C45.4321 7.57425 46.7357 6.95898 49.0963 6.95898C51.7066 6.95898 52.7604 7.57425 52.7604 8.73777V10.3582H50.4334L50.4364 8.81087ZM67.606 8.81087C67.606 8.31744 67.3592 7.94584 66.2658 7.94584C65.1723 7.94584 64.9256 8.31744 64.9256 8.81087V10.151C64.9256 10.5561 65.0657 10.9612 65.4556 11.2963L69.1563 14.4701C69.6863 14.9117 70.0031 15.4569 70.0031 16.0204V18.0307C70.0031 19.2308 68.5928 19.8978 66.2658 19.8978C63.692 19.8978 62.4585 19.316 62.4585 18.0307V16.2854H64.7855V17.9606C64.7855 18.5607 65.2424 18.914 66.2658 18.914C67.2191 18.914 67.676 18.5607 67.676 17.9606V16.1819C67.676 15.7402 67.4994 15.4052 67.0059 14.9666L63.5885 11.9877C62.9549 11.4425 62.6016 11.0191 62.6016 10.3673V8.8261C62.6016 7.57425 63.9052 6.95898 66.2658 6.95898C68.8761 6.95898 69.9299 7.57729 69.9299 8.73777V10.3582H67.6029L67.606 8.81087ZM14.745 7.06559H17.0751L11.9763 23.0411H9.64625L14.745 7.06559ZM11.0687 16.989L7.9162 7.093H10.2463L12.2322 13.3309L11.0687 16.989ZM60.0065 7.06559H62.3366L57.2378 23.0411H54.9078L60.0065 7.06559ZM56.3424 16.9616L53.1929 7.06559H55.523L57.5089 13.3035L56.3424 16.9616ZM26.1487 19.7882H26.1579V9.0058C26.1579 7.56206 25.2776 7.06864 22.2805 7.06559H17.797V19.7912H20.121L20.124 19.7882V8.05549H22.0368C23.0937 8.05549 23.8339 8.1956 23.8339 8.84742V19.7882H26.1487Z" fill="#E6E7F5"/>
</g>
</g>
</g>
<defs>
<clipPath id="clip0_10196_1381">
<rect width="70" height="30" fill="white"/>
</clipPath>
<clipPath id="clip1_10196_1381">
<rect width="70" height="30" fill="white"/>
</clipPath>
<clipPath id="clip2_10196_1381">
<rect width="70" height="16.0822" fill="white" transform="translate(0 6.95898)"/>
</clipPath>
</defs>
</svg>
