<svg width="140" height="60" viewBox="0 0 140 60" fill="none" xmlns="http://www.w3.org/2000/svg">
<g clip-path="url(#clip0_11105_19306)">
<g clip-path="url(#clip1_11105_19306)">
<path fill-rule="evenodd" clip-rule="evenodd" d="M10.295 17.6766C10.295 16.6897 9.80158 15.9465 7.61466 15.9465C5.42773 15.9465 4.9343 16.6897 4.9343 17.6766V20.3569C4.9343 21.1671 5.21452 21.9773 5.99426 22.6474L13.3957 28.995C14.4557 29.8783 15.0892 30.9687 15.0892 32.0957V36.1162C15.0892 38.5163 12.2687 39.8504 7.61466 39.8504C2.46715 39.8504 0 38.6869 0 36.1162V32.6196H4.65408V35.97C4.65408 37.1701 5.56784 37.8706 7.61466 37.8706C9.51527 37.8706 10.4351 37.164 10.4351 35.97V32.4124C10.4351 31.5291 10.0818 30.8591 9.09494 29.9818L2.26003 24.018C0.986859 22.9276 0.286311 22.0809 0.286311 20.7772V17.707C0.286311 15.2094 2.89357 13.9728 7.61466 13.9728C12.8353 13.9728 14.9491 15.2094 14.9491 17.5304V20.7712H10.295V17.6766ZM55.1667 18.2187C55.1667 15.715 57.0673 13.918 63.3478 13.918C69.6223 13.918 71.5229 15.715 71.5229 18.2187V35.4888C71.5229 37.9925 69.6223 39.7895 63.3478 39.7895C57.0734 39.7895 55.1727 37.9925 55.1727 35.4888L55.1667 18.2187ZM59.8207 35.4218C59.8207 36.8289 60.3812 37.8158 63.3478 37.8158C66.3084 37.8158 66.875 36.8289 66.875 35.4218V18.2918C66.875 16.8785 66.3084 15.8917 63.3478 15.8917C60.3873 15.8917 59.8207 16.8785 59.8207 18.2918V35.4218ZM74.0936 14.1312H81.4951C87.4893 14.1312 89.2499 15.118 89.2499 18.0116V24.2495C89.2499 27.137 87.4893 28.13 81.4951 28.13H78.7477V39.5824H74.0936V14.1312ZM81.0017 26.1502C83.1155 26.1502 84.5958 25.8699 84.5958 24.5663V17.6887C84.5958 16.3851 83.1155 16.1049 81.0017 16.1049H78.7477V26.1502H81.0017ZM100.873 17.6217C100.873 16.6349 100.379 15.8917 98.1925 15.8917C96.0056 15.8917 95.5121 16.6349 95.5121 17.6217V20.3021C95.5121 21.1123 95.7924 21.9225 96.5721 22.5926L103.974 28.9402C105.034 29.8235 105.667 30.9139 105.667 32.0408V36.0614C105.667 38.4554 102.847 39.7956 98.1925 39.7956C93.045 39.7956 90.5779 38.6321 90.5779 36.0614V32.5708H95.2319V35.9152C95.2319 37.1153 96.1457 37.8219 98.1925 37.8219C100.093 37.8219 101.013 37.1153 101.013 35.9213V32.3637C101.013 31.4804 100.66 30.8103 99.6728 29.9331L92.8379 23.9632C91.5708 22.8728 90.8642 22.0261 90.8642 20.7224V17.6522C90.8642 15.1485 93.4714 13.918 98.1925 13.918C103.413 13.918 105.521 15.1485 105.521 17.4755V20.7163H100.867L100.873 17.6217ZM135.212 17.6217C135.212 16.6349 134.718 15.8917 132.532 15.8917C130.345 15.8917 129.851 16.6349 129.851 17.6217V20.3021C129.851 21.1123 130.131 21.9225 130.911 22.5926L138.313 28.9402C139.373 29.8235 140.006 30.9139 140.006 32.0408V36.0614C140.006 38.4615 137.186 39.7956 132.532 39.7956C127.384 39.7956 124.917 38.6321 124.917 36.0614V32.5708H129.571V35.9213C129.571 37.1213 130.485 37.828 132.532 37.828C134.438 37.828 135.352 37.1213 135.352 35.9213V32.3637C135.352 31.4804 134.999 30.8103 134.012 29.9331L127.177 23.9754C125.91 22.885 125.203 22.0382 125.203 20.7346V17.6522C125.203 15.1485 127.81 13.918 132.532 13.918C137.752 13.918 139.86 15.1546 139.86 17.4755V20.7163H135.206L135.212 17.6217ZM29.49 14.1312H34.1502L23.9527 46.0823H19.2925L29.49 14.1312ZM22.1373 33.978L15.8324 14.186H20.4926L24.4644 26.6619L22.1373 33.978ZM120.013 14.1312H124.673L114.476 46.0823H109.816L120.013 14.1312ZM112.685 33.9232L106.386 14.1312H111.046L115.018 26.607L112.685 33.9232ZM52.2975 39.5763H52.3157V18.0116C52.3157 15.1241 50.5552 14.1373 44.561 14.1312H35.5939V39.5824H40.2419L40.248 39.5763V16.111H44.0736C46.1875 16.111 47.6677 16.3912 47.6677 17.6948V39.5763H52.2975Z" fill="#573885"/>
</g>
</g>
<defs>
<clipPath id="clip0_11105_19306">
<rect width="140" height="60" fill="white"/>
</clipPath>
<clipPath id="clip1_11105_19306">
<rect width="140" height="32.1643" fill="white" transform="translate(0 13.918)"/>
</clipPath>
</defs>
</svg>
