<svg width="140" height="60" viewBox="0 0 140 60" fill="none" xmlns="http://www.w3.org/2000/svg">
<g clip-path="url(#clip0_11105_19313)">
<path d="M1.78906 22.1871C9.66266 21.4815 20.5883 22.0695 20.5883 22.0695V24.9479H13.1851V37.3463H9.54506V24.9479H1.90666L1.78906 22.1871Z" fill="#2C2F73"/>
<path d="M63.1437 32.8786C63.1717 34.1778 62.1469 35.253 60.8477 35.281C59.5485 35.309 58.4733 34.2842 58.4453 32.985C58.4453 32.9514 58.4453 32.9122 58.4453 32.8786C58.4733 31.5794 59.5485 30.5546 60.8477 30.5826C62.1021 30.6106 63.1157 31.6242 63.1437 32.8786Z" fill="#5EBFD4"/>
<path d="M40.9367 21.9535V28.1807H30.9351V21.9535L27.1719 22.1887V37.5271L30.9295 37.6951V30.9975H40.9367V37.6951L44.6999 37.5271V22.1887L40.9367 21.9535ZM50.4399 37.3423L59.1311 22.1887H62.7711L71.5855 37.3423L67.4751 37.6951L61.0127 25.8287H60.6599L54.0799 37.5775L50.4399 37.3423ZM77.1071 37.3423V22.3063H80.5119V34.6431H92.4959V37.3479C92.5015 37.3423 84.6279 38.9887 77.1071 37.3423ZM98.3759 37.4599V22.1887C98.3759 22.1887 109.184 21.0127 114.705 22.3063V25.1287L102.223 25.2463V28.3039H109.419V31.2439H102.223V34.7663H114.941V37.5887C114.946 37.5775 105.544 38.8711 98.3759 37.4599ZM137.973 22.0711V25.1287H124.343V28.1807H135.504C135.504 28.1807 138.209 29.4743 138.209 30.7679V34.7607C138.209 37.3479 135.504 38.0535 133.04 38.0535C129.282 38.0535 123.055 37.9359 120.938 37.5831V34.7607H134.921V31.3503H124.466C122.82 31.3503 121.061 30.4095 121.061 29.2335V24.6527C121.061 23.1239 123.178 22.0655 124.819 22.0655L137.973 22.0711Z" fill="#2C2F73"/>
</g>
<defs>
<clipPath id="clip0_11105_19313">
<rect width="140" height="17.976" fill="white" transform="translate(0 21.0117)"/>
</clipPath>
</defs>
</svg>
