<svg width="70" height="30" viewBox="0 0 70 30" fill="none" xmlns="http://www.w3.org/2000/svg">
<g clip-path="url(#clip0_10196_1387)">
<g clip-path="url(#clip1_10196_1387)">
<g clip-path="url(#clip2_10196_1387)">
<path d="M0.896484 11.0936C4.83328 10.7408 10.2961 11.0348 10.2961 11.0348V12.474H6.59448V18.6732H4.77448V12.474H0.955284L0.896484 11.0936Z" fill="#E6E7F5"/>
<path d="M31.5719 16.4393C31.5859 17.0889 31.0735 17.6265 30.4239 17.6405C29.7743 17.6545 29.2367 17.1421 29.2227 16.4925C29.2227 16.4757 29.2227 16.4561 29.2227 16.4393C29.2367 15.7897 29.7743 15.2773 30.4239 15.2913C31.0511 15.3053 31.5579 15.8121 31.5719 16.4393Z" fill="#E6E7F5"/>
<path d="M20.4683 10.9758V14.0894H15.4675V10.9758L13.5859 11.0934V18.7626L15.4647 18.8466V15.4978H20.4683V18.8466L22.3499 18.7626V11.0934L20.4683 10.9758ZM25.2199 18.6702L29.5655 11.0934H31.3855L35.7927 18.6702L33.7375 18.8466L30.5063 12.9134H30.3299L27.0399 18.7878L25.2199 18.6702ZM38.5535 18.6702V11.1522H40.2559V17.3206H46.2479V18.673C46.2507 18.6702 42.3139 19.4934 38.5535 18.6702ZM49.1879 18.729V11.0934C49.1879 11.0934 54.5919 10.5054 57.3527 11.1522V12.5634L51.1115 12.6222V14.151H54.7095V15.621H51.1115V17.3822H57.4703V18.7934C57.4731 18.7878 52.7719 19.4346 49.1879 18.729ZM68.9867 11.0346V12.5634H62.1715V14.0894H67.7519C67.7519 14.0894 69.1043 14.7362 69.1043 15.383V17.3794C69.1043 18.673 67.7519 19.0258 66.5199 19.0258C64.6411 19.0258 61.5275 18.967 60.4691 18.7906V17.3794H67.4607V15.6742H62.2331C61.4099 15.6742 60.5307 15.2038 60.5307 14.6158V12.3254C60.5307 11.561 61.5891 11.0318 62.4095 11.0318L68.9867 11.0346Z" fill="#E6E7F5"/>
</g>
</g>
</g>
<defs>
<clipPath id="clip0_10196_1387">
<rect width="70" height="30" fill="white"/>
</clipPath>
<clipPath id="clip1_10196_1387">
<rect width="70" height="30" fill="white"/>
</clipPath>
<clipPath id="clip2_10196_1387">
<rect width="70" height="8.988" fill="white" transform="translate(0 10.5059)"/>
</clipPath>
</defs>
</svg>
