<svg width="140" height="18" viewBox="0 0 140 18" fill="none" xmlns="http://www.w3.org/2000/svg">
<g clip-path="url(#clip0_11105_19314)">
<path d="M1.78906 1.17541C9.66266 0.469812 20.5883 1.05781 20.5883 1.05781V3.93621H13.1851V16.3346H9.54506V3.93621H1.90666L1.78906 1.17541Z" fill="#2C2F73"/>
<path d="M63.1437 11.8669C63.1717 13.1661 62.1469 14.2413 60.8477 14.2693C59.5485 14.2973 58.4733 13.2725 58.4453 11.9733C58.4453 11.9397 58.4453 11.9005 58.4453 11.8669C58.4733 10.5677 59.5485 9.54287 60.8477 9.57087C62.1021 9.59887 63.1157 10.6125 63.1437 11.8669Z" fill="#5EBFD4"/>
<path d="M40.9367 0.94179V7.16899H30.9351V0.94179L27.1719 1.17699V16.5154L30.9295 16.6834V9.98579H40.9367V16.6834L44.6999 16.5154V1.17699L40.9367 0.94179ZM50.4399 16.3306L59.1311 1.17699H62.7711L71.5855 16.3306L67.4751 16.6834L61.0127 4.81699H60.6599L54.0799 16.5658L50.4399 16.3306ZM77.1071 16.3306V1.29459H80.5119V13.6314H92.4959V16.3362C92.5015 16.3306 84.6279 17.977 77.1071 16.3306ZM98.3759 16.4482V1.17699C98.3759 1.17699 109.184 0.00099016 114.705 1.29459V4.11699L102.223 4.23459V7.29219H109.419V10.2322H102.223V13.7546H114.941V16.577C114.946 16.5658 105.544 17.8594 98.3759 16.4482ZM137.973 1.05939V4.11699H124.343V7.16899H135.504C135.504 7.16899 138.209 8.46259 138.209 9.75619V13.749C138.209 16.3362 135.504 17.0418 133.04 17.0418C129.282 17.0418 123.055 16.9242 120.938 16.5714V13.749H134.921V10.3386H124.466C122.82 10.3386 121.061 9.39779 121.061 8.22179V3.64099C121.061 2.11219 123.178 1.05379 124.819 1.05379L137.973 1.05939Z" fill="#2C2F73"/>
</g>
<defs>
<clipPath id="clip0_11105_19314">
<rect width="140" height="17.976" fill="white"/>
</clipPath>
</defs>
</svg>
