<svg width="484" height="58" viewBox="0 0 484 58" fill="none" xmlns="http://www.w3.org/2000/svg">
<g clip-path="url(#clip0_11102_17327)">
<path d="M484 42.1C484 49.9 481.7 52.2 475.5 54.1C468.8 56.1 456.9 57.4 449.8 57.4C441.4 57.4 430.9 56.9 422 54.8V45.8H471.3V33.5H436.4C425.9 33.5 422 30.6 422 20.4V15C422 6.9 424.4 4.5 430.9 2.8C437.5 1.1 448.3 0 455.4 0C464 0 474.3 0.7 483.2 2.7V11.7H434.7V22H469.6C480.1 22 484 24.8 484 35.1V42.1Z" fill="#2C2F73"/>
<path d="M399.997 54.7C389.797 56.7 379.497 57.3 369.497 57.3C359.497 57.3 349.097 56.7 338.797 54.7V2.7C348.997 0.7 359.397 0 369.297 0C379.297 0 389.397 0.6 399.597 2.7V12H353.397V22.4H383.497V33.2H353.397V45.5H399.797V54.7H399.997Z" fill="#2C2F73"/>
<path d="M321.003 54.7008C311.803 56.7008 302.603 57.3008 293.703 57.3008C284.803 57.3008 275.403 56.8008 266.203 54.7008V1.30078H280.903V44.8008H321.003V54.7008Z" fill="#2C2F73"/>
<path d="M248.997 55.1004C244.097 56.5004 237.597 57.0004 232.797 57.1004L210.097 11.3004H208.797L186.197 57.1004C181.397 57.0004 175.697 56.5004 170.797 55.1004L199.497 1.40039H219.997L248.997 55.1004Z" fill="#2C2F73"/>
<path d="M218.998 41.4004C218.998 46.7004 214.698 50.9004 209.398 50.9004C204.098 50.9004 199.898 46.6004 199.898 41.4004C199.898 36.1004 204.198 31.9004 209.398 31.9004C214.698 31.9004 218.998 36.1004 218.998 41.4004Z" fill="#5EBFD4"/>
<path d="M153.002 55.1004C148.302 56.5004 143.302 56.9004 138.302 57.0004V33.7004H101.802V57.0004C96.8016 56.9004 91.8016 56.4004 87.1016 55.1004V2.30039C91.8016 0.900391 96.8016 0.500391 101.802 0.400391V22.9004H138.302V0.400391C143.302 0.500391 148.302 1.00039 153.002 2.30039V55.1004Z" fill="#2C2F73"/>
<path d="M66.2 12.1H40.4V56.1H25.8V12.1H0V2.7C11.1 0.7 22.3 0 33.1 0C43.9 0 55.1 0.6 66.2 2.7V12.1Z" fill="#2C2F73"/>
</g>
<defs>
<clipPath id="clip0_11102_17327">
<rect width="484" height="57.4" fill="white"/>
</clipPath>
</defs>
</svg>
