<svg width="70" height="30" viewBox="0 0 70 30" fill="none" xmlns="http://www.w3.org/2000/svg">
<g clip-path="url(#clip0_10196_1396)">
<g clip-path="url(#clip1_10196_1396)">
<path d="M49.9878 14.2317L49.9268 13.4756L49.8902 13.0975V13.0853L49.8415 12.7195V12.7073L49.7073 11.9756L49.5488 11.2561L49.3415 10.5366L49.1098 9.84144L48.8415 9.15851L48.5366 8.48778L48.2073 7.84144L47.8415 7.20729L47.4512 6.60973L47.0366 6.02437L46.5854 5.4512L46.1098 4.90242L45.6098 4.37803L45.0854 3.87802L44.5488 3.40242L43.9756 2.9512L43.3902 2.53656L42.7927 2.14632L42.1585 1.78046L41.5122 1.4512L40.8415 1.14632L40.1585 0.878025L39.4634 0.634122L38.7439 0.426805L38.0244 0.256074L37.2927 0.121927L36.9268 0.0731469L36.5488 0.0365615L35.7927 -0.0244141L35 -2.38195e-05H34.9878L34.2317 0.0121713L33.4756 0.0731469L33.1098 0.109732L32.7439 0.158513H32.7317L32 0.292659L31.2805 0.463391L30.5732 0.670708L29.878 0.91461L29.1951 1.1829L28.5366 1.48778L27.8902 1.81705L27.2561 2.1829L26.6463 2.57315L26.061 2.98778L25.4878 3.439L24.9268 3.90242L24.4024 4.40241L23.9024 4.92681L23.4268 5.47559L22.9878 6.04876L22.5732 6.63412L22.1829 7.23168L21.8171 7.86583L21.4878 8.51217L21.1829 9.1829L20.9146 9.86583L20.6707 10.561L20.4634 11.2683L20.2927 11.9878L20.1585 12.7195L20.061 13.4756L20 14.2317V15L20.0244 15.7683L20.0854 16.5244L20.1829 17.2683L20.3171 18L20.4878 18.7317L20.6951 19.439L20.939 20.1341L21.2073 20.817L21.5122 21.4756L21.8415 22.1219L22.2073 22.7561L22.5976 23.3658L23.0122 23.9512L23.4512 24.5244L23.9268 25.061L24.4268 25.5853L24.9512 26.0853L25.4878 26.561L26.061 27L26.6463 27.4146L27.2561 27.8049L27.8902 28.1707L28.5366 28.5L29.1951 28.8049L29.878 29.0731L30.5732 29.317L31.2805 29.5244L32 29.6951L32.7439 29.8292L33.4878 29.9268L34.2439 29.9878L35.0122 30.0122L35.7805 29.9878L36.5366 29.9268L37.2927 29.8292L38.0244 29.6951L38.7439 29.5244L39.4512 29.317L40.1463 29.0731L40.8293 28.8049L41.5 28.5L42.1463 28.1707L42.7805 27.8049L43.378 27.4146L43.9634 27L44.5366 26.561L45.0732 26.0853L45.5976 25.5853L46.0976 25.061L46.5732 24.5244L47.0244 23.9512L47.439 23.3658L47.8293 22.7561L48.1829 22.1219L48.5122 21.4756L48.8171 20.8049L49.0854 20.1219L49.3293 19.4268L49.5366 18.7195L49.6951 18L49.8293 17.2683L49.9146 16.5244L49.9756 15.7683L49.9878 15V14.2317ZM48.9634 15.7195L48.9024 16.4268L48.8171 17.1219L48.6951 17.817L48.5366 18.4878L48.3537 19.1463L48.2561 19.4634L48.1463 19.7805L47.9024 20.4146L47.622 21.0244L47.3171 21.6341L46.9756 22.2195L46.6098 22.7927L46.2195 23.3414L45.8049 23.878L45.3659 24.3902L44.9024 24.878L44.4146 25.3414L43.9024 25.7805L43.378 26.1951L42.8049 26.5853L42.2439 26.9512L41.6585 27.2927L41.0488 27.5975L40.4268 27.878L39.7927 28.1219L39.1463 28.3414L38.4878 28.5244L37.8171 28.6829L37.1341 28.8049L36.4268 28.8902L35.7195 28.9512L35 28.9634L34.2927 28.9512L33.5854 28.8902L32.8902 28.8049L32.1951 28.6829L31.5244 28.5244L30.8659 28.3414L30.2195 28.1219L29.5854 27.878L28.9756 27.5975L28.378 27.2927L27.7927 26.9512L27.2195 26.5853L26.6707 26.1951L26.1463 25.7805L25.6341 25.3414L25.1463 24.878L24.6829 24.3902L24.2439 23.878L23.8293 23.3536L23.439 22.8049L23.0732 22.2317L22.7317 21.6463L22.4268 21.0488L22.1463 20.439L21.8902 19.8049L21.6707 19.1585L21.4756 18.5L21.3171 17.8292L21.1951 17.1341L21.1098 16.439L21.0488 15.7317L21.0366 15.0122L21.0488 14.2927L21.1098 13.5853L21.1951 12.8902L21.3171 12.2073L21.4756 11.5366L21.6707 10.878L21.8902 10.2317L22.1341 9.59754L22.4146 8.97558L22.7195 8.37802L23.061 7.79266L23.4268 7.23168L23.8171 6.6829L24.2317 6.15851L24.6707 5.64632L25.1341 5.15851L25.622 4.6951L26.1341 4.25607L26.6585 3.84144L27.2073 3.4512L27.7805 3.08534L28.3659 2.74388L28.9634 2.439L29.5854 2.15851L30.2195 1.91461L30.5366 1.79266L30.8537 1.6951L31.5122 1.51217L32.1829 1.35363L32.878 1.23168L33.5732 1.14632L34.2805 1.08534L34.9878 1.07315L35.7073 1.08534L36.4146 1.14632L37.122 1.23168L37.8049 1.35363L38.1463 1.42681L38.4756 1.51217L39.1341 1.6951L39.4634 1.79266L39.7805 1.90242L40.4146 2.14632L41.0366 2.42681L41.6341 2.73168L42.2195 3.07315L42.7805 3.439L43.3293 3.82924L43.8537 4.24388L44.3659 4.6829L44.8537 5.14632L45.3171 5.63412L45.7561 6.14632L46.1707 6.67071L46.561 7.21949L46.9268 7.78046L47.2683 8.36583L47.5732 8.97558L47.8537 9.59754L48.0976 10.2317L48.2073 10.5488L48.3049 10.878L48.4878 11.5366L48.5732 11.878L48.6463 12.2195L48.7683 12.9024L48.8537 13.6097L48.9146 14.317L48.9268 15.0366L48.9634 15.7195Z" fill="#E6E7F5"/>
<path d="M35.9391 1.81738H35.8659L35.7805 1.82958L35.6952 1.84177L35.622 1.86616L35.561 1.90275L35.5 1.93933L35.4391 1.97592L35.3903 2.0247L35.3415 2.08568L35.2927 2.14665L35.2561 2.21982L35.2318 2.29299L35.2074 2.36616L35.1952 2.45153L35.1708 2.54909V2.68324L35.183 2.79299L35.2196 2.89055L35.2561 2.98811L35.3171 3.07348L35.4025 3.14665L35.4879 3.20763L35.5976 3.25641L36.1586 3.48811L36.1952 3.5125L36.2318 3.5369L36.2683 3.56129L36.2927 3.59787L36.3171 3.63446L36.3293 3.68324L36.3415 3.71982V3.7686L36.3171 3.82958L36.2927 3.90275L36.2561 3.95153L36.2074 3.98811L36.1342 4.0247L36.061 4.04909H35.9757H35.8659L35.7805 4.03689L35.6952 4.00031L35.622 3.96372L35.561 3.91494L35.5244 3.85397L35.4879 3.7808L35.4757 3.69543V3.59787L35.0488 3.56129V3.65885L35.061 3.75641L35.0732 3.85397L35.0854 3.92714L35.1098 4.0125L35.1464 4.08568L35.183 4.15885L35.2318 4.20763L35.2927 4.2686L35.3415 4.31738L35.4147 4.36616L35.4879 4.40275L35.561 4.42714L35.6464 4.45153L35.744 4.47592L35.8415 4.48811H35.9391H36.0366L36.122 4.47592L36.2074 4.46372L36.2805 4.43933L36.3537 4.40275L36.4147 4.36616L36.4757 4.31738L36.5366 4.2686L36.5854 4.20763L36.6342 4.14665L36.6708 4.07348L36.6952 4.00031L36.7196 3.91494L36.744 3.81738L36.7561 3.73202V3.58568L36.744 3.46372L36.7318 3.40275L36.7074 3.34177L36.683 3.29299L36.6464 3.25641L36.5854 3.18324L36.5122 3.12226L36.4391 3.07348L36.3415 3.0247L35.744 2.79299L35.7074 2.7808L35.6708 2.74421L35.6464 2.71982L35.622 2.69543L35.5976 2.64665V2.61007L35.5854 2.57348V2.5247L35.5976 2.46372L35.622 2.40275L35.6586 2.35397L35.7074 2.31738L35.7683 2.2808L35.8293 2.25641H35.9025H35.9879L36.0732 2.2686L36.1464 2.29299L36.2196 2.32958L36.2683 2.36616L36.3049 2.42714L36.3415 2.50031L36.3537 2.58568L36.3659 2.67104L36.7805 2.70763V2.62226V2.5247L36.7683 2.43933L36.7561 2.36616L36.7196 2.29299L36.6952 2.21982L36.6586 2.14665L36.6098 2.08568L36.5488 2.0369L36.5 1.98811L36.4391 1.93933L36.3659 1.90275L36.2927 1.87836L36.2074 1.85397L36.1342 1.82958L36.0366 1.81738H35.9513H35.9391Z" fill="#E6E7F5"/>
<path d="M37.3778 2.04883L37.2559 2.47566L37.8656 2.63419L37.3412 4.65858L37.7681 4.76834L38.2924 2.74395L38.9022 2.90249L39.012 2.46346L37.3778 2.04883Z" fill="#E6E7F5"/>
<path d="M31.232 2.31738L29.793 2.82958L30.6344 5.23202L32.1344 4.69543L31.9759 4.2686L30.8905 4.65885L30.671 4.03689L31.6344 3.69543L31.4759 3.2808L30.5247 3.61007L30.3417 3.11007L31.3783 2.74421L31.232 2.31738Z" fill="#E6E7F5"/>
<path d="M33.9268 3.32972L33.9146 3.18338L33.9024 3.04923L33.878 2.91509L33.8536 2.79314L33.817 2.67118L33.7804 2.56143L33.7317 2.46387L33.6707 2.36631L33.6097 2.28094L33.5487 2.20777L33.4756 2.14679L33.4024 2.08582L33.3292 2.03704L33.2439 2.00045L33.1585 1.97606L33.0731 1.96387H32.9878H32.9634H32.8902L31.9512 2.1224L32.3536 4.6224L32.9634 4.52484L33.2926 4.46387L33.378 4.43948L33.4634 4.41509L33.5365 4.36631L33.6097 4.30533L33.6707 4.24435L33.7317 4.17118L33.7804 4.08582L33.817 4.00045L33.8536 3.90289L33.878 3.79314L33.9024 3.68338L33.9146 3.56143L33.9268 3.43948V3.32972ZM33.4756 3.65899L33.4512 3.78094L33.4024 3.8907L33.3658 3.93948L33.3292 3.97606L33.2926 4.00045L33.256 4.02484L33.2195 4.03704L33.1707 4.04923L32.9756 4.08582L32.7195 4.1224L32.4512 2.48826L32.9024 2.41509H32.9512H32.9634H33L33.0487 2.42728L33.0975 2.43948L33.1341 2.46387L33.1707 2.48826L33.2073 2.52484L33.2439 2.56143L33.317 2.65899L33.378 2.79314L33.4268 2.93948L33.4634 3.1224L33.4878 3.30533V3.47606L33.4756 3.65899Z" fill="#E6E7F5"/>
<path d="M29.2569 3.06055L27.7812 3.87762L27.9886 4.28006L28.5495 3.97518L29.5495 5.80445L29.9398 5.58494L28.9276 3.75567L29.4764 3.45079L29.2569 3.06055Z" fill="#E6E7F5"/>
<path d="M40.0969 2.90234L39.7555 3.29259L38.3652 4.90234L38.7799 5.09747L39.1213 4.68283L39.7433 4.96332L39.8165 4.9999L39.7433 5.42673L39.7311 5.5243L39.7433 5.53649L40.1579 5.73161L40.5482 3.12186L40.0969 2.90234ZM40.0847 3.5243L39.9018 4.54869L39.7555 4.48771L39.4262 4.34137L39.7555 3.93893L40.0847 3.5243Z" fill="#E6E7F5"/>
<path d="M41.5846 3.63379L41.3285 4.01184L41.8528 4.3655L40.6699 6.0972L41.0358 6.34111L42.2065 4.6094L42.7309 4.96306L42.987 4.5972L41.5846 3.63379Z" fill="#E6E7F5"/>
<path d="M27.4139 4.1482L27.0566 4.40332L28.5307 6.46759L28.8879 6.21248L27.4139 4.1482Z" fill="#E6E7F5"/>
<path d="M26.5603 4.76855L26.2554 5.04904L27.4627 6.34173L25.6457 5.61002L25.3164 5.9149L27.0359 7.78075L27.3408 7.50026L26.1091 6.17099L27.9627 6.92709L28.2798 6.62221L26.5603 4.76855Z" fill="#E6E7F5"/>
<path d="M34.9881 4.8291L34.4759 4.8413L33.9637 4.87788L33.4515 4.93886L32.9515 5.03642L32.4637 5.14617L31.9759 5.28032L31.5003 5.45105L31.0369 5.63398L30.5857 5.8291L30.1344 6.06081L29.7198 6.30471L29.3052 6.573L28.9027 6.86569L28.5125 7.15837L28.1466 7.47544L27.7808 7.81691L27.4515 8.17057L27.1222 8.54861L26.8174 8.92666L26.5369 9.3291L26.2808 9.74374L26.0247 10.1706L25.8052 10.6096L25.5978 11.0608L25.4149 11.5242L25.2564 11.9998L25.11 12.4876L25.0003 12.9876L24.9149 13.4876L24.8417 13.9998L24.8052 14.4998V14.512L24.793 15.0364L24.8052 15.5486V15.5608L24.8417 16.073L24.9149 16.5852L25.0003 17.0852L25.11 17.573L25.2564 18.0608L25.4149 18.5364L25.5978 18.9998L25.8052 19.4511L26.0247 19.8901L26.2808 20.3169L26.5369 20.7315L26.8174 21.134L27.1222 21.512L27.4515 21.8901L27.7808 22.2437L28.1466 22.5852L28.5125 22.9023L28.9027 23.2072L29.3052 23.4876L29.7198 23.7559L30.1344 23.9998L30.5857 24.2315L31.0369 24.4389L31.5003 24.6218L31.9759 24.7803L32.4637 24.9145L32.9515 25.0242L33.4515 25.1218L33.9637 25.1828L34.4759 25.2315L34.9881 25.2437H35.0003L35.5125 25.2315H35.5247L36.0369 25.1828L36.5491 25.1218L37.0491 25.0242L37.5491 24.9145L38.0247 24.7803L38.5003 24.6218L38.9637 24.4389L39.4149 24.2315L39.8539 23.9998L40.2808 23.7559L40.6954 23.4876L41.0978 23.2072L41.4881 22.9023L41.8539 22.5852L42.2076 22.2437L42.5491 21.8901L42.8661 21.512L43.171 21.134L43.4515 20.7315L43.7198 20.3169L43.9637 19.8901L44.1954 19.4511L44.4027 18.9998L44.5857 18.5364L44.7442 18.0608L44.8783 17.573L45.0003 17.0852L45.0856 16.5852L45.1466 16.073L45.1954 15.5608L45.2076 15.0364L45.1954 14.512L45.1588 13.9998H45.1466L45.0856 13.4876L45.0003 12.9876L44.8783 12.4876L44.7442 11.9998L44.5857 11.5242L44.4027 11.0608L44.1954 10.6096L43.9637 10.1706L43.7198 9.74374L43.4515 9.3291L43.171 8.92666L42.8661 8.54861L42.5491 8.17057L42.2076 7.81691L41.8539 7.47544L41.4881 7.15837L41.0978 6.86569L40.6954 6.573L40.2808 6.30471L39.8539 6.06081L39.4149 5.8291L38.9637 5.63398L38.5003 5.45105L38.0247 5.28032L37.5491 5.14617L37.0491 5.03642L36.5491 4.93886L36.0369 4.87788L35.5247 4.8413L35.0003 4.8291H34.9881L35.0003 4.99983V5.17057L35.5003 5.18276L36.0003 5.21935L36.5003 5.28032L36.9759 5.36569L37.4637 5.47544L37.9271 5.60959L38.3905 5.76813L38.8296 5.93886L39.2686 6.13398L39.6954 6.36569L40.11 6.59739L40.5125 6.85349L40.9027 7.13398L41.2686 7.42666L41.6222 7.73154L41.9637 8.06081L42.293 8.40227L42.61 8.76813L42.9027 9.13398L43.171 9.52422L43.4271 9.92666L43.671 10.3413L43.8905 10.7559L44.0857 11.195L44.2686 11.6462L44.4271 12.1096L44.5491 12.573L44.6588 13.0486L44.7564 13.5364L44.8174 14.0242L44.8539 14.5242L44.8661 15.0364L44.8539 15.5364L44.8174 16.0364L44.7564 16.5364L44.6588 17.012L44.5491 17.4876L44.4271 17.9511L44.2686 18.4145L44.0857 18.8657L43.8905 19.3047L43.671 19.7315L43.4271 20.1462L43.171 20.5364L42.9027 20.9267L42.61 21.3047L42.293 21.6584L41.9637 21.9998L41.6222 22.3291L41.2686 22.6462L40.9027 22.9389L40.5125 23.2072L40.11 23.4632L39.6954 23.7071L39.2686 23.9267L38.8296 24.1218L38.3905 24.3047L37.9271 24.4511L37.4637 24.5852L36.9759 24.695L36.5003 24.7803L36.0003 24.8413L35.5003 24.8901L35.0003 24.9023L34.5003 24.8901L34.0003 24.8413L33.5003 24.7803L33.0125 24.695L32.5369 24.5852L32.0735 24.4511L31.6222 24.3047L31.171 24.1218L30.732 23.9267L30.3052 23.7071L29.8905 23.4632L29.4881 23.2072L29.0978 22.9389L28.732 22.6462L28.3661 22.3291L28.0247 21.9998L27.6954 21.6584L27.3905 21.3047L27.0978 20.9267L26.8174 20.5364L26.5613 20.1462L26.3296 19.7315L26.11 19.3047L25.9149 18.8657L25.732 18.4145L25.5735 17.9511L25.4393 17.4876L25.3296 17.012L25.2442 16.5364L25.1832 16.0364L25.1466 15.5364L25.1344 15.0364L25.1466 14.5242L25.1832 14.0364L25.2442 13.5364L25.3296 13.0486L25.4393 12.573L25.5735 12.1096L25.732 11.6462L25.9149 11.195L26.11 10.7559L26.3296 10.3413L26.5613 9.92666L26.8174 9.52422L27.0978 9.13398L27.3905 8.76813L27.6954 8.40227L28.0247 8.06081L28.3661 7.73154L28.732 7.42666L29.0978 7.13398L29.4881 6.85349L29.8905 6.59739L30.3052 6.36569L30.732 6.13398L31.171 5.93886L31.6222 5.76813L32.0735 5.60959L32.5369 5.47544L33.0125 5.36569L33.5003 5.28032L34.0003 5.21935L34.4881 5.18276L35.0003 5.17057H34.9881L35.0003 4.99983L34.9881 4.8291Z" fill="#E6E7F5"/>
<path d="M43.4265 4.96387L41.6582 6.79314L42.8167 7.8907L43.1216 7.56143L42.2923 6.76875L42.7436 6.29314L43.4753 6.98826L43.7802 6.67118L43.0484 5.96387L43.4143 5.58582L44.2192 6.34192L44.5241 6.01265L43.4143 4.96387H43.4265Z" fill="#E6E7F5"/>
<path d="M34.6467 5.91504L34.5614 5.92723L34.5004 5.93943L34.4394 5.95162L34.3906 5.97601L34.3418 6.0126L34.3175 6.03699L34.2809 6.07358L34.2565 6.11016L34.2321 6.18333L34.2077 6.24431V6.30528H33.9638L33.8296 6.34187L33.7077 6.39065L33.6101 6.43943L33.537 6.5004L33.476 6.57358L33.4394 6.63455L33.4028 6.70772L33.3906 6.78089V6.84187V6.91504L33.4028 7.0248L33.4272 7.09797L33.4394 7.12236L33.7321 6.96382H33.8296H33.9394L34.0492 6.97601H34.0979H34.1345H34.2199L34.2809 7.0126L34.3296 7.04919L34.3784 7.08577L34.415 7.12236L34.4394 7.15894L34.476 7.18333L34.5126 7.20772V7.24431L34.5248 7.29309L34.5126 7.34187L34.4882 7.40284L34.4394 7.5126L34.3662 7.62236L34.3053 7.71992L34.2321 7.80528L34.4638 7.97601L34.5004 7.98821L34.5248 8.0004L34.5979 8.0126L34.6711 8.0004L34.7443 7.98821L34.854 7.93943L34.915 7.92723L34.9394 7.87845L34.976 7.85406L35.0126 7.82967L35.0614 7.81748H35.0979L35.1467 7.82967L35.2199 7.85406L35.2931 7.89065L35.354 7.93943L35.4028 7.97601L35.4516 8.0248L35.4882 8.06138L35.5248 8.08577L35.5614 8.09797L35.5979 8.11016L35.6345 8.12236L35.6833 8.11016L35.7321 8.08577L35.7687 8.06138L35.7931 8.03699L35.8296 8.0004L35.8662 7.96382L35.9028 7.87845L35.9272 7.80528L35.9394 7.7687V6.47601L35.9272 6.39065L35.915 6.30528L35.9028 6.24431L35.8784 6.18333L35.8418 6.12236L35.8053 6.08577L35.7687 6.03699L35.7321 6.0126L35.6467 5.96382L35.5857 5.93943L35.5248 5.91504H34.6467Z" fill="#E6E7F5"/>
<path d="M24.8047 6.4873L24.5364 6.84096L25.9388 7.87755L25.9632 7.88974L26.012 7.95072L26.0608 8.01169L26.0974 8.08487L26.1096 8.15804L26.1218 8.23121L26.1096 8.30438L26.0852 8.37755L26.0364 8.45072L25.9754 8.5117L25.9144 8.56048L25.8413 8.58487L25.7681 8.60926H25.6949L25.6096 8.58487L25.5242 8.54828L25.451 8.4995L25.4266 8.4873L24.073 7.47511L23.8047 7.84096L25.1583 8.84096L25.2071 8.87755L25.2803 8.92633L25.3657 8.97511L25.4388 9.0117L25.5242 9.03608L25.6096 9.06048L25.6827 9.07267H25.7681H25.8413L25.9266 9.04828L25.9998 9.02389L26.073 8.9995L26.1462 8.95072L26.2071 8.91413L26.2803 8.85316L26.3413 8.79218L26.4022 8.70682L26.451 8.63365L26.4998 8.54828L26.5364 8.47511L26.5608 8.38974L26.573 8.31657L26.5852 8.2434V8.15804L26.573 8.08487L26.5608 8.01169L26.5364 7.92633L26.4998 7.85316L26.4632 7.77999L26.4022 7.71901L26.3535 7.64584L26.2803 7.58487L26.2071 7.52389L26.1827 7.54828L26.1583 7.52389L26.1827 7.4995L24.8047 6.4873Z" fill="#E6E7F5"/>
<path d="M26.1836 7.49998L26.208 7.52437L26.2324 7.49998L26.1958 7.47559L26.1836 7.49998Z" fill="#E6E7F5"/>
<path d="M31.7065 6.51172L31.5601 6.52391L31.426 6.53611L31.304 6.5605L31.1943 6.59708L31.0967 6.62147L31.0113 6.65806L30.8894 6.73123L30.8162 6.78001L30.7796 6.8044L30.6699 6.87757L30.5479 6.97513L30.4138 7.07269L30.2796 7.19465L29.9869 7.47513L29.6577 7.78001L29.3284 8.12147L28.9748 8.48733L28.2918 9.23123L27.6455 9.93855L27.1211 10.5361L26.6211 11.0971L26.6821 11.1337L26.7187 11.1459L26.7674 11.1581L26.8284 11.1703H26.865L26.9138 11.1581L27.0113 11.1337L27.1089 11.0971L27.2065 11.0361L27.2918 10.9751L27.3772 10.902L27.4504 10.8288L27.5235 10.7434L27.6455 10.5971L27.7187 10.4995L27.743 10.4507L27.8162 10.5239L27.8894 10.5727L27.9504 10.6093L28.0113 10.6215H28.0723L28.1333 10.6093L28.1821 10.5849L28.2308 10.5605L28.2674 10.5239L28.3162 10.4873L28.3772 10.4142L28.426 10.3288L28.5357 10.1337L28.6333 9.93855L28.743 9.74343L28.865 9.57269L28.9748 9.38977L29.0967 9.21904L29.3284 8.88977L29.5723 8.59708L29.804 8.3166L30.0479 8.0605L30.2674 7.84099L30.4748 7.64587L30.6699 7.46294L30.8406 7.3166L30.9869 7.19465L31.2065 7.03611L31.2796 6.97513L31.4382 6.92635L31.5723 6.90196L31.6821 6.88977L31.7308 6.90196L31.7674 6.91416L31.804 6.92635L31.8284 6.95074L31.8772 6.98733L31.9138 7.0483L31.9382 7.10928L31.9504 7.18245V7.24343L31.9382 7.37757L31.9138 7.47513L31.9016 7.51172L31.8284 7.57269L31.7674 7.62147L31.7308 7.67026L31.7065 7.71904L31.6943 7.75562V7.8044V7.84099L31.7065 7.86538L31.7308 7.88977L31.7552 7.91416L31.8162 7.95074L31.8772 7.97513L31.9504 8.0605L32.0845 8.17026L32.4504 8.45074L32.9382 8.8044L32.9748 8.84099L33.0235 8.87757L33.0601 8.90196L33.0967 8.91416H33.1455H33.1821H33.243L33.2918 8.88977L33.3406 8.86538L33.3772 8.82879L33.3894 8.74343L33.4016 8.64587L33.426 8.5483L33.4626 8.45074L33.5235 8.28001L33.5479 8.21904L33.4626 8.25562L33.3772 8.28001L33.304 8.29221L33.2309 8.3044H33.1211H33.0845L32.9869 8.29221L32.9138 8.28001L32.8284 8.26782L32.7674 8.24343L32.7065 8.20684L32.6455 8.17026L32.5479 8.09708L32.4869 8.02391L32.4382 7.95074L32.4016 7.88977L32.365 7.85318L32.3284 7.82879L32.304 7.79221L32.2918 7.75562L32.2796 7.73123V7.69465L32.2918 7.64587L32.3162 7.59708L32.3406 7.57269L32.3772 7.53611L32.4869 7.42635L32.5601 7.32879L32.6211 7.23123L32.6455 7.13367L32.6699 7.0483V6.97513L32.6577 6.91416L32.6333 6.84099L32.5967 6.79221L32.5723 6.75562L32.5235 6.70684L32.4869 6.68245L32.426 6.63367L32.4016 6.62147L32.2065 6.57269L32.0235 6.53611L31.865 6.52391L31.7065 6.51172Z" fill="#E6E7F5"/>
<path d="M37.7801 6.51172L37.6703 6.52391L37.5605 6.53611L37.4874 6.5605L37.4142 6.58489L37.3654 6.62147L37.3288 6.64586L37.3044 6.67026L37.2923 6.68245L37.0849 6.74343L36.9142 6.79221L36.8532 6.82879L36.7923 6.86538L36.7435 6.90196L36.7069 6.92635L36.6703 6.97513L36.6459 6.99952L36.6337 7.0483L36.6093 7.08489V7.15806L36.6215 7.21904L36.6459 7.29221L36.6825 7.35318L36.7191 7.41416L36.7679 7.46294L36.841 7.53611L36.8776 7.57269L36.9386 7.67026L36.963 7.75562L36.9752 7.82879V7.88977L36.963 7.92635L36.9386 7.96294L36.8898 7.98733L36.8532 8.01172L36.8045 8.02391H36.7557H36.6581L36.5605 8.01172L36.3898 7.99952L36.2557 8.01172L36.1459 8.03611L36.0605 8.0605L35.9874 8.09708L35.9386 8.12147L35.902 8.15806L35.8288 8.20684L35.7679 8.24343L35.7069 8.26782L35.6459 8.28001L35.5849 8.29221H35.5362H35.4874L35.4386 8.28001L35.3654 8.25562L35.3044 8.21904L35.2557 8.18245L35.2069 8.13367L35.1459 8.10928L35.0971 8.08489H35.0484L35.024 8.09708L34.9874 8.10928L34.963 8.13367L34.902 8.18245L34.8166 8.23123L34.7435 8.26782L34.6703 8.3044L34.5484 8.32879H34.4996L34.4142 8.25562L34.341 8.19465L34.2679 8.15806L34.2069 8.13367L34.1459 8.12147L34.0971 8.13367L34.0484 8.14587L33.9996 8.17026L33.963 8.20684L33.9386 8.24343L33.8898 8.3166L33.8532 8.36538V8.38977L33.7435 8.57269L33.6581 8.73123L33.6093 8.88977L33.5727 9.03611L33.5605 9.17025V9.29221L33.5727 9.40196L33.6093 9.51172L33.6459 9.59708L33.6825 9.68245L33.7191 9.74343L33.7557 9.79221L33.8288 9.86538L33.8532 9.88977L35.0484 11.6337L35.1093 11.2556L35.0849 11.0605V10.902L35.0971 10.7556L35.1337 10.6337L35.1703 10.5361L35.2191 10.4507L35.2801 10.3776L35.341 10.3166L35.402 10.28L35.463 10.2434L35.524 10.219L35.5849 10.2068L35.6703 10.1946H35.6947L35.8045 10.1825H35.902L35.9996 10.1946L36.0849 10.2068L36.1825 10.2434L36.2801 10.28L36.3654 10.3166L36.463 10.3654L36.5484 10.4142L36.6337 10.4751L36.8045 10.6093L36.9508 10.7556L37.0971 10.902L37.2313 11.0483L37.3532 11.1946L37.5362 11.4629L37.6581 11.6459L37.7069 11.719L37.7557 11.7922L37.8044 11.8532L37.841 11.902L37.8898 11.9385L37.963 11.9873L38.024 12.0117H38.0727L38.1093 11.9995L38.1459 11.9873L38.4752 11.9142L38.7801 11.8654L39.0727 11.8166L39.3288 11.7922L39.5727 11.7678L39.7923 11.7556H39.9874H40.1581L40.4386 11.78L40.6459 11.8044L40.7557 11.8288L40.7923 11.841L40.8776 11.8288L40.9508 11.8166L41.0118 11.8044L41.0484 11.78L41.0849 11.7678L41.1093 11.7434L41.1215 11.719L41.1337 11.6946V11.6459L41.1215 11.6093L41.0971 11.5727L40.0849 9.95074L40.0362 9.85318L39.9874 9.76782L39.9386 9.70684L39.8898 9.67026L39.8532 9.64586L39.8044 9.63367H39.7679L39.7191 9.64586L39.6947 9.67026L39.6581 9.69465L39.6093 9.74343L39.5605 9.8044L37.9142 10.9507L37.8288 11.0239L37.7557 11.0605L37.6947 11.0849H37.6215H37.5605L37.5118 11.0727L37.4508 11.0483L37.402 11.0117L37.3532 10.9751L37.3166 10.9385L37.2557 10.8654L37.2069 10.78L37.1581 10.6581L37.1093 10.5605L37.0605 10.4873L37.024 10.4264L36.9874 10.3776L36.9508 10.341L36.9142 10.3166L36.8776 10.3044L36.8532 10.2922H36.8288L36.7923 10.3044L36.7679 10.3288H36.7557L36.6825 10.3044L36.6093 10.2678L36.4874 10.1946L36.402 10.1093L36.3288 10.0361L36.2801 9.97513L36.2557 9.91416L36.2313 9.86538L36.1703 9.78001L36.1337 9.69465L36.0971 9.62147L36.0849 9.5605V9.51172V9.46294L36.0971 9.41416L36.1093 9.38977L36.1337 9.35318L36.1581 9.32879L36.2069 9.3044L36.2557 9.28001L36.4874 9.10928L36.6825 8.93855L36.8654 8.76782L37.0118 8.59708L37.1459 8.42635L37.2679 8.25562L37.3654 8.09708L37.4386 7.93855L37.5118 7.8044L37.5605 7.67026L37.6337 7.46294L37.6703 7.3166V7.26782L37.6947 7.18245L37.7313 7.10928L37.7679 7.0605L37.8044 7.02391L37.8288 6.99952L37.8532 6.98733L37.8776 6.97513L38.0118 6.95074L38.1337 6.92635H38.2435L38.3288 6.93855L38.4142 6.95074L38.4752 6.97513L38.5362 7.01172L38.5849 7.0483L38.6215 7.08489L38.6459 7.12147L38.6825 7.19465L38.7069 7.25562V7.26782L42.4142 13.1093L42.4752 13.1946L42.5118 13.2556L42.5605 13.2922L42.5971 13.3166L42.6337 13.3288H42.6581H42.6825L42.7069 13.3044L42.7435 13.2556L42.7557 13.2068L42.7679 13.1337L42.7435 13.0239L42.7313 12.9507V12.902L42.7435 12.8898H42.7557H42.7801L42.8044 12.9142L42.8532 12.9507L42.902 12.9995L42.9996 13.1215L43.0849 13.2434L43.1825 13.3776L43.2313 13.4751L43.2679 13.5483L43.3045 13.5849L43.341 13.6215L43.3654 13.6337H43.3898L43.4142 13.6093L43.4386 13.5971L43.463 13.5239L43.4874 13.4507L43.5118 13.3776L43.524 13.2678V13.1581L43.4996 13.0483L43.4752 12.9385L43.4508 12.8288L43.402 12.719L43.3532 12.6093L43.3045 12.5117L43.1947 12.3288L43.0971 12.1703L43.0118 12.0483L42.8776 11.8166L42.7801 11.6459L42.7313 11.5239L42.7191 11.4507V11.4264V11.402H42.7435H42.7557L42.8044 11.4142L42.8776 11.4507L42.9508 11.4995L43.0362 11.5727L43.1947 11.7068L43.3654 11.8654L43.463 11.9385L43.5484 11.9751L43.6093 11.9995L43.6581 12.0117L43.6825 11.9995L43.6947 11.9873V11.9507V11.9264L43.6703 11.841L43.6215 11.7556L43.5727 11.6581L41.4508 8.76782L41.1581 8.45074L40.8898 8.15806L40.6459 7.91416L40.4264 7.69465L40.2313 7.52391L40.0605 7.37757L39.9142 7.25562L39.7801 7.15806L39.6703 7.07269L39.5727 7.01172L39.4264 6.95074L39.3532 6.92635L39.3288 6.91416L39.024 6.79221L38.7435 6.69465L38.4996 6.62147L38.2923 6.57269L38.0971 6.53611L37.9264 6.52391L37.7801 6.51172Z" fill="#E6E7F5"/>
<path d="M44.8289 6.75586L44.7558 6.76805L44.6826 6.79244L44.6094 6.81683L44.5241 6.85342L44.4509 6.9022L44.3777 6.95098L44.2802 7.03635L44.207 7.10952L44.146 7.20708L44.0972 7.30464L44.0728 7.4022V7.49976L44.085 7.62171L44.1216 7.73147L44.3289 8.30464L44.3411 8.35342V8.39001V8.43879L44.3289 8.47537L44.3167 8.52415L44.2923 8.56074L44.268 8.59732L44.2314 8.62171L44.1704 8.6583L44.1094 8.68269H44.0484L43.9753 8.67049L43.9143 8.6461L43.8411 8.59732L43.7802 8.53635L43.707 8.46318L43.6582 8.37781L43.6338 8.29244L43.6094 8.21927V8.1461L43.6338 8.07293L43.6582 7.99976L43.7192 7.93879L43.7924 7.86562L43.5363 7.52415L43.4631 7.59732L43.3899 7.6583L43.3289 7.73147L43.2802 7.80464L43.2314 7.87781L43.207 7.95098L43.1826 8.02415L43.1704 8.09732L43.1582 8.17049L43.1704 8.24366V8.32903L43.1948 8.4144L43.2314 8.48757L43.268 8.57293L43.3167 8.6461L43.3655 8.73147L43.4387 8.80464L43.4875 8.87781L43.5606 8.93879L43.6338 8.98757L43.6948 9.02415L43.768 9.06074L43.8411 9.08513L43.9143 9.09732L43.9875 9.10952H44.0728L44.146 9.09732L44.2314 9.07293L44.3045 9.04854L44.3777 9.01196L44.4631 8.96318L44.5363 8.9144L44.6582 8.81684L44.6948 8.76805L44.7314 8.71927L44.768 8.67049L44.7924 8.62171L44.8167 8.56074L44.8289 8.51196V8.4144V8.32903L44.8167 8.23147L44.7924 8.13391L44.5728 7.53635L44.5606 7.48757L44.5484 7.45098V7.4144L44.5606 7.37781L44.585 7.34123L44.5972 7.30464L44.6338 7.26805L44.6582 7.24366L44.7192 7.20708L44.7802 7.18269H44.8411H44.9021L44.9631 7.20708L45.0241 7.24366L45.085 7.29244L45.1338 7.35342L45.1826 7.42659L45.207 7.49976L45.2314 7.57293V7.6461L45.2192 7.71927L45.1826 7.78025L45.1338 7.85342L45.0728 7.9144L45.3167 8.25586L45.3899 8.19488L45.4509 8.13391L45.5119 8.07293L45.5606 7.99976L45.5972 7.93879L45.6216 7.86562L45.646 7.79244L45.6704 7.71927V7.6461V7.56074V7.48757L45.646 7.4022L45.6216 7.32903L45.585 7.25586L45.5363 7.18269L45.4875 7.09732L45.4265 7.03635L45.3777 6.97537L45.3167 6.9144L45.2436 6.86562L45.1826 6.82903L45.1094 6.80464L45.0484 6.78025L44.9753 6.76805L44.9021 6.75586H44.8289Z" fill="#E6E7F5"/>
<path d="M38.1706 7.18262H38.1218L38.0852 7.20701L38.0364 7.2314L38.0121 7.25579L37.9511 7.31676L37.9267 7.36554L37.9145 7.38993L37.8901 7.4875L37.8657 7.58506L37.8413 7.68262L37.8047 7.78018L37.7072 7.9753L37.6096 8.17042L37.4755 8.35335L37.3535 8.52408L37.2194 8.69481L37.073 8.85335L36.9389 8.98749L36.8047 9.12164L36.573 9.32896L36.4145 9.4631L36.3535 9.51189L36.4511 9.70701L36.5486 9.84115L36.634 9.92652L36.695 9.9875L36.7438 10.0119H36.7925H36.8047H36.8169L36.9389 9.91432L37.1706 9.69481L37.8413 9.06067L38.7681 8.18262L38.7925 8.13384L38.8169 8.08506L38.8291 8.03628V7.9875V7.91432L38.8169 7.85335L38.7925 7.80457L38.7681 7.76798L38.7316 7.74359L38.5608 7.41432L38.4877 7.32896L38.4145 7.26798L38.3413 7.2192L38.2803 7.19481L38.2194 7.18262H38.1706Z" fill="#E6E7F5"/>
<path d="M31.4276 7.31738L31.3788 7.32958H31.33L31.2325 7.35397L31.1349 7.39055L30.4642 8.07348L30.4032 8.12226L30.3544 8.15885L30.3178 8.20763L30.2934 8.24421L30.2812 8.2686V8.30519V8.32958V8.35397L30.3056 8.40275L30.3422 8.42714L30.3666 8.45153L30.7447 8.71982L31.0861 8.93933L31.4032 9.14665L31.7081 9.31738L31.9886 9.45153L32.2447 9.57348L32.4764 9.65885L32.6837 9.73202L32.8788 9.79299L33.0373 9.82958L33.1715 9.86616L33.2934 9.87836L33.4398 9.89055H33.5008L33.4642 9.74421L33.4276 9.62226L33.391 9.5125L33.3544 9.41494L33.3056 9.34177L33.2691 9.29299L33.2203 9.24421L33.1715 9.20763L33.1349 9.18324L33.0983 9.17104L33.0252 9.14665L32.9764 9.15885H32.9642L32.8422 9.11007L32.7081 9.03689L32.5739 8.96372L32.4398 8.89055L32.1837 8.71982L31.952 8.54909L31.7447 8.37836L31.5739 8.25641L31.4276 8.13446L31.391 8.09787L31.3666 8.06129L31.3544 8.0247L31.3422 7.98811L31.33 7.96372L31.3422 7.92714L31.3544 7.86616L31.391 7.81738L31.4276 7.7808L31.4642 7.74421L31.513 7.63446L31.5373 7.54909L31.5617 7.47592L31.5495 7.41494L31.5252 7.37836L31.5008 7.35397L31.4642 7.32958L31.4276 7.31738Z" fill="#E6E7F5"/>
<path d="M39.0119 8.30469H38.9997L38.9753 8.31688L38.9387 8.35347L38.9265 8.40225L38.9143 8.45103L37.2314 9.98761L37.1948 10.0242L37.1704 10.073L37.1582 10.1218V10.1827L37.1704 10.2315L37.1948 10.2925L37.2314 10.3413L37.268 10.4022L37.3411 10.4998L37.4143 10.5852L37.4997 10.6583L37.5241 10.6949L37.5484 10.7193L37.5728 10.7437L37.6094 10.7559H37.646H37.6826L37.768 10.7315L37.8411 10.7071L37.9143 10.6705L37.9753 10.634L39.4753 9.42664L39.4997 9.39005L39.5241 9.36566L39.5484 9.30469L39.5606 9.23152L39.5484 9.18274L39.5363 9.12176L39.5241 9.08518L39.4997 9.03639L39.2436 8.5364L39.1948 8.46322L39.146 8.40225L39.1094 8.35347L39.0728 8.32908L39.0363 8.31688L39.0119 8.30469Z" fill="#E6E7F5"/>
<path d="M30.0738 8.59766L29.8909 8.80497L29.7079 9.01229L29.5494 9.21961L29.4031 9.40253L29.2079 9.69522L29.1348 9.80497L29.3421 9.92692L29.586 10.0367L29.8421 10.1586L30.1226 10.2684L30.7079 10.4879L31.2933 10.683L31.8299 10.8538L32.2689 10.9879L32.6714 11.0977L32.647 11.0245V10.9513L32.6348 10.8903L32.647 10.8416V10.7806L32.6714 10.744L32.6957 10.6708L32.7445 10.622L32.7811 10.5977L32.8177 10.5733L32.8665 10.5123L32.9274 10.4635L33.0006 10.4269L33.0738 10.4025L33.1592 10.3903H33.2445L33.3421 10.4025L33.4153 10.4147L33.586 10.4513L33.7201 10.4879L33.8543 10.5489L33.6104 10.1952L33.4518 10.183H33.2811L33.1104 10.1586L32.9518 10.1342L32.7933 10.0977L32.6348 10.0611L32.4762 10.0123L32.3177 9.95131L32.1592 9.89034L32.0128 9.82936L31.7201 9.69522L31.4396 9.56107L31.1835 9.40253L30.9396 9.25619L30.7323 9.10985L30.5372 8.9757L30.3787 8.85375L30.1592 8.67083L30.0738 8.59766Z" fill="#E6E7F5"/>
<path d="M23.9028 9.87793H23.854L23.793 9.89012L23.6833 9.92671L23.5857 9.97549L23.5003 10.0487L23.4394 10.1218L23.415 10.1706L23.3906 10.2194L23.3662 10.2682L23.354 10.3291L23.3418 10.3779V10.4389V10.4999L23.354 10.5487L23.3906 10.6584L23.4394 10.756L23.5003 10.8413L23.5857 10.9023L23.6345 10.9389L23.6833 10.9633L23.7442 10.9755L23.793 10.9877L23.854 10.9999H23.9028H23.9637L24.0247 10.9877L24.1223 10.9633L24.2198 10.9023L24.3052 10.8413L24.3662 10.756L24.4272 10.6584L24.4394 10.6096L24.4516 10.5487L24.4637 10.4999V10.4389V10.3779L24.4516 10.3291L24.4272 10.2194L24.3662 10.1218L24.3052 10.0487L24.2564 9.99988L24.2198 9.97549L24.1223 9.92671L24.0735 9.90232L24.0247 9.89012L23.9637 9.87793H23.9028Z" fill="#E6E7F5"/>
<path d="M46.0004 9.87793H45.9395L45.8907 9.89012L45.7809 9.92671L45.6834 9.97549L45.598 10.0487L45.537 10.1218L45.5004 10.1706L45.476 10.2194L45.4638 10.2682L45.4516 10.3291L45.4395 10.3779V10.4389V10.4999L45.4516 10.5487L45.476 10.6584L45.537 10.756L45.598 10.8413L45.6834 10.9023L45.7321 10.9389L45.7809 10.9633L45.8297 10.9755L45.8907 10.9877L45.9395 10.9999H46.0004H46.0614L46.1102 10.9877L46.2199 10.9633L46.3175 10.9023L46.3907 10.8413L46.4638 10.756L46.5248 10.6584L46.537 10.6096L46.5492 10.5487L46.5614 10.4999V10.4389V10.3779L46.5492 10.3291L46.5248 10.2194L46.4638 10.1218L46.3907 10.0487L46.3175 9.97549L46.2199 9.92671L46.1712 9.90232L46.1102 9.89012L46.0614 9.87793H46.0004Z" fill="#E6E7F5"/>
<path d="M28.9883 10.0361L28.9395 10.0483L28.903 10.0727L28.8542 10.1093L28.7566 10.1947L28.6591 10.3044L28.5737 10.4142L28.5005 10.4995L28.4274 10.5971L28.3664 10.6825L28.3054 10.7434L28.2444 10.7922L28.1835 10.8288L28.1103 10.8532L28.0493 10.8776H28.0005H27.9395L27.842 10.8654L27.7566 10.841L27.6956 10.8044L27.4639 11.0605L27.281 11.2434L27.1347 11.3532L27.0249 11.4386L26.9517 11.4752L26.903 11.4874H26.8786H26.8664L26.8054 11.5361L26.7688 11.5849L26.7322 11.6337L26.6956 11.6825L26.6469 11.78L26.6225 11.8654V11.9386V11.9995V12.0483L26.2444 12.8166L26.3542 12.7922L26.4395 12.78L26.5005 12.7922L26.5615 12.8044L26.5981 12.8166L26.6225 12.8532L26.6347 12.8776L26.6469 12.9142V12.963L26.6347 12.9995L26.6103 13.0605L26.5737 13.1337L26.0371 13.9874L26.22 13.9995H26.3786L26.5127 13.9874L26.6225 13.9752L26.72 13.9508L26.8054 13.9142L26.8664 13.8776L26.9152 13.8532L26.9517 13.8044L26.9761 13.7678L27.0005 13.7434V13.7069L27.0127 13.6581V13.6337V13.5605L27.0249 13.4995L27.0371 13.4508L27.0493 13.402L27.0737 13.3776L27.0859 13.3532L27.1103 13.3288H27.1347L27.1713 13.3166L27.22 13.3288L27.2444 13.341L27.4152 13.2678L27.5493 13.1947L27.6591 13.1215L27.7444 13.0483L27.8176 12.9995L27.8664 12.9386L27.903 12.902L27.9152 12.8288L27.9274 12.78L27.9517 12.7434L27.9761 12.7069L28.0005 12.6825L28.0249 12.6703L28.0493 12.6581L28.0859 12.6459L28.1347 12.6581L28.1835 12.6703L28.22 12.6947H28.3176L28.4152 12.6825L28.5127 12.6459L28.6103 12.6093L28.6956 12.5605L28.781 12.4995L28.8664 12.4264L28.9395 12.3654L29.0737 12.2313L29.1713 12.1093L29.2566 11.9874L32.4395 12.2191L32.5005 12.2313H32.5737H32.6225L32.6591 12.2191L32.6956 12.2069L32.72 12.1947L32.7322 12.1703L32.7566 12.1581L32.7688 12.1215V12.0849L32.7566 12.0483L32.7078 11.8776L32.6713 11.7313L32.6347 11.4995L32.6103 11.3532V11.3166L32.1713 11.2191L31.7566 11.1093L31.3664 10.9995L31.0249 10.902L30.6956 10.7922L30.403 10.6825L30.1347 10.5849L29.8908 10.4874L29.6835 10.3898L29.5127 10.3044L29.2322 10.1703L29.0737 10.0727L29.0127 10.0361H28.9883Z" fill="#E6E7F5"/>
<path d="M35.7322 10.5L35.659 10.5244L35.598 10.5488L35.5615 10.5854L35.5127 10.6341L35.4883 10.6829L35.4639 10.7317L35.4395 10.8049V10.8415L35.4151 10.8659L35.3907 10.9024L35.3541 10.9878L35.3297 11.0976L35.3054 11.2317L35.2932 11.3659V11.5122V11.8171L35.3054 12.122L35.3297 12.3659L35.3419 12.6098L35.3297 12.7195L35.3054 12.7927L35.281 12.8537L35.2566 12.8902L35.2322 12.9024L35.2078 12.9146L35.1956 12.9024L35.1712 12.878L35.1346 12.8171L35.1102 12.7439L35.0858 12.6707L35.0249 12.5244L34.9761 12.378L34.8419 12.0976L34.7078 11.8293L34.5736 11.5976L34.4517 11.3902L34.3541 11.2439L34.2566 11.1098L34.159 10.9878L34.0736 10.9024L33.9883 10.8293L33.8907 10.7683L33.8175 10.7195L33.7444 10.6951L33.6712 10.6829L33.6102 10.6707H33.5493H33.5005L33.4151 10.6829L33.3663 10.7073L33.3541 10.7195H33.281H33.2322H33.1712L33.1224 10.7439L33.0858 10.7561L33.0493 10.7805L33.0127 10.8049L32.9761 10.8415L32.9395 10.9024L32.9029 10.9878L32.8785 11.0732L32.8663 11.1707L32.8541 11.2683L32.8663 11.3659L32.8785 11.5244L32.8907 11.6463L32.9029 11.6951L32.9517 11.8537L32.9761 12L32.9883 12.1341L32.9761 12.2683L32.9517 12.378L32.9151 12.4878L32.8785 12.5854L32.8175 12.6829L32.7688 12.7561L32.7078 12.8293L32.659 12.878L32.598 12.9268L32.5249 13L32.4883 13.0122V13.0366L37.9151 12.9268L38.1956 12.9146L38.1712 12.9024L38.098 12.878L38.0249 12.8415L37.9761 12.8049L37.9029 12.7561L37.8785 12.7195L37.8054 12.6707L37.7322 12.6098L37.6834 12.5366L37.6468 12.4756L37.6224 12.4146L37.598 12.3537L37.5858 12.3171L37.5127 12.1341L37.4395 11.9634L37.3541 11.8049L37.2688 11.6585L37.1712 11.5244L37.0858 11.4024L37.0005 11.2927L36.9151 11.1951L36.7444 11.0366L36.6102 10.9268L36.5249 10.8659L36.5005 10.8415L36.3175 10.7195L36.1712 10.622L36.0371 10.5488L35.9151 10.5122L35.8175 10.5H35.7322Z" fill="#E6E7F5"/>
<path d="M38.1961 12.9023L38.2692 12.9267L37.9766 13.0242L37.6717 13.134L37.2814 13.2559L36.8424 13.3779L36.3912 13.4876L36.1595 13.5364L35.94 13.5852L35.7205 13.6096L35.5253 13.634L32.44 13.3169L32.4888 13.0364H32.4522L30.9522 12.8535L29.9766 14.073L30.2449 15.3047L30.257 20.134L30.9644 20.5608V15.9389V15.8535L30.9888 15.7803L31.0253 15.7072L31.0619 15.6462L31.1229 15.5852L31.1961 15.5486L31.2814 15.5242L31.379 15.512H31.44L31.4888 15.5364L31.5375 15.5486L31.5741 15.5852L31.6107 15.6096L31.6351 15.6462L31.6839 15.7193L31.7083 15.8047L31.7205 15.8657L31.7327 15.9389V20.9023L32.4156 21.1218L32.4278 16.0364V15.9876L32.44 15.9267L32.4644 15.8535L32.501 15.7803L32.5497 15.7193L32.5741 15.695L32.6107 15.6584L32.6595 15.6462L32.7083 15.6218H32.757L32.818 15.6096L32.879 15.6218L32.94 15.634L32.9888 15.6462L33.0375 15.6828L33.0741 15.7072L33.0985 15.7437L33.1473 15.8169L33.1717 15.9023L33.1839 15.9754V16.0364V21.3535L33.9278 21.6096L33.9156 16.073V15.9876L33.9278 15.9145L33.9644 15.8413L33.9888 15.8047L34.001 15.7559L34.0375 15.7315L34.0741 15.695L34.1229 15.6706L34.1717 15.6584L34.2327 15.6462L34.2936 15.634L34.3668 15.6462L34.4278 15.6584L34.4644 15.6828L34.5131 15.7072L34.5497 15.7315L34.5741 15.7681L34.6229 15.8413L34.6473 15.9267L34.6595 15.9876L34.6717 16.0608V21.695H35.4034L35.379 16.0608L35.3912 15.9876L35.4034 15.9145L35.4278 15.8291L35.4888 15.7559L35.5131 15.7193L35.5497 15.695L35.5985 15.6584L35.6473 15.6462L35.6961 15.634L35.7692 15.6218L35.8302 15.634L35.9034 15.6462L35.9522 15.6706L36.001 15.695L36.0375 15.7315L36.0741 15.7681L36.0985 15.8047L36.1107 15.8413L36.1351 15.9267L36.1473 15.9998V16.0608L36.1595 21.5364L36.7814 21.3535V16.012V15.9754L36.7936 15.9145L36.818 15.8413L36.8546 15.7681L36.9034 15.7072L36.94 15.6706L36.9766 15.6462L37.0131 15.6218L37.0619 15.6096L37.1229 15.5974H37.1717H37.2449L37.318 15.6096L37.3668 15.634L37.4156 15.6584L37.44 15.695L37.4766 15.7315L37.501 15.7681L37.5131 15.8169L37.5375 15.8901V15.9632V16.0242L37.5497 21.0974L38.1961 20.8779L38.1839 15.8779L38.1961 15.7803L38.2083 15.7193L38.2449 15.6462L38.2936 15.573L38.3302 15.5364L38.3546 15.512L38.4034 15.4876L38.4522 15.4632L38.5131 15.4511H38.5741H38.6473L38.7083 15.4632L38.7571 15.4876L38.7936 15.512L38.8302 15.5486L38.8668 15.5852L38.9034 15.6584L38.9278 15.7315L38.94 15.8047L38.9522 15.8779L38.9644 20.5608L39.6961 20.1584V15.3047L40.0497 14.073L39.1717 12.8291L38.1961 12.9145V12.9023Z" fill="#E6E7F5"/>
<path d="M22.0844 12.3535L22.0234 12.7925L23.0844 12.9389L22.9503 13.8535L23.3893 13.9145L23.5356 13.0121L24.0966 13.0852L23.9381 14.134L24.3893 14.195L24.5966 12.7194L22.0844 12.3535Z" fill="#E6E7F5"/>
<path d="M47.9756 12.4023L45.4512 12.7316L45.5365 13.3658L47.5731 13.4633L45.6341 14.0975L45.7195 14.7316L48.2317 14.3901L48.1829 13.9877L46.0731 14.2804L48.1341 13.6097L48.0731 13.1828L45.9146 13.0853L48.0243 12.8048L47.9756 12.4023Z" fill="#E6E7F5"/>
<path d="M41.2447 13.1953L41.1959 13.2075L41.1837 13.2319L41.1593 13.2563L41.1228 13.3173L41.0984 13.4026L41.0862 13.5368L41.0984 13.6953L41.1106 13.7319L41.1228 13.7685L41.135 13.8295V13.8904L41.1228 13.9758L41.074 14.049L41.0496 14.0978L41.0008 14.1343L40.952 14.1709L40.9032 14.1953L40.8545 14.2441L40.8423 14.2685L40.8301 14.3051V14.3417L40.8423 14.3782L40.8667 14.4148L40.9032 14.4514L40.9642 14.5002L41.0374 14.549L41.1106 14.5734L41.1715 14.5978L41.2325 14.6465L41.2691 14.6831L41.2935 14.7075L41.3057 14.7441L41.3179 14.7807V14.8295L41.3057 14.8782L41.2813 14.9392L41.2447 15.0002L41.2203 15.0368L41.2081 15.0978V15.1587V15.1953L41.2325 15.2319L41.2569 15.2685L41.2935 15.3051L41.3423 15.3417L41.4032 15.366L41.4764 15.4026L41.5618 15.4392L41.635 15.427H41.6959H41.7813L41.8667 15.4392L41.952 15.4758L41.9886 15.488L42.013 15.5124L42.0496 15.549L42.0618 15.5856L42.0862 15.488L42.0984 15.3904L42.135 15.2685L42.1959 15.1465L42.2203 15.0856L42.2569 15.0246L42.3057 14.9636L42.3545 14.9148L42.4154 14.8782L42.4764 14.8417L42.5862 14.7563L42.6837 14.6709L42.7813 14.5612L42.8179 14.5124L42.8423 14.4514L42.8667 14.4026V14.3538L42.8423 14.3051L42.8301 14.2807L42.8057 14.2563L42.7447 14.2197L42.6593 14.1953H42.5984L42.5496 14.1709L42.4886 14.1465L42.4642 14.1221L42.4276 14.0978L42.4154 14.0612L42.3911 14.0246L42.3789 13.9758V13.9148V13.8538L42.3911 13.7807V13.7197L42.3789 13.6587L42.3545 13.5978L42.3301 13.5612L42.3057 13.5368L42.2691 13.5246L42.2325 13.5124H42.1837H42.1228L42.0618 13.549L41.9764 13.5734L41.9276 13.5978L41.8789 13.6099L41.8179 13.6221L41.7569 13.6099H41.7325L41.7081 13.5856L41.6837 13.5734L41.6715 13.549L41.6593 13.5002V13.4636L41.6228 13.4392L41.5618 13.366L41.4642 13.2807L41.4032 13.2441L41.3545 13.2075L41.2935 13.1953H41.2447Z" fill="#E6E7F5"/>
<path d="M28.4872 13.5732L28.4506 13.5854L28.3774 13.6098L28.2555 13.6708L28.1091 13.744L28.0238 13.8049L27.9506 13.8659L27.8774 13.9391L27.8043 14.0245L27.7311 14.122L27.6701 14.2318L27.6213 14.3537L27.5726 14.4879L27.5116 14.561L27.4628 14.6464L27.414 14.7562L27.3896 14.8171L27.3652 14.8781V14.9513V15.0123V15.0854L27.4018 15.1464L27.4384 15.2196L27.4872 15.2806L27.5116 15.3293L27.5238 15.3903L27.5482 15.4635L27.5604 15.561L27.5726 15.683L27.5604 15.8293L27.5482 16.0001L27.6579 15.8537L27.7921 15.6952L27.9384 15.4879L28.0969 15.2562L28.1701 15.122L28.2433 15.0001L28.3043 14.8659L28.353 14.744L28.4018 14.622L28.4262 14.4879L28.414 14.4391L28.4018 14.3781L28.3896 14.2928V14.1708L28.4018 14.0123L28.4262 13.8049L28.4872 13.5732Z" fill="#E6E7F5"/>
<path d="M24.3296 14.3418L21.793 14.4516L21.8783 16.0369L22.3296 16.0247L22.2686 14.8662L22.9271 14.8296L22.9759 15.8418L23.4271 15.8296L23.3661 14.8174L23.9027 14.7808L23.9515 15.8906L24.4027 15.8662L24.3296 14.3418Z" fill="#E6E7F5"/>
<path d="M29.22 14.5244L29.1956 14.5854L29.1469 14.6708L29.0737 14.7805L28.9639 14.9025L28.8298 15.0488L28.7444 15.122L28.6469 15.1951L28.5493 15.2683L28.4274 15.3415L28.4152 15.3537L28.3542 15.4025L28.2932 15.4634L28.2566 15.5122L28.22 15.561L28.1835 15.622L28.1469 15.7073L28.1225 15.7927L28.0981 15.8781L28.0737 15.9878L28.0615 16.1098V16.2317L28.0737 16.3781L28.0615 16.4269L28.0371 16.5488V16.6342V16.7195L28.0493 16.8293L28.0737 16.939L28.1225 16.8537L28.1956 16.7683L28.281 16.6586L28.403 16.5366L28.5371 16.4025L28.6956 16.2683L28.781 16.2073L28.8664 16.1464L28.903 16.122L28.9761 16.061L29.0249 16.0122L29.0737 15.9512L29.1225 15.8781L29.1835 15.7927L29.22 15.6951L29.2688 15.5854L29.2932 15.439L29.3176 15.2927V15.1342L29.3054 14.9512L29.281 14.7439L29.22 14.5244Z" fill="#E6E7F5"/>
<path d="M26.7193 14.6094L26.512 15.085L26.3901 15.3655L26.3291 15.4874L26.3047 15.524V15.5972L26.3169 15.6825L26.3413 15.7557L26.3535 15.8289L26.4022 15.9752L26.4754 16.1094L26.5608 16.2435L26.6583 16.3655L26.7559 16.4752L26.8657 16.585L26.9754 16.6703L27.073 16.7557L27.2559 16.8899L27.3779 16.963L27.4266 16.9996L27.3779 16.8655L27.3291 16.7435L27.3047 16.6094L27.2681 16.4752L27.2315 16.2313L27.2193 15.9996L27.2071 15.8045V15.6582L27.2193 15.524L27.1827 15.4264L27.134 15.3045L26.9632 14.9996L26.7925 14.7313L26.7193 14.6094Z" fill="#E6E7F5"/>
<path d="M43.3168 14.6709L43.2802 14.6831L43.2436 14.7075L43.207 14.7197L43.1704 14.7563L43.0973 14.8416L43.0119 14.9636L43.0363 15.0002L43.0607 15.0368V15.0855L43.0485 15.1099L43.0363 15.1343L43.0241 15.1587L42.9875 15.1831L42.9387 15.2075L42.8778 15.2319L42.8046 15.2441L42.7192 15.2563H42.6948H42.6583L42.5973 15.2685L42.5607 15.2807L42.5363 15.305L42.4997 15.3294L42.4753 15.366L42.4509 15.4026L42.4387 15.4514L42.4265 15.5246L42.4387 15.5977L42.4509 15.6831L42.4753 15.7928L42.4022 15.8416L42.3412 15.9148L42.3046 15.9514L42.268 16.0002L42.2436 16.0489L42.2192 16.1099L42.207 16.1709V16.2319V16.305L42.2314 16.3782L42.2802 16.4514L42.329 16.5246L42.3656 16.5611L42.39 16.5977L42.4265 16.6587L42.4631 16.7197L42.4753 16.7807L42.4875 16.866V16.9026L42.4753 16.9392L42.4265 16.988L42.4022 17.0368L42.3656 17.0977V17.1465V17.1831L42.3778 17.2319L42.39 17.2685L42.4143 17.3172L42.4631 17.366L42.5241 17.4148L42.5973 17.4636L42.6461 17.5246L42.768 17.6709L42.89 17.8294L42.9387 17.8904L42.9509 17.9392V17.9026L42.9631 17.866L42.9875 17.8172L43.0363 17.7441L43.1095 17.6831L43.2192 17.5977L43.3656 17.5246L43.4143 17.5002L43.4509 17.4758L43.5119 17.4392L43.5485 17.3904L43.5607 17.3538L43.5729 17.3172V17.2685V17.2319L43.5607 17.1709L43.5363 17.1099L43.5119 17.0611L43.4875 17.0002L43.4631 16.927V16.8782L43.4753 16.8416L43.4875 16.805L43.4997 16.7685L43.5363 16.7319L43.5729 16.6953L43.6217 16.6709L43.6826 16.6465L43.7436 16.6343L43.8046 16.6221L43.8412 16.6099L43.8656 16.5855L43.89 16.5611L43.9143 16.5246L43.9265 16.488V16.427L43.9143 16.366L43.89 16.2929L43.8534 16.2075L43.8046 16.1099L43.768 16.0855L43.7558 16.0489L43.7314 16.0002V15.9514V15.9148L43.7436 15.8904L43.7558 15.8538L43.7802 15.8294L43.8168 15.7928L43.8656 15.7563L43.9022 15.7197L43.9265 15.6709L43.9387 15.5977V15.5611V15.5246L43.9265 15.4758L43.9022 15.427L43.8656 15.366L43.8168 15.3172L43.7558 15.2563L43.6826 15.1953L43.6704 15.1587L43.6461 15.0489L43.5973 14.927L43.5607 14.8538L43.5241 14.7928L43.4875 14.7441L43.4265 14.7075L43.3778 14.6831L43.3412 14.6709H43.3168Z" fill="#E6E7F5"/>
<path d="M45.743 14.9023L45.5234 16.4145L48.0356 16.7804L48.2551 15.2072L47.8039 15.1462L47.6454 16.2926L46.999 16.195L47.1454 15.195L46.6942 15.1219L46.5478 16.1341L46.0234 16.0609L46.182 14.9633L45.743 14.9023Z" fill="#E6E7F5"/>
<path d="M40.7812 15.4395L40.7324 15.4516L40.6958 15.476L40.647 15.5126L40.6104 15.5858L40.5738 15.6712L40.5373 15.7931V15.8297V15.8785L40.5251 15.9273L40.5007 15.9882L40.4763 16.0492L40.4275 16.1102L40.3543 16.1712L40.3055 16.2321L40.2446 16.2931L40.208 16.3663L40.1836 16.4151V16.4638V16.5004L40.1958 16.537L40.2202 16.5858L40.2568 16.6224L40.3055 16.6712L40.3909 16.6956L40.4031 16.7443L40.4397 16.8297V16.8907L40.4519 16.9516L40.4397 17.0248L40.4153 17.0858L40.4031 17.1102L40.3787 17.159L40.3665 17.2443L40.3543 17.2931V17.3419L40.3665 17.3907L40.3787 17.4395L40.4153 17.4882L40.4519 17.537L40.5129 17.5736L40.5738 17.598L40.6592 17.6346L40.769 17.6468L40.8055 17.6712L40.8299 17.6956L40.8543 17.7321V17.7687V17.7931L40.8421 17.8175L40.8299 17.8419L40.7933 17.8663L40.769 17.9029L40.708 17.9395L40.6592 18.0004L40.6226 18.0614L40.6104 18.1102L40.5982 18.1468L40.586 18.1834L40.5982 18.2199L40.6104 18.2565L40.6348 18.2809L40.6836 18.3053L40.7446 18.3297L40.8177 18.3419H40.9153L41.0007 18.4151L41.2202 18.5736L41.3665 18.659L41.5129 18.7443L41.6592 18.8175L41.8055 18.8785L41.7933 18.8419L41.8055 18.7931L41.8177 18.7199L41.8543 18.6468L41.9153 18.5492L42.0007 18.4516L42.0616 18.4029L42.1226 18.3419H42.1592L42.2202 18.3053L42.3055 18.2565L42.3543 18.2199L42.3909 18.1712L42.4153 18.1346L42.4519 18.0858V18.037V17.976L42.4275 17.9151L42.3787 17.8541L42.3055 17.7809L42.208 17.7077L42.147 17.6834L42.0738 17.659L42.0373 17.6346L42.0007 17.6102L41.9763 17.5736L41.9519 17.537L41.9275 17.4882V17.4273V17.3663L41.9519 17.2931L41.9885 17.2077L42.0373 17.1102L42.086 17.0736L42.1226 17.0248L42.1592 16.9516L42.1714 16.9273V16.8907L42.1592 16.8663L42.1348 16.8297L42.0982 16.7931L42.0494 16.7687L41.9763 16.7565L41.8909 16.7321H41.8299L41.7812 16.7077L41.7568 16.6956L41.7324 16.6834L41.708 16.659L41.6958 16.6224L41.6836 16.5858L41.6958 16.537L41.708 16.476L41.7324 16.4029L41.769 16.3175L41.8299 16.2321L41.8421 16.1468V16.0614V15.976L41.8177 15.9273L41.8055 15.8907L41.769 15.8419L41.7324 15.8175L41.6836 15.8053L41.6104 15.7931H41.5373L41.4519 15.8175L41.4153 15.8297H41.3787H41.3177L41.269 15.8175L41.1958 15.7931L41.1348 15.7443L41.0616 15.6712L41.0129 15.5858L40.9397 15.5248L40.9031 15.4882L40.8665 15.4638L40.8177 15.4516L40.7812 15.4395Z" fill="#E6E7F5"/>
<path d="M29.4642 16.1709L29.452 16.1953L29.4154 16.2563L29.3545 16.3294L29.2325 16.427L29.074 16.5611L28.8423 16.7319L28.8179 16.7441L28.7569 16.7807L28.6593 16.866L28.6106 16.9148L28.5496 16.9758L28.513 17.0368L28.4642 17.1221L28.4154 17.2075L28.3789 17.3172L28.3545 17.427L28.3301 17.5611V17.6953L28.3423 17.8538L28.3545 17.8782L28.3667 17.927L28.3789 18.0002V18.0855V18.1831L28.3667 18.305L28.3423 18.4392L28.4642 18.2928L28.7447 17.9636L29.074 17.6099L29.2203 17.4514L29.3423 17.3538L29.3667 17.2563L29.3911 17.1465L29.4154 17.0002L29.452 16.8172L29.4642 16.6099L29.4764 16.3904L29.4642 16.1709Z" fill="#E6E7F5"/>
<path d="M26.1836 16.5244V16.5854L26.1958 16.7317L26.208 16.8293L26.2324 16.9512L26.2568 17.0854L26.3055 17.2195L26.3543 17.3659L26.4275 17.5L26.5251 17.6464L26.6226 17.7927L26.6836 17.8659L26.7568 17.9269L26.8299 17.9878L26.9031 18.0488L26.9885 18.1098L27.0738 18.1586L27.1714 18.2195L27.2812 18.2561H27.3055H27.3421H27.4031L27.4885 18.2927L27.5982 18.3415L27.7446 18.4269L27.9275 18.5488L27.8177 18.2805L27.7202 18.0366L27.6348 17.7927L27.6104 17.7317L27.586 17.6586L27.5251 17.561L27.4397 17.4512L27.3177 17.3293L27.2446 17.2683L27.1592 17.1951L27.0616 17.1342L26.9519 17.061L26.8543 17.0244L26.7568 16.9756L26.6348 16.9269L26.5007 16.8537L26.3665 16.7561L26.3177 16.7073L26.269 16.6464L26.2202 16.5854L26.1836 16.5244Z" fill="#E6E7F5"/>
<path d="M45.4991 16.585L45.0723 18.2191L45.4991 18.3289L45.6576 17.7313L47.682 18.2435L47.7918 17.8289L45.7674 17.3045L45.9259 16.6947L45.4991 16.585Z" fill="#E6E7F5"/>
<path d="M24.6834 17.146L24.6712 17.0606L24.4639 16.1338L23.3785 16.3777L21.9883 16.6826L22.1956 17.6094L22.22 17.6948L22.2566 17.7801L22.3054 17.8533L22.3663 17.9143L22.4395 17.9753L22.5127 18.024L22.598 18.0728L22.6956 18.1094L22.7932 18.1338L22.9029 18.1582L23.0127 18.1704L23.1346 18.1826H23.2566H23.3785H23.3907L23.5249 18.1582L23.659 18.1338L23.7932 18.0972L23.9273 18.0606L24.0371 18.0118L24.1468 17.9631L24.2444 17.9021L24.3297 17.8411L24.4151 17.7801L24.4883 17.707L24.5493 17.6338L24.598 17.5606L24.6346 17.4753L24.659 17.3899L24.6834 17.3045L24.6956 17.2192L24.6834 17.146ZM24.22 17.2435L24.2078 17.2923L24.1956 17.3411L24.1712 17.3777L24.1346 17.4143L24.098 17.4509L24.0005 17.524L23.8785 17.585L23.72 17.6338L23.5371 17.6826L23.3663 17.7192H23.3541L23.1834 17.7313H23.0249L22.8907 17.707L22.781 17.6704L22.7322 17.646L22.6956 17.6216L22.659 17.585L22.6346 17.5484L22.6102 17.5118L22.598 17.4631L22.5005 17.024L23.3663 16.8289L24.1224 16.6582L24.22 17.0972L24.2322 17.146V17.1948L24.22 17.2435Z" fill="#E6E7F5"/>
<path d="M29.4022 17.8535H29.3779L29.3169 17.8901L29.2437 17.9511L29.1827 17.9999L29.1462 18.0608L29.0852 18.134L29.0364 18.2316L28.9876 18.3291L28.9388 18.4511L28.9022 18.5974L28.8657 18.756L28.8291 18.9389L28.8047 19.1462L28.8657 19.2316L28.9022 19.3291L28.9632 19.4633L29.012 19.6096L29.0242 19.695L29.0486 19.7803L29.0608 19.8657V19.9633V20.0486L29.0486 20.1462L29.0974 20.1096L29.1462 20.073L29.2071 19.9877L29.2803 19.8901L29.3047 19.8169L29.3413 19.7316L29.3779 19.6462L29.4022 19.5364L29.4388 19.4145L29.4632 19.2925L29.4998 19.2438L29.5242 19.1828L29.5608 19.0852L29.5974 18.9511L29.6218 18.7803V18.6828V18.573V18.4511L29.6096 18.3169L29.5852 18.3047L29.573 18.2925L29.5486 18.2438L29.5242 18.195L29.4876 18.1096L29.4388 17.9999L29.4022 17.8535Z" fill="#E6E7F5"/>
<path d="M24.9147 18.0488L22.5488 18.9513L23.1098 20.4391L23.5366 20.2805L23.122 19.1952L23.7318 18.9635L24.0976 19.9147L24.5122 19.7561L24.1464 18.8049L24.6464 18.6098L25.0366 19.6464L25.4635 19.4879L24.9147 18.0488Z" fill="#E6E7F5"/>
<path d="M42.6098 18.4756L42.561 18.4878L42.5122 18.5L42.4756 18.5366L42.4268 18.5853L42.3902 18.6341L42.3537 18.7195L42.3171 18.817L42.3049 18.939L42.2561 19.2439V19.2805V19.2439L42.2683 19.0244L42.2073 19L42.1463 18.9878H42.1098H42.0854L42.0488 19L42.0244 19.0244L42.0122 19.0488L42 19.0853V19.1341L42.0122 19.2073L42.0244 19.2805L42.061 19.378L42.0976 19.4024L42.1707 19.4512L42.3171 19.5244L42.5122 19.6097L42.5732 19.6341L42.6341 19.6463L42.7073 19.6341H42.7439L42.7683 19.6097L42.7927 19.5853L42.8171 19.5488L42.8415 19.5V19.4512V19.378L42.8293 19.2927L42.8902 19.1951L42.939 19.0853L42.9756 18.9634L43 18.9024L43.0122 18.8414V18.7805V18.7195L42.9878 18.6585L42.9634 18.6219L42.9268 18.5853L42.8659 18.5488L42.8415 18.5366L42.7805 18.5122L42.7073 18.4878L42.6585 18.4756H42.6098Z" fill="#E6E7F5"/>
<path d="M45.3176 18.5361L45.2445 18.5483L45.1591 18.5727L45.0981 18.5971L45.025 18.6337L44.964 18.6703L44.903 18.7191L44.842 18.78L44.7933 18.8288L44.7445 18.902L44.6957 18.9874L44.6591 19.0605L44.6347 19.1459L44.6103 19.2313L44.5981 19.3166L44.5859 19.3898V19.4752L44.5981 19.5361L44.6103 19.6093L44.6347 19.6825L44.6713 19.7434L44.7079 19.8044L44.7567 19.8654L44.8176 19.9142L44.8786 19.9752L44.9518 20.0117L45.025 20.0605L45.1103 20.0971L45.2323 20.1459L45.342 20.1581L45.4518 20.1703L45.5494 20.1459L45.6469 20.1093L45.7445 20.0605L45.8298 19.9995L45.903 19.902L46.2933 19.4264L46.3298 19.402L46.3664 19.3776L46.403 19.3532L46.4396 19.341L46.4762 19.3288H46.525H46.5615L46.6103 19.341L46.6713 19.3776L46.7323 19.4264L46.7689 19.4752L46.7933 19.5361L46.8054 19.6093L46.7933 19.6947L46.7811 19.78L46.7445 19.8776L46.7079 19.963L46.6469 20.0361L46.5859 20.0849L46.525 20.1337L46.4518 20.1581H46.3786L46.2933 20.1459L46.1957 20.1215L46.0372 20.5117L46.1347 20.5483L46.2323 20.5727L46.3176 20.5849H46.403H46.4884L46.5615 20.5727L46.6469 20.5605L46.7201 20.5361L46.7811 20.4995L46.8542 20.4508L46.9152 20.402L46.964 20.341L47.025 20.28L47.0615 20.2069L47.1103 20.1215L47.1591 20.0239L47.1957 19.9386L47.2079 19.8532L47.2323 19.7678V19.6825V19.5971V19.5239L47.2079 19.4386L47.1835 19.3776L47.1469 19.3044L47.1103 19.2313L47.0615 19.1825L47.0006 19.1215L46.9396 19.0605L46.8664 19.0239L46.7933 18.9752L46.7079 18.9386L46.5615 18.8898L46.5006 18.8776L46.4396 18.8654H46.3786L46.3176 18.8776L46.2689 18.8898L46.2079 18.902L46.1225 18.9386L46.0494 18.9874L45.9762 19.0483L45.903 19.1215L45.5128 19.6215L45.4762 19.6581L45.4518 19.6825L45.4152 19.7069L45.3786 19.7191H45.3298H45.2933H45.2567L45.2079 19.6947L45.1469 19.6703L45.0981 19.6215L45.0615 19.5849L45.0372 19.5239L45.025 19.463V19.3898L45.0372 19.3166L45.0615 19.2435L45.0981 19.1581L45.1469 19.0971L45.1957 19.0361L45.2567 18.9995L45.3298 18.9874L45.403 18.9752L45.4884 18.9874L45.5737 18.9995L45.7323 18.6093L45.6469 18.5727L45.5615 18.5605L45.4762 18.5483L45.3908 18.5361H45.3176Z" fill="#E6E7F5"/>
<path d="M26.6348 18.5488L26.647 18.5976L26.6714 18.7074L26.7323 18.8781L26.8299 19.0854L26.9031 19.1952L26.9762 19.3171L27.0616 19.4391L27.1714 19.5732L27.2811 19.6952L27.4153 19.8171L27.5616 19.9391L27.7201 20.061L28.7811 20.2927V20.2439L28.7689 20.122L28.7567 20.0366L28.7201 19.9391L28.6714 19.8293L28.6104 19.7196L28.525 19.5976L28.4274 19.4757L28.2933 19.3415L28.2201 19.2805L28.1348 19.2196L28.0494 19.1586L27.9396 19.0976L27.8421 19.0488L27.7201 18.9879L27.5982 18.9391L27.464 18.8903L27.3177 18.8293L27.1592 18.7927L27.1348 18.8049H27.1104H27.0494L26.9884 18.7805L26.8909 18.7439L26.7689 18.6586L26.6348 18.5488Z" fill="#E6E7F5"/>
<path d="M40.9753 18.6709L40.9265 18.6831L40.8778 18.7075L40.829 18.7319L40.7802 18.7928L40.7558 18.8172L40.7436 18.866L40.7192 18.9026V18.9514L40.707 19.0124V19.0855L40.7192 19.0977L40.7314 19.1099L40.7192 19.1221V19.1465L40.6826 19.1709L40.6339 19.1953L40.5607 19.2319L40.5119 19.2441L40.4509 19.2685L40.4022 19.305L40.3656 19.3294L40.3534 19.366L40.3412 19.3904L40.329 19.427V19.4758V19.5246L40.3534 19.5855L40.39 19.6465L40.4022 19.6831L40.4143 19.7197L40.4265 19.7685L40.4143 19.8294L40.4022 19.8538L40.39 19.8782L40.3656 19.9026L40.329 19.927L40.2924 19.9514L40.2436 19.9636L40.1826 19.988L40.1339 20.0124L40.0729 20.0489L40.0241 20.1099L39.9997 20.1465L39.9875 20.1831L39.9753 20.2197V20.2685L39.9875 20.3172L39.9997 20.3782L40.0119 20.4148V20.4514L39.9997 20.5002L39.9875 20.5489L39.9631 20.6099L39.9265 20.6587L39.8534 20.7075L39.8046 20.7563L39.7558 20.805L39.7192 20.8782L39.707 20.9148V20.9636V21.0002L39.7192 21.0489L39.7436 21.0977L39.7802 21.1587L39.8412 21.2075L39.9143 21.2685L39.9631 21.3294L40.0607 21.4636L40.1704 21.6587L40.2314 21.7563L40.268 21.8538L40.3046 21.805L40.3534 21.7563L40.4265 21.7075L40.5119 21.6587L40.6339 21.6221L40.6948 21.5977L40.768 21.5855H40.8412H40.9143L40.9997 21.5733L41.0851 21.5611L41.1826 21.5246L41.2192 21.5002L41.268 21.4758L41.3046 21.4392L41.329 21.3904L41.3412 21.3416L41.3534 21.2685L41.3412 21.2075L41.329 21.1221L41.3046 21.0611L41.2924 21.0002V20.9392V20.9026L41.3046 20.866L41.329 20.8416L41.3534 20.805L41.39 20.7807L41.4387 20.7563L41.4997 20.7441L41.5607 20.7319H41.6461H41.707L41.7558 20.7075L41.7802 20.6953L41.8168 20.6709L41.8412 20.6465L41.8534 20.6099L41.8656 20.5611L41.8534 20.5002L41.829 20.4392L41.7924 20.3538L41.7436 20.2685L41.7192 20.2441L41.6948 20.2075L41.6826 20.1587L41.6704 20.1099L41.6826 20.0489L41.707 19.988L41.7314 19.9514L41.768 19.9026L41.8046 19.8416L41.8412 19.7685L41.8656 19.6831V19.6465L41.8534 19.5855L41.8412 19.5368L41.8168 19.5002L41.7802 19.4636L41.7314 19.4148L41.6704 19.3782L41.5973 19.3416L41.5851 19.3538H41.5607L41.5119 19.3416L41.4387 19.305L41.4022 19.2807L41.3534 19.2319L41.3046 19.1831L41.2436 19.1099L41.1826 19.0246L41.1217 18.927L41.0485 18.805L40.9753 18.6709Z" fill="#E6E7F5"/>
<path d="M29.682 19.707L29.6698 19.7192L29.6454 19.7436L29.621 19.8168L29.6089 19.9143L29.5845 20.0729L29.5723 20.2924V20.5851L29.5845 20.6704V20.768L29.6089 20.8778L29.6332 21.0119L29.6576 21.1461L29.7186 21.268L29.743 21.329L29.7796 21.3778L29.8284 21.39L29.8771 21.4143L29.9381 21.4509L29.9991 21.4875L30.0723 21.5607L30.1332 21.6339L30.1942 21.7314L30.2308 21.6339L30.2552 21.5363L30.2796 21.39L30.2918 21.2192V21.0363V20.9387L30.2674 20.8412L30.2552 20.7436L30.2308 20.6461L30.1576 20.5363L29.9869 20.268L29.8162 19.9631L29.743 19.8168L29.6942 19.707H29.682Z" fill="#E6E7F5"/>
<path d="M44.4151 19.8779L44.1468 20.2926L44.8785 21.2194L43.7077 21.0243L43.4395 21.4511L45.1712 21.6584L45.9882 22.1584L46.2199 21.7926L45.4029 21.2926L44.4151 19.8779Z" fill="#E6E7F5"/>
<path d="M26.1838 20.8661L26.1716 20.8051L26.1472 20.7441L26.1228 20.6832L25.5862 19.7441L25.2813 19.9149L23.3789 21.0002L23.5984 21.3661L24.4643 20.8783L24.696 21.2685L24.7326 21.3417L24.757 21.4027L24.7691 21.4637V21.5124L24.7448 21.5612L24.7082 21.61L24.6594 21.6588L24.5862 21.7076L24.2448 21.9149L24.1472 21.988L24.0374 22.0856L24.2813 22.5124L24.3423 22.4758L24.3545 22.4149L24.3789 22.3661L24.4277 22.3295L24.5009 22.2807L24.8667 22.0612L24.9399 22.0124L25.0009 21.9637L25.0496 21.9149L25.0862 21.8661L25.1106 21.8173L25.135 21.7563L25.1472 21.6954V21.6222V21.5856L25.2204 21.6344L25.2935 21.6588L25.3667 21.671H25.4521L25.5374 21.6588L25.6228 21.6344L25.7204 21.5978L25.8179 21.549L25.8789 21.5124L25.9399 21.4637L25.9887 21.4149L26.0374 21.3661L26.074 21.3173L26.1106 21.2563L26.1472 21.1954L26.1716 21.1344L26.196 21.0734L26.2082 21.0124V20.9515V20.8905L26.1838 20.8661ZM25.7326 20.988L25.7204 21.049L25.696 21.0978L25.6594 21.1466L25.6106 21.1954L25.5496 21.2319L25.4765 21.2685L25.4155 21.2807L25.3545 21.2929H25.3057H25.2935L25.257 21.2807L25.2082 21.2563L25.1716 21.2198L25.135 21.171L24.8545 20.6832L25.3057 20.4271L25.4399 20.3539L25.7204 20.8539L25.7448 20.9149L25.757 20.9758V20.988H25.7326Z" fill="#E6E7F5"/>
<path d="M27.8652 20.6465L27.914 20.7075L27.9628 20.7806L28.0238 20.9636L28.0847 21.1343L28.1091 21.2075L28.2433 21.305L28.3774 21.4026L28.5238 21.4879L28.6701 21.5611L28.8043 21.6221L28.9506 21.6831L29.2067 21.7684L29.4384 21.8294L29.6213 21.8538L29.7799 21.8782L29.7189 21.8172L29.6579 21.7318L29.536 21.5733L29.4262 21.4148L29.3043 21.244L29.2067 21.1221L29.1213 21.0245L29.0604 20.9636L29.0116 20.9148L28.9872 20.8904L28.9628 20.8782L28.7921 20.866L28.6091 20.8294L28.4262 20.7928L28.2555 20.7562L27.9872 20.6831L27.8652 20.6465Z" fill="#E6E7F5"/>
<path d="M30.5234 21.1465L30.682 21.3294L30.8283 21.5245L30.9625 21.7075L31.0844 21.8782L31.2551 22.1587L31.3161 22.2684L31.499 22.3416L31.682 22.4026L31.8649 22.4514L32.0356 22.4879L32.3039 22.5245H32.4015L32.3527 22.4026L32.2917 22.2684L32.2429 22.1587L32.182 22.0611L32.06 21.8782L31.9503 21.744L31.8527 21.6343L31.7673 21.5611L31.6942 21.5001L31.5966 21.4392L31.499 21.3782L31.3893 21.3294L31.2917 21.2806L31.0966 21.2197L30.9137 21.1831L30.7551 21.1587L30.6332 21.1465H30.5234Z" fill="#E6E7F5"/>
<path d="M39.5241 21.5117L39.4875 21.5239L39.4509 21.5361L39.4265 21.5483L39.3778 21.5849L39.3412 21.6215L39.3046 21.6459L39.268 21.6946L39.2314 21.7434L39.207 21.8166V21.8532V21.8898L39.2192 21.9264L39.2436 21.9751L39.268 21.9873L39.3046 21.9995L39.3412 22.0239L39.3778 22.0483L39.4022 22.0971V22.1215V22.1459L39.39 22.1703L39.3778 22.2068L39.39 22.2556L39.4143 22.3044L39.4509 22.3532L39.4753 22.3776L39.4997 22.402L39.5485 22.4142L39.5973 22.4264L39.6583 22.4385H39.7192L39.8046 22.4264L39.89 22.4142L39.9022 22.3898L39.9509 22.3166L39.9997 22.2068L40.0241 22.1337L40.0363 22.0605V21.9995V21.9385L40.0241 21.8776L39.9997 21.8166L39.9875 21.7922L39.9753 21.7678L39.9509 21.7556H39.9265H39.89L39.8534 21.7678H39.8412H39.7924L39.7558 21.7556L39.7314 21.7434L39.707 21.719L39.6826 21.6825L39.6583 21.6459L39.6461 21.5971L39.6095 21.5605L39.5729 21.5361L39.5485 21.5239H39.5241V21.5117Z" fill="#E6E7F5"/>
<path d="M37.5858 21.6953L37.5371 21.7075L37.5005 21.7197L37.4517 21.7441L37.4273 21.7685L37.4029 21.7929L37.3541 21.866L37.3175 21.9392L37.1956 22.0124L37.098 22.049L37.0249 22.0734H36.9761H36.9395H36.9273L36.9151 22.0612L36.8175 22.0124L36.7444 21.9758L36.6712 21.9514L36.6102 21.9392H36.5493L36.5005 21.9514L36.4639 21.9636L36.4273 21.9758L36.4029 22.0002L36.3785 22.0246L36.3419 22.0612L36.3175 22.1221L35.6468 22.6465L35.5371 22.7319L35.4273 22.7929L35.3419 22.8417L35.2566 22.866L35.1834 22.8904L35.1224 22.9026H35.0615H35.0127L34.9761 22.8904L34.9395 22.866L34.8907 22.8417L34.8663 22.8051L34.8541 22.7929L34.7444 22.7319L34.6102 22.6587L34.4639 22.5612L34.2322 22.4026L34.0005 22.2685L33.7932 22.1587L33.598 22.0734L33.4273 22.0246L33.2566 21.9758L33.1224 21.9514L32.9883 21.9392H32.8663L32.7688 21.9514L32.6834 21.9636L32.6224 21.9758L32.5249 22.0124L32.4883 22.0246L32.5371 22.0978L32.5858 22.1587L32.6346 22.2197L32.6834 22.2807L32.8054 22.3782L32.9273 22.4636L33.0615 22.5368L33.1956 22.5978L33.3297 22.6465L33.4517 22.6831L33.5858 22.7197L33.6956 22.7319L33.9029 22.7563L34.0371 22.7685H34.0858L34.22 22.7807L34.3297 22.7929L34.4273 22.8173L34.5127 22.8295L34.5736 22.8538L34.6224 22.8782L34.6712 22.9026L34.6956 22.9148L34.72 22.9392L34.7322 22.9636L34.7444 23.0002L34.7322 23.0246V23.0368L34.6224 23.0978L34.5127 23.1709L34.4151 23.2319L34.3175 23.3173L34.2322 23.3904L34.159 23.4758L34.0371 23.6221L33.9395 23.7685L33.8785 23.8782L33.8175 23.9758L34.0005 24.0368L34.0493 23.8904L34.1102 23.7807L34.1834 23.6709L34.2688 23.5734L34.3419 23.488L34.4273 23.4026L34.5005 23.3417L34.5858 23.2929L34.7322 23.2075L34.8541 23.1587L34.9395 23.1221H34.9639L35.0005 23.0856L35.0371 23.0734L35.098 23.049L35.1468 23.0368L35.2078 23.049L35.2566 23.0734L35.2932 23.0978L35.3175 23.1221L35.4029 23.1587L35.4761 23.1953L35.5371 23.2441L35.598 23.3051L35.659 23.366L35.7078 23.427L35.7932 23.5612L35.8541 23.6831L35.9029 23.7929L35.9395 23.8904L36.1468 23.7929L36.1224 23.7441L36.0858 23.6831L36.0005 23.5612L35.8907 23.427L35.7932 23.3051L35.6102 23.1099L35.5249 23.0368L35.5371 22.988L35.5493 22.9514L35.5736 22.927L35.598 22.9026L35.6346 22.8904L35.6712 22.8782L35.7444 22.866L35.8175 22.8782L35.8785 22.8904L35.9395 22.9148L36.0371 22.9758L36.1346 23.0246L36.2078 23.0368L36.2688 23.049H36.3175L36.3541 23.0368H36.3785L36.4273 23.0856L36.4761 23.1221L36.5249 23.1587L36.5615 23.1709H36.598H36.6224H36.6468L36.6712 23.1587L36.6956 23.1221L36.72 23.0734L36.7322 23.0368L36.7688 23.0124L36.8054 22.988L36.8541 22.9758L36.9151 22.988L36.9639 23.0002L37.0005 23.0368L37.0371 23.0612L37.0615 23.0856L37.1102 23.1831L37.1712 23.2563L37.2322 23.3051L37.281 23.3295L37.3419 23.3538H37.3907L37.4395 23.3417L37.4883 23.3295L37.5371 23.3051L37.5858 23.2807L37.6468 23.2197L37.6956 23.1709L37.7078 23.1465L37.7566 23.0734L37.7932 23.0368L37.8419 23.0124H37.8785L37.9151 23.0246L37.9395 23.0368L37.9761 23.0612L38.0615 23.1343L38.1224 23.1953L38.1834 23.2319L38.2444 23.2563L38.281 23.2685L38.3175 23.2563L38.3541 23.2441L38.3663 23.2197L38.3907 23.1953L38.4029 23.1709L38.4151 23.0978V23.0368V23.0002V22.9758V22.9514L38.4395 22.9392L38.4639 22.9148L38.5005 22.9026H38.5493H38.5858L38.6224 22.9148L38.7322 22.8417L38.8175 22.7929L38.8785 22.7319L38.9273 22.6587L38.9883 22.5734L39.0493 22.488L39.1224 22.4148L39.2444 22.2929L39.3054 22.2319L39.098 22.2929L38.9639 22.3173L38.8785 22.3295L38.8297 22.3173L38.8054 22.3051V22.2929L38.8297 22.2685L38.781 22.1587L38.72 22.0734L38.6712 22.0124L38.6224 21.9636L38.5736 21.927L38.5249 21.9148L38.4761 21.9026H38.4395L38.3907 21.9148L38.3541 21.927L38.2932 21.9514L38.2444 21.988V22.0002L38.098 22.0124H38.0127L37.9395 22.0002L37.9029 21.9758L37.8907 21.9514L37.8785 21.9392V21.9148L37.8176 21.8295L37.7566 21.7685L37.6956 21.7319L37.6346 21.7075L37.5858 21.6953Z" fill="#E6E7F5"/>
<path d="M43.3532 21.7803L43.2801 21.7925L43.2069 21.8169L43.1337 21.8412L43.0605 21.8656L42.9874 21.9144L42.9264 21.9632L42.8532 22.0242L42.7923 22.0852L42.7313 22.1583L42.6825 22.2193L42.6459 22.2925L42.6093 22.3656L42.5971 22.4388L42.5727 22.512L42.5605 22.5852V22.6583L42.5727 22.7315L42.5971 22.8047L42.6215 22.8778L42.6581 22.9388L42.6947 23.012L42.7435 23.0852L42.8044 23.1461L42.8776 23.2071L42.9752 23.2925L43.0727 23.3412L43.1703 23.39L43.2679 23.4022H43.3776L43.4874 23.39L43.5849 23.3412L43.6947 23.2925L44.2069 22.9754L44.2435 22.951L44.2923 22.9388L44.3288 22.9266H44.3776L44.4264 22.9388L44.463 22.951L44.4996 22.9632L44.5362 22.9998L44.5849 23.0486L44.6215 23.1095L44.6337 23.1705V23.2437L44.6215 23.3047L44.5971 23.39L44.5484 23.4632L44.4874 23.5364L44.4142 23.6095L44.3532 23.6583L44.2801 23.6949L44.2069 23.7071H44.1215L44.0484 23.6827L43.9752 23.6461L43.8898 23.5852L43.6093 23.9022L43.6947 23.9632L43.7801 24.0242L43.8532 24.0608L43.9386 24.0973L44.0118 24.1339L44.0971 24.1461L44.1703 24.1583L44.2435 24.1461H44.3166L44.402 24.1217L44.4752 24.0973L44.5362 24.0608L44.6093 24.012L44.6825 23.951L44.7557 23.89L44.8288 23.8169L44.8898 23.7437L44.9386 23.6705L44.9874 23.5973L45.0118 23.512L45.0484 23.4388L45.0605 23.3656L45.0727 23.2925V23.2071L45.0605 23.1339L45.0484 23.0608L45.0118 22.9876L44.9874 22.9144L44.9386 22.8412L44.8898 22.7681L44.8288 22.7071L44.7557 22.6339L44.6459 22.5486L44.5849 22.512L44.5362 22.4876L44.4752 22.4632L44.4264 22.451L44.3654 22.4388H44.3044L44.2069 22.451L44.1215 22.4754L44.0362 22.512L43.9508 22.5608L43.402 22.9022L43.3654 22.9144L43.3288 22.9266L43.2923 22.9388H43.2435L43.2069 22.9266L43.1703 22.9144L43.1337 22.89L43.0971 22.8656L43.0484 22.8169L43.024 22.7559L42.9996 22.7071V22.6461L43.0118 22.573L43.024 22.512L43.0605 22.451L43.1093 22.39L43.1703 22.3169L43.2435 22.2803L43.3045 22.2437L43.3776 22.2315H43.4508L43.524 22.2437L43.5971 22.2803L43.6703 22.3291L43.9508 22.012L43.8776 21.951L43.8044 21.9022L43.7313 21.8656L43.6581 21.8291L43.5849 21.8047L43.5118 21.7925L43.4264 21.7803H43.3532Z" fill="#E6E7F5"/>
<path d="M30.4752 22.2197H30.4508L30.4386 22.2319H30.4264L29.6094 22.2929L29.6704 22.3417L29.7435 22.4027L29.8167 22.4758L29.8777 22.549L29.9752 22.6831L30.024 22.7319L30.146 22.8173L30.2679 22.8905L30.3777 22.9392L30.4996 22.9758L30.5972 23.0124L30.6947 23.0246L30.7923 23.0368L30.8777 23.049L31.024 23.0368L31.1338 23.0246L31.2069 23.0124L31.2313 23.0002L31.5728 22.8905L31.8411 22.8173L32.0118 22.7807L32.085 22.7685L31.9386 22.7441L31.7923 22.7075L31.6338 22.6709L31.4874 22.6222L31.2679 22.5368L31.1704 22.5002L30.9386 22.3783L30.7557 22.3051L30.6216 22.2441L30.5362 22.2197H30.4752Z" fill="#E6E7F5"/>
<path d="M26.9381 21.8535L26.1942 22.195L24.5234 22.9389L24.8283 23.2925L25.3161 23.073L25.8161 23.6584L25.5112 24.0974L25.8161 24.4633L26.2064 23.8779L27.2795 22.256L26.9381 21.8535ZM26.1942 23.0852L26.0722 23.2682L25.7308 22.8657L26.2064 22.6462L26.682 22.4267L26.1942 23.0852Z" fill="#E6E7F5"/>
<path d="M27.8534 22.8662L26.2559 24.8418L27.4022 25.7687L27.6949 25.415L26.89 24.7565L28.1949 23.1345L27.8534 22.8662Z" fill="#E6E7F5"/>
<path d="M32.6458 22.8906L32.4751 22.915L32.3165 22.9394L32.1824 22.9882L32.0605 23.0248L31.9507 23.0857L31.8531 23.1345L31.7678 23.1833L31.6946 23.2321L31.6458 23.2931L31.5848 23.3418L31.5117 23.4272L31.4751 23.476L31.4629 23.5004L31.6214 23.537L31.78 23.5492L31.9385 23.5614L32.0848 23.5492L32.219 23.537L32.3165 23.5248L32.4019 23.5004L32.8287 23.4394L33.0848 23.4028L33.2556 23.3906L33.3044 23.3175L33.3653 23.2443L33.4385 23.1711L33.5117 23.0979L33.6458 22.9882L33.7068 22.9394H33.4263H33.2068L32.8775 22.915L32.6946 22.8906H32.6458Z" fill="#E6E7F5"/>
<path d="M41.6101 23.3291L40.3418 24.195L41.7686 26.2925L43.0857 25.4023L42.8296 25.0242L41.8662 25.6828L41.5003 25.134L42.3418 24.5608L42.0857 24.195L41.2564 24.7681L40.9516 24.3169L41.8662 23.7071L41.6101 23.3291Z" fill="#E6E7F5"/>
<path d="M40.2186 24.2803L39.804 24.4632L40.2186 26.4022L38.9869 24.8534L38.5723 25.0486L40.2796 27.0486L40.6576 26.8778L40.2186 24.2803Z" fill="#E6E7F5"/>
<path d="M31.0968 25.1588L31.0846 25.0978L31.0602 25.0368L31.0358 24.9759L30.9992 24.9271L30.9627 24.8783L30.9261 24.8295L30.8773 24.7929L30.8163 24.7564L30.7553 24.732L30.1822 24.4637L29.7797 24.2686L28.7188 26.5734L29.109 26.7564L29.5114 25.8539L29.9261 26.049L29.9992 26.0856L30.0602 26.1222L30.0968 26.1588L30.1212 26.2198L30.1334 26.2807V26.3417L30.1212 26.4149L30.0846 26.4881L29.9261 26.8539L29.8895 26.9637L29.8529 27.11L30.17 27.2564L30.2919 27.3173L30.3163 27.2564L30.2919 27.2076L30.2797 27.1588L30.2919 27.0978L30.3285 27.0125L30.4992 26.6222L30.5358 26.5368L30.5602 26.4637L30.5724 26.3905V26.3173V26.2564L30.5602 26.1954L30.5358 26.1344L30.4992 26.0734L30.487 26.0368L30.5724 26.0247L30.6456 26.0125L30.7188 25.9759L30.7919 25.9271L30.8651 25.8661L30.9261 25.7929L30.9748 25.732L31.0236 25.6344L31.0602 25.5612L31.0846 25.4881L31.0968 25.4149V25.3661V25.2929V25.232V25.1588ZM30.6456 25.3783L30.6334 25.4515L30.609 25.5247L30.5724 25.5856L30.5358 25.6344L30.487 25.671L30.4383 25.6954L30.3773 25.7076H30.3163L30.2675 25.6954L30.2066 25.671L30.17 25.6588L29.6944 25.4393L29.9748 24.8295L30.17 24.9271L30.487 25.0734L30.5358 25.0978L30.5724 25.1344L30.609 25.1832L30.6212 25.232L30.6334 25.2929L30.6456 25.3783Z" fill="#E6E7F5"/>
<path d="M31.574 25.0605L30.8789 27.4996L32.4033 27.9386L32.5252 27.4996L31.4155 27.1825L31.5984 26.5484L32.574 26.8288L32.696 26.402L31.7204 26.1215L31.8667 25.6093L32.9277 25.9142L33.0496 25.4874L31.574 25.0605Z" fill="#E6E7F5"/>
<path d="M33.8897 25.5605L33.8044 25.5727L33.719 25.5849L33.6458 25.5971L33.5848 25.6337L33.5117 25.6581L33.4507 25.7069L33.4019 25.7435L33.3531 25.8044L33.3044 25.8654L33.2678 25.9264L33.2312 25.9996L33.2068 26.0849L33.1702 26.1581L33.158 26.2557L33.1458 26.3776L33.158 26.4996L33.1824 26.6093L33.219 26.6947L33.2678 26.7923L33.3409 26.8654L33.4263 26.9264L33.5361 26.9874L34.0848 27.2557L34.1214 27.2801L34.158 27.3044L34.1824 27.341L34.2068 27.3776L34.2312 27.4142V27.4508L34.2434 27.4996V27.5362L34.219 27.6093L34.1946 27.6703L34.1458 27.7191L34.097 27.7557L34.0239 27.7801L33.9507 27.8044H33.8531L33.7556 27.7923L33.658 27.7679L33.5848 27.7435L33.5117 27.6947L33.4629 27.6459L33.4263 27.5727L33.4019 27.4996L33.3897 27.4142V27.3166L32.9751 27.2557L32.9629 27.3532V27.4508L32.9751 27.5484L32.9873 27.6337L33.0117 27.7191L33.0361 27.7923L33.0726 27.8532L33.1092 27.9264L33.158 27.9752L33.219 28.0362L33.28 28.0727L33.3531 28.1215L33.4263 28.1581L33.5117 28.1825L33.6092 28.2069L33.7068 28.2313L33.8044 28.2435H33.8897H33.9873L34.0605 28.2313L34.1458 28.2069L34.219 28.1825L34.2922 28.1459L34.3531 28.0971L34.4141 28.0605L34.4629 27.9996L34.5117 27.9386L34.5605 27.8654L34.597 27.7923L34.6214 27.7191L34.6458 27.6215L34.6702 27.5362L34.6824 27.3898L34.6702 27.2557L34.658 27.1947L34.6336 27.1459L34.6092 27.0971L34.5848 27.0484L34.5239 26.9752L34.4507 26.902L34.3775 26.8532L34.2922 26.8044L33.7068 26.5362L33.6702 26.5118L33.6458 26.4874L33.6092 26.463L33.597 26.4264L33.5848 26.3898L33.5726 26.341L33.5605 26.3044L33.5726 26.2557L33.5848 26.1947L33.6092 26.1337L33.658 26.0849L33.7068 26.0484L33.7678 26.024L33.8287 26.0118L33.9019 25.9996L33.9873 26.0118L34.0726 26.024L34.1458 26.0605L34.2068 26.0971L34.2556 26.1459L34.2922 26.2069L34.3165 26.2801L34.3287 26.3532V26.4508L34.7556 26.5118V26.4264L34.7678 26.3288L34.7556 26.2435L34.7434 26.1703L34.719 26.0971L34.6946 26.024L34.658 25.9508L34.6214 25.8898L34.5726 25.8288L34.5117 25.7801L34.4507 25.7313L34.3897 25.6825L34.3165 25.6459L34.2312 25.6215L34.158 25.5971L34.0605 25.5849L33.9751 25.5727L33.8897 25.5605Z" fill="#E6E7F5"/>
<path d="M36.5615 25.6338L35.0371 25.8411L35.3908 28.3533L36.9517 28.1338L36.903 27.6826L35.7566 27.8411L35.6591 27.1948L36.6713 27.0606L36.6103 26.6094L35.5981 26.7557L35.5249 26.2192L36.6225 26.0728L36.5615 25.6338Z" fill="#E6E7F5"/>
<path d="M39.2188 27.4393L39.1701 27.4271L39.1335 27.3905L39.1091 27.3417L39.0847 27.2563L38.9627 26.8539L38.9262 26.7685L38.8896 26.6954L38.853 26.6344L38.8164 26.5856L38.7798 26.549L38.731 26.5124L38.6701 26.488L38.5969 26.4637L38.5603 26.4515L38.6213 26.3905L38.6701 26.3173L38.7067 26.2441L38.731 26.1588L38.7432 26.0734V25.9758L38.731 25.8783L38.7067 25.7807L38.6823 25.7076L38.6579 25.6344L38.6213 25.5734L38.5847 25.5124L38.5481 25.4515L38.4993 25.4027L38.414 25.3661L38.3652 25.3295L38.3042 25.2929L38.2432 25.2685L38.1823 25.2563L38.1213 25.2441H38.0603H37.9871L37.9262 25.2563L37.853 25.2685L37.8164 25.2807L36.8164 25.5734L37.5359 28.0124L37.8164 27.9271L37.9506 27.8905L37.8164 27.4393L37.6701 26.9393L37.8164 26.9027L38.1091 26.8173L38.1945 26.8051L38.2676 26.7929H38.3286L38.3774 26.8173L38.414 26.8539L38.4506 26.9027L38.4871 26.9637L38.5115 27.049L38.6335 27.4271L38.6701 27.549L38.7432 27.671L39.2067 27.5368L39.2188 27.4393ZM38.292 26.1588L38.2798 26.2198L38.2554 26.2685L38.2188 26.3051L38.1701 26.3417L38.1091 26.3661L37.8408 26.4515L37.5725 26.5368L37.3774 25.8905L37.8408 25.7563L37.9262 25.7319L37.9871 25.7197H38.0481L38.0969 25.7319L38.1457 25.7563L38.1945 25.7929L38.231 25.8417L38.2676 25.9027L38.292 25.9758L38.3042 26.049V26.11L38.292 26.1588Z" fill="#E6E7F5"/>
</g>
</g>
<defs>
<clipPath id="clip0_10196_1396">
<rect width="70" height="30" fill="white"/>
</clipPath>
<clipPath id="clip1_10196_1396">
<rect width="30" height="30" fill="white" transform="translate(20)"/>
</clipPath>
</defs>
</svg>
