<svg width="648" height="488" viewBox="0 0 648 488" fill="none" xmlns="http://www.w3.org/2000/svg">
<path d="M272.49 200.179L271.498 164.055L251.76 137.407L255.625 176.268L272.49 200.179Z" fill="#8778B3" fill-opacity="0.36"/>
<path d="M286.639 217.693L328.851 231.923V186.974L285.373 171.512L286.639 217.693Z" fill="#8778B3" fill-opacity="0.36"/>
<path d="M269.225 219.332L245.998 186.39L197.73 196.892L230.502 233.699L269.225 219.332Z" fill="#8778B3" fill-opacity="0.36"/>
<path d="M242.923 278.137L210.254 289.289L248.669 297.669L277.815 288.433L242.923 278.137Z" fill="#8778B3" fill-opacity="0.36"/>
<path d="M260.002 237.362L232.498 247.556L207.287 275.846L238.622 265.173L260.002 237.362Z" fill="#8778B3" fill-opacity="0.36"/>
<path d="M342.539 231.923L384.752 217.693L386.017 171.512L342.539 186.974V231.923Z" fill="#8778B3" fill-opacity="0.36"/>
<path d="M398.918 200.213L415.783 176.302L419.682 137.407L399.91 164.055L398.918 200.213Z" fill="#8778B3" fill-opacity="0.36"/>
<path d="M315.79 167.816L298.275 145.376L263.314 130.017L282.505 155.98L315.79 167.816Z" fill="#8778B3" fill-opacity="0.36"/>
<path d="M388.858 155.98L408.117 130.051L373.156 145.376L355.607 167.816L388.858 155.98Z" fill="#8778B3" fill-opacity="0.36"/>
<path d="M255.342 309.918L250.416 359.109L295.605 339.268L294.613 297.466L255.342 309.918Z" fill="#8778B3" fill-opacity="0.36"/>
<path d="M360.569 139.253L335.699 96.6982L310.83 139.253L335.699 171.032L360.569 139.253Z" fill="#8778B3" fill-opacity="0.36"/>
<path d="M389.001 230.689L346.754 244.92L372.82 280.291L417.12 267.224L389.001 230.689Z" fill="#8778B3" fill-opacity="0.36"/>
<path d="M425.391 186.427L402.164 219.335L440.853 233.736L473.659 196.929L425.391 186.427Z" fill="#8778B3" fill-opacity="0.36"/>
<path d="M411.396 237.362L432.776 265.173L464.111 275.88L438.9 247.59L411.396 237.362Z" fill="#8778B3" fill-opacity="0.36"/>
<path d="M282.366 230.689L254.281 267.224L298.581 280.291L324.613 244.92L282.366 230.689Z" fill="#8778B3" fill-opacity="0.36"/>
<mask id="mask0_11283_204805" style="mask-type:luminance" maskUnits="userSpaceOnUse" x="0" y="2" width="645" height="484">
<path d="M644.836 2.62695H0.835938V485.234H644.836V2.62695Z" fill="white"/>
</mask>
<g mask="url(#mask0_11283_204805)">
<path d="M393.543 288.433L422.722 297.669L461.138 289.323L428.469 278.137L393.543 288.433Z" fill="#8778B3" fill-opacity="0.36"/>
<path d="M376.79 297.466L375.764 339.268L420.952 359.109L416.027 309.918L376.79 297.466Z" fill="#8778B3" fill-opacity="0.36"/>
<path d="M335.695 252.962L309.629 288.333L335.695 326.372L361.762 288.333L335.695 252.962Z" fill="#8778B3" fill-opacity="0.36"/>
<path d="M342.539 375.085L362.003 341.767L362.756 311.116L342.539 340.604V375.085Z" fill="#8778B3" fill-opacity="0.36"/>
<path d="M309.359 341.764L328.858 375.116V340.601L308.641 311.079L309.359 341.764Z" fill="#8778B3" fill-opacity="0.36"/>
</g>
<path d="M644.837 216.314C644.837 164.957 601.562 123.318 548.192 123.318C547.68 123.318 547.169 123.318 546.657 123.352C533.835 82.1909 504.2 47.782 463.244 32.6407C430.267 20.4321 395.824 22.9216 366.019 36.8352C347.092 21.6257 324.38 10.5767 299.418 5.70006C224.495 -8.96382 157.553 37.2444 149.641 108.927C146.947 108.791 144.253 108.688 141.525 108.688C64.8978 108.722 2.83203 164.275 2.83203 232.786C2.83203 289.702 45.6301 337.615 103.979 352.245C102.205 359.509 101.728 366.977 102.819 374.48C109.128 417.755 163.998 445.582 225.348 436.614C233.157 435.488 240.66 433.783 247.855 431.635C256.244 443.536 266.441 454.04 278.377 462.599C337.169 504.647 415.33 483.231 452.945 414.72C453.252 414.174 453.525 413.595 453.832 413.049C459.697 414.89 465.699 416.493 471.906 417.789C546.589 433.578 616.157 403.637 627.309 350.915C631.947 328.919 625.706 306.48 611.417 286.599C631.878 269.548 644.803 244.414 644.803 216.348M499.903 294.442L430.472 309.549L437.531 380.243L372.498 351.665L336.657 413.015L300.816 351.665L235.749 380.209L242.808 309.515L173.376 294.374L220.642 241.345L173.376 188.282L242.808 173.175L235.749 102.482L300.782 131.059L336.623 69.7096L372.464 131.059L437.531 102.482L430.472 173.175L499.869 188.316L452.604 241.345L499.869 294.408L499.903 294.442Z" fill="#8778B3" fill-opacity="0.36"/>
<path d="M644.509 216.335C644.509 164.977 601.234 123.339 547.864 123.339C547.352 123.339 546.841 123.339 546.329 123.373C533.507 82.2115 503.872 47.8025 462.916 32.6612C429.939 20.4527 395.496 22.9421 365.691 36.8557C346.764 21.6462 324.052 10.5972 299.089 5.72057C224.167 -8.94331 157.225 37.265 149.313 108.947C146.619 108.811 143.925 108.709 141.197 108.709C64.5696 108.743 2.50391 164.295 2.50391 232.806C2.50391 289.722 45.302 337.636 103.651 352.266C101.877 359.529 101.4 366.998 102.491 374.5C108.8 417.776 163.67 445.603 225.02 436.634C232.829 435.509 240.332 433.804 247.527 431.655C255.916 443.557 266.113 454.06 278.048 462.62C336.84 504.668 415.002 483.251 452.617 414.74C452.924 414.195 453.197 413.615 453.504 413.069C459.369 414.911 465.371 416.514 471.578 417.81C546.261 433.599 615.829 403.657 626.981 350.936C631.619 328.94 625.378 306.501 611.089 286.619C631.55 269.568 644.475 244.435 644.475 216.369" stroke="#8778B3" stroke-width="3.97728"/>
</svg>
