<svg width="652" height="484" viewBox="0 0 652 484" fill="none" xmlns="http://www.w3.org/2000/svg">
<g clip-path="url(#clip0_11346_1478)">
<path d="M650 214.821C650 163.586 606.32 122.046 552.452 122.046C551.936 122.046 551.42 122.046 550.903 122.08C537.961 81.0171 508.05 46.69 466.711 31.5848C433.426 19.4053 398.662 21.8888 368.578 35.7693C349.475 20.596 326.551 9.57324 301.355 4.70825C225.733 -9.92074 158.166 36.1776 150.18 107.69C147.461 107.553 144.742 107.451 141.988 107.451C64.6453 107.485 2 162.905 2 231.253C2 288.034 45.1977 335.834 104.091 350.429C102.301 357.675 101.819 365.126 102.921 372.61C109.289 415.783 164.671 443.544 226.594 434.596C234.476 433.474 242.048 431.773 249.311 429.629C257.779 441.503 268.07 451.981 280.117 460.52C339.458 502.468 418.35 481.103 456.316 412.755C456.626 412.211 456.901 411.632 457.211 411.088C463.131 412.925 469.189 414.524 475.454 415.817C550.835 431.569 621.052 401.698 632.308 349.102C636.989 327.158 630.69 304.773 616.268 284.938C636.92 267.928 649.966 242.855 649.966 214.855" fill="#8778B3" fill-opacity="0.36"/>
<path d="M650 214.821C650 163.586 606.32 122.046 552.452 122.046C551.936 122.046 551.42 122.046 550.903 122.08C537.961 81.0171 508.05 46.69 466.711 31.5848C433.426 19.4053 398.662 21.8888 368.578 35.7693C349.475 20.596 326.551 9.57324 301.355 4.70825C225.733 -9.92074 158.166 36.1776 150.18 107.69C147.461 107.553 144.742 107.451 141.988 107.451C64.6453 107.485 2 162.905 2 231.253C2 288.034 45.1977 335.834 104.091 350.429C102.301 357.675 101.819 365.126 102.921 372.61C109.289 415.783 164.671 443.544 226.594 434.596C234.476 433.474 242.048 431.773 249.311 429.629C257.779 441.503 268.07 451.981 280.118 460.52C339.458 502.468 418.35 481.103 456.316 412.755C456.626 412.211 456.901 411.632 457.211 411.088C463.131 412.925 469.189 414.524 475.454 415.817C550.835 431.569 621.052 401.698 632.308 349.102C636.989 327.158 630.69 304.773 616.268 284.938C636.92 267.928 649.966 242.855 649.966 214.855" stroke="#8778B3" stroke-width="3.97728"/>
</g>
<defs>
<clipPath id="clip0_11346_1478">
<rect width="652" height="484" fill="white"/>
</clipPath>
</defs>
</svg>
