<svg width="304" height="376" viewBox="0 0 304 376" fill="none" xmlns="http://www.w3.org/2000/svg">
<path d="M289.774 2C297.631 2 304 8.36914 304 16.2256V360.697C304 368.554 297.631 374.923 289.774 374.923H1V2H289.774ZM144.149 112.361L107.789 96.3955L111.751 135.94L72.9443 144.409L99.3594 174.088L72.9443 203.728L111.751 212.195L107.789 251.741L144.149 235.775L164.193 270.076L184.238 235.775L220.599 251.741L216.636 212.195L255.443 203.728L229.028 174.049H228.989L255.443 144.409L216.636 135.94L220.599 96.3955L184.238 112.361L164.193 78.0596L144.149 112.361ZM160.309 229.21V248.672L149.354 229.871L148.966 212.584L160.309 229.21ZM178.916 229.871L167.962 248.672V229.21L179.344 212.584L178.916 229.871ZM209.061 212.079L211.819 239.66L186.491 228.511H186.452L187.035 205.087L209.061 212.079ZM141.818 228.511L116.49 239.621L119.249 212.04L141.274 205.087L141.818 228.511ZM178.761 200.037L164.155 221.363L149.549 200.037L164.155 180.226L178.761 200.037ZM234.311 200.619L212.696 205.314L196.242 200.114L215.897 194.326L234.311 200.619ZM132.029 200.076L115.559 205.281L93.9209 200.581H93.96L112.373 194.288L132.029 200.076ZM158.095 175.797H158.056L143.45 195.608L118.627 188.306L134.398 167.833L158.095 175.797ZM209.722 188.306L184.898 195.608L170.293 175.797H170.254L193.95 167.833L209.722 188.306ZM110.003 187.179L92.2891 193.239L106.507 177.273L106.546 177.234L122.084 171.485L110.003 187.179ZM221.803 177.273L236.021 193.239L235.981 193.2L218.307 187.14L206.264 171.485L221.803 177.273ZM127.135 161.579L105.419 169.62L87.0449 148.993L114.121 143.089L127.135 161.579ZM241.265 148.993L222.891 169.62L201.175 161.54L214.188 143.089L241.265 148.993ZM160.309 143.438V168.649L136.69 160.686L135.952 134.775L160.309 143.438ZM191.619 160.686L167.962 168.649V143.438H168.001L192.318 134.775L191.619 160.686ZM208.905 137.572V137.533L199.389 151.052L199.932 130.696L211.081 115.663L208.905 137.572ZM128.378 130.657L128.921 151.013L119.404 137.494V137.533L117.229 115.624L128.378 130.657ZM178.101 116.828L164.155 134.659L150.209 116.828L164.155 92.9766L178.101 116.828ZM143.294 120.247L153.2 132.911L134.438 126.229L123.6 111.584L143.294 120.247ZM193.833 126.229L175.07 132.911L184.977 120.247H185.016L204.71 111.584L193.833 126.229Z" fill="#8778B3" fill-opacity="0.36"/>
<path d="M32.0769 23.3489V25.6797C32.0769 30.38 28.27 34.2258 23.5308 34.2258H9.46846C6.32192 34.2258 3.60269 35.8573 2.12654 38.3823C1.31077 37.1004 1 35.8962 1 34.2258V23.2712C1 18.6097 4.80692 14.8027 9.46846 14.8027H23.5308C28.27 14.8027 32.0769 18.6097 32.0769 23.3489ZM23.5308 53.6489H9.46846C4.80692 53.6489 1 57.4558 1 62.1174V73.072C1 74.7424 1.31077 75.9466 2.12654 77.2285C3.60269 74.7035 6.32192 73.072 9.46846 73.072H23.5308C28.27 73.072 32.0769 69.265 32.0769 64.5258V62.195C32.0769 57.4947 28.27 53.6489 23.5308 53.6489ZM23.5308 92.495H9.46846C4.80692 92.495 1 96.302 1 100.964V111.918C1 113.589 1.31077 114.793 2.12654 116.075C3.60269 113.55 6.32192 111.918 9.46846 111.918H23.5308C28.27 111.918 32.0769 108.111 32.0769 103.372V101.041C32.0769 96.302 28.27 92.495 23.5308 92.495ZM23.5308 131.341H9.46846C4.80692 131.341 1 135.148 1 139.81V150.764C1 152.435 1.31077 153.639 2.12654 154.921C3.60269 152.396 6.32192 150.764 9.46846 150.764H23.5308C28.27 150.764 32.0769 146.957 32.0769 142.218V139.887C32.0769 135.148 28.27 131.341 23.5308 131.341ZM23.5308 170.187H9.46846C4.80692 170.187 1 173.994 1 178.656V189.61C1 191.281 1.31077 192.485 2.12654 193.767C3.60269 191.242 6.32192 189.61 9.46846 189.61H23.5308C28.27 189.61 32.0769 185.804 32.0769 181.064V178.734C32.0769 173.994 28.27 170.187 23.5308 170.187ZM23.5308 209.034H9.46846C4.80692 209.034 1 212.84 1 217.502V228.457C1 230.127 1.31077 231.331 2.12654 232.613C3.60269 230.088 6.32192 228.457 9.46846 228.457H23.5308C28.27 228.457 32.0769 224.65 32.0769 219.91V217.58C32.0769 212.879 28.27 209.034 23.5308 209.034ZM23.5308 247.88H9.46846C4.80692 247.88 1 251.687 1 256.348V267.303C1 268.973 1.31077 270.177 2.12654 271.459C3.60269 268.934 6.32192 267.303 9.46846 267.303H23.5308C28.27 267.303 32.0769 263.496 32.0769 258.757V256.426C32.0769 251.687 28.27 247.88 23.5308 247.88ZM23.5308 286.726H9.46846C4.80692 286.726 1 290.533 1 295.194V306.149C1 307.819 1.31077 309.024 2.12654 310.305C3.60269 307.78 6.32192 306.149 9.46846 306.149H23.5308C28.27 306.149 32.0769 302.342 32.0769 297.603V295.272C32.0769 290.572 28.27 286.726 23.5308 286.726ZM23.5308 325.572H9.46846C4.80692 325.572 1 329.379 1 334.04V344.995C1 346.665 1.31077 347.87 2.12654 349.152C3.60269 346.627 6.32192 344.995 9.46846 344.995H23.5308C28.27 344.995 32.0769 341.188 32.0769 336.449V334.118C32.0769 329.418 28.27 325.572 23.5308 325.572Z" fill="#8778B3"/>
</svg>
