<svg width="231" height="51" viewBox="0 0 231 51" fill="none" xmlns="http://www.w3.org/2000/svg">
<g clip-path="url(#clip0_11102_17157)">
<path d="M158.053 0C143.12 0 133.208 11.1072 133.208 25.2458C133.208 40.1948 143.254 50.4712 158.053 50.4712C172.569 50.4712 182.847 39.7328 182.847 25.234C182.847 10.7381 172.568 0 158.053 0ZM73.0345 0.035641C68.2906 0.035641 62.288 1.66942 57.8715 5.30127C52.6031 9.63489 48.525 16.4155 48.525 25.5372C48.525 33.4026 51.0735 39.7373 55.6716 44.0281C60.1724 48.2302 66.5387 50.524 74.4326 50.524C80.7873 50.524 88.4624 48.1257 91.754 46.0904C92.906 45.3786 93.2678 45.0729 92.969 43.9094L90.9135 38.0879C90.6748 37.1332 89.616 36.8886 88.7555 37.316C87.3105 38.0263 86.2313 38.5854 84.7663 39.1256C81.9206 40.1776 78.9761 40.8951 76.1733 40.8951C70.2717 40.8951 66.9157 39.2911 64.3458 36.3311C62.7135 34.4515 61.7574 32.0691 61.4601 29.3162H94.0266C95.2115 29.3162 95.7392 28.4973 95.7392 27.1123V24.7653C95.7392 23.6218 95.6875 21.8269 95.5904 20.7535C94.9915 14.1958 92.5788 8.92015 88.5539 5.34548C84.6762 1.89659 79.4706 0.035641 73.0345 0.035641ZM126.129 0.082564C116.725 0.082564 110.983 2.23948 107.298 6.99046C104.475 10.6337 103.964 14.7088 103.968 23.4276V47.3568C104.098 49.062 104.784 49.8595 106.377 49.8595H113.817C115.538 49.8595 116.241 48.9619 116.241 47.3568V22.9813C116.241 17.49 116.308 14.4256 118.239 12.3531C119.9 10.5708 122.128 9.40468 126.802 9.40468C127.728 9.40468 129.948 9.64918 130.723 9.74351C131.016 9.77925 131.254 9.80216 131.38 9.80216C132.186 9.80216 132.466 9.50909 132.725 8.48429L133.841 2.99849C134.047 1.87363 133.875 0.999003 132.755 0.733152C131.051 0.330094 128.339 0.082564 126.129 0.082564ZM2.74188 0.734506C1.93291 0.734506 1.35132 1.37924 1.68434 2.46836C3.90119 9.71061 9.52385 18.3093 15.3539 25.3671C7.92444 32.0605 2.72894 40.9634 0.121927 48.117C-0.262568 49.169 0.33359 49.8567 0.9196 49.8567H9.68677C10.9488 49.8567 11.5275 49.4077 12.1064 48.1256C14.4762 42.8901 17.9954 36.8485 22.6106 31.9488C26.8413 36.0223 30.5432 42.2169 32.9158 48.1256C33.5805 49.7593 34.3493 49.8567 35.3427 49.8567H44.9016C46.7312 49.8567 46.893 48.8649 46.5642 48.0002C42.9181 38.3896 35.1614 28.5799 30.7863 24.4364C34.7926 20.1599 42.0548 11.9003 45.2278 2.46836C45.6952 1.08052 44.8318 0.734506 44.1157 0.734506H36.1115C35.141 0.734506 34.4924 1.07337 33.7748 2.46836C29.4641 10.5982 25.5835 15.3921 23.9127 17.1202C21.2799 13.9943 17.8181 8.37136 15.2854 2.46836C14.7351 1.18771 14.1533 0.734506 13.0399 0.734506H2.74188ZM187.041 0.734506C186.235 0.734506 185.652 1.37924 185.984 2.46836C188.199 9.71061 193.822 18.3093 199.653 25.3671C192.225 32.0605 187.03 40.9634 184.422 48.117C184.038 49.169 184.638 49.8567 185.222 49.8567H193.987C195.248 49.8567 195.827 49.4077 196.404 48.1256C198.775 42.8901 202.293 36.8485 206.91 31.9488C211.142 36.0223 214.844 42.2169 217.214 48.1256C217.884 49.7593 218.651 49.8567 219.642 49.8567H229.201C231.029 49.8567 231.192 48.8649 230.865 48.0002C227.216 38.3896 219.459 28.5799 215.09 24.4364C219.093 20.1599 226.357 11.9003 229.528 2.46836C229.997 1.08052 229.132 0.734506 228.415 0.734506H220.414C219.442 0.734506 218.792 1.07337 218.074 2.46836C213.765 10.5982 209.884 15.3921 208.215 17.1202C205.579 13.9943 202.117 8.37136 199.583 2.46836C199.034 1.18771 198.45 0.734506 197.339 0.734506H187.041ZM158.061 9.2418C166.755 9.2418 170.031 16.7615 170.031 25.2372C170.031 33.7158 166.755 41.2407 158.061 41.2394C149.363 41.2394 146.013 33.7158 146.013 25.2372C146.013 16.7629 149.363 9.2418 158.061 9.2418ZM73.4419 9.28466C79.9466 9.28466 83.9203 13.7027 83.9203 20.2603V20.5576H61.4416C61.6832 18.9268 62.149 17.3773 62.8808 15.9065C64.8847 11.8645 68.7066 9.28466 73.4419 9.28466Z" fill="#D40E2A"/>
</g>
<defs>
<clipPath id="clip0_11102_17157">
<rect width="231" height="50.524" fill="white"/>
</clipPath>
</defs>
</svg>
