<svg width="180" height="120" viewBox="0 0 180 120" fill="none" xmlns="http://www.w3.org/2000/svg">
<g clip-path="url(#clip0_11105_18995)">
<g clip-path="url(#clip1_11105_18995)">
<path d="M123.046 59.9885C123.046 54.8446 121.071 50.291 115.8 50.291C110.524 50.291 108.488 54.8446 108.488 59.9885C108.488 65.1324 110.518 69.6861 115.8 69.6861C121.071 69.6861 123.046 65.1324 123.046 59.9885ZM130.816 59.9885C130.816 68.7826 124.6 75.2817 115.788 75.2817C106.82 75.2817 100.73 69.0536 100.73 59.9945C100.73 51.4234 106.747 44.6953 115.788 44.6953C124.594 44.6953 130.81 51.2005 130.816 59.9885ZM70.8603 57.1515H57.2416C57.3801 56.1758 57.6693 55.2241 58.1029 54.3326C59.3257 51.8811 61.6326 50.3211 64.5118 50.3211C68.457 50.3211 70.8603 53.0015 70.8603 56.9708V57.1515ZM77.9317 57.272C77.5703 53.3026 76.1127 50.0982 73.6612 47.9359C71.3181 45.8458 68.1679 44.7074 64.2648 44.7074C61.3857 44.7074 57.7476 45.7012 55.0732 47.8997C51.8869 50.5259 49.4053 54.6338 49.4053 60.1692C49.4053 64.9397 50.9593 68.7765 53.7421 71.3726C56.4646 73.9205 60.3316 75.3058 65.1081 75.3058C68.963 75.3058 73.619 73.8602 75.6007 72.6254C76.3054 72.1978 76.5283 72.005 76.3536 71.3003L75.1007 67.7706C74.9622 67.2045 74.3117 67.0539 73.7937 67.3129C73.0046 67.7164 72.1975 68.0839 71.3723 68.4031C69.6496 69.0416 67.8547 69.4813 66.1621 69.4813C62.5903 69.4813 60.5424 68.5115 58.9944 66.7045C58.0066 65.5661 57.4283 64.1326 57.2537 62.4641H76.9921C77.7028 62.4641 78.0221 61.9702 78.0221 61.1269V59.7114C78.0221 59.0067 77.9919 57.9285 77.9317 57.272ZM85.0272 48.9237C87.2558 46.0445 90.7433 44.7315 96.4474 44.7315C97.7966 44.7315 99.1398 44.864 100.465 45.135C101.134 45.2916 101.242 45.8217 101.115 46.5144L100.441 49.8392C100.29 50.4596 100.116 50.6403 99.6277 50.6403C99.4952 50.6403 99.3567 50.6283 99.2241 50.6102C98.7543 50.544 97.4111 50.3994 96.851 50.3994C94.014 50.3994 92.6708 51.1101 91.6589 52.1703C90.4783 53.4351 90.4482 55.2964 90.4482 58.6212V73.3964C90.4482 74.3662 90.0205 74.9143 88.9785 74.9143H84.467C83.5033 74.9143 83.0877 74.4385 83.0094 73.3964V58.8863C83.0094 53.6038 83.3166 51.1342 85.0272 48.9237ZM146.194 55.0735C147.206 54.0194 149.555 51.1101 152.163 46.1951C152.609 45.3519 153.006 45.141 153.591 45.141H158.433C158.873 45.141 159.397 45.3519 159.114 46.1951C157.193 51.9052 152.796 56.9166 150.368 59.5067C153.012 62.0184 157.717 67.9574 159.927 73.7879C160.126 74.312 160.024 74.9143 158.921 74.9143H153.127C152.531 74.9143 152.055 74.8601 151.651 73.8602C150.218 70.2824 147.971 66.5238 145.405 64.0543C142.598 67.0298 140.472 70.692 139.038 73.8602C138.683 74.6372 138.334 74.9143 137.569 74.9143H132.256C131.895 74.9143 131.533 74.5047 131.768 73.8602C133.346 69.5234 136.496 64.1326 141.008 60.0668C137.46 55.7903 134.057 50.5801 132.72 46.1891C132.515 45.5265 132.864 45.135 133.364 45.135H139.598C140.279 45.135 140.634 45.4121 140.966 46.1891C142.502 49.7669 144.598 53.1761 146.194 55.0735ZM34.4976 55.0735C35.5035 54.0194 37.8525 51.1101 40.4727 46.1951C40.9124 45.3519 41.3039 45.141 41.8942 45.141H46.743C47.1766 45.141 47.6947 45.3519 47.4116 46.1951C45.4781 51.9052 41.0871 56.9166 38.6597 59.5067C41.3099 62.0184 46.0141 67.9634 48.2367 73.7879C48.4235 74.312 48.3271 74.9143 47.2128 74.9143H41.4184C40.822 74.9143 40.3643 74.8601 39.9607 73.8602C38.5272 70.2824 36.2744 66.5238 33.7145 64.0603C30.9077 67.0298 28.7814 70.698 27.3419 73.8602C26.9985 74.6372 26.6492 74.9143 25.8842 74.9143H20.5596C20.2042 74.9143 19.8428 74.5047 20.0717 73.8602C21.6558 69.5234 24.8 64.1326 29.2994 60.0668C25.7758 55.7963 22.3606 50.5801 21.0234 46.1951C20.8186 45.5326 21.174 45.141 21.6679 45.141H27.902C28.5827 45.141 28.926 45.4181 29.2753 46.1951C30.7992 49.7669 32.9014 53.1761 34.4976 55.0735Z" fill="#D40E2A"/>
</g>
</g>
<defs>
<clipPath id="clip0_11105_18995">
<rect width="140" height="60" fill="white" transform="translate(20 30)"/>
</clipPath>
<clipPath id="clip1_11105_18995">
<rect width="140" height="30.6105" fill="white" transform="translate(20 44.6953)"/>
</clipPath>
</defs>
</svg>
