<svg width="70" height="30" viewBox="0 0 70 30" fill="none" xmlns="http://www.w3.org/2000/svg">
<g clip-path="url(#clip0_10196_1072)">
<g clip-path="url(#clip1_10196_1072)">
<g clip-path="url(#clip2_10196_1072)">
<path d="M51.5232 14.9943C51.5232 12.4223 50.5354 10.1455 47.9002 10.1455C45.2619 10.1455 44.244 12.4223 44.244 14.9943C44.244 17.5662 45.2589 19.843 47.9002 19.843C50.5354 19.843 51.5232 17.5662 51.5232 14.9943ZM55.4082 14.9943C55.4082 19.3913 52.3002 22.6409 47.8941 22.6409C43.4098 22.6409 40.365 19.5268 40.365 14.9973C40.365 10.7117 43.3736 7.34766 47.8941 7.34766C52.2972 7.34766 55.4052 10.6002 55.4082 14.9943ZM25.4302 13.5758H18.6208C18.6901 13.0879 18.8346 12.612 19.0515 12.1663C19.6628 10.9406 20.8163 10.1605 22.2559 10.1605C24.2285 10.1605 25.4302 11.5007 25.4302 13.4854V13.5758ZM28.9659 13.636C28.7852 11.6513 28.0563 10.0491 26.8306 8.96793C25.6591 7.92288 24.084 7.35368 22.1324 7.35368C20.6928 7.35368 18.8738 7.8506 17.5366 8.94986C15.9434 10.2629 14.7026 12.3169 14.7026 15.0846C14.7026 17.4698 15.4796 19.3883 16.871 20.6863C18.2323 21.9602 20.1658 22.6529 22.554 22.6529C24.4815 22.6529 26.8095 21.9301 27.8003 21.3127C28.1527 21.0989 28.2641 21.0025 28.1768 20.6502L27.5504 18.8853C27.4811 18.6022 27.1558 18.5269 26.8968 18.6564C26.5023 18.8582 26.0988 19.0419 25.6862 19.2015C24.8248 19.5208 23.9273 19.7406 23.0811 19.7406C21.2952 19.7406 20.2712 19.2558 19.4972 18.3523C19.0033 17.7831 18.7142 17.0663 18.6268 16.2321H28.496C28.8514 16.2321 29.011 15.9851 29.011 15.5635V14.8557C29.011 14.5034 28.996 13.9643 28.9659 13.636ZM32.5136 9.46184C33.6279 8.02227 35.3717 7.36573 38.2237 7.36573C38.8983 7.36573 39.5699 7.43198 40.2325 7.56751C40.5668 7.64581 40.621 7.91084 40.5577 8.25718L40.2204 9.91961C40.1451 10.2298 40.0578 10.3202 39.8139 10.3202C39.7476 10.3202 39.6783 10.3141 39.6121 10.3051C39.3772 10.272 38.7056 10.1997 38.4255 10.1997C37.007 10.1997 36.3354 10.5551 35.8294 11.0851C35.2391 11.7176 35.2241 12.6482 35.2241 14.3106V21.6982C35.2241 22.1831 35.0103 22.4572 34.4892 22.4572H32.2335C31.7516 22.4572 31.5438 22.2192 31.5047 21.6982V14.4431C31.5047 11.8019 31.6583 10.5671 32.5136 9.46184ZM63.097 12.5367C63.603 12.0097 64.7775 10.5551 66.0815 8.09756C66.3044 7.67593 66.5032 7.57052 66.7953 7.57052H69.2167C69.4365 7.57052 69.6985 7.67593 69.557 8.09756C68.5963 10.9526 66.3978 13.4583 65.1841 14.7533C66.5062 16.0092 68.8583 18.9787 69.9636 21.894C70.063 22.156 70.0118 22.4572 69.4606 22.4572H66.5634C66.2653 22.4572 66.0273 22.43 65.8256 21.9301C65.1088 20.1412 63.9854 18.2619 62.7025 17.0271C61.299 18.5149 60.2359 20.346 59.5191 21.9301C59.3415 22.3186 59.1668 22.4572 58.7843 22.4572H56.128C55.9473 22.4572 55.7666 22.2524 55.8841 21.9301C56.6731 19.7617 58.2482 17.0663 60.504 15.0334C58.7301 12.8951 57.0285 10.29 56.3599 8.09455C56.2575 7.76327 56.4322 7.56751 56.6822 7.56751H59.7992C60.1395 7.56751 60.3172 7.70604 60.4829 8.09455C61.2508 9.88347 62.2989 11.5881 63.097 12.5367ZM7.24878 12.5367C7.75173 12.0097 8.92627 10.5551 10.2363 8.09756C10.4562 7.67593 10.652 7.57052 10.9471 7.57052H13.3715C13.5883 7.57052 13.8473 7.67593 13.7058 8.09756C12.739 10.9526 10.5435 13.4583 9.32984 14.7533C10.655 16.0092 13.0071 18.9817 14.1184 21.894C14.2117 22.156 14.1635 22.4572 13.6064 22.4572H10.7092C10.411 22.4572 10.1821 22.43 9.98036 21.9301C9.26358 20.1412 8.13722 18.2619 6.85726 17.0301C5.45383 18.5149 4.39072 20.349 3.67093 21.9301C3.49926 22.3186 3.32459 22.4572 2.94211 22.4572H0.2798C0.102112 22.4572 -0.0785874 22.2524 0.0358556 21.9301C0.827922 19.7617 2.40001 17.0663 4.64972 15.0334C2.8879 12.8981 1.18029 10.29 0.511698 8.09756C0.409301 7.76628 0.586989 7.57052 0.833945 7.57052H3.95101C4.29133 7.57052 4.46299 7.70906 4.63767 8.09756C5.39962 9.88347 6.45069 11.5881 7.24878 12.5367Z" fill="#E6E7F5"/>
</g>
</g>
</g>
<defs>
<clipPath id="clip0_10196_1072">
<rect width="70" height="30" fill="white"/>
</clipPath>
<clipPath id="clip1_10196_1072">
<rect width="70" height="30" fill="white"/>
</clipPath>
<clipPath id="clip2_10196_1072">
<rect width="70" height="15.3053" fill="white" transform="translate(0 7.34766)"/>
</clipPath>
</defs>
</svg>
